<?xml version="1.0" standalone="no"?><!-- Generator: Gravit.io --><svg xmlns="http://www.w3.org/2000/svg" xmlns:xlink="http://www.w3.org/1999/xlink" style="isolation:isolate" viewBox="0 0 140 116" width="140" height="116"><defs><clipPath id="_clipPath_u3MnN0x86rLWTtruNrgNv0IdkIh3gNyY"><rect width="140" height="116"/></clipPath></defs><g clip-path="url(#_clipPath_u3MnN0x86rLWTtruNrgNv0IdkIh3gNyY)"><g style="isolation:isolate" id="Layer 0"><path d=" M 92.897 69.972 L 92.897 69.972 L 92.897 69.972 Q 93.129 69.972 93.328 69.988 L 93.328 69.988 L 93.328 69.988 Q 93.527 70.005 93.859 70.071 L 93.859 70.071 L 93.859 70.071 Q 93.859 71.863 93.743 73.638 L 93.743 73.638 L 93.743 73.638 Q 93.626 75.413 93.328 77.902 L 93.328 77.902 L 93.328 77.902 Q 93.096 77.968 92.697 78.001 L 92.697 78.001 L 92.697 78.001 Q 92.299 78.034 91.768 78.001 L 91.768 78.001 L 91.768 78.001 Q 91.768 75.28 91.719 73.572 L 91.719 73.572 L 91.719 73.572 Q 91.669 71.863 91.569 70.104 L 91.569 70.104 L 91.569 70.104 Q 91.768 70.038 92.133 70.005 L 92.133 70.005 L 92.133 70.005 Q 92.498 69.972 92.897 69.972 Z  M 102.618 84.935 L 102.618 84.935 L 102.618 84.935 Q 105.007 86.661 105.753 87.872 L 105.753 87.872 L 105.753 87.872 Q 106.5 89.083 106.5 90.543 L 106.5 90.543 L 106.5 90.543 Q 106.5 92.832 105.04 94.325 L 105.04 94.325 L 105.04 94.325 Q 103.58 95.818 101.324 95.818 L 101.324 95.818 L 101.324 95.818 Q 98.968 95.818 97.492 94.126 L 97.492 94.126 L 97.492 94.126 Q 96.015 92.434 96.015 89.647 L 96.015 89.647 L 96.015 89.647 Q 96.513 89.481 97.061 89.398 L 97.061 89.398 L 97.061 89.398 Q 97.608 89.315 98.139 89.348 L 98.139 89.348 L 98.139 89.348 Q 98.072 91.571 98.919 92.832 L 98.919 92.832 L 98.919 92.832 Q 99.765 94.093 101.357 94.093 L 101.357 94.093 L 101.357 94.093 Q 102.552 94.093 103.265 93.28 L 103.265 93.28 L 103.265 93.28 Q 103.978 92.467 103.978 91.074 L 103.978 91.074 L 103.978 91.074 Q 103.978 89.946 103.348 88.967 L 103.348 88.967 L 103.348 88.967 Q 102.718 87.988 100.627 86.462 L 100.627 86.462 L 100.627 86.462 Q 98.172 84.67 97.409 83.393 L 97.409 83.393 L 97.409 83.393 Q 96.646 82.115 96.646 80.556 L 96.646 80.556 L 96.646 80.556 Q 96.646 78.466 97.907 77.221 L 97.907 77.221 L 97.907 77.221 Q 99.167 75.977 101.324 75.977 L 101.324 75.977 L 101.324 75.977 Q 103.381 75.977 104.559 77.172 L 104.559 77.172 L 104.559 77.172 Q 105.737 78.366 106.201 80.987 L 106.201 80.987 L 106.201 80.987 Q 105.704 81.219 105.189 81.336 L 105.189 81.336 L 105.189 81.336 Q 104.675 81.452 104.111 81.518 L 104.111 81.518 L 104.111 81.518 Q 103.846 79.56 103.165 78.665 L 103.165 78.665 L 103.165 78.665 Q 102.485 77.769 101.291 77.769 L 101.291 77.769 L 101.291 77.769 Q 100.295 77.769 99.715 78.432 L 99.715 78.432 L 99.715 78.432 Q 99.134 79.096 99.134 80.224 L 99.134 80.224 L 99.134 80.224 Q 99.134 81.385 99.798 82.381 L 99.798 82.381 L 99.798 82.381 Q 100.461 83.376 102.618 84.935 Z " fill-rule="evenodd" fill="rgb(255,191,0)" vector-effect="non-scaling-stroke" stroke-width="17.311" stroke="rgb(76,151,255)" stroke-linejoin="miter" stroke-linecap="square" stroke-miterlimit="3"/><path d=" M 61.871 78.092 L 61.871 78.092 L 61.871 78.092 Q 61.942 82.616 62.225 87.387 L 62.225 87.387 L 62.225 87.387 Q 62.507 92.158 63.143 99.298 L 63.143 99.298 L 63.143 99.298 Q 62.154 99.439 60.599 99.368 L 60.599 99.368 L 60.599 99.368 Q 59.044 99.298 58.266 99.086 L 58.266 99.086 L 58.266 99.086 Q 57.276 87.281 56.888 78.587 L 56.888 78.587 L 56.888 78.587 Q 56.499 69.892 56.499 56.462 L 56.499 56.462 L 56.499 56.462 Q 56.499 53.847 56.64 50.171 L 56.64 50.171 L 56.64 50.171 Q 56.782 46.495 56.994 43.951 L 56.994 43.951 L 56.994 43.951 Q 60.669 42.961 63.815 42.501 L 63.815 42.501 L 63.815 42.501 Q 66.96 42.042 69.859 42.042 L 69.859 42.042 L 69.859 42.042 Q 78.482 42.042 83.183 45.682 L 83.183 45.682 L 83.183 45.682 Q 87.884 49.323 87.884 55.826 L 87.884 55.826 L 87.884 55.826 Q 87.884 63.177 81.522 68.655 L 81.522 68.655 L 81.522 68.655 Q 75.16 74.134 61.871 78.092 Z  M 63.002 46.849 L 63.002 46.849 L 63.002 46.849 Q 62.437 52.857 62.154 58.477 L 62.154 58.477 L 62.154 58.477 Q 61.871 64.096 61.871 70.741 L 61.871 70.741 L 61.871 70.741 Q 61.871 71.518 61.871 72.26 L 61.871 72.26 L 61.871 72.26 Q 61.871 73.003 61.871 73.78 L 61.871 73.78 L 61.871 73.78 Q 71.909 71.094 76.998 66.747 L 76.998 66.747 L 76.998 66.747 Q 82.087 62.4 82.087 56.533 L 82.087 56.533 L 82.087 56.533 Q 82.087 51.373 78.906 48.651 L 78.906 48.651 L 78.906 48.651 Q 75.726 45.93 69.717 45.93 L 69.717 45.93 L 69.717 45.93 Q 68.091 45.93 66.43 46.142 L 66.43 46.142 L 66.43 46.142 Q 64.769 46.354 63.002 46.849 Z " fill-rule="evenodd" fill="rgb(76,151,255)" vector-effect="non-scaling-stroke" stroke-width="17.311" stroke="rgb(76,151,255)" stroke-linejoin="miter" stroke-linecap="square" stroke-miterlimit="3"/><path d=" M 43.232 40.958 L 43.232 40.958 L 43.232 40.958 Q 43.146 42.083 43.103 43.367 L 43.103 43.367 L 43.103 43.367 Q 43.059 44.651 43.031 46.094 L 43.031 46.094 L 43.031 46.094 Q 42.655 46.123 42.425 46.137 L 42.425 46.137 L 42.425 46.137 Q 42.194 46.151 41.992 46.123 L 41.992 46.123 L 41.992 46.123 Q 41.79 46.094 41.617 46.065 L 41.617 46.065 L 41.617 46.065 Q 41.444 46.036 41.271 45.949 L 41.271 45.949 L 41.271 45.949 Q 41.242 44.709 41.227 44.117 L 41.227 44.117 L 41.227 44.117 Q 41.213 43.526 41.213 43.035 L 41.213 43.035 L 41.213 43.035 Q 41.213 42.083 41.213 41.622 L 41.213 41.622 L 41.213 41.622 Q 41.213 41.16 41.242 40.756 L 41.242 40.756 L 41.242 40.756 Q 39.395 40.525 37.751 40.28 L 37.751 40.28 L 37.751 40.28 Q 36.106 40.035 34.519 39.746 L 34.519 39.746 L 34.519 39.746 Q 34.346 39.458 34.216 39.155 L 34.216 39.155 L 34.216 39.155 Q 34.087 38.852 34 38.448 L 34 38.448 L 34 38.448 Q 36.625 34.611 38.227 31.293 L 38.227 31.293 L 38.227 31.293 Q 39.828 27.975 41.299 23.214 L 41.299 23.214 L 41.299 23.214 Q 41.79 23.272 42.353 23.445 L 42.353 23.445 L 42.353 23.445 Q 42.915 23.618 43.521 23.878 L 43.521 23.878 L 43.521 23.878 Q 42.05 27.946 40.318 31.452 L 40.318 31.452 L 40.318 31.452 Q 38.587 34.957 36.51 38.073 L 36.51 38.073 L 36.51 38.073 Q 37.808 38.362 38.991 38.578 L 38.991 38.578 L 38.991 38.578 Q 40.174 38.794 41.328 38.939 L 41.328 38.939 L 41.328 38.939 Q 41.444 37.323 41.617 35.924 L 41.617 35.924 L 41.617 35.924 Q 41.79 34.524 42.05 33.313 L 42.05 33.313 L 42.05 33.313 Q 42.367 33.168 42.655 33.111 L 42.655 33.111 L 42.655 33.111 Q 42.944 33.053 43.29 33.053 L 43.29 33.053 L 43.29 33.053 Q 43.579 33.024 43.896 33.053 L 43.896 33.053 L 43.896 33.053 Q 44.213 33.082 44.415 33.139 L 44.415 33.139 L 44.415 33.139 Q 44.098 34.236 43.838 35.722 L 43.838 35.722 L 43.838 35.722 Q 43.579 37.207 43.377 39.169 L 43.377 39.169 L 43.377 39.169 Q 44.444 39.256 45.584 39.328 L 45.584 39.328 L 45.584 39.328 Q 46.724 39.4 48.08 39.458 L 48.08 39.458 L 48.08 39.458 Q 48.051 39.891 47.935 40.367 L 47.935 40.367 L 47.935 40.367 Q 47.82 40.843 47.647 41.247 L 47.647 41.247 L 47.647 41.247 Q 46.406 41.189 45.31 41.117 L 45.31 41.117 L 45.31 41.117 Q 44.213 41.045 43.232 40.958 Z " fill="rgb(207,99,207)" vector-effect="non-scaling-stroke" stroke-width="17.311" stroke="rgb(76,151,255)" stroke-linejoin="miter" stroke-linecap="square" stroke-miterlimit="3"/><path d=" M 92.897 69.972 L 92.897 69.972 L 92.897 69.972 Q 93.129 69.972 93.328 69.988 L 93.328 69.988 L 93.328 69.988 Q 93.527 70.005 93.859 70.071 L 93.859 70.071 L 93.859 70.071 Q 93.859 71.863 93.743 73.638 L 93.743 73.638 L 93.743 73.638 Q 93.626 75.413 93.328 77.902 L 93.328 77.902 L 93.328 77.902 Q 93.096 77.968 92.697 78.001 L 92.697 78.001 L 92.697 78.001 Q 92.299 78.034 91.768 78.001 L 91.768 78.001 L 91.768 78.001 Q 91.768 75.28 91.719 73.572 L 91.719 73.572 L 91.719 73.572 Q 91.669 71.863 91.569 70.104 L 91.569 70.104 L 91.569 70.104 Q 91.768 70.038 92.133 70.005 L 92.133 70.005 L 92.133 70.005 Q 92.498 69.972 92.897 69.972 Z  M 102.618 84.935 L 102.618 84.935 L 102.618 84.935 Q 105.007 86.661 105.753 87.872 L 105.753 87.872 L 105.753 87.872 Q 106.5 89.083 106.5 90.543 L 106.5 90.543 L 106.5 90.543 Q 106.5 92.832 105.04 94.325 L 105.04 94.325 L 105.04 94.325 Q 103.58 95.818 101.324 95.818 L 101.324 95.818 L 101.324 95.818 Q 98.968 95.818 97.492 94.126 L 97.492 94.126 L 97.492 94.126 Q 96.015 92.434 96.015 89.647 L 96.015 89.647 L 96.015 89.647 Q 96.513 89.481 97.061 89.398 L 97.061 89.398 L 97.061 89.398 Q 97.608 89.315 98.139 89.348 L 98.139 89.348 L 98.139 89.348 Q 98.072 91.571 98.919 92.832 L 98.919 92.832 L 98.919 92.832 Q 99.765 94.093 101.357 94.093 L 101.357 94.093 L 101.357 94.093 Q 102.552 94.093 103.265 93.28 L 103.265 93.28 L 103.265 93.28 Q 103.978 92.467 103.978 91.074 L 103.978 91.074 L 103.978 91.074 Q 103.978 89.946 103.348 88.967 L 103.348 88.967 L 103.348 88.967 Q 102.718 87.988 100.627 86.462 L 100.627 86.462 L 100.627 86.462 Q 98.172 84.67 97.409 83.393 L 97.409 83.393 L 97.409 83.393 Q 96.646 82.115 96.646 80.556 L 96.646 80.556 L 96.646 80.556 Q 96.646 78.466 97.907 77.221 L 97.907 77.221 L 97.907 77.221 Q 99.167 75.977 101.324 75.977 L 101.324 75.977 L 101.324 75.977 Q 103.381 75.977 104.559 77.172 L 104.559 77.172 L 104.559 77.172 Q 105.737 78.366 106.201 80.987 L 106.201 80.987 L 106.201 80.987 Q 105.704 81.219 105.189 81.336 L 105.189 81.336 L 105.189 81.336 Q 104.675 81.452 104.111 81.518 L 104.111 81.518 L 104.111 81.518 Q 103.846 79.56 103.165 78.665 L 103.165 78.665 L 103.165 78.665 Q 102.485 77.769 101.291 77.769 L 101.291 77.769 L 101.291 77.769 Q 100.295 77.769 99.715 78.432 L 99.715 78.432 L 99.715 78.432 Q 99.134 79.096 99.134 80.224 L 99.134 80.224 L 99.134 80.224 Q 99.134 81.385 99.798 82.381 L 99.798 82.381 L 99.798 82.381 Q 100.461 83.376 102.618 84.935 Z " fill-rule="evenodd" fill="rgb(255,191,0)" vector-effect="non-scaling-stroke" stroke-width="14.426" stroke="rgb(255,255,255)" stroke-linejoin="miter" stroke-linecap="square" stroke-miterlimit="3"/><path d=" M 61.871 78.092 L 61.871 78.092 L 61.871 78.092 Q 61.942 82.616 62.225 87.387 L 62.225 87.387 L 62.225 87.387 Q 62.507 92.158 63.143 99.298 L 63.143 99.298 L 63.143 99.298 Q 62.154 99.439 60.599 99.368 L 60.599 99.368 L 60.599 99.368 Q 59.044 99.298 58.266 99.086 L 58.266 99.086 L 58.266 99.086 Q 57.276 87.281 56.888 78.587 L 56.888 78.587 L 56.888 78.587 Q 56.499 69.892 56.499 56.462 L 56.499 56.462 L 56.499 56.462 Q 56.499 53.847 56.64 50.171 L 56.64 50.171 L 56.64 50.171 Q 56.782 46.495 56.994 43.951 L 56.994 43.951 L 56.994 43.951 Q 60.669 42.961 63.815 42.501 L 63.815 42.501 L 63.815 42.501 Q 66.96 42.042 69.859 42.042 L 69.859 42.042 L 69.859 42.042 Q 78.482 42.042 83.183 45.682 L 83.183 45.682 L 83.183 45.682 Q 87.884 49.323 87.884 55.826 L 87.884 55.826 L 87.884 55.826 Q 87.884 63.177 81.522 68.655 L 81.522 68.655 L 81.522 68.655 Q 75.16 74.134 61.871 78.092 Z  M 63.002 46.849 L 63.002 46.849 L 63.002 46.849 Q 62.437 52.857 62.154 58.477 L 62.154 58.477 L 62.154 58.477 Q 61.871 64.096 61.871 70.741 L 61.871 70.741 L 61.871 70.741 Q 61.871 71.518 61.871 72.26 L 61.871 72.26 L 61.871 72.26 Q 61.871 73.003 61.871 73.78 L 61.871 73.78 L 61.871 73.78 Q 71.909 71.094 76.998 66.747 L 76.998 66.747 L 76.998 66.747 Q 82.087 62.4 82.087 56.533 L 82.087 56.533 L 82.087 56.533 Q 82.087 51.373 78.906 48.651 L 78.906 48.651 L 78.906 48.651 Q 75.726 45.93 69.717 45.93 L 69.717 45.93 L 69.717 45.93 Q 68.091 45.93 66.43 46.142 L 66.43 46.142 L 66.43 46.142 Q 64.769 46.354 63.002 46.849 Z " fill-rule="evenodd" fill="rgb(76,151,255)" vector-effect="non-scaling-stroke" stroke-width="14.426" stroke="rgb(255,255,255)" stroke-linejoin="miter" stroke-linecap="square" stroke-miterlimit="3"/><path d=" M 43.232 40.958 L 43.232 40.958 L 43.232 40.958 Q 43.146 42.083 43.103 43.367 L 43.103 43.367 L 43.103 43.367 Q 43.059 44.651 43.031 46.094 L 43.031 46.094 L 43.031 46.094 Q 42.655 46.123 42.425 46.137 L 42.425 46.137 L 42.425 46.137 Q 42.194 46.151 41.992 46.123 L 41.992 46.123 L 41.992 46.123 Q 41.79 46.094 41.617 46.065 L 41.617 46.065 L 41.617 46.065 Q 41.444 46.036 41.271 45.949 L 41.271 45.949 L 41.271 45.949 Q 41.242 44.709 41.227 44.117 L 41.227 44.117 L 41.227 44.117 Q 41.213 43.526 41.213 43.035 L 41.213 43.035 L 41.213 43.035 Q 41.213 42.083 41.213 41.622 L 41.213 41.622 L 41.213 41.622 Q 41.213 41.16 41.242 40.756 L 41.242 40.756 L 41.242 40.756 Q 39.395 40.525 37.751 40.28 L 37.751 40.28 L 37.751 40.28 Q 36.106 40.035 34.519 39.746 L 34.519 39.746 L 34.519 39.746 Q 34.346 39.458 34.216 39.155 L 34.216 39.155 L 34.216 39.155 Q 34.087 38.852 34 38.448 L 34 38.448 L 34 38.448 Q 36.625 34.611 38.227 31.293 L 38.227 31.293 L 38.227 31.293 Q 39.828 27.975 41.299 23.214 L 41.299 23.214 L 41.299 23.214 Q 41.79 23.272 42.353 23.445 L 42.353 23.445 L 42.353 23.445 Q 42.915 23.618 43.521 23.878 L 43.521 23.878 L 43.521 23.878 Q 42.05 27.946 40.318 31.452 L 40.318 31.452 L 40.318 31.452 Q 38.587 34.957 36.51 38.073 L 36.51 38.073 L 36.51 38.073 Q 37.808 38.362 38.991 38.578 L 38.991 38.578 L 38.991 38.578 Q 40.174 38.794 41.328 38.939 L 41.328 38.939 L 41.328 38.939 Q 41.444 37.323 41.617 35.924 L 41.617 35.924 L 41.617 35.924 Q 41.79 34.524 42.05 33.313 L 42.05 33.313 L 42.05 33.313 Q 42.367 33.168 42.655 33.111 L 42.655 33.111 L 42.655 33.111 Q 42.944 33.053 43.29 33.053 L 43.29 33.053 L 43.29 33.053 Q 43.579 33.024 43.896 33.053 L 43.896 33.053 L 43.896 33.053 Q 44.213 33.082 44.415 33.139 L 44.415 33.139 L 44.415 33.139 Q 44.098 34.236 43.838 35.722 L 43.838 35.722 L 43.838 35.722 Q 43.579 37.207 43.377 39.169 L 43.377 39.169 L 43.377 39.169 Q 44.444 39.256 45.584 39.328 L 45.584 39.328 L 45.584 39.328 Q 46.724 39.4 48.08 39.458 L 48.08 39.458 L 48.08 39.458 Q 48.051 39.891 47.935 40.367 L 47.935 40.367 L 47.935 40.367 Q 47.82 40.843 47.647 41.247 L 47.647 41.247 L 47.647 41.247 Q 46.406 41.189 45.31 41.117 L 45.31 41.117 L 45.31 41.117 Q 44.213 41.045 43.232 40.958 Z " fill="rgb(207,99,207)" vector-effect="non-scaling-stroke" stroke-width="14.426" stroke="rgb(255,255,255)" stroke-linejoin="miter" stroke-linecap="square" stroke-miterlimit="3"/><path d=" M 92.897 69.972 L 92.897 69.972 L 92.897 69.972 Q 93.129 69.972 93.328 69.988 L 93.328 69.988 L 93.328 69.988 Q 93.527 70.005 93.859 70.071 L 93.859 70.071 L 93.859 70.071 Q 93.859 71.863 93.743 73.638 L 93.743 73.638 L 93.743 73.638 Q 93.626 75.413 93.328 77.902 L 93.328 77.902 L 93.328 77.902 Q 93.096 77.968 92.697 78.001 L 92.697 78.001 L 92.697 78.001 Q 92.299 78.034 91.768 78.001 L 91.768 78.001 L 91.768 78.001 Q 91.768 75.28 91.719 73.572 L 91.719 73.572 L 91.719 73.572 Q 91.669 71.863 91.569 70.104 L 91.569 70.104 L 91.569 70.104 Q 91.768 70.038 92.133 70.005 L 92.133 70.005 L 92.133 70.005 Q 92.498 69.972 92.897 69.972 Z  M 102.618 84.935 L 102.618 84.935 L 102.618 84.935 Q 105.007 86.661 105.753 87.872 L 105.753 87.872 L 105.753 87.872 Q 106.5 89.083 106.5 90.543 L 106.5 90.543 L 106.5 90.543 Q 106.5 92.832 105.04 94.325 L 105.04 94.325 L 105.04 94.325 Q 103.58 95.818 101.324 95.818 L 101.324 95.818 L 101.324 95.818 Q 98.968 95.818 97.492 94.126 L 97.492 94.126 L 97.492 94.126 Q 96.015 92.434 96.015 89.647 L 96.015 89.647 L 96.015 89.647 Q 96.513 89.481 97.061 89.398 L 97.061 89.398 L 97.061 89.398 Q 97.608 89.315 98.139 89.348 L 98.139 89.348 L 98.139 89.348 Q 98.072 91.571 98.919 92.832 L 98.919 92.832 L 98.919 92.832 Q 99.765 94.093 101.357 94.093 L 101.357 94.093 L 101.357 94.093 Q 102.552 94.093 103.265 93.28 L 103.265 93.28 L 103.265 93.28 Q 103.978 92.467 103.978 91.074 L 103.978 91.074 L 103.978 91.074 Q 103.978 89.946 103.348 88.967 L 103.348 88.967 L 103.348 88.967 Q 102.718 87.988 100.627 86.462 L 100.627 86.462 L 100.627 86.462 Q 98.172 84.67 97.409 83.393 L 97.409 83.393 L 97.409 83.393 Q 96.646 82.115 96.646 80.556 L 96.646 80.556 L 96.646 80.556 Q 96.646 78.466 97.907 77.221 L 97.907 77.221 L 97.907 77.221 Q 99.167 75.977 101.324 75.977 L 101.324 75.977 L 101.324 75.977 Q 103.381 75.977 104.559 77.172 L 104.559 77.172 L 104.559 77.172 Q 105.737 78.366 106.201 80.987 L 106.201 80.987 L 106.201 80.987 Q 105.704 81.219 105.189 81.336 L 105.189 81.336 L 105.189 81.336 Q 104.675 81.452 104.111 81.518 L 104.111 81.518 L 104.111 81.518 Q 103.846 79.56 103.165 78.665 L 103.165 78.665 L 103.165 78.665 Q 102.485 77.769 101.291 77.769 L 101.291 77.769 L 101.291 77.769 Q 100.295 77.769 99.715 78.432 L 99.715 78.432 L 99.715 78.432 Q 99.134 79.096 99.134 80.224 L 99.134 80.224 L 99.134 80.224 Q 99.134 81.385 99.798 82.381 L 99.798 82.381 L 99.798 82.381 Q 100.461 83.376 102.618 84.935 Z " fill-rule="evenodd" fill="rgb(255,191,0)"/><path d=" M 61.871 78.092 L 61.871 78.092 L 61.871 78.092 Q 61.942 82.616 62.225 87.387 L 62.225 87.387 L 62.225 87.387 Q 62.507 92.158 63.143 99.298 L 63.143 99.298 L 63.143 99.298 Q 62.154 99.439 60.599 99.368 L 60.599 99.368 L 60.599 99.368 Q 59.044 99.298 58.266 99.086 L 58.266 99.086 L 58.266 99.086 Q 57.276 87.281 56.888 78.587 L 56.888 78.587 L 56.888 78.587 Q 56.499 69.892 56.499 56.462 L 56.499 56.462 L 56.499 56.462 Q 56.499 53.847 56.64 50.171 L 56.64 50.171 L 56.64 50.171 Q 56.782 46.495 56.994 43.951 L 56.994 43.951 L 56.994 43.951 Q 60.669 42.961 63.815 42.501 L 63.815 42.501 L 63.815 42.501 Q 66.96 42.042 69.859 42.042 L 69.859 42.042 L 69.859 42.042 Q 78.482 42.042 83.183 45.682 L 83.183 45.682 L 83.183 45.682 Q 87.884 49.323 87.884 55.826 L 87.884 55.826 L 87.884 55.826 Q 87.884 63.177 81.522 68.655 L 81.522 68.655 L 81.522 68.655 Q 75.16 74.134 61.871 78.092 Z  M 63.002 46.849 L 63.002 46.849 L 63.002 46.849 Q 62.437 52.857 62.154 58.477 L 62.154 58.477 L 62.154 58.477 Q 61.871 64.096 61.871 70.741 L 61.871 70.741 L 61.871 70.741 Q 61.871 71.518 61.871 72.26 L 61.871 72.26 L 61.871 72.26 Q 61.871 73.003 61.871 73.78 L 61.871 73.78 L 61.871 73.78 Q 71.909 71.094 76.998 66.747 L 76.998 66.747 L 76.998 66.747 Q 82.087 62.4 82.087 56.533 L 82.087 56.533 L 82.087 56.533 Q 82.087 51.373 78.906 48.651 L 78.906 48.651 L 78.906 48.651 Q 75.726 45.93 69.717 45.93 L 69.717 45.93 L 69.717 45.93 Q 68.091 45.93 66.43 46.142 L 66.43 46.142 L 66.43 46.142 Q 64.769 46.354 63.002 46.849 Z " fill-rule="evenodd" fill="rgb(76,151,255)"/><path d=" M 43.232 40.958 L 43.232 40.958 L 43.232 40.958 Q 43.146 42.083 43.103 43.367 L 43.103 43.367 L 43.103 43.367 Q 43.059 44.651 43.031 46.094 L 43.031 46.094 L 43.031 46.094 Q 42.655 46.123 42.425 46.137 L 42.425 46.137 L 42.425 46.137 Q 42.194 46.151 41.992 46.123 L 41.992 46.123 L 41.992 46.123 Q 41.79 46.094 41.617 46.065 L 41.617 46.065 L 41.617 46.065 Q 41.444 46.036 41.271 45.949 L 41.271 45.949 L 41.271 45.949 Q 41.242 44.709 41.227 44.117 L 41.227 44.117 L 41.227 44.117 Q 41.213 43.526 41.213 43.035 L 41.213 43.035 L 41.213 43.035 Q 41.213 42.083 41.213 41.622 L 41.213 41.622 L 41.213 41.622 Q 41.213 41.16 41.242 40.756 L 41.242 40.756 L 41.242 40.756 Q 39.395 40.525 37.751 40.28 L 37.751 40.28 L 37.751 40.28 Q 36.106 40.035 34.519 39.746 L 34.519 39.746 L 34.519 39.746 Q 34.346 39.458 34.216 39.155 L 34.216 39.155 L 34.216 39.155 Q 34.087 38.852 34 38.448 L 34 38.448 L 34 38.448 Q 36.625 34.611 38.227 31.293 L 38.227 31.293 L 38.227 31.293 Q 39.828 27.975 41.299 23.214 L 41.299 23.214 L 41.299 23.214 Q 41.79 23.272 42.353 23.445 L 42.353 23.445 L 42.353 23.445 Q 42.915 23.618 43.521 23.878 L 43.521 23.878 L 43.521 23.878 Q 42.05 27.946 40.318 31.452 L 40.318 31.452 L 40.318 31.452 Q 38.587 34.957 36.51 38.073 L 36.51 38.073 L 36.51 38.073 Q 37.808 38.362 38.991 38.578 L 38.991 38.578 L 38.991 38.578 Q 40.174 38.794 41.328 38.939 L 41.328 38.939 L 41.328 38.939 Q 41.444 37.323 41.617 35.924 L 41.617 35.924 L 41.617 35.924 Q 41.79 34.524 42.05 33.313 L 42.05 33.313 L 42.05 33.313 Q 42.367 33.168 42.655 33.111 L 42.655 33.111 L 42.655 33.111 Q 42.944 33.053 43.29 33.053 L 43.29 33.053 L 43.29 33.053 Q 43.579 33.024 43.896 33.053 L 43.896 33.053 L 43.896 33.053 Q 44.213 33.082 44.415 33.139 L 44.415 33.139 L 44.415 33.139 Q 44.098 34.236 43.838 35.722 L 43.838 35.722 L 43.838 35.722 Q 43.579 37.207 43.377 39.169 L 43.377 39.169 L 43.377 39.169 Q 44.444 39.256 45.584 39.328 L 45.584 39.328 L 45.584 39.328 Q 46.724 39.4 48.08 39.458 L 48.08 39.458 L 48.08 39.458 Q 48.051 39.891 47.935 40.367 L 47.935 40.367 L 47.935 40.367 Q 47.82 40.843 47.647 41.247 L 47.647 41.247 L 47.647 41.247 Q 46.406 41.189 45.31 41.117 L 45.31 41.117 L 45.31 41.117 Q 44.213 41.045 43.232 40.958 Z " fill="rgb(207,99,207)"/></g></g></svg>