<?xml version="1.0" standalone="no"?><!-- Generator: Gravit.io --><svg xmlns="http://www.w3.org/2000/svg" xmlns:xlink="http://www.w3.org/1999/xlink" style="isolation:isolate" viewBox="0 0 140 116" width="140" height="116"><defs><clipPath id="_clipPath_FrjdIpLRckUyjqYdgGsJCRJGprpjPZeC"><rect width="140" height="116"/></clipPath></defs><g clip-path="url(#_clipPath_FrjdIpLRckUyjqYdgGsJCRJGprpjPZeC)"><path d=" M 78.418 92.68 C 78.418 94.38 77.04 95.757 75.341 95.757 L 9.577 95.757 C 7.877 95.757 6.5 94.38 6.5 92.68 L 6.5 41.531 C 6.5 39.831 7.877 38.454 9.577 38.454 L 75.341 38.454 C 77.04 38.454 78.417 39.832 78.417 41.531 L 78.417 92.68 L 78.418 92.68 Z " fill="rgb(153,102,255)"/><path d=" M 13.358 92.68 L 13.358 41.531 C 13.358 39.831 14.735 38.454 16.435 38.454 L 9.577 38.454 C 7.877 38.454 6.5 39.832 6.5 41.531 L 6.5 92.68 C 6.5 94.38 7.877 95.757 9.577 95.757 L 16.435 95.757 C 14.735 95.757 13.358 94.38 13.358 92.68 Z " fill="rgb(138,92,230)"/><path d=" M 75.341 38.454 L 9.577 38.454 C 7.877 38.454 6.5 39.832 6.5 41.531 L 6.5 67.106 L 78.418 67.106 L 78.418 41.531 C 78.418 39.832 77.04 38.454 75.341 38.454 Z " fill="rgb(255,191,0)"/><path d=" M 13.358 41.531 C 13.358 39.831 14.735 38.454 16.435 38.454 L 9.577 38.454 C 7.877 38.454 6.5 39.832 6.5 41.531 L 6.5 67.106 L 13.358 67.106 L 13.358 41.531 Z " fill="rgb(230,172,0)"/><g id="Group"><path d=" M 68.073 28.897 L 61.075 28.897 C 59.22 28.897 57.715 30.401 57.715 32.257 L 57.715 38.454 L 71.432 38.454 L 71.432 32.257 C 71.432 30.402 69.928 28.897 68.073 28.897 Z " fill="rgb(255,191,0)"/><path d=" M 45.958 28.897 L 38.96 28.897 C 37.104 28.897 35.6 30.401 35.6 32.257 L 35.6 38.454 L 49.317 38.454 L 49.317 32.257 C 49.317 30.402 47.813 28.897 45.958 28.897 Z " fill="rgb(255,191,0)"/><path d=" M 23.843 28.897 L 16.844 28.897 C 14.989 28.897 13.485 30.401 13.485 32.257 L 13.485 38.454 L 27.202 38.454 L 27.202 32.257 C 27.202 30.402 25.698 28.897 23.843 28.897 Z " fill="rgb(255,191,0)"/></g><g id="Group"><path d=" M 68.145 28.897 L 61.144 28.897 C 59.251 28.897 57.715 30.401 57.715 32.257 L 57.715 38.454 L 64.716 38.454 L 64.716 32.257 C 64.716 30.402 66.252 28.897 68.145 28.897 Z " fill="rgb(230,172,0)"/><path d=" M 45.818 28.897 L 38.96 28.897 C 37.104 28.897 35.6 30.401 35.6 32.257 L 35.6 38.454 L 42.458 38.454 L 42.458 32.257 C 42.459 30.402 43.963 28.897 45.818 28.897 Z " fill="rgb(230,172,0)"/><path d=" M 23.703 28.897 L 16.844 28.897 C 14.989 28.897 13.485 30.401 13.485 32.257 L 13.485 38.454 L 20.343 38.454 L 20.343 32.257 C 20.343 30.402 21.847 28.897 23.703 28.897 Z " fill="rgb(230,172,0)"/></g><g id="Group"><path d=" M 113.546 25.173 L 116.236 31.633 C 116.95 33.346 116.139 35.313 114.427 36.026 L 108.706 38.409 L 103.432 25.746 L 109.153 23.363 C 110.865 22.65 112.832 23.46 113.546 25.173 Z " fill="rgb(69,136,230)"/><path d=" M 122.048 45.588 L 124.739 52.048 C 125.452 53.761 124.641 55.728 122.929 56.441 L 117.209 58.824 L 111.935 46.161 L 117.656 43.778 C 119.368 43.065 121.335 43.875 122.048 45.588 Z " fill="rgb(69,136,230)"/><path d=" M 130.55 66.003 L 133.241 72.464 C 133.954 74.176 133.144 76.143 131.432 76.856 L 125.711 79.239 L 120.437 66.576 L 126.158 64.193 C 127.871 63.48 129.837 64.29 130.55 66.003 Z " fill="rgb(69,136,230)"/></g><g id="Group"><path d=" M 111.636 29.388 C 113.349 28.675 115.316 29.485 116.029 31.198 L 116.363 31.999 C 116.327 31.876 116.287 31.754 116.236 31.633 L 113.546 25.172 C 112.832 23.46 110.865 22.65 109.153 23.363 L 103.432 25.745 L 105.938 31.762 L 111.636 29.388 Z " fill="rgb(76,151,255)"/><path d=" M 120.139 49.804 C 121.852 49.091 123.818 49.901 124.532 51.613 L 124.865 52.414 C 124.784 52.131 124.982 52.633 122.048 45.588 C 121.335 43.875 119.369 43.065 117.656 43.778 L 111.935 46.161 L 114.441 52.177 L 120.139 49.804 Z " fill="rgb(76,151,255)"/><path d=" M 128.642 70.219 C 130.354 69.506 132.321 70.316 133.034 72.029 L 133.368 72.829 C 133.332 72.707 133.291 72.585 133.241 72.464 L 130.55 66.003 C 129.837 64.29 127.871 63.48 126.158 64.194 L 120.437 66.576 L 122.943 72.593 L 128.642 70.219 Z " fill="rgb(76,151,255)"/></g><path d=" M 101.929 22.137 L 127.213 82.847 C 127.867 84.415 127.125 86.216 125.557 86.87 L 104.787 95.52 C 103.218 96.173 101.417 95.431 100.764 93.862 L 75.48 33.153 C 74.826 31.584 75.568 29.783 77.137 29.13 L 97.906 20.48 C 99.475 19.827 101.276 20.569 101.929 22.137 Z " fill="rgb(76,151,255)"/><path d=" M 79.389 35.361 L 101.132 26.305 C 101.983 25.951 102.898 25.991 103.679 26.339 L 101.929 22.138 C 101.276 20.569 99.475 19.827 97.906 20.48 L 77.137 29.13 C 75.568 29.783 74.827 31.584 75.48 33.153 L 77.443 37.868 C 77.603 36.786 78.306 35.812 79.389 35.361 Z " fill="rgb(69,136,230)"/></g></svg>