<?xml version="1.0" standalone="no"?><!-- Generator: Gravit.io --><svg xmlns="http://www.w3.org/2000/svg" xmlns:xlink="http://www.w3.org/1999/xlink" style="isolation:isolate" viewBox="0 0 256 256" width="256" height="256"><path d=" M 93.417 148.36 L 93.417 148.36 L 93.417 148.36 Q 93.417 152.388 91.9 155.919 L 91.9 155.919 L 91.9 155.919 Q 90.382 159.45 87.734 162.099 L 87.734 162.099 L 87.734 162.099 Q 85.085 164.747 81.554 166.264 L 81.554 166.264 L 81.554 166.264 Q 78.023 167.782 73.995 167.782 L 73.995 167.782 L 68.367 167.782 L 68.367 167.782 Q 64.339 167.782 60.781 166.264 L 60.781 166.264 L 60.781 166.264 Q 57.222 164.747 54.573 162.099 L 54.573 162.099 L 54.573 162.099 Q 51.925 159.45 50.407 155.919 L 50.407 155.919 L 50.407 155.919 Q 48.89 152.388 48.89 148.36 L 48.89 148.36 L 48.89 105.875 L 48.89 105.875 Q 48.89 101.847 50.407 98.315 L 50.407 98.315 L 50.407 98.315 Q 51.925 94.784 54.573 92.136 L 54.573 92.136 L 54.573 92.136 Q 57.222 89.487 60.781 87.97 L 60.781 87.97 L 60.781 87.97 Q 64.339 86.453 68.367 86.453 L 68.367 86.453 L 73.995 86.453 L 73.995 86.453 Q 78.023 86.453 81.554 87.97 L 81.554 87.97 L 81.554 87.97 Q 85.085 89.487 87.734 92.136 L 87.734 92.136 L 87.734 92.136 Q 90.382 94.784 91.9 98.315 L 91.9 98.315 L 91.9 98.315 Q 93.417 101.847 93.417 105.875 L 93.417 105.875 L 93.417 109.075 L 86.299 110.178 L 86.299 105.875 L 86.299 105.875 Q 86.299 103.226 85.306 100.936 L 85.306 100.936 L 85.306 100.936 Q 84.313 98.646 82.603 96.936 L 82.603 96.936 L 82.603 96.936 Q 80.892 95.226 78.602 94.232 L 78.602 94.232 L 78.602 94.232 Q 76.313 93.239 73.664 93.239 L 73.664 93.239 L 68.698 93.239 L 68.698 93.239 Q 66.05 93.239 63.76 94.232 L 63.76 94.232 L 63.76 94.232 Q 61.47 95.226 59.732 96.936 L 59.732 96.936 L 59.732 96.936 Q 57.994 98.646 57.001 100.936 L 57.001 100.936 L 57.001 100.936 Q 56.008 103.226 56.008 105.875 L 56.008 105.875 L 56.008 148.36 L 56.008 148.36 Q 56.008 151.008 57.001 153.298 L 57.001 153.298 L 57.001 153.298 Q 57.994 155.588 59.732 157.326 L 59.732 157.326 L 59.732 157.326 Q 61.47 159.064 63.76 160.057 L 63.76 160.057 L 63.76 160.057 Q 66.05 161.05 68.698 161.05 L 68.698 161.05 L 73.664 161.05 L 73.664 161.05 Q 76.313 161.05 78.602 160.057 L 78.602 160.057 L 78.602 160.057 Q 80.892 159.064 82.603 157.326 L 82.603 157.326 L 82.603 157.326 Q 84.313 155.588 85.306 153.298 L 85.306 153.298 L 85.306 153.298 Q 86.299 151.008 86.299 148.36 L 86.299 148.36 L 86.299 144.056 L 93.417 145.215 L 93.417 148.36 Z  M 144.179 166.678 L 138.937 148.25 L 113.887 148.25 L 108.701 166.678 L 101.307 166.678 L 124.481 87.556 L 128.233 87.556 L 151.517 166.678 L 144.179 166.678 Z  M 126.191 104.992 L 115.818 141.463 L 137.061 141.463 L 126.633 104.992 L 126.412 102.067 L 126.191 104.992 Z  M 205.038 148.36 L 205.038 148.36 L 205.038 148.36 Q 205.038 152.388 203.52 155.919 L 203.52 155.919 L 203.52 155.919 Q 202.003 159.45 199.354 162.099 L 199.354 162.099 L 199.354 162.099 Q 196.706 164.747 193.175 166.264 L 193.175 166.264 L 193.175 166.264 Q 189.644 167.782 185.616 167.782 L 185.616 167.782 L 179.988 167.782 L 179.988 167.782 Q 175.96 167.782 172.401 166.264 L 172.401 166.264 L 172.401 166.264 Q 168.842 164.747 166.194 162.099 L 166.194 162.099 L 166.194 162.099 Q 163.545 159.45 162.028 155.919 L 162.028 155.919 L 162.028 155.919 Q 160.511 152.388 160.511 148.36 L 160.511 148.36 L 160.511 87.556 L 167.628 87.556 L 167.628 148.36 L 167.628 148.36 Q 167.628 151.008 168.622 153.298 L 168.622 153.298 L 168.622 153.298 Q 169.615 155.588 171.353 157.326 L 171.353 157.326 L 171.353 157.326 Q 173.091 159.064 175.381 160.057 L 175.381 160.057 L 175.381 160.057 Q 177.67 161.05 180.319 161.05 L 180.319 161.05 L 185.285 161.05 L 185.285 161.05 Q 187.933 161.05 190.223 160.057 L 190.223 160.057 L 190.223 160.057 Q 192.513 159.064 194.223 157.326 L 194.223 157.326 L 194.223 157.326 Q 195.934 155.588 196.927 153.298 L 196.927 153.298 L 196.927 153.298 Q 197.92 151.008 197.92 148.36 L 197.92 148.36 L 197.92 87.556 L 205.038 87.556 L 205.038 148.36 Z " fill-rule="evenodd" fill="rgb(254,253,254)"/><path d=" M 206.912 192.568 L 206.912 192.568 L 206.912 192.568 Q 206.912 193.321 206.629 193.981 L 206.629 193.981 L 206.629 193.981 Q 206.345 194.641 205.85 195.136 L 205.85 195.136 L 205.85 195.136 Q 205.355 195.631 204.695 195.914 L 204.695 195.914 L 204.695 195.914 Q 204.036 196.198 203.283 196.198 L 203.283 196.198 L 202.231 196.198 L 202.231 196.198 Q 201.479 196.198 200.813 195.914 L 200.813 195.914 L 200.813 195.914 Q 200.148 195.631 199.654 195.136 L 199.654 195.136 L 199.654 195.136 Q 199.159 194.641 198.875 193.981 L 198.875 193.981 L 198.875 193.981 Q 198.592 193.321 198.592 192.568 L 198.592 192.568 L 198.592 181.206 L 199.922 181.206 L 199.922 192.568 L 199.922 192.568 Q 199.922 193.063 200.107 193.491 L 200.107 193.491 L 200.107 193.491 Q 200.293 193.919 200.618 194.244 L 200.618 194.244 L 200.618 194.244 Q 200.942 194.569 201.37 194.754 L 201.37 194.754 L 201.37 194.754 Q 201.798 194.94 202.293 194.94 L 202.293 194.94 L 203.221 194.94 L 203.221 194.94 Q 203.716 194.94 204.144 194.754 L 204.144 194.754 L 204.144 194.754 Q 204.572 194.569 204.891 194.244 L 204.891 194.244 L 204.891 194.244 Q 205.211 193.919 205.397 193.491 L 205.397 193.491 L 205.397 193.491 Q 205.582 193.063 205.582 192.568 L 205.582 192.568 L 205.582 181.206 L 206.912 181.206 L 206.912 192.568 Z  M 216.718 195.992 L 215.449 195.992 L 215.449 188.259 L 215.449 188.259 Q 215.449 187.877 215.305 187.542 L 215.305 187.542 L 215.305 187.542 Q 215.161 187.207 214.913 186.96 L 214.913 186.96 L 214.913 186.96 Q 214.666 186.712 214.331 186.568 L 214.331 186.568 L 214.331 186.568 Q 213.996 186.423 213.614 186.423 L 213.614 186.423 L 212.769 186.423 L 212.769 186.423 Q 212.387 186.423 212.052 186.568 L 212.052 186.568 L 212.052 186.568 Q 211.717 186.712 211.469 186.96 L 211.469 186.96 L 211.469 186.96 Q 211.222 187.207 211.078 187.542 L 211.078 187.542 L 211.078 187.542 Q 210.933 187.877 210.933 188.259 L 210.933 188.259 L 210.933 195.992 L 209.665 195.992 L 209.665 185.434 L 210.088 185.434 L 210.779 186.506 L 210.779 186.506 Q 211.212 185.918 211.866 185.573 L 211.866 185.573 L 211.866 185.573 Q 212.521 185.227 213.294 185.227 L 213.294 185.227 L 213.614 185.227 L 213.614 185.227 Q 214.253 185.227 214.82 185.47 L 214.82 185.47 L 214.82 185.47 Q 215.387 185.712 215.81 186.135 L 215.81 186.135 L 215.81 186.135 Q 216.233 186.557 216.475 187.124 L 216.475 187.124 L 216.475 187.124 Q 216.718 187.692 216.718 188.331 L 216.718 188.331 L 216.718 195.992 Z  M 221.048 182.897 L 219.574 182.897 L 219.574 181.206 L 221.048 181.206 L 221.048 182.897 Z  M 220.945 195.992 L 219.677 195.992 L 219.677 185.434 L 220.945 185.434 L 220.945 195.992 Z  M 230.956 185.434 L 227.214 195.992 L 226.585 195.992 L 222.842 185.434 L 224.11 185.434 L 226.863 193.435 L 226.904 193.981 L 226.946 193.435 L 229.688 185.434 L 230.956 185.434 Z  M 239.483 195.992 L 239.061 195.992 L 238.359 194.94 L 238.359 194.94 Q 237.926 195.507 237.277 195.852 L 237.277 195.852 L 237.277 195.852 Q 236.627 196.198 235.854 196.198 L 235.854 196.198 L 235.534 196.198 L 235.534 196.198 Q 234.895 196.198 234.328 195.956 L 234.328 195.956 L 234.328 195.956 Q 233.761 195.713 233.338 195.29 L 233.338 195.29 L 233.338 195.29 Q 232.915 194.868 232.673 194.301 L 232.673 194.301 L 232.673 194.301 Q 232.431 193.734 232.431 193.094 L 232.431 193.094 L 232.431 192.991 L 232.431 192.991 Q 232.431 192.352 232.673 191.785 L 232.673 191.785 L 232.673 191.785 Q 232.915 191.218 233.338 190.795 L 233.338 190.795 L 233.338 190.795 Q 233.761 190.372 234.328 190.13 L 234.328 190.13 L 234.328 190.13 Q 234.895 189.888 235.534 189.888 L 235.534 189.888 L 238.215 189.888 L 238.215 188.259 L 238.215 188.259 Q 238.215 187.877 238.071 187.542 L 238.071 187.542 L 238.071 187.542 Q 237.926 187.207 237.679 186.96 L 237.679 186.96 L 237.679 186.96 Q 237.432 186.712 237.096 186.568 L 237.096 186.568 L 237.096 186.568 Q 236.761 186.423 236.38 186.423 L 236.38 186.423 L 235.637 186.423 L 235.637 186.423 Q 235.256 186.423 234.921 186.568 L 234.921 186.568 L 234.921 186.568 Q 234.586 186.712 234.338 186.96 L 234.338 186.96 L 234.338 186.96 Q 234.091 187.207 233.947 187.542 L 233.947 187.542 L 233.947 187.542 Q 233.802 187.877 233.802 188.259 L 233.802 188.259 L 233.802 188.64 L 232.534 188.434 L 232.534 188.331 L 232.534 188.331 Q 232.534 187.692 232.776 187.124 L 232.776 187.124 L 232.776 187.124 Q 233.019 186.557 233.441 186.135 L 233.441 186.135 L 233.441 186.135 Q 233.864 185.712 234.431 185.47 L 234.431 185.47 L 234.431 185.47 Q 234.998 185.227 235.637 185.227 L 235.637 185.227 L 236.38 185.227 L 236.38 185.227 Q 237.019 185.227 237.586 185.47 L 237.586 185.47 L 237.586 185.47 Q 238.153 185.712 238.576 186.135 L 238.576 186.135 L 238.576 186.135 Q 238.999 186.557 239.241 187.124 L 239.241 187.124 L 239.241 187.124 Q 239.483 187.692 239.483 188.331 L 239.483 188.331 L 239.483 195.992 Z  M 238.215 193.166 L 238.215 190.878 L 235.534 190.878 L 235.534 190.878 Q 235.153 190.878 234.818 191.022 L 234.818 191.022 L 234.818 191.022 Q 234.483 191.166 234.235 191.419 L 234.235 191.419 L 234.235 191.419 Q 233.988 191.671 233.843 192.007 L 233.843 192.007 L 233.843 192.007 Q 233.699 192.342 233.699 192.723 L 233.699 192.723 L 233.699 193.166 L 233.699 193.166 Q 233.699 193.548 233.843 193.883 L 233.843 193.883 L 233.843 193.883 Q 233.988 194.218 234.235 194.466 L 234.235 194.466 L 234.235 194.466 Q 234.483 194.713 234.818 194.857 L 234.818 194.857 L 234.818 194.857 Q 235.153 195.002 235.534 195.002 L 235.534 195.002 L 236.38 195.002 L 236.38 195.002 Q 236.761 195.002 237.096 194.857 L 237.096 194.857 L 237.096 194.857 Q 237.432 194.713 237.679 194.466 L 237.679 194.466 L 237.679 194.466 Q 237.926 194.218 238.071 193.883 L 238.071 193.883 L 238.071 193.883 Q 238.215 193.548 238.215 193.166 L 238.215 193.166 Z  M 243.711 195.992 L 242.442 195.992 L 242.442 181.206 L 243.711 181.206 L 243.711 195.992 Z  M 248.464 182.897 L 246.989 182.897 L 246.989 181.206 L 248.464 181.206 L 248.464 182.897 Z  M 248.361 195.992 L 247.093 195.992 L 247.093 185.434 L 248.361 185.434 L 248.361 195.992 Z  M 181.404 195.992 L 180.981 195.992 L 180.28 194.919 L 180.28 194.919 Q 179.847 195.507 179.197 195.852 L 179.197 195.852 L 179.197 195.852 Q 178.548 196.198 177.774 196.198 L 177.774 196.198 L 177.455 196.198 L 177.455 196.198 Q 176.816 196.198 176.248 195.956 L 176.248 195.956 L 176.248 195.956 Q 175.681 195.713 175.259 195.29 L 175.259 195.29 L 175.259 195.29 Q 174.836 194.868 174.594 194.301 L 174.594 194.301 L 174.594 194.301 Q 174.351 193.734 174.351 193.094 L 174.351 193.094 L 174.351 188.331 L 174.351 188.331 Q 174.351 187.692 174.594 187.124 L 174.594 187.124 L 174.594 187.124 Q 174.836 186.557 175.259 186.135 L 175.259 186.135 L 175.259 186.135 Q 175.681 185.712 176.248 185.47 L 176.248 185.47 L 176.248 185.47 Q 176.816 185.227 177.455 185.227 L 177.455 185.227 L 177.774 185.227 L 177.774 185.227 Q 178.486 185.227 179.094 185.516 L 179.094 185.516 L 179.094 185.516 Q 179.703 185.805 180.136 186.32 L 180.136 186.32 L 180.136 181.206 L 181.404 181.206 L 181.404 195.992 Z  M 180.136 193.166 L 180.136 188.259 L 180.136 188.259 Q 180.136 187.877 179.991 187.542 L 179.991 187.542 L 179.991 187.542 Q 179.847 187.207 179.599 186.96 L 179.599 186.96 L 179.599 186.96 Q 179.352 186.712 179.017 186.568 L 179.017 186.568 L 179.017 186.568 Q 178.682 186.423 178.3 186.423 L 178.3 186.423 L 177.455 186.423 L 177.455 186.423 Q 177.073 186.423 176.738 186.568 L 176.738 186.568 L 176.738 186.568 Q 176.403 186.712 176.156 186.96 L 176.156 186.96 L 176.156 186.96 Q 175.908 187.207 175.764 187.542 L 175.764 187.542 L 175.764 187.542 Q 175.62 187.877 175.62 188.259 L 175.62 188.259 L 175.62 193.166 L 175.62 193.166 Q 175.62 193.548 175.764 193.883 L 175.764 193.883 L 175.764 193.883 Q 175.908 194.218 176.156 194.466 L 176.156 194.466 L 176.156 194.466 Q 176.403 194.713 176.738 194.857 L 176.738 194.857 L 176.738 194.857 Q 177.073 195.002 177.455 195.002 L 177.455 195.002 L 178.3 195.002 L 178.3 195.002 Q 178.682 195.002 179.017 194.857 L 179.017 194.857 L 179.017 194.857 Q 179.352 194.713 179.599 194.466 L 179.599 194.466 L 179.599 194.466 Q 179.847 194.218 179.991 193.883 L 179.991 193.883 L 179.991 193.883 Q 180.136 193.548 180.136 193.166 L 180.136 193.166 Z  M 190.993 195.992 L 190.57 195.992 L 189.869 194.94 L 189.869 194.94 Q 189.436 195.507 188.786 195.852 L 188.786 195.852 L 188.786 195.852 Q 188.137 196.198 187.363 196.198 L 187.363 196.198 L 187.044 196.198 L 187.044 196.198 Q 186.404 196.198 185.837 195.956 L 185.837 195.956 L 185.837 195.956 Q 185.27 195.713 184.848 195.29 L 184.848 195.29 L 184.848 195.29 Q 184.425 194.868 184.182 194.301 L 184.182 194.301 L 184.182 194.301 Q 183.94 193.734 183.94 193.094 L 183.94 193.094 L 183.94 192.991 L 183.94 192.991 Q 183.94 192.352 184.182 191.785 L 184.182 191.785 L 184.182 191.785 Q 184.425 191.218 184.848 190.795 L 184.848 190.795 L 184.848 190.795 Q 185.27 190.372 185.837 190.13 L 185.837 190.13 L 185.837 190.13 Q 186.404 189.888 187.044 189.888 L 187.044 189.888 L 189.724 189.888 L 189.724 188.259 L 189.724 188.259 Q 189.724 187.877 189.58 187.542 L 189.58 187.542 L 189.58 187.542 Q 189.436 187.207 189.188 186.96 L 189.188 186.96 L 189.188 186.96 Q 188.941 186.712 188.606 186.568 L 188.606 186.568 L 188.606 186.568 Q 188.271 186.423 187.889 186.423 L 187.889 186.423 L 187.147 186.423 L 187.147 186.423 Q 186.765 186.423 186.43 186.568 L 186.43 186.568 L 186.43 186.568 Q 186.095 186.712 185.848 186.96 L 185.848 186.96 L 185.848 186.96 Q 185.6 187.207 185.456 187.542 L 185.456 187.542 L 185.456 187.542 Q 185.311 187.877 185.311 188.259 L 185.311 188.259 L 185.311 188.64 L 184.043 188.434 L 184.043 188.331 L 184.043 188.331 Q 184.043 187.692 184.286 187.124 L 184.286 187.124 L 184.286 187.124 Q 184.528 186.557 184.951 186.135 L 184.951 186.135 L 184.951 186.135 Q 185.373 185.712 185.94 185.47 L 185.94 185.47 L 185.94 185.47 Q 186.508 185.227 187.147 185.227 L 187.147 185.227 L 187.889 185.227 L 187.889 185.227 Q 188.528 185.227 189.095 185.47 L 189.095 185.47 L 189.095 185.47 Q 189.663 185.712 190.085 186.135 L 190.085 186.135 L 190.085 186.135 Q 190.508 186.557 190.75 187.124 L 190.75 187.124 L 190.75 187.124 Q 190.993 187.692 190.993 188.331 L 190.993 188.331 L 190.993 195.992 Z  M 189.724 193.166 L 189.724 190.878 L 187.044 190.878 L 187.044 190.878 Q 186.662 190.878 186.327 191.022 L 186.327 191.022 L 186.327 191.022 Q 185.992 191.166 185.745 191.419 L 185.745 191.419 L 185.745 191.419 Q 185.497 191.671 185.353 192.007 L 185.353 192.007 L 185.353 192.007 Q 185.208 192.342 185.208 192.723 L 185.208 192.723 L 185.208 193.166 L 185.208 193.166 Q 185.208 193.548 185.353 193.883 L 185.353 193.883 L 185.353 193.883 Q 185.497 194.218 185.745 194.466 L 185.745 194.466 L 185.745 194.466 Q 185.992 194.713 186.327 194.857 L 186.327 194.857 L 186.327 194.857 Q 186.662 195.002 187.044 195.002 L 187.044 195.002 L 187.889 195.002 L 187.889 195.002 Q 188.271 195.002 188.606 194.857 L 188.606 194.857 L 188.606 194.857 Q 188.941 194.713 189.188 194.466 L 189.188 194.466 L 189.188 194.466 Q 189.436 194.218 189.58 193.883 L 189.58 193.883 L 189.58 193.883 Q 189.724 193.548 189.724 193.166 L 189.724 193.166 Z  M 99.816 195.992 L 98.837 192.548 L 94.156 192.548 L 93.186 195.992 L 91.805 195.992 L 96.135 181.206 L 96.836 181.206 L 101.187 195.992 L 99.816 195.992 Z  M 96.455 184.464 L 94.516 191.28 L 98.486 191.28 L 96.537 184.464 L 96.496 183.918 L 96.455 184.464 Z  M 109.714 193.094 L 109.714 193.094 L 109.714 193.094 Q 109.714 193.734 109.472 194.301 L 109.472 194.301 L 109.472 194.301 Q 109.23 194.868 108.807 195.29 L 108.807 195.29 L 108.807 195.29 Q 108.384 195.713 107.817 195.956 L 107.817 195.956 L 107.817 195.956 Q 107.25 196.198 106.611 196.198 L 106.611 196.198 L 106.291 196.198 L 106.291 196.198 Q 105.58 196.198 104.971 195.909 L 104.971 195.909 L 104.971 195.909 Q 104.363 195.62 103.93 195.105 L 103.93 195.105 L 103.93 200.219 L 102.662 200.219 L 102.662 185.434 L 103.085 185.434 L 103.775 186.506 L 103.775 186.506 Q 104.208 185.918 104.863 185.573 L 104.863 185.573 L 104.863 185.573 Q 105.518 185.227 106.291 185.227 L 106.291 185.227 L 106.611 185.227 L 106.611 185.227 Q 107.25 185.227 107.817 185.47 L 107.817 185.47 L 107.817 185.47 Q 108.384 185.712 108.807 186.135 L 108.807 186.135 L 108.807 186.135 Q 109.23 186.557 109.472 187.124 L 109.472 187.124 L 109.472 187.124 Q 109.714 187.692 109.714 188.331 L 109.714 188.331 L 109.714 193.094 Z  M 108.446 193.166 L 108.446 188.259 L 108.446 188.259 Q 108.446 187.877 108.302 187.542 L 108.302 187.542 L 108.302 187.542 Q 108.157 187.207 107.91 186.96 L 107.91 186.96 L 107.91 186.96 Q 107.662 186.712 107.327 186.568 L 107.327 186.568 L 107.327 186.568 Q 106.992 186.423 106.611 186.423 L 106.611 186.423 L 105.765 186.423 L 105.765 186.423 Q 105.384 186.423 105.049 186.568 L 105.049 186.568 L 105.049 186.568 Q 104.714 186.712 104.466 186.96 L 104.466 186.96 L 104.466 186.96 Q 104.219 187.207 104.074 187.542 L 104.074 187.542 L 104.074 187.542 Q 103.93 187.877 103.93 188.259 L 103.93 188.259 L 103.93 193.166 L 103.93 193.166 Q 103.93 193.548 104.074 193.883 L 104.074 193.883 L 104.074 193.883 Q 104.219 194.218 104.466 194.466 L 104.466 194.466 L 104.466 194.466 Q 104.714 194.713 105.049 194.857 L 105.049 194.857 L 105.049 194.857 Q 105.384 195.002 105.765 195.002 L 105.765 195.002 L 106.611 195.002 L 106.611 195.002 Q 106.992 195.002 107.327 194.857 L 107.327 194.857 L 107.327 194.857 Q 107.662 194.713 107.91 194.466 L 107.91 194.466 L 107.91 194.466 Q 108.157 194.218 108.302 193.883 L 108.302 193.883 L 108.302 193.883 Q 108.446 193.548 108.446 193.166 L 108.446 193.166 Z  M 113.942 195.992 L 112.673 195.992 L 112.673 181.206 L 113.942 181.206 L 113.942 195.992 Z  M 118.695 182.897 L 117.22 182.897 L 117.22 181.206 L 118.695 181.206 L 118.695 182.897 Z  M 118.592 195.992 L 117.323 195.992 L 117.323 185.434 L 118.592 185.434 L 118.592 195.992 Z  M 128.603 193.094 L 128.603 193.094 L 128.603 193.094 Q 128.603 193.734 128.361 194.301 L 128.361 194.301 L 128.361 194.301 Q 128.119 194.868 127.696 195.29 L 127.696 195.29 L 127.696 195.29 Q 127.273 195.713 126.706 195.956 L 126.706 195.956 L 126.706 195.956 Q 126.139 196.198 125.5 196.198 L 125.5 196.198 L 124.654 196.198 L 124.654 196.198 Q 124.015 196.198 123.448 195.956 L 123.448 195.956 L 123.448 195.956 Q 122.881 195.713 122.458 195.29 L 122.458 195.29 L 122.458 195.29 Q 122.035 194.868 121.793 194.301 L 121.793 194.301 L 121.793 194.301 Q 121.551 193.734 121.551 193.094 L 121.551 193.094 L 121.551 188.331 L 121.551 188.331 Q 121.551 187.692 121.793 187.124 L 121.793 187.124 L 121.793 187.124 Q 122.035 186.557 122.458 186.135 L 122.458 186.135 L 122.458 186.135 Q 122.881 185.712 123.448 185.47 L 123.448 185.47 L 123.448 185.47 Q 124.015 185.227 124.654 185.227 L 124.654 185.227 L 125.5 185.227 L 125.5 185.227 Q 126.139 185.227 126.706 185.47 L 126.706 185.47 L 126.706 185.47 Q 127.273 185.712 127.696 186.135 L 127.696 186.135 L 127.696 186.135 Q 128.119 186.557 128.361 187.124 L 128.361 187.124 L 128.361 187.124 Q 128.603 187.692 128.603 188.331 L 128.603 188.331 L 128.603 188.754 L 127.335 188.96 L 127.335 188.259 L 127.335 188.259 Q 127.335 187.877 127.191 187.542 L 127.191 187.542 L 127.191 187.542 Q 127.046 187.207 126.799 186.96 L 126.799 186.96 L 126.799 186.96 Q 126.551 186.712 126.216 186.568 L 126.216 186.568 L 126.216 186.568 Q 125.881 186.423 125.5 186.423 L 125.5 186.423 L 124.654 186.423 L 124.654 186.423 Q 124.273 186.423 123.938 186.568 L 123.938 186.568 L 123.938 186.568 Q 123.603 186.712 123.355 186.96 L 123.355 186.96 L 123.355 186.96 Q 123.108 187.207 122.963 187.542 L 122.963 187.542 L 122.963 187.542 Q 122.819 187.877 122.819 188.259 L 122.819 188.259 L 122.819 193.166 L 122.819 193.166 Q 122.819 193.548 122.963 193.883 L 122.963 193.883 L 122.963 193.883 Q 123.108 194.218 123.355 194.466 L 123.355 194.466 L 123.355 194.466 Q 123.603 194.713 123.938 194.857 L 123.938 194.857 L 123.938 194.857 Q 124.273 195.002 124.654 195.002 L 124.654 195.002 L 125.5 195.002 L 125.5 195.002 Q 125.881 195.002 126.216 194.857 L 126.216 194.857 L 126.216 194.857 Q 126.551 194.713 126.799 194.466 L 126.799 194.466 L 126.799 194.466 Q 127.046 194.218 127.191 193.883 L 127.191 193.883 L 127.191 193.883 Q 127.335 193.548 127.335 193.166 L 127.335 193.166 L 127.335 192.465 L 128.603 192.672 L 128.603 193.094 Z  M 138.192 195.992 L 137.769 195.992 L 137.068 194.94 L 137.068 194.94 Q 136.635 195.507 135.986 195.852 L 135.986 195.852 L 135.986 195.852 Q 135.336 196.198 134.563 196.198 L 134.563 196.198 L 134.243 196.198 L 134.243 196.198 Q 133.604 196.198 133.037 195.956 L 133.037 195.956 L 133.037 195.956 Q 132.47 195.713 132.047 195.29 L 132.047 195.29 L 132.047 195.29 Q 131.624 194.868 131.382 194.301 L 131.382 194.301 L 131.382 194.301 Q 131.14 193.734 131.14 193.094 L 131.14 193.094 L 131.14 192.991 L 131.14 192.991 Q 131.14 192.352 131.382 191.785 L 131.382 191.785 L 131.382 191.785 Q 131.624 191.218 132.047 190.795 L 132.047 190.795 L 132.047 190.795 Q 132.47 190.372 133.037 190.13 L 133.037 190.13 L 133.037 190.13 Q 133.604 189.888 134.243 189.888 L 134.243 189.888 L 136.924 189.888 L 136.924 188.259 L 136.924 188.259 Q 136.924 187.877 136.78 187.542 L 136.78 187.542 L 136.78 187.542 Q 136.635 187.207 136.388 186.96 L 136.388 186.96 L 136.388 186.96 Q 136.14 186.712 135.805 186.568 L 135.805 186.568 L 135.805 186.568 Q 135.47 186.423 135.089 186.423 L 135.089 186.423 L 134.346 186.423 L 134.346 186.423 Q 133.965 186.423 133.63 186.568 L 133.63 186.568 L 133.63 186.568 Q 133.295 186.712 133.047 186.96 L 133.047 186.96 L 133.047 186.96 Q 132.8 187.207 132.655 187.542 L 132.655 187.542 L 132.655 187.542 Q 132.511 187.877 132.511 188.259 L 132.511 188.259 L 132.511 188.64 L 131.243 188.434 L 131.243 188.331 L 131.243 188.331 Q 131.243 187.692 131.485 187.124 L 131.485 187.124 L 131.485 187.124 Q 131.727 186.557 132.15 186.135 L 132.15 186.135 L 132.15 186.135 Q 132.573 185.712 133.14 185.47 L 133.14 185.47 L 133.14 185.47 Q 133.707 185.227 134.346 185.227 L 134.346 185.227 L 135.089 185.227 L 135.089 185.227 Q 135.728 185.227 136.295 185.47 L 136.295 185.47 L 136.295 185.47 Q 136.862 185.712 137.285 186.135 L 137.285 186.135 L 137.285 186.135 Q 137.708 186.557 137.95 187.124 L 137.95 187.124 L 137.95 187.124 Q 138.192 187.692 138.192 188.331 L 138.192 188.331 L 138.192 195.992 Z  M 136.924 193.166 L 136.924 190.878 L 134.243 190.878 L 134.243 190.878 Q 133.862 190.878 133.527 191.022 L 133.527 191.022 L 133.527 191.022 Q 133.191 191.166 132.944 191.419 L 132.944 191.419 L 132.944 191.419 Q 132.697 191.671 132.552 192.007 L 132.552 192.007 L 132.552 192.007 Q 132.408 192.342 132.408 192.723 L 132.408 192.723 L 132.408 193.166 L 132.408 193.166 Q 132.408 193.548 132.552 193.883 L 132.552 193.883 L 132.552 193.883 Q 132.697 194.218 132.944 194.466 L 132.944 194.466 L 132.944 194.466 Q 133.191 194.713 133.527 194.857 L 133.527 194.857 L 133.527 194.857 Q 133.862 195.002 134.243 195.002 L 134.243 195.002 L 135.089 195.002 L 135.089 195.002 Q 135.47 195.002 135.805 194.857 L 135.805 194.857 L 135.805 194.857 Q 136.14 194.713 136.388 194.466 L 136.388 194.466 L 136.388 194.466 Q 136.635 194.218 136.78 193.883 L 136.78 193.883 L 136.78 193.883 Q 136.924 193.548 136.924 193.166 L 136.924 193.166 Z  M 143.131 197.538 L 143.956 196.198 L 143.832 196.198 L 143.832 196.198 Q 143.193 196.198 142.626 195.956 L 142.626 195.956 L 142.626 195.956 Q 142.059 195.713 141.636 195.29 L 141.636 195.29 L 141.636 195.29 Q 141.213 194.868 140.971 194.301 L 140.971 194.301 L 140.971 194.301 Q 140.729 193.734 140.729 193.094 L 140.729 193.094 L 140.729 188.331 L 140.729 188.331 Q 140.729 187.692 140.971 187.124 L 140.971 187.124 L 140.971 187.124 Q 141.213 186.557 141.636 186.135 L 141.636 186.135 L 141.636 186.135 Q 142.059 185.712 142.626 185.47 L 142.626 185.47 L 142.626 185.47 Q 143.193 185.227 143.832 185.227 L 143.832 185.227 L 144.677 185.227 L 144.677 185.227 Q 145.317 185.227 145.884 185.47 L 145.884 185.47 L 145.884 185.47 Q 146.451 185.712 146.874 186.135 L 146.874 186.135 L 146.874 186.135 Q 147.296 186.557 147.539 187.124 L 147.539 187.124 L 147.539 187.124 Q 147.781 187.692 147.781 188.331 L 147.781 188.331 L 147.781 188.754 L 146.513 188.96 L 146.513 188.259 L 146.513 188.259 Q 146.513 187.877 146.368 187.542 L 146.368 187.542 L 146.368 187.542 Q 146.224 187.207 145.977 186.96 L 145.977 186.96 L 145.977 186.96 Q 145.729 186.712 145.394 186.568 L 145.394 186.568 L 145.394 186.568 Q 145.059 186.423 144.677 186.423 L 144.677 186.423 L 143.832 186.423 L 143.832 186.423 Q 143.451 186.423 143.115 186.568 L 143.115 186.568 L 143.115 186.568 Q 142.78 186.712 142.533 186.96 L 142.533 186.96 L 142.533 186.96 Q 142.285 187.207 142.141 187.542 L 142.141 187.542 L 142.141 187.542 Q 141.997 187.877 141.997 188.259 L 141.997 188.259 L 141.997 193.166 L 141.997 193.166 Q 141.997 193.548 142.141 193.883 L 142.141 193.883 L 142.141 193.883 Q 142.285 194.218 142.533 194.466 L 142.533 194.466 L 142.533 194.466 Q 142.78 194.713 143.115 194.857 L 143.115 194.857 L 143.115 194.857 Q 143.451 195.002 143.832 195.002 L 143.832 195.002 L 144.677 195.002 L 144.677 195.002 Q 145.059 195.002 145.394 194.857 L 145.394 194.857 L 145.394 194.857 Q 145.729 194.713 145.977 194.466 L 145.977 194.466 L 145.977 194.466 Q 146.224 194.218 146.368 193.883 L 146.368 193.883 L 146.368 193.883 Q 146.513 193.548 146.513 193.166 L 146.513 193.166 L 146.513 192.465 L 147.781 192.672 L 147.781 193.094 L 147.781 193.094 Q 147.781 193.713 147.549 194.259 L 147.549 194.259 L 147.549 194.259 Q 147.317 194.806 146.92 195.223 L 146.92 195.223 L 146.92 195.223 Q 146.523 195.641 145.987 195.899 L 145.987 195.899 L 145.987 195.899 Q 145.451 196.157 144.842 196.198 L 144.842 196.198 L 144.358 197.043 L 144.358 197.043 Q 144.451 197.085 144.616 197.193 L 144.616 197.193 L 144.616 197.193 Q 144.781 197.301 144.94 197.487 L 144.94 197.487 L 144.94 197.487 Q 145.1 197.672 145.214 197.93 L 145.214 197.93 L 145.214 197.93 Q 145.327 198.188 145.327 198.528 L 145.327 198.528 L 145.327 198.528 Q 145.327 198.92 145.188 199.239 L 145.188 199.239 L 145.188 199.239 Q 145.049 199.559 144.796 199.781 L 144.796 199.781 L 144.796 199.781 Q 144.543 200.002 144.193 200.121 L 144.193 200.121 L 144.193 200.121 Q 143.842 200.24 143.43 200.24 L 143.43 200.24 L 143.43 200.24 Q 142.966 200.24 142.59 200.059 L 142.59 200.059 L 142.59 200.059 Q 142.213 199.879 141.914 199.58 L 141.914 199.58 L 142.399 198.837 L 142.399 198.837 Q 142.45 198.899 142.543 198.982 L 142.543 198.982 L 142.543 198.982 Q 142.636 199.064 142.775 199.136 L 142.775 199.136 L 142.775 199.136 Q 142.914 199.209 143.084 199.26 L 143.084 199.26 L 143.084 199.26 Q 143.255 199.312 143.451 199.312 L 143.451 199.312 L 143.451 199.312 Q 143.832 199.312 144.095 199.095 L 144.095 199.095 L 144.095 199.095 Q 144.358 198.879 144.358 198.487 L 144.358 198.487 L 144.358 198.487 Q 144.358 198.239 144.26 198.054 L 144.26 198.054 L 144.26 198.054 Q 144.162 197.868 143.992 197.744 L 143.992 197.744 L 143.992 197.744 Q 143.822 197.621 143.6 197.569 L 143.6 197.569 L 143.6 197.569 Q 143.378 197.518 143.131 197.538 L 143.131 197.538 Z  M 157.37 195.992 L 156.947 195.992 L 156.246 194.94 L 156.246 194.94 Q 155.813 195.507 155.163 195.852 L 155.163 195.852 L 155.163 195.852 Q 154.514 196.198 153.74 196.198 L 153.74 196.198 L 153.421 196.198 L 153.421 196.198 Q 152.782 196.198 152.215 195.956 L 152.215 195.956 L 152.215 195.956 Q 151.647 195.713 151.225 195.29 L 151.225 195.29 L 151.225 195.29 Q 150.802 194.868 150.56 194.301 L 150.56 194.301 L 150.56 194.301 Q 150.317 193.734 150.317 193.094 L 150.317 193.094 L 150.317 192.991 L 150.317 192.991 Q 150.317 192.352 150.56 191.785 L 150.56 191.785 L 150.56 191.785 Q 150.802 191.218 151.225 190.795 L 151.225 190.795 L 151.225 190.795 Q 151.647 190.372 152.215 190.13 L 152.215 190.13 L 152.215 190.13 Q 152.782 189.888 153.421 189.888 L 153.421 189.888 L 156.102 189.888 L 156.102 188.259 L 156.102 188.259 Q 156.102 187.877 155.957 187.542 L 155.957 187.542 L 155.957 187.542 Q 155.813 187.207 155.565 186.96 L 155.565 186.96 L 155.565 186.96 Q 155.318 186.712 154.983 186.568 L 154.983 186.568 L 154.983 186.568 Q 154.648 186.423 154.266 186.423 L 154.266 186.423 L 153.524 186.423 L 153.524 186.423 Q 153.142 186.423 152.807 186.568 L 152.807 186.568 L 152.807 186.568 Q 152.472 186.712 152.225 186.96 L 152.225 186.96 L 152.225 186.96 Q 151.977 187.207 151.833 187.542 L 151.833 187.542 L 151.833 187.542 Q 151.689 187.877 151.689 188.259 L 151.689 188.259 L 151.689 188.64 L 150.42 188.434 L 150.42 188.331 L 150.42 188.331 Q 150.42 187.692 150.663 187.124 L 150.663 187.124 L 150.663 187.124 Q 150.905 186.557 151.328 186.135 L 151.328 186.135 L 151.328 186.135 Q 151.751 185.712 152.318 185.47 L 152.318 185.47 L 152.318 185.47 Q 152.885 185.227 153.524 185.227 L 153.524 185.227 L 154.266 185.227 L 154.266 185.227 Q 154.906 185.227 155.473 185.47 L 155.473 185.47 L 155.473 185.47 Q 156.04 185.712 156.462 186.135 L 156.462 186.135 L 156.462 186.135 Q 156.885 186.557 157.128 187.124 L 157.128 187.124 L 157.128 187.124 Q 157.37 187.692 157.37 188.331 L 157.37 188.331 L 157.37 195.992 Z  M 156.102 193.166 L 156.102 190.878 L 153.421 190.878 L 153.421 190.878 Q 153.039 190.878 152.704 191.022 L 152.704 191.022 L 152.704 191.022 Q 152.369 191.166 152.122 191.419 L 152.122 191.419 L 152.122 191.419 Q 151.874 191.671 151.73 192.007 L 151.73 192.007 L 151.73 192.007 Q 151.586 192.342 151.586 192.723 L 151.586 192.723 L 151.586 193.166 L 151.586 193.166 Q 151.586 193.548 151.73 193.883 L 151.73 193.883 L 151.73 193.883 Q 151.874 194.218 152.122 194.466 L 152.122 194.466 L 152.122 194.466 Q 152.369 194.713 152.704 194.857 L 152.704 194.857 L 152.704 194.857 Q 153.039 195.002 153.421 195.002 L 153.421 195.002 L 154.266 195.002 L 154.266 195.002 Q 154.648 195.002 154.983 194.857 L 154.983 194.857 L 154.983 194.857 Q 155.318 194.713 155.565 194.466 L 155.565 194.466 L 155.565 194.466 Q 155.813 194.218 155.957 193.883 L 155.957 193.883 L 155.957 193.883 Q 156.102 193.548 156.102 193.166 L 156.102 193.166 Z  M 155.256 182.392 L 155.256 182.392 L 155.256 182.392 Q 155.689 182.392 155.916 182.062 L 155.916 182.062 L 155.916 182.062 Q 156.143 181.732 156.143 181.206 L 156.143 181.206 L 157.112 181.206 L 157.112 181.206 Q 157.112 181.67 156.993 182.072 L 156.993 182.072 L 156.993 182.072 Q 156.875 182.474 156.643 182.773 L 156.643 182.773 L 156.643 182.773 Q 156.411 183.072 156.055 183.248 L 156.055 183.248 L 156.055 183.248 Q 155.699 183.423 155.236 183.423 L 155.236 183.423 L 155.236 183.423 Q 154.741 183.423 154.364 183.237 L 154.364 183.237 L 154.364 183.237 Q 153.988 183.052 153.663 182.835 L 153.663 182.835 L 153.663 182.835 Q 153.338 182.619 153.045 182.433 L 153.045 182.433 L 153.045 182.433 Q 152.751 182.248 152.431 182.248 L 152.431 182.248 L 152.431 182.248 Q 151.998 182.248 151.781 182.572 L 151.781 182.572 L 151.781 182.572 Q 151.565 182.897 151.565 183.402 L 151.565 183.402 L 150.596 183.402 L 150.596 183.402 Q 150.596 182.949 150.709 182.547 L 150.709 182.547 L 150.709 182.547 Q 150.823 182.144 151.055 181.845 L 151.055 181.845 L 151.055 181.845 Q 151.287 181.546 151.642 181.376 L 151.642 181.376 L 151.642 181.376 Q 151.998 181.206 152.472 181.206 L 152.472 181.206 L 152.472 181.206 Q 152.936 181.206 153.292 181.392 L 153.292 181.392 L 153.292 181.392 Q 153.648 181.577 153.962 181.799 L 153.962 181.799 L 153.962 181.799 Q 154.277 182.021 154.586 182.206 L 154.586 182.206 L 154.586 182.206 Q 154.895 182.392 155.256 182.392 Z  M 166.959 193.094 L 166.959 193.094 L 166.959 193.094 Q 166.959 193.734 166.716 194.301 L 166.716 194.301 L 166.716 194.301 Q 166.474 194.868 166.051 195.29 L 166.051 195.29 L 166.051 195.29 Q 165.629 195.713 165.061 195.956 L 165.061 195.956 L 165.061 195.956 Q 164.494 196.198 163.855 196.198 L 163.855 196.198 L 163.01 196.198 L 163.01 196.198 Q 162.37 196.198 161.803 195.956 L 161.803 195.956 L 161.803 195.956 Q 161.236 195.713 160.814 195.29 L 160.814 195.29 L 160.814 195.29 Q 160.391 194.868 160.149 194.301 L 160.149 194.301 L 160.149 194.301 Q 159.906 193.734 159.906 193.094 L 159.906 193.094 L 159.906 188.331 L 159.906 188.331 Q 159.906 187.692 160.149 187.124 L 160.149 187.124 L 160.149 187.124 Q 160.391 186.557 160.814 186.135 L 160.814 186.135 L 160.814 186.135 Q 161.236 185.712 161.803 185.47 L 161.803 185.47 L 161.803 185.47 Q 162.37 185.227 163.01 185.227 L 163.01 185.227 L 163.855 185.227 L 163.855 185.227 Q 164.494 185.227 165.061 185.47 L 165.061 185.47 L 165.061 185.47 Q 165.629 185.712 166.051 186.135 L 166.051 186.135 L 166.051 186.135 Q 166.474 186.557 166.716 187.124 L 166.716 187.124 L 166.716 187.124 Q 166.959 187.692 166.959 188.331 L 166.959 188.331 L 166.959 193.094 Z  M 165.69 193.166 L 165.69 188.259 L 165.69 188.259 Q 165.69 187.877 165.546 187.542 L 165.546 187.542 L 165.546 187.542 Q 165.402 187.207 165.154 186.96 L 165.154 186.96 L 165.154 186.96 Q 164.907 186.712 164.572 186.568 L 164.572 186.568 L 164.572 186.568 Q 164.237 186.423 163.855 186.423 L 163.855 186.423 L 163.01 186.423 L 163.01 186.423 Q 162.628 186.423 162.293 186.568 L 162.293 186.568 L 162.293 186.568 Q 161.958 186.712 161.711 186.96 L 161.711 186.96 L 161.711 186.96 Q 161.463 187.207 161.319 187.542 L 161.319 187.542 L 161.319 187.542 Q 161.174 187.877 161.174 188.259 L 161.174 188.259 L 161.174 193.166 L 161.174 193.166 Q 161.174 193.548 161.319 193.883 L 161.319 193.883 L 161.319 193.883 Q 161.463 194.218 161.711 194.466 L 161.711 194.466 L 161.711 194.466 Q 161.958 194.713 162.293 194.857 L 162.293 194.857 L 162.293 194.857 Q 162.628 195.002 163.01 195.002 L 163.01 195.002 L 163.855 195.002 L 163.855 195.002 Q 164.237 195.002 164.572 194.857 L 164.572 194.857 L 164.572 194.857 Q 164.907 194.713 165.154 194.466 L 165.154 194.466 L 165.154 194.466 Q 165.402 194.218 165.546 193.883 L 165.546 193.883 L 165.546 193.883 Q 165.69 193.548 165.69 193.166 L 165.69 193.166 Z  M 75.885 195.992 L 75.462 195.992 L 74.761 194.919 L 74.761 194.919 Q 74.328 195.507 73.679 195.852 L 73.679 195.852 L 73.679 195.852 Q 73.029 196.198 72.256 196.198 L 72.256 196.198 L 71.936 196.198 L 71.936 196.198 Q 71.297 196.198 70.73 195.956 L 70.73 195.956 L 70.73 195.956 Q 70.163 195.713 69.74 195.29 L 69.74 195.29 L 69.74 195.29 Q 69.317 194.868 69.075 194.301 L 69.075 194.301 L 69.075 194.301 Q 68.833 193.734 68.833 193.094 L 68.833 193.094 L 68.833 188.331 L 68.833 188.331 Q 68.833 187.692 69.075 187.124 L 69.075 187.124 L 69.075 187.124 Q 69.317 186.557 69.74 186.135 L 69.74 186.135 L 69.74 186.135 Q 70.163 185.712 70.73 185.47 L 70.73 185.47 L 70.73 185.47 Q 71.297 185.227 71.936 185.227 L 71.936 185.227 L 72.256 185.227 L 72.256 185.227 Q 72.967 185.227 73.576 185.516 L 73.576 185.516 L 73.576 185.516 Q 74.184 185.805 74.617 186.32 L 74.617 186.32 L 74.617 181.206 L 75.885 181.206 L 75.885 195.992 Z  M 74.617 193.166 L 74.617 188.259 L 74.617 188.259 Q 74.617 187.877 74.473 187.542 L 74.473 187.542 L 74.473 187.542 Q 74.328 187.207 74.081 186.96 L 74.081 186.96 L 74.081 186.96 Q 73.833 186.712 73.498 186.568 L 73.498 186.568 L 73.498 186.568 Q 73.163 186.423 72.782 186.423 L 72.782 186.423 L 71.936 186.423 L 71.936 186.423 Q 71.555 186.423 71.22 186.568 L 71.22 186.568 L 71.22 186.568 Q 70.885 186.712 70.637 186.96 L 70.637 186.96 L 70.637 186.96 Q 70.39 187.207 70.245 187.542 L 70.245 187.542 L 70.245 187.542 Q 70.101 187.877 70.101 188.259 L 70.101 188.259 L 70.101 193.166 L 70.101 193.166 Q 70.101 193.548 70.245 193.883 L 70.245 193.883 L 70.245 193.883 Q 70.39 194.218 70.637 194.466 L 70.637 194.466 L 70.637 194.466 Q 70.885 194.713 71.22 194.857 L 71.22 194.857 L 71.22 194.857 Q 71.555 195.002 71.936 195.002 L 71.936 195.002 L 72.782 195.002 L 72.782 195.002 Q 73.163 195.002 73.498 194.857 L 73.498 194.857 L 73.498 194.857 Q 73.833 194.713 74.081 194.466 L 74.081 194.466 L 74.081 194.466 Q 74.328 194.218 74.473 193.883 L 74.473 193.883 L 74.473 193.883 Q 74.617 193.548 74.617 193.166 L 74.617 193.166 Z  M 85.474 193.094 L 85.474 193.094 L 85.474 193.094 Q 85.474 193.734 85.232 194.301 L 85.232 194.301 L 85.232 194.301 Q 84.989 194.868 84.567 195.29 L 84.567 195.29 L 84.567 195.29 Q 84.144 195.713 83.577 195.956 L 83.577 195.956 L 83.577 195.956 Q 83.01 196.198 82.371 196.198 L 82.371 196.198 L 81.525 196.198 L 81.525 196.198 Q 80.886 196.198 80.319 195.956 L 80.319 195.956 L 80.319 195.956 Q 79.752 195.713 79.329 195.29 L 79.329 195.29 L 79.329 195.29 Q 78.906 194.868 78.664 194.301 L 78.664 194.301 L 78.664 194.301 Q 78.422 193.734 78.422 193.094 L 78.422 193.094 L 78.422 188.331 L 78.422 188.331 Q 78.422 187.692 78.664 187.124 L 78.664 187.124 L 78.664 187.124 Q 78.906 186.557 79.329 186.135 L 79.329 186.135 L 79.329 186.135 Q 79.752 185.712 80.319 185.47 L 80.319 185.47 L 80.319 185.47 Q 80.886 185.227 81.525 185.227 L 81.525 185.227 L 82.371 185.227 L 82.371 185.227 Q 83.01 185.227 83.577 185.47 L 83.577 185.47 L 83.577 185.47 Q 84.144 185.712 84.567 186.135 L 84.567 186.135 L 84.567 186.135 Q 84.989 186.557 85.232 187.124 L 85.232 187.124 L 85.232 187.124 Q 85.474 187.692 85.474 188.331 L 85.474 188.331 L 85.474 190.816 L 79.69 190.816 L 79.69 193.166 L 79.69 193.166 Q 79.69 193.548 79.834 193.883 L 79.834 193.883 L 79.834 193.883 Q 79.979 194.218 80.226 194.466 L 80.226 194.466 L 80.226 194.466 Q 80.473 194.713 80.809 194.857 L 80.809 194.857 L 80.809 194.857 Q 81.144 195.002 81.525 195.002 L 81.525 195.002 L 82.371 195.002 L 82.371 195.002 Q 82.752 195.002 83.087 194.857 L 83.087 194.857 L 83.087 194.857 Q 83.422 194.713 83.67 194.466 L 83.67 194.466 L 83.67 194.466 Q 83.917 194.218 84.061 193.883 L 84.061 193.883 L 84.061 193.883 Q 84.206 193.548 84.206 193.166 L 84.206 193.166 L 84.206 192.465 L 85.474 192.672 L 85.474 193.094 Z  M 84.206 189.826 L 84.206 188.259 L 84.206 188.259 Q 84.206 187.877 84.061 187.542 L 84.061 187.542 L 84.061 187.542 Q 83.917 187.207 83.67 186.96 L 83.67 186.96 L 83.67 186.96 Q 83.422 186.712 83.087 186.568 L 83.087 186.568 L 83.087 186.568 Q 82.752 186.423 82.371 186.423 L 82.371 186.423 L 81.525 186.423 L 81.525 186.423 Q 81.144 186.423 80.809 186.568 L 80.809 186.568 L 80.809 186.568 Q 80.473 186.712 80.226 186.96 L 80.226 186.96 L 80.226 186.96 Q 79.979 187.207 79.834 187.542 L 79.834 187.542 L 79.834 187.542 Q 79.69 187.877 79.69 188.259 L 79.69 188.259 L 79.69 189.826 L 84.206 189.826 Z  M 13.785 192.568 L 13.785 192.568 L 13.785 192.568 Q 13.785 193.321 13.501 193.981 L 13.501 193.981 L 13.501 193.981 Q 13.217 194.641 12.723 195.136 L 12.723 195.136 L 12.723 195.136 Q 12.228 195.631 11.568 195.914 L 11.568 195.914 L 11.568 195.914 Q 10.908 196.198 10.155 196.198 L 10.155 196.198 L 9.104 196.198 L 9.104 196.198 Q 8.351 196.198 7.686 195.914 L 7.686 195.914 L 7.686 195.914 Q 7.021 195.631 6.526 195.136 L 6.526 195.136 L 6.526 195.136 Q 6.031 194.641 5.747 193.981 L 5.747 193.981 L 5.747 193.981 Q 5.464 193.321 5.464 192.568 L 5.464 192.568 L 5.464 184.629 L 5.464 184.629 Q 5.464 183.877 5.747 183.217 L 5.747 183.217 L 5.747 183.217 Q 6.031 182.557 6.526 182.062 L 6.526 182.062 L 6.526 182.062 Q 7.021 181.567 7.686 181.284 L 7.686 181.284 L 7.686 181.284 Q 8.351 181 9.104 181 L 9.104 181 L 10.155 181 L 10.155 181 Q 10.908 181 11.568 181.284 L 11.568 181.284 L 11.568 181.284 Q 12.228 181.567 12.723 182.062 L 12.723 182.062 L 12.723 182.062 Q 13.217 182.557 13.501 183.217 L 13.501 183.217 L 13.501 183.217 Q 13.785 183.877 13.785 184.629 L 13.785 184.629 L 13.785 185.227 L 12.454 185.434 L 12.454 184.629 L 12.454 184.629 Q 12.454 184.134 12.269 183.707 L 12.269 183.707 L 12.269 183.707 Q 12.083 183.279 11.764 182.959 L 11.764 182.959 L 11.764 182.959 Q 11.444 182.639 11.016 182.454 L 11.016 182.454 L 11.016 182.454 Q 10.588 182.268 10.093 182.268 L 10.093 182.268 L 9.165 182.268 L 9.165 182.268 Q 8.67 182.268 8.243 182.454 L 8.243 182.454 L 8.243 182.454 Q 7.815 182.639 7.49 182.959 L 7.49 182.959 L 7.49 182.959 Q 7.165 183.279 6.98 183.707 L 6.98 183.707 L 6.98 183.707 Q 6.794 184.134 6.794 184.629 L 6.794 184.629 L 6.794 192.568 L 6.794 192.568 Q 6.794 193.063 6.98 193.491 L 6.98 193.491 L 6.98 193.491 Q 7.165 193.919 7.49 194.244 L 7.49 194.244 L 7.49 194.244 Q 7.815 194.569 8.243 194.754 L 8.243 194.754 L 8.243 194.754 Q 8.67 194.94 9.165 194.94 L 9.165 194.94 L 10.093 194.94 L 10.093 194.94 Q 10.588 194.94 11.016 194.754 L 11.016 194.754 L 11.016 194.754 Q 11.444 194.569 11.764 194.244 L 11.764 194.244 L 11.764 194.244 Q 12.083 193.919 12.269 193.491 L 12.269 193.491 L 12.269 193.491 Q 12.454 193.063 12.454 192.568 L 12.454 192.568 L 12.454 191.764 L 13.785 191.981 L 13.785 192.568 Z  M 23.373 193.094 L 23.373 193.094 L 23.373 193.094 Q 23.373 193.734 23.131 194.301 L 23.131 194.301 L 23.131 194.301 Q 22.889 194.868 22.466 195.29 L 22.466 195.29 L 22.466 195.29 Q 22.043 195.713 21.476 195.956 L 21.476 195.956 L 21.476 195.956 Q 20.909 196.198 20.27 196.198 L 20.27 196.198 L 19.424 196.198 L 19.424 196.198 Q 18.785 196.198 18.218 195.956 L 18.218 195.956 L 18.218 195.956 Q 17.651 195.713 17.228 195.29 L 17.228 195.29 L 17.228 195.29 Q 16.806 194.868 16.563 194.301 L 16.563 194.301 L 16.563 194.301 Q 16.321 193.734 16.321 193.094 L 16.321 193.094 L 16.321 188.331 L 16.321 188.331 Q 16.321 187.692 16.563 187.124 L 16.563 187.124 L 16.563 187.124 Q 16.806 186.557 17.228 186.135 L 17.228 186.135 L 17.228 186.135 Q 17.651 185.712 18.218 185.47 L 18.218 185.47 L 18.218 185.47 Q 18.785 185.227 19.424 185.227 L 19.424 185.227 L 20.27 185.227 L 20.27 185.227 Q 20.909 185.227 21.476 185.47 L 21.476 185.47 L 21.476 185.47 Q 22.043 185.712 22.466 186.135 L 22.466 186.135 L 22.466 186.135 Q 22.889 186.557 23.131 187.124 L 23.131 187.124 L 23.131 187.124 Q 23.373 187.692 23.373 188.331 L 23.373 188.331 L 23.373 193.094 Z  M 22.105 193.166 L 22.105 188.259 L 22.105 188.259 Q 22.105 187.877 21.961 187.542 L 21.961 187.542 L 21.961 187.542 Q 21.816 187.207 21.569 186.96 L 21.569 186.96 L 21.569 186.96 Q 21.322 186.712 20.986 186.568 L 20.986 186.568 L 20.986 186.568 Q 20.651 186.423 20.27 186.423 L 20.27 186.423 L 19.424 186.423 L 19.424 186.423 Q 19.043 186.423 18.708 186.568 L 18.708 186.568 L 18.708 186.568 Q 18.373 186.712 18.125 186.96 L 18.125 186.96 L 18.125 186.96 Q 17.878 187.207 17.733 187.542 L 17.733 187.542 L 17.733 187.542 Q 17.589 187.877 17.589 188.259 L 17.589 188.259 L 17.589 193.166 L 17.589 193.166 Q 17.589 193.548 17.733 193.883 L 17.733 193.883 L 17.733 193.883 Q 17.878 194.218 18.125 194.466 L 18.125 194.466 L 18.125 194.466 Q 18.373 194.713 18.708 194.857 L 18.708 194.857 L 18.708 194.857 Q 19.043 195.002 19.424 195.002 L 19.424 195.002 L 20.27 195.002 L 20.27 195.002 Q 20.651 195.002 20.986 194.857 L 20.986 194.857 L 20.986 194.857 Q 21.322 194.713 21.569 194.466 L 21.569 194.466 L 21.569 194.466 Q 21.816 194.218 21.961 193.883 L 21.961 193.883 L 21.961 193.883 Q 22.105 193.548 22.105 193.166 L 22.105 193.166 Z  M 27.601 195.992 L 26.333 195.992 L 26.333 181.206 L 27.601 181.206 L 27.601 195.992 Z  M 37.612 193.094 L 37.612 193.094 L 37.612 193.094 Q 37.612 193.734 37.37 194.301 L 37.37 194.301 L 37.37 194.301 Q 37.128 194.868 36.705 195.29 L 36.705 195.29 L 36.705 195.29 Q 36.282 195.713 35.715 195.956 L 35.715 195.956 L 35.715 195.956 Q 35.148 196.198 34.509 196.198 L 34.509 196.198 L 33.663 196.198 L 33.663 196.198 Q 33.024 196.198 32.457 195.956 L 32.457 195.956 L 32.457 195.956 Q 31.89 195.713 31.467 195.29 L 31.467 195.29 L 31.467 195.29 Q 31.044 194.868 30.802 194.301 L 30.802 194.301 L 30.802 194.301 Q 30.56 193.734 30.56 193.094 L 30.56 193.094 L 30.56 188.331 L 30.56 188.331 Q 30.56 187.692 30.802 187.124 L 30.802 187.124 L 30.802 187.124 Q 31.044 186.557 31.467 186.135 L 31.467 186.135 L 31.467 186.135 Q 31.89 185.712 32.457 185.47 L 32.457 185.47 L 32.457 185.47 Q 33.024 185.227 33.663 185.227 L 33.663 185.227 L 34.509 185.227 L 34.509 185.227 Q 35.148 185.227 35.715 185.47 L 35.715 185.47 L 35.715 185.47 Q 36.282 185.712 36.705 186.135 L 36.705 186.135 L 36.705 186.135 Q 37.128 186.557 37.37 187.124 L 37.37 187.124 L 37.37 187.124 Q 37.612 187.692 37.612 188.331 L 37.612 188.331 L 37.612 190.816 L 31.828 190.816 L 31.828 193.166 L 31.828 193.166 Q 31.828 193.548 31.972 193.883 L 31.972 193.883 L 31.972 193.883 Q 32.117 194.218 32.364 194.466 L 32.364 194.466 L 32.364 194.466 Q 32.612 194.713 32.947 194.857 L 32.947 194.857 L 32.947 194.857 Q 33.282 195.002 33.663 195.002 L 33.663 195.002 L 34.509 195.002 L 34.509 195.002 Q 34.89 195.002 35.225 194.857 L 35.225 194.857 L 35.225 194.857 Q 35.56 194.713 35.808 194.466 L 35.808 194.466 L 35.808 194.466 Q 36.055 194.218 36.2 193.883 L 36.2 193.883 L 36.2 193.883 Q 36.344 193.548 36.344 193.166 L 36.344 193.166 L 36.344 192.465 L 37.612 192.672 L 37.612 193.094 Z  M 36.344 189.826 L 36.344 188.259 L 36.344 188.259 Q 36.344 187.877 36.2 187.542 L 36.2 187.542 L 36.2 187.542 Q 36.055 187.207 35.808 186.96 L 35.808 186.96 L 35.808 186.96 Q 35.56 186.712 35.225 186.568 L 35.225 186.568 L 35.225 186.568 Q 34.89 186.423 34.509 186.423 L 34.509 186.423 L 33.663 186.423 L 33.663 186.423 Q 33.282 186.423 32.947 186.568 L 32.947 186.568 L 32.947 186.568 Q 32.612 186.712 32.364 186.96 L 32.364 186.96 L 32.364 186.96 Q 32.117 187.207 31.972 187.542 L 31.972 187.542 L 31.972 187.542 Q 31.828 187.877 31.828 188.259 L 31.828 188.259 L 31.828 189.826 L 36.344 189.826 Z  M 36.406 181.206 L 33.56 183.743 L 32.612 183.743 L 34.292 181.206 L 36.406 181.206 Z  M 47.304 197.322 L 47.304 197.322 L 47.304 197.322 Q 47.304 197.961 47.062 198.497 L 47.062 198.497 L 47.062 198.497 Q 46.82 199.033 46.397 199.415 L 46.397 199.415 L 46.397 199.415 Q 45.974 199.796 45.407 200.008 L 45.407 200.008 L 45.407 200.008 Q 44.84 200.219 44.201 200.219 L 44.201 200.219 L 43.675 200.219 L 43.675 200.219 Q 43.036 200.219 42.469 200.008 L 42.469 200.008 L 42.469 200.008 Q 41.901 199.796 41.479 199.415 L 41.479 199.415 L 41.479 199.415 Q 41.056 199.033 40.814 198.497 L 40.814 198.497 L 40.814 198.497 Q 40.571 197.961 40.571 197.322 L 40.571 197.322 L 40.571 197.28 L 40.571 197.28 Q 40.571 196.662 40.798 196.146 L 40.798 196.146 L 40.798 196.146 Q 41.025 195.631 41.417 195.249 L 41.417 195.249 L 41.417 195.249 Q 40.922 194.95 40.628 194.44 L 40.628 194.44 L 40.628 194.44 Q 40.334 193.929 40.334 193.311 L 40.334 193.311 L 40.334 193.311 Q 40.334 192.754 40.571 192.275 L 40.571 192.275 L 40.571 192.275 Q 40.809 191.795 41.221 191.496 L 41.221 191.496 L 41.221 191.496 Q 40.726 191.063 40.437 190.455 L 40.437 190.455 L 40.437 190.455 Q 40.149 189.846 40.149 189.125 L 40.149 189.125 L 40.149 188.331 L 40.149 188.331 Q 40.149 187.692 40.391 187.124 L 40.391 187.124 L 40.391 187.124 Q 40.633 186.557 41.056 186.135 L 41.056 186.135 L 41.056 186.135 Q 41.479 185.712 42.046 185.47 L 42.046 185.47 L 42.046 185.47 Q 42.613 185.227 43.252 185.227 L 43.252 185.227 L 43.778 185.227 L 43.778 185.227 Q 44.551 185.227 45.206 185.573 L 45.206 185.573 L 45.206 185.573 Q 45.861 185.918 46.294 186.506 L 46.294 186.506 L 46.985 185.434 L 47.407 185.434 L 47.407 189.125 L 47.407 189.125 Q 47.407 189.764 47.165 190.331 L 47.165 190.331 L 47.165 190.331 Q 46.923 190.898 46.5 191.321 L 46.5 191.321 L 46.5 191.321 Q 46.077 191.744 45.51 191.986 L 45.51 191.986 L 45.51 191.986 Q 44.943 192.228 44.304 192.228 L 44.304 192.228 L 42.469 192.228 L 42.469 192.228 Q 42.252 192.228 42.056 192.316 L 42.056 192.316 L 42.056 192.316 Q 41.86 192.404 41.711 192.548 L 41.711 192.548 L 41.711 192.548 Q 41.561 192.692 41.479 192.893 L 41.479 192.893 L 41.479 192.893 Q 41.396 193.094 41.396 193.311 L 41.396 193.311 L 41.396 193.311 Q 41.396 193.527 41.479 193.723 L 41.479 193.723 L 41.479 193.723 Q 41.561 193.919 41.711 194.069 L 41.711 194.069 L 41.711 194.069 Q 41.86 194.218 42.056 194.301 L 42.056 194.301 L 42.056 194.301 Q 42.252 194.383 42.469 194.383 L 42.469 194.383 L 44.201 194.383 L 44.201 194.383 Q 44.84 194.383 45.407 194.595 L 45.407 194.595 L 45.407 194.595 Q 45.974 194.806 46.397 195.187 L 46.397 195.187 L 46.397 195.187 Q 46.82 195.569 47.062 196.105 L 47.062 196.105 L 47.062 196.105 Q 47.304 196.641 47.304 197.28 L 47.304 197.28 L 47.304 197.322 Z  M 46.149 189.197 L 46.149 188.259 L 46.149 188.259 Q 46.149 187.877 46.005 187.542 L 46.005 187.542 L 46.005 187.542 Q 45.861 187.207 45.608 186.96 L 45.608 186.96 L 45.608 186.96 Q 45.356 186.712 45.02 186.568 L 45.02 186.568 L 45.02 186.568 Q 44.685 186.423 44.304 186.423 L 44.304 186.423 L 43.252 186.423 L 43.252 186.423 Q 42.871 186.423 42.536 186.568 L 42.536 186.568 L 42.536 186.568 Q 42.201 186.712 41.953 186.96 L 41.953 186.96 L 41.953 186.96 Q 41.706 187.207 41.561 187.542 L 41.561 187.542 L 41.561 187.542 Q 41.417 187.877 41.417 188.259 L 41.417 188.259 L 41.417 189.197 L 41.417 189.197 Q 41.417 189.578 41.561 189.914 L 41.561 189.914 L 41.561 189.914 Q 41.706 190.249 41.953 190.496 L 41.953 190.496 L 41.953 190.496 Q 42.201 190.744 42.536 190.888 L 42.536 190.888 L 42.536 190.888 Q 42.871 191.032 43.252 191.032 L 43.252 191.032 L 44.304 191.032 L 44.304 191.032 Q 44.685 191.032 45.02 190.888 L 45.02 190.888 L 45.02 190.888 Q 45.356 190.744 45.608 190.496 L 45.608 190.496 L 45.608 190.496 Q 45.861 190.249 46.005 189.914 L 46.005 189.914 L 46.005 189.914 Q 46.149 189.578 46.149 189.197 L 46.149 189.197 Z  M 46.098 197.384 L 46.098 197.219 L 46.098 197.219 Q 46.098 196.837 45.954 196.533 L 45.954 196.533 L 45.954 196.533 Q 45.809 196.229 45.562 196.023 L 45.562 196.023 L 45.562 196.023 Q 45.314 195.816 44.979 195.703 L 44.979 195.703 L 44.979 195.703 Q 44.644 195.589 44.263 195.589 L 44.263 195.589 L 43.613 195.589 L 43.613 195.589 Q 43.232 195.589 42.896 195.703 L 42.896 195.703 L 42.896 195.703 Q 42.561 195.816 42.314 196.023 L 42.314 196.023 L 42.314 196.023 Q 42.066 196.229 41.922 196.533 L 41.922 196.533 L 41.922 196.533 Q 41.778 196.837 41.778 197.219 L 41.778 197.219 L 41.778 197.384 L 41.778 197.384 Q 41.778 197.765 41.922 198.064 L 41.922 198.064 L 41.922 198.064 Q 42.066 198.363 42.314 198.574 L 42.314 198.574 L 42.314 198.574 Q 42.561 198.786 42.896 198.899 L 42.896 198.899 L 42.896 198.899 Q 43.232 199.013 43.613 199.013 L 43.613 199.013 L 44.263 199.013 L 44.263 199.013 Q 44.644 199.013 44.979 198.899 L 44.979 198.899 L 44.979 198.899 Q 45.314 198.786 45.562 198.574 L 45.562 198.574 L 45.562 198.574 Q 45.809 198.363 45.954 198.064 L 45.954 198.064 L 45.954 198.064 Q 46.098 197.765 46.098 197.384 L 46.098 197.384 Z  M 51.532 182.897 L 50.057 182.897 L 50.057 181.206 L 51.532 181.206 L 51.532 182.897 Z  M 51.428 195.992 L 50.16 195.992 L 50.16 185.434 L 51.428 185.434 L 51.428 195.992 Z  M 61.44 193.094 L 61.44 193.094 L 61.44 193.094 Q 61.44 193.734 61.198 194.301 L 61.198 194.301 L 61.198 194.301 Q 60.955 194.868 60.533 195.29 L 60.533 195.29 L 60.533 195.29 Q 60.11 195.713 59.543 195.956 L 59.543 195.956 L 59.543 195.956 Q 58.976 196.198 58.337 196.198 L 58.337 196.198 L 57.491 196.198 L 57.491 196.198 Q 56.852 196.198 56.285 195.956 L 56.285 195.956 L 56.285 195.956 Q 55.718 195.713 55.295 195.29 L 55.295 195.29 L 55.295 195.29 Q 54.872 194.868 54.63 194.301 L 54.63 194.301 L 54.63 194.301 Q 54.388 193.734 54.388 193.094 L 54.388 193.094 L 54.388 188.331 L 54.388 188.331 Q 54.388 187.692 54.63 187.124 L 54.63 187.124 L 54.63 187.124 Q 54.872 186.557 55.295 186.135 L 55.295 186.135 L 55.295 186.135 Q 55.718 185.712 56.285 185.47 L 56.285 185.47 L 56.285 185.47 Q 56.852 185.227 57.491 185.227 L 57.491 185.227 L 58.337 185.227 L 58.337 185.227 Q 58.976 185.227 59.543 185.47 L 59.543 185.47 L 59.543 185.47 Q 60.11 185.712 60.533 186.135 L 60.533 186.135 L 60.533 186.135 Q 60.955 186.557 61.198 187.124 L 61.198 187.124 L 61.198 187.124 Q 61.44 187.692 61.44 188.331 L 61.44 188.331 L 61.44 193.094 Z  M 60.172 193.166 L 60.172 188.259 L 60.172 188.259 Q 60.172 187.877 60.028 187.542 L 60.028 187.542 L 60.028 187.542 Q 59.883 187.207 59.636 186.96 L 59.636 186.96 L 59.636 186.96 Q 59.388 186.712 59.053 186.568 L 59.053 186.568 L 59.053 186.568 Q 58.718 186.423 58.337 186.423 L 58.337 186.423 L 57.491 186.423 L 57.491 186.423 Q 57.11 186.423 56.775 186.568 L 56.775 186.568 L 56.775 186.568 Q 56.439 186.712 56.192 186.96 L 56.192 186.96 L 56.192 186.96 Q 55.945 187.207 55.8 187.542 L 55.8 187.542 L 55.8 187.542 Q 55.656 187.877 55.656 188.259 L 55.656 188.259 L 55.656 193.166 L 55.656 193.166 Q 55.656 193.548 55.8 193.883 L 55.8 193.883 L 55.8 193.883 Q 55.945 194.218 56.192 194.466 L 56.192 194.466 L 56.192 194.466 Q 56.439 194.713 56.775 194.857 L 56.775 194.857 L 56.775 194.857 Q 57.11 195.002 57.491 195.002 L 57.491 195.002 L 58.337 195.002 L 58.337 195.002 Q 58.718 195.002 59.053 194.857 L 59.053 194.857 L 59.053 194.857 Q 59.388 194.713 59.636 194.466 L 59.636 194.466 L 59.636 194.466 Q 59.883 194.218 60.028 193.883 L 60.028 193.883 L 60.028 193.883 Q 60.172 193.548 60.172 193.166 L 60.172 193.166 Z " fill-rule="evenodd" fill="rgb(254,253,254)"/></svg>