<?xml version="1.0" standalone="no"?><!-- Generator: Gravit.io --><svg xmlns="http://www.w3.org/2000/svg" xmlns:xlink="http://www.w3.org/1999/xlink" style="isolation:isolate" viewBox="0 0 256 256" width="256" height="256"><linearGradient id="_lgradient_1" x1="0%" y1="50%" x2="70.31418502375818%" y2="121.1049603364259%"><stop offset="0%" stop-opacity="1" style="stop-color:rgb(236,70,90)"/><stop offset="100%" stop-opacity="1" style="stop-color:rgb(156,45,96)"/></linearGradient><path d=" M 239.167 39.117 L 21.653 39.117 C 20.071 39.117 18.819 40.369 18.819 41.95 L 18.819 185.005 C 18.819 186.586 20.071 187.838 21.653 187.838 L 113.244 187.838 C 111.861 196.404 104.415 202.994 95.453 202.994 L 83.527 202.994 C 81.945 202.994 80.693 204.246 80.693 205.827 L 80.693 215.184 C 80.693 216.765 81.945 218.017 83.527 218.017 L 177.293 218.017 C 178.874 218.017 180.126 216.765 180.126 215.184 L 180.126 205.827 C 180.126 204.246 178.874 202.994 177.293 202.994 L 165.366 202.994 C 156.405 202.994 148.959 196.404 147.575 187.838 L 239.167 187.838 C 240.748 187.838 242 186.586 242 185.005 L 242 42.016 C 242 40.435 240.748 39.117 239.167 39.117 L 239.167 39.117 Z  M 165.366 208.792 L 174.459 208.792 L 174.459 212.416 L 86.36 212.416 L 86.36 208.792 L 95.453 208.792 C 107.578 208.792 117.593 199.633 119.043 187.904 L 141.776 187.904 C 143.262 199.811 153.366 208.759 165.366 208.792 L 165.366 208.792 Z  M 236.333 182.171 L 24.486 182.171 L 24.486 44.85 L 236.267 44.85 L 236.267 182.171 L 236.333 182.171 L 236.333 182.171 Z  M 31.734 164.644 L 229.019 164.644 C 230.6 164.644 231.852 163.392 231.852 161.81 L 231.852 52.296 C 231.852 50.714 230.6 49.462 229.019 49.462 L 31.734 49.462 C 30.153 49.462 28.901 50.714 28.901 52.296 L 28.901 161.81 C 28.901 163.392 30.153 164.644 31.734 164.644 L 31.734 164.644 Z  M 34.634 55.195 L 226.186 55.195 L 226.186 158.977 L 34.634 158.977 L 34.634 55.195 L 34.634 55.195 Z  M 130.377 168.07 C 128.325 168.07 126.474 169.306 125.689 171.202 C 124.904 173.098 125.338 175.281 126.789 176.732 C 128.24 178.183 130.422 178.617 132.318 177.831 C 134.214 177.046 135.451 175.196 135.451 173.144 C 135.516 170.376 133.21 168.07 130.377 168.07 Z " fill="url(#_lgradient_1)"/></svg>