<?xml version="1.0" standalone="no"?><!-- Generator: Gravit.io --><svg xmlns="http://www.w3.org/2000/svg" xmlns:xlink="http://www.w3.org/1999/xlink" style="isolation:isolate" viewBox="0 0 140 116" width="140" height="116"><defs><clipPath id="_clipPath_rj6RVLs5iLBLQ88VSsDaF5hquvkcCK86"><rect width="140" height="116"/></clipPath></defs><g clip-path="url(#_clipPath_rj6RVLs5iLBLQ88VSsDaF5hquvkcCK86)"><linearGradient id="_lgradient_0" x1="85.35533905932738%" y1="85.35533905932738%" x2="14.644660940672626%" y2="14.644660940672626%"><stop offset="0%" stop-opacity="1" style="stop-color:rgb(252,74,26)"/><stop offset="98.69565217391305%" stop-opacity="1" style="stop-color:rgb(247,183,51)"/></linearGradient><path d=" M 30.455 15.818 C 20.26 15.818 12 24.078 12 34.273 L 12 81.727 C 12 91.922 20.26 100.182 30.455 100.182 L 109.545 100.182 C 119.74 100.182 128 91.922 128 81.727 L 128 34.273 C 128 24.078 119.74 15.818 109.545 15.818 L 30.455 15.818 Z  M 57.314 36.25 L 62.42 36.25 L 62.42 63.521 L 68.023 63.521 L 68.023 69.205 L 62.42 69.205 L 62.42 79.75 L 56.241 79.75 L 56.241 69.205 L 37.705 69.205 L 37.705 63.521 L 57.314 36.25 Z  M 88.536 36.25 C 101.895 36.25 102.295 47.713 102.295 49.021 C 102.295 57.475 95.56 61.738 89.607 65.498 C 85.531 68.071 81.658 70.523 80.793 73.9 L 102.048 73.9 L 102.048 79.75 L 73.707 79.75 L 73.707 79.091 C 73.707 69.112 80.535 64.652 86.559 60.718 C 91.647 57.383 96.034 54.52 96.034 49.021 C 96.034 48.947 95.797 42.1 88.536 42.1 C 81.162 42.1 81.123 51.583 81.123 51.986 L 81.123 52.646 L 74.861 52.646 L 74.777 51.986 C 74.645 49.092 74.954 43.663 78.486 39.957 C 80.843 37.486 84.223 36.25 88.536 36.25 Z  M 56.489 46.877 L 44.873 63.273 L 56.489 63.273 L 56.489 46.877 Z " fill="url(#_lgradient_0)"/></g></svg>