<?xml version="1.0" standalone="no"?><!-- Generator: Gravit.io --><svg xmlns="http://www.w3.org/2000/svg" xmlns:xlink="http://www.w3.org/1999/xlink" style="isolation:isolate" viewBox="0 0 140 116" width="140" height="116"><defs><clipPath id="_clipPath_iMwe0d3upXst7VIlpiQ3S6zNOQeZPRoT"><rect width="140" height="116"/></clipPath></defs><g clip-path="url(#_clipPath_iMwe0d3upXst7VIlpiQ3S6zNOQeZPRoT)"><g style="isolation:isolate" id="Layer 0"><path d=" M 106.31 54.987 C 105.022 54.067 96.712 48.793 71.842 48.517 C 72.39 44.753 75.614 41.96 79.417 41.954 L 90.824 41.954 C 96.681 41.954 101.465 37.171 101.465 31.313 C 101.465 25.456 96.681 20.673 90.824 20.673 L 61.263 20.673 L 61.263 18.618 C 61.263 16.839 59.821 15.367 58.012 15.367 L 55.406 15.367 L 52.952 11.841 L 34.737 11.841 L 34.737 13.773 L 28.113 13.773 C 26.335 13.773 24.924 15.214 24.924 16.962 L 24.924 27.818 C 24.924 29.596 26.365 31.007 28.113 31.007 L 34.737 31.007 L 34.737 32.939 L 52.952 32.939 L 55.406 29.412 L 58.043 29.412 C 59.821 29.412 61.293 27.971 61.293 26.162 L 61.293 24.26 L 90.855 24.26 C 94.688 24.26 97.816 27.388 97.816 31.221 C 97.816 35.055 94.688 38.182 90.855 38.182 L 79.447 38.182 C 73.56 38.182 68.714 42.69 68.162 48.425 C 61.017 48.486 54.792 48.885 47.065 50.387 C 41.76 51.43 35.166 52.718 29.677 57.44 C 23.299 62.929 19.772 69.921 19.772 77.128 C 19.772 90.988 29.892 102.273 42.311 102.273 C 48.322 102.273 54.026 98.041 57.43 95.527 L 58.043 95.067 C 60.864 93.012 64.145 92.184 69.757 92.184 C 74.51 92.184 78.405 93.166 81.625 95.159 C 82.269 95.558 83.035 96.079 83.833 96.631 C 87.298 99.023 92.02 102.273 97.233 102.273 C 109.653 102.273 119.772 90.988 119.772 77.128 C 119.711 66.763 112.505 58.728 106.31 54.987 Z " fill="rgb(69,136,230)"/><path d=" M 28.144 28.339 C 27.899 28.339 27.715 28.155 27.715 27.91 L 27.715 17.054 C 27.715 16.809 27.899 16.625 28.144 16.625 L 34.768 16.625 L 34.768 28.37 L 28.144 28.37 L 28.144 28.339 Z " fill="rgb(76,151,255)"/><path d=" M 51.511 30.271 L 37.528 30.271 L 37.528 14.631 L 51.511 14.631 L 53.78 17.882 L 53.78 27.051 L 51.511 30.271 Z " fill="rgb(76,151,255)"/><path d=" M 58.534 26.254 C 58.534 26.53 58.319 26.744 58.043 26.744 L 55.62 26.744 L 55.62 18.158 L 58.043 18.158 C 58.319 18.158 58.534 18.373 58.534 18.649 L 58.534 26.254 Z " fill="rgb(76,151,255)"/><path d=" M 97.172 98.072 C 93.308 98.072 89.383 95.374 86.224 93.196 C 85.396 92.614 84.599 92.062 83.863 91.632 C 79.938 89.21 75.308 88.014 69.726 88.014 C 63.164 88.014 59.024 89.087 55.467 91.724 L 54.854 92.184 C 51.879 94.392 46.881 98.103 42.281 98.103 C 32.223 98.103 24.035 88.75 24.035 77.25 C 24.035 71.332 27.009 65.505 32.437 60.814 C 37.068 56.827 42.802 55.692 47.862 54.711 C 55.896 53.147 62.275 52.841 69.941 52.841 C 95.7 52.841 103.428 58.207 103.765 58.483 C 103.857 58.575 103.918 58.606 104.01 58.667 C 109.683 62.04 115.418 69.124 115.418 77.25 C 115.418 88.719 107.23 98.072 97.172 98.072 L 97.172 98.072 Z " fill="rgb(76,151,255)"/><clipPath id="_clipPath_SQMCyu1082cDTnEraaUmoAEJksKgNKhR"><path d=" M 97.172 98.072 C 93.308 98.072 89.383 95.374 86.224 93.196 C 85.396 92.614 84.599 92.062 83.863 91.632 C 79.938 89.21 75.308 88.014 69.726 88.014 C 63.164 88.014 59.024 89.087 55.467 91.724 L 54.854 92.184 C 51.879 94.392 46.881 98.103 42.281 98.103 C 32.223 98.103 24.035 88.75 24.035 77.25 C 24.035 71.332 27.009 65.505 32.437 60.814 C 37.068 56.827 42.802 55.692 47.862 54.711 C 55.896 53.147 62.275 52.841 69.941 52.841 C 95.7 52.841 103.428 58.207 103.765 58.483 C 103.857 58.575 103.918 58.606 104.01 58.667 C 109.683 62.04 115.418 69.124 115.418 77.25 C 115.418 88.719 107.23 98.072 97.172 98.072 L 97.172 98.072 Z " fill="rgb(76,151,255)"/></clipPath><g clip-path="url(#_clipPath_SQMCyu1082cDTnEraaUmoAEJksKgNKhR)"><path d=" M 97.172 98.072 C 93.308 98.072 89.383 95.374 86.224 93.196 C 85.396 92.614 84.599 92.062 83.863 91.632 C 79.938 89.21 75.308 88.014 69.726 88.014 C 63.164 88.014 59.024 89.087 55.467 91.724 L 54.854 92.184 C 51.879 94.392 46.881 98.103 42.281 98.103 C 32.223 98.103 24.035 88.75 24.035 77.25 C 24.035 71.332 27.009 65.505 32.437 60.814 C 37.068 56.827 42.802 55.692 47.862 54.711 C 55.896 53.147 62.275 52.841 69.941 52.841 C 95.7 52.841 103.428 58.207 103.765 58.483 C 103.857 58.575 103.918 58.606 104.01 58.667 C 109.683 62.04 115.418 69.124 115.418 77.25 C 115.418 88.719 107.23 98.072 97.172 98.072 L 97.172 98.072 Z " fill="rgb(76,151,255)"/></g><path d=" M 47.494 65.536 L 37.681 65.536 L 37.681 70.994 L 32.223 70.994 L 32.223 80.807 L 37.681 80.807 L 37.681 86.266 L 47.494 86.266 L 47.494 80.807 L 52.952 80.807 L 52.952 70.994 L 47.494 70.994 L 47.494 65.536 Z " fill="rgb(255,191,0)"/><path d=" M 50.806 73.141 L 50.806 78.661 L 45.347 78.661 L 45.347 84.119 L 39.828 84.119 L 39.828 78.661 L 34.369 78.661 L 34.369 73.141 L 39.828 73.141 L 39.828 67.683 L 45.347 67.683 L 45.347 73.141 L 50.806 73.141 Z " fill="rgb(76,151,255)"/><path d=" M 85.212 70.841 C 82.698 70.841 80.674 72.896 80.674 75.38 C 80.674 77.894 82.729 79.918 85.212 79.918 C 87.727 79.918 89.751 77.864 89.751 75.38 C 89.782 72.896 87.727 70.841 85.212 70.841 Z " fill="rgb(153,102,255)"/><path d=" M 85.212 77.802 C 83.938 77.738 82.939 76.686 82.939 75.41 C 82.939 74.135 83.938 73.083 85.212 73.018 C 86.531 73.018 87.604 74.092 87.604 75.41 C 87.635 76.729 86.531 77.802 85.212 77.802 Z " fill="rgb(76,151,255)"/><path d=" M 96.16 62.991 C 93.645 62.991 91.622 65.045 91.622 67.529 C 91.622 70.013 93.676 72.068 96.16 72.068 C 98.675 72.068 100.698 70.013 100.698 67.529 C 100.698 65.045 98.675 62.991 96.16 62.991 Z " fill="rgb(207,99,207)"/><path d=" M 96.16 69.921 C 94.886 69.857 93.886 68.805 93.886 67.529 C 93.886 66.254 94.886 65.202 96.16 65.137 C 97.434 65.202 98.434 66.254 98.434 67.529 C 98.434 68.805 97.434 69.857 96.16 69.921 Z " fill="rgb(76,151,255)"/><path d=" M 94.167 80.501 C 91.652 80.501 89.628 82.555 89.628 85.039 C 89.628 87.554 91.683 89.578 94.167 89.578 C 96.681 89.578 98.705 87.523 98.705 85.039 C 98.705 82.555 96.681 80.501 94.167 80.501 Z " fill="rgb(255,140,26)"/><path d=" M 94.167 87.462 C 92.893 87.397 91.893 86.346 91.893 85.07 C 91.893 83.794 92.893 82.743 94.167 82.678 C 95.441 82.743 96.441 83.794 96.441 85.07 C 96.441 86.346 95.441 87.397 94.167 87.462 Z " fill="rgb(76,151,255)"/><path d=" M 105.114 72.65 C 102.6 72.65 100.576 74.705 100.576 77.189 C 100.576 79.673 102.63 81.727 105.114 81.727 C 107.629 81.727 109.653 79.673 109.653 77.189 C 109.653 74.705 107.598 72.65 105.114 72.65 Z " fill="rgb(89,192,89)"/><path d=" M 105.114 79.611 C 103.84 79.547 102.841 78.495 102.841 77.22 C 102.841 75.944 103.84 74.892 105.114 74.828 C 106.388 74.892 107.388 75.944 107.388 77.22 C 107.388 78.495 106.388 79.547 105.114 79.611 Z " fill="rgb(76,151,255)"/><path d=" M 59.913 79.611 L 64.421 79.611 L 64.421 81.758 L 59.913 81.758 L 59.913 79.611 Z " fill="rgb(76,151,255)"/><path d=" M 71.352 79.611 L 75.859 79.611 L 75.859 81.758 L 71.352 81.758 L 71.352 79.611 L 71.352 79.611 Z " fill="rgb(76,151,255)"/><path d=" M 29.8 19.293 L 32.253 19.293 L 32.253 21.439 L 29.8 21.439 L 29.8 19.293 Z " fill="rgb(76,151,255)"/><path d=" M 29.8 23.463 L 32.253 23.463 L 32.253 25.61 L 29.8 25.61 L 29.8 23.463 Z " fill="rgb(76,151,255)"/></g></g></svg>