<?xml version="1.0" standalone="no"?><!-- Generator: Gravit.io --><svg xmlns="http://www.w3.org/2000/svg" xmlns:xlink="http://www.w3.org/1999/xlink" style="isolation:isolate" viewBox="0 0 256 256" width="256" height="256"><defs><clipPath id="_clipPath_Z7daP6qZ47g6wTMiONAOPPmCrKxxRKxE"><rect width="256" height="256"/></clipPath></defs><g clip-path="url(#_clipPath_Z7daP6qZ47g6wTMiONAOPPmCrKxxRKxE)"><g id="New_Layer"><g id="Group"><path d=" M 219.424 65.772 C 217.404 67.147 217.199 68.054 218.399 70.513 C 218.897 71.566 219.307 72.591 219.307 72.825 C 219.307 73.937 216.878 74.113 211.258 73.439 C 210 73.293 209.649 73.381 208.741 73.995 L 207.688 74.727 L 207.278 73.82 C 206.664 72.474 205.639 71.918 202.917 71.42 C 199.523 70.835 198.674 70.864 197.971 71.596 C 197.006 72.649 196.947 73.556 197.767 75.166 C 198.82 77.186 198.791 78.62 197.65 79.585 C 195.659 81.254 192.674 80.815 191.533 78.678 C 191.065 77.771 191.123 76.981 191.796 75.664 C 192.586 74.113 192.528 73.205 191.65 72.474 C 190.479 71.596 189.426 71.479 186.47 72.035 C 183.426 72.591 182.255 73.059 181.992 73.878 C 181.846 74.376 181.699 74.405 180.821 74.142 C 180.06 73.878 179.27 73.966 177.105 74.464 C 174.178 75.137 171.895 75.254 171.017 74.786 C 170.52 74.522 170.52 74.464 171.076 73.381 C 172.041 71.391 172.071 70.249 171.193 68.932 C 169.349 66.123 166.773 65.889 164.227 68.289 C 163.144 69.284 163.115 70.835 164.14 72.415 C 165.925 75.283 165.193 75.898 160.393 75.517 C 155.682 75.166 155.301 75.195 154.335 75.898 C 153.516 76.512 153.428 76.542 153.252 76.044 C 152.989 75.254 151.935 74.171 151.204 73.878 C 150.062 73.439 145.146 72.737 144.443 72.942 C 143.712 73.118 142.921 74.405 142.921 75.371 C 142.921 75.693 143.156 76.454 143.477 77.068 C 144.326 78.795 144.443 79.673 143.946 80.639 C 143.36 81.78 142.102 82.395 140.404 82.395 C 139.205 82.395 138.912 82.249 137.888 81.224 C 136.805 80.141 136.717 79.966 136.922 78.971 C 137.039 78.385 137.39 77.39 137.741 76.776 C 138.473 75.488 138.297 74.961 136.834 74.113 C 135.693 73.439 134.932 73.439 131.595 74.054 C 128.669 74.581 127.703 75.195 127.674 76.483 L 127.674 77.273 L 127.205 76.337 C 126.561 75.078 125.42 74.698 123.196 75.078 C 122.259 75.225 121.001 75.517 120.474 75.693 C 119.479 76.015 115.909 75.956 115.557 75.605 C 115.44 75.517 115.616 74.932 115.938 74.288 C 116.962 72.269 117.021 71.42 116.172 69.986 C 114.474 67.118 111.987 66.708 109.47 68.932 C 107.919 70.279 107.86 71.127 109.119 73.498 L 110.202 75.517 L 109.499 76.073 C 108.885 76.571 108.533 76.6 105.607 76.395 C 100.397 76.044 100.105 76.044 99.139 76.747 L 98.261 77.39 L 97.939 76.542 C 97.471 75.312 96.183 74.669 93.256 74.23 C 89.54 73.674 88.749 73.82 88.076 75.108 L 87.52 76.132 L 88.281 77.829 C 89.393 80.2 89.335 81.224 88.047 82.336 C 87.491 82.834 86.584 83.331 86.028 83.419 C 84.155 83.8 81.755 82.073 81.755 80.346 C 81.755 79.907 82.077 78.942 82.486 78.181 C 83.394 76.454 83.394 76.132 82.457 75.4 C 81.286 74.493 79.882 74.347 76.809 74.903 C 73.794 75.43 72.682 75.956 72.682 76.805 C 72.682 77.303 72.594 77.332 71.57 76.981 C 70.399 76.571 69.902 76.6 66.448 77.449 C 64.019 78.034 61.619 77.946 61.356 77.244 C 61.297 77.039 61.415 76.483 61.678 76.015 C 62.527 74.376 62.585 72.883 61.854 71.713 C 60.478 69.488 58.137 68.932 55.883 70.249 C 53.747 71.508 53.483 72.854 54.83 75.371 C 55.298 76.249 55.678 77.156 55.708 77.361 C 55.708 77.917 53.893 78.59 52.43 78.59 C 51.727 78.561 50.176 78.385 48.976 78.181 C 46.518 77.742 45.786 77.888 44.528 79.117 L 43.708 79.878 L 43.708 79.059 C 43.708 78.122 42.362 76.629 41.338 76.454 C 35.748 75.4 34.899 75.4 34.08 76.425 C 33.29 77.449 33.319 78.298 34.197 80.054 C 35.221 82.073 35.163 83.01 33.933 84.092 C 32.177 85.644 30.1 85.673 28.49 84.151 C 27.407 83.156 27.319 81.634 28.197 79.966 C 28.519 79.381 28.783 78.62 28.783 78.327 C 28.783 77.595 27.524 76.6 26.266 76.366 C 24.832 76.103 19.886 77.039 18.978 77.771 C 18.13 78.444 18.012 79.702 18.656 81.254 C 19.271 82.717 19.476 86.141 19.037 87.341 C 18.481 88.921 18.012 89.038 15.671 88.248 C 13.857 87.634 13.535 87.604 12.686 87.956 C 10.491 88.863 10.374 93.077 12.481 94.862 C 13.535 95.74 15.32 95.799 16.93 94.979 C 18.51 94.189 18.803 94.248 19.3 95.448 C 19.856 96.794 19.798 105.223 19.212 105.223 C 18.686 105.223 17.105 106.657 16.637 107.593 C 16.022 108.793 15.496 112.217 15.73 113.505 C 16.169 115.846 18.159 116.461 20.149 114.881 C 21.7 113.651 22.754 113.71 24.012 115.115 C 24.773 115.993 24.978 116.432 24.978 117.456 C 24.978 118.51 24.802 118.89 23.778 120.002 C 22.754 121.114 22.402 121.319 21.495 121.319 C 20.91 121.29 20.12 121.114 19.71 120.88 C 18.627 120.266 17.164 120.324 16.783 120.997 C 16.315 121.875 16.432 124.392 17.076 127.904 C 17.661 131.123 18.071 131.972 19.212 132.265 C 20.588 132.587 21.524 139.289 20.412 140.869 C 19.886 141.63 18.773 141.689 17.661 141.074 C 17.252 140.84 16.286 140.664 15.525 140.635 C 14.442 140.635 13.974 140.781 13.418 141.337 C 12.013 142.742 12.247 145.786 13.857 147.425 C 14.53 148.098 14.94 148.244 16.081 148.244 C 16.9 148.244 18.012 147.981 18.773 147.63 C 19.915 147.074 20.09 147.044 20.5 147.425 C 21.407 148.361 21.729 151.727 21.173 154.741 C 20.968 155.795 20.968 156.614 21.144 157.112 C 21.407 157.756 21.349 157.902 20.851 158.049 C 18.744 158.722 17.281 161.531 17.252 164.985 C 17.222 166.77 17.31 167.004 18.071 167.823 C 19.3 169.082 20.207 168.994 22.139 167.384 C 23.251 166.448 24.393 166.477 25.329 167.472 C 27.056 169.287 27.056 171.101 25.329 172.887 C 24.451 173.823 24.071 173.999 23.076 173.999 C 22.432 173.969 21.583 173.794 21.173 173.56 C 20.237 173.033 19.008 173.004 18.569 173.53 C 17.895 174.35 17.866 176.72 18.539 179.998 C 18.89 181.784 19.359 183.569 19.593 184.008 C 20.149 185.061 21.261 185.237 23.222 184.564 C 25.095 183.891 28.607 183.51 30.07 183.774 C 31.27 184.008 31.358 184.33 30.656 186.203 C 29.982 187.959 30.304 189.364 31.504 190.095 C 33.29 191.207 36.245 192.144 37.533 189.042 C 38.089 188.339 38.177 187.959 38.06 186.847 C 37.972 186.115 37.68 185.032 37.387 184.476 C 37.123 183.891 36.977 183.218 37.065 182.954 C 37.358 182.164 39.523 181.813 42.684 182.018 C 46.723 182.31 47.25 182.252 47.981 181.579 L 48.596 180.993 L 48.479 181.725 C 48.245 182.925 48.918 184.505 49.913 185.003 C 51.201 185.676 56.059 185.676 57.551 185.032 C 58.985 184.418 59.132 183.949 58.371 182.193 C 57.639 180.496 57.581 178.359 58.224 177.364 C 58.781 176.545 60.39 175.93 61.327 176.194 C 61.707 176.311 62.41 176.72 62.936 177.101 C 64.253 178.096 64.458 179.384 63.61 181.432 C 62.761 183.51 62.907 184.008 64.4 184.535 C 65.541 184.915 65.892 184.886 68.497 184.3 C 70.077 183.949 71.863 183.657 72.506 183.657 C 73.355 183.657 73.648 183.51 73.765 183.101 C 73.882 182.603 73.97 182.574 74.789 183.013 C 75.609 183.393 75.814 183.393 77.189 182.837 C 78.009 182.515 79.091 182.164 79.56 182.047 C 80.877 181.813 84.155 181.784 84.945 182.047 C 85.676 182.281 85.676 182.544 84.857 184.769 C 84.594 185.442 84.447 186.32 84.564 186.7 C 85.296 189.627 90.769 189.598 92.144 186.671 C 92.73 185.471 92.583 184.476 91.647 182.574 C 91.032 181.374 91.032 181.286 91.53 180.789 C 91.939 180.35 92.671 180.291 96.768 180.291 C 99.958 180.291 101.714 180.174 102.153 179.94 C 102.739 179.589 102.768 179.618 102.768 180.554 C 102.768 182.925 104.085 183.715 108.065 183.744 C 110.143 183.744 111.109 183.627 111.811 183.276 C 113.245 182.515 113.333 182.105 112.572 179.911 C 111.811 177.686 111.87 176.281 112.836 175.257 C 114.27 173.735 117.372 174.467 118.25 176.545 C 118.718 177.716 118.689 177.833 117.723 180.086 L 117.021 181.666 L 117.723 182.223 C 118.572 182.896 121.059 182.954 123.079 182.34 C 123.84 182.105 125.274 181.842 126.24 181.725 L 127.996 181.52 L 128.025 179.589 L 128.054 177.657 L 128.435 179.354 C 128.639 180.262 129.02 181.286 129.313 181.608 C 129.956 182.31 131.478 182.369 132.707 181.754 C 133.878 181.14 138.209 180.613 139.439 180.964 C 140.609 181.257 140.814 181.842 140.17 183.218 C 139.234 185.178 139.673 186.934 141.312 187.637 C 142.717 188.222 143.975 188.164 145.468 187.432 C 147.663 186.378 148.131 184.535 146.872 182.018 C 146.463 181.227 146.199 180.437 146.258 180.232 C 146.55 179.501 148.862 179.179 152.726 179.384 C 155.916 179.53 156.647 179.501 157.203 179.12 C 157.847 178.652 157.847 178.681 157.847 179.676 C 157.847 180.408 158.111 180.993 158.696 181.666 C 159.545 182.603 159.603 182.632 162.413 182.749 C 165.515 182.837 167.125 182.515 167.944 181.608 C 168.442 181.052 168.442 180.964 167.827 179.384 C 166.978 177.13 167.008 175.345 167.915 174.438 C 168.881 173.472 169.934 173.267 171.251 173.765 C 172.422 174.204 173.651 175.755 173.651 176.75 C 173.651 177.101 173.329 178.067 172.919 178.915 C 172.51 179.793 172.188 180.584 172.188 180.701 C 172.188 181.169 173.973 181.901 175.056 181.901 C 175.729 181.901 177.339 181.637 178.685 181.315 C 180.031 180.993 181.524 180.73 182.021 180.73 C 182.548 180.73 183.016 180.554 183.104 180.32 C 183.25 179.969 183.455 179.94 184.158 180.232 C 184.889 180.496 185.387 180.437 187.026 179.911 C 189.631 179.091 192.616 178.798 193.962 179.267 C 194.547 179.442 195.016 179.706 195.016 179.793 C 194.986 179.911 194.752 180.701 194.459 181.579 C 193.611 184.037 194.196 185.354 196.391 185.969 C 197.796 186.349 200.225 185.676 201.074 184.681 C 201.952 183.657 201.981 181.666 201.103 179.911 L 200.488 178.594 L 201.103 178.067 C 202.01 177.335 204.849 177.101 207.746 177.511 C 210.088 177.833 210.293 177.833 211.258 177.247 L 212.283 176.662 L 212.283 177.891 C 212.312 179.998 213.219 180.642 216.468 180.906 C 218.985 181.14 221.355 180.671 222.116 179.823 C 222.643 179.237 222.643 179.15 221.999 177.423 C 221.648 176.428 221.355 175.14 221.355 174.555 C 221.355 172.418 223.609 170.955 225.599 171.774 C 227.706 172.682 228.321 174.701 227.209 177.189 C 226.448 178.857 226.477 179.179 227.501 179.706 C 228.643 180.291 229.901 180.262 232.828 179.559 C 234.174 179.237 235.754 178.974 236.369 178.974 L 237.452 178.974 L 237.452 177.072 C 237.452 176.047 237.247 174.204 236.984 173.004 C 236.515 170.867 236.603 168.35 237.159 167.999 C 237.276 167.911 237.979 168.116 238.652 168.438 C 241.052 169.521 243.188 168.936 244.446 166.858 C 245.207 165.629 245.237 164.341 244.476 162.907 C 243.276 160.536 241.403 159.922 239.442 161.268 C 238.827 161.678 237.949 162.087 237.51 162.175 C 236.749 162.321 236.603 162.234 236.31 161.385 C 235.901 160.185 235.901 159.014 236.34 155.532 C 236.662 152.81 236.662 152.693 236.018 151.668 L 235.345 150.586 L 236.281 150.586 C 237.598 150.586 238.769 149.883 239.208 148.8 C 239.822 147.337 239.735 142.479 239.12 141.279 C 238.418 139.991 238.037 139.903 236.135 140.606 C 233.091 141.747 230.984 141.22 230.428 139.172 C 229.813 136.86 231.891 134.518 234.203 134.899 C 237.364 135.455 237.335 135.455 238.154 134.577 C 239.735 132.909 239.852 129.982 238.505 126.997 C 237.949 125.797 237.54 125.329 236.866 125.095 C 236.398 124.919 235.988 124.685 235.988 124.568 C 235.988 124.451 235.784 123.163 235.52 121.7 C 235.286 120.266 235.11 118.217 235.169 117.193 C 235.257 115.407 235.286 115.32 235.988 115.378 C 236.398 115.378 237.364 115.642 238.154 115.934 L 239.617 116.461 L 240.934 115.7 C 242.544 114.822 243.598 113.388 243.598 112.1 C 243.598 111.076 242.193 108.647 241.286 108.179 C 240.291 107.623 239.061 107.827 237.188 108.793 C 235.432 109.7 235.374 109.7 234.964 109.144 C 234.467 108.471 234.379 104.023 234.847 102.003 C 235.081 100.979 235.052 100.452 234.671 99.457 C 234.408 98.755 233.969 98.082 233.706 97.906 C 233.325 97.701 233.559 97.643 234.613 97.613 C 236.281 97.613 237.305 97.028 237.715 95.799 C 238.183 94.482 238.125 89.887 237.627 88.716 C 237.013 87.195 236.486 87.048 234.554 87.838 C 231.599 89.068 229.55 88.57 228.935 86.492 C 228.643 85.497 228.672 85.146 229.111 84.151 C 230.018 82.161 231.306 81.722 234.115 82.453 L 235.462 82.834 L 236.427 81.751 C 237.569 80.522 238.154 78.649 237.891 77.156 C 237.598 75.605 236.252 72.737 235.667 72.444 C 234.818 71.976 232.798 72.122 230.457 72.766 C 228.233 73.381 225.716 73.41 225.131 72.825 C 224.955 72.649 225.072 72.093 225.423 71.244 C 226.243 69.488 226.184 68.142 225.306 66.796 C 223.814 64.63 221.706 64.25 219.424 65.772 Z  M 128.493 79.82 C 128.405 80.054 128.317 79.966 128.317 79.644 C 128.288 79.322 128.376 79.146 128.464 79.263 C 128.552 79.351 128.581 79.615 128.493 79.82 Z  M 128.756 83.039 C 128.552 85.087 127.996 85.907 126.766 85.907 C 125.771 85.907 125.742 85.731 126.62 85.029 C 127.235 84.561 127.908 83.273 128.405 81.722 C 128.756 80.639 128.961 81.312 128.756 83.039 Z  M 68.38 85.526 C 68.175 85.585 67.824 85.585 67.648 85.526 C 67.443 85.439 67.59 85.38 67.999 85.38 C 68.409 85.38 68.556 85.439 68.38 85.526 Z  M 66.77 85.907 C 66.507 86.083 65.863 86.697 65.395 87.282 C 64.897 87.897 64.487 88.277 64.487 88.16 C 64.487 87.809 66.595 85.614 66.946 85.614 C 67.121 85.614 67.034 85.761 66.77 85.907 Z  M 70.253 85.965 C 71.014 86.258 71.365 86.258 71.804 85.965 C 72.272 85.673 72.331 85.702 72.214 86.053 C 71.98 86.609 70.985 86.609 69.726 86.053 C 68.526 85.556 68.907 85.468 70.253 85.965 Z  M 207.893 87.37 C 211.112 88.277 212.868 89.097 212.663 89.594 C 212.4 90.268 214.302 89.916 214.712 89.214 C 216.058 86.873 216.146 86.785 217.58 86.785 C 218.692 86.785 218.985 86.902 219.102 87.341 C 219.19 87.78 219.072 87.956 218.604 88.043 C 218.282 88.102 218.809 88.19 219.833 88.219 C 221.063 88.248 221.648 88.365 221.648 88.599 C 221.648 88.804 221.999 93.545 222.438 99.135 C 222.848 104.725 223.141 109.379 223.082 109.466 C 222.994 109.525 222.204 109.671 221.297 109.788 L 219.629 109.993 L 219.219 108.969 C 218.897 108.208 218.633 107.944 218.136 107.974 C 217.521 108.003 217.317 107.623 216.234 104.784 C 215.561 102.998 214.8 101.125 214.507 100.599 C 214.097 99.779 214.068 99.662 214.478 99.662 C 214.712 99.662 214.917 99.545 214.917 99.399 C 214.917 98.989 214.097 98.433 213.775 98.609 C 213.629 98.696 213.102 98.17 212.634 97.379 C 209.093 91.877 201.922 90.238 194.342 93.165 C 185.65 96.56 180.704 107.827 181.816 121.817 C 182.49 130.48 185.182 137.621 189.455 142.215 C 191.387 144.264 193.845 146.137 193.845 145.552 C 193.874 145.318 194.02 145.376 194.284 145.727 C 194.635 146.166 194.84 146.225 195.572 145.962 C 196.069 145.786 196.479 145.757 196.479 145.903 C 196.479 146.049 197.064 146.254 197.796 146.371 C 198.732 146.488 199.318 146.781 199.815 147.396 C 200.693 148.42 200.986 148.478 200.752 147.542 C 200.576 146.869 200.635 146.869 203.152 146.693 C 204.556 146.576 206.371 146.313 207.161 146.049 C 207.981 145.815 208.654 145.61 208.683 145.61 C 208.712 145.61 208.771 146.02 208.829 146.547 C 208.888 147.044 209.063 147.513 209.268 147.571 C 209.502 147.659 209.561 147.337 209.444 146.518 C 209.298 145.405 209.327 145.347 210.556 144.732 C 211.258 144.352 212.166 143.854 212.575 143.562 C 212.985 143.298 213.717 142.976 214.185 142.859 C 215.18 142.625 216.439 141.572 216.204 141.162 C 216.117 141.015 215.619 141.279 215.122 141.689 C 214.009 142.625 214.097 142.889 213.98 138.206 C 213.892 135.279 213.922 135.074 214.448 135.074 C 214.77 135.074 215.268 135.279 215.561 135.572 C 216.029 135.982 216.087 135.982 216.087 135.601 C 216.087 135.016 215.502 134.518 214.595 134.401 C 213.922 134.284 213.892 134.167 213.746 131.533 C 213.658 130.011 213.629 128.724 213.687 128.636 C 213.717 128.577 214.009 128.665 214.302 128.841 C 214.77 129.133 214.829 129.104 214.683 128.577 C 214.331 127.231 210.907 126.353 205.903 126.295 C 205.025 126.295 204.937 126.207 204.966 125.475 C 205.083 124.07 204.995 123.953 203.971 123.953 C 203.035 123.953 202.976 123.895 202.8 122.753 C 202.683 122.08 202.654 121.495 202.683 121.466 C 202.742 121.436 204.527 121.29 206.664 121.173 L 210.527 120.968 L 210.527 121.905 C 210.527 123.046 211.2 122.958 211.346 121.817 C 211.463 120.88 211.639 120.822 215.97 120.617 L 219.219 120.441 L 219.072 121.348 C 218.955 122.109 219.043 122.226 219.453 122.139 C 219.775 122.08 220.009 121.758 220.038 121.407 C 220.068 121.027 220.155 120.675 220.243 120.588 C 220.302 120.5 221.531 120.412 222.965 120.383 C 225.57 120.295 225.57 120.295 225.979 121.085 C 226.418 121.992 227.413 122.197 227.706 121.436 C 227.794 121.173 227.735 120.705 227.53 120.412 C 227.238 119.914 227.296 119.856 228.35 119.856 C 229.404 119.856 229.521 119.944 229.608 120.646 C 229.696 121.378 229.813 121.466 230.955 121.553 L 232.213 121.641 L 232.125 123.134 L 232.038 124.626 L 229.989 125.124 C 227.179 125.768 225.862 126.47 225.131 127.67 C 224.37 128.899 224.34 130.245 224.897 138.089 C 225.131 141.015 225.306 143.971 225.306 144.674 L 225.306 145.903 L 221.941 147.483 C 213.951 151.2 204.995 153.073 198.44 152.371 C 194.05 151.873 188.196 150.03 185.709 148.332 C 185.27 148.039 184.772 147.747 184.567 147.659 C 183.865 147.337 179.797 144.001 179.797 143.708 C 179.768 143.562 179.358 143.152 178.831 142.83 C 178.041 142.332 177.309 141.191 176.168 138.733 C 176.109 138.557 175.905 138.645 175.729 138.879 C 175.495 139.172 175.349 139.23 175.202 138.996 C 173.856 137.065 172.919 135.426 172.422 134.138 C 170.607 129.426 169.846 126.821 169.554 124.1 C 169.349 122.49 169.144 121.085 169.056 120.939 C 168.793 120.529 169.495 120.734 170.227 121.319 C 171.251 122.139 171.368 122.08 171.251 120.792 C 171.163 119.797 171.076 119.68 170.081 119.446 L 168.968 119.154 L 168.968 116.871 C 168.968 115.612 169.086 114.354 169.232 114.061 C 169.378 113.798 169.642 112.598 169.817 111.427 C 170.11 109.496 170.256 109.174 171.339 108.149 C 172.48 107.066 172.51 106.979 172.451 105.311 C 172.393 103.964 172.51 103.32 173.154 102.12 C 174.266 99.926 174.617 99.662 176.431 99.662 C 177.748 99.662 178.07 99.545 178.363 99.018 C 178.685 98.404 178.685 98.404 176.87 98.579 L 175.056 98.784 L 176.578 97.028 C 178.422 94.921 180.616 92.902 181.992 92.082 L 183.016 91.497 L 183.016 92.785 C 183.016 93.75 183.133 94.101 183.455 94.101 C 183.953 94.101 183.953 93.984 183.894 92.024 L 183.865 90.707 L 186.733 89.36 C 191.767 87.019 194.752 86.463 201.308 86.639 C 204.673 86.726 206.225 86.902 207.893 87.37 Z  M 51.757 87.37 C 51.844 87.546 51.727 87.575 51.493 87.487 C 50.966 87.282 50.879 87.078 51.288 87.078 C 51.464 87.078 51.669 87.195 51.757 87.37 Z  M 51.61 90.502 C 51.61 91.555 50.527 93.019 49.21 93.692 C 48.391 94.131 48.362 94.101 48.508 93.604 C 48.596 93.311 48.742 92.667 48.859 92.199 C 48.947 91.702 49.386 90.56 49.796 89.624 L 50.527 87.926 L 51.054 88.746 C 51.376 89.185 51.61 89.975 51.61 90.502 Z  M 64.195 90.004 C 64.019 91.087 63.961 91.175 63.931 90.385 C 63.902 89.536 64.166 88.395 64.341 88.599 C 64.37 88.658 64.312 89.273 64.195 90.004 Z  M 136.19 90.999 C 136.19 91.058 136.278 91.321 136.366 91.555 C 136.483 91.848 136.307 92.053 135.839 92.141 C 135.195 92.287 135.195 92.287 135.897 92.287 C 138.297 92.258 138.444 92.316 138.824 93.282 C 139 93.809 139.439 94.833 139.761 95.565 C 143.712 104.169 145.994 109.144 147.955 113.417 C 152.14 122.548 154.804 128.402 157.203 133.611 C 163.262 146.84 163.057 146.459 164.842 147.776 C 166.452 148.947 167.008 149.152 166.159 148.215 L 165.603 147.6 L 166.569 147.776 C 167.066 147.864 167.886 148.039 168.354 148.127 C 168.968 148.244 169.261 148.478 169.32 148.917 C 169.378 149.415 169.642 149.591 170.432 149.649 C 170.988 149.708 171.544 149.912 171.661 150.088 C 171.837 150.381 171.69 152.576 171.456 152.839 C 171.398 152.927 149.184 154.419 147.019 154.507 C 146.053 154.537 145.994 154.478 145.994 153.6 C 145.994 152.546 145.643 152.049 145.409 152.722 C 145.263 153.044 145.029 153.103 144.443 152.956 C 143.712 152.751 143.653 152.634 143.653 151.142 C 143.653 149.62 143.682 149.561 144.473 149.473 C 144.999 149.415 145.204 149.239 145.058 149.034 C 144.97 148.83 145.146 148.947 145.497 149.239 C 145.877 149.561 146.141 150.147 146.141 150.644 C 146.141 151.2 146.258 151.434 146.463 151.288 C 146.638 151.171 146.726 150.703 146.638 150.176 C 146.492 149.269 146.521 149.239 148.16 148.771 C 150.472 148.069 151.467 147.279 151.233 146.254 C 151.116 145.815 150.062 143.21 148.862 140.489 C 147.663 137.738 146.609 135.338 146.521 135.133 C 146.433 134.899 146.638 134.782 147.136 134.782 C 147.545 134.782 147.897 134.723 147.897 134.635 C 147.897 134.226 147.165 133.026 146.902 133.026 C 145.877 133.026 126.035 134.255 125.771 134.343 C 125.098 134.548 122.142 145.727 122.142 147.981 C 122.142 149.766 122.464 150.439 123.606 151.025 C 124.718 151.581 124.776 151.581 124.776 150.849 C 124.776 150.293 124.893 150.234 125.683 150.41 C 126.181 150.498 127.205 150.586 127.908 150.586 C 129.225 150.586 129.225 150.586 129.078 151.434 C 128.903 152.283 128.932 152.312 130.132 152.4 L 131.361 152.488 L 131.273 153.805 C 131.215 154.507 131.156 155.151 131.098 155.18 C 130.981 155.327 108.563 156.732 108.475 156.614 C 108.416 156.556 108.27 155.941 108.124 155.239 C 108.007 154.419 107.772 153.98 107.538 154.039 C 106.69 154.215 106.046 153.746 106.046 152.956 C 106.046 152.225 106.192 152.107 107.158 151.932 C 108.738 151.668 111.08 150.498 112.426 149.298 C 114.094 147.776 115.352 144.996 117.928 136.918 L 120.211 129.806 L 121.615 129.631 C 122.64 129.485 123.05 129.28 123.196 128.87 C 123.43 128.08 123.284 128.021 122.025 128.372 C 121.411 128.548 120.855 128.636 120.796 128.577 C 120.679 128.46 121.059 127.202 123.81 118.334 L 125.508 112.832 L 126.854 113.008 C 128.171 113.183 128.23 113.154 128.552 112.247 C 128.991 110.93 128.991 110.959 127.878 111.632 C 125.771 112.949 125.683 112.305 127.322 107.359 C 128.054 105.135 128.786 103.203 128.903 103.028 C 129.078 102.852 129.488 102.94 130.044 103.262 C 130.981 103.818 131.507 103.73 131.507 102.998 C 131.507 102.764 131.39 102.647 131.215 102.735 C 130.805 102.998 129.81 102.384 129.605 101.74 C 129.517 101.418 129.898 99.838 130.454 98.14 C 131.01 96.501 131.771 94.16 132.093 92.989 L 132.707 90.882 L 134.434 90.882 C 135.4 90.882 136.19 90.941 136.19 90.999 Z  M 66.39 93.458 C 66.712 93.633 66.8 93.809 66.624 93.809 C 66.419 93.809 65.892 93.458 65.424 92.989 C 64.985 92.55 64.868 92.404 65.219 92.667 C 65.541 92.931 66.068 93.282 66.39 93.458 Z  M 72.828 92.931 C 72.916 93.077 72.828 93.165 72.624 93.077 C 72.419 92.989 71.716 93.194 71.072 93.516 C 70.312 93.897 69.404 94.101 68.438 94.072 L 66.975 94.014 L 68.79 93.809 C 69.785 93.692 70.897 93.399 71.277 93.136 C 72.067 92.58 72.565 92.521 72.828 92.931 Z  M 50.879 93.955 C 50.235 94.511 49.591 94.95 49.445 94.979 C 49.298 94.979 49.767 94.511 50.469 93.955 C 52.137 92.638 52.4 92.638 50.879 93.955 Z  M 100.485 94.54 C 100.485 95.184 100.368 95.272 99.49 95.272 C 98.671 95.272 98.495 95.155 98.378 94.54 C 98.232 93.867 98.319 93.809 99.344 93.809 C 100.368 93.809 100.485 93.897 100.485 94.54 Z  M 97.266 94.775 C 97.266 95.448 97.149 95.477 93.169 95.799 L 89.071 96.121 L 87.637 95.389 C 86.408 94.745 86.086 94.687 85.12 94.95 C 84.506 95.097 83.745 95.506 83.394 95.828 C 82.896 96.296 82.223 96.472 80.145 96.589 C 75.14 96.911 75.023 96.94 75.023 97.935 C 75.023 98.462 74.906 98.755 74.731 98.638 C 74.292 98.374 74.35 95.272 74.819 95.126 C 75.345 94.921 88.662 94.248 93.256 94.189 C 97.266 94.101 97.266 94.101 97.266 94.775 Z  M 73.853 96.794 C 73.853 98.667 73.648 99.194 73.092 98.638 C 72.565 98.111 72.536 95.067 73.063 94.892 C 73.589 94.716 73.853 95.272 73.853 96.794 Z  M 87.315 95.682 C 87.988 96.062 87.93 96.092 86.057 96.296 C 83.803 96.531 83.394 96.384 84.594 95.74 C 85.618 95.184 86.379 95.184 87.315 95.682 Z  M 43.299 97.76 C 43.416 98.17 43.445 98.579 43.357 98.638 C 43.299 98.696 41.484 98.843 39.318 98.93 L 35.367 99.106 L 34.87 98.404 L 34.343 97.672 L 36.772 97.496 C 38.089 97.379 39.757 97.262 40.489 97.233 C 41.221 97.174 42.099 97.116 42.45 97.087 C 42.947 97.028 43.152 97.233 43.299 97.76 Z  M 45.757 97.731 C 45.757 98.199 45.552 98.491 45.113 98.579 C 44.264 98.813 44.001 98.609 44.001 97.731 C 44.001 97.145 44.147 97.028 44.879 97.028 C 45.611 97.028 45.757 97.145 45.757 97.731 Z  M 33.758 98.345 C 34.138 98.755 34.402 99.135 34.314 99.194 C 34.255 99.252 32.968 99.369 31.504 99.428 C 29.573 99.516 28.783 99.457 28.783 99.223 C 28.783 98.521 29.836 97.935 31.27 97.818 C 32.09 97.76 32.821 97.701 32.909 97.672 C 32.997 97.643 33.377 97.935 33.758 98.345 Z  M 28.49 98.052 C 28.49 98.111 28.344 98.491 28.168 98.872 C 27.905 99.487 27.583 99.604 26.09 99.779 C 25.095 99.867 23.807 99.955 23.193 99.955 C 22.11 99.955 22.051 100.013 22.051 100.833 C 22.051 101.652 21.963 101.711 21.173 101.652 C 20.295 101.594 20.295 101.564 20.295 99.896 C 20.295 98.667 20.383 98.257 20.676 98.345 C 20.968 98.462 23.807 98.287 27.992 97.935 C 28.256 97.935 28.49 97.965 28.49 98.052 Z  M 49.796 99.75 L 50.879 99.867 L 49.649 99.896 C 48.45 99.955 48.391 99.926 48.42 99.135 C 48.45 98.491 48.479 98.462 48.596 98.989 C 48.684 99.487 48.976 99.662 49.796 99.75 Z  M 72.975 100.686 C 72.448 101.652 71.833 101.769 69.024 101.447 L 66.682 101.155 L 69.287 101.301 C 71.453 101.418 71.98 101.33 72.448 100.95 C 72.741 100.657 72.975 100.247 72.975 100.013 C 72.975 99.75 73.063 99.662 73.18 99.75 C 73.267 99.867 73.18 100.277 72.975 100.686 Z  M 51.23 102.501 C 51.171 102.969 51.113 102.647 51.113 101.857 C 51.113 101.038 51.171 100.686 51.23 101.038 C 51.288 101.418 51.288 102.062 51.23 102.501 Z  M 66.185 101.623 C 65.892 101.681 65.424 101.681 65.161 101.623 C 64.868 101.535 65.102 101.477 65.658 101.477 C 66.214 101.477 66.448 101.535 66.185 101.623 Z  M 64.4 101.886 C 64.312 101.974 64.049 102.003 63.844 101.916 C 63.61 101.828 63.697 101.74 64.019 101.74 C 64.341 101.711 64.517 101.799 64.4 101.886 Z  M 152.491 102.618 C 153.252 102.94 154.13 103.233 154.394 103.262 C 155.652 103.35 156.296 108.764 155.272 110.783 C 154.657 112.071 153.955 112.188 152.023 111.339 C 151.057 110.93 150.238 110.783 149.682 110.871 C 148.862 111.047 148.833 110.988 147.545 108.062 C 146.17 105.018 145.555 103.525 145.555 103.35 C 145.555 103.291 146.199 103.174 146.989 103.057 C 147.78 102.94 148.95 102.677 149.565 102.442 C 151.028 101.916 150.853 101.916 152.491 102.618 Z  M 68.673 102.501 C 68.76 102.647 67.795 102.735 66.565 102.764 C 65.219 102.764 64.634 102.706 65.073 102.559 C 66.068 102.267 68.526 102.238 68.673 102.501 Z  M 83.189 102.559 C 83.54 102.794 83.54 102.911 83.247 103.291 C 82.779 103.847 82.457 103.701 82.252 102.881 C 82.106 102.267 82.486 102.12 83.189 102.559 Z  M 52.693 102.764 C 52.605 102.852 52.342 102.881 52.137 102.794 C 51.903 102.706 51.991 102.618 52.313 102.618 C 52.635 102.589 52.81 102.677 52.693 102.764 Z  M 63.317 103.408 C 62.732 103.701 62.234 104.198 62.117 104.637 C 61.941 105.281 61.912 105.281 61.883 104.754 C 61.854 103.935 62.995 102.94 64.049 102.911 C 64.224 102.911 63.873 103.145 63.317 103.408 Z  M 70.516 104.842 C 70.633 105.223 70.575 105.984 70.399 106.481 C 70.107 107.359 70.107 107.359 70.253 106.189 C 70.37 105.252 70.253 104.696 69.785 103.847 C 69.199 102.794 69.199 102.764 69.755 103.437 C 70.077 103.818 70.429 104.462 70.516 104.842 Z  M 99.988 104.637 C 100.69 106.715 100.749 110.578 100.075 111.895 C 99.549 112.891 98.963 113.066 97.763 112.51 C 97.061 112.188 97.032 112.042 96.827 108.325 C 96.593 103.525 96.798 102.794 98.349 102.94 C 99.373 103.028 99.461 103.116 99.988 104.637 Z  M 85.559 117.749 C 86.028 125.27 86.467 132.382 86.554 133.582 L 86.73 135.718 L 85.793 135.543 C 83.745 135.133 83.394 133.933 84.301 130.684 C 84.769 128.928 84.769 128.928 84.096 128.197 C 82.955 126.997 81.784 126.851 78.535 127.465 C 75.258 128.08 74.555 128.372 74.292 129.221 C 74.087 129.894 73.472 129.982 73.004 129.397 C 72.126 128.372 71.072 120.441 71.746 120.032 C 71.863 119.973 72.887 120.178 74.028 120.5 L 76.106 121.114 L 77.365 120.412 C 78.945 119.534 79.706 118.51 80.028 116.9 C 80.379 115.027 79.911 113.651 78.506 112.393 C 77.394 111.398 77.189 111.31 76.077 111.486 C 75.433 111.603 74.614 111.925 74.292 112.247 C 73.267 113.183 72.243 113.447 71.511 112.92 C 70.868 112.481 70.838 112.334 71.014 109.583 C 71.219 106.276 71.687 105.106 73.121 104.433 C 74.028 103.994 74.175 103.994 75.345 104.462 C 76.018 104.754 77.657 105.047 78.974 105.135 C 81.55 105.311 83.189 104.842 83.891 103.73 C 84.184 103.262 84.272 103.262 84.476 103.642 C 84.623 103.876 85.091 110.227 85.559 117.749 Z  M 54.186 103.964 C 53.893 104.023 53.366 104.023 53.015 103.964 C 52.635 103.906 52.869 103.847 53.513 103.847 C 54.156 103.818 54.449 103.876 54.186 103.964 Z  M 52.108 104.228 C 52.02 104.315 51.757 104.345 51.552 104.257 C 51.318 104.169 51.405 104.081 51.727 104.081 C 52.049 104.052 52.225 104.14 52.108 104.228 Z  M 56.79 104.989 C 56.703 105.193 56.644 105.047 56.644 104.637 C 56.644 104.228 56.703 104.081 56.79 104.257 C 56.849 104.462 56.849 104.813 56.79 104.989 Z  M 60.946 105.369 C 60.946 105.515 60.829 105.457 60.683 105.223 C 60.537 104.989 60.419 104.579 60.419 104.345 C 60.419 103.876 60.917 104.813 60.946 105.369 Z  M 50.937 104.52 C 50.849 104.608 50.586 104.637 50.381 104.55 C 50.147 104.462 50.235 104.374 50.557 104.374 C 50.879 104.345 51.054 104.433 50.937 104.52 Z  M 49.767 104.813 C 49.679 104.901 49.415 104.93 49.21 104.842 C 48.976 104.754 49.064 104.667 49.386 104.667 C 49.708 104.637 49.884 104.725 49.767 104.813 Z  M 55.152 105.311 C 54.859 105.574 54.83 105.545 55.005 105.135 C 55.093 104.842 55.269 104.696 55.356 104.784 C 55.444 104.872 55.356 105.106 55.152 105.311 Z  M 63.229 108.12 C 63.317 109.086 63.229 109.642 62.878 110.052 C 62.41 110.637 62.41 110.637 62.702 109.993 C 63.141 109.086 63.083 107.564 62.585 106.569 C 62 105.457 62.029 105.223 62.644 106.071 C 62.907 106.452 63.171 107.388 63.229 108.12 Z  M 171.134 107.037 C 170.724 107.623 170.695 107.623 170.871 107.125 C 170.988 106.803 171.163 106.276 171.251 105.954 C 171.398 105.457 171.456 105.428 171.544 105.867 C 171.602 106.159 171.427 106.686 171.134 107.037 Z  M 30.656 107.974 C 30.743 108.618 31.036 112.598 31.27 116.783 C 31.534 120.968 31.943 127.143 32.148 130.538 C 32.382 133.904 32.587 136.86 32.587 137.035 C 32.587 137.533 30.978 137.533 30.568 137.035 C 30.392 136.801 30.246 135.543 30.246 134.167 C 30.275 131.094 30.275 131.416 29.953 127.758 C 29.807 126.06 29.456 120.617 29.192 115.642 C 28.724 106.862 28.724 106.569 29.251 106.189 C 29.719 105.837 29.865 105.867 30.158 106.276 C 30.363 106.54 30.568 107.301 30.656 107.974 Z  M 61.561 106.393 C 61.736 106.715 61.795 106.979 61.736 106.979 C 61.649 106.979 61.444 106.715 61.268 106.393 C 61.093 106.071 61.034 105.808 61.093 105.808 C 61.18 105.808 61.385 106.071 61.561 106.393 Z  M 55.795 106.832 C 55.708 107.096 55.561 107.242 55.503 107.154 C 55.415 107.066 55.444 106.891 55.561 106.715 C 55.825 106.247 56 106.335 55.795 106.832 Z  M 54.156 108.793 C 54.098 109.174 54.039 108.94 54.039 108.296 C 54.01 107.652 54.069 107.359 54.156 107.623 C 54.215 107.915 54.215 108.442 54.156 108.793 Z  M 61.297 110.257 C 60.8 110.725 60.244 111.076 60.039 111.076 C 59.863 111.076 60.156 110.783 60.712 110.403 C 61.532 109.847 61.736 109.525 61.854 108.442 L 61.971 107.125 L 62.088 108.296 C 62.175 109.291 62.058 109.583 61.297 110.257 Z  M 55.327 108.647 C 55.239 108.94 55.181 108.764 55.181 108.296 C 55.181 107.798 55.239 107.593 55.327 107.769 C 55.386 107.974 55.386 108.383 55.327 108.647 Z  M 69.96 108.208 C 69.873 108.442 69.785 108.354 69.785 108.032 C 69.755 107.71 69.843 107.535 69.931 107.652 C 70.019 107.74 70.048 108.003 69.96 108.208 Z  M 70.312 113.505 C 70.487 113.973 70.516 114.266 70.37 114.178 C 69.96 113.915 69.463 111.515 69.492 109.993 C 69.551 108.735 69.58 108.822 69.755 110.637 C 69.902 111.749 70.136 113.066 70.312 113.505 Z  M 57.844 110.93 C 58.195 110.988 58.751 111.105 59.073 111.164 C 59.483 111.252 59.424 111.31 58.839 111.339 C 57.844 111.369 56.644 110.783 55.854 109.876 C 55.356 109.32 55.444 109.32 56.234 109.993 C 56.79 110.432 57.493 110.842 57.844 110.93 Z  M 55.152 110.696 C 55.532 111.164 55.503 111.193 55.064 110.813 C 54.566 110.432 54.42 110.198 54.654 110.198 C 54.713 110.198 54.947 110.432 55.152 110.696 Z  M 58.605 112.042 C 59.366 112.042 60.419 111.808 60.917 111.544 C 61.444 111.281 61.854 111.135 61.854 111.193 C 61.854 111.456 60.595 112.042 59.512 112.276 C 58.283 112.569 56.527 112.159 55.971 111.456 C 55.62 111.047 55.708 111.076 56.41 111.515 C 56.937 111.866 57.727 112.071 58.605 112.042 Z  M 77.54 113.769 L 78.096 114.442 L 77.453 113.886 C 77.014 113.534 76.516 113.388 75.931 113.476 C 75.433 113.534 75.111 113.505 75.199 113.359 C 75.521 112.861 76.984 113.125 77.54 113.769 Z  M 74.731 113.856 C 74.731 113.915 74.438 114.12 74.087 114.295 C 73.443 114.617 73.443 114.588 73.97 114.178 C 74.584 113.681 74.731 113.622 74.731 113.856 Z  M 43.855 114.529 C 43.767 114.617 43.533 114.529 43.328 114.325 C 43.065 114.032 43.094 114.003 43.504 114.178 C 43.796 114.266 43.943 114.442 43.855 114.529 Z  M 45.084 114.764 C 44.996 114.851 44.733 114.881 44.528 114.793 C 44.294 114.705 44.381 114.617 44.703 114.617 C 45.025 114.588 45.201 114.676 45.084 114.764 Z  M 71.365 115.115 C 71.277 115.203 71.043 115.115 70.838 114.91 C 70.575 114.617 70.604 114.588 71.014 114.764 C 71.307 114.851 71.453 115.027 71.365 115.115 Z  M 72.975 114.881 C 72.741 115.027 72.331 115.144 72.097 115.144 C 71.804 115.144 71.863 115.056 72.243 114.881 C 73.033 114.529 73.502 114.529 72.975 114.881 Z  M 78.799 115.583 C 78.711 115.671 78.477 115.437 78.272 115.085 C 77.892 114.471 77.921 114.471 78.418 114.939 C 78.711 115.232 78.887 115.524 78.799 115.583 Z  M 155.711 118.832 C 156.179 120.588 156.296 123.807 155.945 124.831 C 155.74 125.475 155.506 125.182 153.896 121.905 L 152.082 118.246 L 153.282 117.749 C 155.008 117.017 155.301 117.163 155.711 118.832 Z  M 74.028 118.568 C 74.555 119.007 74.555 119.007 73.941 118.715 C 73.589 118.539 72.828 118.393 72.243 118.393 C 71.424 118.393 71.131 118.539 70.926 119.036 C 70.78 119.446 70.663 119.534 70.663 119.241 C 70.633 119.007 70.78 118.656 70.985 118.451 C 71.482 117.954 73.355 118.012 74.028 118.568 Z  M 100.31 118.539 C 100.661 119.475 101.07 124.041 100.895 125.007 C 100.69 126.119 99.841 126.88 98.817 126.88 C 97.997 126.88 97.939 126.616 97.705 122.168 L 97.529 118.773 L 98.495 118.48 C 99.871 118.041 100.105 118.041 100.31 118.539 Z  M 44.381 119.124 C 44.879 118.978 44.938 119.007 44.586 119.241 C 43.884 119.739 43.416 119.622 43.445 118.89 C 43.474 118.393 43.504 118.363 43.621 118.773 C 43.708 119.154 43.943 119.241 44.381 119.124 Z  M 70.721 122.929 C 70.78 124.363 70.751 125.241 70.633 124.831 C 70.399 124.129 70.282 119.388 70.487 120.002 C 70.546 120.149 70.633 121.466 70.721 122.929 Z  M 45.991 120.88 C 45.903 120.968 45.728 120.822 45.64 120.529 C 45.464 120.119 45.494 120.09 45.786 120.353 C 45.991 120.558 46.079 120.792 45.991 120.88 Z  M 43.621 122.256 C 43.562 122.636 43.504 122.344 43.504 121.612 C 43.504 120.88 43.562 120.588 43.621 120.939 C 43.679 121.319 43.679 121.905 43.621 122.256 Z  M 47.425 121.67 C 47.337 121.905 47.25 121.817 47.25 121.495 C 47.22 121.173 47.308 120.997 47.396 121.114 C 47.484 121.202 47.513 121.466 47.425 121.67 Z  M 46.255 121.963 C 46.167 122.197 46.079 122.109 46.079 121.787 C 46.05 121.466 46.137 121.29 46.225 121.407 C 46.313 121.495 46.342 121.758 46.255 121.963 Z  M 60.185 121.817 C 59.98 121.875 59.629 121.875 59.454 121.817 C 59.249 121.729 59.395 121.67 59.805 121.67 C 60.215 121.67 60.361 121.729 60.185 121.817 Z  M 57.727 122.724 C 56.147 123.748 55.708 124.275 55.415 125.504 C 55.239 126.236 55.181 126.295 55.152 125.768 C 55.122 124.743 55.912 123.602 57.259 122.695 C 57.932 122.256 58.605 121.905 58.751 121.905 C 58.927 121.905 58.459 122.285 57.727 122.724 Z  M 63.961 124.685 C 64.136 125.007 64.224 125.212 64.136 125.124 C 64.078 125.036 63.434 124.304 62.732 123.514 C 61.502 122.109 61.502 122.109 62.556 123.075 C 63.171 123.631 63.785 124.363 63.961 124.685 Z  M 47.718 123.719 C 47.63 123.924 47.572 123.778 47.572 123.368 C 47.572 122.958 47.63 122.812 47.718 122.987 C 47.776 123.192 47.776 123.543 47.718 123.719 Z  M 46.547 124.158 C 46.459 124.451 46.401 124.275 46.401 123.807 C 46.401 123.309 46.459 123.104 46.547 123.28 C 46.606 123.485 46.606 123.895 46.547 124.158 Z  M 43.913 124.304 C 43.825 124.509 43.767 124.363 43.767 123.953 C 43.767 123.543 43.825 123.397 43.913 123.573 C 43.972 123.778 43.972 124.129 43.913 124.304 Z  M 64.049 127.787 C 63.814 128.343 63.668 128.519 63.785 128.197 C 63.873 127.875 64.049 127.085 64.136 126.441 C 64.283 125.504 64.341 125.417 64.429 126.031 C 64.487 126.47 64.312 127.26 64.049 127.787 Z  M 71.131 126.646 C 71.043 126.851 70.985 126.704 70.985 126.295 C 70.985 125.885 71.043 125.738 71.131 125.914 C 71.19 126.119 71.19 126.47 71.131 126.646 Z  M 46.547 127.231 C 46.459 127.465 46.372 127.377 46.372 127.055 C 46.342 126.734 46.43 126.558 46.518 126.675 C 46.606 126.763 46.635 127.026 46.547 127.231 Z  M 48.011 127.231 C 47.923 127.465 47.835 127.377 47.835 127.055 C 47.806 126.734 47.893 126.558 47.981 126.675 C 48.069 126.763 48.098 127.026 48.011 127.231 Z  M 55.327 127.816 C 55.239 128.021 55.181 127.875 55.181 127.465 C 55.181 127.055 55.239 126.909 55.327 127.085 C 55.386 127.29 55.386 127.641 55.327 127.816 Z  M 71.511 128.314 L 71.511 129.426 L 69.843 129.777 C 68.936 129.953 68.146 130.041 68.087 129.982 C 67.999 129.924 68.702 129.719 69.58 129.514 C 71.19 129.192 71.219 129.163 71.219 128.168 C 71.219 127.611 71.277 127.172 71.365 127.172 C 71.453 127.172 71.511 127.67 71.511 128.314 Z  M 46.05 128.197 C 45.845 128.431 45.552 128.636 45.377 128.636 C 45.201 128.636 45.318 128.431 45.64 128.197 C 46.372 127.641 46.518 127.641 46.05 128.197 Z  M 44.733 128.694 C 44.908 128.811 44.791 128.928 44.528 128.928 C 44.235 128.928 44.001 128.724 44.001 128.431 C 44.001 128.168 44.089 128.08 44.235 128.226 C 44.352 128.372 44.586 128.577 44.733 128.694 Z  M 27.407 128.841 C 27.202 128.899 26.851 128.899 26.675 128.841 C 26.47 128.753 26.617 128.694 27.027 128.694 C 27.436 128.694 27.583 128.753 27.407 128.841 Z  M 98.993 130.509 C 98.963 131.006 98.846 131.797 98.7 132.294 C 98.554 132.879 98.524 132.558 98.612 131.27 C 98.729 129.894 98.671 129.485 98.466 129.806 C 98.202 130.158 98.144 130.07 98.144 129.367 C 98.173 128.519 98.173 128.519 98.583 129.046 C 98.817 129.367 98.993 130.041 98.993 130.509 Z  M 29.514 129.514 C 29.602 129.689 29.485 129.719 29.251 129.631 C 28.724 129.426 28.636 129.221 29.046 129.221 C 29.222 129.221 29.426 129.338 29.514 129.514 Z  M 56.586 130.743 C 56.586 130.889 56.293 130.977 55.942 130.948 C 55.386 130.948 55.356 130.889 55.766 130.743 C 56.147 130.597 56.205 130.421 56 130.099 C 55.854 129.865 55.708 129.514 55.737 129.367 C 55.737 129.046 56.556 130.392 56.586 130.743 Z  M 82.135 129.426 C 81.755 129.485 81.111 129.485 80.672 129.426 C 80.204 129.367 80.525 129.309 81.316 129.309 C 82.135 129.309 82.486 129.367 82.135 129.426 Z  M 63.171 129.806 C 63.083 129.953 63.229 130.099 63.492 130.099 C 63.785 130.099 63.931 130.187 63.814 130.275 C 63.522 130.567 62.673 130.128 62.878 129.806 C 62.966 129.66 63.112 129.514 63.2 129.514 C 63.288 129.514 63.258 129.631 63.171 129.806 Z  M 83.803 129.748 C 83.803 129.894 83.598 130.245 83.364 130.567 C 82.955 131.094 82.955 131.065 83.247 130.304 C 83.598 129.514 83.803 129.309 83.803 129.748 Z  M 75.872 130.187 C 75.609 130.392 75.345 130.743 75.228 130.977 C 75.111 131.328 75.053 131.328 75.053 130.919 C 75.023 130.655 75.258 130.275 75.55 130.128 C 76.253 129.719 76.428 129.748 75.872 130.187 Z  M 44.411 131.123 C 44.499 131.358 44.44 131.562 44.294 131.562 C 44.118 131.562 44.001 131.358 44.001 131.123 C 44.001 130.889 44.06 130.684 44.118 130.684 C 44.177 130.684 44.294 130.889 44.411 131.123 Z  M 52.576 130.889 C 52.371 130.948 51.961 130.948 51.698 130.889 C 51.405 130.802 51.581 130.743 52.049 130.743 C 52.547 130.743 52.752 130.802 52.576 130.889 Z  M 27.846 131.182 C 27.231 131.241 26.178 131.241 25.505 131.182 C 24.802 131.123 25.3 131.065 26.588 131.065 C 27.875 131.065 28.431 131.123 27.846 131.182 Z  M 29.514 131.533 C 29.602 131.68 29.573 131.884 29.426 131.972 C 29.28 132.06 29.163 131.943 29.163 131.709 C 29.163 131.211 29.251 131.153 29.514 131.533 Z  M 44.499 133.231 C 44.411 133.523 44.352 133.348 44.352 132.879 C 44.352 132.382 44.411 132.177 44.499 132.353 C 44.557 132.558 44.557 132.967 44.499 133.231 Z  M 83.394 135.162 C 83.686 135.543 83.598 135.455 83.159 135.016 C 82.545 134.401 82.34 133.933 82.369 133.084 L 82.428 132.001 L 82.603 133.231 C 82.72 133.933 83.072 134.782 83.394 135.162 Z  M 28.402 135.426 C 28.344 135.806 28.285 135.572 28.285 134.928 C 28.256 134.284 28.314 133.992 28.402 134.255 C 28.461 134.548 28.461 135.074 28.402 135.426 Z  M 86.847 138.879 C 86.935 139.933 87.081 142.303 87.198 144.176 L 87.403 147.6 L 86.496 147.805 C 85.998 147.893 85.208 148.274 84.769 148.625 L 83.95 149.239 L 84.506 148.595 C 85.091 147.922 85.091 146.371 84.476 138.382 L 84.301 135.952 L 85.471 136.45 C 86.671 136.977 86.671 136.977 86.847 138.879 Z  M 29.514 137.416 C 29.807 137.738 29.982 138.001 29.895 138.001 C 29.807 138.001 29.514 137.738 29.222 137.416 C 28.929 137.094 28.753 136.83 28.841 136.83 C 28.929 136.83 29.222 137.094 29.514 137.416 Z  M 32.704 139.903 C 32.792 140.547 32.938 142.947 33.055 145.201 L 33.231 149.327 L 32.382 149.503 C 31.943 149.591 31.534 149.62 31.475 149.591 C 31.446 149.532 31.27 147.864 31.124 145.874 C 30.978 143.884 30.773 141.308 30.656 140.167 L 30.451 138.06 L 31.504 138.382 C 32.47 138.703 32.587 138.85 32.704 139.903 Z  M 72.097 138.879 C 72.097 139.025 71.921 139.172 71.687 139.172 C 71.453 139.172 71.16 139.025 71.072 138.879 C 70.985 138.703 71.16 138.586 71.482 138.586 C 71.833 138.586 72.097 138.703 72.097 138.879 Z  M 71.746 139.845 L 72.419 140.225 L 71.746 140.547 C 71.277 140.752 70.78 141.601 70.107 143.24 C 69.551 144.557 68.965 145.581 68.79 145.523 C 68.643 145.493 68.234 144.966 67.941 144.41 C 67.18 143.035 67.356 140.752 68.292 139.991 C 69.053 139.377 70.751 139.318 71.746 139.845 Z  M 75.316 139.903 C 75.111 140.138 74.819 140.342 74.643 140.342 C 74.467 140.342 74.584 140.138 74.906 139.903 C 75.638 139.347 75.784 139.347 75.316 139.903 Z  M 49.825 139.816 C 49.767 139.874 49.328 140.225 48.83 140.635 L 47.952 141.367 L 48.654 140.547 C 49.064 140.108 49.503 139.757 49.649 139.757 C 49.825 139.757 49.884 139.786 49.825 139.816 Z  M 52.166 140.84 C 52.664 141.454 53.074 142.069 53.074 142.245 C 53.074 142.391 52.722 142.04 52.313 141.425 C 51.903 140.811 51.288 140.196 50.937 140.05 C 50.469 139.874 50.41 139.786 50.791 139.786 C 51.054 139.757 51.669 140.255 52.166 140.84 Z  M 75.843 141.572 L 76.926 141.659 L 77.014 147.571 C 77.072 152.049 77.16 153.512 77.453 153.512 C 78.418 153.483 82.34 152.664 82.896 152.371 C 83.335 152.137 83.511 151.756 83.511 151.083 C 83.511 150.556 83.628 149.942 83.774 149.737 C 83.979 149.444 84.008 149.678 83.92 150.469 C 83.833 151.083 83.95 152.254 84.213 153.015 C 84.711 154.712 84.857 154.624 81.228 155.093 C 78.945 155.385 78.682 155.502 78.594 156.088 C 78.535 156.497 78.301 156.732 77.95 156.732 C 76.575 156.732 76.575 156.878 76.721 149.122 L 76.867 141.806 L 75.638 141.806 C 74.584 141.806 74.438 141.718 74.467 141.133 C 74.497 140.664 74.555 140.635 74.643 140.986 C 74.731 141.308 75.14 141.513 75.843 141.572 Z  M 45.962 141.689 C 45.874 141.776 45.611 141.806 45.406 141.718 C 45.172 141.63 45.259 141.542 45.581 141.542 C 45.903 141.513 46.079 141.601 45.962 141.689 Z  M 45.084 144.937 C 45.025 145.552 44.967 145.113 44.967 144.001 C 44.967 142.859 45.025 142.391 45.084 142.889 C 45.142 143.415 45.142 144.352 45.084 144.937 Z  M 53.278 143.767 C 53.191 144.059 53.132 143.884 53.132 143.415 C 53.132 142.918 53.191 142.713 53.278 142.889 C 53.337 143.093 53.337 143.503 53.278 143.767 Z  M 53.074 144.527 C 53.074 144.586 52.635 144.996 52.137 145.493 L 51.171 146.342 L 52.02 145.376 C 52.839 144.498 53.074 144.293 53.074 144.527 Z  M 68.234 146.196 C 68.79 146.196 68.643 146.752 67.502 148.8 C 63.99 155.122 62.761 155.854 55.415 156 C 53.249 156.029 51.084 156.234 50.645 156.41 C 50.176 156.585 49.152 156.732 48.362 156.732 C 47.133 156.732 46.869 156.644 46.664 156.058 C 46.518 155.707 46.459 155.327 46.518 155.239 C 46.576 155.151 48.362 154.976 50.498 154.888 C 55.064 154.683 58.517 154.068 60.361 153.161 C 61.941 152.371 63.317 150.644 65.131 147.191 L 66.39 144.762 L 67.151 145.493 C 67.56 145.874 68.029 146.196 68.234 146.196 Z  M 50.879 146.488 C 50.791 146.635 50.352 146.752 49.913 146.752 L 49.123 146.722 L 50.001 146.488 C 50.498 146.371 50.908 146.254 50.966 146.225 C 51.025 146.225 50.966 146.313 50.879 146.488 Z  M 87.462 149.122 C 87.784 150.556 87.315 152.371 86.437 153.278 C 85.969 153.717 85.471 154.098 85.325 154.098 C 85.179 154.098 84.915 153.571 84.74 152.927 C 84.389 151.464 84.886 149.561 85.823 148.771 C 86.788 148.01 87.227 148.127 87.462 149.122 Z  M 33.319 152.839 C 33.319 154.8 33.202 155.385 32.704 156.029 C 31.826 157.229 31.534 157.171 31.007 155.854 C 30.568 154.771 30.568 154.595 30.978 154.01 C 31.212 153.659 31.416 152.839 31.416 152.137 C 31.416 150.878 31.943 150.234 32.88 150.381 C 33.231 150.439 33.319 150.937 33.319 152.839 Z  M 102.914 152.342 C 103.822 152.342 103.997 152.429 103.997 152.956 C 103.997 153.542 103.909 153.571 102.475 153.395 C 101.041 153.19 100.514 152.868 100.485 152.225 C 100.485 152.107 100.778 152.049 101.158 152.166 C 101.509 152.254 102.3 152.342 102.914 152.342 Z  M 180.031 152.927 C 181.582 153.863 181.729 154.595 181.114 157.61 C 180.558 160.478 180.646 162.146 181.465 163.873 C 182.08 165.219 182.841 165.248 184.977 164.048 C 187.465 162.643 188.431 162.877 189.601 165.19 C 190.245 166.448 190.011 167.267 188.723 168.409 C 187.494 169.492 186.909 169.521 184.919 168.701 C 182.255 167.619 181.553 168.38 181.553 172.418 L 181.553 174.262 L 180.763 174.145 C 179.885 173.999 173.768 173.15 172.334 172.945 C 167.388 172.331 163.905 171.745 158.52 170.575 C 158.14 170.487 157.847 170.253 157.847 170.077 C 157.847 169.872 157.672 169.462 157.438 169.17 C 157.057 168.643 156.999 168.643 155.886 169.14 C 154.804 169.609 154.628 169.638 152.872 169.17 C 151.848 168.906 150.765 168.672 150.443 168.643 C 149.799 168.584 149.301 167.502 149.565 166.77 C 150.179 165.014 151.848 164.487 153.955 165.365 C 155.477 166.009 156.764 165.921 157.496 165.131 C 158.725 163.814 158.959 160.068 157.935 157.2 C 157.73 156.556 157.613 156 157.672 155.941 C 157.789 155.824 164.081 155.297 165.515 155.268 C 166.305 155.268 166.305 155.268 165.866 156.293 C 164.93 158.546 165.544 160.565 167.447 161.648 C 170.607 163.404 174.588 161.209 174.178 157.961 C 174.09 157.288 173.739 156.38 173.388 155.883 C 172.597 154.771 172.597 154.683 173.651 154.683 C 174.412 154.683 174.529 154.595 174.529 153.834 C 174.529 153.015 174.588 152.956 176.373 152.693 C 179.007 152.283 178.978 152.283 180.031 152.927 Z  M 196.186 153.337 C 196.186 153.395 195.981 153.512 195.747 153.629 C 195.513 153.717 195.308 153.659 195.308 153.512 C 195.308 153.337 195.513 153.22 195.747 153.22 C 195.981 153.22 196.186 153.278 196.186 153.337 Z  M 197.562 153.688 C 197.474 153.776 197.211 153.805 197.006 153.717 C 196.772 153.629 196.859 153.542 197.181 153.542 C 197.503 153.512 197.679 153.6 197.562 153.688 Z  M 198.908 154.01 C 198.703 154.068 198.352 154.068 198.176 154.01 C 197.971 153.922 198.118 153.863 198.528 153.863 C 198.937 153.863 199.084 153.922 198.908 154.01 Z  M 209.737 154.01 C 209.532 154.068 209.18 154.068 209.005 154.01 C 208.8 153.922 208.946 153.863 209.356 153.863 C 209.766 153.863 209.912 153.922 209.737 154.01 Z  M 184.772 154.215 C 184.772 154.273 184.567 154.419 184.304 154.507 C 184.07 154.595 183.953 154.566 184.041 154.39 C 184.216 154.098 184.772 153.98 184.772 154.215 Z  M 201.103 154.302 C 200.81 154.361 200.342 154.361 200.079 154.302 C 199.786 154.215 200.02 154.156 200.576 154.156 C 201.132 154.156 201.366 154.215 201.103 154.302 Z  M 207.834 154.302 C 207.542 154.361 207.015 154.361 206.664 154.302 C 206.283 154.244 206.517 154.185 207.161 154.185 C 207.805 154.156 208.098 154.215 207.834 154.302 Z  M 187.611 154.858 C 187.523 154.946 187.26 154.976 187.055 154.888 C 186.821 154.8 186.909 154.712 187.231 154.712 C 187.553 154.683 187.728 154.771 187.611 154.858 Z  M 189.25 155.18 C 189.045 155.239 188.694 155.239 188.518 155.18 C 188.314 155.093 188.46 155.034 188.87 155.034 C 189.279 155.034 189.426 155.093 189.25 155.18 Z  M 30.451 157.639 C 29.807 157.99 24.393 158.839 23.954 158.663 C 23.719 158.575 23.515 158.166 23.515 157.785 C 23.515 157.171 23.69 157.024 24.627 156.878 C 27.524 156.38 28.753 156.088 29.251 155.707 C 29.748 155.327 29.836 155.385 30.304 156.38 C 30.656 157.171 30.714 157.492 30.451 157.639 Z  M 156.033 156.058 C 155.74 156.117 155.272 156.117 155.008 156.058 C 154.716 155.971 154.95 155.912 155.506 155.912 C 156.062 155.912 156.296 155.971 156.033 156.058 Z  M 151.643 156.351 C 151.35 156.41 150.823 156.41 150.472 156.351 C 150.092 156.293 150.326 156.234 150.97 156.234 C 151.614 156.205 151.906 156.263 151.643 156.351 Z  M 211.61 157.375 C 211.522 157.61 211.434 157.522 211.434 157.2 C 211.405 156.878 211.493 156.702 211.58 156.819 C 211.668 156.907 211.697 157.171 211.61 157.375 Z  M 211.61 160.595 C 211.522 160.829 211.434 160.741 211.434 160.419 C 211.405 160.097 211.493 159.922 211.58 160.039 C 211.668 160.126 211.697 160.39 211.61 160.595 Z  M 71.511 161.999 C 71.365 162.643 71.277 162.79 71.248 162.38 C 71.219 161.765 71.511 160.741 71.658 160.887 C 71.716 160.946 71.658 161.443 71.511 161.999 Z  M 69.697 161.326 C 69.404 161.385 68.877 161.385 68.526 161.326 C 68.146 161.268 68.38 161.209 69.024 161.209 C 69.668 161.18 69.96 161.239 69.697 161.326 Z  M 187.904 161.297 C 187.816 161.385 187.553 161.414 187.348 161.326 C 187.114 161.239 187.201 161.151 187.523 161.151 C 187.845 161.121 188.021 161.209 187.904 161.297 Z  M 182.051 162.058 C 181.963 162.292 181.875 162.204 181.875 161.882 C 181.846 161.56 181.933 161.385 182.021 161.502 C 182.109 161.59 182.138 161.853 182.051 162.058 Z  M 189.455 162.146 C 189.835 162.556 190.07 162.877 189.982 162.877 C 189.923 162.877 189.543 162.556 189.162 162.146 C 188.782 161.736 188.548 161.414 188.635 161.414 C 188.694 161.414 189.074 161.736 189.455 162.146 Z  M 49.181 165.131 C 49.123 165.746 49.064 165.307 49.064 164.194 C 49.064 163.053 49.123 162.585 49.181 163.082 C 49.24 163.609 49.24 164.546 49.181 165.131 Z  M 58.488 164.751 C 58.663 164.897 58.517 164.868 58.195 164.692 C 57.873 164.516 57.229 163.96 56.732 163.404 L 55.854 162.438 L 57.025 163.463 C 57.668 164.019 58.342 164.604 58.488 164.751 Z  M 63.171 164.341 C 63.083 164.487 62.819 164.633 62.644 164.633 C 62.439 164.633 62.468 164.516 62.732 164.341 C 63.288 163.99 63.405 163.99 63.171 164.341 Z  M 202.83 166.009 C 202.742 166.302 202.683 166.068 202.683 165.511 C 202.683 164.955 202.742 164.721 202.83 164.985 C 202.888 165.277 202.888 165.746 202.83 166.009 Z  M 60.771 165.131 C 60.39 165.19 59.805 165.19 59.454 165.131 C 59.073 165.072 59.366 165.014 60.098 165.014 C 60.829 165.014 61.122 165.072 60.771 165.131 Z  M 41.952 167.765 C 41.718 167.853 41.309 168.087 41.074 168.262 C 40.694 168.555 40.694 168.526 41.045 168.058 C 41.25 167.794 41.66 167.56 41.923 167.589 C 42.304 167.589 42.333 167.619 41.952 167.765 Z  M 44.586 167.999 C 45.523 168.526 45.318 168.526 43.855 167.999 C 43.211 167.765 42.947 167.589 43.269 167.589 C 43.591 167.589 44.177 167.765 44.586 167.999 Z  M 47.659 168.438 C 47.572 168.584 46.986 168.701 46.401 168.701 L 45.318 168.643 L 46.489 168.438 C 47.133 168.321 47.689 168.204 47.747 168.175 C 47.806 168.175 47.747 168.262 47.659 168.438 Z  M 190.333 169.111 C 190.333 169.17 190.04 169.462 189.689 169.784 L 189.016 170.34 L 189.572 169.667 C 190.099 169.053 190.333 168.877 190.333 169.111 Z  M 127.644 171.716 C 127.498 172.418 127.439 173.706 127.527 174.584 C 127.674 176.047 127.644 176.106 127.381 175.169 C 126.942 173.823 127.293 170.487 127.849 170.487 C 127.878 170.487 127.82 171.043 127.644 171.716 Z  M 211.902 171.862 C 211.814 172.155 211.756 171.979 211.756 171.511 C 211.756 171.014 211.814 170.809 211.902 170.984 C 211.961 171.189 211.961 171.599 211.902 171.862 Z  M 47.952 171.657 C 48.04 171.833 47.923 171.862 47.689 171.774 C 47.162 171.57 47.074 171.365 47.484 171.365 C 47.659 171.365 47.864 171.482 47.952 171.657 Z  M 212.195 174.204 C 212.107 174.496 212.049 174.321 212.049 173.852 C 212.049 173.355 212.107 173.15 212.195 173.326 C 212.253 173.53 212.253 173.94 212.195 174.204 Z  M 127.908 177.277 C 127.82 177.481 127.761 177.335 127.761 176.925 C 127.761 176.516 127.82 176.369 127.908 176.545 C 127.966 176.75 127.966 177.101 127.908 177.277 Z " fill-rule="evenodd" fill="rgb(255,255,255)"/><path d=" M 208.127 88.453 C 208.332 88.541 208.595 88.512 208.683 88.424 C 208.8 88.336 208.624 88.248 208.302 88.277 C 207.981 88.277 207.893 88.365 208.127 88.453 Z " fill-rule="evenodd" fill="rgb(255,255,255)"/><path d=" M 216.439 90.59 C 216.234 90.911 216.204 91.175 216.351 91.175 C 216.614 91.175 217.053 90.297 216.878 90.121 C 216.848 90.063 216.643 90.297 216.439 90.59 Z " fill-rule="evenodd" fill="rgb(255,255,255)"/><path d=" M 181.231 95.477 C 180.851 95.945 180.88 95.975 181.348 95.594 C 181.612 95.389 181.846 95.155 181.846 95.097 C 181.846 94.862 181.612 95.009 181.231 95.477 Z " fill-rule="evenodd" fill="rgb(255,255,255)"/><path d=" M 174.412 104.55 C 174.236 104.959 174.266 104.989 174.558 104.725 C 174.763 104.52 174.851 104.286 174.763 104.198 C 174.675 104.111 174.5 104.257 174.412 104.55 Z " fill-rule="evenodd" fill="rgb(255,255,255)"/><path d=" M 173.71 105.954 C 173.212 107.037 173.3 107.271 173.827 106.306 C 174.09 105.837 174.236 105.398 174.149 105.34 C 174.09 105.281 173.885 105.545 173.71 105.954 Z " fill-rule="evenodd" fill="rgb(255,255,255)"/><path d=" M 170.871 126.675 C 170.637 128.109 170.988 128.928 171.778 128.928 C 172.217 128.928 172.041 127.143 171.456 126.002 C 171.076 125.299 171.076 125.329 170.871 126.675 Z " fill-rule="evenodd" fill="rgb(255,255,255)"/><path d=" M 172.773 132.587 C 172.773 132.733 172.919 133.084 173.066 133.318 C 173.212 133.553 173.358 133.611 173.358 133.465 C 173.358 133.289 173.212 132.967 173.066 132.733 C 172.919 132.499 172.773 132.411 172.773 132.587 Z " fill-rule="evenodd" fill="rgb(255,255,255)"/><path d=" M 132.298 113.183 C 128.815 124.041 126.883 130.245 127 130.363 C 127.059 130.421 128.259 130.363 129.664 130.216 C 131.098 130.07 131.829 129.924 131.303 129.865 C 129.956 129.719 130.103 129.426 131.742 128.87 C 134.785 127.816 139.439 127.963 139 129.075 C 138.912 129.338 139 129.514 139.263 129.514 C 139.585 129.514 139.702 129.163 139.702 128.314 C 139.702 127.202 139.644 127.114 138.327 126.529 C 136.951 125.914 136.922 125.914 134.2 126.441 C 132.707 126.704 131.42 126.909 131.39 126.851 C 131.332 126.792 131.537 125.885 131.829 124.831 C 133.146 120.295 133.966 117.924 134.61 116.695 C 134.99 115.963 135.312 115.144 135.312 114.851 C 135.312 114.5 135.517 114.295 135.868 114.295 C 136.454 114.295 137.214 115.876 136.863 116.432 C 136.775 116.607 136.834 116.637 137.01 116.52 C 137.214 116.402 137.361 116.461 137.361 116.666 C 137.361 116.841 138.414 119.183 139.731 121.817 C 141.019 124.48 141.985 126.763 141.839 126.88 C 141.721 127.026 141.224 127.172 140.726 127.26 C 140.112 127.348 140.258 127.377 141.253 127.436 C 142.014 127.436 142.629 127.348 142.629 127.172 C 142.629 126.997 141.751 125.065 140.697 122.841 C 136.834 114.851 135.722 111.954 136.132 110.813 C 136.366 110.169 136.249 109.642 135.634 108.208 C 135.224 107.213 134.785 106.393 134.668 106.393 C 134.551 106.393 133.498 109.466 132.298 113.183 Z " fill-rule="evenodd" fill="rgb(255,255,255)"/><path d=" M 125.362 117.983 C 125.04 118.802 124.952 122.402 125.274 122.109 C 125.479 121.905 126.825 117.866 126.825 117.427 C 126.825 116.841 125.625 117.28 125.362 117.983 Z " fill-rule="evenodd" fill="rgb(255,255,255)"/><path d=" M 144.092 127.611 C 144.092 128.226 144.619 129.221 144.97 129.221 C 145.292 129.221 144.736 127.553 144.355 127.29 C 144.209 127.202 144.092 127.348 144.092 127.611 Z " fill-rule="evenodd" fill="rgb(255,255,255)"/><path d=" M 108.621 153.424 C 108.826 153.512 109.089 153.483 109.177 153.395 C 109.294 153.307 109.119 153.22 108.797 153.249 C 108.475 153.249 108.387 153.337 108.621 153.424 Z " fill-rule="evenodd" fill="rgb(255,255,255)"/></g></g></g></svg>