<?xml version="1.0" standalone="no"?><!-- Generator: Gravit.io --><svg xmlns="http://www.w3.org/2000/svg" xmlns:xlink="http://www.w3.org/1999/xlink" style="isolation:isolate" viewBox="0 0 512 256" width="512" height="256"><defs><clipPath id="_clipPath_qFlQASAlGYgybwrGln2rDH60zWbQDYst"><rect width="512" height="256"/></clipPath></defs><g clip-path="url(#_clipPath_qFlQASAlGYgybwrGln2rDH60zWbQDYst)"><g id="Group"><path d=" M 43.834 49 L 138.321 49.541 L 138.141 76.589 L 156.893 49.18 L 164.287 49.18 L 137.959 89.031 L 137.959 98.586 L 170.777 49.541 L 178.567 49.33 L 137.419 109.587 L 137.78 118.062 L 186.285 49.18 L 193.205 49.33 L 137.78 128.52 L 137.78 139.158 L 199.268 49.18 L 230.643 49.722 C 226.676 170.534 55.014 177.025 43.834 49 Z " fill="rgb(254,253,254)"/><path d=" M 27.5 162.834 L 34.541 162.986 L 34.494 185.023 C 37.871 194.792 52.464 195.758 55.238 184.782 L 55.201 163.008 L 61.784 163.082 L 61.63 185.266 C 59.338 202.029 32.926 205.887 28.102 185.144 L 27.5 162.834 Z " fill="rgb(254,253,254)"/><path d=" M 72.002 199.061 L 78.341 199.344 L 78.529 172.097 L 98.966 199.061 L 106.629 199.061 L 106.534 163.204 L 99.912 163.204 L 99.721 191.019 L 79.003 163.11 L 71.812 163.393 L 72.002 199.061 Z " fill="rgb(254,253,254)"/><rect x="116.279" y="162.919" width="6.718" height="36.424" transform="matrix(1,0,0,1,0,0)" fill="rgb(254,253,254)"/><rect x="240.973" y="162.547" width="6.718" height="36.424" transform="matrix(1,0,0,1,0,0)" fill="rgb(254,253,254)"/><path d=" M 129.264 163.086 L 136.328 163.008 L 148.675 193.601 L 160.477 163.008 L 167.698 163.086 L 153.333 198.802 L 143.395 198.725 L 129.264 163.086 Z " fill="rgb(254,253,254)"/><path d=" M 202.192 198.889 L 195.127 198.967 L 182.781 168.375 L 170.98 198.967 L 163.759 198.889 L 178.122 163.172 L 188.062 163.251 L 202.192 198.889 Z " fill="rgb(254,253,254)"/><path d=" M 216.313 193.678 L 234.094 193.838 L 234.094 199.205 L 209.265 198.884 L 208.864 162.921 L 216.073 163.002 L 216.313 193.678 Z " fill="rgb(254,253,254)"/></g><path d=" M 298.526 69.253 L 298.526 159.276 L 298.526 159.276 Q 298.526 164.737 300.398 167.077 L 300.398 167.077 L 300.398 167.077 Q 302.27 169.418 305.702 169.418 L 305.702 169.418 L 305.702 169.418 Q 307.731 169.418 310.071 169.105 L 310.071 169.105 L 310.071 169.105 Q 312.412 168.793 315.376 167.701 L 315.376 167.701 L 316.78 177.53 L 316.78 177.53 Q 314.283 178.779 309.838 179.559 L 309.838 179.559 L 309.838 179.559 Q 305.39 180.339 302.114 180.339 L 302.114 180.339 L 302.114 180.339 Q 295.093 180.339 290.568 176.361 L 290.568 176.361 L 290.568 176.361 Q 286.044 172.382 286.044 162.864 L 286.044 162.864 L 286.044 69.253 L 298.526 69.253 Z  M 332.85 178.467 L 332.85 100.457 L 345.331 100.457 L 345.331 178.467 L 332.85 178.467 Z  M 330.197 76.743 L 330.197 76.743 L 330.197 76.743 Q 330.197 73.153 332.616 70.579 L 332.616 70.579 L 332.616 70.579 Q 335.034 68.005 338.778 68.005 L 338.778 68.005 L 338.778 68.005 Q 342.523 68.005 345.175 70.579 L 345.175 70.579 L 345.175 70.579 Q 347.828 73.153 347.828 76.743 L 347.828 76.743 L 347.828 76.743 Q 347.828 80.331 345.175 82.67 L 345.175 82.67 L 345.175 82.67 Q 342.523 85.011 338.778 85.011 L 338.778 85.011 L 338.778 85.011 Q 335.034 85.011 332.616 82.67 L 332.616 82.67 L 332.616 82.67 Q 330.197 80.331 330.197 76.743 Z  M 361.714 111.379 L 361.714 100.457 L 373.882 100.457 L 373.882 85.011 L 386.365 81.423 L 386.365 100.457 L 407.582 100.457 L 407.582 111.379 L 386.365 111.379 L 386.365 154.596 L 386.365 154.596 Q 386.365 162.708 388.392 166.063 L 388.392 166.063 L 388.392 166.063 Q 390.421 169.418 395.257 169.418 L 395.257 169.418 L 395.257 169.418 Q 399.314 169.418 402.123 168.559 L 402.123 168.559 L 402.123 168.559 Q 404.931 167.701 408.363 166.297 L 408.363 166.297 L 411.172 175.815 L 411.172 175.815 Q 406.959 177.842 401.967 179.091 L 401.967 179.091 L 401.967 179.091 Q 396.974 180.339 391.201 180.339 L 391.201 180.339 L 391.201 180.339 Q 381.684 180.339 377.784 174.956 L 377.784 174.956 L 377.784 174.956 Q 373.882 169.574 373.882 156.936 L 373.882 156.936 L 373.882 111.379 L 361.714 111.379 Z  M 477.168 163.177 L 481.848 172.226 L 481.848 172.226 Q 477.168 175.971 470.07 178.154 L 470.07 178.154 L 470.07 178.154 Q 462.969 180.339 455.013 180.339 L 455.013 180.339 L 455.013 180.339 Q 446.12 180.339 439.567 177.453 L 439.567 177.453 L 439.567 177.453 Q 433.014 174.566 428.801 169.183 L 428.801 169.183 L 428.801 169.183 Q 424.589 163.801 422.56 156.311 L 422.56 156.311 L 422.56 156.311 Q 420.533 148.823 420.533 139.462 L 420.533 139.462 L 420.533 139.462 Q 420.533 119.491 429.425 109.038 L 429.425 109.038 L 429.425 109.038 Q 438.318 98.585 454.857 98.585 L 454.857 98.585 L 454.857 98.585 Q 460.161 98.585 465.466 99.755 L 465.466 99.755 L 465.466 99.755 Q 470.771 100.925 474.983 104.201 L 474.983 104.201 L 474.983 104.201 Q 479.196 107.478 481.848 113.485 L 481.848 113.485 L 481.848 113.485 Q 484.5 119.491 484.5 129.321 L 484.5 129.321 L 484.5 129.321 Q 484.5 134.469 483.564 140.71 L 483.564 140.71 L 433.482 140.71 L 433.482 140.71 Q 433.482 147.575 434.886 152.879 L 434.886 152.879 L 434.886 152.879 Q 436.291 158.184 439.255 161.851 L 439.255 161.851 L 439.255 161.851 Q 442.22 165.517 446.978 167.468 L 446.978 167.468 L 446.978 167.468 Q 451.737 169.418 458.601 169.418 L 458.601 169.418 L 458.601 169.418 Q 463.906 169.418 469.21 167.545 L 469.21 167.545 L 469.21 167.545 Q 474.515 165.672 477.168 163.177 L 477.168 163.177 Z  M 455.013 109.506 L 455.013 109.506 L 455.013 109.506 Q 445.808 109.506 440.27 114.343 L 440.27 114.343 L 440.27 114.343 Q 434.73 119.179 433.638 130.881 L 433.638 130.881 L 472.33 130.881 L 472.33 130.881 Q 472.33 119.023 467.806 114.266 L 467.806 114.266 L 467.806 114.266 Q 463.281 109.506 455.013 109.506 Z " fill-rule="evenodd" fill="rgb(254,253,254)"/></g></svg>