<?xml version="1.0" standalone="no"?><!-- Generator: Gravit.io --><svg xmlns="http://www.w3.org/2000/svg" xmlns:xlink="http://www.w3.org/1999/xlink" style="isolation:isolate" viewBox="0 0 512 256" width="512" height="256"><defs><clipPath id="_clipPath_ztrl1UQIfCmEe4TXmh0LuhI8sdbDulNB"><rect width="512" height="256"/></clipPath></defs><g clip-path="url(#_clipPath_ztrl1UQIfCmEe4TXmh0LuhI8sdbDulNB)"><clipPath id="_clipPath_gT1j0hEBqoKZEEcxGvum7lEZ0Nr5GR0X"><rect x="0" y="0" width="512" height="256" transform="matrix(1,0,0,1,0,0)" fill="rgb(255,255,255)"/></clipPath><g clip-path="url(#_clipPath_gT1j0hEBqoKZEEcxGvum7lEZ0Nr5GR0X)"><g id="Group"><g id="Group"><path d=" M 56.803 73.682 L 125.077 74.073 L 124.947 93.618 L 138.496 73.812 L 143.839 73.812 L 124.815 102.608 L 124.815 109.512 L 148.529 74.073 L 154.158 73.921 L 124.425 117.461 L 124.686 123.585 L 159.734 73.812 L 164.735 73.921 L 124.686 131.142 L 124.686 138.829 L 169.116 73.812 L 191.787 74.204 C 188.92 161.5 64.881 166.19 56.803 73.682 Z " fill="rgb(254,253,254)"/><path d=" M 45 155.936 L 50.088 156.046 L 50.054 171.97 C 52.494 179.028 63.038 179.726 65.043 171.795 L 65.016 156.062 L 69.773 156.115 L 69.662 172.145 C 68.005 184.258 48.921 187.045 45.435 172.057 L 45 155.936 Z " fill="rgb(254,253,254)"/><path d=" M 77.156 182.113 L 81.737 182.318 L 81.872 162.63 L 96.64 182.113 L 102.177 182.113 L 102.108 156.204 L 97.323 156.204 L 97.185 176.302 L 82.215 156.136 L 77.019 156.34 L 77.156 182.113 Z " fill="rgb(254,253,254)"/><rect x="109.15" y="155.998" width="4.854" height="26.319" transform="matrix(1,0,0,1,0,0)" fill="rgb(254,253,254)"/><rect x="199.251" y="155.729" width="4.854" height="26.319" transform="matrix(1,0,0,1,0,0)" fill="rgb(254,253,254)"/><path d=" M 118.532 156.118 L 123.637 156.062 L 132.558 178.168 L 141.086 156.062 L 146.304 156.118 L 135.924 181.926 L 128.743 181.87 L 118.532 156.118 Z " fill="rgb(254,253,254)"/><path d=" M 171.229 181.989 L 166.124 182.045 L 157.203 159.94 L 148.675 182.045 L 143.458 181.989 L 153.836 156.181 L 161.019 156.238 L 171.229 181.989 Z " fill="rgb(254,253,254)"/><path d=" M 181.432 178.223 L 194.28 178.339 L 194.28 182.217 L 176.339 181.985 L 176.05 155.999 L 181.259 156.058 L 181.432 178.223 Z " fill="rgb(254,253,254)"/></g><path d=" M 312.871 82.575 L 312.871 157.036 L 312.871 157.036 Q 312.871 161.553 314.42 163.488 L 314.42 163.488 L 314.42 163.488 Q 315.968 165.425 318.807 165.425 L 318.807 165.425 L 318.807 165.425 Q 320.485 165.425 322.421 165.166 L 322.421 165.166 L 322.421 165.166 Q 324.357 164.908 326.809 164.004 L 326.809 164.004 L 327.97 172.134 L 327.97 172.134 Q 325.905 173.167 322.228 173.813 L 322.228 173.813 L 322.228 173.813 Q 318.549 174.458 315.839 174.458 L 315.839 174.458 L 315.839 174.458 Q 310.032 174.458 306.289 171.167 L 306.289 171.167 L 306.289 171.167 Q 302.547 167.876 302.547 160.004 L 302.547 160.004 L 302.547 82.575 L 312.871 82.575 Z  M 341.262 172.909 L 341.262 108.384 L 351.586 108.384 L 351.586 172.909 L 341.262 172.909 Z  M 339.068 88.77 L 339.068 88.77 L 339.068 88.77 Q 339.068 85.8 341.069 83.671 L 341.069 83.671 L 341.069 83.671 Q 343.069 81.542 346.165 81.542 L 346.165 81.542 L 346.165 81.542 Q 349.263 81.542 351.457 83.671 L 351.457 83.671 L 351.457 83.671 Q 353.651 85.8 353.651 88.77 L 353.651 88.77 L 353.651 88.77 Q 353.651 91.738 351.457 93.672 L 351.457 93.672 L 351.457 93.672 Q 349.263 95.609 346.165 95.609 L 346.165 95.609 L 346.165 95.609 Q 343.069 95.609 341.069 93.672 L 341.069 93.672 L 341.069 93.672 Q 339.068 91.738 339.068 88.77 Z  M 365.137 117.418 L 365.137 108.384 L 375.201 108.384 L 375.201 95.609 L 385.526 92.641 L 385.526 108.384 L 403.076 108.384 L 403.076 117.418 L 385.526 117.418 L 385.526 153.165 L 385.526 153.165 Q 385.526 159.875 387.203 162.65 L 387.203 162.65 L 387.203 162.65 Q 388.881 165.425 392.881 165.425 L 392.881 165.425 L 392.881 165.425 Q 396.237 165.425 398.56 164.714 L 398.56 164.714 L 398.56 164.714 Q 400.883 164.004 403.722 162.843 L 403.722 162.843 L 406.045 170.716 L 406.045 170.716 Q 402.56 172.392 398.431 173.425 L 398.431 173.425 L 398.431 173.425 Q 394.301 174.458 389.526 174.458 L 389.526 174.458 L 389.526 174.458 Q 381.654 174.458 378.429 170.005 L 378.429 170.005 L 378.429 170.005 Q 375.201 165.554 375.201 155.1 L 375.201 155.1 L 375.201 117.418 L 365.137 117.418 Z  M 460.633 160.262 L 464.504 167.747 L 464.504 167.747 Q 460.633 170.845 454.762 172.65 L 454.762 172.65 L 454.762 172.65 Q 448.888 174.458 442.307 174.458 L 442.307 174.458 L 442.307 174.458 Q 434.952 174.458 429.532 172.071 L 429.532 172.071 L 429.532 172.071 Q 424.111 169.683 420.627 165.23 L 420.627 165.23 L 420.627 165.23 Q 417.143 160.779 415.464 154.583 L 415.464 154.583 L 415.464 154.583 Q 413.788 148.39 413.788 140.647 L 413.788 140.647 L 413.788 140.647 Q 413.788 124.128 421.143 115.482 L 421.143 115.482 L 421.143 115.482 Q 428.498 106.836 442.178 106.836 L 442.178 106.836 L 442.178 106.836 Q 446.566 106.836 450.954 107.804 L 450.954 107.804 L 450.954 107.804 Q 455.341 108.772 458.825 111.481 L 458.825 111.481 L 458.825 111.481 Q 462.31 114.192 464.504 119.16 L 464.504 119.16 L 464.504 119.16 Q 466.697 124.128 466.697 132.259 L 466.697 132.259 L 466.697 132.259 Q 466.697 136.517 465.923 141.679 L 465.923 141.679 L 424.498 141.679 L 424.498 141.679 Q 424.498 147.357 425.66 151.745 L 425.66 151.745 L 425.66 151.745 Q 426.822 156.133 429.273 159.166 L 429.273 159.166 L 429.273 159.166 Q 431.726 162.198 435.661 163.812 L 435.661 163.812 L 435.661 163.812 Q 439.598 165.425 445.275 165.425 L 445.275 165.425 L 445.275 165.425 Q 449.663 165.425 454.05 163.875 L 454.05 163.875 L 454.05 163.875 Q 458.438 162.326 460.633 160.262 L 460.633 160.262 Z  M 442.307 115.869 L 442.307 115.869 L 442.307 115.869 Q 434.694 115.869 430.113 119.87 L 430.113 119.87 L 430.113 119.87 Q 425.531 123.87 424.627 133.549 L 424.627 133.549 L 456.631 133.549 L 456.631 133.549 Q 456.631 123.741 452.889 119.806 L 452.889 119.806 L 452.889 119.806 Q 449.146 115.869 442.307 115.869 Z " fill-rule="evenodd" fill="rgb(254,253,254)"/></g></g></g></svg>