<?xml version="1.0" standalone="no"?><!-- Generator: Gravit.io --><svg xmlns="http://www.w3.org/2000/svg" xmlns:xlink="http://www.w3.org/1999/xlink" style="isolation:isolate" viewBox="0 0 256 256" width="256" height="256"><path d=" M 39.89 58.715 L 39.89 153.92 L 39.89 153.92 Q 39.89 159.695 41.87 162.17 L 41.87 162.17 L 41.87 162.17 Q 43.85 164.645 47.48 164.645 L 47.48 164.645 L 47.48 164.645 Q 49.625 164.645 52.1 164.315 L 52.1 164.315 L 52.1 164.315 Q 54.575 163.985 57.71 162.83 L 57.71 162.83 L 59.195 173.225 L 59.195 173.225 Q 56.555 174.545 51.853 175.37 L 51.853 175.37 L 51.853 175.37 Q 47.15 176.195 43.685 176.195 L 43.685 176.195 L 43.685 176.195 Q 36.26 176.195 31.475 171.988 L 31.475 171.988 L 31.475 171.988 Q 26.69 167.78 26.69 157.715 L 26.69 157.715 L 26.69 58.715 L 39.89 58.715 Z  M 76.19 174.215 L 76.19 91.715 L 89.39 91.715 L 89.39 174.215 L 76.19 174.215 Z  M 73.385 66.635 L 73.385 66.635 L 73.385 66.635 Q 73.385 62.84 75.943 60.117 L 75.943 60.117 L 75.943 60.117 Q 78.5 57.395 82.46 57.395 L 82.46 57.395 L 82.46 57.395 Q 86.42 57.395 89.225 60.117 L 89.225 60.117 L 89.225 60.117 Q 92.03 62.84 92.03 66.635 L 92.03 66.635 L 92.03 66.635 Q 92.03 70.43 89.225 72.905 L 89.225 72.905 L 89.225 72.905 Q 86.42 75.38 82.46 75.38 L 82.46 75.38 L 82.46 75.38 Q 78.5 75.38 75.943 72.905 L 75.943 72.905 L 75.943 72.905 Q 73.385 70.43 73.385 66.635 Z  M 106.715 103.265 L 106.715 91.715 L 119.585 91.715 L 119.585 75.38 L 132.785 71.585 L 132.785 91.715 L 155.225 91.715 L 155.225 103.265 L 132.785 103.265 L 132.785 148.97 L 132.785 148.97 Q 132.785 157.55 134.93 161.098 L 134.93 161.098 L 134.93 161.098 Q 137.075 164.645 142.19 164.645 L 142.19 164.645 L 142.19 164.645 Q 146.48 164.645 149.45 163.738 L 149.45 163.738 L 149.45 163.738 Q 152.42 162.83 156.05 161.345 L 156.05 161.345 L 159.02 171.41 L 159.02 171.41 Q 154.565 173.555 149.285 174.875 L 149.285 174.875 L 149.285 174.875 Q 144.005 176.195 137.9 176.195 L 137.9 176.195 L 137.9 176.195 Q 127.835 176.195 123.71 170.503 L 123.71 170.503 L 123.71 170.503 Q 119.585 164.81 119.585 151.445 L 119.585 151.445 L 119.585 103.265 L 106.715 103.265 Z  M 228.815 158.045 L 233.765 167.615 L 233.765 167.615 Q 228.815 171.575 221.308 173.885 L 221.308 173.885 L 221.308 173.885 Q 213.8 176.195 205.385 176.195 L 205.385 176.195 L 205.385 176.195 Q 195.98 176.195 189.05 173.143 L 189.05 173.143 L 189.05 173.143 Q 182.12 170.09 177.665 164.398 L 177.665 164.398 L 177.665 164.398 Q 173.21 158.705 171.065 150.785 L 171.065 150.785 L 171.065 150.785 Q 168.92 142.865 168.92 132.965 L 168.92 132.965 L 168.92 132.965 Q 168.92 111.845 178.325 100.79 L 178.325 100.79 L 178.325 100.79 Q 187.73 89.735 205.22 89.735 L 205.22 89.735 L 205.22 89.735 Q 210.83 89.735 216.44 90.973 L 216.44 90.973 L 216.44 90.973 Q 222.05 92.21 226.505 95.675 L 226.505 95.675 L 226.505 95.675 Q 230.96 99.14 233.765 105.493 L 233.765 105.493 L 233.765 105.493 Q 236.57 111.845 236.57 122.24 L 236.57 122.24 L 236.57 122.24 Q 236.57 127.685 235.58 134.285 L 235.58 134.285 L 182.615 134.285 L 182.615 134.285 Q 182.615 141.545 184.1 147.155 L 184.1 147.155 L 184.1 147.155 Q 185.585 152.765 188.72 156.643 L 188.72 156.643 L 188.72 156.643 Q 191.855 160.52 196.888 162.583 L 196.888 162.583 L 196.888 162.583 Q 201.92 164.645 209.18 164.645 L 209.18 164.645 L 209.18 164.645 Q 214.79 164.645 220.4 162.665 L 220.4 162.665 L 220.4 162.665 Q 226.01 160.685 228.815 158.045 L 228.815 158.045 Z  M 205.385 101.285 L 205.385 101.285 L 205.385 101.285 Q 195.65 101.285 189.793 106.4 L 189.793 106.4 L 189.793 106.4 Q 183.935 111.515 182.78 123.89 L 182.78 123.89 L 223.7 123.89 L 223.7 123.89 Q 223.7 111.35 218.915 106.318 L 218.915 106.318 L 218.915 106.318 Q 214.13 101.285 205.385 101.285 Z " fill-rule="evenodd" fill="rgb(254,253,254)"/><path d=" M 163.683 244.07 L 154.62 244.08 L 154.602 227.976 L 163.665 227.966 L 163.666 229.347 L 156.052 229.356 L 156.059 235.341 L 162.224 235.334 L 162.226 236.716 L 156.061 236.723 L 156.067 242.697 L 163.681 242.689 L 163.683 244.07 Z  M 173.667 244.059 L 173.206 244.059 L 172.441 242.892 L 172.441 242.892 Q 171.971 243.533 171.263 243.91 L 171.263 243.91 L 171.263 243.91 Q 170.556 244.287 169.714 244.288 L 169.714 244.288 L 169.366 244.288 L 169.366 244.288 Q 168.67 244.289 168.052 244.026 L 168.052 244.026 L 168.052 244.026 Q 167.434 243.763 166.973 243.303 L 166.973 243.303 L 166.973 243.303 Q 166.512 242.843 166.247 242.225 L 166.247 242.225 L 166.247 242.225 Q 165.983 241.608 165.982 240.912 L 165.982 240.912 L 165.976 235.723 L 165.976 235.723 Q 165.975 235.027 166.238 234.409 L 166.238 234.409 L 166.238 234.409 Q 166.502 233.791 166.961 233.33 L 166.961 233.33 L 166.961 233.33 Q 167.421 232.869 168.039 232.605 L 168.039 232.605 L 168.039 232.605 Q 168.656 232.34 169.352 232.339 L 169.352 232.339 L 169.701 232.339 L 169.701 232.339 Q 170.475 232.338 171.138 232.652 L 171.138 232.652 L 171.138 232.652 Q 171.801 232.965 172.274 233.526 L 172.274 233.526 L 172.267 227.956 L 173.649 227.954 L 173.667 244.059 Z  M 172.282 240.983 L 172.276 235.638 L 172.276 235.638 Q 172.276 235.222 172.118 234.857 L 172.118 234.857 L 172.118 234.857 Q 171.96 234.492 171.691 234.223 L 171.691 234.223 L 171.691 234.223 Q 171.421 233.954 171.056 233.797 L 171.056 233.797 L 171.056 233.797 Q 170.69 233.64 170.275 233.641 L 170.275 233.641 L 169.354 233.642 L 169.354 233.642 Q 168.938 233.642 168.574 233.8 L 168.574 233.8 L 168.574 233.8 Q 168.209 233.958 167.94 234.227 L 167.94 234.227 L 167.94 234.227 Q 167.67 234.497 167.513 234.862 L 167.513 234.862 L 167.513 234.862 Q 167.357 235.228 167.357 235.643 L 167.357 235.643 L 167.363 240.989 L 167.363 240.989 Q 167.364 241.404 167.521 241.769 L 167.521 241.769 L 167.521 241.769 Q 167.679 242.134 167.949 242.403 L 167.949 242.403 L 167.949 242.403 Q 168.219 242.672 168.584 242.829 L 168.584 242.829 L 168.584 242.829 Q 168.949 242.986 169.364 242.986 L 169.364 242.986 L 170.285 242.985 L 170.285 242.985 Q 170.701 242.984 171.066 242.826 L 171.066 242.826 L 171.066 242.826 Q 171.43 242.669 171.7 242.399 L 171.7 242.399 L 171.7 242.399 Q 171.969 242.129 172.126 241.764 L 172.126 241.764 L 172.126 241.764 Q 172.283 241.399 172.282 240.983 L 172.282 240.983 Z  M 184.111 244.047 L 183.651 244.048 L 182.886 242.881 L 182.886 242.881 Q 182.415 243.521 181.708 243.898 L 181.708 243.898 L 181.708 243.898 Q 181.001 244.275 180.158 244.276 L 180.158 244.276 L 179.81 244.277 L 179.81 244.277 Q 179.114 244.277 178.496 244.014 L 178.496 244.014 L 178.496 244.014 Q 177.878 243.751 177.417 243.291 L 177.417 243.291 L 177.417 243.291 Q 176.956 242.831 176.691 242.214 L 176.691 242.214 L 176.691 242.214 Q 176.427 241.596 176.426 240.9 L 176.426 240.9 L 176.417 232.556 L 177.798 232.554 L 177.808 240.977 L 177.808 240.977 Q 177.808 241.393 177.966 241.757 L 177.966 241.757 L 177.966 241.757 Q 178.123 242.122 178.393 242.391 L 178.393 242.391 L 178.393 242.391 Q 178.663 242.661 179.028 242.817 L 179.028 242.817 L 179.028 242.817 Q 179.393 242.974 179.809 242.974 L 179.809 242.974 L 180.73 242.973 L 180.73 242.973 Q 181.145 242.972 181.51 242.815 L 181.51 242.815 L 181.51 242.815 Q 181.875 242.657 182.144 242.387 L 182.144 242.387 L 182.144 242.387 Q 182.413 242.117 182.57 241.752 L 182.57 241.752 L 182.57 241.752 Q 182.727 241.387 182.726 240.972 L 182.726 240.972 L 182.717 232.549 L 184.098 232.547 L 184.111 244.047 Z  M 194.552 240.88 L 194.552 240.88 L 194.552 240.88 Q 194.553 241.576 194.29 242.194 L 194.29 242.194 L 194.29 242.194 Q 194.026 242.812 193.566 243.273 L 193.566 243.273 L 193.566 243.273 Q 193.107 243.734 192.489 243.998 L 192.489 243.998 L 192.489 243.998 Q 191.872 244.263 191.175 244.264 L 191.175 244.264 L 190.255 244.265 L 190.255 244.265 Q 189.558 244.266 188.94 244.002 L 188.94 244.002 L 188.94 244.002 Q 188.322 243.739 187.861 243.279 L 187.861 243.279 L 187.861 243.279 Q 187.4 242.819 187.136 242.202 L 187.136 242.202 L 187.136 242.202 Q 186.871 241.585 186.87 240.888 L 186.87 240.888 L 186.865 235.7 L 186.865 235.7 Q 186.864 235.003 187.127 234.385 L 187.127 234.385 L 187.127 234.385 Q 187.39 233.768 187.85 233.307 L 187.85 233.307 L 187.85 233.307 Q 188.31 232.846 188.927 232.581 L 188.927 232.581 L 188.927 232.581 Q 189.545 232.316 190.241 232.316 L 190.241 232.316 L 191.162 232.315 L 191.162 232.315 Q 191.858 232.314 192.476 232.577 L 192.476 232.577 L 192.476 232.577 Q 193.094 232.84 193.555 233.3 L 193.555 233.3 L 193.555 233.3 Q 194.016 233.76 194.281 234.377 L 194.281 234.377 L 194.281 234.377 Q 194.545 234.995 194.546 235.691 L 194.546 235.691 L 194.547 236.152 L 193.166 236.378 L 193.165 235.614 L 193.165 235.614 Q 193.164 235.199 193.007 234.834 L 193.007 234.834 L 193.007 234.834 Q 192.849 234.469 192.579 234.2 L 192.579 234.2 L 192.579 234.2 Q 192.309 233.93 191.944 233.774 L 191.944 233.774 L 191.944 233.774 Q 191.579 233.617 191.163 233.617 L 191.163 233.617 L 190.243 233.618 L 190.243 233.618 Q 189.827 233.619 189.462 233.776 L 189.462 233.776 L 189.462 233.776 Q 189.097 233.934 188.828 234.204 L 188.828 234.204 L 188.828 234.204 Q 188.559 234.474 188.402 234.839 L 188.402 234.839 L 188.402 234.839 Q 188.245 235.204 188.246 235.62 L 188.246 235.62 L 188.252 240.965 L 188.252 240.965 Q 188.252 241.381 188.41 241.746 L 188.41 241.746 L 188.41 241.746 Q 188.568 242.11 188.837 242.38 L 188.837 242.38 L 188.837 242.38 Q 189.107 242.649 189.472 242.806 L 189.472 242.806 L 189.472 242.806 Q 189.838 242.963 190.253 242.962 L 190.253 242.962 L 191.174 242.961 L 191.174 242.961 Q 191.59 242.961 191.954 242.803 L 191.954 242.803 L 191.954 242.803 Q 192.319 242.645 192.588 242.375 L 192.588 242.375 L 192.588 242.375 Q 192.858 242.106 193.014 241.74 L 193.014 241.74 L 193.014 241.74 Q 193.171 241.375 193.171 240.96 L 193.171 240.96 L 193.17 240.196 L 194.552 240.419 L 194.552 240.88 Z  M 205 244.024 L 204.539 244.024 L 203.775 242.879 L 203.775 242.879 Q 203.304 243.498 202.596 243.875 L 202.596 243.875 L 202.596 243.875 Q 201.889 244.252 201.047 244.253 L 201.047 244.253 L 200.699 244.253 L 200.699 244.253 Q 200.003 244.254 199.385 243.991 L 199.385 243.991 L 199.385 243.991 Q 198.767 243.727 198.306 243.267 L 198.306 243.267 L 198.306 243.267 Q 197.845 242.808 197.58 242.19 L 197.58 242.19 L 197.58 242.19 Q 197.316 241.573 197.315 240.876 L 197.315 240.876 L 197.315 240.764 L 197.315 240.764 Q 197.314 240.068 197.577 239.45 L 197.577 239.45 L 197.577 239.45 Q 197.84 238.832 198.3 238.371 L 198.3 238.371 L 198.3 238.371 Q 198.76 237.91 199.377 237.645 L 199.377 237.645 L 199.377 237.645 Q 199.995 237.381 200.691 237.38 L 200.691 237.38 L 203.611 237.377 L 203.609 235.602 L 203.609 235.602 Q 203.609 235.187 203.451 234.822 L 203.451 234.822 L 203.451 234.822 Q 203.293 234.457 203.024 234.188 L 203.024 234.188 L 203.024 234.188 Q 202.754 233.919 202.388 233.762 L 202.388 233.762 L 202.388 233.762 Q 202.023 233.605 201.608 233.606 L 201.608 233.606 L 200.799 233.606 L 200.799 233.606 Q 200.384 233.607 200.019 233.765 L 200.019 233.765 L 200.019 233.765 Q 199.654 233.922 199.385 234.192 L 199.385 234.192 L 199.385 234.192 Q 199.116 234.462 198.959 234.827 L 198.959 234.827 L 198.959 234.827 Q 198.802 235.192 198.802 235.608 L 198.802 235.608 L 198.803 236.023 L 197.421 235.8 L 197.421 235.688 L 197.421 235.688 Q 197.42 234.992 197.684 234.374 L 197.684 234.374 L 197.684 234.374 Q 197.947 233.756 198.407 233.295 L 198.407 233.295 L 198.407 233.295 Q 198.867 232.834 199.484 232.569 L 199.484 232.569 L 199.484 232.569 Q 200.101 232.304 200.798 232.304 L 200.798 232.304 L 201.606 232.303 L 201.606 232.303 Q 202.303 232.302 202.921 232.565 L 202.921 232.565 L 202.921 232.565 Q 203.539 232.828 204 233.288 L 204 233.288 L 204 233.288 Q 204.461 233.748 204.725 234.366 L 204.725 234.366 L 204.725 234.366 Q 204.99 234.983 204.991 235.679 L 204.991 235.679 L 205 244.024 Z  M 203.615 240.948 L 203.612 238.455 L 200.692 238.458 L 200.692 238.458 Q 200.277 238.459 199.912 238.616 L 199.912 238.616 L 199.912 238.616 Q 199.547 238.774 199.278 239.049 L 199.278 239.049 L 199.278 239.049 Q 199.009 239.325 198.852 239.69 L 198.852 239.69 L 198.852 239.69 Q 198.695 240.055 198.696 240.471 L 198.696 240.471 L 198.696 240.954 L 198.696 240.954 Q 198.697 241.369 198.854 241.734 L 198.854 241.734 L 198.854 241.734 Q 199.012 242.099 199.282 242.368 L 199.282 242.368 L 199.282 242.368 Q 199.552 242.637 199.917 242.794 L 199.917 242.794 L 199.917 242.794 Q 200.282 242.951 200.697 242.95 L 200.697 242.95 L 201.618 242.949 L 201.618 242.949 Q 202.034 242.949 202.399 242.791 L 202.399 242.791 L 202.399 242.791 Q 202.763 242.634 203.033 242.364 L 203.033 242.364 L 203.033 242.364 Q 203.302 242.094 203.459 241.729 L 203.459 241.729 L 203.459 241.729 Q 203.616 241.363 203.615 240.948 L 203.615 240.948 Z  M 210.381 245.702 L 211.278 244.241 L 211.143 244.241 L 211.143 244.241 Q 210.447 244.242 209.829 243.979 L 209.829 243.979 L 209.829 243.979 Q 209.211 243.716 208.75 243.256 L 208.75 243.256 L 208.75 243.256 Q 208.289 242.796 208.024 242.178 L 208.024 242.178 L 208.024 242.178 Q 207.76 241.561 207.759 240.865 L 207.759 240.865 L 207.753 235.676 L 207.753 235.676 Q 207.752 234.98 208.016 234.362 L 208.016 234.362 L 208.016 234.362 Q 208.279 233.744 208.739 233.283 L 208.739 233.283 L 208.739 233.283 Q 209.199 232.822 209.816 232.557 L 209.816 232.557 L 209.816 232.557 Q 210.433 232.293 211.13 232.292 L 211.13 232.292 L 212.051 232.291 L 212.051 232.291 Q 212.747 232.29 213.365 232.553 L 213.365 232.553 L 213.365 232.553 Q 213.983 232.817 214.444 233.277 L 214.444 233.277 L 214.444 233.277 Q 214.905 233.737 215.169 234.354 L 215.169 234.354 L 215.169 234.354 Q 215.434 234.971 215.435 235.668 L 215.435 235.668 L 215.435 236.128 L 214.054 236.354 L 214.053 235.591 L 214.053 235.591 Q 214.053 235.175 213.895 234.81 L 213.895 234.81 L 213.895 234.81 Q 213.738 234.445 213.468 234.176 L 213.468 234.176 L 213.468 234.176 Q 213.198 233.907 212.833 233.75 L 212.833 233.75 L 212.833 233.75 Q 212.468 233.593 212.052 233.594 L 212.052 233.594 L 211.131 233.595 L 211.131 233.595 Q 210.716 233.595 210.351 233.753 L 210.351 233.753 L 210.351 233.753 Q 209.986 233.911 209.717 234.18 L 209.717 234.18 L 209.717 234.18 Q 209.448 234.45 209.291 234.815 L 209.291 234.815 L 209.291 234.815 Q 209.134 235.181 209.134 235.596 L 209.134 235.596 L 209.14 240.942 L 209.14 240.942 Q 209.141 241.357 209.299 241.722 L 209.299 241.722 L 209.299 241.722 Q 209.456 242.087 209.726 242.356 L 209.726 242.356 L 209.726 242.356 Q 209.996 242.625 210.361 242.782 L 210.361 242.782 L 210.361 242.782 Q 210.726 242.939 211.142 242.939 L 211.142 242.939 L 212.063 242.937 L 212.063 242.937 Q 212.478 242.937 212.843 242.779 L 212.843 242.779 L 212.843 242.779 Q 213.208 242.622 213.477 242.352 L 213.477 242.352 L 213.477 242.352 Q 213.746 242.082 213.903 241.717 L 213.903 241.717 L 213.903 241.717 Q 214.06 241.352 214.059 240.936 L 214.059 240.936 L 214.059 240.173 L 215.44 240.396 L 215.441 240.856 L 215.441 240.856 Q 215.441 241.53 215.189 242.125 L 215.189 242.125 L 215.189 242.125 Q 214.937 242.721 214.506 243.176 L 214.506 243.176 L 214.506 243.176 Q 214.074 243.632 213.49 243.913 L 213.49 243.913 L 213.49 243.913 Q 212.906 244.194 212.244 244.24 L 212.244 244.24 L 211.717 245.162 L 211.717 245.162 Q 211.818 245.206 211.998 245.324 L 211.998 245.324 L 211.998 245.324 Q 212.178 245.442 212.352 245.644 L 212.352 245.644 L 212.352 245.644 Q 212.526 245.846 212.65 246.126 L 212.65 246.126 L 212.65 246.126 Q 212.774 246.407 212.775 246.777 L 212.775 246.777 L 212.775 246.777 Q 212.775 247.204 212.624 247.553 L 212.624 247.553 L 212.624 247.553 Q 212.473 247.901 212.198 248.143 L 212.198 248.143 L 212.198 248.143 Q 211.923 248.384 211.541 248.514 L 211.541 248.514 L 211.541 248.514 Q 211.159 248.644 210.71 248.644 L 210.71 248.644 L 210.71 248.644 Q 210.205 248.645 209.795 248.449 L 209.795 248.449 L 209.795 248.449 Q 209.385 248.253 209.059 247.927 L 209.059 247.927 L 209.585 247.118 L 209.585 247.118 Q 209.642 247.185 209.743 247.275 L 209.743 247.275 L 209.743 247.275 Q 209.844 247.365 209.996 247.443 L 209.996 247.443 L 209.996 247.443 Q 210.147 247.522 210.333 247.578 L 210.333 247.578 L 210.333 247.578 Q 210.518 247.634 210.732 247.633 L 210.732 247.633 L 210.732 247.633 Q 211.147 247.633 211.433 247.397 L 211.433 247.397 L 211.433 247.397 Q 211.719 247.161 211.719 246.734 L 211.719 246.734 L 211.719 246.734 Q 211.718 246.464 211.612 246.262 L 211.612 246.262 L 211.612 246.262 Q 211.505 246.06 211.319 245.926 L 211.319 245.926 L 211.319 245.926 Q 211.134 245.791 210.892 245.735 L 210.892 245.735 L 210.892 245.735 Q 210.651 245.679 210.381 245.702 L 210.381 245.702 Z  M 225.889 244 L 225.428 244.001 L 224.663 242.856 L 224.663 242.856 Q 224.192 243.474 223.485 243.851 L 223.485 243.851 L 223.485 243.851 Q 222.778 244.228 221.936 244.229 L 221.936 244.229 L 221.588 244.229 L 221.588 244.229 Q 220.891 244.23 220.273 243.967 L 220.273 243.967 L 220.273 243.967 Q 219.655 243.704 219.194 243.244 L 219.194 243.244 L 219.194 243.244 Q 218.733 242.784 218.469 242.167 L 218.469 242.167 L 218.469 242.167 Q 218.204 241.549 218.203 240.853 L 218.203 240.853 L 218.203 240.741 L 218.203 240.741 Q 218.202 240.044 218.466 239.426 L 218.466 239.426 L 218.466 239.426 Q 218.729 238.808 219.189 238.347 L 219.189 238.347 L 219.189 238.347 Q 219.649 237.886 220.266 237.622 L 220.266 237.622 L 220.266 237.622 Q 220.884 237.357 221.58 237.356 L 221.58 237.356 L 224.5 237.353 L 224.498 235.579 L 224.498 235.579 Q 224.497 235.163 224.34 234.798 L 224.34 234.798 L 224.34 234.798 Q 224.182 234.434 223.912 234.164 L 223.912 234.164 L 223.912 234.164 Q 223.642 233.895 223.277 233.738 L 223.277 233.738 L 223.277 233.738 Q 222.912 233.581 222.496 233.582 L 222.496 233.582 L 221.688 233.583 L 221.688 233.583 Q 221.272 233.583 220.908 233.741 L 220.908 233.741 L 220.908 233.741 Q 220.543 233.899 220.273 234.168 L 220.273 234.168 L 220.273 234.168 Q 220.004 234.438 219.847 234.803 L 219.847 234.803 L 219.847 234.803 Q 219.691 235.169 219.691 235.584 L 219.691 235.584 L 219.692 236 L 218.31 235.777 L 218.31 235.664 L 218.31 235.664 Q 218.309 234.968 218.572 234.35 L 218.572 234.35 L 218.572 234.35 Q 218.835 233.732 219.295 233.271 L 219.295 233.271 L 219.295 233.271 Q 219.755 232.81 220.373 232.546 L 220.373 232.546 L 220.373 232.546 Q 220.99 232.281 221.686 232.28 L 221.686 232.28 L 222.495 232.279 L 222.495 232.279 Q 223.191 232.278 223.809 232.542 L 223.809 232.542 L 223.809 232.542 Q 224.427 232.805 224.888 233.265 L 224.888 233.265 L 224.888 233.265 Q 225.349 233.725 225.614 234.342 L 225.614 234.342 L 225.614 234.342 Q 225.878 234.96 225.879 235.656 L 225.879 235.656 L 225.889 244 Z  M 224.504 240.924 L 224.501 238.431 L 221.581 238.435 L 221.581 238.435 Q 221.166 238.435 220.801 238.593 L 220.801 238.593 L 220.801 238.593 Q 220.436 238.75 220.167 239.026 L 220.167 239.026 L 220.167 239.026 Q 219.897 239.301 219.741 239.666 L 219.741 239.666 L 219.741 239.666 Q 219.584 240.032 219.584 240.447 L 219.584 240.447 L 219.585 240.93 L 219.585 240.93 Q 219.585 241.346 219.743 241.71 L 219.743 241.71 L 219.743 241.71 Q 219.901 242.075 220.17 242.344 L 220.17 242.344 L 220.17 242.344 Q 220.44 242.614 220.805 242.77 L 220.805 242.77 L 220.805 242.77 Q 221.171 242.927 221.586 242.927 L 221.586 242.927 L 222.507 242.926 L 222.507 242.926 Q 222.923 242.925 223.287 242.768 L 223.287 242.768 L 223.287 242.768 Q 223.652 242.61 223.921 242.34 L 223.921 242.34 L 223.921 242.34 Q 224.191 242.07 224.347 241.705 L 224.347 241.705 L 224.347 241.705 Q 224.504 241.34 224.504 240.924 L 224.504 240.924 Z  M 223.57 229.19 L 223.57 229.19 L 223.57 229.19 Q 224.041 229.189 224.288 228.829 L 224.288 228.829 L 224.288 228.829 Q 224.535 228.47 224.534 227.897 L 224.534 227.897 L 225.59 227.896 L 225.59 227.896 Q 225.59 228.401 225.462 228.839 L 225.462 228.839 L 225.462 228.839 Q 225.333 229.277 225.081 229.603 L 225.081 229.603 L 225.081 229.603 Q 224.828 229.929 224.441 230.121 L 224.441 230.121 L 224.441 230.121 Q 224.054 230.312 223.548 230.313 L 223.548 230.313 L 223.548 230.313 Q 223.009 230.313 222.599 230.112 L 222.599 230.112 L 222.599 230.112 Q 222.189 229.91 221.835 229.675 L 221.835 229.675 L 221.835 229.675 Q 221.481 229.439 221.161 229.237 L 221.161 229.237 L 221.161 229.237 Q 220.84 229.035 220.492 229.036 L 220.492 229.036 L 220.492 229.036 Q 220.021 229.036 219.785 229.39 L 219.785 229.39 L 219.785 229.39 Q 219.55 229.744 219.55 230.295 L 219.55 230.295 L 218.495 230.296 L 218.495 230.296 Q 218.494 229.802 218.617 229.364 L 218.617 229.364 L 218.617 229.364 Q 218.74 228.926 218.993 228.6 L 218.993 228.6 L 218.993 228.6 Q 219.245 228.274 219.632 228.088 L 219.632 228.088 L 219.632 228.088 Q 220.019 227.902 220.536 227.902 L 220.536 227.902 L 220.536 227.902 Q 221.041 227.901 221.429 228.103 L 221.429 228.103 L 221.429 228.103 Q 221.817 228.304 222.159 228.545 L 222.159 228.545 L 222.159 228.545 Q 222.502 228.787 222.839 228.988 L 222.839 228.988 L 222.839 228.988 Q 223.177 229.19 223.57 229.19 Z  M 236.329 240.832 L 236.329 240.832 L 236.329 240.832 Q 236.33 241.529 236.067 242.147 L 236.067 242.147 L 236.067 242.147 Q 235.804 242.765 235.344 243.226 L 235.344 243.226 L 235.344 243.226 Q 234.884 243.687 234.266 243.951 L 234.266 243.951 L 234.266 243.951 Q 233.649 244.216 232.953 244.217 L 232.953 244.217 L 232.032 244.218 L 232.032 244.218 Q 231.336 244.218 230.718 243.955 L 230.718 243.955 L 230.718 243.955 Q 230.1 243.692 229.639 243.232 L 229.639 243.232 L 229.639 243.232 Q 229.178 242.772 228.913 242.155 L 228.913 242.155 L 228.913 242.155 Q 228.648 241.537 228.648 240.841 L 228.648 240.841 L 228.642 235.653 L 228.642 235.653 Q 228.641 234.956 228.904 234.338 L 228.904 234.338 L 228.904 234.338 Q 229.168 233.72 229.627 233.259 L 229.627 233.259 L 229.627 233.259 Q 230.087 232.799 230.705 232.534 L 230.705 232.534 L 230.705 232.534 Q 231.322 232.269 232.018 232.268 L 232.018 232.268 L 232.939 232.267 L 232.939 232.267 Q 233.636 232.267 234.254 232.53 L 234.254 232.53 L 234.254 232.53 Q 234.872 232.793 235.333 233.253 L 235.333 233.253 L 235.333 233.253 Q 235.793 233.713 236.058 234.33 L 236.058 234.33 L 236.058 234.33 Q 236.323 234.948 236.324 235.644 L 236.324 235.644 L 236.329 240.832 Z  M 234.948 240.913 L 234.942 235.567 L 234.942 235.567 Q 234.942 235.151 234.784 234.787 L 234.784 234.787 L 234.784 234.787 Q 234.626 234.422 234.356 234.153 L 234.356 234.153 L 234.356 234.153 Q 234.087 233.883 233.721 233.727 L 233.721 233.727 L 233.721 233.727 Q 233.356 233.57 232.941 233.57 L 232.941 233.57 L 232.02 233.571 L 232.02 233.571 Q 231.604 233.572 231.24 233.729 L 231.24 233.729 L 231.24 233.729 Q 230.875 233.887 230.606 234.157 L 230.606 234.157 L 230.606 234.157 Q 230.336 234.427 230.179 234.792 L 230.179 234.792 L 230.179 234.792 Q 230.023 235.157 230.023 235.573 L 230.023 235.573 L 230.029 240.918 L 230.029 240.918 Q 230.03 241.334 230.187 241.699 L 230.187 241.699 L 230.187 241.699 Q 230.345 242.063 230.615 242.333 L 230.615 242.333 L 230.615 242.333 Q 230.885 242.602 231.25 242.759 L 231.25 242.759 L 231.25 242.759 Q 231.615 242.915 232.03 242.915 L 232.03 242.915 L 232.951 242.914 L 232.951 242.914 Q 233.367 242.913 233.732 242.756 L 233.732 242.756 L 233.732 242.756 Q 234.096 242.598 234.366 242.328 L 234.366 242.328 L 234.366 242.328 Q 234.635 242.059 234.792 241.693 L 234.792 241.693 L 234.792 241.693 Q 234.949 241.328 234.948 240.913 L 234.948 240.913 Z  M 135.663 244.102 L 134.282 244.103 L 134.272 235.68 L 134.272 235.68 Q 134.272 235.265 134.114 234.9 L 134.114 234.9 L 134.114 234.9 Q 133.956 234.535 133.687 234.266 L 133.687 234.266 L 133.687 234.266 Q 133.417 233.997 133.052 233.84 L 133.052 233.84 L 133.052 233.84 Q 132.686 233.683 132.271 233.684 L 132.271 233.684 L 131.35 233.685 L 131.35 233.685 Q 130.935 233.685 130.57 233.843 L 130.57 233.843 L 130.57 233.843 Q 130.205 234 129.936 234.27 L 129.936 234.27 L 129.936 234.27 Q 129.666 234.54 129.51 234.905 L 129.51 234.905 L 129.51 234.905 Q 129.353 235.27 129.353 235.686 L 129.353 235.686 L 129.363 244.109 L 127.981 244.11 L 127.968 232.61 L 128.429 232.61 L 129.183 233.777 L 129.183 233.777 Q 129.654 233.136 130.366 232.759 L 130.366 232.759 L 130.366 232.759 Q 131.079 232.382 131.921 232.381 L 131.921 232.381 L 132.269 232.381 L 132.269 232.381 Q 132.966 232.38 133.584 232.643 L 133.584 232.643 L 133.584 232.643 Q 134.202 232.907 134.663 233.366 L 134.663 233.366 L 134.663 233.366 Q 135.124 233.826 135.388 234.444 L 135.388 234.444 L 135.388 234.444 Q 135.653 235.061 135.654 235.757 L 135.654 235.757 L 135.663 244.102 Z  M 146.107 244.09 L 145.647 244.09 L 144.882 242.946 L 144.882 242.946 Q 144.411 243.564 143.704 243.941 L 143.704 243.941 L 143.704 243.941 Q 142.997 244.318 142.155 244.319 L 142.155 244.319 L 141.806 244.319 L 141.806 244.319 Q 141.11 244.32 140.492 244.057 L 140.492 244.057 L 140.492 244.057 Q 139.874 243.794 139.413 243.334 L 139.413 243.334 L 139.413 243.334 Q 138.952 242.874 138.688 242.256 L 138.688 242.256 L 138.688 242.256 Q 138.423 241.639 138.422 240.943 L 138.422 240.943 L 138.422 240.831 L 138.422 240.831 Q 138.421 240.134 138.684 239.516 L 138.684 239.516 L 138.684 239.516 Q 138.948 238.898 139.408 238.437 L 139.408 238.437 L 139.408 238.437 Q 139.868 237.976 140.485 237.712 L 140.485 237.712 L 140.485 237.712 Q 141.102 237.447 141.799 237.446 L 141.799 237.446 L 144.719 237.443 L 144.717 235.669 L 144.717 235.669 Q 144.716 235.253 144.558 234.888 L 144.558 234.888 L 144.558 234.888 Q 144.401 234.523 144.131 234.254 L 144.131 234.254 L 144.131 234.254 Q 143.861 233.985 143.496 233.828 L 143.496 233.828 L 143.496 233.828 Q 143.131 233.671 142.715 233.672 L 142.715 233.672 L 141.907 233.673 L 141.907 233.673 Q 141.491 233.673 141.126 233.831 L 141.126 233.831 L 141.126 233.831 Q 140.762 233.989 140.492 234.258 L 140.492 234.258 L 140.492 234.258 Q 140.223 234.528 140.066 234.893 L 140.066 234.893 L 140.066 234.893 Q 139.909 235.259 139.91 235.674 L 139.91 235.674 L 139.91 236.09 L 138.529 235.867 L 138.529 235.754 L 138.529 235.754 Q 138.528 235.058 138.791 234.44 L 138.791 234.44 L 138.791 234.44 Q 139.054 233.822 139.514 233.361 L 139.514 233.361 L 139.514 233.361 Q 139.974 232.9 140.592 232.635 L 140.592 232.635 L 140.592 232.635 Q 141.209 232.371 141.905 232.37 L 141.905 232.37 L 142.714 232.369 L 142.714 232.369 Q 143.41 232.368 144.028 232.632 L 144.028 232.632 L 144.028 232.632 Q 144.646 232.895 145.107 233.355 L 145.107 233.355 L 145.107 233.355 Q 145.568 233.815 145.833 234.432 L 145.833 234.432 L 145.833 234.432 Q 146.097 235.049 146.098 235.746 L 146.098 235.746 L 146.107 244.09 Z  M 144.723 241.014 L 144.72 238.521 L 141.8 238.524 L 141.8 238.524 Q 141.384 238.525 141.019 238.683 L 141.019 238.683 L 141.019 238.683 Q 140.655 238.84 140.385 239.116 L 140.385 239.116 L 140.385 239.116 Q 140.116 239.391 139.959 239.756 L 139.959 239.756 L 139.959 239.756 Q 139.803 240.121 139.803 240.537 L 139.803 240.537 L 139.804 241.02 L 139.804 241.02 Q 139.804 241.435 139.962 241.8 L 139.962 241.8 L 139.962 241.8 Q 140.119 242.165 140.389 242.434 L 140.389 242.434 L 140.389 242.434 Q 140.659 242.703 141.024 242.86 L 141.024 242.86 L 141.024 242.86 Q 141.389 243.017 141.805 243.017 L 141.805 243.017 L 142.726 243.016 L 142.726 243.016 Q 143.141 243.015 143.506 242.858 L 143.506 242.858 L 143.506 242.858 Q 143.871 242.7 144.14 242.43 L 144.14 242.43 L 144.14 242.43 Q 144.409 242.16 144.566 241.795 L 144.566 241.795 L 144.566 241.795 Q 144.723 241.43 144.723 241.014 L 144.723 241.014 Z  M 27.149 229.501 L 23.308 229.505 L 23.325 244.228 L 21.876 244.23 L 21.859 229.507 L 18.019 229.511 L 18.017 228.13 L 27.147 228.119 L 27.149 229.501 Z  M 36.685 241.057 L 36.685 241.057 L 36.685 241.057 Q 36.686 241.754 36.423 242.372 L 36.423 242.372 L 36.423 242.372 Q 36.16 242.99 35.7 243.451 L 35.7 243.451 L 35.7 243.451 Q 35.24 243.912 34.623 244.176 L 34.623 244.176 L 34.623 244.176 Q 34.005 244.441 33.309 244.442 L 33.309 244.442 L 32.388 244.443 L 32.388 244.443 Q 31.692 244.443 31.074 244.18 L 31.074 244.18 L 31.074 244.18 Q 30.456 243.917 29.995 243.457 L 29.995 243.457 L 29.995 243.457 Q 29.534 242.997 29.269 242.38 L 29.269 242.38 L 29.269 242.38 Q 29.005 241.762 29.004 241.066 L 29.004 241.066 L 28.998 235.878 L 28.998 235.878 Q 28.997 235.181 29.26 234.563 L 29.26 234.563 L 29.26 234.563 Q 29.524 233.945 29.984 233.484 L 29.984 233.484 L 29.984 233.484 Q 30.443 233.023 31.061 232.759 L 31.061 232.759 L 31.061 232.759 Q 31.678 232.494 32.375 232.493 L 32.375 232.493 L 33.295 232.492 L 33.295 232.492 Q 33.992 232.492 34.61 232.755 L 34.61 232.755 L 34.61 232.755 Q 35.228 233.018 35.689 233.478 L 35.689 233.478 L 35.689 233.478 Q 36.15 233.938 36.414 234.555 L 36.414 234.555 L 36.414 234.555 Q 36.679 235.173 36.68 235.869 L 36.68 235.869 L 36.683 238.576 L 30.382 238.583 L 30.385 241.143 L 30.385 241.143 Q 30.386 241.559 30.543 241.924 L 30.543 241.924 L 30.543 241.924 Q 30.701 242.288 30.971 242.558 L 30.971 242.558 L 30.971 242.558 Q 31.241 242.827 31.606 242.984 L 31.606 242.984 L 31.606 242.984 Q 31.971 243.14 32.387 243.14 L 32.387 243.14 L 33.307 243.139 L 33.307 243.139 Q 33.723 243.138 34.088 242.981 L 34.088 242.981 L 34.088 242.981 Q 34.453 242.823 34.722 242.553 L 34.722 242.553 L 34.722 242.553 Q 34.991 242.284 35.148 241.918 L 35.148 241.918 L 35.148 241.918 Q 35.305 241.553 35.304 241.138 L 35.304 241.138 L 35.303 240.374 L 36.685 240.597 L 36.685 241.057 Z  M 35.3 237.499 L 35.298 235.792 L 35.298 235.792 Q 35.298 235.376 35.14 235.012 L 35.14 235.012 L 35.14 235.012 Q 34.982 234.647 34.713 234.378 L 34.713 234.378 L 34.713 234.378 Q 34.443 234.108 34.078 233.952 L 34.078 233.952 L 34.078 233.952 Q 33.712 233.795 33.297 233.795 L 33.297 233.795 L 32.376 233.796 L 32.376 233.796 Q 31.96 233.797 31.596 233.954 L 31.596 233.954 L 31.596 233.954 Q 31.231 234.112 30.962 234.382 L 30.962 234.382 L 30.962 234.382 Q 30.692 234.652 30.536 235.017 L 30.536 235.017 L 30.536 235.017 Q 30.379 235.382 30.379 235.797 L 30.379 235.797 L 30.381 237.505 L 35.3 237.499 Z  M 47.13 241.046 L 47.13 241.046 L 47.13 241.046 Q 47.131 241.742 46.867 242.36 L 46.867 242.36 L 46.867 242.36 Q 46.604 242.978 46.144 243.439 L 46.144 243.439 L 46.144 243.439 Q 45.684 243.9 45.067 244.164 L 45.067 244.164 L 45.067 244.164 Q 44.449 244.429 43.753 244.43 L 43.753 244.43 L 42.832 244.431 L 42.832 244.431 Q 42.136 244.432 41.518 244.168 L 41.518 244.168 L 41.518 244.168 Q 40.9 243.905 40.439 243.445 L 40.439 243.445 L 40.439 243.445 Q 39.978 242.985 39.714 242.368 L 39.714 242.368 L 39.714 242.368 Q 39.449 241.751 39.448 241.054 L 39.448 241.054 L 39.442 235.866 L 39.442 235.866 Q 39.441 235.17 39.705 234.552 L 39.705 234.552 L 39.705 234.552 Q 39.968 233.934 40.428 233.473 L 40.428 233.473 L 40.428 233.473 Q 40.888 233.012 41.505 232.747 L 41.505 232.747 L 41.505 232.747 Q 42.123 232.482 42.819 232.482 L 42.819 232.482 L 43.74 232.481 L 43.74 232.481 Q 44.436 232.48 45.054 232.743 L 45.054 232.743 L 45.054 232.743 Q 45.672 233.006 46.133 233.466 L 46.133 233.466 L 46.133 233.466 Q 46.594 233.926 46.859 234.544 L 46.859 234.544 L 46.859 234.544 Q 47.123 235.161 47.124 235.857 L 47.124 235.857 L 47.124 236.318 L 45.743 236.544 L 45.742 235.78 L 45.742 235.78 Q 45.742 235.365 45.584 235 L 45.584 235 L 45.584 235 Q 45.427 234.635 45.157 234.366 L 45.157 234.366 L 45.157 234.366 Q 44.887 234.097 44.522 233.94 L 44.522 233.94 L 44.522 233.94 Q 44.157 233.783 43.741 233.783 L 43.741 233.783 L 42.82 233.784 L 42.82 233.784 Q 42.405 233.785 42.04 233.943 L 42.04 233.943 L 42.04 233.943 Q 41.675 234.1 41.406 234.37 L 41.406 234.37 L 41.406 234.37 Q 41.137 234.64 40.98 235.005 L 40.98 235.005 L 40.98 235.005 Q 40.823 235.37 40.824 235.786 L 40.824 235.786 L 40.83 241.131 L 40.83 241.131 Q 40.83 241.547 40.988 241.912 L 40.988 241.912 L 40.988 241.912 Q 41.145 242.277 41.415 242.546 L 41.415 242.546 L 41.415 242.546 Q 41.685 242.815 42.05 242.972 L 42.05 242.972 L 42.05 242.972 Q 42.415 243.129 42.831 243.128 L 42.831 243.128 L 43.752 243.127 L 43.752 243.127 Q 44.167 243.127 44.532 242.969 L 44.532 242.969 L 44.532 242.969 Q 44.897 242.811 45.166 242.542 L 45.166 242.542 L 45.166 242.542 Q 45.435 242.272 45.592 241.907 L 45.592 241.907 L 45.592 241.907 Q 45.749 241.541 45.749 241.126 L 45.749 241.126 L 45.748 240.362 L 47.129 240.585 L 47.13 241.046 Z  M 57.578 244.19 L 56.196 244.191 L 56.187 235.768 L 56.187 235.768 Q 56.186 235.353 56.029 234.988 L 56.029 234.988 L 56.029 234.988 Q 55.871 234.623 55.601 234.354 L 55.601 234.354 L 55.601 234.354 Q 55.331 234.085 54.966 233.928 L 54.966 233.928 L 54.966 233.928 Q 54.601 233.771 54.186 233.772 L 54.186 233.772 L 53.265 233.773 L 53.265 233.773 Q 52.849 233.773 52.484 233.931 L 52.484 233.931 L 52.484 233.931 Q 52.119 234.088 51.85 234.358 L 51.85 234.358 L 51.85 234.358 Q 51.581 234.628 51.424 234.993 L 51.424 234.993 L 51.424 234.993 Q 51.267 235.358 51.268 235.774 L 51.268 235.774 L 51.277 244.197 L 49.896 244.198 L 49.883 232.698 L 50.344 232.698 L 51.097 233.865 L 51.097 233.865 Q 51.568 233.224 52.281 232.847 L 52.281 232.847 L 52.281 232.847 Q 52.994 232.47 53.836 232.469 L 53.836 232.469 L 54.184 232.469 L 54.184 232.469 Q 54.88 232.468 55.498 232.731 L 55.498 232.731 L 55.498 232.731 Q 56.116 232.995 56.577 233.454 L 56.577 233.454 L 56.577 233.454 Q 57.038 233.914 57.303 234.532 L 57.303 234.532 L 57.303 234.532 Q 57.567 235.149 57.568 235.845 L 57.568 235.845 L 57.578 244.19 Z  M 68.018 241.022 L 68.018 241.022 L 68.018 241.022 Q 68.019 241.718 67.756 242.336 L 67.756 242.336 L 67.756 242.336 Q 67.493 242.954 67.033 243.415 L 67.033 243.415 L 67.033 243.415 Q 66.573 243.876 65.956 244.141 L 65.956 244.141 L 65.956 244.141 Q 65.338 244.406 64.642 244.406 L 64.642 244.406 L 63.721 244.407 L 63.721 244.407 Q 63.025 244.408 62.407 244.145 L 62.407 244.145 L 62.407 244.145 Q 61.789 243.882 61.328 243.422 L 61.328 243.422 L 61.328 243.422 Q 60.867 242.962 60.602 242.344 L 60.602 242.344 L 60.602 242.344 Q 60.338 241.727 60.337 241.031 L 60.337 241.031 L 60.331 235.842 L 60.331 235.842 Q 60.33 235.146 60.593 234.528 L 60.593 234.528 L 60.593 234.528 Q 60.857 233.91 61.317 233.449 L 61.317 233.449 L 61.317 233.449 Q 61.776 232.988 62.394 232.724 L 62.394 232.724 L 62.394 232.724 Q 63.011 232.459 63.707 232.458 L 63.707 232.458 L 64.628 232.457 L 64.628 232.457 Q 65.325 232.456 65.943 232.72 L 65.943 232.72 L 65.943 232.72 Q 66.561 232.983 67.022 233.443 L 67.022 233.443 L 67.022 233.443 Q 67.483 233.903 67.747 234.52 L 67.747 234.52 L 67.747 234.52 Q 68.012 235.137 68.013 235.834 L 68.013 235.834 L 68.018 241.022 Z  M 66.637 241.102 L 66.631 235.757 L 66.631 235.757 Q 66.631 235.341 66.473 234.976 L 66.473 234.976 L 66.473 234.976 Q 66.315 234.611 66.046 234.342 L 66.046 234.342 L 66.046 234.342 Q 65.776 234.073 65.411 233.916 L 65.411 233.916 L 65.411 233.916 Q 65.045 233.759 64.63 233.76 L 64.63 233.76 L 63.709 233.761 L 63.709 233.761 Q 63.293 233.761 62.929 233.919 L 62.929 233.919 L 62.929 233.919 Q 62.564 234.077 62.295 234.346 L 62.295 234.346 L 62.295 234.346 Q 62.025 234.616 61.869 234.981 L 61.869 234.981 L 61.869 234.981 Q 61.712 235.347 61.712 235.762 L 61.712 235.762 L 61.718 241.108 L 61.718 241.108 Q 61.719 241.523 61.876 241.888 L 61.876 241.888 L 61.876 241.888 Q 62.034 242.253 62.304 242.522 L 62.304 242.522 L 62.304 242.522 Q 62.574 242.791 62.939 242.948 L 62.939 242.948 L 62.939 242.948 Q 63.304 243.105 63.719 243.105 L 63.719 243.105 L 64.64 243.104 L 64.64 243.104 Q 65.056 243.103 65.421 242.946 L 65.421 242.946 L 65.421 242.946 Q 65.786 242.788 66.055 242.518 L 66.055 242.518 L 66.055 242.518 Q 66.324 242.248 66.481 241.883 L 66.481 241.883 L 66.481 241.883 Q 66.638 241.518 66.637 241.102 L 66.637 241.102 Z  M 72.626 244.173 L 71.245 244.174 L 71.227 228.07 L 72.608 228.068 L 72.626 244.173 Z  M 83.528 241.005 L 83.528 241.005 L 83.528 241.005 Q 83.528 241.701 83.265 242.319 L 83.265 242.319 L 83.265 242.319 Q 83.002 242.937 82.542 243.398 L 82.542 243.398 L 82.542 243.398 Q 82.082 243.859 81.465 244.123 L 81.465 244.123 L 81.465 244.123 Q 80.847 244.388 80.151 244.389 L 80.151 244.389 L 79.23 244.39 L 79.23 244.39 Q 78.534 244.391 77.916 244.127 L 77.916 244.127 L 77.916 244.127 Q 77.298 243.864 76.837 243.404 L 76.837 243.404 L 76.837 243.404 Q 76.376 242.944 76.111 242.327 L 76.111 242.327 L 76.111 242.327 Q 75.847 241.71 75.846 241.013 L 75.846 241.013 L 75.84 235.825 L 75.84 235.825 Q 75.839 235.129 76.103 234.511 L 76.103 234.511 L 76.103 234.511 Q 76.366 233.893 76.826 233.432 L 76.826 233.432 L 76.826 233.432 Q 77.286 232.971 77.903 232.706 L 77.903 232.706 L 77.903 232.706 Q 78.52 232.441 79.217 232.441 L 79.217 232.441 L 80.138 232.44 L 80.138 232.44 Q 80.834 232.439 81.452 232.702 L 81.452 232.702 L 81.452 232.702 Q 82.07 232.965 82.531 233.425 L 82.531 233.425 L 82.531 233.425 Q 82.992 233.885 83.256 234.503 L 83.256 234.503 L 83.256 234.503 Q 83.521 235.12 83.522 235.816 L 83.522 235.816 L 83.528 241.005 Z  M 82.146 241.085 L 82.14 235.739 L 82.14 235.739 Q 82.14 235.324 81.982 234.959 L 81.982 234.959 L 81.982 234.959 Q 81.825 234.594 81.555 234.325 L 81.555 234.325 L 81.555 234.325 Q 81.285 234.056 80.92 233.899 L 80.92 233.899 L 80.92 233.899 Q 80.555 233.742 80.139 233.742 L 80.139 233.742 L 79.218 233.743 L 79.218 233.743 Q 78.803 233.744 78.438 233.902 L 78.438 233.902 L 78.438 233.902 Q 78.073 234.059 77.804 234.329 L 77.804 234.329 L 77.804 234.329 Q 77.535 234.599 77.378 234.964 L 77.378 234.964 L 77.378 234.964 Q 77.221 235.329 77.221 235.745 L 77.221 235.745 L 77.227 241.09 L 77.227 241.09 Q 77.228 241.506 77.386 241.871 L 77.386 241.871 L 77.386 241.871 Q 77.543 242.236 77.813 242.505 L 77.813 242.505 L 77.813 242.505 Q 78.083 242.774 78.448 242.931 L 78.448 242.931 L 78.448 242.931 Q 78.813 243.088 79.229 243.087 L 79.229 243.087 L 80.15 243.086 L 80.15 243.086 Q 80.565 243.086 80.93 242.928 L 80.93 242.928 L 80.93 242.928 Q 81.295 242.77 81.564 242.501 L 81.564 242.501 L 81.564 242.501 Q 81.833 242.231 81.99 241.866 L 81.99 241.866 L 81.99 241.866 Q 82.147 241.5 82.146 241.085 L 82.146 241.085 Z  M 82.199 228.057 L 79.103 230.824 L 78.069 230.825 L 79.897 228.06 L 82.199 228.057 Z  M 94.09 245.597 L 94.09 245.597 L 94.09 245.597 Q 94.09 246.294 93.827 246.878 L 93.827 246.878 L 93.827 246.878 Q 93.564 247.462 93.104 247.878 L 93.104 247.878 L 93.104 247.878 Q 92.644 248.294 92.026 248.525 L 92.026 248.525 L 92.026 248.525 Q 91.409 248.756 90.713 248.757 L 90.713 248.757 L 90.14 248.757 L 90.14 248.757 Q 89.444 248.758 88.826 248.529 L 88.826 248.529 L 88.826 248.529 Q 88.208 248.299 87.747 247.884 L 87.747 247.884 L 87.747 247.884 Q 87.286 247.469 87.021 246.886 L 87.021 246.886 L 87.021 246.886 Q 86.757 246.302 86.756 245.606 L 86.756 245.606 L 86.756 245.561 L 86.756 245.561 Q 86.755 244.887 87.002 244.325 L 87.002 244.325 L 87.002 244.325 Q 87.248 243.763 87.674 243.347 L 87.674 243.347 L 87.674 243.347 Q 87.135 243.022 86.814 242.467 L 86.814 242.467 L 86.814 242.467 Q 86.494 241.911 86.493 241.237 L 86.493 241.237 L 86.493 241.237 Q 86.492 240.631 86.75 240.108 L 86.75 240.108 L 86.75 240.108 Q 87.008 239.586 87.456 239.26 L 87.456 239.26 L 87.456 239.26 Q 86.917 238.788 86.602 238.126 L 86.602 238.126 L 86.602 238.126 Q 86.286 237.464 86.286 236.678 L 86.286 236.678 L 86.285 235.813 L 86.285 235.813 Q 86.284 235.117 86.547 234.499 L 86.547 234.499 L 86.547 234.499 Q 86.81 233.881 87.27 233.42 L 87.27 233.42 L 87.27 233.42 Q 87.73 232.959 88.347 232.694 L 88.347 232.694 L 88.347 232.694 Q 88.965 232.43 89.661 232.429 L 89.661 232.429 L 90.234 232.428 L 90.234 232.428 Q 91.076 232.427 91.79 232.803 L 91.79 232.803 L 91.79 232.803 Q 92.503 233.178 92.976 233.818 L 92.976 233.818 L 93.727 232.649 L 94.187 232.648 L 94.192 236.669 L 94.192 236.669 Q 94.193 237.365 93.929 237.983 L 93.929 237.983 L 93.929 237.983 Q 93.666 238.601 93.206 239.062 L 93.206 239.062 L 93.206 239.062 Q 92.746 239.523 92.129 239.788 L 92.129 239.788 L 92.129 239.788 Q 91.511 240.052 90.815 240.053 L 90.815 240.053 L 88.816 240.055 L 88.816 240.055 Q 88.58 240.056 88.367 240.151 L 88.367 240.151 L 88.367 240.151 Q 88.154 240.247 87.991 240.404 L 87.991 240.404 L 87.991 240.404 Q 87.828 240.562 87.739 240.781 L 87.739 240.781 L 87.739 240.781 Q 87.649 241 87.65 241.236 L 87.65 241.236 L 87.65 241.236 Q 87.65 241.472 87.74 241.685 L 87.74 241.685 L 87.74 241.685 Q 87.83 241.898 87.993 242.061 L 87.993 242.061 L 87.993 242.061 Q 88.156 242.224 88.369 242.313 L 88.369 242.313 L 88.369 242.313 Q 88.583 242.403 88.819 242.403 L 88.819 242.403 L 90.706 242.4 L 90.706 242.4 Q 91.402 242.4 92.02 242.629 L 92.02 242.629 L 92.02 242.629 Q 92.638 242.859 93.099 243.274 L 93.099 243.274 L 93.099 243.274 Q 93.56 243.689 93.824 244.272 L 93.824 244.272 L 93.824 244.272 Q 94.089 244.856 94.089 245.552 L 94.089 245.552 L 94.09 245.597 Z  M 92.822 236.749 L 92.821 235.727 L 92.821 235.727 Q 92.82 235.312 92.662 234.947 L 92.662 234.947 L 92.662 234.947 Q 92.505 234.582 92.229 234.313 L 92.229 234.313 L 92.229 234.313 Q 91.954 234.044 91.589 233.887 L 91.589 233.887 L 91.589 233.887 Q 91.224 233.73 90.808 233.73 L 90.808 233.73 L 89.663 233.732 L 89.663 233.732 Q 89.247 233.732 88.882 233.89 L 88.882 233.89 L 88.882 233.89 Q 88.517 234.047 88.248 234.317 L 88.248 234.317 L 88.248 234.317 Q 87.979 234.587 87.822 234.952 L 87.822 234.952 L 87.822 234.952 Q 87.665 235.317 87.666 235.733 L 87.666 235.733 L 87.667 236.755 L 87.667 236.755 Q 87.667 237.17 87.825 237.535 L 87.825 237.535 L 87.825 237.535 Q 87.983 237.9 88.253 238.169 L 88.253 238.169 L 88.253 238.169 Q 88.522 238.439 88.888 238.595 L 88.888 238.595 L 88.888 238.595 Q 89.253 238.752 89.668 238.752 L 89.668 238.752 L 90.814 238.75 L 90.814 238.75 Q 91.229 238.75 91.594 238.592 L 91.594 238.592 L 91.594 238.592 Q 91.959 238.435 92.234 238.165 L 92.234 238.165 L 92.234 238.165 Q 92.509 237.895 92.665 237.53 L 92.665 237.53 L 92.665 237.53 Q 92.822 237.165 92.822 236.749 L 92.822 236.749 Z  M 92.776 245.666 L 92.775 245.486 L 92.775 245.486 Q 92.775 245.071 92.617 244.74 L 92.617 244.74 L 92.617 244.74 Q 92.46 244.409 92.19 244.184 L 92.19 244.184 L 92.19 244.184 Q 91.92 243.96 91.555 243.837 L 91.555 243.837 L 91.555 243.837 Q 91.19 243.714 90.774 243.714 L 90.774 243.714 L 90.067 243.715 L 90.067 243.715 Q 89.651 243.716 89.287 243.84 L 89.287 243.84 L 89.287 243.84 Q 88.922 243.963 88.652 244.188 L 88.652 244.188 L 88.652 244.188 Q 88.383 244.413 88.226 244.745 L 88.226 244.745 L 88.226 244.745 Q 88.069 245.076 88.07 245.492 L 88.07 245.492 L 88.07 245.671 L 88.07 245.671 Q 88.071 246.087 88.228 246.412 L 88.228 246.412 L 88.228 246.412 Q 88.386 246.738 88.656 246.968 L 88.656 246.968 L 88.656 246.968 Q 88.925 247.198 89.29 247.321 L 89.29 247.321 L 89.29 247.321 Q 89.656 247.444 90.071 247.444 L 90.071 247.444 L 90.779 247.443 L 90.779 247.443 Q 91.194 247.442 91.559 247.318 L 91.559 247.318 L 91.559 247.318 Q 91.924 247.194 92.193 246.964 L 92.193 246.964 L 92.193 246.964 Q 92.462 246.733 92.619 246.408 L 92.619 246.408 L 92.619 246.408 Q 92.776 246.082 92.776 245.666 L 92.776 245.666 Z  M 98.676 229.881 L 97.07 229.882 L 97.068 228.041 L 98.674 228.039 L 98.676 229.881 Z  M 98.58 244.143 L 97.199 244.145 L 97.186 232.645 L 98.567 232.643 L 98.58 244.143 Z  M 109.481 240.975 L 109.481 240.975 L 109.481 240.975 Q 109.482 241.672 109.219 242.29 L 109.219 242.29 L 109.219 242.29 Q 108.956 242.908 108.496 243.369 L 108.496 243.369 L 108.496 243.369 Q 108.036 243.83 107.418 244.094 L 107.418 244.094 L 107.418 244.094 Q 106.801 244.359 106.105 244.36 L 106.105 244.36 L 105.184 244.361 L 105.184 244.361 Q 104.488 244.361 103.87 244.098 L 103.87 244.098 L 103.87 244.098 Q 103.252 243.835 102.791 243.375 L 102.791 243.375 L 102.791 243.375 Q 102.33 242.915 102.065 242.298 L 102.065 242.298 L 102.065 242.298 Q 101.8 241.68 101.8 240.984 L 101.8 240.984 L 101.794 235.796 L 101.794 235.796 Q 101.793 235.099 102.056 234.481 L 102.056 234.481 L 102.056 234.481 Q 102.319 233.863 102.779 233.402 L 102.779 233.402 L 102.779 233.402 Q 103.239 232.941 103.857 232.677 L 103.857 232.677 L 103.857 232.677 Q 104.474 232.412 105.17 232.411 L 105.17 232.411 L 106.091 232.41 L 106.091 232.41 Q 106.788 232.41 107.406 232.673 L 107.406 232.673 L 107.406 232.673 Q 108.023 232.936 108.484 233.396 L 108.484 233.396 L 108.484 233.396 Q 108.945 233.856 109.21 234.473 L 109.21 234.473 L 109.21 234.473 Q 109.475 235.091 109.475 235.787 L 109.475 235.787 L 109.476 236.247 L 108.095 236.474 L 108.094 235.71 L 108.094 235.71 Q 108.094 235.294 107.936 234.93 L 107.936 234.93 L 107.936 234.93 Q 107.778 234.565 107.508 234.296 L 107.508 234.296 L 107.508 234.296 Q 107.239 234.026 106.873 233.869 L 106.873 233.869 L 106.873 233.869 Q 106.508 233.713 106.093 233.713 L 106.093 233.713 L 105.172 233.714 L 105.172 233.714 Q 104.756 233.715 104.391 233.872 L 104.391 233.872 L 104.391 233.872 Q 104.027 234.03 103.757 234.3 L 103.757 234.3 L 103.757 234.3 Q 103.488 234.57 103.331 234.935 L 103.331 234.935 L 103.331 234.935 Q 103.175 235.3 103.175 235.715 L 103.175 235.715 L 103.181 241.061 L 103.181 241.061 Q 103.182 241.477 103.339 241.841 L 103.339 241.841 L 103.339 241.841 Q 103.497 242.206 103.767 242.476 L 103.767 242.476 L 103.767 242.476 Q 104.036 242.745 104.402 242.902 L 104.402 242.902 L 104.402 242.902 Q 104.767 243.058 105.182 243.058 L 105.182 243.058 L 106.103 243.057 L 106.103 243.057 Q 106.519 243.056 106.884 242.899 L 106.884 242.899 L 106.884 242.899 Q 107.248 242.741 107.518 242.471 L 107.518 242.471 L 107.518 242.471 Q 107.787 242.201 107.944 241.836 L 107.944 241.836 L 107.944 241.836 Q 108.1 241.471 108.1 241.056 L 108.1 241.056 L 108.099 240.292 L 109.481 240.515 L 109.481 240.975 Z  M 119.929 244.119 L 119.469 244.12 L 118.704 242.975 L 118.704 242.975 Q 118.233 243.594 117.526 243.971 L 117.526 243.971 L 117.526 243.971 Q 116.819 244.348 115.976 244.348 L 115.976 244.348 L 115.628 244.349 L 115.628 244.349 Q 114.932 244.35 114.314 244.086 L 114.314 244.086 L 114.314 244.086 Q 113.696 243.823 113.235 243.363 L 113.235 243.363 L 113.235 243.363 Q 112.774 242.903 112.509 242.286 L 112.509 242.286 L 112.509 242.286 Q 112.245 241.669 112.244 240.972 L 112.244 240.972 L 112.244 240.86 L 112.244 240.86 Q 112.243 240.164 112.506 239.546 L 112.506 239.546 L 112.506 239.546 Q 112.77 238.928 113.229 238.467 L 113.229 238.467 L 113.229 238.467 Q 113.689 238.006 114.307 237.741 L 114.307 237.741 L 114.307 237.741 Q 114.924 237.477 115.62 237.476 L 115.62 237.476 L 118.54 237.473 L 118.538 235.698 L 118.538 235.698 Q 118.538 235.283 118.38 234.918 L 118.38 234.918 L 118.38 234.918 Q 118.223 234.553 117.953 234.284 L 117.953 234.284 L 117.953 234.284 Q 117.683 234.015 117.318 233.858 L 117.318 233.858 L 117.318 233.858 Q 116.953 233.701 116.537 233.701 L 116.537 233.701 L 115.728 233.702 L 115.728 233.702 Q 115.313 233.703 114.948 233.86 L 114.948 233.86 L 114.948 233.86 Q 114.583 234.018 114.314 234.288 L 114.314 234.288 L 114.314 234.288 Q 114.045 234.558 113.888 234.923 L 113.888 234.923 L 113.888 234.923 Q 113.731 235.288 113.732 235.704 L 113.732 235.704 L 113.732 236.119 L 112.351 235.896 L 112.35 235.784 L 112.35 235.784 Q 112.35 235.087 112.613 234.469 L 112.613 234.469 L 112.613 234.469 Q 112.876 233.851 113.336 233.391 L 113.336 233.391 L 113.336 233.391 Q 113.796 232.93 114.413 232.665 L 114.413 232.665 L 114.413 232.665 Q 115.031 232.4 115.727 232.4 L 115.727 232.4 L 116.536 232.399 L 116.536 232.399 Q 117.232 232.398 117.85 232.661 L 117.85 232.661 L 117.85 232.661 Q 118.468 232.924 118.929 233.384 L 118.929 233.384 L 118.929 233.384 Q 119.39 233.844 119.654 234.462 L 119.654 234.462 L 119.654 234.462 Q 119.919 235.079 119.92 235.775 L 119.92 235.775 L 119.929 244.119 Z  M 118.544 241.044 L 118.542 238.551 L 115.622 238.554 L 115.622 238.554 Q 115.206 238.554 114.841 238.712 L 114.841 238.712 L 114.841 238.712 Q 114.476 238.87 114.207 239.145 L 114.207 239.145 L 114.207 239.145 Q 113.938 239.421 113.781 239.786 L 113.781 239.786 L 113.781 239.786 Q 113.624 240.151 113.625 240.566 L 113.625 240.566 L 113.625 241.049 L 113.625 241.049 Q 113.626 241.465 113.784 241.83 L 113.784 241.83 L 113.784 241.83 Q 113.941 242.195 114.211 242.464 L 114.211 242.464 L 114.211 242.464 Q 114.481 242.733 114.846 242.89 L 114.846 242.89 L 114.846 242.89 Q 115.211 243.047 115.627 243.046 L 115.627 243.046 L 116.548 243.045 L 116.548 243.045 Q 116.963 243.045 117.328 242.887 L 117.328 242.887 L 117.328 242.887 Q 117.693 242.729 117.962 242.46 L 117.962 242.46 L 117.962 242.46 Q 118.231 242.19 118.388 241.825 L 118.388 241.825 L 118.388 241.825 Q 118.545 241.459 118.544 241.044 L 118.544 241.044 Z  M 157.395 214.766 L 155.946 214.767 L 155.928 198.663 L 157.377 198.661 L 157.395 214.766 Z  M 168.299 214.753 L 166.918 214.755 L 166.909 206.332 L 166.909 206.332 Q 166.908 205.917 166.75 205.552 L 166.75 205.552 L 166.75 205.552 Q 166.593 205.187 166.323 204.918 L 166.323 204.918 L 166.323 204.918 Q 166.053 204.648 165.688 204.492 L 165.688 204.492 L 165.688 204.492 Q 165.323 204.335 164.907 204.335 L 164.907 204.335 L 163.986 204.336 L 163.986 204.336 Q 163.571 204.337 163.206 204.494 L 163.206 204.494 L 163.206 204.494 Q 162.841 204.652 162.572 204.922 L 162.572 204.922 L 162.572 204.922 Q 162.303 205.192 162.146 205.557 L 162.146 205.557 L 162.146 205.557 Q 161.989 205.922 161.99 206.338 L 161.99 206.338 L 161.999 214.76 L 160.618 214.762 L 160.605 203.262 L 161.065 203.262 L 161.819 204.429 L 161.819 204.429 Q 162.29 203.788 163.003 203.411 L 163.003 203.411 L 163.003 203.411 Q 163.715 203.034 164.558 203.033 L 164.558 203.033 L 164.906 203.033 L 164.906 203.033 Q 165.602 203.032 166.22 203.295 L 166.22 203.295 L 166.22 203.295 Q 166.838 203.558 167.299 204.018 L 167.299 204.018 L 167.299 204.018 Q 167.76 204.478 168.025 205.095 L 168.025 205.095 L 168.025 205.095 Q 168.289 205.713 168.29 206.409 L 168.29 206.409 L 168.299 214.753 Z  M 178.74 211.586 L 178.74 211.586 L 178.74 211.586 Q 178.741 212.282 178.478 212.9 L 178.478 212.9 L 178.478 212.9 Q 178.215 213.518 177.755 213.979 L 177.755 213.979 L 177.755 213.979 Q 177.295 214.44 176.677 214.705 L 176.677 214.705 L 176.677 214.705 Q 176.06 214.969 175.364 214.97 L 175.364 214.97 L 174.443 214.971 L 174.443 214.971 Q 173.746 214.972 173.128 214.709 L 173.128 214.709 L 173.128 214.709 Q 172.511 214.445 172.05 213.985 L 172.05 213.985 L 172.05 213.985 Q 171.589 213.526 171.324 212.908 L 171.324 212.908 L 171.324 212.908 Q 171.059 212.291 171.059 211.595 L 171.059 211.595 L 171.053 206.406 L 171.053 206.406 Q 171.052 205.71 171.315 205.092 L 171.315 205.092 L 171.315 205.092 Q 171.578 204.474 172.038 204.013 L 172.038 204.013 L 172.038 204.013 Q 172.498 203.552 173.116 203.287 L 173.116 203.287 L 173.116 203.287 Q 173.733 203.023 174.429 203.022 L 174.429 203.022 L 175.35 203.021 L 175.35 203.021 Q 176.046 203.02 176.664 203.283 L 176.664 203.283 L 176.664 203.283 Q 177.282 203.546 177.743 204.006 L 177.743 204.006 L 177.743 204.006 Q 178.204 204.466 178.469 205.084 L 178.469 205.084 L 178.469 205.084 Q 178.734 205.701 178.734 206.397 L 178.734 206.397 L 178.74 211.586 Z  M 177.359 211.666 L 177.353 206.32 L 177.353 206.32 Q 177.352 205.905 177.195 205.54 L 177.195 205.54 L 177.195 205.54 Q 177.037 205.175 176.767 204.906 L 176.767 204.906 L 176.767 204.906 Q 176.498 204.637 176.132 204.48 L 176.132 204.48 L 176.132 204.48 Q 175.767 204.323 175.352 204.324 L 175.352 204.324 L 174.431 204.325 L 174.431 204.325 Q 174.015 204.325 173.65 204.483 L 173.65 204.483 L 173.65 204.483 Q 173.286 204.64 173.016 204.91 L 173.016 204.91 L 173.016 204.91 Q 172.747 205.18 172.59 205.545 L 172.59 205.545 L 172.59 205.545 Q 172.434 205.91 172.434 206.326 L 172.434 206.326 L 172.44 211.672 L 172.44 211.672 Q 172.44 212.087 172.598 212.452 L 172.598 212.452 L 172.598 212.452 Q 172.756 212.817 173.026 213.086 L 173.026 213.086 L 173.026 213.086 Q 173.295 213.355 173.661 213.512 L 173.661 213.512 L 173.661 213.512 Q 174.026 213.669 174.441 213.668 L 174.441 213.668 L 175.362 213.667 L 175.362 213.667 Q 175.778 213.667 176.143 213.509 L 176.143 213.509 L 176.143 213.509 Q 176.507 213.352 176.777 213.082 L 176.777 213.082 L 176.777 213.082 Q 177.046 212.812 177.203 212.447 L 177.203 212.447 L 177.203 212.447 Q 177.359 212.082 177.359 211.666 L 177.359 211.666 Z  M 189.175 203.23 L 185.111 214.734 L 184.426 214.735 L 180.337 203.24 L 181.718 203.238 L 184.726 211.95 L 184.772 212.545 L 184.816 211.95 L 187.794 203.231 L 189.175 203.23 Z  M 198.476 214.719 L 198.015 214.72 L 197.25 213.575 L 197.25 213.575 Q 196.779 214.193 196.072 214.57 L 196.072 214.57 L 196.072 214.57 Q 195.365 214.947 194.523 214.948 L 194.523 214.948 L 194.175 214.949 L 194.175 214.949 Q 193.478 214.95 192.86 214.686 L 192.86 214.686 L 192.86 214.686 Q 192.242 214.423 191.781 213.963 L 191.781 213.963 L 191.781 213.963 Q 191.32 213.503 191.056 212.886 L 191.056 212.886 L 191.056 212.886 Q 190.791 212.269 190.79 211.572 L 190.79 211.572 L 190.79 211.46 L 190.79 211.46 Q 190.79 210.764 191.053 210.146 L 191.053 210.146 L 191.053 210.146 Q 191.316 209.528 191.776 209.067 L 191.776 209.067 L 191.776 209.067 Q 192.236 208.606 192.853 208.341 L 192.853 208.341 L 192.853 208.341 Q 193.471 208.077 194.167 208.076 L 194.167 208.076 L 197.087 208.072 L 197.085 206.298 L 197.085 206.298 Q 197.084 205.883 196.927 205.518 L 196.927 205.518 L 196.927 205.518 Q 196.769 205.153 196.499 204.884 L 196.499 204.884 L 196.499 204.884 Q 196.229 204.614 195.864 204.458 L 195.864 204.458 L 195.864 204.458 Q 195.499 204.301 195.084 204.301 L 195.084 204.301 L 194.275 204.302 L 194.275 204.302 Q 193.859 204.303 193.495 204.46 L 193.495 204.46 L 193.495 204.46 Q 193.13 204.618 192.861 204.888 L 192.861 204.888 L 192.861 204.888 Q 192.591 205.158 192.435 205.523 L 192.435 205.523 L 192.435 205.523 Q 192.278 205.888 192.278 206.303 L 192.278 206.303 L 192.279 206.719 L 190.897 206.496 L 190.897 206.384 L 190.897 206.384 Q 190.896 205.687 191.159 205.069 L 191.159 205.069 L 191.159 205.069 Q 191.423 204.451 191.883 203.99 L 191.883 203.99 L 191.883 203.99 Q 192.342 203.529 192.96 203.265 L 192.96 203.265 L 192.96 203.265 Q 193.577 203 194.274 202.999 L 194.274 202.999 L 195.082 202.999 L 195.082 202.999 Q 195.778 202.998 196.396 203.261 L 196.396 203.261 L 196.396 203.261 Q 197.014 203.524 197.475 203.984 L 197.475 203.984 L 197.475 203.984 Q 197.936 204.444 198.201 205.061 L 198.201 205.061 L 198.201 205.061 Q 198.465 205.679 198.466 206.375 L 198.466 206.375 L 198.476 214.719 Z  M 197.091 211.644 L 197.088 209.151 L 194.168 209.154 L 194.168 209.154 Q 193.753 209.154 193.388 209.312 L 193.388 209.312 L 193.388 209.312 Q 193.023 209.47 192.754 209.745 L 192.754 209.745 L 192.754 209.745 Q 192.485 210.021 192.328 210.386 L 192.328 210.386 L 192.328 210.386 Q 192.171 210.751 192.171 211.166 L 192.171 211.166 L 192.172 211.649 L 192.172 211.649 Q 192.172 212.065 192.33 212.43 L 192.33 212.43 L 192.33 212.43 Q 192.488 212.794 192.758 213.064 L 192.758 213.064 L 192.758 213.064 Q 193.027 213.333 193.393 213.49 L 193.393 213.49 L 193.393 213.49 Q 193.758 213.647 194.173 213.646 L 194.173 213.646 L 195.094 213.645 L 195.094 213.645 Q 195.51 213.645 195.874 213.487 L 195.874 213.487 L 195.874 213.487 Q 196.239 213.329 196.508 213.059 L 196.508 213.059 L 196.508 213.059 Q 196.778 212.79 196.935 212.424 L 196.935 212.424 L 196.935 212.424 Q 197.091 212.059 197.091 211.644 L 197.091 211.644 Z  M 203.857 216.398 L 204.754 214.937 L 204.619 214.937 L 204.619 214.937 Q 203.923 214.938 203.305 214.675 L 203.305 214.675 L 203.305 214.675 Q 202.687 214.411 202.226 213.951 L 202.226 213.951 L 202.226 213.951 Q 201.765 213.492 201.5 212.874 L 201.5 212.874 L 201.5 212.874 Q 201.236 212.257 201.235 211.56 L 201.235 211.56 L 201.229 206.372 L 201.229 206.372 Q 201.228 205.676 201.491 205.058 L 201.491 205.058 L 201.491 205.058 Q 201.755 204.44 202.215 203.979 L 202.215 203.979 L 202.215 203.979 Q 202.674 203.518 203.292 203.253 L 203.292 203.253 L 203.292 203.253 Q 203.909 202.989 204.606 202.988 L 204.606 202.988 L 205.526 202.987 L 205.526 202.987 Q 206.223 202.986 206.841 203.249 L 206.841 203.249 L 206.841 203.249 Q 207.459 203.512 207.92 203.972 L 207.92 203.972 L 207.92 203.972 Q 208.381 204.432 208.645 205.05 L 208.645 205.05 L 208.645 205.05 Q 208.91 205.667 208.911 206.363 L 208.911 206.363 L 208.911 206.824 L 207.53 207.05 L 207.529 206.286 L 207.529 206.286 Q 207.529 205.871 207.371 205.506 L 207.371 205.506 L 207.371 205.506 Q 207.213 205.141 206.944 204.872 L 206.944 204.872 L 206.944 204.872 Q 206.674 204.603 206.309 204.446 L 206.309 204.446 L 206.309 204.446 Q 205.943 204.289 205.528 204.29 L 205.528 204.29 L 204.607 204.291 L 204.607 204.291 Q 204.191 204.291 203.827 204.449 L 203.827 204.449 L 203.827 204.449 Q 203.462 204.606 203.193 204.876 L 203.193 204.876 L 203.193 204.876 Q 202.923 205.146 202.767 205.511 L 202.767 205.511 L 202.767 205.511 Q 202.61 205.876 202.61 206.292 L 202.61 206.292 L 202.616 211.638 L 202.616 211.638 Q 202.617 212.053 202.774 212.418 L 202.774 212.418 L 202.774 212.418 Q 202.932 212.783 203.202 213.052 L 203.202 213.052 L 203.202 213.052 Q 203.472 213.321 203.837 213.478 L 203.837 213.478 L 203.837 213.478 Q 204.202 213.635 204.618 213.634 L 204.618 213.634 L 205.538 213.633 L 205.538 213.633 Q 205.954 213.633 206.319 213.475 L 206.319 213.475 L 206.319 213.475 Q 206.684 213.318 206.953 213.048 L 206.953 213.048 L 206.953 213.048 Q 207.222 212.778 207.379 212.413 L 207.379 212.413 L 207.379 212.413 Q 207.536 212.048 207.535 211.632 L 207.535 211.632 L 207.534 210.868 L 208.916 211.091 L 208.916 211.552 L 208.916 211.552 Q 208.917 212.226 208.665 212.821 L 208.665 212.821 L 208.665 212.821 Q 208.413 213.417 207.981 213.872 L 207.981 213.872 L 207.981 213.872 Q 207.549 214.327 206.966 214.609 L 206.966 214.609 L 206.966 214.609 Q 206.382 214.89 205.72 214.936 L 205.72 214.936 L 205.193 215.857 L 205.193 215.857 Q 205.294 215.902 205.474 216.02 L 205.474 216.02 L 205.474 216.02 Q 205.654 216.138 205.828 216.34 L 205.828 216.34 L 205.828 216.34 Q 206.002 216.541 206.126 216.822 L 206.126 216.822 L 206.126 216.822 Q 206.25 217.103 206.25 217.473 L 206.25 217.473 L 206.25 217.473 Q 206.251 217.9 206.1 218.248 L 206.1 218.248 L 206.1 218.248 Q 205.948 218.597 205.673 218.838 L 205.673 218.838 L 205.673 218.838 Q 205.399 219.08 205.017 219.21 L 205.017 219.21 L 205.017 219.21 Q 204.635 219.339 204.186 219.34 L 204.186 219.34 L 204.186 219.34 Q 203.681 219.34 203.27 219.144 L 203.27 219.144 L 203.27 219.144 Q 202.86 218.948 202.534 218.623 L 202.534 218.623 L 203.061 217.814 L 203.061 217.814 Q 203.117 217.881 203.219 217.971 L 203.219 217.971 L 203.219 217.971 Q 203.32 218.061 203.471 218.139 L 203.471 218.139 L 203.471 218.139 Q 203.623 218.217 203.809 218.273 L 203.809 218.273 L 203.809 218.273 Q 203.994 218.329 204.207 218.329 L 204.207 218.329 L 204.207 218.329 Q 204.623 218.329 204.909 218.092 L 204.909 218.092 L 204.909 218.092 Q 205.195 217.856 205.195 217.43 L 205.195 217.43 L 205.195 217.43 Q 205.194 217.16 205.087 216.958 L 205.087 216.958 L 205.087 216.958 Q 204.98 216.756 204.795 216.621 L 204.795 216.621 L 204.795 216.621 Q 204.61 216.487 204.368 216.431 L 204.368 216.431 L 204.368 216.431 Q 204.126 216.375 203.857 216.398 L 203.857 216.398 Z  M 219.364 214.696 L 218.904 214.696 L 218.139 213.552 L 218.139 213.552 Q 217.668 214.17 216.961 214.547 L 216.961 214.547 L 216.961 214.547 Q 216.254 214.924 215.411 214.925 L 215.411 214.925 L 215.063 214.925 L 215.063 214.925 Q 214.367 214.926 213.749 214.663 L 213.749 214.663 L 213.749 214.663 Q 213.131 214.4 212.67 213.94 L 212.67 213.94 L 212.67 213.94 Q 212.209 213.48 211.945 212.862 L 211.945 212.862 L 211.945 212.862 Q 211.68 212.245 211.679 211.549 L 211.679 211.549 L 211.679 211.436 L 211.679 211.436 Q 211.678 210.74 211.941 210.122 L 211.941 210.122 L 211.941 210.122 Q 212.205 209.504 212.665 209.043 L 212.665 209.043 L 212.665 209.043 Q 213.125 208.582 213.742 208.318 L 213.742 208.318 L 213.742 208.318 Q 214.359 208.053 215.056 208.052 L 215.056 208.052 L 217.976 208.049 L 217.974 206.275 L 217.974 206.275 Q 217.973 205.859 217.815 205.494 L 217.815 205.494 L 217.815 205.494 Q 217.658 205.129 217.388 204.86 L 217.388 204.86 L 217.388 204.86 Q 217.118 204.591 216.753 204.434 L 216.753 204.434 L 216.753 204.434 Q 216.388 204.277 215.972 204.278 L 215.972 204.278 L 215.164 204.279 L 215.164 204.279 Q 214.748 204.279 214.383 204.437 L 214.383 204.437 L 214.383 204.437 Q 214.018 204.594 213.749 204.864 L 213.749 204.864 L 213.749 204.864 Q 213.48 205.134 213.323 205.499 L 213.323 205.499 L 213.323 205.499 Q 213.166 205.864 213.167 206.28 L 213.167 206.28 L 213.167 206.695 L 211.786 206.472 L 211.786 206.36 L 211.786 206.36 Q 211.785 205.664 212.048 205.046 L 212.048 205.046 L 212.048 205.046 Q 212.311 204.428 212.771 203.967 L 212.771 203.967 L 212.771 203.967 Q 213.231 203.506 213.848 203.241 L 213.848 203.241 L 213.848 203.241 Q 214.466 202.977 215.162 202.976 L 215.162 202.976 L 215.971 202.975 L 215.971 202.975 Q 216.667 202.974 217.285 203.237 L 217.285 203.237 L 217.285 203.237 Q 217.903 203.501 218.364 203.961 L 218.364 203.961 L 218.364 203.961 Q 218.825 204.421 219.09 205.038 L 219.09 205.038 L 219.09 205.038 Q 219.354 205.655 219.355 206.352 L 219.355 206.352 L 219.364 214.696 Z  M 217.98 211.62 L 217.977 209.127 L 215.057 209.13 L 215.057 209.13 Q 214.641 209.131 214.276 209.288 L 214.276 209.288 L 214.276 209.288 Q 213.912 209.446 213.642 209.722 L 213.642 209.722 L 213.642 209.722 Q 213.373 209.997 213.216 210.362 L 213.216 210.362 L 213.216 210.362 Q 213.06 210.727 213.06 211.143 L 213.06 211.143 L 213.061 211.626 L 213.061 211.626 Q 213.061 212.041 213.219 212.406 L 213.219 212.406 L 213.219 212.406 Q 213.376 212.771 213.646 213.04 L 213.646 213.04 L 213.646 213.04 Q 213.916 213.309 214.281 213.466 L 214.281 213.466 L 214.281 213.466 Q 214.646 213.623 215.062 213.623 L 215.062 213.623 L 215.983 213.622 L 215.983 213.622 Q 216.398 213.621 216.763 213.463 L 216.763 213.463 L 216.763 213.463 Q 217.128 213.306 217.397 213.036 L 217.397 213.036 L 217.397 213.036 Q 217.666 212.766 217.823 212.401 L 217.823 212.401 L 217.823 212.401 Q 217.98 212.036 217.98 211.62 L 217.98 211.62 Z  M 217.045 199.885 L 217.045 199.885 L 217.045 199.885 Q 217.517 199.885 217.764 199.525 L 217.764 199.525 L 217.764 199.525 Q 218.01 199.166 218.01 198.593 L 218.01 198.593 L 219.065 198.592 L 219.065 198.592 Q 219.066 199.097 218.937 199.535 L 218.937 199.535 L 218.937 199.535 Q 218.809 199.973 218.556 200.299 L 218.556 200.299 L 218.556 200.299 Q 218.304 200.625 217.917 200.817 L 217.917 200.817 L 217.917 200.817 Q 217.53 201.008 217.024 201.009 L 217.024 201.009 L 217.024 201.009 Q 216.485 201.009 216.075 200.807 L 216.075 200.807 L 216.075 200.807 Q 215.665 200.606 215.311 200.37 L 215.311 200.37 L 215.311 200.37 Q 214.957 200.135 214.637 199.933 L 214.637 199.933 L 214.637 199.933 Q 214.316 199.731 213.968 199.732 L 213.968 199.732 L 213.968 199.732 Q 213.496 199.732 213.261 200.086 L 213.261 200.086 L 213.261 200.086 Q 213.026 200.44 213.026 200.991 L 213.026 200.991 L 211.97 200.992 L 211.97 200.992 Q 211.97 200.498 212.093 200.059 L 212.093 200.059 L 212.093 200.059 Q 212.216 199.621 212.468 199.295 L 212.468 199.295 L 212.468 199.295 Q 212.721 198.969 213.108 198.784 L 213.108 198.784 L 213.108 198.784 Q 213.495 198.598 214.012 198.597 L 214.012 198.597 L 214.012 198.597 Q 214.517 198.597 214.905 198.799 L 214.905 198.799 L 214.905 198.799 Q 215.292 199 215.635 199.241 L 215.635 199.241 L 215.635 199.241 Q 215.978 199.482 216.315 199.684 L 216.315 199.684 L 216.315 199.684 Q 216.652 199.886 217.045 199.885 Z  M 229.805 211.528 L 229.805 211.528 L 229.805 211.528 Q 229.806 212.225 229.543 212.843 L 229.543 212.843 L 229.543 212.843 Q 229.279 213.461 228.82 213.922 L 228.82 213.922 L 228.82 213.922 Q 228.36 214.382 227.742 214.647 L 227.742 214.647 L 227.742 214.647 Q 227.125 214.912 226.429 214.912 L 226.429 214.912 L 225.508 214.914 L 225.508 214.914 Q 224.811 214.914 224.193 214.651 L 224.193 214.651 L 224.193 214.651 Q 223.575 214.388 223.114 213.928 L 223.114 213.928 L 223.114 213.928 Q 222.653 213.468 222.389 212.851 L 222.389 212.851 L 222.389 212.851 Q 222.124 212.233 222.123 211.537 L 222.123 211.537 L 222.118 206.348 L 222.118 206.348 Q 222.117 205.652 222.38 205.034 L 222.38 205.034 L 222.38 205.034 Q 222.643 204.416 223.103 203.955 L 223.103 203.955 L 223.103 203.955 Q 223.563 203.494 224.181 203.23 L 224.181 203.23 L 224.181 203.23 Q 224.798 202.965 225.494 202.964 L 225.494 202.964 L 226.415 202.963 L 226.415 202.963 Q 227.111 202.962 227.729 203.226 L 227.729 203.226 L 227.729 203.226 Q 228.347 203.489 228.808 203.949 L 228.808 203.949 L 228.808 203.949 Q 229.269 204.409 229.534 205.026 L 229.534 205.026 L 229.534 205.026 Q 229.798 205.644 229.799 206.34 L 229.799 206.34 L 229.805 211.528 Z  M 228.424 211.608 L 228.418 206.263 L 228.418 206.263 Q 228.417 205.847 228.26 205.482 L 228.26 205.482 L 228.26 205.482 Q 228.102 205.118 227.832 204.848 L 227.832 204.848 L 227.832 204.848 Q 227.562 204.579 227.197 204.422 L 227.197 204.422 L 227.197 204.422 Q 226.832 204.266 226.417 204.266 L 226.417 204.266 L 225.496 204.267 L 225.496 204.267 Q 225.08 204.268 224.715 204.425 L 224.715 204.425 L 224.715 204.425 Q 224.351 204.583 224.081 204.853 L 224.081 204.853 L 224.081 204.853 Q 223.812 205.122 223.655 205.488 L 223.655 205.488 L 223.655 205.488 Q 223.498 205.853 223.499 206.268 L 223.499 206.268 L 223.505 211.614 L 223.505 211.614 Q 223.505 212.03 223.663 212.394 L 223.663 212.394 L 223.663 212.394 Q 223.821 212.759 224.09 213.028 L 224.09 213.028 L 224.09 213.028 Q 224.36 213.298 224.725 213.454 L 224.725 213.454 L 224.725 213.454 Q 225.091 213.611 225.506 213.611 L 225.506 213.611 L 226.427 213.61 L 226.427 213.61 Q 226.843 213.609 227.207 213.452 L 227.207 213.452 L 227.207 213.452 Q 227.572 213.294 227.841 213.024 L 227.841 213.024 L 227.841 213.024 Q 228.111 212.754 228.268 212.389 L 228.268 212.389 L 228.268 212.389 Q 228.424 212.024 228.424 211.608 L 228.424 211.608 Z  M 136.989 214.789 L 136.528 214.789 L 135.763 213.622 L 135.763 213.622 Q 135.293 214.263 134.585 214.64 L 134.585 214.64 L 134.585 214.64 Q 133.878 215.017 133.036 215.018 L 133.036 215.018 L 132.688 215.018 L 132.688 215.018 Q 131.992 215.019 131.374 214.756 L 131.374 214.756 L 131.374 214.756 Q 130.756 214.492 130.295 214.033 L 130.295 214.033 L 130.295 214.033 Q 129.834 213.573 129.569 212.955 L 129.569 212.955 L 129.569 212.955 Q 129.304 212.338 129.304 211.642 L 129.304 211.642 L 129.298 206.453 L 129.298 206.453 Q 129.297 205.757 129.56 205.139 L 129.56 205.139 L 129.56 205.139 Q 129.824 204.521 130.283 204.06 L 130.283 204.06 L 130.283 204.06 Q 130.743 203.599 131.361 203.334 L 131.361 203.334 L 131.361 203.334 Q 131.978 203.07 132.674 203.069 L 132.674 203.069 L 133.023 203.069 L 133.023 203.069 Q 133.797 203.068 134.46 203.381 L 134.46 203.381 L 134.46 203.381 Q 135.123 203.695 135.596 204.256 L 135.596 204.256 L 135.589 198.686 L 136.971 198.684 L 136.989 214.789 Z  M 135.604 211.713 L 135.598 206.367 L 135.598 206.367 Q 135.598 205.952 135.44 205.587 L 135.44 205.587 L 135.44 205.587 Q 135.282 205.222 135.012 204.953 L 135.012 204.953 L 135.012 204.953 Q 134.743 204.684 134.377 204.527 L 134.377 204.527 L 134.377 204.527 Q 134.012 204.37 133.597 204.371 L 133.597 204.371 L 132.676 204.372 L 132.676 204.372 Q 132.26 204.372 131.896 204.53 L 131.896 204.53 L 131.896 204.53 Q 131.531 204.687 131.262 204.957 L 131.262 204.957 L 131.262 204.957 Q 130.992 205.227 130.835 205.592 L 130.835 205.592 L 130.835 205.592 Q 130.679 205.957 130.679 206.373 L 130.679 206.373 L 130.685 211.719 L 130.685 211.719 Q 130.686 212.134 130.843 212.499 L 130.843 212.499 L 130.843 212.499 Q 131.001 212.864 131.271 213.133 L 131.271 213.133 L 131.271 213.133 Q 131.541 213.402 131.906 213.559 L 131.906 213.559 L 131.906 213.559 Q 132.271 213.716 132.686 213.715 L 132.686 213.715 L 133.607 213.714 L 133.607 213.714 Q 134.023 213.714 134.388 213.556 L 134.388 213.556 L 134.388 213.556 Q 134.752 213.399 135.022 213.129 L 135.022 213.129 L 135.022 213.129 Q 135.291 212.859 135.448 212.494 L 135.448 212.494 L 135.448 212.494 Q 135.605 212.129 135.604 211.713 L 135.604 211.713 Z  M 147.43 211.621 L 147.43 211.621 L 147.43 211.621 Q 147.43 212.317 147.167 212.935 L 147.167 212.935 L 147.167 212.935 Q 146.904 213.553 146.444 214.014 L 146.444 214.014 L 146.444 214.014 Q 145.984 214.475 145.367 214.74 L 145.367 214.74 L 145.367 214.74 Q 144.749 215.005 144.053 215.005 L 144.053 215.005 L 143.132 215.006 L 143.132 215.006 Q 142.436 215.007 141.818 214.744 L 141.818 214.744 L 141.818 214.744 Q 141.2 214.481 140.739 214.021 L 140.739 214.021 L 140.739 214.021 Q 140.278 213.561 140.013 212.943 L 140.013 212.943 L 140.013 212.943 Q 139.749 212.326 139.748 211.63 L 139.748 211.63 L 139.742 206.441 L 139.742 206.441 Q 139.741 205.745 140.005 205.127 L 140.005 205.127 L 140.005 205.127 Q 140.268 204.509 140.728 204.048 L 140.728 204.048 L 140.728 204.048 Q 141.188 203.587 141.805 203.323 L 141.805 203.323 L 141.805 203.323 Q 142.422 203.058 143.119 203.057 L 143.119 203.057 L 144.04 203.056 L 144.04 203.056 Q 144.736 203.055 145.354 203.319 L 145.354 203.319 L 145.354 203.319 Q 145.972 203.582 146.433 204.042 L 146.433 204.042 L 146.433 204.042 Q 146.894 204.502 147.158 205.119 L 147.158 205.119 L 147.158 205.119 Q 147.423 205.736 147.424 206.433 L 147.424 206.433 L 147.427 209.139 L 141.127 209.146 L 141.129 211.707 L 141.129 211.707 Q 141.13 212.122 141.288 212.487 L 141.288 212.487 L 141.288 212.487 Q 141.445 212.852 141.715 213.121 L 141.715 213.121 L 141.715 213.121 Q 141.985 213.39 142.35 213.547 L 142.35 213.547 L 142.35 213.547 Q 142.715 213.704 143.131 213.704 L 143.131 213.704 L 144.052 213.703 L 144.052 213.703 Q 144.467 213.702 144.832 213.544 L 144.832 213.544 L 144.832 213.544 Q 145.197 213.387 145.466 213.117 L 145.466 213.117 L 145.466 213.117 Q 145.735 212.847 145.892 212.482 L 145.892 212.482 L 145.892 212.482 Q 146.049 212.117 146.048 211.701 L 146.048 211.701 L 146.048 210.938 L 147.429 211.161 L 147.43 211.621 Z  M 146.044 208.063 L 146.042 206.356 L 146.042 206.356 Q 146.042 205.94 145.884 205.575 L 145.884 205.575 L 145.884 205.575 Q 145.727 205.21 145.457 204.941 L 145.457 204.941 L 145.457 204.941 Q 145.187 204.672 144.822 204.515 L 144.822 204.515 L 144.822 204.515 Q 144.457 204.358 144.041 204.359 L 144.041 204.359 L 143.12 204.36 L 143.12 204.36 Q 142.705 204.36 142.34 204.518 L 142.34 204.518 L 142.34 204.518 Q 141.975 204.676 141.706 204.945 L 141.706 204.945 L 141.706 204.945 Q 141.437 205.215 141.28 205.58 L 141.28 205.58 L 141.28 205.58 Q 141.123 205.946 141.123 206.361 L 141.123 206.361 L 141.125 208.068 L 146.044 208.063 Z  M 33.253 214.906 L 25.639 214.914 L 25.621 198.81 L 27.069 198.808 L 27.086 213.531 L 33.252 213.524 L 33.253 214.906 Z  M 42.777 214.895 L 42.316 214.895 L 41.551 213.751 L 41.551 213.751 Q 41.08 214.369 40.373 214.746 L 40.373 214.746 L 40.373 214.746 Q 39.666 215.123 38.824 215.124 L 38.824 215.124 L 38.476 215.124 L 38.476 215.124 Q 37.779 215.125 37.161 214.862 L 37.161 214.862 L 37.161 214.862 Q 36.543 214.599 36.082 214.139 L 36.082 214.139 L 36.082 214.139 Q 35.621 213.679 35.357 213.061 L 35.357 213.061 L 35.357 213.061 Q 35.092 212.444 35.091 211.748 L 35.091 211.748 L 35.091 211.635 L 35.091 211.635 Q 35.09 210.939 35.354 210.321 L 35.354 210.321 L 35.354 210.321 Q 35.617 209.703 36.077 209.242 L 36.077 209.242 L 36.077 209.242 Q 36.537 208.781 37.154 208.517 L 37.154 208.517 L 37.154 208.517 Q 37.772 208.252 38.468 208.251 L 38.468 208.251 L 41.388 208.248 L 41.386 206.474 L 41.386 206.474 Q 41.385 206.058 41.228 205.693 L 41.228 205.693 L 41.228 205.693 Q 41.07 205.328 40.8 205.059 L 40.8 205.059 L 40.8 205.059 Q 40.53 204.79 40.165 204.633 L 40.165 204.633 L 40.165 204.633 Q 39.8 204.476 39.384 204.477 L 39.384 204.477 L 38.576 204.478 L 38.576 204.478 Q 38.16 204.478 37.796 204.636 L 37.796 204.636 L 37.796 204.636 Q 37.431 204.793 37.161 205.063 L 37.161 205.063 L 37.161 205.063 Q 36.892 205.333 36.735 205.698 L 36.735 205.698 L 36.735 205.698 Q 36.579 206.063 36.579 206.479 L 36.579 206.479 L 36.58 206.894 L 35.198 206.671 L 35.198 206.559 L 35.198 206.559 Q 35.197 205.863 35.46 205.245 L 35.46 205.245 L 35.46 205.245 Q 35.723 204.627 36.183 204.166 L 36.183 204.166 L 36.183 204.166 Q 36.643 203.705 37.261 203.44 L 37.261 203.44 L 37.261 203.44 Q 37.878 203.176 38.574 203.175 L 38.574 203.175 L 39.383 203.174 L 39.383 203.174 Q 40.079 203.173 40.697 203.436 L 40.697 203.436 L 40.697 203.436 Q 41.315 203.7 41.776 204.16 L 41.776 204.16 L 41.776 204.16 Q 42.237 204.62 42.502 205.237 L 42.502 205.237 L 42.502 205.237 Q 42.766 205.854 42.767 206.551 L 42.767 206.551 L 42.777 214.895 Z  M 41.392 211.819 L 41.389 209.326 L 38.469 209.329 L 38.469 209.329 Q 38.053 209.33 37.689 209.487 L 37.689 209.487 L 37.689 209.487 Q 37.324 209.645 37.055 209.921 L 37.055 209.921 L 37.055 209.921 Q 36.785 210.196 36.629 210.561 L 36.629 210.561 L 36.629 210.561 Q 36.472 210.926 36.472 211.342 L 36.472 211.342 L 36.473 211.825 L 36.473 211.825 Q 36.473 212.24 36.631 212.605 L 36.631 212.605 L 36.631 212.605 Q 36.789 212.97 37.058 213.239 L 37.058 213.239 L 37.058 213.239 Q 37.328 213.508 37.693 213.665 L 37.693 213.665 L 37.693 213.665 Q 38.059 213.822 38.474 213.822 L 38.474 213.822 L 39.395 213.821 L 39.395 213.821 Q 39.811 213.82 40.175 213.662 L 40.175 213.662 L 40.175 213.662 Q 40.54 213.505 40.809 213.235 L 40.809 213.235 L 40.809 213.235 Q 41.079 212.965 41.235 212.6 L 41.235 212.6 L 41.235 212.6 Q 41.392 212.235 41.392 211.819 L 41.392 211.819 Z  M 53.217 211.727 L 53.217 211.727 L 53.217 211.727 Q 53.218 212.424 52.955 213.042 L 52.955 213.042 L 52.955 213.042 Q 52.692 213.66 52.232 214.121 L 52.232 214.121 L 52.232 214.121 Q 51.772 214.581 51.154 214.846 L 51.154 214.846 L 51.154 214.846 Q 50.537 215.111 49.841 215.111 L 49.841 215.111 L 48.92 215.113 L 48.92 215.113 Q 48.224 215.113 47.606 214.85 L 47.606 214.85 L 47.606 214.85 Q 46.988 214.587 46.527 214.127 L 46.527 214.127 L 46.527 214.127 Q 46.066 213.667 45.801 213.05 L 45.801 213.05 L 45.801 213.05 Q 45.536 212.432 45.536 211.736 L 45.536 211.736 L 45.521 198.787 L 46.902 198.786 L 46.909 204.356 L 46.909 204.356 Q 47.38 203.794 48.042 203.479 L 48.042 203.479 L 48.042 203.479 Q 48.704 203.164 49.479 203.163 L 49.479 203.163 L 49.827 203.162 L 49.827 203.162 Q 50.524 203.161 51.142 203.425 L 51.142 203.425 L 51.142 203.425 Q 51.76 203.688 52.221 204.148 L 52.221 204.148 L 52.221 204.148 Q 52.681 204.608 52.946 205.225 L 52.946 205.225 L 52.946 205.225 Q 53.211 205.843 53.211 206.539 L 53.211 206.539 L 53.217 211.727 Z  M 51.836 211.807 L 51.83 206.462 L 51.83 206.462 Q 51.83 206.046 51.672 205.681 L 51.672 205.681 L 51.672 205.681 Q 51.514 205.317 51.244 205.047 L 51.244 205.047 L 51.244 205.047 Q 50.975 204.778 50.609 204.621 L 50.609 204.621 L 50.609 204.621 Q 50.244 204.465 49.829 204.465 L 49.829 204.465 L 48.908 204.466 L 48.908 204.466 Q 48.492 204.467 48.128 204.624 L 48.128 204.624 L 48.128 204.624 Q 47.763 204.782 47.493 205.052 L 47.493 205.052 L 47.493 205.052 Q 47.224 205.321 47.067 205.687 L 47.067 205.687 L 47.067 205.687 Q 46.911 206.052 46.911 206.467 L 46.911 206.467 L 46.917 211.813 L 46.917 211.813 Q 46.918 212.229 47.075 212.593 L 47.075 212.593 L 47.075 212.593 Q 47.233 212.958 47.503 213.227 L 47.503 213.227 L 47.503 213.227 Q 47.773 213.497 48.138 213.653 L 48.138 213.653 L 48.138 213.653 Q 48.503 213.81 48.918 213.81 L 48.918 213.81 L 49.839 213.809 L 49.839 213.809 Q 50.255 213.808 50.62 213.651 L 50.62 213.651 L 50.62 213.651 Q 50.984 213.493 51.254 213.223 L 51.254 213.223 L 51.254 213.223 Q 51.523 212.953 51.68 212.588 L 51.68 212.588 L 51.68 212.588 Q 51.837 212.223 51.836 211.807 L 51.836 211.807 Z  M 63.662 211.716 L 63.662 211.716 L 63.662 211.716 Q 63.662 212.412 63.399 213.03 L 63.399 213.03 L 63.399 213.03 Q 63.136 213.648 62.676 214.109 L 62.676 214.109 L 62.676 214.109 Q 62.216 214.57 61.599 214.834 L 61.599 214.834 L 61.599 214.834 Q 60.981 215.099 60.285 215.1 L 60.285 215.1 L 59.364 215.101 L 59.364 215.101 Q 58.668 215.102 58.05 214.838 L 58.05 214.838 L 58.05 214.838 Q 57.432 214.575 56.971 214.115 L 56.971 214.115 L 56.971 214.115 Q 56.51 213.655 56.245 213.038 L 56.245 213.038 L 56.245 213.038 Q 55.981 212.42 55.98 211.724 L 55.98 211.724 L 55.974 206.536 L 55.974 206.536 Q 55.973 205.839 56.237 205.221 L 56.237 205.221 L 56.237 205.221 Q 56.5 204.603 56.96 204.143 L 56.96 204.143 L 56.96 204.143 Q 57.42 203.682 58.037 203.417 L 58.037 203.417 L 58.037 203.417 Q 58.654 203.152 59.351 203.152 L 59.351 203.152 L 60.272 203.15 L 60.272 203.15 Q 60.968 203.15 61.586 203.413 L 61.586 203.413 L 61.586 203.413 Q 62.204 203.676 62.665 204.136 L 62.665 204.136 L 62.665 204.136 Q 63.126 204.596 63.39 205.213 L 63.39 205.213 L 63.39 205.213 Q 63.655 205.831 63.656 206.527 L 63.656 206.527 L 63.662 211.716 Z  M 62.28 211.796 L 62.274 206.45 L 62.274 206.45 Q 62.274 206.034 62.116 205.67 L 62.116 205.67 L 62.116 205.67 Q 61.959 205.305 61.689 205.036 L 61.689 205.036 L 61.689 205.036 Q 61.419 204.766 61.054 204.61 L 61.054 204.61 L 61.054 204.61 Q 60.689 204.453 60.273 204.453 L 60.273 204.453 L 59.352 204.454 L 59.352 204.454 Q 58.937 204.455 58.572 204.612 L 58.572 204.612 L 58.572 204.612 Q 58.207 204.77 57.938 205.04 L 57.938 205.04 L 57.938 205.04 Q 57.669 205.31 57.512 205.675 L 57.512 205.675 L 57.512 205.675 Q 57.355 206.04 57.355 206.456 L 57.355 206.456 L 57.361 211.801 L 57.361 211.801 Q 57.362 212.217 57.52 212.582 L 57.52 212.582 L 57.52 212.582 Q 57.677 212.946 57.947 213.216 L 57.947 213.216 L 57.947 213.216 Q 58.217 213.485 58.582 213.642 L 58.582 213.642 L 58.582 213.642 Q 58.947 213.798 59.363 213.798 L 59.363 213.798 L 60.284 213.797 L 60.284 213.797 Q 60.699 213.797 61.064 213.639 L 61.064 213.639 L 61.064 213.639 Q 61.429 213.481 61.698 213.211 L 61.698 213.211 L 61.698 213.211 Q 61.967 212.942 62.124 212.576 L 62.124 212.576 L 62.124 212.576 Q 62.281 212.211 62.28 211.796 L 62.28 211.796 Z  M 71.178 204.677 L 69.797 204.678 L 69.797 204.678 Q 69.381 204.679 69.016 204.836 L 69.016 204.836 L 69.016 204.836 Q 68.652 204.994 68.382 205.264 L 68.382 205.264 L 68.382 205.264 Q 68.113 205.534 67.956 205.899 L 67.956 205.899 L 67.956 205.899 Q 67.8 206.264 67.8 206.68 L 67.8 206.68 L 67.809 214.867 L 66.428 214.868 L 66.415 203.368 L 66.875 203.368 L 67.629 204.535 L 67.629 204.535 Q 68.1 203.894 68.813 203.517 L 68.813 203.517 L 68.813 203.517 Q 69.526 203.14 70.368 203.139 L 70.368 203.139 L 71.176 203.138 L 71.178 204.677 Z  M 80.713 214.852 L 80.253 214.853 L 79.488 213.708 L 79.488 213.708 Q 79.017 214.326 78.31 214.703 L 78.31 214.703 L 78.31 214.703 Q 77.602 215.08 76.76 215.081 L 76.76 215.081 L 76.412 215.082 L 76.412 215.082 Q 75.716 215.082 75.098 214.819 L 75.098 214.819 L 75.098 214.819 Q 74.48 214.556 74.019 214.096 L 74.019 214.096 L 74.019 214.096 Q 73.558 213.636 73.293 213.019 L 73.293 213.019 L 73.293 213.019 Q 73.029 212.401 73.028 211.705 L 73.028 211.705 L 73.028 211.593 L 73.028 211.593 Q 73.027 210.896 73.29 210.278 L 73.29 210.278 L 73.29 210.278 Q 73.553 209.66 74.013 209.199 L 74.013 209.199 L 74.013 209.199 Q 74.473 208.739 75.091 208.474 L 75.091 208.474 L 75.091 208.474 Q 75.708 208.209 76.404 208.208 L 76.404 208.208 L 79.324 208.205 L 79.322 206.431 L 79.322 206.431 Q 79.322 206.015 79.164 205.65 L 79.164 205.65 L 79.164 205.65 Q 79.006 205.286 78.737 205.016 L 78.737 205.016 L 78.737 205.016 Q 78.467 204.747 78.102 204.59 L 78.102 204.59 L 78.102 204.59 Q 77.736 204.434 77.321 204.434 L 77.321 204.434 L 76.512 204.435 L 76.512 204.435 Q 76.097 204.435 75.732 204.593 L 75.732 204.593 L 75.732 204.593 Q 75.367 204.751 75.098 205.021 L 75.098 205.021 L 75.098 205.021 Q 74.829 205.29 74.672 205.656 L 74.672 205.656 L 74.672 205.656 Q 74.515 206.021 74.516 206.436 L 74.516 206.436 L 74.516 206.852 L 73.134 206.629 L 73.134 206.516 L 73.134 206.516 Q 73.134 205.82 73.397 205.202 L 73.397 205.202 L 73.397 205.202 Q 73.66 204.584 74.12 204.123 L 74.12 204.123 L 74.12 204.123 Q 74.58 203.662 75.197 203.398 L 75.197 203.398 L 75.197 203.398 Q 75.815 203.133 76.511 203.132 L 76.511 203.132 L 77.319 203.131 L 77.319 203.131 Q 78.016 203.131 78.634 203.394 L 78.634 203.394 L 78.634 203.394 Q 79.252 203.657 79.713 204.117 L 79.713 204.117 L 79.713 204.117 Q 80.174 204.577 80.438 205.194 L 80.438 205.194 L 80.438 205.194 Q 80.703 205.812 80.704 206.508 L 80.704 206.508 L 80.713 214.852 Z  M 79.328 211.776 L 79.325 209.283 L 76.406 209.287 L 76.406 209.287 Q 75.99 209.287 75.625 209.445 L 75.625 209.445 L 75.625 209.445 Q 75.26 209.602 74.991 209.878 L 74.991 209.878 L 74.991 209.878 Q 74.722 210.153 74.565 210.518 L 74.565 210.518 L 74.565 210.518 Q 74.408 210.884 74.409 211.299 L 74.409 211.299 L 74.409 211.782 L 74.409 211.782 Q 74.41 212.198 74.567 212.562 L 74.567 212.562 L 74.567 212.562 Q 74.725 212.927 74.995 213.196 L 74.995 213.196 L 74.995 213.196 Q 75.265 213.466 75.63 213.622 L 75.63 213.622 L 75.63 213.622 Q 75.995 213.779 76.411 213.779 L 76.411 213.779 L 77.331 213.778 L 77.331 213.778 Q 77.747 213.777 78.112 213.62 L 78.112 213.62 L 78.112 213.62 Q 78.477 213.462 78.746 213.192 L 78.746 213.192 L 78.746 213.192 Q 79.015 212.922 79.172 212.557 L 79.172 212.557 L 79.172 212.557 Q 79.329 212.192 79.328 211.776 L 79.328 211.776 Z  M 88.923 214.843 L 87.665 214.844 L 87.665 214.844 Q 87.036 214.845 86.48 214.61 L 86.48 214.61 L 86.48 214.61 Q 85.923 214.375 85.513 213.959 L 85.513 213.959 L 85.513 213.959 Q 85.103 213.544 84.861 212.994 L 84.861 212.994 L 84.861 212.994 Q 84.619 212.444 84.618 211.815 L 84.618 211.815 L 84.61 204.662 L 82.543 204.664 L 82.542 203.35 L 84.608 203.348 L 84.605 200.585 L 85.986 200.359 L 85.99 203.346 L 88.91 203.343 L 88.911 204.657 L 85.991 204.66 L 85.999 211.881 L 85.999 211.881 Q 86 212.229 86.129 212.527 L 86.129 212.527 L 86.129 212.527 Q 86.259 212.824 86.483 213.049 L 86.483 213.049 L 86.483 213.049 Q 86.708 213.273 87.012 213.402 L 87.012 213.402 L 87.012 213.402 Q 87.315 213.531 87.663 213.53 L 87.663 213.53 L 88.921 213.529 L 88.923 214.843 Z  M 99.139 211.676 L 99.139 211.676 L 99.139 211.676 Q 99.139 212.372 98.876 212.99 L 98.876 212.99 L 98.876 212.99 Q 98.613 213.608 98.153 214.069 L 98.153 214.069 L 98.153 214.069 Q 97.693 214.53 97.076 214.794 L 97.076 214.794 L 97.076 214.794 Q 96.458 215.059 95.762 215.06 L 95.762 215.06 L 94.841 215.061 L 94.841 215.061 Q 94.145 215.062 93.527 214.798 L 93.527 214.798 L 93.527 214.798 Q 92.909 214.535 92.448 214.075 L 92.448 214.075 L 92.448 214.075 Q 91.987 213.615 91.722 212.998 L 91.722 212.998 L 91.722 212.998 Q 91.458 212.38 91.457 211.684 L 91.457 211.684 L 91.451 206.496 L 91.451 206.496 Q 91.45 205.799 91.714 205.181 L 91.714 205.181 L 91.714 205.181 Q 91.977 204.564 92.437 204.103 L 92.437 204.103 L 92.437 204.103 Q 92.897 203.642 93.514 203.377 L 93.514 203.377 L 93.514 203.377 Q 94.131 203.112 94.828 203.112 L 94.828 203.112 L 95.749 203.111 L 95.749 203.111 Q 96.445 203.11 97.063 203.373 L 97.063 203.373 L 97.063 203.373 Q 97.681 203.636 98.142 204.096 L 98.142 204.096 L 98.142 204.096 Q 98.603 204.556 98.867 205.173 L 98.867 205.173 L 98.867 205.173 Q 99.132 205.791 99.133 206.487 L 99.133 206.487 L 99.139 211.676 Z  M 97.757 211.756 L 97.751 206.41 L 97.751 206.41 Q 97.751 205.994 97.593 205.63 L 97.593 205.63 L 97.593 205.63 Q 97.436 205.265 97.166 204.996 L 97.166 204.996 L 97.166 204.996 Q 96.896 204.726 96.531 204.57 L 96.531 204.57 L 96.531 204.57 Q 96.166 204.413 95.75 204.413 L 95.75 204.413 L 94.829 204.414 L 94.829 204.414 Q 94.414 204.415 94.049 204.572 L 94.049 204.572 L 94.049 204.572 Q 93.684 204.73 93.415 205 L 93.415 205 L 93.415 205 Q 93.146 205.27 92.989 205.635 L 92.989 205.635 L 92.989 205.635 Q 92.832 206 92.832 206.416 L 92.832 206.416 L 92.838 211.761 L 92.838 211.761 Q 92.839 212.177 92.997 212.542 L 92.997 212.542 L 92.997 212.542 Q 93.154 212.906 93.424 213.176 L 93.424 213.176 L 93.424 213.176 Q 93.694 213.445 94.059 213.602 L 94.059 213.602 L 94.059 213.602 Q 94.424 213.759 94.84 213.758 L 94.84 213.758 L 95.761 213.757 L 95.761 213.757 Q 96.176 213.757 96.541 213.599 L 96.541 213.599 L 96.541 213.599 Q 96.906 213.441 97.175 213.171 L 97.175 213.171 L 97.175 213.171 Q 97.444 212.902 97.601 212.536 L 97.601 212.536 L 97.601 212.536 Q 97.758 212.171 97.757 211.756 L 97.757 211.756 Z  M 97.81 198.728 L 94.714 201.494 L 93.68 201.496 L 95.508 198.731 L 97.81 198.728 Z  M 106.655 204.637 L 105.274 204.638 L 105.274 204.638 Q 104.858 204.639 104.493 204.796 L 104.493 204.796 L 104.493 204.796 Q 104.129 204.954 103.859 205.224 L 103.859 205.224 L 103.859 205.224 Q 103.59 205.494 103.433 205.859 L 103.433 205.859 L 103.433 205.859 Q 103.277 206.224 103.277 206.64 L 103.277 206.64 L 103.286 214.827 L 101.905 214.828 L 101.892 203.328 L 102.352 203.328 L 103.106 204.495 L 103.106 204.495 Q 103.577 203.854 104.29 203.477 L 104.29 203.477 L 104.29 203.477 Q 105.003 203.1 105.845 203.099 L 105.845 203.099 L 106.653 203.098 L 106.655 204.637 Z  M 110.446 200.556 L 108.841 200.558 L 108.838 198.716 L 110.444 198.714 L 110.446 200.556 Z  M 110.35 214.819 L 108.969 214.82 L 108.956 203.32 L 110.337 203.319 L 110.35 214.819 Z  M 121.251 211.651 L 121.251 211.651 L 121.251 211.651 Q 121.252 212.347 120.989 212.965 L 120.989 212.965 L 120.989 212.965 Q 120.726 213.583 120.266 214.044 L 120.266 214.044 L 120.266 214.044 Q 119.806 214.505 119.189 214.769 L 119.189 214.769 L 119.189 214.769 Q 118.571 215.034 117.875 215.035 L 117.875 215.035 L 116.954 215.036 L 116.954 215.036 Q 116.258 215.037 115.64 214.773 L 115.64 214.773 L 115.64 214.773 Q 115.022 214.51 114.561 214.05 L 114.561 214.05 L 114.561 214.05 Q 114.1 213.59 113.835 212.973 L 113.835 212.973 L 113.835 212.973 Q 113.571 212.356 113.57 211.659 L 113.57 211.659 L 113.564 206.471 L 113.564 206.471 Q 113.563 205.775 113.826 205.157 L 113.826 205.157 L 113.826 205.157 Q 114.09 204.539 114.55 204.078 L 114.55 204.078 L 114.55 204.078 Q 115.01 203.617 115.627 203.352 L 115.627 203.352 L 115.627 203.352 Q 116.244 203.087 116.941 203.087 L 116.941 203.087 L 117.861 203.086 L 117.861 203.086 Q 118.558 203.085 119.176 203.348 L 119.176 203.348 L 119.176 203.348 Q 119.794 203.611 120.255 204.071 L 120.255 204.071 L 120.255 204.071 Q 120.716 204.531 120.98 205.148 L 120.98 205.148 L 120.98 205.148 Q 121.245 205.766 121.246 206.462 L 121.246 206.462 L 121.251 211.651 Z  M 119.87 211.731 L 119.864 206.385 L 119.864 206.385 Q 119.864 205.97 119.706 205.605 L 119.706 205.605 L 119.706 205.605 Q 119.548 205.24 119.279 204.971 L 119.279 204.971 L 119.279 204.971 Q 119.009 204.701 118.644 204.545 L 118.644 204.545 L 118.644 204.545 Q 118.278 204.388 117.863 204.388 L 117.863 204.388 L 116.942 204.389 L 116.942 204.389 Q 116.526 204.39 116.162 204.547 L 116.162 204.547 L 116.162 204.547 Q 115.797 204.705 115.528 204.975 L 115.528 204.975 L 115.528 204.975 Q 115.258 205.245 115.102 205.61 L 115.102 205.61 L 115.102 205.61 Q 114.945 205.975 114.945 206.391 L 114.945 206.391 L 114.951 211.736 L 114.951 211.736 Q 114.952 212.152 115.109 212.517 L 115.109 212.517 L 115.109 212.517 Q 115.267 212.881 115.537 213.151 L 115.537 213.151 L 115.537 213.151 Q 115.807 213.42 116.172 213.577 L 116.172 213.577 L 116.172 213.577 Q 116.537 213.734 116.953 213.733 L 116.953 213.733 L 117.873 213.732 L 117.873 213.732 Q 118.289 213.732 118.654 213.574 L 118.654 213.574 L 118.654 213.574 Q 119.019 213.416 119.288 213.146 L 119.288 213.146 L 119.288 213.146 Q 119.557 212.877 119.714 212.511 L 119.714 212.511 L 119.714 212.511 Q 119.871 212.146 119.87 211.731 L 119.87 211.731 Z " fill-rule="evenodd" fill="rgb(254,253,254)"/></svg>