<?xml version="1.0" standalone="no"?><!-- Generator: Gravit.io --><svg xmlns="http://www.w3.org/2000/svg" xmlns:xlink="http://www.w3.org/1999/xlink" style="isolation:isolate" viewBox="0 0 512 256" width="512" height="256"><defs><clipPath id="_clipPath_wgVcpwe9Wrsdq9jmbA1c8FpEP5CrgFn3"><rect width="512" height="256"/></clipPath></defs><g clip-path="url(#_clipPath_wgVcpwe9Wrsdq9jmbA1c8FpEP5CrgFn3)"><path d=" M 34.139 63.449 L 115.927 63.917 L 115.771 87.33 L 132.003 63.605 L 138.403 63.605 L 115.614 98.1 L 115.614 106.371 L 144.021 63.917 L 150.764 63.735 L 115.146 115.893 L 115.459 123.229 L 157.445 63.605 L 163.435 63.735 L 115.459 132.282 L 115.459 141.49 L 168.683 63.605 L 195.841 64.074 C 192.407 168.649 43.816 174.268 34.139 63.449 Z " fill="rgb(254,253,254)"/><path d=" M 20 161.984 L 26.095 162.116 L 26.054 181.191 C 28.977 189.647 41.609 190.483 44.01 180.982 L 43.978 162.135 L 49.676 162.199 L 49.543 181.401 C 47.559 195.911 24.697 199.251 20.521 181.296 L 20 161.984 Z " fill="rgb(254,253,254)"/><path d=" M 58.521 193.342 L 64.008 193.587 L 64.171 170.002 L 81.861 193.342 L 88.494 193.342 L 88.412 162.304 L 82.68 162.304 L 82.515 186.381 L 64.581 162.223 L 58.357 162.468 L 58.521 193.342 Z " fill="rgb(254,253,254)"/><rect x="96.847" y="162.058" width="5.815" height="31.529" transform="matrix(1,0,0,1,0,0)" fill="rgb(254,253,254)"/><rect x="204.783" y="161.736" width="5.815" height="31.529" transform="matrix(1,0,0,1,0,0)" fill="rgb(254,253,254)"/><path d=" M 108.087 162.202 L 114.202 162.135 L 124.889 188.616 L 135.105 162.135 L 141.356 162.202 L 128.921 193.118 L 120.319 193.051 L 108.087 162.202 Z " fill="rgb(254,253,254)"/><path d=" M 171.214 193.193 L 165.098 193.261 L 154.412 166.78 L 144.197 193.261 L 137.946 193.193 L 150.379 162.277 L 158.983 162.345 L 171.214 193.193 Z " fill="rgb(254,253,254)"/><path d=" M 183.437 188.683 L 198.828 188.821 L 198.828 193.467 L 177.336 193.189 L 176.989 162.059 L 183.229 162.129 L 183.437 188.683 Z " fill="rgb(254,253,254)"/><path d=" M 322.804 75.173 L 322.804 153.097 L 322.804 153.097 Q 322.804 157.824 324.425 159.85 L 324.425 159.85 L 324.425 159.85 Q 326.045 161.876 329.016 161.876 L 329.016 161.876 L 329.016 161.876 Q 330.772 161.876 332.798 161.605 L 332.798 161.605 L 332.798 161.605 Q 334.824 161.335 337.39 160.39 L 337.39 160.39 L 338.605 168.898 L 338.605 168.898 Q 336.444 169.979 332.596 170.654 L 332.596 170.654 L 332.596 170.654 Q 328.746 171.329 325.91 171.329 L 325.91 171.329 L 325.91 171.329 Q 319.833 171.329 315.916 167.886 L 315.916 167.886 L 315.916 167.886 Q 312 164.442 312 156.203 L 312 156.203 L 312 75.173 L 322.804 75.173 Z  M 352.515 169.709 L 352.515 102.183 L 363.319 102.183 L 363.319 169.709 L 352.515 169.709 Z  M 350.219 81.656 L 350.219 81.656 L 350.219 81.656 Q 350.219 78.549 352.313 76.321 L 352.313 76.321 L 352.313 76.321 Q 354.406 74.093 357.647 74.093 L 357.647 74.093 L 357.647 74.093 Q 360.888 74.093 363.184 76.321 L 363.184 76.321 L 363.184 76.321 Q 365.48 78.549 365.48 81.656 L 365.48 81.656 L 365.48 81.656 Q 365.48 84.762 363.184 86.787 L 363.184 86.787 L 363.184 86.787 Q 360.888 88.813 357.647 88.813 L 357.647 88.813 L 357.647 88.813 Q 354.406 88.813 352.313 86.787 L 352.313 86.787 L 352.313 86.787 Q 350.219 84.762 350.219 81.656 Z  M 377.5 111.637 L 377.5 102.183 L 388.033 102.183 L 388.033 88.813 L 398.838 85.707 L 398.838 102.183 L 417.204 102.183 L 417.204 111.637 L 398.838 111.637 L 398.838 149.046 L 398.838 149.046 Q 398.838 156.068 400.593 158.972 L 400.593 158.972 L 400.593 158.972 Q 402.349 161.876 406.535 161.876 L 406.535 161.876 L 406.535 161.876 Q 410.047 161.876 412.478 161.133 L 412.478 161.133 L 412.478 161.133 Q 414.909 160.39 417.88 159.175 L 417.88 159.175 L 420.311 167.413 L 420.311 167.413 Q 416.664 169.168 412.343 170.249 L 412.343 170.249 L 412.343 170.249 Q 408.021 171.329 403.024 171.329 L 403.024 171.329 L 403.024 171.329 Q 394.786 171.329 391.41 166.67 L 391.41 166.67 L 391.41 166.67 Q 388.033 162.011 388.033 151.072 L 388.033 151.072 L 388.033 111.637 L 377.5 111.637 Z  M 477.437 156.474 L 481.488 164.307 L 481.488 164.307 Q 477.437 167.548 471.293 169.438 L 471.293 169.438 L 471.293 169.438 Q 465.147 171.329 458.26 171.329 L 458.26 171.329 L 458.26 171.329 Q 450.562 171.329 444.89 168.831 L 444.89 168.831 L 444.89 168.831 Q 439.218 166.332 435.571 161.673 L 435.571 161.673 L 435.571 161.673 Q 431.925 157.014 430.169 150.531 L 430.169 150.531 L 430.169 150.531 Q 428.414 144.049 428.414 135.946 L 428.414 135.946 L 428.414 135.946 Q 428.414 118.659 436.111 109.611 L 436.111 109.611 L 436.111 109.611 Q 443.809 100.563 458.125 100.563 L 458.125 100.563 L 458.125 100.563 Q 462.716 100.563 467.308 101.576 L 467.308 101.576 L 467.308 101.576 Q 471.9 102.588 475.546 105.424 L 475.546 105.424 L 475.546 105.424 Q 479.193 108.261 481.488 113.46 L 481.488 113.46 L 481.488 113.46 Q 483.784 118.659 483.784 127.168 L 483.784 127.168 L 483.784 127.168 Q 483.784 131.624 482.974 137.026 L 482.974 137.026 L 439.623 137.026 L 439.623 137.026 Q 439.623 142.969 440.838 147.56 L 440.838 147.56 L 440.838 147.56 Q 442.054 152.152 444.62 155.326 L 444.62 155.326 L 444.62 155.326 Q 447.186 158.499 451.305 160.188 L 451.305 160.188 L 451.305 160.188 Q 455.424 161.876 461.366 161.876 L 461.366 161.876 L 461.366 161.876 Q 465.958 161.876 470.549 160.255 L 470.549 160.255 L 470.549 160.255 Q 475.141 158.634 477.437 156.474 L 477.437 156.474 Z  M 458.26 110.016 L 458.26 110.016 L 458.26 110.016 Q 450.292 110.016 445.498 114.203 L 445.498 114.203 L 445.498 114.203 Q 440.703 118.389 439.758 128.518 L 439.758 128.518 L 473.25 128.518 L 473.25 128.518 Q 473.25 118.254 469.334 114.136 L 469.334 114.136 L 469.334 114.136 Q 465.417 110.016 458.26 110.016 Z " fill-rule="evenodd" fill="rgb(254,253,254)"/><rect x="254.5" y="26.5" width="3" height="203" transform="matrix(1,0,0,1,0,0)" fill="rgb(249,167,55)"/></g></svg>