<?xml version="1.0" standalone="no"?><!-- Generator: Gravit.io --><svg xmlns="http://www.w3.org/2000/svg" xmlns:xlink="http://www.w3.org/1999/xlink" style="isolation:isolate" viewBox="0 0 522.2 232.006" width="522.2" height="232.006"><defs><clipPath id="_clipPath_72l7liNJIlsmwwPAB4jPdtlJoYhPHGdw"><rect width="522.2" height="232.006"/></clipPath></defs><g clip-path="url(#_clipPath_72l7liNJIlsmwwPAB4jPdtlJoYhPHGdw)"><path d=" M 176.157 200.409 L 176.157 160.63 L 198.077 160.63 L 198.077 163.138 L 178.845 163.138 L 178.845 178.369 L 196.345 178.369 L 196.345 180.878 L 178.845 180.878 L 178.845 197.9 L 198.316 197.9 L 198.316 200.409 L 176.157 200.409 Z  M 206.678 194.317 L 206.678 178.19 L 206.678 178.19 Q 206.678 175.144 208.5 173.322 L 208.5 173.322 L 208.5 173.322 Q 210.322 171.5 213.308 171.5 L 213.308 171.5 L 213.308 171.5 Q 214.861 171.5 216.892 171.918 L 216.892 171.918 L 216.892 171.918 Q 218.923 172.336 220.655 172.874 L 220.655 172.874 L 220.655 172.874 Q 223.104 173.591 224.657 174.785 L 224.657 174.785 L 224.657 160.63 L 227.285 160.152 L 227.285 200.409 L 224.657 200.409 L 224.657 197.721 L 224.657 197.721 Q 223.104 198.916 220.655 199.633 L 220.655 199.633 L 220.655 199.633 Q 218.923 200.17 216.892 200.588 L 216.892 200.588 L 216.892 200.588 Q 214.861 201.006 213.308 201.006 L 213.308 201.006 L 213.308 201.006 Q 210.322 201.006 208.5 199.185 L 208.5 199.185 L 208.5 199.185 Q 206.678 197.363 206.678 194.317 L 206.678 194.317 Z  M 224.657 192.585 L 224.657 179.922 L 224.657 179.922 Q 224.657 178.011 223.492 176.995 L 223.492 176.995 L 223.492 176.995 Q 222.327 175.98 220.297 175.323 L 220.297 175.323 L 220.297 175.323 Q 218.564 174.785 216.683 174.367 L 216.683 174.367 L 216.683 174.367 Q 214.802 173.949 213.667 173.949 L 213.667 173.949 L 213.667 173.949 Q 209.307 173.949 209.307 178.369 L 209.307 178.369 L 209.307 194.137 L 209.307 194.137 Q 209.307 198.557 213.667 198.557 L 213.667 198.557 L 213.667 198.557 Q 214.802 198.557 216.683 198.139 L 216.683 198.139 L 216.683 198.139 Q 218.564 197.721 220.297 197.184 L 220.297 197.184 L 220.297 197.184 Q 222.327 196.527 223.492 195.511 L 223.492 195.511 L 223.492 195.511 Q 224.657 194.496 224.657 192.585 L 224.657 192.585 Z  M 255.119 172.097 L 257.747 172.097 L 257.747 200.409 L 255.119 200.409 L 255.119 197.721 L 255.119 197.721 Q 253.566 198.916 251.117 199.633 L 251.117 199.633 L 251.117 199.633 Q 249.385 200.17 247.354 200.588 L 247.354 200.588 L 247.354 200.588 Q 245.323 201.006 243.77 201.006 L 243.77 201.006 L 243.77 201.006 Q 240.784 201.006 238.962 199.185 L 238.962 199.185 L 238.962 199.185 Q 237.14 197.363 237.14 194.317 L 237.14 194.317 L 237.14 172.097 L 239.768 172.097 L 239.768 194.078 L 239.768 194.078 Q 239.768 198.498 244.128 198.498 L 244.128 198.498 L 244.128 198.498 Q 245.263 198.498 247.145 198.08 L 247.145 198.08 L 247.145 198.08 Q 249.026 197.661 250.758 197.124 L 250.758 197.124 L 250.758 197.124 Q 252.789 196.467 253.954 195.451 L 253.954 195.451 L 253.954 195.451 Q 255.119 194.436 255.119 192.525 L 255.119 192.525 L 255.119 172.097 Z  M 287.91 180.34 L 285.282 180.758 L 285.282 178.966 L 285.282 178.966 Q 285.282 174.546 280.938 174.546 L 280.938 174.546 L 274.275 174.546 L 274.275 174.546 Q 269.931 174.546 269.931 178.966 L 269.931 178.966 L 269.931 193.54 L 269.931 193.54 Q 269.931 197.96 274.275 197.96 L 274.275 197.96 L 280.938 197.96 L 280.938 197.96 Q 285.282 197.96 285.282 193.54 L 285.282 193.54 L 285.282 191.27 L 287.91 191.689 L 287.91 193.719 L 287.91 193.719 Q 287.91 196.766 286.088 198.587 L 286.088 198.587 L 286.088 198.587 Q 284.266 200.409 281.28 200.409 L 281.28 200.409 L 273.933 200.409 L 273.933 200.409 Q 270.947 200.409 269.125 198.587 L 269.125 198.587 L 269.125 198.587 Q 267.303 196.766 267.303 193.719 L 267.303 193.719 L 267.303 178.787 L 267.303 178.787 Q 267.303 175.741 269.125 173.919 L 269.125 173.919 L 269.125 173.919 Q 270.947 172.097 273.933 172.097 L 273.933 172.097 L 281.28 172.097 L 281.28 172.097 Q 284.266 172.097 286.088 173.919 L 286.088 173.919 L 286.088 173.919 Q 287.91 175.741 287.91 178.787 L 287.91 178.787 L 287.91 180.34 Z  M 295.794 194.292 L 295.794 191.235 L 295.794 191.235 Q 295.794 188.178 297.616 186.349 L 297.616 186.349 L 297.616 186.349 Q 299.437 184.521 302.424 184.521 L 302.424 184.521 L 302.424 184.521 Q 303.977 184.521 306.067 184.674 L 306.067 184.674 L 306.067 184.674 Q 308.158 184.826 309.89 185.315 L 309.89 185.315 L 309.89 185.315 Q 312.339 186.048 313.892 187.269 L 313.892 187.269 L 313.892 178.966 L 313.892 178.966 Q 313.892 174.546 309.549 174.546 L 309.549 174.546 L 303.481 174.546 L 303.481 174.546 Q 299.139 174.546 299.139 178.966 L 299.139 178.966 L 299.139 180.161 L 296.511 179.743 L 296.511 178.787 L 296.511 178.787 Q 296.511 175.741 298.332 173.919 L 298.332 173.919 L 298.332 173.919 Q 300.154 172.097 303.141 172.097 L 303.141 172.097 L 309.89 172.097 L 309.89 172.097 Q 312.876 172.097 314.698 173.919 L 314.698 173.919 L 314.698 173.919 Q 316.52 175.741 316.52 178.787 L 316.52 178.787 L 316.52 200.409 L 313.892 200.409 L 313.892 197.9 L 313.892 197.9 Q 312.339 199.095 309.89 199.812 L 309.89 199.812 L 309.89 199.812 Q 308.158 200.349 306.067 200.678 L 306.067 200.678 L 306.067 200.678 Q 303.977 201.006 302.424 201.006 L 302.424 201.006 L 302.424 201.006 Q 299.437 201.006 297.616 199.178 L 297.616 199.178 L 297.616 199.178 Q 295.794 197.35 295.794 194.292 L 295.794 194.292 Z  M 313.892 192.793 L 313.892 192.318 L 313.892 192.318 Q 313.892 190.416 312.727 189.406 L 312.727 189.406 L 312.727 189.406 Q 311.562 188.396 309.531 187.742 L 309.531 187.742 L 309.531 187.742 Q 307.799 187.208 305.858 187.089 L 305.858 187.089 L 305.858 187.089 Q 303.917 186.97 302.782 186.97 L 302.782 186.97 L 302.782 186.97 Q 298.422 186.97 298.422 191.367 L 298.422 191.367 L 298.422 194.16 L 298.422 194.16 Q 298.422 198.557 302.782 198.557 L 302.782 198.557 L 302.782 198.557 Q 303.917 198.557 305.858 198.231 L 305.858 198.231 L 305.858 198.231 Q 307.799 197.904 309.531 197.369 L 309.531 197.369 L 309.531 197.369 Q 311.562 196.715 312.727 195.705 L 312.727 195.705 L 312.727 195.705 Q 313.892 194.695 313.892 192.793 L 313.892 192.793 Z  M 325.778 194.317 L 325.778 178.19 L 325.778 178.19 Q 325.778 175.144 327.599 173.322 L 327.599 173.322 L 327.599 173.322 Q 329.421 171.5 332.408 171.5 L 332.408 171.5 L 332.408 171.5 Q 333.961 171.5 335.991 171.918 L 335.991 171.918 L 335.991 171.918 Q 338.022 172.336 339.754 172.874 L 339.754 172.874 L 339.754 172.874 Q 342.203 173.591 343.756 174.785 L 343.756 174.785 L 343.756 160.63 L 346.384 160.152 L 346.384 200.409 L 343.756 200.409 L 343.756 197.721 L 343.756 197.721 Q 342.203 198.916 339.754 199.633 L 339.754 199.633 L 339.754 199.633 Q 338.022 200.17 335.991 200.588 L 335.991 200.588 L 335.991 200.588 Q 333.961 201.006 332.408 201.006 L 332.408 201.006 L 332.408 201.006 Q 329.421 201.006 327.599 199.185 L 327.599 199.185 L 327.599 199.185 Q 325.778 197.363 325.778 194.317 L 325.778 194.317 Z  M 343.756 192.585 L 343.756 179.922 L 343.756 179.922 Q 343.756 178.011 342.591 176.995 L 342.591 176.995 L 342.591 176.995 Q 341.427 175.98 339.396 175.323 L 339.396 175.323 L 339.396 175.323 Q 337.664 174.785 335.782 174.367 L 335.782 174.367 L 335.782 174.367 Q 333.901 173.949 332.766 173.949 L 332.766 173.949 L 332.766 173.949 Q 328.406 173.949 328.406 178.369 L 328.406 178.369 L 328.406 194.137 L 328.406 194.137 Q 328.406 198.557 332.766 198.557 L 332.766 198.557 L 332.766 198.557 Q 333.901 198.557 335.782 198.139 L 335.782 198.139 L 335.782 198.139 Q 337.664 197.721 339.396 197.184 L 339.396 197.184 L 339.396 197.184 Q 341.427 196.527 342.591 195.511 L 342.591 195.511 L 342.591 195.511 Q 343.756 194.496 343.756 192.585 L 343.756 192.585 Z  M 377.145 178.787 L 377.145 193.719 L 377.145 193.719 Q 377.145 196.766 375.323 198.587 L 375.323 198.587 L 375.323 198.587 Q 373.501 200.409 370.515 200.409 L 370.515 200.409 L 362.571 200.409 L 362.571 200.409 Q 359.584 200.409 357.763 198.587 L 357.763 198.587 L 357.763 198.587 Q 355.941 196.766 355.941 193.719 L 355.941 193.719 L 355.941 178.787 L 355.941 178.787 Q 355.941 175.741 357.763 173.919 L 357.763 173.919 L 357.763 173.919 Q 359.584 172.097 362.571 172.097 L 362.571 172.097 L 370.515 172.097 L 370.515 172.097 Q 373.501 172.097 375.323 173.919 L 375.323 173.919 L 375.323 173.919 Q 377.145 175.741 377.145 178.787 L 377.145 178.787 Z  M 374.516 178.966 L 374.516 178.966 L 374.516 178.966 Q 374.516 174.546 370.156 174.546 L 370.156 174.546 L 362.929 174.546 L 362.929 174.546 Q 358.569 174.546 358.569 178.966 L 358.569 178.966 L 358.569 193.54 L 358.569 193.54 Q 358.569 197.96 362.929 197.96 L 362.929 197.96 L 370.156 197.96 L 370.156 197.96 Q 374.516 197.96 374.516 193.54 L 374.516 193.54 L 374.516 178.966 Z  M 398.886 171.5 L 399.125 173.949 L 399.125 173.949 Q 397.632 174.666 396.318 175.353 L 396.318 175.353 L 396.318 175.353 Q 395.003 176.04 393.689 176.816 L 393.689 176.816 L 393.689 176.816 Q 391.838 177.891 390.584 179.086 L 390.584 179.086 L 390.584 179.086 Q 389.329 180.28 389.329 182.192 L 389.329 182.192 L 389.329 200.409 L 386.701 200.409 L 386.701 172.097 L 389.329 172.097 L 389.329 176.816 L 389.329 176.816 Q 390.942 175.562 393.51 174.128 L 393.51 174.128 L 393.51 174.128 Q 396.079 172.695 398.886 171.5 L 398.886 171.5 Z  M 424.51 186.194 L 406.531 186.194 L 406.531 193.54 L 406.531 193.54 Q 406.531 197.96 410.891 197.96 L 410.891 197.96 L 417.7 197.96 L 417.7 197.96 Q 422.061 197.96 422.061 193.54 L 422.061 193.54 L 422.061 191.868 L 424.629 192.286 L 424.629 193.719 L 424.629 193.719 Q 424.629 196.766 422.807 198.587 L 422.807 198.587 L 422.807 198.587 Q 420.986 200.409 417.999 200.409 L 417.999 200.409 L 410.533 200.409 L 410.533 200.409 Q 407.547 200.409 405.725 198.587 L 405.725 198.587 L 405.725 198.587 Q 403.903 196.766 403.903 193.719 L 403.903 193.719 L 403.903 178.787 L 403.903 178.787 Q 403.903 175.741 405.725 173.919 L 405.725 173.919 L 405.725 173.919 Q 407.547 172.097 410.533 172.097 L 410.533 172.097 L 417.88 172.097 L 417.88 172.097 Q 420.866 172.097 422.688 173.919 L 422.688 173.919 L 422.688 173.919 Q 424.51 175.741 424.51 178.787 L 424.51 178.787 L 424.51 186.194 Z  M 406.531 178.847 L 406.531 183.864 L 421.941 183.864 L 421.941 178.847 L 421.941 178.847 Q 421.941 174.427 417.581 174.427 L 417.581 174.427 L 410.891 174.427 L 410.891 174.427 Q 406.531 174.427 406.531 178.847 L 406.531 178.847 Z  M 450.551 192.346 L 450.551 192.346 L 450.551 192.346 Q 450.551 190.613 449.536 189.747 L 449.536 189.747 L 449.536 189.747 Q 448.52 188.881 446.012 188.165 L 446.012 188.165 L 446.012 188.165 Q 444.041 187.567 442.577 187.179 L 442.577 187.179 L 442.577 187.179 Q 441.114 186.791 439.083 186.194 L 439.083 186.194 L 439.083 186.194 Q 437.769 185.835 436.664 185.327 L 436.664 185.327 L 436.664 185.327 Q 435.559 184.82 434.753 184.133 L 434.753 184.133 L 434.753 184.133 Q 433.947 183.446 433.499 182.52 L 433.499 182.52 L 433.499 182.52 Q 433.051 181.594 433.051 180.28 L 433.051 180.28 L 433.051 178.787 L 433.051 178.787 Q 433.051 175.741 434.872 173.919 L 434.872 173.919 L 434.872 173.919 Q 436.694 172.097 439.681 172.097 L 439.681 172.097 L 446.191 172.097 L 446.191 172.097 Q 449.178 172.097 450.999 173.919 L 450.999 173.919 L 450.999 173.919 Q 452.821 175.741 452.821 178.787 L 452.821 178.787 L 452.821 180.101 L 450.253 180.519 L 450.253 178.966 L 450.253 178.966 Q 450.253 174.546 445.91 174.546 L 445.91 174.546 L 440.081 174.546 L 440.081 174.546 Q 435.739 174.546 435.739 178.966 L 435.739 178.966 L 435.739 179.922 L 435.739 179.922 Q 435.739 181.833 436.929 182.64 L 436.929 182.64 L 436.929 182.64 Q 438.12 183.446 440.203 184.043 L 440.203 184.043 L 440.203 184.043 Q 442.048 184.521 443.715 184.999 L 443.715 184.999 L 443.715 184.999 Q 445.382 185.477 447.286 186.014 L 447.286 186.014 L 447.286 186.014 Q 449.965 186.851 451.572 188.224 L 451.572 188.224 L 451.572 188.224 Q 453.179 189.598 453.179 192.226 L 453.179 192.226 L 453.179 193.719 L 453.179 193.719 Q 453.179 196.766 451.358 198.587 L 451.358 198.587 L 451.358 198.587 Q 449.536 200.409 446.549 200.409 L 446.549 200.409 L 439.501 200.409 L 439.501 200.409 Q 436.515 200.409 434.693 198.587 L 434.693 198.587 L 434.693 198.587 Q 432.872 196.766 432.872 193.719 L 432.872 193.719 L 432.872 192.585 L 435.5 192.166 L 435.5 193.54 L 435.5 193.54 Q 435.5 197.96 439.843 197.96 L 439.843 197.96 L 446.208 197.96 L 446.208 197.96 Q 450.551 197.96 450.551 193.54 L 450.551 193.54 L 450.551 192.346 Z  M 75.813 178.19 L 75.813 194.317 L 75.813 194.317 Q 75.813 197.363 73.991 199.185 L 73.991 199.185 L 73.991 199.185 Q 72.169 201.006 69.183 201.006 L 69.183 201.006 L 69.183 201.006 Q 67.63 201.006 65.599 200.588 L 65.599 200.588 L 65.599 200.588 Q 63.568 200.17 61.836 199.633 L 61.836 199.633 L 61.836 199.633 Q 59.387 198.916 57.834 197.721 L 57.834 197.721 L 57.834 211.757 L 55.206 212.235 L 55.206 172.097 L 57.834 172.097 L 57.834 174.785 L 57.834 174.785 Q 59.387 173.591 61.836 172.874 L 61.836 172.874 L 61.836 172.874 Q 63.568 172.336 65.599 171.918 L 65.599 171.918 L 65.599 171.918 Q 67.63 171.5 69.183 171.5 L 69.183 171.5 L 69.183 171.5 Q 72.169 171.5 73.991 173.322 L 73.991 173.322 L 73.991 173.322 Q 75.813 175.144 75.813 178.19 L 75.813 178.19 Z  M 57.834 179.922 L 57.834 192.585 L 57.834 192.585 Q 57.834 194.496 58.999 195.511 L 58.999 195.511 L 58.999 195.511 Q 60.164 196.527 62.194 197.184 L 62.194 197.184 L 62.194 197.184 Q 63.927 197.721 65.808 198.139 L 65.808 198.139 L 65.808 198.139 Q 67.689 198.557 68.824 198.557 L 68.824 198.557 L 68.824 198.557 Q 73.184 198.557 73.184 194.137 L 73.184 194.137 L 73.184 178.369 L 73.184 178.369 Q 73.184 173.949 68.824 173.949 L 68.824 173.949 L 68.824 173.949 Q 67.689 173.949 65.808 174.367 L 65.808 174.367 L 65.808 174.367 Q 63.927 174.785 62.194 175.323 L 62.194 175.323 L 62.194 175.323 Q 60.164 175.98 58.999 176.995 L 58.999 176.995 L 58.999 176.995 Q 57.834 178.011 57.834 179.922 L 57.834 179.922 Z  M 84.593 194.292 L 84.593 191.235 L 84.593 191.235 Q 84.593 188.178 86.414 186.349 L 86.414 186.349 L 86.414 186.349 Q 88.236 184.521 91.223 184.521 L 91.223 184.521 L 91.223 184.521 Q 92.776 184.521 94.866 184.674 L 94.866 184.674 L 94.866 184.674 Q 96.957 184.826 98.689 185.315 L 98.689 185.315 L 98.689 185.315 Q 101.138 186.048 102.691 187.269 L 102.691 187.269 L 102.691 178.966 L 102.691 178.966 Q 102.691 174.546 98.348 174.546 L 98.348 174.546 L 92.28 174.546 L 92.28 174.546 Q 87.937 174.546 87.937 178.966 L 87.937 178.966 L 87.937 180.161 L 85.309 179.743 L 85.309 178.787 L 85.309 178.787 Q 85.309 175.741 87.131 173.919 L 87.131 173.919 L 87.131 173.919 Q 88.953 172.097 91.939 172.097 L 91.939 172.097 L 98.689 172.097 L 98.689 172.097 Q 101.675 172.097 103.497 173.919 L 103.497 173.919 L 103.497 173.919 Q 105.319 175.741 105.319 178.787 L 105.319 178.787 L 105.319 200.409 L 102.691 200.409 L 102.691 197.9 L 102.691 197.9 Q 101.138 199.095 98.689 199.812 L 98.689 199.812 L 98.689 199.812 Q 96.957 200.349 94.866 200.678 L 94.866 200.678 L 94.866 200.678 Q 92.776 201.006 91.223 201.006 L 91.223 201.006 L 91.223 201.006 Q 88.236 201.006 86.414 199.178 L 86.414 199.178 L 86.414 199.178 Q 84.593 197.35 84.593 194.292 L 84.593 194.292 Z  M 102.691 192.793 L 102.691 192.318 L 102.691 192.318 Q 102.691 190.416 101.526 189.406 L 101.526 189.406 L 101.526 189.406 Q 100.361 188.396 98.33 187.742 L 98.33 187.742 L 98.33 187.742 Q 96.598 187.208 94.657 187.089 L 94.657 187.089 L 94.657 187.089 Q 92.716 186.97 91.581 186.97 L 91.581 186.97 L 91.581 186.97 Q 87.221 186.97 87.221 191.367 L 87.221 191.367 L 87.221 194.16 L 87.221 194.16 Q 87.221 198.557 91.581 198.557 L 91.581 198.557 L 91.581 198.557 Q 92.716 198.557 94.657 198.231 L 94.657 198.231 L 94.657 198.231 Q 96.598 197.904 98.33 197.369 L 98.33 197.369 L 98.33 197.369 Q 100.361 196.715 101.526 195.705 L 101.526 195.705 L 101.526 195.705 Q 102.691 194.695 102.691 192.793 L 102.691 192.793 Z  M 127.359 171.5 L 127.597 173.949 L 127.597 173.949 Q 126.104 174.666 124.79 175.353 L 124.79 175.353 L 124.79 175.353 Q 123.476 176.04 122.162 176.816 L 122.162 176.816 L 122.162 176.816 Q 120.311 177.891 119.056 179.086 L 119.056 179.086 L 119.056 179.086 Q 117.802 180.28 117.802 182.192 L 117.802 182.192 L 117.802 200.409 L 115.174 200.409 L 115.174 172.097 L 117.802 172.097 L 117.802 176.816 L 117.802 176.816 Q 119.415 175.562 121.983 174.128 L 121.983 174.128 L 121.983 174.128 Q 124.551 172.695 127.359 171.5 L 127.359 171.5 Z  M 132.197 194.292 L 132.197 191.235 L 132.197 191.235 Q 132.197 188.178 134.018 186.349 L 134.018 186.349 L 134.018 186.349 Q 135.84 184.521 138.826 184.521 L 138.826 184.521 L 138.826 184.521 Q 140.379 184.521 142.47 184.674 L 142.47 184.674 L 142.47 184.674 Q 144.56 184.826 146.293 185.315 L 146.293 185.315 L 146.293 185.315 Q 148.741 186.048 150.294 187.269 L 150.294 187.269 L 150.294 178.966 L 150.294 178.966 Q 150.294 174.546 145.952 174.546 L 145.952 174.546 L 139.884 174.546 L 139.884 174.546 Q 135.541 174.546 135.541 178.966 L 135.541 178.966 L 135.541 180.161 L 132.913 179.743 L 132.913 178.787 L 132.913 178.787 Q 132.913 175.741 134.735 173.919 L 134.735 173.919 L 134.735 173.919 Q 136.557 172.097 139.543 172.097 L 139.543 172.097 L 146.293 172.097 L 146.293 172.097 Q 149.279 172.097 151.101 173.919 L 151.101 173.919 L 151.101 173.919 Q 152.922 175.741 152.922 178.787 L 152.922 178.787 L 152.922 200.409 L 150.294 200.409 L 150.294 197.9 L 150.294 197.9 Q 148.741 199.095 146.293 199.812 L 146.293 199.812 L 146.293 199.812 Q 144.56 200.349 142.47 200.678 L 142.47 200.678 L 142.47 200.678 Q 140.379 201.006 138.826 201.006 L 138.826 201.006 L 138.826 201.006 Q 135.84 201.006 134.018 199.178 L 134.018 199.178 L 134.018 199.178 Q 132.197 197.35 132.197 194.292 L 132.197 194.292 Z  M 150.294 192.793 L 150.294 192.318 L 150.294 192.318 Q 150.294 190.416 149.13 189.406 L 149.13 189.406 L 149.13 189.406 Q 147.965 188.396 145.934 187.742 L 145.934 187.742 L 145.934 187.742 Q 144.202 187.208 142.261 187.089 L 142.261 187.089 L 142.261 187.089 Q 140.32 186.97 139.185 186.97 L 139.185 186.97 L 139.185 186.97 Q 134.825 186.97 134.825 191.367 L 134.825 191.367 L 134.825 194.16 L 134.825 194.16 Q 134.825 198.557 139.185 198.557 L 139.185 198.557 L 139.185 198.557 Q 140.32 198.557 142.261 198.231 L 142.261 198.231 L 142.261 198.231 Q 144.202 197.904 145.934 197.369 L 145.934 197.369 L 145.934 197.369 Q 147.965 196.715 149.13 195.705 L 149.13 195.705 L 149.13 195.705 Q 150.294 194.695 150.294 192.793 L 150.294 192.793 Z  M 52.534 68.404 L 52.534 68.404 L 52.534 68.404 Q 46.001 66.517 41.718 62.96 L 41.718 62.96 L 41.718 62.96 Q 37.436 59.403 37.436 52.725 L 37.436 52.725 L 37.436 37.192 L 37.436 37.192 Q 37.436 29.788 41.863 25.36 L 41.863 25.36 L 41.863 25.36 Q 46.291 20.932 53.55 20.932 L 53.55 20.932 L 78.52 20.932 L 78.52 20.932 Q 85.779 20.932 90.206 25.36 L 90.206 25.36 L 90.206 25.36 Q 94.634 29.788 94.634 37.192 L 94.634 37.192 L 94.634 47.209 L 88.101 48.225 L 88.101 37.772 L 88.101 37.772 Q 88.101 27.029 77.504 27.029 L 77.504 27.029 L 54.566 27.029 L 54.566 27.029 Q 43.968 27.029 43.968 37.772 L 43.968 37.772 L 43.968 51.709 L 43.968 51.709 Q 43.968 56.5 46.799 58.823 L 46.799 58.823 L 46.799 58.823 Q 49.63 61.145 54.131 62.452 L 54.131 62.452 L 54.131 62.452 Q 58.631 63.759 61.752 64.63 L 61.752 64.63 L 61.752 64.63 Q 64.873 65.501 67.632 66.299 L 67.632 66.299 L 67.632 66.299 Q 70.39 67.098 73.221 67.896 L 73.221 67.896 L 73.221 67.896 Q 76.052 68.694 79.972 69.856 L 79.972 69.856 L 79.972 69.856 Q 86.504 71.743 90.787 75.227 L 90.787 75.227 L 90.787 75.227 Q 95.07 78.711 95.07 85.68 L 95.07 85.68 L 95.07 101.359 L 95.07 101.359 Q 95.07 108.763 90.642 113.19 L 90.642 113.19 L 90.642 113.19 Q 86.214 117.618 78.955 117.618 L 78.955 117.618 L 53.114 117.618 L 53.114 117.618 Q 45.856 117.618 41.428 113.19 L 41.428 113.19 L 41.428 113.19 Q 37 108.763 37 101.359 L 37 101.359 L 37 91.196 L 43.533 90.035 L 43.533 100.778 L 43.533 100.778 Q 43.533 111.521 54.131 111.521 L 54.131 111.521 L 77.939 111.521 L 77.939 111.521 Q 88.537 111.521 88.537 100.778 L 88.537 100.778 L 88.537 86.551 L 88.537 86.551 Q 88.537 81.905 85.996 79.51 L 85.996 79.51 L 85.996 79.51 Q 83.456 77.115 78.375 75.663 L 78.375 75.663 L 78.375 75.663 Q 74.165 74.501 71.189 73.63 L 71.189 73.63 L 71.189 73.63 Q 68.212 72.759 65.382 72.033 L 65.382 72.033 L 65.382 72.033 Q 62.551 71.308 59.575 70.437 L 59.575 70.437 L 59.575 70.437 Q 56.599 69.565 52.534 68.404 Z  M 167.657 68.84 L 161.269 69.856 L 161.269 65.501 L 161.269 65.501 Q 161.269 54.758 150.713 54.758 L 150.713 54.758 L 134.516 54.758 L 134.516 54.758 Q 123.959 54.758 123.959 65.501 L 123.959 65.501 L 123.959 100.923 L 123.959 100.923 Q 123.959 111.666 134.516 111.666 L 134.516 111.666 L 150.713 111.666 L 150.713 111.666 Q 161.269 111.666 161.269 100.923 L 161.269 100.923 L 161.269 95.407 L 167.657 96.423 L 167.657 101.359 L 167.657 101.359 Q 167.657 108.763 163.229 113.19 L 163.229 113.19 L 163.229 113.19 Q 158.801 117.618 151.542 117.618 L 151.542 117.618 L 133.686 117.618 L 133.686 117.618 Q 126.427 117.618 122 113.19 L 122 113.19 L 122 113.19 Q 117.572 108.763 117.572 101.359 L 117.572 101.359 L 117.572 65.065 L 117.572 65.065 Q 117.572 57.661 122 53.233 L 122 53.233 L 122 53.233 Q 126.427 48.806 133.686 48.806 L 133.686 48.806 L 151.542 48.806 L 151.542 48.806 Q 158.801 48.806 163.229 53.233 L 163.229 53.233 L 163.229 53.233 Q 167.657 57.661 167.657 65.065 L 167.657 65.065 L 167.657 68.84 Z  M 218.323 47.354 L 218.903 53.306 L 218.903 53.306 Q 215.274 55.048 212.08 56.718 L 212.08 56.718 L 212.08 56.718 Q 208.886 58.387 205.692 60.274 L 205.692 60.274 L 205.692 60.274 Q 201.192 62.887 198.143 65.791 L 198.143 65.791 L 198.143 65.791 Q 195.095 68.694 195.095 73.34 L 195.095 73.34 L 195.095 117.618 L 188.707 117.618 L 188.707 48.806 L 195.095 48.806 L 195.095 60.274 L 195.095 60.274 Q 199.014 57.226 205.257 53.741 L 205.257 53.741 L 205.257 53.741 Q 211.499 50.257 218.323 47.354 L 218.323 47.354 Z  M 230.082 102.751 L 230.082 95.32 L 230.082 95.32 Q 230.082 87.89 234.51 83.446 L 234.51 83.446 L 234.51 83.446 Q 238.937 79.002 246.196 79.002 L 246.196 79.002 L 246.196 79.002 Q 249.971 79.002 255.052 79.373 L 255.052 79.373 L 255.052 79.373 Q 260.133 79.744 264.343 80.931 L 264.343 80.931 L 264.343 80.931 Q 270.295 82.712 274.07 85.68 L 274.07 85.68 L 274.07 65.501 L 274.07 65.501 Q 274.07 54.758 263.515 54.758 L 263.515 54.758 L 248.767 54.758 L 248.767 54.758 Q 238.212 54.758 238.212 65.501 L 238.212 65.501 L 238.212 68.404 L 231.824 67.388 L 231.824 65.065 L 231.824 65.065 Q 231.824 57.661 236.252 53.233 L 236.252 53.233 L 236.252 53.233 Q 240.679 48.806 247.938 48.806 L 247.938 48.806 L 264.343 48.806 L 264.343 48.806 Q 271.602 48.806 276.029 53.233 L 276.029 53.233 L 276.029 53.233 Q 280.457 57.661 280.457 65.065 L 280.457 65.065 L 280.457 117.618 L 274.07 117.618 L 274.07 111.521 L 274.07 111.521 Q 270.295 114.424 264.343 116.166 L 264.343 116.166 L 264.343 116.166 Q 260.133 117.473 255.052 118.271 L 255.052 118.271 L 255.052 118.271 Q 249.971 119.07 246.196 119.07 L 246.196 119.07 L 246.196 119.07 Q 238.937 119.07 234.51 114.626 L 234.51 114.626 L 234.51 114.626 Q 230.082 110.182 230.082 102.751 L 230.082 102.751 Z  M 274.07 99.108 L 274.07 97.953 L 274.07 97.953 Q 274.07 93.331 271.239 90.876 L 271.239 90.876 L 271.239 90.876 Q 268.408 88.42 263.472 86.832 L 263.472 86.832 L 263.472 86.832 Q 259.262 85.532 254.544 85.243 L 254.544 85.243 L 254.544 85.243 Q 249.825 84.954 247.067 84.954 L 247.067 84.954 L 247.067 84.954 Q 236.469 84.954 236.469 95.642 L 236.469 95.642 L 236.469 102.43 L 236.469 102.43 Q 236.469 113.118 247.067 113.118 L 247.067 113.118 L 247.067 113.118 Q 249.825 113.118 254.544 112.323 L 254.544 112.323 L 254.544 112.323 Q 259.262 111.529 263.472 110.229 L 263.472 110.229 L 263.472 110.229 Q 268.408 108.64 271.239 106.185 L 271.239 106.185 L 271.239 106.185 Q 274.07 103.73 274.07 99.108 L 274.07 99.108 Z  M 294.975 54.467 L 294.975 48.806 L 306.734 48.806 L 306.734 31.239 L 313.121 30.078 L 313.121 48.806 L 334.462 48.806 L 333.446 54.467 L 313.121 54.467 L 313.121 100.95 L 313.121 100.95 Q 313.121 111.666 323.719 111.666 L 323.719 111.666 L 332.865 111.666 L 332.865 117.618 L 322.848 117.618 L 322.848 117.618 Q 315.589 117.618 311.162 113.19 L 311.162 113.19 L 311.162 113.19 Q 306.734 108.763 306.734 101.359 L 306.734 101.359 L 306.734 54.467 L 294.975 54.467 Z  M 399.065 68.84 L 392.677 69.856 L 392.677 65.501 L 392.677 65.501 Q 392.677 54.758 382.12 54.758 L 382.12 54.758 L 365.924 54.758 L 365.924 54.758 Q 355.367 54.758 355.367 65.501 L 355.367 65.501 L 355.367 100.923 L 355.367 100.923 Q 355.367 111.666 365.924 111.666 L 365.924 111.666 L 382.12 111.666 L 382.12 111.666 Q 392.677 111.666 392.677 100.923 L 392.677 100.923 L 392.677 95.407 L 399.065 96.423 L 399.065 101.359 L 399.065 101.359 Q 399.065 108.763 394.637 113.19 L 394.637 113.19 L 394.637 113.19 Q 390.209 117.618 382.95 117.618 L 382.95 117.618 L 365.094 117.618 L 365.094 117.618 Q 357.835 117.618 353.407 113.19 L 353.407 113.19 L 353.407 113.19 Q 348.979 108.763 348.979 101.359 L 348.979 101.359 L 348.979 65.065 L 348.979 65.065 Q 348.979 57.661 353.407 53.233 L 353.407 53.233 L 353.407 53.233 Q 357.835 48.806 365.094 48.806 L 365.094 48.806 L 382.95 48.806 L 382.95 48.806 Q 390.209 48.806 394.637 53.233 L 394.637 53.233 L 394.637 53.233 Q 399.065 57.661 399.065 65.065 L 399.065 65.065 L 399.065 68.84 Z  M 470.2 117.618 L 463.812 117.618 L 463.812 64.194 L 463.812 64.194 Q 463.812 53.451 453.215 53.451 L 453.215 53.451 L 453.215 53.451 Q 450.456 53.451 445.883 54.467 L 445.883 54.467 L 445.883 54.467 Q 441.31 55.484 437.1 56.79 L 437.1 56.79 L 437.1 56.79 Q 432.164 58.387 429.333 60.855 L 429.333 60.855 L 429.333 60.855 Q 426.503 63.323 426.503 67.969 L 426.503 67.969 L 426.503 117.618 L 420.115 117.618 L 420.115 20.932 L 426.503 19.771 L 426.503 55.338 L 426.503 55.338 Q 430.277 52.435 436.229 50.693 L 436.229 50.693 L 436.229 50.693 Q 440.439 49.386 445.375 48.37 L 445.375 48.37 L 445.375 48.37 Q 450.311 47.354 454.086 47.354 L 454.086 47.354 L 454.086 47.354 Q 461.344 47.354 465.772 51.782 L 465.772 51.782 L 465.772 51.782 Q 470.2 56.209 470.2 63.613 L 470.2 63.613 L 470.2 117.618 Z " fill-rule="evenodd" fill="rgb(255,255,255)" vector-effect="non-scaling-stroke" stroke-width="7" stroke="rgb(51,51,51)" stroke-linejoin="miter" stroke-linecap="square" stroke-miterlimit="3"/><path d=" M 176.157 200.409 L 176.157 160.63 L 198.077 160.63 L 198.077 163.138 L 178.845 163.138 L 178.845 178.369 L 196.345 178.369 L 196.345 180.878 L 178.845 180.878 L 178.845 197.9 L 198.316 197.9 L 198.316 200.409 L 176.157 200.409 Z  M 206.678 194.317 L 206.678 178.19 L 206.678 178.19 Q 206.678 175.144 208.5 173.322 L 208.5 173.322 L 208.5 173.322 Q 210.322 171.5 213.308 171.5 L 213.308 171.5 L 213.308 171.5 Q 214.861 171.5 216.892 171.918 L 216.892 171.918 L 216.892 171.918 Q 218.923 172.336 220.655 172.874 L 220.655 172.874 L 220.655 172.874 Q 223.104 173.591 224.657 174.785 L 224.657 174.785 L 224.657 160.63 L 227.285 160.152 L 227.285 200.409 L 224.657 200.409 L 224.657 197.721 L 224.657 197.721 Q 223.104 198.916 220.655 199.633 L 220.655 199.633 L 220.655 199.633 Q 218.923 200.17 216.892 200.588 L 216.892 200.588 L 216.892 200.588 Q 214.861 201.006 213.308 201.006 L 213.308 201.006 L 213.308 201.006 Q 210.322 201.006 208.5 199.185 L 208.5 199.185 L 208.5 199.185 Q 206.678 197.363 206.678 194.317 L 206.678 194.317 Z  M 224.657 192.585 L 224.657 179.922 L 224.657 179.922 Q 224.657 178.011 223.492 176.995 L 223.492 176.995 L 223.492 176.995 Q 222.327 175.98 220.297 175.323 L 220.297 175.323 L 220.297 175.323 Q 218.564 174.785 216.683 174.367 L 216.683 174.367 L 216.683 174.367 Q 214.802 173.949 213.667 173.949 L 213.667 173.949 L 213.667 173.949 Q 209.307 173.949 209.307 178.369 L 209.307 178.369 L 209.307 194.137 L 209.307 194.137 Q 209.307 198.557 213.667 198.557 L 213.667 198.557 L 213.667 198.557 Q 214.802 198.557 216.683 198.139 L 216.683 198.139 L 216.683 198.139 Q 218.564 197.721 220.297 197.184 L 220.297 197.184 L 220.297 197.184 Q 222.327 196.527 223.492 195.511 L 223.492 195.511 L 223.492 195.511 Q 224.657 194.496 224.657 192.585 L 224.657 192.585 Z  M 255.119 172.097 L 257.747 172.097 L 257.747 200.409 L 255.119 200.409 L 255.119 197.721 L 255.119 197.721 Q 253.566 198.916 251.117 199.633 L 251.117 199.633 L 251.117 199.633 Q 249.385 200.17 247.354 200.588 L 247.354 200.588 L 247.354 200.588 Q 245.323 201.006 243.77 201.006 L 243.77 201.006 L 243.77 201.006 Q 240.784 201.006 238.962 199.185 L 238.962 199.185 L 238.962 199.185 Q 237.14 197.363 237.14 194.317 L 237.14 194.317 L 237.14 172.097 L 239.768 172.097 L 239.768 194.078 L 239.768 194.078 Q 239.768 198.498 244.128 198.498 L 244.128 198.498 L 244.128 198.498 Q 245.263 198.498 247.145 198.08 L 247.145 198.08 L 247.145 198.08 Q 249.026 197.661 250.758 197.124 L 250.758 197.124 L 250.758 197.124 Q 252.789 196.467 253.954 195.451 L 253.954 195.451 L 253.954 195.451 Q 255.119 194.436 255.119 192.525 L 255.119 192.525 L 255.119 172.097 Z  M 287.91 180.34 L 285.282 180.758 L 285.282 178.966 L 285.282 178.966 Q 285.282 174.546 280.938 174.546 L 280.938 174.546 L 274.275 174.546 L 274.275 174.546 Q 269.931 174.546 269.931 178.966 L 269.931 178.966 L 269.931 193.54 L 269.931 193.54 Q 269.931 197.96 274.275 197.96 L 274.275 197.96 L 280.938 197.96 L 280.938 197.96 Q 285.282 197.96 285.282 193.54 L 285.282 193.54 L 285.282 191.27 L 287.91 191.689 L 287.91 193.719 L 287.91 193.719 Q 287.91 196.766 286.088 198.587 L 286.088 198.587 L 286.088 198.587 Q 284.266 200.409 281.28 200.409 L 281.28 200.409 L 273.933 200.409 L 273.933 200.409 Q 270.947 200.409 269.125 198.587 L 269.125 198.587 L 269.125 198.587 Q 267.303 196.766 267.303 193.719 L 267.303 193.719 L 267.303 178.787 L 267.303 178.787 Q 267.303 175.741 269.125 173.919 L 269.125 173.919 L 269.125 173.919 Q 270.947 172.097 273.933 172.097 L 273.933 172.097 L 281.28 172.097 L 281.28 172.097 Q 284.266 172.097 286.088 173.919 L 286.088 173.919 L 286.088 173.919 Q 287.91 175.741 287.91 178.787 L 287.91 178.787 L 287.91 180.34 Z  M 295.794 194.292 L 295.794 191.235 L 295.794 191.235 Q 295.794 188.178 297.616 186.349 L 297.616 186.349 L 297.616 186.349 Q 299.437 184.521 302.424 184.521 L 302.424 184.521 L 302.424 184.521 Q 303.977 184.521 306.067 184.674 L 306.067 184.674 L 306.067 184.674 Q 308.158 184.826 309.89 185.315 L 309.89 185.315 L 309.89 185.315 Q 312.339 186.048 313.892 187.269 L 313.892 187.269 L 313.892 178.966 L 313.892 178.966 Q 313.892 174.546 309.549 174.546 L 309.549 174.546 L 303.481 174.546 L 303.481 174.546 Q 299.139 174.546 299.139 178.966 L 299.139 178.966 L 299.139 180.161 L 296.511 179.743 L 296.511 178.787 L 296.511 178.787 Q 296.511 175.741 298.332 173.919 L 298.332 173.919 L 298.332 173.919 Q 300.154 172.097 303.141 172.097 L 303.141 172.097 L 309.89 172.097 L 309.89 172.097 Q 312.876 172.097 314.698 173.919 L 314.698 173.919 L 314.698 173.919 Q 316.52 175.741 316.52 178.787 L 316.52 178.787 L 316.52 200.409 L 313.892 200.409 L 313.892 197.9 L 313.892 197.9 Q 312.339 199.095 309.89 199.812 L 309.89 199.812 L 309.89 199.812 Q 308.158 200.349 306.067 200.678 L 306.067 200.678 L 306.067 200.678 Q 303.977 201.006 302.424 201.006 L 302.424 201.006 L 302.424 201.006 Q 299.437 201.006 297.616 199.178 L 297.616 199.178 L 297.616 199.178 Q 295.794 197.35 295.794 194.292 L 295.794 194.292 Z  M 313.892 192.793 L 313.892 192.318 L 313.892 192.318 Q 313.892 190.416 312.727 189.406 L 312.727 189.406 L 312.727 189.406 Q 311.562 188.396 309.531 187.742 L 309.531 187.742 L 309.531 187.742 Q 307.799 187.208 305.858 187.089 L 305.858 187.089 L 305.858 187.089 Q 303.917 186.97 302.782 186.97 L 302.782 186.97 L 302.782 186.97 Q 298.422 186.97 298.422 191.367 L 298.422 191.367 L 298.422 194.16 L 298.422 194.16 Q 298.422 198.557 302.782 198.557 L 302.782 198.557 L 302.782 198.557 Q 303.917 198.557 305.858 198.231 L 305.858 198.231 L 305.858 198.231 Q 307.799 197.904 309.531 197.369 L 309.531 197.369 L 309.531 197.369 Q 311.562 196.715 312.727 195.705 L 312.727 195.705 L 312.727 195.705 Q 313.892 194.695 313.892 192.793 L 313.892 192.793 Z  M 325.778 194.317 L 325.778 178.19 L 325.778 178.19 Q 325.778 175.144 327.599 173.322 L 327.599 173.322 L 327.599 173.322 Q 329.421 171.5 332.408 171.5 L 332.408 171.5 L 332.408 171.5 Q 333.961 171.5 335.991 171.918 L 335.991 171.918 L 335.991 171.918 Q 338.022 172.336 339.754 172.874 L 339.754 172.874 L 339.754 172.874 Q 342.203 173.591 343.756 174.785 L 343.756 174.785 L 343.756 160.63 L 346.384 160.152 L 346.384 200.409 L 343.756 200.409 L 343.756 197.721 L 343.756 197.721 Q 342.203 198.916 339.754 199.633 L 339.754 199.633 L 339.754 199.633 Q 338.022 200.17 335.991 200.588 L 335.991 200.588 L 335.991 200.588 Q 333.961 201.006 332.408 201.006 L 332.408 201.006 L 332.408 201.006 Q 329.421 201.006 327.599 199.185 L 327.599 199.185 L 327.599 199.185 Q 325.778 197.363 325.778 194.317 L 325.778 194.317 Z  M 343.756 192.585 L 343.756 179.922 L 343.756 179.922 Q 343.756 178.011 342.591 176.995 L 342.591 176.995 L 342.591 176.995 Q 341.427 175.98 339.396 175.323 L 339.396 175.323 L 339.396 175.323 Q 337.664 174.785 335.782 174.367 L 335.782 174.367 L 335.782 174.367 Q 333.901 173.949 332.766 173.949 L 332.766 173.949 L 332.766 173.949 Q 328.406 173.949 328.406 178.369 L 328.406 178.369 L 328.406 194.137 L 328.406 194.137 Q 328.406 198.557 332.766 198.557 L 332.766 198.557 L 332.766 198.557 Q 333.901 198.557 335.782 198.139 L 335.782 198.139 L 335.782 198.139 Q 337.664 197.721 339.396 197.184 L 339.396 197.184 L 339.396 197.184 Q 341.427 196.527 342.591 195.511 L 342.591 195.511 L 342.591 195.511 Q 343.756 194.496 343.756 192.585 L 343.756 192.585 Z  M 377.145 178.787 L 377.145 193.719 L 377.145 193.719 Q 377.145 196.766 375.323 198.587 L 375.323 198.587 L 375.323 198.587 Q 373.501 200.409 370.515 200.409 L 370.515 200.409 L 362.571 200.409 L 362.571 200.409 Q 359.584 200.409 357.763 198.587 L 357.763 198.587 L 357.763 198.587 Q 355.941 196.766 355.941 193.719 L 355.941 193.719 L 355.941 178.787 L 355.941 178.787 Q 355.941 175.741 357.763 173.919 L 357.763 173.919 L 357.763 173.919 Q 359.584 172.097 362.571 172.097 L 362.571 172.097 L 370.515 172.097 L 370.515 172.097 Q 373.501 172.097 375.323 173.919 L 375.323 173.919 L 375.323 173.919 Q 377.145 175.741 377.145 178.787 L 377.145 178.787 Z  M 374.516 178.966 L 374.516 178.966 L 374.516 178.966 Q 374.516 174.546 370.156 174.546 L 370.156 174.546 L 362.929 174.546 L 362.929 174.546 Q 358.569 174.546 358.569 178.966 L 358.569 178.966 L 358.569 193.54 L 358.569 193.54 Q 358.569 197.96 362.929 197.96 L 362.929 197.96 L 370.156 197.96 L 370.156 197.96 Q 374.516 197.96 374.516 193.54 L 374.516 193.54 L 374.516 178.966 Z  M 398.886 171.5 L 399.125 173.949 L 399.125 173.949 Q 397.632 174.666 396.318 175.353 L 396.318 175.353 L 396.318 175.353 Q 395.003 176.04 393.689 176.816 L 393.689 176.816 L 393.689 176.816 Q 391.838 177.891 390.584 179.086 L 390.584 179.086 L 390.584 179.086 Q 389.329 180.28 389.329 182.192 L 389.329 182.192 L 389.329 200.409 L 386.701 200.409 L 386.701 172.097 L 389.329 172.097 L 389.329 176.816 L 389.329 176.816 Q 390.942 175.562 393.51 174.128 L 393.51 174.128 L 393.51 174.128 Q 396.079 172.695 398.886 171.5 L 398.886 171.5 Z  M 424.51 186.194 L 406.531 186.194 L 406.531 193.54 L 406.531 193.54 Q 406.531 197.96 410.891 197.96 L 410.891 197.96 L 417.7 197.96 L 417.7 197.96 Q 422.061 197.96 422.061 193.54 L 422.061 193.54 L 422.061 191.868 L 424.629 192.286 L 424.629 193.719 L 424.629 193.719 Q 424.629 196.766 422.807 198.587 L 422.807 198.587 L 422.807 198.587 Q 420.986 200.409 417.999 200.409 L 417.999 200.409 L 410.533 200.409 L 410.533 200.409 Q 407.547 200.409 405.725 198.587 L 405.725 198.587 L 405.725 198.587 Q 403.903 196.766 403.903 193.719 L 403.903 193.719 L 403.903 178.787 L 403.903 178.787 Q 403.903 175.741 405.725 173.919 L 405.725 173.919 L 405.725 173.919 Q 407.547 172.097 410.533 172.097 L 410.533 172.097 L 417.88 172.097 L 417.88 172.097 Q 420.866 172.097 422.688 173.919 L 422.688 173.919 L 422.688 173.919 Q 424.51 175.741 424.51 178.787 L 424.51 178.787 L 424.51 186.194 Z  M 406.531 178.847 L 406.531 183.864 L 421.941 183.864 L 421.941 178.847 L 421.941 178.847 Q 421.941 174.427 417.581 174.427 L 417.581 174.427 L 410.891 174.427 L 410.891 174.427 Q 406.531 174.427 406.531 178.847 L 406.531 178.847 Z  M 450.551 192.346 L 450.551 192.346 L 450.551 192.346 Q 450.551 190.613 449.536 189.747 L 449.536 189.747 L 449.536 189.747 Q 448.52 188.881 446.012 188.165 L 446.012 188.165 L 446.012 188.165 Q 444.041 187.567 442.577 187.179 L 442.577 187.179 L 442.577 187.179 Q 441.114 186.791 439.083 186.194 L 439.083 186.194 L 439.083 186.194 Q 437.769 185.835 436.664 185.327 L 436.664 185.327 L 436.664 185.327 Q 435.559 184.82 434.753 184.133 L 434.753 184.133 L 434.753 184.133 Q 433.947 183.446 433.499 182.52 L 433.499 182.52 L 433.499 182.52 Q 433.051 181.594 433.051 180.28 L 433.051 180.28 L 433.051 178.787 L 433.051 178.787 Q 433.051 175.741 434.872 173.919 L 434.872 173.919 L 434.872 173.919 Q 436.694 172.097 439.681 172.097 L 439.681 172.097 L 446.191 172.097 L 446.191 172.097 Q 449.178 172.097 450.999 173.919 L 450.999 173.919 L 450.999 173.919 Q 452.821 175.741 452.821 178.787 L 452.821 178.787 L 452.821 180.101 L 450.253 180.519 L 450.253 178.966 L 450.253 178.966 Q 450.253 174.546 445.91 174.546 L 445.91 174.546 L 440.081 174.546 L 440.081 174.546 Q 435.739 174.546 435.739 178.966 L 435.739 178.966 L 435.739 179.922 L 435.739 179.922 Q 435.739 181.833 436.929 182.64 L 436.929 182.64 L 436.929 182.64 Q 438.12 183.446 440.203 184.043 L 440.203 184.043 L 440.203 184.043 Q 442.048 184.521 443.715 184.999 L 443.715 184.999 L 443.715 184.999 Q 445.382 185.477 447.286 186.014 L 447.286 186.014 L 447.286 186.014 Q 449.965 186.851 451.572 188.224 L 451.572 188.224 L 451.572 188.224 Q 453.179 189.598 453.179 192.226 L 453.179 192.226 L 453.179 193.719 L 453.179 193.719 Q 453.179 196.766 451.358 198.587 L 451.358 198.587 L 451.358 198.587 Q 449.536 200.409 446.549 200.409 L 446.549 200.409 L 439.501 200.409 L 439.501 200.409 Q 436.515 200.409 434.693 198.587 L 434.693 198.587 L 434.693 198.587 Q 432.872 196.766 432.872 193.719 L 432.872 193.719 L 432.872 192.585 L 435.5 192.166 L 435.5 193.54 L 435.5 193.54 Q 435.5 197.96 439.843 197.96 L 439.843 197.96 L 446.208 197.96 L 446.208 197.96 Q 450.551 197.96 450.551 193.54 L 450.551 193.54 L 450.551 192.346 Z  M 75.813 178.19 L 75.813 194.317 L 75.813 194.317 Q 75.813 197.363 73.991 199.185 L 73.991 199.185 L 73.991 199.185 Q 72.169 201.006 69.183 201.006 L 69.183 201.006 L 69.183 201.006 Q 67.63 201.006 65.599 200.588 L 65.599 200.588 L 65.599 200.588 Q 63.568 200.17 61.836 199.633 L 61.836 199.633 L 61.836 199.633 Q 59.387 198.916 57.834 197.721 L 57.834 197.721 L 57.834 211.757 L 55.206 212.235 L 55.206 172.097 L 57.834 172.097 L 57.834 174.785 L 57.834 174.785 Q 59.387 173.591 61.836 172.874 L 61.836 172.874 L 61.836 172.874 Q 63.568 172.336 65.599 171.918 L 65.599 171.918 L 65.599 171.918 Q 67.63 171.5 69.183 171.5 L 69.183 171.5 L 69.183 171.5 Q 72.169 171.5 73.991 173.322 L 73.991 173.322 L 73.991 173.322 Q 75.813 175.144 75.813 178.19 L 75.813 178.19 Z  M 57.834 179.922 L 57.834 192.585 L 57.834 192.585 Q 57.834 194.496 58.999 195.511 L 58.999 195.511 L 58.999 195.511 Q 60.164 196.527 62.194 197.184 L 62.194 197.184 L 62.194 197.184 Q 63.927 197.721 65.808 198.139 L 65.808 198.139 L 65.808 198.139 Q 67.689 198.557 68.824 198.557 L 68.824 198.557 L 68.824 198.557 Q 73.184 198.557 73.184 194.137 L 73.184 194.137 L 73.184 178.369 L 73.184 178.369 Q 73.184 173.949 68.824 173.949 L 68.824 173.949 L 68.824 173.949 Q 67.689 173.949 65.808 174.367 L 65.808 174.367 L 65.808 174.367 Q 63.927 174.785 62.194 175.323 L 62.194 175.323 L 62.194 175.323 Q 60.164 175.98 58.999 176.995 L 58.999 176.995 L 58.999 176.995 Q 57.834 178.011 57.834 179.922 L 57.834 179.922 Z  M 84.593 194.292 L 84.593 191.235 L 84.593 191.235 Q 84.593 188.178 86.414 186.349 L 86.414 186.349 L 86.414 186.349 Q 88.236 184.521 91.223 184.521 L 91.223 184.521 L 91.223 184.521 Q 92.776 184.521 94.866 184.674 L 94.866 184.674 L 94.866 184.674 Q 96.957 184.826 98.689 185.315 L 98.689 185.315 L 98.689 185.315 Q 101.138 186.048 102.691 187.269 L 102.691 187.269 L 102.691 178.966 L 102.691 178.966 Q 102.691 174.546 98.348 174.546 L 98.348 174.546 L 92.28 174.546 L 92.28 174.546 Q 87.937 174.546 87.937 178.966 L 87.937 178.966 L 87.937 180.161 L 85.309 179.743 L 85.309 178.787 L 85.309 178.787 Q 85.309 175.741 87.131 173.919 L 87.131 173.919 L 87.131 173.919 Q 88.953 172.097 91.939 172.097 L 91.939 172.097 L 98.689 172.097 L 98.689 172.097 Q 101.675 172.097 103.497 173.919 L 103.497 173.919 L 103.497 173.919 Q 105.319 175.741 105.319 178.787 L 105.319 178.787 L 105.319 200.409 L 102.691 200.409 L 102.691 197.9 L 102.691 197.9 Q 101.138 199.095 98.689 199.812 L 98.689 199.812 L 98.689 199.812 Q 96.957 200.349 94.866 200.678 L 94.866 200.678 L 94.866 200.678 Q 92.776 201.006 91.223 201.006 L 91.223 201.006 L 91.223 201.006 Q 88.236 201.006 86.414 199.178 L 86.414 199.178 L 86.414 199.178 Q 84.593 197.35 84.593 194.292 L 84.593 194.292 Z  M 102.691 192.793 L 102.691 192.318 L 102.691 192.318 Q 102.691 190.416 101.526 189.406 L 101.526 189.406 L 101.526 189.406 Q 100.361 188.396 98.33 187.742 L 98.33 187.742 L 98.33 187.742 Q 96.598 187.208 94.657 187.089 L 94.657 187.089 L 94.657 187.089 Q 92.716 186.97 91.581 186.97 L 91.581 186.97 L 91.581 186.97 Q 87.221 186.97 87.221 191.367 L 87.221 191.367 L 87.221 194.16 L 87.221 194.16 Q 87.221 198.557 91.581 198.557 L 91.581 198.557 L 91.581 198.557 Q 92.716 198.557 94.657 198.231 L 94.657 198.231 L 94.657 198.231 Q 96.598 197.904 98.33 197.369 L 98.33 197.369 L 98.33 197.369 Q 100.361 196.715 101.526 195.705 L 101.526 195.705 L 101.526 195.705 Q 102.691 194.695 102.691 192.793 L 102.691 192.793 Z  M 127.359 171.5 L 127.597 173.949 L 127.597 173.949 Q 126.104 174.666 124.79 175.353 L 124.79 175.353 L 124.79 175.353 Q 123.476 176.04 122.162 176.816 L 122.162 176.816 L 122.162 176.816 Q 120.311 177.891 119.056 179.086 L 119.056 179.086 L 119.056 179.086 Q 117.802 180.28 117.802 182.192 L 117.802 182.192 L 117.802 200.409 L 115.174 200.409 L 115.174 172.097 L 117.802 172.097 L 117.802 176.816 L 117.802 176.816 Q 119.415 175.562 121.983 174.128 L 121.983 174.128 L 121.983 174.128 Q 124.551 172.695 127.359 171.5 L 127.359 171.5 Z  M 132.197 194.292 L 132.197 191.235 L 132.197 191.235 Q 132.197 188.178 134.018 186.349 L 134.018 186.349 L 134.018 186.349 Q 135.84 184.521 138.826 184.521 L 138.826 184.521 L 138.826 184.521 Q 140.379 184.521 142.47 184.674 L 142.47 184.674 L 142.47 184.674 Q 144.56 184.826 146.293 185.315 L 146.293 185.315 L 146.293 185.315 Q 148.741 186.048 150.294 187.269 L 150.294 187.269 L 150.294 178.966 L 150.294 178.966 Q 150.294 174.546 145.952 174.546 L 145.952 174.546 L 139.884 174.546 L 139.884 174.546 Q 135.541 174.546 135.541 178.966 L 135.541 178.966 L 135.541 180.161 L 132.913 179.743 L 132.913 178.787 L 132.913 178.787 Q 132.913 175.741 134.735 173.919 L 134.735 173.919 L 134.735 173.919 Q 136.557 172.097 139.543 172.097 L 139.543 172.097 L 146.293 172.097 L 146.293 172.097 Q 149.279 172.097 151.101 173.919 L 151.101 173.919 L 151.101 173.919 Q 152.922 175.741 152.922 178.787 L 152.922 178.787 L 152.922 200.409 L 150.294 200.409 L 150.294 197.9 L 150.294 197.9 Q 148.741 199.095 146.293 199.812 L 146.293 199.812 L 146.293 199.812 Q 144.56 200.349 142.47 200.678 L 142.47 200.678 L 142.47 200.678 Q 140.379 201.006 138.826 201.006 L 138.826 201.006 L 138.826 201.006 Q 135.84 201.006 134.018 199.178 L 134.018 199.178 L 134.018 199.178 Q 132.197 197.35 132.197 194.292 L 132.197 194.292 Z  M 150.294 192.793 L 150.294 192.318 L 150.294 192.318 Q 150.294 190.416 149.13 189.406 L 149.13 189.406 L 149.13 189.406 Q 147.965 188.396 145.934 187.742 L 145.934 187.742 L 145.934 187.742 Q 144.202 187.208 142.261 187.089 L 142.261 187.089 L 142.261 187.089 Q 140.32 186.97 139.185 186.97 L 139.185 186.97 L 139.185 186.97 Q 134.825 186.97 134.825 191.367 L 134.825 191.367 L 134.825 194.16 L 134.825 194.16 Q 134.825 198.557 139.185 198.557 L 139.185 198.557 L 139.185 198.557 Q 140.32 198.557 142.261 198.231 L 142.261 198.231 L 142.261 198.231 Q 144.202 197.904 145.934 197.369 L 145.934 197.369 L 145.934 197.369 Q 147.965 196.715 149.13 195.705 L 149.13 195.705 L 149.13 195.705 Q 150.294 194.695 150.294 192.793 L 150.294 192.793 Z  M 52.534 68.404 L 52.534 68.404 L 52.534 68.404 Q 46.001 66.517 41.718 62.96 L 41.718 62.96 L 41.718 62.96 Q 37.436 59.403 37.436 52.725 L 37.436 52.725 L 37.436 37.192 L 37.436 37.192 Q 37.436 29.788 41.863 25.36 L 41.863 25.36 L 41.863 25.36 Q 46.291 20.932 53.55 20.932 L 53.55 20.932 L 78.52 20.932 L 78.52 20.932 Q 85.779 20.932 90.206 25.36 L 90.206 25.36 L 90.206 25.36 Q 94.634 29.788 94.634 37.192 L 94.634 37.192 L 94.634 47.209 L 88.101 48.225 L 88.101 37.772 L 88.101 37.772 Q 88.101 27.029 77.504 27.029 L 77.504 27.029 L 54.566 27.029 L 54.566 27.029 Q 43.968 27.029 43.968 37.772 L 43.968 37.772 L 43.968 51.709 L 43.968 51.709 Q 43.968 56.5 46.799 58.823 L 46.799 58.823 L 46.799 58.823 Q 49.63 61.145 54.131 62.452 L 54.131 62.452 L 54.131 62.452 Q 58.631 63.759 61.752 64.63 L 61.752 64.63 L 61.752 64.63 Q 64.873 65.501 67.632 66.299 L 67.632 66.299 L 67.632 66.299 Q 70.39 67.098 73.221 67.896 L 73.221 67.896 L 73.221 67.896 Q 76.052 68.694 79.972 69.856 L 79.972 69.856 L 79.972 69.856 Q 86.504 71.743 90.787 75.227 L 90.787 75.227 L 90.787 75.227 Q 95.07 78.711 95.07 85.68 L 95.07 85.68 L 95.07 101.359 L 95.07 101.359 Q 95.07 108.763 90.642 113.19 L 90.642 113.19 L 90.642 113.19 Q 86.214 117.618 78.955 117.618 L 78.955 117.618 L 53.114 117.618 L 53.114 117.618 Q 45.856 117.618 41.428 113.19 L 41.428 113.19 L 41.428 113.19 Q 37 108.763 37 101.359 L 37 101.359 L 37 91.196 L 43.533 90.035 L 43.533 100.778 L 43.533 100.778 Q 43.533 111.521 54.131 111.521 L 54.131 111.521 L 77.939 111.521 L 77.939 111.521 Q 88.537 111.521 88.537 100.778 L 88.537 100.778 L 88.537 86.551 L 88.537 86.551 Q 88.537 81.905 85.996 79.51 L 85.996 79.51 L 85.996 79.51 Q 83.456 77.115 78.375 75.663 L 78.375 75.663 L 78.375 75.663 Q 74.165 74.501 71.189 73.63 L 71.189 73.63 L 71.189 73.63 Q 68.212 72.759 65.382 72.033 L 65.382 72.033 L 65.382 72.033 Q 62.551 71.308 59.575 70.437 L 59.575 70.437 L 59.575 70.437 Q 56.599 69.565 52.534 68.404 Z  M 167.657 68.84 L 161.269 69.856 L 161.269 65.501 L 161.269 65.501 Q 161.269 54.758 150.713 54.758 L 150.713 54.758 L 134.516 54.758 L 134.516 54.758 Q 123.959 54.758 123.959 65.501 L 123.959 65.501 L 123.959 100.923 L 123.959 100.923 Q 123.959 111.666 134.516 111.666 L 134.516 111.666 L 150.713 111.666 L 150.713 111.666 Q 161.269 111.666 161.269 100.923 L 161.269 100.923 L 161.269 95.407 L 167.657 96.423 L 167.657 101.359 L 167.657 101.359 Q 167.657 108.763 163.229 113.19 L 163.229 113.19 L 163.229 113.19 Q 158.801 117.618 151.542 117.618 L 151.542 117.618 L 133.686 117.618 L 133.686 117.618 Q 126.427 117.618 122 113.19 L 122 113.19 L 122 113.19 Q 117.572 108.763 117.572 101.359 L 117.572 101.359 L 117.572 65.065 L 117.572 65.065 Q 117.572 57.661 122 53.233 L 122 53.233 L 122 53.233 Q 126.427 48.806 133.686 48.806 L 133.686 48.806 L 151.542 48.806 L 151.542 48.806 Q 158.801 48.806 163.229 53.233 L 163.229 53.233 L 163.229 53.233 Q 167.657 57.661 167.657 65.065 L 167.657 65.065 L 167.657 68.84 Z  M 218.323 47.354 L 218.903 53.306 L 218.903 53.306 Q 215.274 55.048 212.08 56.718 L 212.08 56.718 L 212.08 56.718 Q 208.886 58.387 205.692 60.274 L 205.692 60.274 L 205.692 60.274 Q 201.192 62.887 198.143 65.791 L 198.143 65.791 L 198.143 65.791 Q 195.095 68.694 195.095 73.34 L 195.095 73.34 L 195.095 117.618 L 188.707 117.618 L 188.707 48.806 L 195.095 48.806 L 195.095 60.274 L 195.095 60.274 Q 199.014 57.226 205.257 53.741 L 205.257 53.741 L 205.257 53.741 Q 211.499 50.257 218.323 47.354 L 218.323 47.354 Z  M 230.082 102.751 L 230.082 95.32 L 230.082 95.32 Q 230.082 87.89 234.51 83.446 L 234.51 83.446 L 234.51 83.446 Q 238.937 79.002 246.196 79.002 L 246.196 79.002 L 246.196 79.002 Q 249.971 79.002 255.052 79.373 L 255.052 79.373 L 255.052 79.373 Q 260.133 79.744 264.343 80.931 L 264.343 80.931 L 264.343 80.931 Q 270.295 82.712 274.07 85.68 L 274.07 85.68 L 274.07 65.501 L 274.07 65.501 Q 274.07 54.758 263.515 54.758 L 263.515 54.758 L 248.767 54.758 L 248.767 54.758 Q 238.212 54.758 238.212 65.501 L 238.212 65.501 L 238.212 68.404 L 231.824 67.388 L 231.824 65.065 L 231.824 65.065 Q 231.824 57.661 236.252 53.233 L 236.252 53.233 L 236.252 53.233 Q 240.679 48.806 247.938 48.806 L 247.938 48.806 L 264.343 48.806 L 264.343 48.806 Q 271.602 48.806 276.029 53.233 L 276.029 53.233 L 276.029 53.233 Q 280.457 57.661 280.457 65.065 L 280.457 65.065 L 280.457 117.618 L 274.07 117.618 L 274.07 111.521 L 274.07 111.521 Q 270.295 114.424 264.343 116.166 L 264.343 116.166 L 264.343 116.166 Q 260.133 117.473 255.052 118.271 L 255.052 118.271 L 255.052 118.271 Q 249.971 119.07 246.196 119.07 L 246.196 119.07 L 246.196 119.07 Q 238.937 119.07 234.51 114.626 L 234.51 114.626 L 234.51 114.626 Q 230.082 110.182 230.082 102.751 L 230.082 102.751 Z  M 274.07 99.108 L 274.07 97.953 L 274.07 97.953 Q 274.07 93.331 271.239 90.876 L 271.239 90.876 L 271.239 90.876 Q 268.408 88.42 263.472 86.832 L 263.472 86.832 L 263.472 86.832 Q 259.262 85.532 254.544 85.243 L 254.544 85.243 L 254.544 85.243 Q 249.825 84.954 247.067 84.954 L 247.067 84.954 L 247.067 84.954 Q 236.469 84.954 236.469 95.642 L 236.469 95.642 L 236.469 102.43 L 236.469 102.43 Q 236.469 113.118 247.067 113.118 L 247.067 113.118 L 247.067 113.118 Q 249.825 113.118 254.544 112.323 L 254.544 112.323 L 254.544 112.323 Q 259.262 111.529 263.472 110.229 L 263.472 110.229 L 263.472 110.229 Q 268.408 108.64 271.239 106.185 L 271.239 106.185 L 271.239 106.185 Q 274.07 103.73 274.07 99.108 L 274.07 99.108 Z  M 294.975 54.467 L 294.975 48.806 L 306.734 48.806 L 306.734 31.239 L 313.121 30.078 L 313.121 48.806 L 334.462 48.806 L 333.446 54.467 L 313.121 54.467 L 313.121 100.95 L 313.121 100.95 Q 313.121 111.666 323.719 111.666 L 323.719 111.666 L 332.865 111.666 L 332.865 117.618 L 322.848 117.618 L 322.848 117.618 Q 315.589 117.618 311.162 113.19 L 311.162 113.19 L 311.162 113.19 Q 306.734 108.763 306.734 101.359 L 306.734 101.359 L 306.734 54.467 L 294.975 54.467 Z  M 399.065 68.84 L 392.677 69.856 L 392.677 65.501 L 392.677 65.501 Q 392.677 54.758 382.12 54.758 L 382.12 54.758 L 365.924 54.758 L 365.924 54.758 Q 355.367 54.758 355.367 65.501 L 355.367 65.501 L 355.367 100.923 L 355.367 100.923 Q 355.367 111.666 365.924 111.666 L 365.924 111.666 L 382.12 111.666 L 382.12 111.666 Q 392.677 111.666 392.677 100.923 L 392.677 100.923 L 392.677 95.407 L 399.065 96.423 L 399.065 101.359 L 399.065 101.359 Q 399.065 108.763 394.637 113.19 L 394.637 113.19 L 394.637 113.19 Q 390.209 117.618 382.95 117.618 L 382.95 117.618 L 365.094 117.618 L 365.094 117.618 Q 357.835 117.618 353.407 113.19 L 353.407 113.19 L 353.407 113.19 Q 348.979 108.763 348.979 101.359 L 348.979 101.359 L 348.979 65.065 L 348.979 65.065 Q 348.979 57.661 353.407 53.233 L 353.407 53.233 L 353.407 53.233 Q 357.835 48.806 365.094 48.806 L 365.094 48.806 L 382.95 48.806 L 382.95 48.806 Q 390.209 48.806 394.637 53.233 L 394.637 53.233 L 394.637 53.233 Q 399.065 57.661 399.065 65.065 L 399.065 65.065 L 399.065 68.84 Z  M 470.2 117.618 L 463.812 117.618 L 463.812 64.194 L 463.812 64.194 Q 463.812 53.451 453.215 53.451 L 453.215 53.451 L 453.215 53.451 Q 450.456 53.451 445.883 54.467 L 445.883 54.467 L 445.883 54.467 Q 441.31 55.484 437.1 56.79 L 437.1 56.79 L 437.1 56.79 Q 432.164 58.387 429.333 60.855 L 429.333 60.855 L 429.333 60.855 Q 426.503 63.323 426.503 67.969 L 426.503 67.969 L 426.503 117.618 L 420.115 117.618 L 420.115 20.932 L 426.503 19.771 L 426.503 55.338 L 426.503 55.338 Q 430.277 52.435 436.229 50.693 L 436.229 50.693 L 436.229 50.693 Q 440.439 49.386 445.375 48.37 L 445.375 48.37 L 445.375 48.37 Q 450.311 47.354 454.086 47.354 L 454.086 47.354 L 454.086 47.354 Q 461.344 47.354 465.772 51.782 L 465.772 51.782 L 465.772 51.782 Q 470.2 56.209 470.2 63.613 L 470.2 63.613 L 470.2 117.618 Z " fill-rule="evenodd" fill="rgb(255,255,255)"/><path d=" M 52.534 68.404 L 52.534 68.404 L 52.534 68.404 Q 46.001 66.517 41.718 62.96 L 41.718 62.96 L 41.718 62.96 Q 37.436 59.403 37.436 52.725 L 37.436 52.725 L 37.436 37.192 L 37.436 37.192 Q 37.436 29.788 41.863 25.36 L 41.863 25.36 L 41.863 25.36 Q 46.291 20.932 53.55 20.932 L 53.55 20.932 L 78.52 20.932 L 78.52 20.932 Q 85.779 20.932 90.206 25.36 L 90.206 25.36 L 90.206 25.36 Q 94.634 29.788 94.634 37.192 L 94.634 37.192 L 94.634 47.209 L 88.101 48.225 L 88.101 37.772 L 88.101 37.772 Q 88.101 27.029 77.504 27.029 L 77.504 27.029 L 54.566 27.029 L 54.566 27.029 Q 43.968 27.029 43.968 37.772 L 43.968 37.772 L 43.968 51.709 L 43.968 51.709 Q 43.968 56.5 46.799 58.823 L 46.799 58.823 L 46.799 58.823 Q 49.63 61.145 54.131 62.452 L 54.131 62.452 L 54.131 62.452 Q 58.631 63.759 61.752 64.63 L 61.752 64.63 L 61.752 64.63 Q 64.873 65.501 67.632 66.299 L 67.632 66.299 L 67.632 66.299 Q 70.39 67.098 73.221 67.896 L 73.221 67.896 L 73.221 67.896 Q 76.052 68.694 79.972 69.856 L 79.972 69.856 L 79.972 69.856 Q 86.504 71.743 90.787 75.227 L 90.787 75.227 L 90.787 75.227 Q 95.07 78.711 95.07 85.68 L 95.07 85.68 L 95.07 101.359 L 95.07 101.359 Q 95.07 108.763 90.642 113.19 L 90.642 113.19 L 90.642 113.19 Q 86.214 117.618 78.955 117.618 L 78.955 117.618 L 53.114 117.618 L 53.114 117.618 Q 45.856 117.618 41.428 113.19 L 41.428 113.19 L 41.428 113.19 Q 37 108.763 37 101.359 L 37 101.359 L 37 91.196 L 43.533 90.035 L 43.533 100.778 L 43.533 100.778 Q 43.533 111.521 54.131 111.521 L 54.131 111.521 L 77.939 111.521 L 77.939 111.521 Q 88.537 111.521 88.537 100.778 L 88.537 100.778 L 88.537 86.551 L 88.537 86.551 Q 88.537 81.905 85.996 79.51 L 85.996 79.51 L 85.996 79.51 Q 83.456 77.115 78.375 75.663 L 78.375 75.663 L 78.375 75.663 Q 74.165 74.501 71.189 73.63 L 71.189 73.63 L 71.189 73.63 Q 68.212 72.759 65.382 72.033 L 65.382 72.033 L 65.382 72.033 Q 62.551 71.308 59.575 70.437 L 59.575 70.437 L 59.575 70.437 Q 56.599 69.565 52.534 68.404 Z " fill="rgb(85,201,200)"/><path d=" M 167.657 68.84 L 161.269 69.856 L 161.269 65.501 L 161.269 65.501 Q 161.269 54.758 150.713 54.758 L 150.713 54.758 L 134.516 54.758 L 134.516 54.758 Q 123.959 54.758 123.959 65.501 L 123.959 65.501 L 123.959 100.923 L 123.959 100.923 Q 123.959 111.666 134.516 111.666 L 134.516 111.666 L 150.713 111.666 L 150.713 111.666 Q 161.269 111.666 161.269 100.923 L 161.269 100.923 L 161.269 95.407 L 167.657 96.423 L 167.657 101.359 L 167.657 101.359 Q 167.657 108.763 163.229 113.19 L 163.229 113.19 L 163.229 113.19 Q 158.801 117.618 151.542 117.618 L 151.542 117.618 L 133.686 117.618 L 133.686 117.618 Q 126.427 117.618 122 113.19 L 122 113.19 L 122 113.19 Q 117.572 108.763 117.572 101.359 L 117.572 101.359 L 117.572 65.065 L 117.572 65.065 Q 117.572 57.661 122 53.233 L 122 53.233 L 122 53.233 Q 126.427 48.806 133.686 48.806 L 133.686 48.806 L 151.542 48.806 L 151.542 48.806 Q 158.801 48.806 163.229 53.233 L 163.229 53.233 L 163.229 53.233 Q 167.657 57.661 167.657 65.065 L 167.657 65.065 L 167.657 68.84 Z " fill="rgb(251,174,168)"/><path d=" M 218.323 47.354 L 218.903 53.306 L 218.903 53.306 Q 215.274 55.048 212.08 56.718 L 212.08 56.718 L 212.08 56.718 Q 208.886 58.387 205.692 60.274 L 205.692 60.274 L 205.692 60.274 Q 201.192 62.887 198.143 65.791 L 198.143 65.791 L 198.143 65.791 Q 195.095 68.694 195.095 73.34 L 195.095 73.34 L 195.095 117.618 L 188.707 117.618 L 188.707 48.806 L 195.095 48.806 L 195.095 60.274 L 195.095 60.274 Q 199.014 57.226 205.257 53.741 L 205.257 53.741 L 205.257 53.741 Q 211.499 50.257 218.323 47.354 L 218.323 47.354 Z " fill="rgb(252,244,171)"/><path d=" M 294.975 54.467 L 294.975 48.806 L 306.734 48.806 L 306.734 31.239 L 313.121 30.078 L 313.121 48.806 L 334.462 48.806 L 333.446 54.467 L 313.121 54.467 L 313.121 100.95 L 313.121 100.95 Q 313.121 111.666 323.719 111.666 L 323.719 111.666 L 332.865 111.666 L 332.865 117.618 L 322.848 117.618 L 322.848 117.618 Q 315.589 117.618 311.162 113.19 L 311.162 113.19 L 311.162 113.19 Q 306.734 108.763 306.734 101.359 L 306.734 101.359 L 306.734 54.467 L 294.975 54.467 Z " fill="rgb(252,244,171)"/><path d=" M 399.065 68.84 L 392.677 69.856 L 392.677 65.501 L 392.677 65.501 Q 392.677 54.758 382.12 54.758 L 382.12 54.758 L 365.924 54.758 L 365.924 54.758 Q 355.367 54.758 355.367 65.501 L 355.367 65.501 L 355.367 100.923 L 355.367 100.923 Q 355.367 111.666 365.924 111.666 L 365.924 111.666 L 382.12 111.666 L 382.12 111.666 Q 392.677 111.666 392.677 100.923 L 392.677 100.923 L 392.677 95.407 L 399.065 96.423 L 399.065 101.359 L 399.065 101.359 Q 399.065 108.763 394.637 113.19 L 394.637 113.19 L 394.637 113.19 Q 390.209 117.618 382.95 117.618 L 382.95 117.618 L 365.094 117.618 L 365.094 117.618 Q 357.835 117.618 353.407 113.19 L 353.407 113.19 L 353.407 113.19 Q 348.979 108.763 348.979 101.359 L 348.979 101.359 L 348.979 65.065 L 348.979 65.065 Q 348.979 57.661 353.407 53.233 L 353.407 53.233 L 353.407 53.233 Q 357.835 48.806 365.094 48.806 L 365.094 48.806 L 382.95 48.806 L 382.95 48.806 Q 390.209 48.806 394.637 53.233 L 394.637 53.233 L 394.637 53.233 Q 399.065 57.661 399.065 65.065 L 399.065 65.065 L 399.065 68.84 Z " fill="rgb(251,174,168)"/><path d=" M 470.2 117.618 L 463.812 117.618 L 463.812 64.194 L 463.812 64.194 Q 463.812 53.451 453.215 53.451 L 453.215 53.451 L 453.215 53.451 Q 450.456 53.451 445.883 54.467 L 445.883 54.467 L 445.883 54.467 Q 441.31 55.484 437.1 56.79 L 437.1 56.79 L 437.1 56.79 Q 432.164 58.387 429.333 60.855 L 429.333 60.855 L 429.333 60.855 Q 426.503 63.323 426.503 67.969 L 426.503 67.969 L 426.503 117.618 L 420.115 117.618 L 420.115 20.932 L 426.503 19.771 L 426.503 55.338 L 426.503 55.338 Q 430.277 52.435 436.229 50.693 L 436.229 50.693 L 436.229 50.693 Q 440.439 49.386 445.375 48.37 L 445.375 48.37 L 445.375 48.37 Q 450.311 47.354 454.086 47.354 L 454.086 47.354 L 454.086 47.354 Q 461.344 47.354 465.772 51.782 L 465.772 51.782 L 465.772 51.782 Q 470.2 56.209 470.2 63.613 L 470.2 63.613 L 470.2 117.618 Z " fill="rgb(85,201,200)"/></g></svg>