<?xml version="1.0" standalone="no"?><!-- Generator: Gravit.io --><svg xmlns="http://www.w3.org/2000/svg" xmlns:xlink="http://www.w3.org/1999/xlink" style="isolation:isolate" viewBox="0 0 512 512" width="512" height="512"><path d=" M 74 238.5 C 74 180.273 121.273 133 179.5 133 C 237.727 133 285 180.273 285 238.5 C 285 296.727 237.727 344 179.5 344 C 121.273 344 74 296.727 74 238.5 Z " fill="rgb(52,43,87)"/><path d=" M 235.5 189 C 235.5 130.773 282.773 83.5 341 83.5 C 399.227 83.5 446.5 130.773 446.5 189 C 446.5 247.227 399.227 294.5 341 294.5 C 282.773 294.5 235.5 247.227 235.5 189 Z " fill="rgb(207,57,95)"/><path d=" M 201.5 349 C 201.5 290.773 248.773 243.5 307 243.5 C 365.227 243.5 412.5 290.773 412.5 349 C 412.5 407.227 365.227 454.5 307 454.5 C 248.773 454.5 201.5 407.227 201.5 349 Z " fill="rgb(130,136,159)"/><path d=" M 202.5 105.25 C 202.5 96.557 209.557 89.5 218.25 89.5 C 226.943 89.5 234 96.557 234 105.25 C 234 113.943 226.943 121 218.25 121 C 209.557 121 202.5 113.943 202.5 105.25 Z " fill="rgb(254,76,89)"/><path d=" M 58.25 139 C 58.25 130.307 65.307 123.25 74 123.25 C 82.693 123.25 89.75 130.307 89.75 139 C 89.75 147.693 82.693 154.75 74 154.75 C 65.307 154.75 58.25 147.693 58.25 139 Z " fill="rgb(57,45,91)"/><path d=" M 150.25 385 C 150.25 376.307 157.307 369.25 166 369.25 C 174.693 369.25 181.75 376.307 181.75 385 C 181.75 393.693 174.693 400.75 166 400.75 C 157.307 400.75 150.25 393.693 150.25 385 Z " fill="rgb(207,57,95)"/><path d=" M 445.25 298 C 445.25 289.307 452.307 282.25 461 282.25 C 469.693 282.25 476.75 289.307 476.75 298 C 476.75 306.693 469.693 313.75 461 313.75 C 452.307 313.75 445.25 306.693 445.25 298 Z " fill="rgb(156,45,96)"/><path d=" M 268.709 372.506 C 269.23 371.293 268.675 369.887 267.466 369.356 L 258.554 365.46 L 263.279 354.849 C 263.817 353.647 263.279 352.237 262.077 351.699 C 260.875 351.161 259.465 351.699 258.927 352.901 L 253.207 365.709 C 252.959 366.289 252.917 366.952 253.166 367.574 C 253.414 368.154 253.87 368.652 254.451 368.9 L 265.6 373.75 C 265.932 373.874 266.222 373.957 266.554 373.957 C 267.424 373.957 268.295 373.418 268.709 372.506 L 268.709 372.506 Z  M 384.352 329.399 L 308.79 305.981 C 308.303 305.836 307.785 305.836 307.298 305.981 L 231.778 329.358 C 229.581 330.021 228.089 332.052 228.089 334.373 C 228.089 336.695 229.581 338.684 231.82 339.347 L 265.973 349.585 C 267.258 349.958 268.585 349.254 268.958 347.969 C 269.331 346.684 268.626 345.357 267.341 344.984 L 233.187 334.788 C 233.104 334.746 232.897 334.705 232.897 334.373 C 232.897 334.083 233.104 334 233.187 333.959 L 308.044 310.789 L 382.901 333.959 C 382.984 334 383.191 334.042 383.191 334.373 C 383.191 334.664 382.984 334.746 382.901 334.788 L 351.441 344.28 C 351.317 344.28 351.193 344.28 351.068 344.321 L 308.044 357.295 L 280.439 349.046 L 280.356 349.005 L 280.149 349.005 C 279.279 348.839 278.367 349.129 277.828 349.792 C 277.786 349.875 277.745 349.958 277.704 350 C 277.579 350.207 277.455 350.373 277.372 350.621 C 277.33 350.704 277.372 350.829 277.33 350.911 C 277.289 351.119 277.248 351.326 277.289 351.533 C 277.289 351.699 277.372 351.823 277.413 351.989 L 277.538 352.445 C 277.621 352.569 277.745 352.652 277.828 352.777 C 277.911 352.901 277.994 353.025 278.118 353.15 C 278.201 353.233 278.325 353.233 278.408 353.316 C 278.574 353.44 278.74 353.523 278.947 353.606 L 306.842 362.02 C 307.049 362.103 307.298 362.103 307.547 362.103 L 308.5 362.103 C 308.749 362.103 308.956 362.061 309.205 362.02 L 350.488 349.585 L 357.576 365.46 L 308.044 387.055 L 278.698 374.247 C 277.496 373.708 276.087 374.289 275.548 375.491 C 275.009 376.693 275.59 378.102 276.792 378.641 L 306.842 391.739 C 307.132 391.863 307.464 391.946 307.795 391.946 L 308.251 391.946 C 308.583 391.946 308.915 391.863 309.205 391.739 L 361.679 368.859 C 362.259 368.61 362.715 368.113 362.964 367.533 C 363.213 366.952 363.171 366.289 362.923 365.667 L 355.089 348.134 L 384.269 339.347 C 386.466 338.684 387.958 336.695 387.999 334.373 C 388.041 332.094 386.548 330.104 384.352 329.399 Z  M 275.299 389.583 L 273.269 389.583 L 273.269 351.077 C 273.269 350.248 273.766 349.502 274.512 349.212 L 304.894 336.902 C 306.142 338.643 308.374 339.376 310.412 338.713 C 312.449 338.049 313.822 336.143 313.806 334 C 313.806 331.265 311.609 329.068 308.873 329.068 C 306.138 329.068 303.941 331.265 303.941 334 C 303.941 334.249 303.982 334.456 304.024 334.664 L 273.642 346.974 C 271.984 347.637 270.906 349.254 270.906 351.077 L 270.906 389.583 L 268.875 389.583 L 268.875 396.754 L 268.916 396.754 L 266.595 407.987 C 266.512 408.318 266.72 408.65 267.051 408.691 L 267.176 408.691 C 267.466 408.691 267.714 408.484 267.756 408.194 L 270.118 396.713 L 270.243 396.713 L 268.833 407.987 C 268.792 408.318 269.041 408.608 269.372 408.65 L 269.455 408.65 C 269.745 408.65 269.994 408.443 270.035 408.111 L 271.486 396.713 L 271.569 396.713 L 270.823 408.07 C 270.782 408.401 271.072 408.691 271.362 408.691 L 271.403 408.691 C 271.735 408.691 271.984 408.443 271.984 408.111 L 272.149 405.666 L 272.315 408.111 C 272.357 408.443 272.605 408.691 272.895 408.691 L 272.937 408.691 C 273.269 408.65 273.517 408.401 273.476 408.07 L 272.73 396.713 L 272.813 396.713 L 274.263 408.111 C 274.305 408.401 274.553 408.65 274.844 408.65 L 274.926 408.65 C 275.258 408.608 275.507 408.318 275.465 407.987 L 274.056 396.713 L 274.18 396.713 L 276.543 408.194 C 276.584 408.484 276.833 408.691 277.123 408.691 L 277.248 408.691 C 277.579 408.608 277.786 408.318 277.704 407.987 L 275.341 396.547 L 275.341 389.583 L 275.299 389.583 L 275.299 389.583 Z " fill="rgb(254,253,254)"/><g id="null"><path d=" M 167.052 276.06 L 192.931 276.06 C 195.648 276.06 197.854 278.266 197.854 280.984 L 197.854 281.903 C 197.854 284.62 195.648 286.827 192.931 286.827 L 167.052 286.827 C 164.335 286.827 162.129 284.62 162.129 281.903 L 162.129 280.984 C 162.129 278.266 164.335 276.06 167.052 276.06 Z " fill="rgb(254,253,254)"/><path d=" M 174.786 290.252 L 185.198 290.252 C 187.321 290.252 189.045 291.976 189.045 294.1 L 189.045 296.682 C 189.045 298.805 187.321 300.53 185.198 300.53 L 174.786 300.53 C 172.662 300.53 170.938 298.805 170.938 296.682 L 170.938 294.1 C 170.938 291.976 172.662 290.252 174.786 290.252 Z " fill="rgb(254,253,254)"/><path d=" M 159.682 263.825 C 159.435 268.404 163.137 272.686 165.065 272.145 L 193.939 272.145 C 197.216 271.924 199.179 269.482 199.812 264.804 C 199.185 252.516 214.698 241.239 215.472 222.227 C 216.247 203.215 200.693 186.529 180.236 186.012 C 159.78 185.495 144.089 201.812 144.021 221.248 C 143.954 240.684 156.154 244.779 159.682 263.825 Z  M 169.47 256.974 C 170.432 260.872 170.226 261.831 174.853 261.868 L 185.13 261.868 C 187.124 262.064 189.495 260.405 190.024 257.463 C 191.184 247.931 204.153 235.798 204.706 222.227 C 205.259 208.655 194.703 196.667 180.1 196.298 C 165.498 195.929 155.701 207.879 154.788 221.737 C 153.875 235.597 166.096 243.373 169.47 256.974 Z " fill-rule="evenodd" fill="rgb(254,253,254)"/></g><g id="null"><path d=" M 323.667 239.69 C 335.745 244.094 348.989 244.094 361.067 239.69 C 376.033 234.204 387.925 222.369 393.498 207.432 C 395.709 201.515 396.916 195.109 396.916 188.445 C 396.916 181.781 395.709 175.375 393.498 169.458 C 385.771 148.718 365.778 133.896 342.367 133.896 C 318.956 133.896 298.964 148.718 291.236 169.458 C 289.025 175.375 287.818 181.781 287.818 188.445 C 287.818 195.109 289.025 201.515 291.236 207.432 C 296.809 222.369 308.73 234.204 323.667 239.69 L 323.667 239.69 Z  M 342.367 140.532 C 368.794 140.532 390.309 162.047 390.309 188.474 C 390.309 189.249 390.28 190.025 390.252 190.8 C 390.252 190.887 390.252 191.001 390.223 191.088 L 390.051 191.03 C 390.079 190.915 390.194 190.829 390.223 190.8 C 390.022 190.915 389.304 190.887 388.959 190.571 C 388.011 189.709 387.58 188.014 387.121 186.262 L 387.006 185.773 C 386.46 183.734 385.684 181.436 383.875 179.626 C 383.099 178.851 382.237 178.42 381.548 178.046 C 381.261 177.903 380.83 177.673 380.715 177.558 C 380.313 176.955 380.284 175.49 380.284 174.226 C 380.284 172.847 380.255 171.411 379.853 170.003 C 377.613 162.018 370.23 155.268 361.9 153.63 C 360.464 153.343 358.539 152.97 356.528 153.601 C 354.604 154.233 352.019 156.014 350.697 160.984 C 349.95 163.799 348.055 166.154 346.073 168.682 C 345.096 169.889 344.119 171.124 343.2 172.474 C 342.942 172.847 342.539 173.364 342.08 173.939 C 340.126 176.409 337.685 179.454 338.202 182.642 C 338.949 187.411 343.085 187.928 345.326 188.215 C 346.417 188.359 347.566 188.502 348.055 188.933 C 348.227 189.077 348.485 189.709 348.687 190.14 C 349.232 191.346 349.979 193.041 351.731 194.046 C 353.168 194.851 354.633 194.736 355.695 194.649 C 356.442 194.592 356.931 194.563 357.189 194.736 C 358.108 195.31 358.798 196.746 358.683 197.838 C 358.309 200.768 355.121 202.951 352.478 203.899 L 352.392 203.928 C 351.214 204.359 349.261 205.077 348.342 207.059 C 347.48 208.897 348.026 210.678 348.399 211.856 L 348.457 212.086 C 349.692 216.193 348.457 220.933 345.383 223.892 C 344.119 225.098 342.769 225.759 341.678 225.673 C 339.724 225.558 337.943 223.288 336.45 221.191 C 334.899 219.037 333.232 217.026 331.624 215.102 C 330.159 213.321 328.751 211.626 327.43 209.845 C 326.741 208.897 326.453 207.691 326.798 207.174 C 327.631 206.025 328.464 205.134 329.297 204.272 C 331.681 201.802 334.18 199.217 332.744 192.725 C 332.601 192.036 332.802 191.03 333.031 189.939 C 333.491 187.669 334.152 184.538 331.825 181.752 C 330.532 180.201 329.039 179.397 327.832 178.736 C 326.252 177.874 325.649 177.529 325.276 176.179 C 325.247 176.064 325.218 175.892 325.189 175.691 C 324.356 171.009 323.552 168.481 321.541 167.533 C 320.535 167.076 319.371 167.13 318.41 167.677 C 316.859 168.567 315.107 169.601 313.527 169.601 C 312.953 169.601 312.321 169.343 311.947 168.941 C 311.89 168.883 311.717 168.682 311.717 168.538 C 311.717 168.337 311.832 167.935 311.919 167.591 C 312.177 166.556 312.608 164.977 311.919 163.311 C 310.482 159.749 306.461 159.921 304.306 160.007 C 304.134 160.007 303.99 160.036 303.847 160.036 C 312.522 148.23 326.568 140.532 342.367 140.532 L 342.367 140.532 Z  M 300.572 165.034 C 301.577 165.551 302.698 165.867 303.761 165.838 C 303.99 165.838 304.249 165.81 304.507 165.81 C 305.024 165.781 305.858 165.752 306.403 165.81 C 306.375 165.953 306.317 166.097 306.288 166.212 C 306.116 166.844 305.915 167.619 305.915 168.51 C 305.886 170.176 306.547 171.756 307.782 173.02 C 309.247 174.485 311.344 175.375 313.47 175.375 L 313.498 175.375 C 315.509 175.375 317.348 174.714 318.927 173.939 C 319.1 174.599 319.272 175.49 319.502 176.725 C 319.588 177.213 319.646 177.443 319.703 177.673 C 320.766 181.493 323.265 182.844 325.103 183.82 C 326.051 184.337 326.827 184.739 327.401 185.429 C 327.918 186.032 327.803 186.865 327.401 188.761 C 327.085 190.312 326.712 192.064 327.114 193.931 C 327.89 197.436 327.2 198.154 325.132 200.28 C 324.242 201.199 323.15 202.319 322.087 203.841 C 319.962 206.829 320.909 210.707 322.777 213.235 C 324.184 215.159 325.707 216.969 327.171 218.75 C 328.723 220.617 330.331 222.541 331.767 224.552 C 333.405 226.822 336.478 231.073 341.275 231.389 C 341.448 231.389 341.649 231.418 341.821 231.418 C 344.406 231.418 347.049 230.211 349.347 228.028 C 353.943 223.604 355.782 216.509 353.943 210.42 L 353.857 210.161 C 353.8 209.989 353.742 209.759 353.685 209.587 C 353.914 209.5 354.173 209.385 354.345 209.328 L 354.432 209.299 C 360.062 207.231 363.767 203.21 364.342 198.556 C 364.744 195.31 363.02 191.691 360.234 189.91 C 358.338 188.703 356.471 188.876 355.207 188.962 C 354.977 188.991 354.661 188.991 354.46 188.991 C 354.288 188.761 354.029 188.186 353.886 187.842 C 353.426 186.836 352.88 185.544 351.703 184.567 C 349.893 183.045 347.739 182.786 345.986 182.556 C 345.326 182.47 344.205 182.326 343.918 182.125 C 343.889 182.097 343.861 182.01 343.832 181.809 C 343.861 180.919 345.814 178.477 346.532 177.529 C 347.049 176.869 347.538 176.265 347.911 175.691 C 348.687 174.542 349.577 173.45 350.496 172.273 C 352.794 169.4 355.15 166.442 356.212 162.477 C 356.701 160.582 357.448 159.375 358.223 159.117 C 358.826 158.916 359.889 159.145 360.722 159.318 C 366.927 160.553 372.614 165.723 374.252 171.612 C 374.424 172.273 374.453 173.278 374.453 174.341 C 374.482 176.467 374.482 178.879 375.918 180.948 C 376.78 182.212 377.986 182.815 378.877 183.246 C 379.192 183.389 379.623 183.619 379.738 183.734 C 380.571 184.567 381.031 186.003 381.347 187.296 L 381.462 187.755 C 382.036 190.053 382.783 192.897 385.024 194.908 C 386.23 196 387.867 196.632 389.505 196.689 C 385.627 219.238 365.922 236.473 342.252 236.473 C 315.825 236.473 294.31 214.958 294.31 188.531 C 294.454 179.942 296.666 171.957 300.572 165.034 L 300.572 165.034 Z " fill="rgb(254,253,254)"/></g></svg>