<?xml version="1.0" standalone="no"?><!-- Generator: Gravit.io --><svg xmlns="http://www.w3.org/2000/svg" xmlns:xlink="http://www.w3.org/1999/xlink" style="isolation:isolate" viewBox="0 0 256 256" width="256" height="256"><g id="null"><linearGradient id="_lgradient_3" x1="0%" y1="50%" x2="70.31418502375818%" y2="121.1049603364259%"><stop offset="0%" stop-opacity="1" style="stop-color:rgb(236,70,90)"/><stop offset="100%" stop-opacity="1" style="stop-color:rgb(156,45,96)"/></linearGradient><path d=" M 213.764 221.684 C 216.069 221.684 217.971 219.84 217.971 217.477 L 217.971 142.441 L 228.345 142.441 C 230.65 142.441 232.552 140.597 232.552 138.234 L 232.552 119.792 C 232.552 117.487 230.707 115.585 228.345 115.585 L 217.971 115.585 L 217.971 40.606 C 217.971 38.301 216.127 36.399 213.764 36.399 C 211.401 36.399 209.557 38.243 209.557 40.606 L 209.557 115.642 L 199.183 115.642 C 196.878 115.642 194.976 117.487 194.976 119.85 L 194.976 138.292 C 194.976 140.597 196.82 142.499 199.183 142.499 L 209.557 142.499 L 209.557 217.535 C 209.614 219.783 211.458 221.684 213.764 221.684 Z  M 203.39 134.085 L 203.39 123.999 L 224.195 123.999 L 224.195 134.085 L 203.39 134.085 Z  M 46.459 221.684 C 48.765 221.684 50.667 219.84 50.667 217.477 L 50.667 142.441 L 61.04 142.441 C 63.345 142.441 65.247 140.597 65.247 138.234 L 65.247 119.792 C 65.247 117.487 63.403 115.585 61.04 115.585 L 50.667 115.585 L 50.667 40.606 C 50.667 38.301 48.822 36.399 46.459 36.399 C 44.097 36.399 42.252 38.243 42.252 40.606 L 42.252 115.642 L 31.879 115.642 C 29.573 115.642 27.672 117.487 27.672 119.85 L 27.672 138.292 C 27.672 140.597 29.516 142.499 31.879 142.499 L 42.252 142.499 L 42.252 217.535 C 42.252 219.783 44.154 221.684 46.459 221.684 Z  M 36.086 134.085 L 36.086 123.999 L 56.891 123.999 L 56.891 134.085 L 36.086 134.085 Z  M 88.3 221.684 C 90.605 221.684 92.507 219.84 92.507 217.477 L 92.507 99.736 L 102.881 99.736 C 105.186 99.736 107.088 97.892 107.088 95.529 L 107.088 77.087 C 107.088 74.782 105.244 72.88 102.881 72.88 L 92.507 72.88 L 92.507 40.491 C 92.507 38.186 90.663 36.284 88.3 36.284 C 85.937 36.284 84.093 38.128 84.093 40.491 L 84.093 72.88 L 73.719 72.88 C 71.414 72.88 69.512 74.724 69.512 77.087 L 69.512 95.529 C 69.512 97.834 71.356 99.736 73.719 99.736 L 84.093 99.736 L 84.093 217.477 C 84.093 219.783 85.995 221.684 88.3 221.684 L 88.3 221.684 Z  M 77.869 91.38 L 77.869 81.294 L 98.674 81.294 L 98.674 91.38 L 77.869 91.38 Z  M 130.083 221.684 C 132.388 221.684 134.232 219.84 134.232 217.477 L 134.232 114.202 L 144.606 114.202 C 146.911 114.202 148.813 112.357 148.813 109.995 L 148.813 91.553 C 148.813 89.247 146.969 87.345 144.606 87.345 L 134.232 87.345 L 134.232 40.549 C 134.313 39.003 133.535 37.54 132.209 36.743 C 130.883 35.946 129.225 35.946 127.899 36.743 C 126.573 37.54 125.794 39.003 125.876 40.549 L 125.876 87.345 L 115.502 87.345 C 113.197 87.345 111.295 89.19 111.295 91.553 L 111.295 109.995 C 111.295 112.3 113.139 114.202 115.502 114.202 L 125.876 114.202 L 125.876 217.535 C 125.933 219.783 127.777 221.684 130.083 221.684 Z  M 119.709 105.845 L 119.709 95.76 L 140.514 95.76 L 140.514 105.845 L 119.709 105.845 Z  M 171.923 221.684 C 174.229 221.684 176.13 219.84 176.13 217.477 L 176.13 170.681 L 186.504 170.681 C 188.809 170.681 190.711 168.836 190.711 166.473 L 190.711 148.031 C 190.711 145.726 188.867 143.824 186.504 143.824 L 176.13 143.824 L 176.13 40.606 C 176.13 38.301 174.286 36.399 171.923 36.399 C 169.56 36.399 167.716 38.243 167.716 40.606 L 167.716 143.94 L 157.342 143.94 C 155.037 143.94 153.135 145.784 153.135 148.147 L 153.135 166.589 C 153.135 168.894 154.98 170.796 157.342 170.796 L 167.716 170.796 L 167.716 217.593 C 167.774 219.783 169.618 221.684 171.923 221.684 L 171.923 221.684 Z  M 161.55 162.324 L 161.55 152.239 L 182.355 152.239 L 182.355 162.324 L 161.55 162.324 L 161.55 162.324 Z " fill="url(#_lgradient_3)"/></g></svg>