<?xml version="1.0" standalone="no"?><!-- Generator: Gravit.io --><svg xmlns="http://www.w3.org/2000/svg" xmlns:xlink="http://www.w3.org/1999/xlink" style="isolation:isolate" viewBox="0 0 256 256" width="256" height="256"><path d=" M 98.887 166.678 L 91.769 166.678 L 91.769 112.44 L 91.272 115.806 L 72.899 166.678 L 69.147 166.678 L 50.608 115.806 L 50.167 112.44 L 50.167 166.678 L 43.049 166.678 L 43.049 87.556 L 46.746 87.556 L 70.747 152.443 L 70.968 155.367 L 71.188 152.443 L 95.135 87.556 L 98.887 87.556 L 98.887 166.678 Z  M 160.297 148.36 L 160.297 148.36 L 160.297 148.36 Q 160.297 152.388 158.78 155.919 L 158.78 155.919 L 158.78 155.919 Q 157.263 159.45 154.614 162.099 L 154.614 162.099 L 154.614 162.099 Q 151.966 164.747 148.435 166.264 L 148.435 166.264 L 148.435 166.264 Q 144.903 167.782 140.875 167.782 L 140.875 167.782 L 135.248 167.782 L 135.248 167.782 Q 131.22 167.782 127.661 166.264 L 127.661 166.264 L 127.661 166.264 Q 124.102 164.747 121.454 162.099 L 121.454 162.099 L 121.454 162.099 Q 118.805 159.45 117.288 155.919 L 117.288 155.919 L 117.288 155.919 Q 115.771 152.388 115.771 148.36 L 115.771 148.36 L 115.771 105.875 L 115.771 105.875 Q 115.771 101.847 117.288 98.315 L 117.288 98.315 L 117.288 98.315 Q 118.805 94.784 121.454 92.136 L 121.454 92.136 L 121.454 92.136 Q 124.102 89.487 127.661 87.97 L 127.661 87.97 L 127.661 87.97 Q 131.22 86.453 135.248 86.453 L 135.248 86.453 L 140.875 86.453 L 140.875 86.453 Q 144.903 86.453 148.435 87.97 L 148.435 87.97 L 148.435 87.97 Q 151.966 89.487 154.614 92.136 L 154.614 92.136 L 154.614 92.136 Q 157.263 94.784 158.78 98.315 L 158.78 98.315 L 158.78 98.315 Q 160.297 101.847 160.297 105.875 L 160.297 105.875 L 160.297 109.075 L 153.18 110.178 L 153.18 105.875 L 153.18 105.875 Q 153.18 103.226 152.187 100.936 L 152.187 100.936 L 152.187 100.936 Q 151.193 98.646 149.483 96.936 L 149.483 96.936 L 149.483 96.936 Q 147.772 95.226 145.483 94.232 L 145.483 94.232 L 145.483 94.232 Q 143.193 93.239 140.544 93.239 L 140.544 93.239 L 135.579 93.239 L 135.579 93.239 Q 132.93 93.239 130.64 94.232 L 130.64 94.232 L 130.64 94.232 Q 128.351 95.226 126.613 96.936 L 126.613 96.936 L 126.613 96.936 Q 124.875 98.646 123.881 100.936 L 123.881 100.936 L 123.881 100.936 Q 122.888 103.226 122.888 105.875 L 122.888 105.875 L 122.888 148.36 L 122.888 148.36 Q 122.888 151.008 123.881 153.298 L 123.881 153.298 L 123.881 153.298 Q 124.875 155.588 126.613 157.326 L 126.613 157.326 L 126.613 157.326 Q 128.351 159.064 130.64 160.057 L 130.64 160.057 L 130.64 160.057 Q 132.93 161.05 135.579 161.05 L 135.579 161.05 L 140.544 161.05 L 140.544 161.05 Q 143.193 161.05 145.483 160.057 L 145.483 160.057 L 145.483 160.057 Q 147.772 159.064 149.483 157.326 L 149.483 157.326 L 149.483 157.326 Q 151.193 155.588 152.187 153.298 L 152.187 153.298 L 152.187 153.298 Q 153.18 151.008 153.18 148.36 L 153.18 148.36 L 153.18 144.056 L 160.297 145.215 L 160.297 148.36 Z  M 211.059 166.678 L 205.817 148.25 L 180.768 148.25 L 175.581 166.678 L 168.188 166.678 L 191.361 87.556 L 195.113 87.556 L 218.397 166.678 L 211.059 166.678 Z  M 193.072 104.992 L 182.699 141.463 L 203.941 141.463 L 193.513 104.992 L 193.292 102.067 L 193.072 104.992 Z " fill-rule="evenodd" fill="rgb(254,253,254)"/><path d=" M 194.72 194.467 L 193.905 191.603 L 190.012 191.603 L 189.206 194.467 L 188.057 194.467 L 191.659 182.171 L 192.242 182.171 L 195.86 194.467 L 194.72 194.467 Z  M 191.924 184.881 L 190.312 190.549 L 193.614 190.549 L 191.993 184.881 L 191.959 184.427 L 191.924 184.881 Z  M 202.951 192.058 L 202.951 192.058 L 202.951 192.058 Q 202.951 192.589 202.75 193.061 L 202.75 193.061 L 202.75 193.061 Q 202.548 193.533 202.197 193.884 L 202.197 193.884 L 202.197 193.884 Q 201.845 194.236 201.374 194.437 L 201.374 194.437 L 201.374 194.437 Q 200.902 194.639 200.37 194.639 L 200.37 194.639 L 200.105 194.639 L 200.105 194.639 Q 199.513 194.639 199.007 194.399 L 199.007 194.399 L 199.007 194.399 Q 198.501 194.159 198.141 193.73 L 198.141 193.73 L 198.141 197.983 L 197.086 197.983 L 197.086 185.687 L 197.438 185.687 L 198.012 186.579 L 198.012 186.579 Q 198.372 186.09 198.917 185.803 L 198.917 185.803 L 198.917 185.803 Q 199.461 185.516 200.105 185.516 L 200.105 185.516 L 200.37 185.516 L 200.37 185.516 Q 200.902 185.516 201.374 185.717 L 201.374 185.717 L 201.374 185.717 Q 201.845 185.919 202.197 186.27 L 202.197 186.27 L 202.197 186.27 Q 202.548 186.622 202.75 187.093 L 202.75 187.093 L 202.75 187.093 Q 202.951 187.565 202.951 188.096 L 202.951 188.096 L 202.951 192.058 Z  M 201.897 192.118 L 201.897 188.036 L 201.897 188.036 Q 201.897 187.719 201.777 187.441 L 201.777 187.441 L 201.777 187.441 Q 201.656 187.162 201.451 186.956 L 201.451 186.956 L 201.451 186.956 Q 201.245 186.75 200.966 186.63 L 200.966 186.63 L 200.966 186.63 Q 200.688 186.51 200.37 186.51 L 200.37 186.51 L 199.667 186.51 L 199.667 186.51 Q 199.35 186.51 199.071 186.63 L 199.071 186.63 L 199.071 186.63 Q 198.793 186.75 198.587 186.956 L 198.587 186.956 L 198.587 186.956 Q 198.381 187.162 198.261 187.441 L 198.261 187.441 L 198.261 187.441 Q 198.141 187.719 198.141 188.036 L 198.141 188.036 L 198.141 192.118 L 198.141 192.118 Q 198.141 192.435 198.261 192.714 L 198.261 192.714 L 198.261 192.714 Q 198.381 192.992 198.587 193.198 L 198.587 193.198 L 198.587 193.198 Q 198.793 193.404 199.071 193.524 L 199.071 193.524 L 199.071 193.524 Q 199.35 193.644 199.667 193.644 L 199.667 193.644 L 200.37 193.644 L 200.37 193.644 Q 200.688 193.644 200.966 193.524 L 200.966 193.524 L 200.966 193.524 Q 201.245 193.404 201.451 193.198 L 201.451 193.198 L 201.451 193.198 Q 201.656 192.992 201.777 192.714 L 201.777 192.714 L 201.777 192.714 Q 201.897 192.435 201.897 192.118 L 201.897 192.118 Z  M 206.467 194.467 L 205.412 194.467 L 205.412 182.171 L 206.467 182.171 L 206.467 194.467 Z  M 210.42 183.578 L 209.193 183.578 L 209.193 182.171 L 210.42 182.171 L 210.42 183.578 Z  M 210.334 194.467 L 209.279 194.467 L 209.279 185.687 L 210.334 185.687 L 210.334 194.467 Z  M 218.66 192.058 L 218.66 192.058 L 218.66 192.058 Q 218.66 192.589 218.458 193.061 L 218.458 193.061 L 218.458 193.061 Q 218.257 193.533 217.905 193.884 L 217.905 193.884 L 217.905 193.884 Q 217.554 194.236 217.082 194.437 L 217.082 194.437 L 217.082 194.437 Q 216.61 194.639 216.079 194.639 L 216.079 194.639 L 215.376 194.639 L 215.376 194.639 Q 214.844 194.639 214.372 194.437 L 214.372 194.437 L 214.372 194.437 Q 213.901 194.236 213.549 193.884 L 213.549 193.884 L 213.549 193.884 Q 213.198 193.533 212.996 193.061 L 212.996 193.061 L 212.996 193.061 Q 212.795 192.589 212.795 192.058 L 212.795 192.058 L 212.795 188.096 L 212.795 188.096 Q 212.795 187.565 212.996 187.093 L 212.996 187.093 L 212.996 187.093 Q 213.198 186.622 213.549 186.27 L 213.549 186.27 L 213.549 186.27 Q 213.901 185.919 214.372 185.717 L 214.372 185.717 L 214.372 185.717 Q 214.844 185.516 215.376 185.516 L 215.376 185.516 L 216.079 185.516 L 216.079 185.516 Q 216.61 185.516 217.082 185.717 L 217.082 185.717 L 217.082 185.717 Q 217.554 185.919 217.905 186.27 L 217.905 186.27 L 217.905 186.27 Q 218.257 186.622 218.458 187.093 L 218.458 187.093 L 218.458 187.093 Q 218.66 187.565 218.66 188.096 L 218.66 188.096 L 218.66 188.448 L 217.605 188.62 L 217.605 188.036 L 217.605 188.036 Q 217.605 187.719 217.485 187.441 L 217.485 187.441 L 217.485 187.441 Q 217.365 187.162 217.159 186.956 L 217.159 186.956 L 217.159 186.956 Q 216.953 186.75 216.675 186.63 L 216.675 186.63 L 216.675 186.63 Q 216.396 186.51 216.079 186.51 L 216.079 186.51 L 215.376 186.51 L 215.376 186.51 Q 215.058 186.51 214.78 186.63 L 214.78 186.63 L 214.78 186.63 Q 214.501 186.75 214.295 186.956 L 214.295 186.956 L 214.295 186.956 Q 214.09 187.162 213.969 187.441 L 213.969 187.441 L 213.969 187.441 Q 213.849 187.719 213.849 188.036 L 213.849 188.036 L 213.849 192.118 L 213.849 192.118 Q 213.849 192.435 213.969 192.714 L 213.969 192.714 L 213.969 192.714 Q 214.09 192.992 214.295 193.198 L 214.295 193.198 L 214.295 193.198 Q 214.501 193.404 214.78 193.524 L 214.78 193.524 L 214.78 193.524 Q 215.058 193.644 215.376 193.644 L 215.376 193.644 L 216.079 193.644 L 216.079 193.644 Q 216.396 193.644 216.675 193.524 L 216.675 193.524 L 216.675 193.524 Q 216.953 193.404 217.159 193.198 L 217.159 193.198 L 217.159 193.198 Q 217.365 192.992 217.485 192.714 L 217.485 192.714 L 217.485 192.714 Q 217.605 192.435 217.605 192.118 L 217.605 192.118 L 217.605 191.535 L 218.66 191.706 L 218.66 192.058 Z  M 226.634 194.467 L 226.282 194.467 L 225.699 193.593 L 225.699 193.593 Q 225.339 194.064 224.799 194.352 L 224.799 194.352 L 224.799 194.352 Q 224.259 194.639 223.616 194.639 L 223.616 194.639 L 223.35 194.639 L 223.35 194.639 Q 222.818 194.639 222.347 194.437 L 222.347 194.437 L 222.347 194.437 Q 221.875 194.236 221.524 193.884 L 221.524 193.884 L 221.524 193.884 Q 221.172 193.533 220.971 193.061 L 220.971 193.061 L 220.971 193.061 Q 220.769 192.589 220.769 192.058 L 220.769 192.058 L 220.769 191.972 L 220.769 191.972 Q 220.769 191.441 220.971 190.969 L 220.971 190.969 L 220.971 190.969 Q 221.172 190.497 221.524 190.146 L 221.524 190.146 L 221.524 190.146 Q 221.875 189.794 222.347 189.593 L 222.347 189.593 L 222.347 189.593 Q 222.818 189.391 223.35 189.391 L 223.35 189.391 L 225.579 189.391 L 225.579 188.036 L 225.579 188.036 Q 225.579 187.719 225.459 187.441 L 225.459 187.441 L 225.459 187.441 Q 225.339 187.162 225.133 186.956 L 225.133 186.956 L 225.133 186.956 Q 224.928 186.75 224.649 186.63 L 224.649 186.63 L 224.649 186.63 Q 224.37 186.51 224.053 186.51 L 224.053 186.51 L 223.436 186.51 L 223.436 186.51 Q 223.118 186.51 222.84 186.63 L 222.84 186.63 L 222.84 186.63 Q 222.561 186.75 222.355 186.956 L 222.355 186.956 L 222.355 186.956 Q 222.15 187.162 222.029 187.441 L 222.029 187.441 L 222.029 187.441 Q 221.909 187.719 221.909 188.036 L 221.909 188.036 L 221.909 188.354 L 220.855 188.182 L 220.855 188.096 L 220.855 188.096 Q 220.855 187.565 221.056 187.093 L 221.056 187.093 L 221.056 187.093 Q 221.258 186.622 221.609 186.27 L 221.609 186.27 L 221.609 186.27 Q 221.961 185.919 222.432 185.717 L 222.432 185.717 L 222.432 185.717 Q 222.904 185.516 223.436 185.516 L 223.436 185.516 L 224.053 185.516 L 224.053 185.516 Q 224.585 185.516 225.056 185.717 L 225.056 185.717 L 225.056 185.717 Q 225.528 185.919 225.879 186.27 L 225.879 186.27 L 225.879 186.27 Q 226.231 186.622 226.432 187.093 L 226.432 187.093 L 226.432 187.093 Q 226.634 187.565 226.634 188.096 L 226.634 188.096 L 226.634 194.467 Z  M 225.579 192.118 L 225.579 190.214 L 223.35 190.214 L 223.35 190.214 Q 223.033 190.214 222.754 190.334 L 222.754 190.334 L 222.754 190.334 Q 222.475 190.454 222.27 190.665 L 222.27 190.665 L 222.27 190.665 Q 222.064 190.875 221.944 191.153 L 221.944 191.153 L 221.944 191.153 Q 221.824 191.432 221.824 191.749 L 221.824 191.749 L 221.824 192.118 L 221.824 192.118 Q 221.824 192.435 221.944 192.714 L 221.944 192.714 L 221.944 192.714 Q 222.064 192.992 222.27 193.198 L 222.27 193.198 L 222.27 193.198 Q 222.475 193.404 222.754 193.524 L 222.754 193.524 L 222.754 193.524 Q 223.033 193.644 223.35 193.644 L 223.35 193.644 L 224.053 193.644 L 224.053 193.644 Q 224.37 193.644 224.649 193.524 L 224.649 193.524 L 224.649 193.524 Q 224.928 193.404 225.133 193.198 L 225.133 193.198 L 225.133 193.198 Q 225.339 192.992 225.459 192.714 L 225.459 192.714 L 225.459 192.714 Q 225.579 192.435 225.579 192.118 L 225.579 192.118 Z  M 234.608 194.467 L 234.257 194.467 L 233.674 193.576 L 233.674 193.576 Q 233.314 194.064 232.773 194.352 L 232.773 194.352 L 232.773 194.352 Q 232.233 194.639 231.59 194.639 L 231.59 194.639 L 231.324 194.639 L 231.324 194.639 Q 230.793 194.639 230.321 194.437 L 230.321 194.437 L 230.321 194.437 Q 229.849 194.236 229.498 193.884 L 229.498 193.884 L 229.498 193.884 Q 229.146 193.533 228.945 193.061 L 228.945 193.061 L 228.945 193.061 Q 228.743 192.589 228.743 192.058 L 228.743 192.058 L 228.743 188.096 L 228.743 188.096 Q 228.743 187.565 228.945 187.093 L 228.945 187.093 L 228.945 187.093 Q 229.146 186.622 229.498 186.27 L 229.498 186.27 L 229.498 186.27 Q 229.849 185.919 230.321 185.717 L 230.321 185.717 L 230.321 185.717 Q 230.793 185.516 231.324 185.516 L 231.324 185.516 L 231.59 185.516 L 231.59 185.516 Q 232.182 185.516 232.688 185.756 L 232.688 185.756 L 232.688 185.756 Q 233.193 185.996 233.554 186.424 L 233.554 186.424 L 233.554 182.171 L 234.608 182.171 L 234.608 194.467 Z  M 233.554 192.118 L 233.554 188.036 L 233.554 188.036 Q 233.554 187.719 233.434 187.441 L 233.434 187.441 L 233.434 187.441 Q 233.314 187.162 233.108 186.956 L 233.108 186.956 L 233.108 186.956 Q 232.902 186.75 232.623 186.63 L 232.623 186.63 L 232.623 186.63 Q 232.345 186.51 232.027 186.51 L 232.027 186.51 L 231.324 186.51 L 231.324 186.51 Q 231.007 186.51 230.728 186.63 L 230.728 186.63 L 230.728 186.63 Q 230.45 186.75 230.244 186.956 L 230.244 186.956 L 230.244 186.956 Q 230.038 187.162 229.918 187.441 L 229.918 187.441 L 229.918 187.441 Q 229.798 187.719 229.798 188.036 L 229.798 188.036 L 229.798 192.118 L 229.798 192.118 Q 229.798 192.435 229.918 192.714 L 229.918 192.714 L 229.918 192.714 Q 230.038 192.992 230.244 193.198 L 230.244 193.198 L 230.244 193.198 Q 230.45 193.404 230.728 193.524 L 230.728 193.524 L 230.728 193.524 Q 231.007 193.644 231.324 193.644 L 231.324 193.644 L 232.027 193.644 L 232.027 193.644 Q 232.345 193.644 232.623 193.524 L 232.623 193.524 L 232.623 193.524 Q 232.902 193.404 233.108 193.198 L 233.108 193.198 L 233.108 193.198 Q 233.314 192.992 233.434 192.714 L 233.434 192.714 L 233.434 192.714 Q 233.554 192.435 233.554 192.118 L 233.554 192.118 Z  M 242.583 194.467 L 242.231 194.467 L 241.648 193.593 L 241.648 193.593 Q 241.288 194.064 240.748 194.352 L 240.748 194.352 L 240.748 194.352 Q 240.207 194.639 239.564 194.639 L 239.564 194.639 L 239.299 194.639 L 239.299 194.639 Q 238.767 194.639 238.295 194.437 L 238.295 194.437 L 238.295 194.437 Q 237.824 194.236 237.472 193.884 L 237.472 193.884 L 237.472 193.884 Q 237.121 193.533 236.919 193.061 L 236.919 193.061 L 236.919 193.061 Q 236.718 192.589 236.718 192.058 L 236.718 192.058 L 236.718 191.972 L 236.718 191.972 Q 236.718 191.441 236.919 190.969 L 236.919 190.969 L 236.919 190.969 Q 237.121 190.497 237.472 190.146 L 237.472 190.146 L 237.472 190.146 Q 237.824 189.794 238.295 189.593 L 238.295 189.593 L 238.295 189.593 Q 238.767 189.391 239.299 189.391 L 239.299 189.391 L 241.528 189.391 L 241.528 188.036 L 241.528 188.036 Q 241.528 187.719 241.408 187.441 L 241.408 187.441 L 241.408 187.441 Q 241.288 187.162 241.082 186.956 L 241.082 186.956 L 241.082 186.956 Q 240.876 186.75 240.598 186.63 L 240.598 186.63 L 240.598 186.63 Q 240.319 186.51 240.002 186.51 L 240.002 186.51 L 239.384 186.51 L 239.384 186.51 Q 239.067 186.51 238.788 186.63 L 238.788 186.63 L 238.788 186.63 Q 238.51 186.75 238.304 186.956 L 238.304 186.956 L 238.304 186.956 Q 238.098 187.162 237.978 187.441 L 237.978 187.441 L 237.978 187.441 Q 237.858 187.719 237.858 188.036 L 237.858 188.036 L 237.858 188.354 L 236.803 188.182 L 236.803 188.096 L 236.803 188.096 Q 236.803 187.565 237.005 187.093 L 237.005 187.093 L 237.005 187.093 Q 237.206 186.622 237.558 186.27 L 237.558 186.27 L 237.558 186.27 Q 237.909 185.919 238.381 185.717 L 238.381 185.717 L 238.381 185.717 Q 238.853 185.516 239.384 185.516 L 239.384 185.516 L 240.002 185.516 L 240.002 185.516 Q 240.533 185.516 241.005 185.717 L 241.005 185.717 L 241.005 185.717 Q 241.476 185.919 241.828 186.27 L 241.828 186.27 L 241.828 186.27 Q 242.18 186.622 242.381 187.093 L 242.381 187.093 L 242.381 187.093 Q 242.583 187.565 242.583 188.096 L 242.583 188.096 L 242.583 194.467 Z  M 241.528 192.118 L 241.528 190.214 L 239.299 190.214 L 239.299 190.214 Q 238.981 190.214 238.703 190.334 L 238.703 190.334 L 238.703 190.334 Q 238.424 190.454 238.218 190.665 L 238.218 190.665 L 238.218 190.665 Q 238.012 190.875 237.892 191.153 L 237.892 191.153 L 237.892 191.153 Q 237.772 191.432 237.772 191.749 L 237.772 191.749 L 237.772 192.118 L 237.772 192.118 Q 237.772 192.435 237.892 192.714 L 237.892 192.714 L 237.892 192.714 Q 238.012 192.992 238.218 193.198 L 238.218 193.198 L 238.218 193.198 Q 238.424 193.404 238.703 193.524 L 238.703 193.524 L 238.703 193.524 Q 238.981 193.644 239.299 193.644 L 239.299 193.644 L 240.002 193.644 L 240.002 193.644 Q 240.319 193.644 240.598 193.524 L 240.598 193.524 L 240.598 193.524 Q 240.876 193.404 241.082 193.198 L 241.082 193.198 L 241.082 193.198 Q 241.288 192.992 241.408 192.714 L 241.408 192.714 L 241.408 192.714 Q 241.528 192.435 241.528 192.118 L 241.528 192.118 Z  M 108.443 191.621 L 108.443 191.621 L 108.443 191.621 Q 108.443 192.247 108.207 192.795 L 108.207 192.795 L 108.207 192.795 Q 107.972 193.344 107.56 193.756 L 107.56 193.756 L 107.56 193.756 Q 107.148 194.167 106.6 194.403 L 106.6 194.403 L 106.6 194.403 Q 106.051 194.639 105.425 194.639 L 105.425 194.639 L 104.55 194.639 L 104.55 194.639 Q 103.924 194.639 103.371 194.403 L 103.371 194.403 L 103.371 194.403 Q 102.818 194.167 102.407 193.756 L 102.407 193.756 L 102.407 193.756 Q 101.995 193.344 101.759 192.795 L 101.759 192.795 L 101.759 192.795 Q 101.524 192.247 101.524 191.621 L 101.524 191.621 L 101.524 185.018 L 101.524 185.018 Q 101.524 184.392 101.759 183.844 L 101.759 183.844 L 101.759 183.844 Q 101.995 183.295 102.407 182.883 L 102.407 182.883 L 102.407 182.883 Q 102.818 182.472 103.371 182.236 L 103.371 182.236 L 103.371 182.236 Q 103.924 182 104.55 182 L 104.55 182 L 105.425 182 L 105.425 182 Q 106.051 182 106.6 182.236 L 106.6 182.236 L 106.6 182.236 Q 107.148 182.472 107.56 182.883 L 107.56 182.883 L 107.56 182.883 Q 107.972 183.295 108.207 183.844 L 108.207 183.844 L 108.207 183.844 Q 108.443 184.392 108.443 185.018 L 108.443 185.018 L 108.443 185.516 L 107.337 185.687 L 107.337 185.018 L 107.337 185.018 Q 107.337 184.607 107.183 184.251 L 107.183 184.251 L 107.183 184.251 Q 107.028 183.895 106.763 183.629 L 106.763 183.629 L 106.763 183.629 Q 106.497 183.363 106.141 183.209 L 106.141 183.209 L 106.141 183.209 Q 105.785 183.055 105.374 183.055 L 105.374 183.055 L 104.602 183.055 L 104.602 183.055 Q 104.19 183.055 103.834 183.209 L 103.834 183.209 L 103.834 183.209 Q 103.479 183.363 103.208 183.629 L 103.208 183.629 L 103.208 183.629 Q 102.938 183.895 102.784 184.251 L 102.784 184.251 L 102.784 184.251 Q 102.63 184.607 102.63 185.018 L 102.63 185.018 L 102.63 191.621 L 102.63 191.621 Q 102.63 192.032 102.784 192.388 L 102.784 192.388 L 102.784 192.388 Q 102.938 192.744 103.208 193.014 L 103.208 193.014 L 103.208 193.014 Q 103.479 193.284 103.834 193.438 L 103.834 193.438 L 103.834 193.438 Q 104.19 193.593 104.602 193.593 L 104.602 193.593 L 105.374 193.593 L 105.374 193.593 Q 105.785 193.593 106.141 193.438 L 106.141 193.438 L 106.141 193.438 Q 106.497 193.284 106.763 193.014 L 106.763 193.014 L 106.763 193.014 Q 107.028 192.744 107.183 192.388 L 107.183 192.388 L 107.183 192.388 Q 107.337 192.032 107.337 191.621 L 107.337 191.621 L 107.337 190.952 L 108.443 191.132 L 108.443 191.621 Z  M 116.417 192.058 L 116.417 192.058 L 116.417 192.058 Q 116.417 192.589 116.216 193.061 L 116.216 193.061 L 116.216 193.061 Q 116.014 193.533 115.663 193.884 L 115.663 193.884 L 115.663 193.884 Q 115.311 194.236 114.84 194.437 L 114.84 194.437 L 114.84 194.437 Q 114.368 194.639 113.837 194.639 L 113.837 194.639 L 113.133 194.639 L 113.133 194.639 Q 112.602 194.639 112.13 194.437 L 112.13 194.437 L 112.13 194.437 Q 111.659 194.236 111.307 193.884 L 111.307 193.884 L 111.307 193.884 Q 110.956 193.533 110.754 193.061 L 110.754 193.061 L 110.754 193.061 Q 110.553 192.589 110.553 192.058 L 110.553 192.058 L 110.553 188.096 L 110.553 188.096 Q 110.553 187.565 110.754 187.093 L 110.754 187.093 L 110.754 187.093 Q 110.956 186.622 111.307 186.27 L 111.307 186.27 L 111.307 186.27 Q 111.659 185.919 112.13 185.717 L 112.13 185.717 L 112.13 185.717 Q 112.602 185.516 113.133 185.516 L 113.133 185.516 L 113.837 185.516 L 113.837 185.516 Q 114.368 185.516 114.84 185.717 L 114.84 185.717 L 114.84 185.717 Q 115.311 185.919 115.663 186.27 L 115.663 186.27 L 115.663 186.27 Q 116.014 186.622 116.216 187.093 L 116.216 187.093 L 116.216 187.093 Q 116.417 187.565 116.417 188.096 L 116.417 188.096 L 116.417 192.058 Z  M 115.363 192.118 L 115.363 188.036 L 115.363 188.036 Q 115.363 187.719 115.243 187.441 L 115.243 187.441 L 115.243 187.441 Q 115.123 187.162 114.917 186.956 L 114.917 186.956 L 114.917 186.956 Q 114.711 186.75 114.432 186.63 L 114.432 186.63 L 114.432 186.63 Q 114.154 186.51 113.837 186.51 L 113.837 186.51 L 113.133 186.51 L 113.133 186.51 Q 112.816 186.51 112.538 186.63 L 112.538 186.63 L 112.538 186.63 Q 112.259 186.75 112.053 186.956 L 112.053 186.956 L 112.053 186.956 Q 111.847 187.162 111.727 187.441 L 111.727 187.441 L 111.727 187.441 Q 111.607 187.719 111.607 188.036 L 111.607 188.036 L 111.607 192.118 L 111.607 192.118 Q 111.607 192.435 111.727 192.714 L 111.727 192.714 L 111.727 192.714 Q 111.847 192.992 112.053 193.198 L 112.053 193.198 L 112.053 193.198 Q 112.259 193.404 112.538 193.524 L 112.538 193.524 L 112.538 193.524 Q 112.816 193.644 113.133 193.644 L 113.133 193.644 L 113.837 193.644 L 113.837 193.644 Q 114.154 193.644 114.432 193.524 L 114.432 193.524 L 114.432 193.524 Q 114.711 193.404 114.917 193.198 L 114.917 193.198 L 114.917 193.198 Q 115.123 192.992 115.243 192.714 L 115.243 192.714 L 115.243 192.714 Q 115.363 192.435 115.363 192.118 L 115.363 192.118 Z  M 128.85 194.467 L 127.796 194.467 L 127.796 188.036 L 127.796 188.036 Q 127.796 187.719 127.676 187.441 L 127.676 187.441 L 127.676 187.441 Q 127.556 187.162 127.35 186.956 L 127.35 186.956 L 127.35 186.956 Q 127.144 186.75 126.865 186.63 L 126.865 186.63 L 126.865 186.63 Q 126.587 186.51 126.27 186.51 L 126.27 186.51 L 125.747 186.51 L 125.747 186.51 Q 125.429 186.51 125.151 186.63 L 125.151 186.63 L 125.151 186.63 Q 124.872 186.75 124.662 186.956 L 124.662 186.956 L 124.662 186.956 Q 124.452 187.162 124.332 187.441 L 124.332 187.441 L 124.332 187.441 Q 124.212 187.719 124.212 188.036 L 124.212 188.036 L 124.212 194.467 L 123.166 194.467 L 123.166 188.036 L 123.166 188.036 Q 123.166 187.719 123.046 187.441 L 123.046 187.441 L 123.046 187.441 Q 122.926 187.162 122.715 186.956 L 122.715 186.956 L 122.715 186.956 Q 122.505 186.75 122.227 186.63 L 122.227 186.63 L 122.227 186.63 Q 121.948 186.51 121.631 186.51 L 121.631 186.51 L 121.108 186.51 L 121.108 186.51 Q 120.79 186.51 120.512 186.63 L 120.512 186.63 L 120.512 186.63 Q 120.233 186.75 120.027 186.956 L 120.027 186.956 L 120.027 186.956 Q 119.822 187.162 119.702 187.441 L 119.702 187.441 L 119.702 187.441 Q 119.581 187.719 119.581 188.036 L 119.581 188.036 L 119.581 194.467 L 118.527 194.467 L 118.527 185.687 L 118.878 185.687 L 119.453 186.579 L 119.453 186.579 Q 119.813 186.09 120.357 185.803 L 120.357 185.803 L 120.357 185.803 Q 120.902 185.516 121.545 185.516 L 121.545 185.516 L 121.631 185.516 L 121.631 185.516 Q 122.377 185.516 122.977 185.884 L 122.977 185.884 L 122.977 185.884 Q 123.577 186.253 123.903 186.862 L 123.903 186.862 L 123.903 186.862 Q 124.066 186.562 124.306 186.313 L 124.306 186.313 L 124.306 186.313 Q 124.546 186.064 124.838 185.889 L 124.838 185.889 L 124.838 185.889 Q 125.129 185.713 125.472 185.614 L 125.472 185.614 L 125.472 185.614 Q 125.815 185.516 126.184 185.516 L 126.184 185.516 L 126.27 185.516 L 126.27 185.516 Q 126.801 185.516 127.273 185.717 L 127.273 185.717 L 127.273 185.717 Q 127.744 185.919 128.096 186.27 L 128.096 186.27 L 128.096 186.27 Q 128.447 186.622 128.649 187.093 L 128.649 187.093 L 128.649 187.093 Q 128.85 187.565 128.85 188.096 L 128.85 188.096 L 128.85 194.467 Z  M 136.825 192.058 L 136.825 192.058 L 136.825 192.058 Q 136.825 192.589 136.623 193.061 L 136.623 193.061 L 136.623 193.061 Q 136.422 193.533 136.07 193.884 L 136.07 193.884 L 136.07 193.884 Q 135.719 194.236 135.247 194.437 L 135.247 194.437 L 135.247 194.437 Q 134.775 194.639 134.244 194.639 L 134.244 194.639 L 133.978 194.639 L 133.978 194.639 Q 133.386 194.639 132.881 194.399 L 132.881 194.399 L 132.881 194.399 Q 132.375 194.159 132.014 193.73 L 132.014 193.73 L 132.014 197.983 L 130.96 197.983 L 130.96 185.687 L 131.311 185.687 L 131.886 186.579 L 131.886 186.579 Q 132.246 186.09 132.79 185.803 L 132.79 185.803 L 132.79 185.803 Q 133.335 185.516 133.978 185.516 L 133.978 185.516 L 134.244 185.516 L 134.244 185.516 Q 134.775 185.516 135.247 185.717 L 135.247 185.717 L 135.247 185.717 Q 135.719 185.919 136.07 186.27 L 136.07 186.27 L 136.07 186.27 Q 136.422 186.622 136.623 187.093 L 136.623 187.093 L 136.623 187.093 Q 136.825 187.565 136.825 188.096 L 136.825 188.096 L 136.825 192.058 Z  M 135.77 192.118 L 135.77 188.036 L 135.77 188.036 Q 135.77 187.719 135.65 187.441 L 135.65 187.441 L 135.65 187.441 Q 135.53 187.162 135.324 186.956 L 135.324 186.956 L 135.324 186.956 Q 135.118 186.75 134.84 186.63 L 134.84 186.63 L 134.84 186.63 Q 134.561 186.51 134.244 186.51 L 134.244 186.51 L 133.541 186.51 L 133.541 186.51 Q 133.223 186.51 132.945 186.63 L 132.945 186.63 L 132.945 186.63 Q 132.666 186.75 132.46 186.956 L 132.46 186.956 L 132.46 186.956 Q 132.255 187.162 132.135 187.441 L 132.135 187.441 L 132.135 187.441 Q 132.014 187.719 132.014 188.036 L 132.014 188.036 L 132.014 192.118 L 132.014 192.118 Q 132.014 192.435 132.135 192.714 L 132.135 192.714 L 132.135 192.714 Q 132.255 192.992 132.46 193.198 L 132.46 193.198 L 132.46 193.198 Q 132.666 193.404 132.945 193.524 L 132.945 193.524 L 132.945 193.524 Q 133.223 193.644 133.541 193.644 L 133.541 193.644 L 134.244 193.644 L 134.244 193.644 Q 134.561 193.644 134.84 193.524 L 134.84 193.524 L 134.84 193.524 Q 135.118 193.404 135.324 193.198 L 135.324 193.198 L 135.324 193.198 Q 135.53 192.992 135.65 192.714 L 135.65 192.714 L 135.65 192.714 Q 135.77 192.435 135.77 192.118 L 135.77 192.118 Z  M 144.799 194.467 L 144.447 194.467 L 143.864 193.576 L 143.864 193.576 Q 143.504 194.064 142.964 194.352 L 142.964 194.352 L 142.964 194.352 Q 142.424 194.639 141.781 194.639 L 141.781 194.639 L 141.515 194.639 L 141.515 194.639 Q 140.983 194.639 140.512 194.437 L 140.512 194.437 L 140.512 194.437 Q 140.04 194.236 139.689 193.884 L 139.689 193.884 L 139.689 193.884 Q 139.337 193.533 139.136 193.061 L 139.136 193.061 L 139.136 193.061 Q 138.934 192.589 138.934 192.058 L 138.934 192.058 L 138.934 185.687 L 139.989 185.687 L 139.989 192.118 L 139.989 192.118 Q 139.989 192.435 140.109 192.714 L 140.109 192.714 L 140.109 192.714 Q 140.229 192.992 140.435 193.198 L 140.435 193.198 L 140.435 193.198 Q 140.64 193.404 140.919 193.524 L 140.919 193.524 L 140.919 193.524 Q 141.198 193.644 141.515 193.644 L 141.515 193.644 L 142.218 193.644 L 142.218 193.644 Q 142.535 193.644 142.814 193.524 L 142.814 193.524 L 142.814 193.524 Q 143.093 193.404 143.299 193.198 L 143.299 193.198 L 143.299 193.198 Q 143.504 192.992 143.624 192.714 L 143.624 192.714 L 143.624 192.714 Q 143.744 192.435 143.744 192.118 L 143.744 192.118 L 143.744 185.687 L 144.799 185.687 L 144.799 194.467 Z  M 151.067 194.467 L 150.107 194.467 L 150.107 194.467 Q 149.626 194.467 149.202 194.287 L 149.202 194.287 L 149.202 194.287 Q 148.778 194.107 148.465 193.79 L 148.465 193.79 L 148.465 193.79 Q 148.152 193.473 147.967 193.053 L 147.967 193.053 L 147.967 193.053 Q 147.783 192.632 147.783 192.152 L 147.783 192.152 L 147.783 186.69 L 146.205 186.69 L 146.205 185.687 L 147.783 185.687 L 147.783 183.578 L 148.838 183.406 L 148.838 185.687 L 151.067 185.687 L 151.067 186.69 L 148.838 186.69 L 148.838 192.204 L 148.838 192.204 Q 148.838 192.469 148.936 192.697 L 148.936 192.697 L 148.936 192.697 Q 149.035 192.924 149.206 193.095 L 149.206 193.095 L 149.206 193.095 Q 149.378 193.267 149.609 193.365 L 149.609 193.365 L 149.609 193.365 Q 149.841 193.464 150.107 193.464 L 150.107 193.464 L 151.067 193.464 L 151.067 194.467 Z  M 158.87 194.467 L 158.518 194.467 L 157.935 193.593 L 157.935 193.593 Q 157.575 194.064 157.035 194.352 L 157.035 194.352 L 157.035 194.352 Q 156.495 194.639 155.852 194.639 L 155.852 194.639 L 155.586 194.639 L 155.586 194.639 Q 155.054 194.639 154.583 194.437 L 154.583 194.437 L 154.583 194.437 Q 154.111 194.236 153.759 193.884 L 153.759 193.884 L 153.759 193.884 Q 153.408 193.533 153.206 193.061 L 153.206 193.061 L 153.206 193.061 Q 153.005 192.589 153.005 192.058 L 153.005 192.058 L 153.005 191.972 L 153.005 191.972 Q 153.005 191.441 153.206 190.969 L 153.206 190.969 L 153.206 190.969 Q 153.408 190.497 153.759 190.146 L 153.759 190.146 L 153.759 190.146 Q 154.111 189.794 154.583 189.593 L 154.583 189.593 L 154.583 189.593 Q 155.054 189.391 155.586 189.391 L 155.586 189.391 L 157.815 189.391 L 157.815 188.036 L 157.815 188.036 Q 157.815 187.719 157.695 187.441 L 157.695 187.441 L 157.695 187.441 Q 157.575 187.162 157.369 186.956 L 157.369 186.956 L 157.369 186.956 Q 157.163 186.75 156.885 186.63 L 156.885 186.63 L 156.885 186.63 Q 156.606 186.51 156.289 186.51 L 156.289 186.51 L 155.671 186.51 L 155.671 186.51 Q 155.354 186.51 155.076 186.63 L 155.076 186.63 L 155.076 186.63 Q 154.797 186.75 154.591 186.956 L 154.591 186.956 L 154.591 186.956 Q 154.385 187.162 154.265 187.441 L 154.265 187.441 L 154.265 187.441 Q 154.145 187.719 154.145 188.036 L 154.145 188.036 L 154.145 188.354 L 153.091 188.182 L 153.091 188.096 L 153.091 188.096 Q 153.091 187.565 153.292 187.093 L 153.292 187.093 L 153.292 187.093 Q 153.494 186.622 153.845 186.27 L 153.845 186.27 L 153.845 186.27 Q 154.197 185.919 154.668 185.717 L 154.668 185.717 L 154.668 185.717 Q 155.14 185.516 155.671 185.516 L 155.671 185.516 L 156.289 185.516 L 156.289 185.516 Q 156.82 185.516 157.292 185.717 L 157.292 185.717 L 157.292 185.717 Q 157.764 185.919 158.115 186.27 L 158.115 186.27 L 158.115 186.27 Q 158.467 186.622 158.668 187.093 L 158.668 187.093 L 158.668 187.093 Q 158.87 187.565 158.87 188.096 L 158.87 188.096 L 158.87 194.467 Z  M 157.815 192.118 L 157.815 190.214 L 155.586 190.214 L 155.586 190.214 Q 155.268 190.214 154.99 190.334 L 154.99 190.334 L 154.99 190.334 Q 154.711 190.454 154.505 190.665 L 154.505 190.665 L 154.505 190.665 Q 154.3 190.875 154.18 191.153 L 154.18 191.153 L 154.18 191.153 Q 154.059 191.432 154.059 191.749 L 154.059 191.749 L 154.059 192.118 L 154.059 192.118 Q 154.059 192.435 154.18 192.714 L 154.18 192.714 L 154.18 192.714 Q 154.3 192.992 154.505 193.198 L 154.505 193.198 L 154.505 193.198 Q 154.711 193.404 154.99 193.524 L 154.99 193.524 L 154.99 193.524 Q 155.268 193.644 155.586 193.644 L 155.586 193.644 L 156.289 193.644 L 156.289 193.644 Q 156.606 193.644 156.885 193.524 L 156.885 193.524 L 156.885 193.524 Q 157.163 193.404 157.369 193.198 L 157.369 193.198 L 157.369 193.198 Q 157.575 192.992 157.695 192.714 L 157.695 192.714 L 157.695 192.714 Q 157.815 192.435 157.815 192.118 L 157.815 192.118 Z  M 162.977 195.753 L 163.663 194.639 L 163.56 194.639 L 163.56 194.639 Q 163.028 194.639 162.557 194.437 L 162.557 194.437 L 162.557 194.437 Q 162.085 194.236 161.734 193.884 L 161.734 193.884 L 161.734 193.884 Q 161.382 193.533 161.181 193.061 L 161.181 193.061 L 161.181 193.061 Q 160.979 192.589 160.979 192.058 L 160.979 192.058 L 160.979 188.096 L 160.979 188.096 Q 160.979 187.565 161.181 187.093 L 161.181 187.093 L 161.181 187.093 Q 161.382 186.622 161.734 186.27 L 161.734 186.27 L 161.734 186.27 Q 162.085 185.919 162.557 185.717 L 162.557 185.717 L 162.557 185.717 Q 163.028 185.516 163.56 185.516 L 163.56 185.516 L 164.263 185.516 L 164.263 185.516 Q 164.795 185.516 165.266 185.717 L 165.266 185.717 L 165.266 185.717 Q 165.738 185.919 166.09 186.27 L 166.09 186.27 L 166.09 186.27 Q 166.441 186.622 166.643 187.093 L 166.643 187.093 L 166.643 187.093 Q 166.844 187.565 166.844 188.096 L 166.844 188.096 L 166.844 188.448 L 165.789 188.62 L 165.789 188.036 L 165.789 188.036 Q 165.789 187.719 165.669 187.441 L 165.669 187.441 L 165.669 187.441 Q 165.549 187.162 165.344 186.956 L 165.344 186.956 L 165.344 186.956 Q 165.138 186.75 164.859 186.63 L 164.859 186.63 L 164.859 186.63 Q 164.58 186.51 164.263 186.51 L 164.263 186.51 L 163.56 186.51 L 163.56 186.51 Q 163.243 186.51 162.964 186.63 L 162.964 186.63 L 162.964 186.63 Q 162.685 186.75 162.48 186.956 L 162.48 186.956 L 162.48 186.956 Q 162.274 187.162 162.154 187.441 L 162.154 187.441 L 162.154 187.441 Q 162.034 187.719 162.034 188.036 L 162.034 188.036 L 162.034 192.118 L 162.034 192.118 Q 162.034 192.435 162.154 192.714 L 162.154 192.714 L 162.154 192.714 Q 162.274 192.992 162.48 193.198 L 162.48 193.198 L 162.48 193.198 Q 162.685 193.404 162.964 193.524 L 162.964 193.524 L 162.964 193.524 Q 163.243 193.644 163.56 193.644 L 163.56 193.644 L 164.263 193.644 L 164.263 193.644 Q 164.58 193.644 164.859 193.524 L 164.859 193.524 L 164.859 193.524 Q 165.138 193.404 165.344 193.198 L 165.344 193.198 L 165.344 193.198 Q 165.549 192.992 165.669 192.714 L 165.669 192.714 L 165.669 192.714 Q 165.789 192.435 165.789 192.118 L 165.789 192.118 L 165.789 191.535 L 166.844 191.706 L 166.844 192.058 L 166.844 192.058 Q 166.844 192.572 166.651 193.027 L 166.651 193.027 L 166.651 193.027 Q 166.458 193.481 166.128 193.829 L 166.128 193.829 L 166.128 193.829 Q 165.798 194.176 165.352 194.39 L 165.352 194.39 L 165.352 194.39 Q 164.906 194.605 164.4 194.639 L 164.4 194.639 L 163.997 195.342 L 163.997 195.342 Q 164.074 195.376 164.212 195.466 L 164.212 195.466 L 164.212 195.466 Q 164.349 195.556 164.482 195.711 L 164.482 195.711 L 164.482 195.711 Q 164.615 195.865 164.709 196.079 L 164.709 196.079 L 164.709 196.079 Q 164.803 196.294 164.803 196.577 L 164.803 196.577 L 164.803 196.577 Q 164.803 196.902 164.688 197.168 L 164.688 197.168 L 164.688 197.168 Q 164.572 197.434 164.362 197.618 L 164.362 197.618 L 164.362 197.618 Q 164.152 197.803 163.86 197.901 L 163.86 197.901 L 163.86 197.901 Q 163.569 198 163.226 198 L 163.226 198 L 163.226 198 Q 162.84 198 162.527 197.85 L 162.527 197.85 L 162.527 197.85 Q 162.214 197.7 161.965 197.451 L 161.965 197.451 L 162.368 196.834 L 162.368 196.834 Q 162.411 196.885 162.488 196.954 L 162.488 196.954 L 162.488 196.954 Q 162.565 197.023 162.681 197.083 L 162.681 197.083 L 162.681 197.083 Q 162.797 197.143 162.938 197.185 L 162.938 197.185 L 162.938 197.185 Q 163.08 197.228 163.243 197.228 L 163.243 197.228 L 163.243 197.228 Q 163.56 197.228 163.779 197.048 L 163.779 197.048 L 163.779 197.048 Q 163.997 196.868 163.997 196.542 L 163.997 196.542 L 163.997 196.542 Q 163.997 196.337 163.916 196.182 L 163.916 196.182 L 163.916 196.182 Q 163.834 196.028 163.693 195.925 L 163.693 195.925 L 163.693 195.925 Q 163.551 195.822 163.367 195.779 L 163.367 195.779 L 163.367 195.779 Q 163.183 195.736 162.977 195.753 L 162.977 195.753 Z  M 174.818 194.467 L 174.467 194.467 L 173.884 193.593 L 173.884 193.593 Q 173.524 194.064 172.983 194.352 L 172.983 194.352 L 172.983 194.352 Q 172.443 194.639 171.8 194.639 L 171.8 194.639 L 171.534 194.639 L 171.534 194.639 Q 171.003 194.639 170.531 194.437 L 170.531 194.437 L 170.531 194.437 Q 170.059 194.236 169.708 193.884 L 169.708 193.884 L 169.708 193.884 Q 169.356 193.533 169.155 193.061 L 169.155 193.061 L 169.155 193.061 Q 168.953 192.589 168.953 192.058 L 168.953 192.058 L 168.953 191.972 L 168.953 191.972 Q 168.953 191.441 169.155 190.969 L 169.155 190.969 L 169.155 190.969 Q 169.356 190.497 169.708 190.146 L 169.708 190.146 L 169.708 190.146 Q 170.059 189.794 170.531 189.593 L 170.531 189.593 L 170.531 189.593 Q 171.003 189.391 171.534 189.391 L 171.534 189.391 L 173.764 189.391 L 173.764 188.036 L 173.764 188.036 Q 173.764 187.719 173.644 187.441 L 173.644 187.441 L 173.644 187.441 Q 173.524 187.162 173.318 186.956 L 173.318 186.956 L 173.318 186.956 Q 173.112 186.75 172.833 186.63 L 172.833 186.63 L 172.833 186.63 Q 172.555 186.51 172.237 186.51 L 172.237 186.51 L 171.62 186.51 L 171.62 186.51 Q 171.303 186.51 171.024 186.63 L 171.024 186.63 L 171.024 186.63 Q 170.745 186.75 170.54 186.956 L 170.54 186.956 L 170.54 186.956 Q 170.334 187.162 170.214 187.441 L 170.214 187.441 L 170.214 187.441 Q 170.094 187.719 170.094 188.036 L 170.094 188.036 L 170.094 188.354 L 169.039 188.182 L 169.039 188.096 L 169.039 188.096 Q 169.039 187.565 169.241 187.093 L 169.241 187.093 L 169.241 187.093 Q 169.442 186.622 169.794 186.27 L 169.794 186.27 L 169.794 186.27 Q 170.145 185.919 170.617 185.717 L 170.617 185.717 L 170.617 185.717 Q 171.088 185.516 171.62 185.516 L 171.62 185.516 L 172.237 185.516 L 172.237 185.516 Q 172.769 185.516 173.241 185.717 L 173.241 185.717 L 173.241 185.717 Q 173.712 185.919 174.064 186.27 L 174.064 186.27 L 174.064 186.27 Q 174.415 186.622 174.617 187.093 L 174.617 187.093 L 174.617 187.093 Q 174.818 187.565 174.818 188.096 L 174.818 188.096 L 174.818 194.467 Z  M 173.764 192.118 L 173.764 190.214 L 171.534 190.214 L 171.534 190.214 Q 171.217 190.214 170.938 190.334 L 170.938 190.334 L 170.938 190.334 Q 170.66 190.454 170.454 190.665 L 170.454 190.665 L 170.454 190.665 Q 170.248 190.875 170.128 191.153 L 170.128 191.153 L 170.128 191.153 Q 170.008 191.432 170.008 191.749 L 170.008 191.749 L 170.008 192.118 L 170.008 192.118 Q 170.008 192.435 170.128 192.714 L 170.128 192.714 L 170.128 192.714 Q 170.248 192.992 170.454 193.198 L 170.454 193.198 L 170.454 193.198 Q 170.66 193.404 170.938 193.524 L 170.938 193.524 L 170.938 193.524 Q 171.217 193.644 171.534 193.644 L 171.534 193.644 L 172.237 193.644 L 172.237 193.644 Q 172.555 193.644 172.833 193.524 L 172.833 193.524 L 172.833 193.524 Q 173.112 193.404 173.318 193.198 L 173.318 193.198 L 173.318 193.198 Q 173.524 192.992 173.644 192.714 L 173.644 192.714 L 173.644 192.714 Q 173.764 192.435 173.764 192.118 L 173.764 192.118 Z  M 173.061 183.158 L 173.061 183.158 L 173.061 183.158 Q 173.421 183.158 173.609 182.883 L 173.609 182.883 L 173.609 182.883 Q 173.798 182.609 173.798 182.171 L 173.798 182.171 L 174.604 182.171 L 174.604 182.171 Q 174.604 182.557 174.505 182.892 L 174.505 182.892 L 174.505 182.892 Q 174.407 183.226 174.214 183.475 L 174.214 183.475 L 174.214 183.475 Q 174.021 183.723 173.725 183.869 L 173.725 183.869 L 173.725 183.869 Q 173.429 184.015 173.043 184.015 L 173.043 184.015 L 173.043 184.015 Q 172.632 184.015 172.319 183.861 L 172.319 183.861 L 172.319 183.861 Q 172.006 183.706 171.736 183.526 L 171.736 183.526 L 171.736 183.526 Q 171.466 183.346 171.221 183.192 L 171.221 183.192 L 171.221 183.192 Q 170.977 183.038 170.711 183.038 L 170.711 183.038 L 170.711 183.038 Q 170.351 183.038 170.171 183.308 L 170.171 183.308 L 170.171 183.308 Q 169.991 183.578 169.991 183.998 L 169.991 183.998 L 169.185 183.998 L 169.185 183.998 Q 169.185 183.621 169.279 183.286 L 169.279 183.286 L 169.279 183.286 Q 169.374 182.952 169.566 182.703 L 169.566 182.703 L 169.566 182.703 Q 169.759 182.454 170.055 182.313 L 170.055 182.313 L 170.055 182.313 Q 170.351 182.171 170.745 182.171 L 170.745 182.171 L 170.745 182.171 Q 171.131 182.171 171.427 182.326 L 171.427 182.326 L 171.427 182.326 Q 171.723 182.48 171.984 182.665 L 171.984 182.665 L 171.984 182.665 Q 172.246 182.849 172.503 183.003 L 172.503 183.003 L 172.503 183.003 Q 172.76 183.158 173.061 183.158 Z  M 182.793 192.058 L 182.793 192.058 L 182.793 192.058 Q 182.793 192.589 182.591 193.061 L 182.591 193.061 L 182.591 193.061 Q 182.39 193.533 182.038 193.884 L 182.038 193.884 L 182.038 193.884 Q 181.687 194.236 181.215 194.437 L 181.215 194.437 L 181.215 194.437 Q 180.743 194.639 180.212 194.639 L 180.212 194.639 L 179.509 194.639 L 179.509 194.639 Q 178.977 194.639 178.505 194.437 L 178.505 194.437 L 178.505 194.437 Q 178.034 194.236 177.682 193.884 L 177.682 193.884 L 177.682 193.884 Q 177.331 193.533 177.129 193.061 L 177.129 193.061 L 177.129 193.061 Q 176.928 192.589 176.928 192.058 L 176.928 192.058 L 176.928 188.096 L 176.928 188.096 Q 176.928 187.565 177.129 187.093 L 177.129 187.093 L 177.129 187.093 Q 177.331 186.622 177.682 186.27 L 177.682 186.27 L 177.682 186.27 Q 178.034 185.919 178.505 185.717 L 178.505 185.717 L 178.505 185.717 Q 178.977 185.516 179.509 185.516 L 179.509 185.516 L 180.212 185.516 L 180.212 185.516 Q 180.743 185.516 181.215 185.717 L 181.215 185.717 L 181.215 185.717 Q 181.687 185.919 182.038 186.27 L 182.038 186.27 L 182.038 186.27 Q 182.39 186.622 182.591 187.093 L 182.591 187.093 L 182.591 187.093 Q 182.793 187.565 182.793 188.096 L 182.793 188.096 L 182.793 192.058 Z  M 181.738 192.118 L 181.738 188.036 L 181.738 188.036 Q 181.738 187.719 181.618 187.441 L 181.618 187.441 L 181.618 187.441 Q 181.498 187.162 181.292 186.956 L 181.292 186.956 L 181.292 186.956 Q 181.086 186.75 180.808 186.63 L 180.808 186.63 L 180.808 186.63 Q 180.529 186.51 180.212 186.51 L 180.212 186.51 L 179.509 186.51 L 179.509 186.51 Q 179.191 186.51 178.913 186.63 L 178.913 186.63 L 178.913 186.63 Q 178.634 186.75 178.428 186.956 L 178.428 186.956 L 178.428 186.956 Q 178.222 187.162 178.102 187.441 L 178.102 187.441 L 178.102 187.441 Q 177.982 187.719 177.982 188.036 L 177.982 188.036 L 177.982 192.118 L 177.982 192.118 Q 177.982 192.435 178.102 192.714 L 178.102 192.714 L 178.102 192.714 Q 178.222 192.992 178.428 193.198 L 178.428 193.198 L 178.428 193.198 Q 178.634 193.404 178.913 193.524 L 178.913 193.524 L 178.913 193.524 Q 179.191 193.644 179.509 193.644 L 179.509 193.644 L 180.212 193.644 L 180.212 193.644 Q 180.529 193.644 180.808 193.524 L 180.808 193.524 L 180.808 193.524 Q 181.086 193.404 181.292 193.198 L 181.292 193.198 L 181.292 193.198 Q 181.498 192.992 181.618 192.714 L 181.618 192.714 L 181.618 192.714 Q 181.738 192.435 181.738 192.118 L 181.738 192.118 Z  M 82.771 192.058 L 82.771 192.058 L 82.771 192.058 Q 82.771 192.589 82.57 193.061 L 82.57 193.061 L 82.57 193.061 Q 82.368 193.533 82.017 193.884 L 82.017 193.884 L 82.017 193.884 Q 81.665 194.236 81.193 194.437 L 81.193 194.437 L 81.193 194.437 Q 80.722 194.639 80.19 194.639 L 80.19 194.639 L 79.487 194.639 L 79.487 194.639 Q 78.956 194.639 78.484 194.437 L 78.484 194.437 L 78.484 194.437 Q 78.012 194.236 77.661 193.884 L 77.661 193.884 L 77.661 193.884 Q 77.309 193.533 77.108 193.061 L 77.108 193.061 L 77.108 193.061 Q 76.906 192.589 76.906 192.058 L 76.906 192.058 L 76.906 188.096 L 76.906 188.096 Q 76.906 187.565 77.108 187.093 L 77.108 187.093 L 77.108 187.093 Q 77.309 186.622 77.661 186.27 L 77.661 186.27 L 77.661 186.27 Q 78.012 185.919 78.484 185.717 L 78.484 185.717 L 78.484 185.717 Q 78.956 185.516 79.487 185.516 L 79.487 185.516 L 80.19 185.516 L 80.19 185.516 Q 80.722 185.516 81.193 185.717 L 81.193 185.717 L 81.193 185.717 Q 81.665 185.919 82.017 186.27 L 82.017 186.27 L 82.017 186.27 Q 82.368 186.622 82.57 187.093 L 82.57 187.093 L 82.57 187.093 Q 82.771 187.565 82.771 188.096 L 82.771 188.096 L 82.771 190.163 L 77.961 190.163 L 77.961 192.118 L 77.961 192.118 Q 77.961 192.435 78.081 192.714 L 78.081 192.714 L 78.081 192.714 Q 78.201 192.992 78.407 193.198 L 78.407 193.198 L 78.407 193.198 Q 78.613 193.404 78.891 193.524 L 78.891 193.524 L 78.891 193.524 Q 79.17 193.644 79.487 193.644 L 79.487 193.644 L 80.19 193.644 L 80.19 193.644 Q 80.508 193.644 80.786 193.524 L 80.786 193.524 L 80.786 193.524 Q 81.065 193.404 81.271 193.198 L 81.271 193.198 L 81.271 193.198 Q 81.476 192.992 81.596 192.714 L 81.596 192.714 L 81.596 192.714 Q 81.717 192.435 81.717 192.118 L 81.717 192.118 L 81.717 191.535 L 82.771 191.706 L 82.771 192.058 Z  M 81.717 189.34 L 81.717 188.036 L 81.717 188.036 Q 81.717 187.719 81.596 187.441 L 81.596 187.441 L 81.596 187.441 Q 81.476 187.162 81.271 186.956 L 81.271 186.956 L 81.271 186.956 Q 81.065 186.75 80.786 186.63 L 80.786 186.63 L 80.786 186.63 Q 80.508 186.51 80.19 186.51 L 80.19 186.51 L 79.487 186.51 L 79.487 186.51 Q 79.17 186.51 78.891 186.63 L 78.891 186.63 L 78.891 186.63 Q 78.613 186.75 78.407 186.956 L 78.407 186.956 L 78.407 186.956 Q 78.201 187.162 78.081 187.441 L 78.081 187.441 L 78.081 187.441 Q 77.961 187.719 77.961 188.036 L 77.961 188.036 L 77.961 189.34 L 81.717 189.34 Z  M 95.204 194.467 L 94.15 194.467 L 94.15 188.036 L 94.15 188.036 Q 94.15 187.719 94.029 187.441 L 94.029 187.441 L 94.029 187.441 Q 93.909 187.162 93.704 186.956 L 93.704 186.956 L 93.704 186.956 Q 93.498 186.75 93.219 186.63 L 93.219 186.63 L 93.219 186.63 Q 92.941 186.51 92.623 186.51 L 92.623 186.51 L 92.1 186.51 L 92.1 186.51 Q 91.783 186.51 91.504 186.63 L 91.504 186.63 L 91.504 186.63 Q 91.226 186.75 91.016 186.956 L 91.016 186.956 L 91.016 186.956 Q 90.805 187.162 90.685 187.441 L 90.685 187.441 L 90.685 187.441 Q 90.565 187.719 90.565 188.036 L 90.565 188.036 L 90.565 194.467 L 89.519 194.467 L 89.519 188.036 L 89.519 188.036 Q 89.519 187.719 89.399 187.441 L 89.399 187.441 L 89.399 187.441 Q 89.279 187.162 89.069 186.956 L 89.069 186.956 L 89.069 186.956 Q 88.859 186.75 88.58 186.63 L 88.58 186.63 L 88.58 186.63 Q 88.302 186.51 87.984 186.51 L 87.984 186.51 L 87.461 186.51 L 87.461 186.51 Q 87.144 186.51 86.865 186.63 L 86.865 186.63 L 86.865 186.63 Q 86.587 186.75 86.381 186.956 L 86.381 186.956 L 86.381 186.956 Q 86.175 187.162 86.055 187.441 L 86.055 187.441 L 86.055 187.441 Q 85.935 187.719 85.935 188.036 L 85.935 188.036 L 85.935 194.467 L 84.881 194.467 L 84.881 185.687 L 85.232 185.687 L 85.807 186.579 L 85.807 186.579 Q 86.167 186.09 86.711 185.803 L 86.711 185.803 L 86.711 185.803 Q 87.256 185.516 87.899 185.516 L 87.899 185.516 L 87.984 185.516 L 87.984 185.516 Q 88.73 185.516 89.331 185.884 L 89.331 185.884 L 89.331 185.884 Q 89.931 186.253 90.257 186.862 L 90.257 186.862 L 90.257 186.862 Q 90.42 186.562 90.66 186.313 L 90.66 186.313 L 90.66 186.313 Q 90.9 186.064 91.191 185.889 L 91.191 185.889 L 91.191 185.889 Q 91.483 185.713 91.826 185.614 L 91.826 185.614 L 91.826 185.614 Q 92.169 185.516 92.538 185.516 L 92.538 185.516 L 92.623 185.516 L 92.623 185.516 Q 93.155 185.516 93.626 185.717 L 93.626 185.717 L 93.626 185.717 Q 94.098 185.919 94.45 186.27 L 94.45 186.27 L 94.45 186.27 Q 94.801 186.622 95.003 187.093 L 95.003 187.093 L 95.003 187.093 Q 95.204 187.565 95.204 188.096 L 95.204 188.096 L 95.204 194.467 Z  M 19.32 194.467 L 18.214 194.467 L 18.214 186.039 L 18.137 186.562 L 15.281 194.467 L 14.698 194.467 L 11.817 186.562 L 11.749 186.039 L 11.749 194.467 L 10.643 194.467 L 10.643 182.171 L 11.217 182.171 L 14.947 192.255 L 14.981 192.71 L 15.016 192.255 L 18.737 182.171 L 19.32 182.171 L 19.32 194.467 Z  M 27.637 192.058 L 27.637 192.058 L 27.637 192.058 Q 27.637 192.589 27.436 193.061 L 27.436 193.061 L 27.436 193.061 Q 27.234 193.533 26.883 193.884 L 26.883 193.884 L 26.883 193.884 Q 26.531 194.236 26.059 194.437 L 26.059 194.437 L 26.059 194.437 Q 25.588 194.639 25.056 194.639 L 25.056 194.639 L 24.353 194.639 L 24.353 194.639 Q 23.822 194.639 23.35 194.437 L 23.35 194.437 L 23.35 194.437 Q 22.878 194.236 22.527 193.884 L 22.527 193.884 L 22.527 193.884 Q 22.175 193.533 21.974 193.061 L 21.974 193.061 L 21.974 193.061 Q 21.772 192.589 21.772 192.058 L 21.772 192.058 L 21.772 188.096 L 21.772 188.096 Q 21.772 187.565 21.974 187.093 L 21.974 187.093 L 21.974 187.093 Q 22.175 186.622 22.527 186.27 L 22.527 186.27 L 22.527 186.27 Q 22.878 185.919 23.35 185.717 L 23.35 185.717 L 23.35 185.717 Q 23.822 185.516 24.353 185.516 L 24.353 185.516 L 25.056 185.516 L 25.056 185.516 Q 25.588 185.516 26.059 185.717 L 26.059 185.717 L 26.059 185.717 Q 26.531 185.919 26.883 186.27 L 26.883 186.27 L 26.883 186.27 Q 27.234 186.622 27.436 187.093 L 27.436 187.093 L 27.436 187.093 Q 27.637 187.565 27.637 188.096 L 27.637 188.096 L 27.637 190.163 L 22.827 190.163 L 22.827 192.118 L 22.827 192.118 Q 22.827 192.435 22.947 192.714 L 22.947 192.714 L 22.947 192.714 Q 23.067 192.992 23.273 193.198 L 23.273 193.198 L 23.273 193.198 Q 23.479 193.404 23.757 193.524 L 23.757 193.524 L 23.757 193.524 Q 24.036 193.644 24.353 193.644 L 24.353 193.644 L 25.056 193.644 L 25.056 193.644 Q 25.374 193.644 25.652 193.524 L 25.652 193.524 L 25.652 193.524 Q 25.931 193.404 26.137 193.198 L 26.137 193.198 L 26.137 193.198 Q 26.342 192.992 26.462 192.714 L 26.462 192.714 L 26.462 192.714 Q 26.583 192.435 26.583 192.118 L 26.583 192.118 L 26.583 191.535 L 27.637 191.706 L 27.637 192.058 Z  M 26.583 189.34 L 26.583 188.036 L 26.583 188.036 Q 26.583 187.719 26.462 187.441 L 26.462 187.441 L 26.462 187.441 Q 26.342 187.162 26.137 186.956 L 26.137 186.956 L 26.137 186.956 Q 25.931 186.75 25.652 186.63 L 25.652 186.63 L 25.652 186.63 Q 25.374 186.51 25.056 186.51 L 25.056 186.51 L 24.353 186.51 L 24.353 186.51 Q 24.036 186.51 23.757 186.63 L 23.757 186.63 L 23.757 186.63 Q 23.479 186.75 23.273 186.956 L 23.273 186.956 L 23.273 186.956 Q 23.067 187.162 22.947 187.441 L 22.947 187.441 L 22.947 187.441 Q 22.827 187.719 22.827 188.036 L 22.827 188.036 L 22.827 189.34 L 26.583 189.34 Z  M 35.783 192.238 L 35.783 192.238 L 35.783 192.238 Q 35.783 192.77 35.569 193.211 L 35.569 193.211 L 35.569 193.211 Q 35.354 193.653 34.986 193.97 L 34.986 193.97 L 34.986 193.97 Q 34.617 194.287 34.132 194.463 L 34.132 194.463 L 34.132 194.463 Q 33.648 194.639 33.116 194.639 L 33.116 194.639 L 32.413 194.639 L 32.413 194.639 Q 31.882 194.639 31.397 194.437 L 31.397 194.437 L 31.397 194.437 Q 30.913 194.236 30.548 193.884 L 30.548 193.884 L 30.548 193.884 Q 30.184 193.533 29.965 193.061 L 29.965 193.061 L 29.965 193.061 Q 29.747 192.589 29.747 192.058 L 29.747 192.058 L 29.747 191.706 L 30.801 191.535 L 30.801 192.118 L 30.801 192.118 Q 30.801 192.435 30.934 192.714 L 30.934 192.714 L 30.934 192.714 Q 31.067 192.992 31.29 193.198 L 31.29 193.198 L 31.29 193.198 Q 31.513 193.404 31.804 193.524 L 31.804 193.524 L 31.804 193.524 Q 32.096 193.644 32.413 193.644 L 32.413 193.644 L 33.116 193.644 L 33.116 193.644 Q 33.434 193.644 33.725 193.55 L 33.725 193.55 L 33.725 193.55 Q 34.017 193.456 34.244 193.28 L 34.244 193.28 L 34.244 193.28 Q 34.471 193.104 34.604 192.855 L 34.604 192.855 L 34.604 192.855 Q 34.737 192.607 34.737 192.289 L 34.737 192.289 L 34.737 192.289 Q 34.737 191.818 34.531 191.518 L 34.531 191.518 L 34.531 191.518 Q 34.325 191.218 33.987 191.016 L 33.987 191.016 L 33.987 191.016 Q 33.648 190.815 33.215 190.682 L 33.215 190.682 L 33.215 190.682 Q 32.782 190.549 32.327 190.416 L 32.327 190.416 L 32.327 190.416 Q 31.873 190.283 31.44 190.111 L 31.44 190.111 L 31.44 190.111 Q 31.007 189.94 30.668 189.661 L 30.668 189.661 L 30.668 189.661 Q 30.33 189.383 30.124 188.962 L 30.124 188.962 L 30.124 188.962 Q 29.918 188.542 29.918 187.916 L 29.918 187.916 L 29.918 187.916 Q 29.918 187.385 30.124 186.943 L 30.124 186.943 L 30.124 186.943 Q 30.33 186.502 30.681 186.184 L 30.681 186.184 L 30.681 186.184 Q 31.033 185.867 31.5 185.691 L 31.5 185.691 L 31.5 185.691 Q 31.967 185.516 32.499 185.516 L 32.499 185.516 L 33.116 185.516 L 33.116 185.516 Q 33.648 185.516 34.12 185.717 L 34.12 185.717 L 34.12 185.717 Q 34.591 185.919 34.943 186.27 L 34.943 186.27 L 34.943 186.27 Q 35.294 186.622 35.496 187.093 L 35.496 187.093 L 35.496 187.093 Q 35.697 187.565 35.697 188.096 L 35.697 188.096 L 35.697 188.131 L 34.643 188.302 L 34.643 188.036 L 34.643 188.036 Q 34.643 187.719 34.523 187.441 L 34.523 187.441 L 34.523 187.441 Q 34.402 187.162 34.197 186.956 L 34.197 186.956 L 34.197 186.956 Q 33.991 186.75 33.712 186.63 L 33.712 186.63 L 33.712 186.63 Q 33.434 186.51 33.116 186.51 L 33.116 186.51 L 32.499 186.51 L 32.499 186.51 Q 32.182 186.51 31.903 186.605 L 31.903 186.605 L 31.903 186.605 Q 31.624 186.699 31.419 186.875 L 31.419 186.875 L 31.419 186.875 Q 31.213 187.05 31.093 187.299 L 31.093 187.299 L 31.093 187.299 Q 30.973 187.548 30.973 187.865 L 30.973 187.865 L 30.973 187.865 Q 30.973 188.319 31.178 188.607 L 31.178 188.607 L 31.178 188.607 Q 31.384 188.894 31.723 189.091 L 31.723 189.091 L 31.723 189.091 Q 32.062 189.288 32.495 189.421 L 32.495 189.421 L 32.495 189.421 Q 32.928 189.554 33.378 189.696 L 33.378 189.696 L 33.378 189.696 Q 33.828 189.837 34.261 190.017 L 34.261 190.017 L 34.261 190.017 Q 34.694 190.197 35.033 190.48 L 35.033 190.48 L 35.033 190.48 Q 35.371 190.763 35.577 191.188 L 35.577 191.188 L 35.577 191.188 Q 35.783 191.612 35.783 192.238 Z  M 41.965 194.467 L 41.005 194.467 L 41.005 194.467 Q 40.525 194.467 40.1 194.287 L 40.1 194.287 L 40.1 194.287 Q 39.676 194.107 39.363 193.79 L 39.363 193.79 L 39.363 193.79 Q 39.05 193.473 38.865 193.053 L 38.865 193.053 L 38.865 193.053 Q 38.681 192.632 38.681 192.152 L 38.681 192.152 L 38.681 186.69 L 37.103 186.69 L 37.103 185.687 L 38.681 185.687 L 38.681 183.578 L 39.736 183.406 L 39.736 185.687 L 41.965 185.687 L 41.965 186.69 L 39.736 186.69 L 39.736 192.204 L 39.736 192.204 Q 39.736 192.469 39.834 192.697 L 39.834 192.697 L 39.834 192.697 Q 39.933 192.924 40.105 193.095 L 40.105 193.095 L 40.105 193.095 Q 40.276 193.267 40.508 193.365 L 40.508 193.365 L 40.508 193.365 Q 40.739 193.464 41.005 193.464 L 41.005 193.464 L 41.965 193.464 L 41.965 194.467 Z  M 47.539 186.69 L 46.484 186.69 L 46.484 186.69 Q 46.167 186.69 45.888 186.81 L 45.888 186.81 L 45.888 186.81 Q 45.609 186.93 45.404 187.136 L 45.404 187.136 L 45.404 187.136 Q 45.198 187.342 45.078 187.621 L 45.078 187.621 L 45.078 187.621 Q 44.958 187.899 44.958 188.217 L 44.958 188.217 L 44.958 194.467 L 43.903 194.467 L 43.903 185.687 L 44.255 185.687 L 44.829 186.579 L 44.829 186.579 Q 45.189 186.09 45.734 185.803 L 45.734 185.803 L 45.734 185.803 Q 46.278 185.516 46.921 185.516 L 46.921 185.516 L 47.539 185.516 L 47.539 186.69 Z  M 54.81 194.467 L 54.458 194.467 L 53.875 193.593 L 53.875 193.593 Q 53.515 194.064 52.975 194.352 L 52.975 194.352 L 52.975 194.352 Q 52.435 194.639 51.792 194.639 L 51.792 194.639 L 51.526 194.639 L 51.526 194.639 Q 50.994 194.639 50.523 194.437 L 50.523 194.437 L 50.523 194.437 Q 50.051 194.236 49.699 193.884 L 49.699 193.884 L 49.699 193.884 Q 49.348 193.533 49.146 193.061 L 49.146 193.061 L 49.146 193.061 Q 48.945 192.589 48.945 192.058 L 48.945 192.058 L 48.945 191.972 L 48.945 191.972 Q 48.945 191.441 49.146 190.969 L 49.146 190.969 L 49.146 190.969 Q 49.348 190.497 49.699 190.146 L 49.699 190.146 L 49.699 190.146 Q 50.051 189.794 50.523 189.593 L 50.523 189.593 L 50.523 189.593 Q 50.994 189.391 51.526 189.391 L 51.526 189.391 L 53.755 189.391 L 53.755 188.036 L 53.755 188.036 Q 53.755 187.719 53.635 187.441 L 53.635 187.441 L 53.635 187.441 Q 53.515 187.162 53.309 186.956 L 53.309 186.956 L 53.309 186.956 Q 53.103 186.75 52.825 186.63 L 52.825 186.63 L 52.825 186.63 Q 52.546 186.51 52.229 186.51 L 52.229 186.51 L 51.611 186.51 L 51.611 186.51 Q 51.294 186.51 51.016 186.63 L 51.016 186.63 L 51.016 186.63 Q 50.737 186.75 50.531 186.956 L 50.531 186.956 L 50.531 186.956 Q 50.325 187.162 50.205 187.441 L 50.205 187.441 L 50.205 187.441 Q 50.085 187.719 50.085 188.036 L 50.085 188.036 L 50.085 188.354 L 49.031 188.182 L 49.031 188.096 L 49.031 188.096 Q 49.031 187.565 49.232 187.093 L 49.232 187.093 L 49.232 187.093 Q 49.434 186.622 49.785 186.27 L 49.785 186.27 L 49.785 186.27 Q 50.137 185.919 50.608 185.717 L 50.608 185.717 L 50.608 185.717 Q 51.08 185.516 51.611 185.516 L 51.611 185.516 L 52.229 185.516 L 52.229 185.516 Q 52.76 185.516 53.232 185.717 L 53.232 185.717 L 53.232 185.717 Q 53.704 185.919 54.055 186.27 L 54.055 186.27 L 54.055 186.27 Q 54.407 186.622 54.608 187.093 L 54.608 187.093 L 54.608 187.093 Q 54.81 187.565 54.81 188.096 L 54.81 188.096 L 54.81 194.467 Z  M 53.755 192.118 L 53.755 190.214 L 51.526 190.214 L 51.526 190.214 Q 51.208 190.214 50.93 190.334 L 50.93 190.334 L 50.93 190.334 Q 50.651 190.454 50.445 190.665 L 50.445 190.665 L 50.445 190.665 Q 50.24 190.875 50.12 191.153 L 50.12 191.153 L 50.12 191.153 Q 49.999 191.432 49.999 191.749 L 49.999 191.749 L 49.999 192.118 L 49.999 192.118 Q 49.999 192.435 50.12 192.714 L 50.12 192.714 L 50.12 192.714 Q 50.24 192.992 50.445 193.198 L 50.445 193.198 L 50.445 193.198 Q 50.651 193.404 50.93 193.524 L 50.93 193.524 L 50.93 193.524 Q 51.208 193.644 51.526 193.644 L 51.526 193.644 L 52.229 193.644 L 52.229 193.644 Q 52.546 193.644 52.825 193.524 L 52.825 193.524 L 52.825 193.524 Q 53.103 193.404 53.309 193.198 L 53.309 193.198 L 53.309 193.198 Q 53.515 192.992 53.635 192.714 L 53.635 192.714 L 53.635 192.714 Q 53.755 192.435 53.755 192.118 L 53.755 192.118 Z  M 62.784 194.467 L 62.432 194.467 L 61.849 193.576 L 61.849 193.576 Q 61.489 194.064 60.949 194.352 L 60.949 194.352 L 60.949 194.352 Q 60.409 194.639 59.766 194.639 L 59.766 194.639 L 59.5 194.639 L 59.5 194.639 Q 58.968 194.639 58.497 194.437 L 58.497 194.437 L 58.497 194.437 Q 58.025 194.236 57.674 193.884 L 57.674 193.884 L 57.674 193.884 Q 57.322 193.533 57.121 193.061 L 57.121 193.061 L 57.121 193.061 Q 56.919 192.589 56.919 192.058 L 56.919 192.058 L 56.919 188.096 L 56.919 188.096 Q 56.919 187.565 57.121 187.093 L 57.121 187.093 L 57.121 187.093 Q 57.322 186.622 57.674 186.27 L 57.674 186.27 L 57.674 186.27 Q 58.025 185.919 58.497 185.717 L 58.497 185.717 L 58.497 185.717 Q 58.968 185.516 59.5 185.516 L 59.5 185.516 L 59.766 185.516 L 59.766 185.516 Q 60.357 185.516 60.863 185.756 L 60.863 185.756 L 60.863 185.756 Q 61.369 185.996 61.729 186.424 L 61.729 186.424 L 61.729 182.171 L 62.784 182.171 L 62.784 194.467 Z  M 61.729 192.118 L 61.729 188.036 L 61.729 188.036 Q 61.729 187.719 61.609 187.441 L 61.609 187.441 L 61.609 187.441 Q 61.489 187.162 61.284 186.956 L 61.284 186.956 L 61.284 186.956 Q 61.078 186.75 60.799 186.63 L 60.799 186.63 L 60.799 186.63 Q 60.52 186.51 60.203 186.51 L 60.203 186.51 L 59.5 186.51 L 59.5 186.51 Q 59.183 186.51 58.904 186.63 L 58.904 186.63 L 58.904 186.63 Q 58.625 186.75 58.42 186.956 L 58.42 186.956 L 58.42 186.956 Q 58.214 187.162 58.094 187.441 L 58.094 187.441 L 58.094 187.441 Q 57.974 187.719 57.974 188.036 L 57.974 188.036 L 57.974 192.118 L 57.974 192.118 Q 57.974 192.435 58.094 192.714 L 58.094 192.714 L 58.094 192.714 Q 58.214 192.992 58.42 193.198 L 58.42 193.198 L 58.42 193.198 Q 58.625 193.404 58.904 193.524 L 58.904 193.524 L 58.904 193.524 Q 59.183 193.644 59.5 193.644 L 59.5 193.644 L 60.203 193.644 L 60.203 193.644 Q 60.52 193.644 60.799 193.524 L 60.799 193.524 L 60.799 193.524 Q 61.078 193.404 61.284 193.198 L 61.284 193.198 L 61.284 193.198 Q 61.489 192.992 61.609 192.714 L 61.609 192.714 L 61.609 192.714 Q 61.729 192.435 61.729 192.118 L 61.729 192.118 Z  M 70.758 192.058 L 70.758 192.058 L 70.758 192.058 Q 70.758 192.589 70.557 193.061 L 70.557 193.061 L 70.557 193.061 Q 70.355 193.533 70.004 193.884 L 70.004 193.884 L 70.004 193.884 Q 69.652 194.236 69.181 194.437 L 69.181 194.437 L 69.181 194.437 Q 68.709 194.639 68.177 194.639 L 68.177 194.639 L 67.474 194.639 L 67.474 194.639 Q 66.943 194.639 66.471 194.437 L 66.471 194.437 L 66.471 194.437 Q 65.999 194.236 65.648 193.884 L 65.648 193.884 L 65.648 193.884 Q 65.296 193.533 65.095 193.061 L 65.095 193.061 L 65.095 193.061 Q 64.893 192.589 64.893 192.058 L 64.893 192.058 L 64.893 188.096 L 64.893 188.096 Q 64.893 187.565 65.095 187.093 L 65.095 187.093 L 65.095 187.093 Q 65.296 186.622 65.648 186.27 L 65.648 186.27 L 65.648 186.27 Q 65.999 185.919 66.471 185.717 L 66.471 185.717 L 66.471 185.717 Q 66.943 185.516 67.474 185.516 L 67.474 185.516 L 68.177 185.516 L 68.177 185.516 Q 68.709 185.516 69.181 185.717 L 69.181 185.717 L 69.181 185.717 Q 69.652 185.919 70.004 186.27 L 70.004 186.27 L 70.004 186.27 Q 70.355 186.622 70.557 187.093 L 70.557 187.093 L 70.557 187.093 Q 70.758 187.565 70.758 188.096 L 70.758 188.096 L 70.758 192.058 Z  M 69.704 192.118 L 69.704 188.036 L 69.704 188.036 Q 69.704 187.719 69.584 187.441 L 69.584 187.441 L 69.584 187.441 Q 69.464 187.162 69.258 186.956 L 69.258 186.956 L 69.258 186.956 Q 69.052 186.75 68.773 186.63 L 68.773 186.63 L 68.773 186.63 Q 68.495 186.51 68.177 186.51 L 68.177 186.51 L 67.474 186.51 L 67.474 186.51 Q 67.157 186.51 66.878 186.63 L 66.878 186.63 L 66.878 186.63 Q 66.6 186.75 66.394 186.956 L 66.394 186.956 L 66.394 186.956 Q 66.188 187.162 66.068 187.441 L 66.068 187.441 L 66.068 187.441 Q 65.948 187.719 65.948 188.036 L 65.948 188.036 L 65.948 192.118 L 65.948 192.118 Q 65.948 192.435 66.068 192.714 L 66.068 192.714 L 66.068 192.714 Q 66.188 192.992 66.394 193.198 L 66.394 193.198 L 66.394 193.198 Q 66.6 193.404 66.878 193.524 L 66.878 193.524 L 66.878 193.524 Q 67.157 193.644 67.474 193.644 L 67.474 193.644 L 68.177 193.644 L 68.177 193.644 Q 68.495 193.644 68.773 193.524 L 68.773 193.524 L 68.773 193.524 Q 69.052 193.404 69.258 193.198 L 69.258 193.198 L 69.258 193.198 Q 69.464 192.992 69.584 192.714 L 69.584 192.714 L 69.584 192.714 Q 69.704 192.435 69.704 192.118 L 69.704 192.118 Z " fill-rule="evenodd" fill="rgb(254,253,254)"/></svg>