<?xml version="1.0" standalone="no"?><!-- Generator: Gravit.io --><svg xmlns="http://www.w3.org/2000/svg" xmlns:xlink="http://www.w3.org/1999/xlink" style="isolation:isolate" viewBox="0 0 256 256" width="256" height="256"><defs><clipPath id="_clipPath_tRrOceIicK3wHatlEW0ninohgXomxjIw"><rect width="256" height="256"/></clipPath></defs><g clip-path="url(#_clipPath_tRrOceIicK3wHatlEW0ninohgXomxjIw)"><path d=" M 120.885 190.032 L 120.885 135.589 L 66.442 135.589 L 66.442 81.148 L 12 81.148 L 12 63 L 84.59 63 L 84.59 117.442 L 139.032 117.442 L 139.032 190.031 L 120.885 190.031 L 120.885 190.032 L 120.885 190.032 L 120.885 190.032 Z  M 12.008 117.442 L 12.008 190.031 L 84.589 190.031 L 84.589 171.884 L 30.147 171.884 L 30.147 117.442 L 12.008 117.442 L 12.008 117.442 L 12.008 117.442 Z  M 157.19 134.579 L 162.64 134.579 L 162.64 124.98 C 162.64 123.956 162.883 123.119 163.361 122.471 C 163.84 121.825 164.505 121.499 165.353 121.499 C 166.176 121.499 166.785 121.752 167.174 122.253 C 167.563 122.754 167.758 123.474 167.758 124.41 L 167.758 134.579 L 173.211 134.579 L 173.211 124.98 C 173.211 123.956 173.446 123.119 173.914 122.471 C 174.383 121.825 175.053 121.499 175.922 121.499 C 176.75 121.499 177.352 121.752 177.743 122.253 C 178.137 122.754 178.33 123.474 178.33 124.41 L 178.33 134.579 L 183.785 134.579 L 183.785 123.442 C 183.785 122.479 183.661 121.601 183.417 120.799 C 183.168 119.995 182.809 119.311 182.328 118.74 C 181.849 118.174 181.24 117.734 180.507 117.42 C 179.77 117.107 178.923 116.952 177.965 116.952 C 176.849 116.952 175.841 117.193 174.938 117.673 C 174.032 118.153 173.246 118.914 172.581 119.963 L 172.511 119.963 C 172.066 119.029 171.436 118.292 170.625 117.756 C 169.808 117.22 168.832 116.952 167.697 116.952 C 166.447 116.952 165.402 117.22 164.568 117.756 C 163.733 118.292 163.047 119.005 162.51 119.898 L 162.411 119.898 L 162.411 117.455 L 157.19 117.455 L 157.19 134.579 L 157.19 134.579 L 157.19 134.579 Z  M 186.19 115.08 L 191.642 115.08 L 191.642 110.663 L 186.19 110.663 L 186.19 115.08 L 186.19 115.08 L 186.19 115.08 Z  M 186.19 134.579 L 191.642 134.579 L 191.642 117.451 L 186.19 117.451 L 186.19 134.579 L 186.19 134.579 L 186.19 134.579 Z  M 202.964 134.697 C 203.463 134.643 203.837 134.579 204.083 134.511 L 204.083 130.532 C 203.975 130.532 203.806 130.54 203.582 130.55 C 203.364 130.561 203.128 130.567 202.881 130.567 C 202.299 130.567 201.835 130.452 201.492 130.231 C 201.144 130.007 200.974 129.558 200.974 128.893 L 200.974 120.866 L 204.083 120.866 L 204.083 117.453 L 200.974 117.453 L 200.974 112.035 L 195.655 112.035 L 195.655 117.453 L 193.383 117.453 L 193.383 120.866 L 195.655 120.866 L 195.655 130.065 C 195.655 130.977 195.789 131.742 196.059 132.355 C 196.325 132.969 196.702 133.452 197.196 133.809 C 197.685 134.165 198.259 134.418 198.918 134.562 C 199.577 134.708 200.307 134.777 201.109 134.777 C 201.843 134.777 202.464 134.753 202.964 134.697 Z  M 157.19 160.543 L 162.64 160.543 L 162.64 150.943 C 162.64 149.916 162.883 149.081 163.361 148.433 C 163.84 147.784 164.505 147.461 165.353 147.461 C 166.176 147.461 166.785 147.714 167.174 148.215 C 167.563 148.716 167.758 149.436 167.758 150.371 L 167.758 160.543 L 173.211 160.543 L 173.211 150.943 C 173.211 149.916 173.446 149.081 173.914 148.433 C 174.383 147.784 175.053 147.461 175.922 147.461 C 176.75 147.461 177.352 147.714 177.743 148.215 C 178.137 148.716 178.33 149.436 178.33 150.371 L 178.33 160.543 L 183.785 160.543 L 183.785 149.401 C 183.785 148.443 183.661 147.561 183.417 146.759 C 183.168 145.957 182.809 145.274 182.328 144.703 C 181.849 144.137 181.24 143.693 180.507 143.383 C 179.77 143.074 178.923 142.911 177.965 142.911 C 176.849 142.911 175.841 143.157 174.938 143.635 C 174.032 144.112 173.246 144.879 172.581 145.927 L 172.511 145.927 C 172.066 144.989 171.436 144.255 170.625 143.716 C 169.808 143.184 168.832 142.911 167.697 142.911 C 166.447 142.911 165.402 143.184 164.568 143.716 C 163.733 144.255 163.047 144.967 162.51 145.861 L 162.411 145.861 L 162.411 143.417 L 157.19 143.417 L 157.19 160.543 L 157.19 160.543 L 157.19 160.543 Z  M 197.398 160.64 C 198.277 160.374 199.076 159.988 199.79 159.471 C 200.548 158.959 201.173 158.352 201.661 157.649 C 202.152 156.945 202.49 156.205 202.665 155.429 L 197.346 155.429 C 197.102 155.962 196.745 156.381 196.276 156.682 C 195.805 156.977 195.219 157.13 194.504 157.13 C 193.364 157.13 192.487 156.799 191.859 156.132 C 191.235 155.462 190.833 154.545 190.656 153.385 L 202.965 153.385 C 202.989 151.648 202.75 150.061 202.246 148.62 C 201.745 147.182 200.978 145.995 199.955 145.059 C 199.218 144.388 198.365 143.865 197.397 143.487 C 196.426 143.106 195.329 142.913 194.101 142.913 C 192.787 142.913 191.596 143.146 190.524 143.605 C 189.452 144.059 188.524 144.697 187.746 145.51 C 186.968 146.324 186.365 147.285 185.939 148.385 C 185.515 149.492 185.305 150.679 185.305 151.948 C 185.305 153.241 185.515 154.448 185.939 155.56 C 186.365 156.681 186.968 157.639 187.746 158.459 C 188.524 159.267 189.486 159.905 190.621 160.359 C 191.758 160.817 193.031 161.045 194.436 161.045 C 195.528 161.04 196.517 160.911 197.398 160.64 Z  M 190.69 150.138 C 190.868 149.111 191.235 148.298 191.795 147.695 C 192.355 147.094 193.155 146.792 194.203 146.792 C 195.094 146.792 195.829 147.094 196.41 147.695 C 196.992 148.296 197.335 149.111 197.445 150.138 L 190.69 150.138 L 190.69 150.138 L 190.69 150.138 Z  M 214.82 160.324 C 215.678 159.824 216.362 159.128 216.875 158.231 L 216.944 158.231 L 216.944 160.543 L 222.161 160.543 L 222.161 136.624 L 216.711 136.624 L 216.711 145.353 L 216.61 145.353 C 216.095 144.64 215.469 144.054 214.735 143.6 C 213.997 143.142 213.024 142.908 211.827 142.908 C 210.707 142.908 209.693 143.134 208.779 143.581 C 207.862 144.027 207.081 144.648 206.424 145.44 C 205.762 146.231 205.25 147.185 204.882 148.298 C 204.517 149.416 204.33 150.642 204.33 151.975 C 204.33 153.405 204.517 154.683 204.882 155.81 C 205.25 156.934 205.772 157.886 206.441 158.668 C 207.108 159.451 207.897 160.045 208.814 160.458 C 209.73 160.87 210.728 161.077 211.827 161.077 C 212.962 161.075 213.963 160.824 214.82 160.324 Z  M 210.737 155.459 C 210.151 154.589 209.856 153.405 209.856 151.91 C 209.856 150.465 210.154 149.285 210.758 148.382 C 211.359 147.478 212.206 147.028 213.298 147.028 C 213.901 147.028 214.419 147.151 214.856 147.395 C 215.292 147.642 215.658 147.985 215.96 148.416 C 216.26 148.85 216.481 149.376 216.629 149.986 C 216.771 150.602 216.845 151.264 216.845 151.975 C 216.845 153.381 216.523 154.533 215.893 155.427 C 215.255 156.316 214.372 156.764 213.233 156.764 C 212.161 156.762 211.331 156.327 210.737 155.459 Z  M 224.357 141.039 L 229.809 141.039 L 229.809 136.625 L 224.357 136.625 L 224.357 141.039 L 224.357 141.039 L 224.357 141.039 Z  M 224.357 160.543 L 229.809 160.543 L 229.809 143.417 L 224.357 143.417 L 224.357 160.543 L 224.357 160.543 L 224.357 160.543 Z  M 240.629 160.344 C 241.421 159.916 242.073 159.348 242.585 158.632 L 242.655 158.632 C 242.722 159.082 242.799 159.466 242.888 159.79 C 242.974 160.111 243.092 160.363 243.22 160.543 L 248.506 160.543 L 248.506 160.308 C 248.26 160.152 248.099 159.876 248.023 159.486 C 247.943 159.097 247.905 158.556 247.905 157.864 L 247.905 149.237 C 247.905 148.167 247.726 147.22 247.367 146.392 C 247.01 145.569 246.47 144.887 245.73 144.353 C 245.109 143.882 244.342 143.535 243.454 143.297 C 242.56 143.064 241.469 142.946 240.179 142.946 C 238.886 142.946 237.758 143.103 236.801 143.417 C 235.838 143.726 235.043 144.149 234.408 144.686 C 233.773 145.219 233.29 145.85 232.954 146.561 C 232.619 147.274 232.442 148.031 232.418 148.835 L 237.434 148.835 C 237.524 148.118 237.792 147.575 238.238 147.194 C 238.683 146.816 239.342 146.625 240.211 146.625 C 241.037 146.625 241.632 146.792 242.001 147.129 C 242.367 147.461 242.552 147.91 242.552 148.468 C 242.552 149.046 242.231 149.46 241.582 149.703 C 240.936 149.948 239.806 150.175 238.205 150.371 C 237.312 150.486 236.468 150.651 235.676 150.876 C 234.883 151.098 234.186 151.415 233.585 151.83 C 232.982 152.241 232.512 152.766 232.163 153.399 C 231.818 154.037 231.648 154.823 231.648 155.757 C 231.648 156.607 231.791 157.354 232.08 157.999 C 232.372 158.645 232.772 159.195 233.287 159.636 C 233.799 160.082 234.416 160.418 235.143 160.639 C 235.864 160.865 236.65 160.977 237.501 160.977 C 238.792 160.977 239.838 160.765 240.629 160.344 Z  M 237.57 157.06 C 237.119 156.772 236.902 156.279 236.902 155.587 C 236.902 154.944 237.133 154.459 237.607 154.134 C 238.072 153.812 238.827 153.53 239.877 153.278 C 240.434 153.149 240.954 153.008 241.431 152.865 C 241.911 152.718 242.325 152.557 242.687 152.378 L 242.687 154.418 C 242.687 155.356 242.367 156.103 241.73 156.66 C 241.099 157.215 240.263 157.497 239.243 157.497 C 238.57 157.499 238.015 157.354 237.57 157.06 Z  M 157.19 190.034 L 162.707 190.034 L 162.707 166.116 L 157.19 166.116 L 157.19 190.034 L 157.19 190.034 L 157.19 190.034 Z  M 173.564 189.831 C 174.356 189.41 175.005 188.843 175.519 188.127 L 175.587 188.127 C 175.653 188.573 175.732 188.956 175.82 189.283 C 175.909 189.605 176.023 189.857 176.156 190.034 L 181.441 190.034 L 181.441 189.801 C 181.195 189.643 181.031 189.372 180.956 188.981 C 180.878 188.591 180.838 188.052 180.838 187.358 L 180.838 178.731 C 180.838 177.661 180.66 176.712 180.301 175.886 C 179.947 175.06 179.398 174.379 178.663 173.842 C 178.04 173.376 177.281 173.027 176.391 172.791 C 175.498 172.56 174.407 172.439 173.112 172.439 C 171.819 172.439 170.692 172.593 169.733 172.909 C 168.775 173.217 167.976 173.641 167.341 174.178 C 166.707 174.711 166.222 175.336 165.884 176.051 C 165.551 176.768 165.374 177.524 165.353 178.326 L 170.371 178.326 C 170.46 177.61 170.725 177.063 171.172 176.687 C 171.618 176.307 172.275 176.117 173.146 176.117 C 173.969 176.117 174.567 176.285 174.933 176.618 C 175.302 176.953 175.49 177.396 175.49 177.956 C 175.49 178.537 175.163 178.95 174.517 179.194 C 173.871 179.439 172.744 179.661 171.138 179.863 C 170.247 179.972 169.406 180.141 168.614 180.364 C 167.823 180.587 167.128 180.905 166.523 181.316 C 165.922 181.727 165.445 182.252 165.101 182.89 C 164.757 183.525 164.581 184.312 164.581 185.247 C 164.581 186.093 164.726 186.843 165.018 187.487 C 165.31 188.133 165.707 188.683 166.222 189.126 C 166.735 189.573 167.353 189.908 168.077 190.133 C 168.804 190.353 169.59 190.466 170.435 190.466 C 171.731 190.469 172.771 190.257 173.564 189.831 Z  M 170.505 186.556 C 170.057 186.266 169.834 185.776 169.834 185.082 C 169.834 184.435 170.068 183.953 170.537 183.628 C 171.004 183.308 171.763 183.021 172.811 182.778 C 173.366 182.644 173.887 182.506 174.367 182.359 C 174.847 182.214 175.265 182.053 175.622 181.876 L 175.622 183.914 C 175.622 184.851 175.302 185.598 174.669 186.156 C 174.031 186.714 173.2 186.993 172.176 186.993 C 171.507 186.991 170.948 186.846 170.505 186.556 Z  M 196.762 189.951 C 197.666 189.539 198.435 188.94 199.07 188.16 C 199.704 187.382 200.195 186.427 200.543 185.298 C 200.889 184.174 201.06 182.898 201.06 181.467 C 201.06 180.177 200.889 178.98 200.543 177.872 C 200.195 176.771 199.706 175.811 199.07 175 C 198.435 174.188 197.666 173.55 196.762 173.093 C 195.858 172.635 194.85 172.404 193.734 172.404 C 192.554 172.404 191.58 172.627 190.811 173.073 C 190.038 173.521 189.387 174.108 188.85 174.848 L 188.749 174.848 L 188.749 166.116 L 183.297 166.116 L 183.297 190.032 L 188.515 190.032 L 188.515 187.859 L 188.582 187.859 C 189.118 188.748 189.829 189.425 190.723 189.884 C 191.615 190.342 192.63 190.57 193.767 190.57 C 194.861 190.57 195.856 190.361 196.762 189.951 Z  M 189.553 184.931 C 188.905 184.049 188.583 182.898 188.583 181.467 C 188.583 180.066 188.878 178.894 189.47 177.958 C 190.058 177.02 190.958 176.551 192.163 176.551 C 193.279 176.551 194.118 177.001 194.688 177.892 C 195.257 178.784 195.542 179.964 195.542 181.437 C 195.542 182.93 195.257 184.108 194.688 184.968 C 194.117 185.826 193.3 186.254 192.229 186.254 C 191.092 186.254 190.199 185.816 189.553 184.931 Z " fill="rgb(254,253,254)"/></g></svg>