<?xml version="1.0" standalone="no"?><!-- Generator: Gravit.io --><svg xmlns="http://www.w3.org/2000/svg" xmlns:xlink="http://www.w3.org/1999/xlink" style="isolation:isolate" viewBox="0 0 140 116" width="140" height="116"><defs><clipPath id="_clipPath_I9ZQA6Z0Pch4i25sRHLt0wjug2dhpIzL"><rect width="140" height="116"/></clipPath></defs><g clip-path="url(#_clipPath_I9ZQA6Z0Pch4i25sRHLt0wjug2dhpIzL)"><g id="Group"><path d=" M 108 29.5 L 65.25 29.5 L 55.75 20 L 32 20 C 26.775 20 22.5 24.275 22.5 29.5 L 22.5 48.5 L 117.5 48.5 L 117.5 39 C 117.5 33.775 113.225 29.5 108 29.5 Z " fill="rgb(69,136,230)"/><path d=" M 108 29.5 L 32 29.5 C 26.775 29.5 22.5 33.775 22.5 39 L 22.5 86.5 C 22.5 91.725 26.775 96 32 96 L 108 96 C 113.225 96 117.5 91.725 117.5 86.5 L 117.5 39 C 117.5 33.775 113.225 29.5 108 29.5 Z " fill="rgb(76,151,255)"/><path d=" M 65.25 43.75 L 74.75 43.75 L 74.75 48.5 L 65.25 48.5 L 65.25 43.75 Z  M 65.25 29.5 L 74.75 29.5 L 74.75 34.25 L 65.25 34.25 L 65.25 29.5 Z  M 65.25 36.625 L 74.75 36.625 L 74.75 41.375 L 65.25 41.375 L 65.25 36.625 Z  M 65.25 50.875 L 74.75 50.875 L 74.75 55.625 L 65.25 55.625 L 65.25 50.875 Z  M 74.75 58 L 65.25 58 C 65.25 65.125 60.5 72.25 60.5 77 C 60.5 82.225 64.775 86.5 70 86.5 C 75.225 86.5 79.5 82.225 79.5 77 C 79.5 72.25 74.75 65.125 74.75 58 Z  M 70 81.75 C 67.383 81.75 65.25 79.617 65.25 77 C 65.25 74.383 67.383 72.25 70 72.25 C 72.617 72.25 74.75 74.383 74.75 77 C 74.75 79.617 72.617 81.75 70 81.75 Z " fill="rgb(255,140,26)"/></g></g></svg>