<?xml version="1.0" standalone="no"?><!-- Generator: Gravit.io --><svg xmlns="http://www.w3.org/2000/svg" xmlns:xlink="http://www.w3.org/1999/xlink" style="isolation:isolate" viewBox="0 0 140 116" width="140" height="116"><defs><clipPath id="_clipPath_wbmNaGYtAUxMzJL6GsfNgqPGSzymU9kZ"><rect width="140" height="116"/></clipPath></defs><g clip-path="url(#_clipPath_wbmNaGYtAUxMzJL6GsfNgqPGSzymU9kZ)"><g id="Group"><path d=" M 44.931 11.819 L 116.181 11.819 L 116.181 89.667 C 116.181 98.478 111.074 104.17 103.173 104.17 L 44.931 104.181 L 44.931 11.819 Z " fill="rgb(255,255,255)"/><path d=" M 114.861 13.139 L 114.861 89.667 C 114.861 97.797 110.383 102.851 103.173 102.851 L 46.25 102.861 L 46.25 13.139 L 114.861 13.139 Z  M 117.5 10.5 L 43.611 10.5 L 43.611 105.5 L 103.173 105.489 C 111.088 105.489 117.5 100.09 117.5 89.667 L 117.5 10.5 Z " fill="rgb(120,139,156)"/><path d=" M 38.333 104.181 C 30.319 104.167 23.827 97.671 23.819 89.656 L 23.819 83.069 L 95.069 83.069 L 95.069 92.493 C 95.069 99.024 97.748 102.769 103.234 103.851 L 102.762 104.181 L 38.333 104.181 Z " fill="rgb(225,235,242)"/><path d=" M 93.75 84.389 L 93.75 92.493 C 93.75 96.158 94.623 100.262 97.867 102.861 L 38.333 102.861 C 31.058 102.861 25.139 96.937 25.139 89.656 L 25.139 84.389 L 93.75 84.389 Z  M 96.389 81.75 L 22.5 81.75 L 22.5 89.656 C 22.5 98.402 29.587 105.494 38.333 105.5 L 103.176 105.5 L 106.944 102.861 C 100.63 102.861 96.389 100.407 96.389 92.493 L 96.389 81.75 Z " fill="rgb(120,139,156)"/></g><g id="Group"><path d=" M 44.59 10.5 C 53.426 10.5 60.57 17.644 60.57 26.48 C 60.57 35.316 53.426 42.46 44.59 42.46 C 35.754 42.46 28.61 35.316 28.61 26.48 C 28.61 17.644 35.754 10.5 44.59 10.5 Z  M 44.59 38.7 C 51.358 38.7 56.81 33.248 56.81 26.48 C 56.81 19.712 51.358 14.26 44.59 14.26 C 37.822 14.26 32.37 19.712 32.37 26.48 C 32.37 33.248 37.822 38.7 44.59 38.7 Z " fill="rgb(76,151,255)"/><line x1="35.002" y1="37.008" x2="22.5" y2="49.51" vector-effect="non-scaling-stroke" stroke-width="5.64" stroke="rgb(76,151,255)" stroke-linejoin="miter" stroke-linecap="butt" stroke-miterlimit="10"/></g><path d=" M 60.57 27 L 60.57 29 L 102.57 29 L 102.57 27 L 60.57 27 Z  M 60.57 42 L 60.57 44 L 102.57 44 L 102.57 42 L 60.57 42 Z  M 95.664 46.96 C 95.265 46.96 94.863 47.262 94.664 47.46 L 92.274 53.75 L 85.586 54.14 C 85.167 54.154 84.806 54.439 84.695 54.844 C 84.593 55.242 84.695 55.742 85.093 55.941 L 90.175 60.129 L 88.48 66.609 C 88.382 67.012 88.582 67.512 88.882 67.711 C 89.082 67.813 89.281 67.911 89.472 67.911 C 89.672 67.911 89.875 67.812 90.074 67.711 L 95.664 64.121 L 101.254 67.812 C 101.543 68.109 102.043 68.012 102.344 67.812 C 102.742 67.512 102.844 67.109 102.742 66.711 L 101.054 60.231 L 106.23 56.043 C 106.53 55.743 106.633 55.34 106.535 54.941 C 106.419 54.535 106.054 54.251 105.632 54.238 L 98.952 53.852 L 96.562 47.562 C 96.461 47.262 96.062 46.961 95.664 46.961 L 95.664 46.96 Z  M 95.664 50.75 L 97.261 55.238 C 97.461 55.539 97.754 55.844 98.152 55.844 L 102.942 56.141 L 99.254 59.129 C 98.953 59.332 98.851 59.73 98.953 60.129 L 100.152 64.719 L 96.164 62.129 C 96.026 62.007 95.849 61.938 95.664 61.934 C 95.461 61.934 95.261 62.031 95.062 62.031 L 91.07 64.621 L 92.273 60.031 C 92.371 59.731 92.273 59.231 91.973 59.031 L 88.285 56.043 L 93.07 55.843 C 93.46 55.743 93.761 55.539 93.96 55.141 L 95.664 50.75 Z  M 60.57 57 L 60.57 59 L 85.215 59 L 83.461 57.578 C 83.25 57.411 83.062 57.217 82.902 57 L 60.57 57 Z " fill="rgb(255,140,26)"/></g></svg>