<?xml version="1.0" standalone="no"?><!-- Generator: Gravit.io --><svg xmlns="http://www.w3.org/2000/svg" xmlns:xlink="http://www.w3.org/1999/xlink" style="isolation:isolate" viewBox="0 0 256 256" width="256" height="256"><path d=" M 63.076 116.854 L 63.076 116.854 L 63.076 116.854 Q 63.076 120.882 61.558 124.414 L 61.558 124.414 L 61.558 124.414 Q 60.041 127.945 57.393 130.593 L 57.393 130.593 L 57.393 130.593 Q 54.744 133.242 51.185 134.759 L 51.185 134.759 L 51.185 134.759 Q 47.626 136.276 43.599 136.276 L 43.599 136.276 L 25.667 136.276 L 25.667 166.678 L 18.549 166.678 L 18.549 87.556 L 43.599 87.556 L 43.599 87.556 Q 47.626 87.556 51.185 89.073 L 51.185 89.073 L 51.185 89.073 Q 54.744 90.591 57.393 93.239 L 57.393 93.239 L 57.393 93.239 Q 60.041 95.888 61.558 99.447 L 61.558 99.447 L 61.558 99.447 Q 63.076 103.005 63.076 107.033 L 63.076 107.033 L 63.076 116.854 Z  M 55.958 116.854 L 55.958 107.033 L 55.958 107.033 Q 55.958 104.385 54.965 102.095 L 54.965 102.095 L 54.965 102.095 Q 53.972 99.805 52.234 98.067 L 52.234 98.067 L 52.234 98.067 Q 50.496 96.329 48.206 95.336 L 48.206 95.336 L 48.206 95.336 Q 45.916 94.343 43.268 94.343 L 43.268 94.343 L 25.667 94.343 L 25.667 129.49 L 43.268 129.49 L 43.268 129.49 Q 45.916 129.49 48.206 128.497 L 48.206 128.497 L 48.206 128.497 Q 50.496 127.503 52.234 125.793 L 52.234 125.793 L 52.234 125.793 Q 53.972 124.083 54.965 121.793 L 54.965 121.793 L 54.965 121.793 Q 55.958 119.503 55.958 116.854 L 55.958 116.854 Z  M 121.176 116.854 L 121.176 116.854 L 121.176 116.854 Q 121.176 120.882 119.658 124.414 L 119.658 124.414 L 119.658 124.414 Q 118.141 127.945 115.493 130.593 L 115.493 130.593 L 115.493 130.593 Q 112.844 133.242 109.285 134.759 L 109.285 134.759 L 109.285 134.759 Q 105.727 136.276 101.699 136.276 L 101.699 136.276 L 83.767 136.276 L 83.767 166.678 L 76.649 166.678 L 76.649 87.556 L 101.699 87.556 L 101.699 87.556 Q 105.727 87.556 109.285 89.073 L 109.285 89.073 L 109.285 89.073 Q 112.844 90.591 115.493 93.239 L 115.493 93.239 L 115.493 93.239 Q 118.141 95.888 119.658 99.447 L 119.658 99.447 L 119.658 99.447 Q 121.176 103.005 121.176 107.033 L 121.176 107.033 L 121.176 116.854 Z  M 114.058 116.854 L 114.058 107.033 L 114.058 107.033 Q 114.058 104.385 113.065 102.095 L 113.065 102.095 L 113.065 102.095 Q 112.072 99.805 110.334 98.067 L 110.334 98.067 L 110.334 98.067 Q 108.596 96.329 106.306 95.336 L 106.306 95.336 L 106.306 95.336 Q 104.016 94.343 101.368 94.343 L 101.368 94.343 L 83.767 94.343 L 83.767 129.49 L 101.368 129.49 L 101.368 129.49 Q 104.016 129.49 106.306 128.497 L 106.306 128.497 L 106.306 128.497 Q 108.596 127.503 110.334 125.793 L 110.334 125.793 L 110.334 125.793 Q 112.072 124.083 113.065 121.793 L 113.065 121.793 L 113.065 121.793 Q 114.058 119.503 114.058 116.854 L 114.058 116.854 Z  M 178.117 125.076 L 178.117 166.678 L 175.855 166.678 L 171.717 160.333 L 171.717 160.333 Q 169.124 163.754 165.427 165.768 L 165.427 165.768 L 165.427 165.768 Q 161.73 167.782 157.206 167.782 L 157.206 167.782 L 153.067 167.782 L 153.067 167.782 Q 149.04 167.782 145.481 166.264 L 145.481 166.264 L 145.481 166.264 Q 141.922 164.747 139.273 162.099 L 139.273 162.099 L 139.273 162.099 Q 136.625 159.45 135.108 155.919 L 135.108 155.919 L 135.108 155.919 Q 133.59 152.388 133.59 148.36 L 133.59 148.36 L 133.59 105.875 L 133.59 105.875 Q 133.59 101.847 135.108 98.315 L 135.108 98.315 L 135.108 98.315 Q 136.625 94.784 139.273 92.136 L 139.273 92.136 L 139.273 92.136 Q 141.922 89.487 145.481 87.97 L 145.481 87.97 L 145.481 87.97 Q 149.04 86.453 153.067 86.453 L 153.067 86.453 L 158.695 86.453 L 158.695 86.453 Q 162.723 86.453 166.254 87.97 L 166.254 87.97 L 166.254 87.97 Q 169.786 89.487 172.434 92.136 L 172.434 92.136 L 172.434 92.136 Q 175.083 94.784 176.6 98.315 L 176.6 98.315 L 176.6 98.315 Q 178.117 101.847 178.117 105.875 L 178.117 105.875 L 178.117 109.075 L 171 110.178 L 171 105.875 L 171 105.875 Q 171 103.226 170.006 100.936 L 170.006 100.936 L 170.006 100.936 Q 169.013 98.646 167.303 96.936 L 167.303 96.936 L 167.303 96.936 Q 165.592 95.226 163.302 94.232 L 163.302 94.232 L 163.302 94.232 Q 161.013 93.239 158.364 93.239 L 158.364 93.239 L 153.398 93.239 L 153.398 93.239 Q 150.75 93.239 148.46 94.232 L 148.46 94.232 L 148.46 94.232 Q 146.17 95.226 144.432 96.936 L 144.432 96.936 L 144.432 96.936 Q 142.694 98.646 141.701 100.936 L 141.701 100.936 L 141.701 100.936 Q 140.708 103.226 140.708 105.875 L 140.708 105.875 L 140.708 148.36 L 140.708 148.36 Q 140.708 151.008 141.701 153.298 L 141.701 153.298 L 141.701 153.298 Q 142.694 155.588 144.432 157.326 L 144.432 157.326 L 144.432 157.326 Q 146.17 159.064 148.46 160.057 L 148.46 160.057 L 148.46 160.057 Q 150.75 161.05 153.398 161.05 L 153.398 161.05 L 158.364 161.05 L 158.364 161.05 Q 161.013 161.05 163.302 160.057 L 163.302 160.057 L 163.302 160.057 Q 165.592 159.064 167.303 157.326 L 167.303 157.326 L 167.303 157.326 Q 169.013 155.588 170.006 153.298 L 170.006 153.298 L 170.006 153.298 Q 171 151.008 171 148.36 L 171 148.36 L 171 131.862 L 158.364 131.862 L 158.364 125.076 L 178.117 125.076 Z  M 239.638 166.678 L 195.111 166.678 L 195.111 87.556 L 239.638 87.556 L 239.638 94.343 L 202.229 94.343 L 202.229 123.751 L 232.521 123.751 L 232.521 130.538 L 202.229 130.538 L 202.229 159.892 L 239.638 159.892 L 239.638 166.678 Z " fill-rule="evenodd" fill="rgb(254,253,254)"/><path d=" M 201.391 193.909 L 195.337 193.909 L 195.337 183.15 L 201.391 183.15 L 201.391 184.073 L 196.304 184.073 L 196.304 188.072 L 200.423 188.072 L 200.423 188.995 L 196.304 188.995 L 196.304 192.986 L 201.391 192.986 L 201.391 193.909 Z  M 208.061 193.909 L 207.753 193.909 L 207.243 193.129 L 207.243 193.129 Q 206.928 193.556 206.456 193.808 L 206.456 193.808 L 206.456 193.808 Q 205.983 194.059 205.42 194.059 L 205.42 194.059 L 205.188 194.059 L 205.188 194.059 Q 204.722 194.059 204.31 193.883 L 204.31 193.883 L 204.31 193.883 Q 203.897 193.706 203.589 193.399 L 203.589 193.399 L 203.589 193.399 Q 203.282 193.091 203.106 192.678 L 203.106 192.678 L 203.106 192.678 Q 202.929 192.266 202.929 191.801 L 202.929 191.801 L 202.929 188.334 L 202.929 188.334 Q 202.929 187.869 203.106 187.457 L 203.106 187.457 L 203.106 187.457 Q 203.282 187.044 203.589 186.736 L 203.589 186.736 L 203.589 186.736 Q 203.897 186.429 204.31 186.252 L 204.31 186.252 L 204.31 186.252 Q 204.722 186.076 205.188 186.076 L 205.188 186.076 L 205.42 186.076 L 205.42 186.076 Q 205.938 186.076 206.38 186.286 L 206.38 186.286 L 206.38 186.286 Q 206.823 186.496 207.138 186.871 L 207.138 186.871 L 207.138 183.15 L 208.061 183.15 L 208.061 193.909 Z  M 207.138 191.853 L 207.138 188.282 L 207.138 188.282 Q 207.138 188.004 207.033 187.76 L 207.033 187.76 L 207.033 187.76 Q 206.928 187.517 206.748 187.337 L 206.748 187.337 L 206.748 187.337 Q 206.568 187.156 206.324 187.051 L 206.324 187.051 L 206.324 187.051 Q 206.08 186.946 205.803 186.946 L 205.803 186.946 L 205.188 186.946 L 205.188 186.946 Q 204.91 186.946 204.666 187.051 L 204.666 187.051 L 204.666 187.051 Q 204.422 187.156 204.242 187.337 L 204.242 187.337 L 204.242 187.337 Q 204.062 187.517 203.957 187.76 L 203.957 187.76 L 203.957 187.76 Q 203.852 188.004 203.852 188.282 L 203.852 188.282 L 203.852 191.853 L 203.852 191.853 Q 203.852 192.131 203.957 192.375 L 203.957 192.375 L 203.957 192.375 Q 204.062 192.618 204.242 192.798 L 204.242 192.798 L 204.242 192.798 Q 204.422 192.979 204.666 193.084 L 204.666 193.084 L 204.666 193.084 Q 204.91 193.189 205.188 193.189 L 205.188 193.189 L 205.803 193.189 L 205.803 193.189 Q 206.08 193.189 206.324 193.084 L 206.324 193.084 L 206.324 193.084 Q 206.568 192.979 206.748 192.798 L 206.748 192.798 L 206.748 192.798 Q 206.928 192.618 207.033 192.375 L 207.033 192.375 L 207.033 192.375 Q 207.138 192.131 207.138 191.853 L 207.138 191.853 Z  M 215.039 193.909 L 214.731 193.909 L 214.221 193.129 L 214.221 193.129 Q 213.906 193.556 213.433 193.808 L 213.433 193.808 L 213.433 193.808 Q 212.96 194.059 212.398 194.059 L 212.398 194.059 L 212.165 194.059 L 212.165 194.059 Q 211.7 194.059 211.287 193.883 L 211.287 193.883 L 211.287 193.883 Q 210.875 193.706 210.567 193.399 L 210.567 193.399 L 210.567 193.399 Q 210.259 193.091 210.083 192.678 L 210.083 192.678 L 210.083 192.678 Q 209.907 192.266 209.907 191.801 L 209.907 191.801 L 209.907 186.226 L 210.83 186.226 L 210.83 191.853 L 210.83 191.853 Q 210.83 192.131 210.935 192.375 L 210.935 192.375 L 210.935 192.375 Q 211.04 192.618 211.22 192.798 L 211.22 192.798 L 211.22 192.798 Q 211.4 192.979 211.644 193.084 L 211.644 193.084 L 211.644 193.084 Q 211.887 193.189 212.165 193.189 L 212.165 193.189 L 212.78 193.189 L 212.78 193.189 Q 213.058 193.189 213.302 193.084 L 213.302 193.084 L 213.302 193.084 Q 213.546 192.979 213.726 192.798 L 213.726 192.798 L 213.726 192.798 Q 213.906 192.618 214.011 192.375 L 214.011 192.375 L 214.011 192.375 Q 214.116 192.131 214.116 191.853 L 214.116 191.853 L 214.116 186.226 L 215.039 186.226 L 215.039 193.909 Z  M 222.016 191.801 L 222.016 191.801 L 222.016 191.801 Q 222.016 192.266 221.84 192.678 L 221.84 192.678 L 221.84 192.678 Q 221.663 193.091 221.356 193.399 L 221.356 193.399 L 221.356 193.399 Q 221.048 193.706 220.636 193.883 L 220.636 193.883 L 220.636 193.883 Q 220.223 194.059 219.758 194.059 L 219.758 194.059 L 219.143 194.059 L 219.143 194.059 Q 218.677 194.059 218.265 193.883 L 218.265 193.883 L 218.265 193.883 Q 217.852 193.706 217.544 193.399 L 217.544 193.399 L 217.544 193.399 Q 217.237 193.091 217.061 192.678 L 217.061 192.678 L 217.061 192.678 Q 216.884 192.266 216.884 191.801 L 216.884 191.801 L 216.884 188.334 L 216.884 188.334 Q 216.884 187.869 217.061 187.457 L 217.061 187.457 L 217.061 187.457 Q 217.237 187.044 217.544 186.736 L 217.544 186.736 L 217.544 186.736 Q 217.852 186.429 218.265 186.252 L 218.265 186.252 L 218.265 186.252 Q 218.677 186.076 219.143 186.076 L 219.143 186.076 L 219.758 186.076 L 219.758 186.076 Q 220.223 186.076 220.636 186.252 L 220.636 186.252 L 220.636 186.252 Q 221.048 186.429 221.356 186.736 L 221.356 186.736 L 221.356 186.736 Q 221.663 187.044 221.84 187.457 L 221.84 187.457 L 221.84 187.457 Q 222.016 187.869 222.016 188.334 L 222.016 188.334 L 222.016 188.642 L 221.093 188.792 L 221.093 188.282 L 221.093 188.282 Q 221.093 188.004 220.988 187.76 L 220.988 187.76 L 220.988 187.76 Q 220.883 187.517 220.703 187.337 L 220.703 187.337 L 220.703 187.337 Q 220.523 187.156 220.279 187.051 L 220.279 187.051 L 220.279 187.051 Q 220.035 186.946 219.758 186.946 L 219.758 186.946 L 219.143 186.946 L 219.143 186.946 Q 218.865 186.946 218.621 187.051 L 218.621 187.051 L 218.621 187.051 Q 218.377 187.156 218.197 187.337 L 218.197 187.337 L 218.197 187.337 Q 218.017 187.517 217.912 187.76 L 217.912 187.76 L 217.912 187.76 Q 217.807 188.004 217.807 188.282 L 217.807 188.282 L 217.807 191.853 L 217.807 191.853 Q 217.807 192.131 217.912 192.375 L 217.912 192.375 L 217.912 192.375 Q 218.017 192.618 218.197 192.798 L 218.197 192.798 L 218.197 192.798 Q 218.377 192.979 218.621 193.084 L 218.621 193.084 L 218.621 193.084 Q 218.865 193.189 219.143 193.189 L 219.143 193.189 L 219.758 193.189 L 219.758 193.189 Q 220.035 193.189 220.279 193.084 L 220.279 193.084 L 220.279 193.084 Q 220.523 192.979 220.703 192.798 L 220.703 192.798 L 220.703 192.798 Q 220.883 192.618 220.988 192.375 L 220.988 192.375 L 220.988 192.375 Q 221.093 192.131 221.093 191.853 L 221.093 191.853 L 221.093 191.343 L 222.016 191.493 L 222.016 191.801 Z  M 228.994 193.909 L 228.686 193.909 L 228.176 193.144 L 228.176 193.144 Q 227.861 193.556 227.388 193.808 L 227.388 193.808 L 227.388 193.808 Q 226.915 194.059 226.353 194.059 L 226.353 194.059 L 226.12 194.059 L 226.12 194.059 Q 225.655 194.059 225.242 193.883 L 225.242 193.883 L 225.242 193.883 Q 224.83 193.706 224.522 193.399 L 224.522 193.399 L 224.522 193.399 Q 224.214 193.091 224.038 192.678 L 224.038 192.678 L 224.038 192.678 Q 223.862 192.266 223.862 191.801 L 223.862 191.801 L 223.862 191.726 L 223.862 191.726 Q 223.862 191.26 224.038 190.848 L 224.038 190.848 L 224.038 190.848 Q 224.214 190.435 224.522 190.128 L 224.522 190.128 L 224.522 190.128 Q 224.83 189.82 225.242 189.644 L 225.242 189.644 L 225.242 189.644 Q 225.655 189.467 226.12 189.467 L 226.12 189.467 L 228.071 189.467 L 228.071 188.282 L 228.071 188.282 Q 228.071 188.004 227.966 187.76 L 227.966 187.76 L 227.966 187.76 Q 227.861 187.517 227.681 187.337 L 227.681 187.337 L 227.681 187.337 Q 227.501 187.156 227.257 187.051 L 227.257 187.051 L 227.257 187.051 Q 227.013 186.946 226.735 186.946 L 226.735 186.946 L 226.195 186.946 L 226.195 186.946 Q 225.917 186.946 225.674 187.051 L 225.674 187.051 L 225.674 187.051 Q 225.43 187.156 225.25 187.337 L 225.25 187.337 L 225.25 187.337 Q 225.07 187.517 224.965 187.76 L 224.965 187.76 L 224.965 187.76 Q 224.86 188.004 224.86 188.282 L 224.86 188.282 L 224.86 188.559 L 223.937 188.409 L 223.937 188.334 L 223.937 188.334 Q 223.937 187.869 224.113 187.457 L 224.113 187.457 L 224.113 187.457 Q 224.289 187.044 224.597 186.736 L 224.597 186.736 L 224.597 186.736 Q 224.905 186.429 225.317 186.252 L 225.317 186.252 L 225.317 186.252 Q 225.73 186.076 226.195 186.076 L 226.195 186.076 L 226.735 186.076 L 226.735 186.076 Q 227.2 186.076 227.613 186.252 L 227.613 186.252 L 227.613 186.252 Q 228.026 186.429 228.333 186.736 L 228.333 186.736 L 228.333 186.736 Q 228.641 187.044 228.817 187.457 L 228.817 187.457 L 228.817 187.457 Q 228.994 187.869 228.994 188.334 L 228.994 188.334 L 228.994 193.909 Z  M 228.071 191.853 L 228.071 190.188 L 226.12 190.188 L 226.12 190.188 Q 225.842 190.188 225.599 190.293 L 225.599 190.293 L 225.599 190.293 Q 225.355 190.398 225.175 190.581 L 225.175 190.581 L 225.175 190.581 Q 224.995 190.765 224.89 191.009 L 224.89 191.009 L 224.89 191.009 Q 224.785 191.253 224.785 191.531 L 224.785 191.531 L 224.785 191.853 L 224.785 191.853 Q 224.785 192.131 224.89 192.375 L 224.89 192.375 L 224.89 192.375 Q 224.995 192.618 225.175 192.798 L 225.175 192.798 L 225.175 192.798 Q 225.355 192.979 225.599 193.084 L 225.599 193.084 L 225.599 193.084 Q 225.842 193.189 226.12 193.189 L 226.12 193.189 L 226.735 193.189 L 226.735 193.189 Q 227.013 193.189 227.257 193.084 L 227.257 193.084 L 227.257 193.084 Q 227.501 192.979 227.681 192.798 L 227.681 192.798 L 227.681 192.798 Q 227.861 192.618 227.966 192.375 L 227.966 192.375 L 227.966 192.375 Q 228.071 192.131 228.071 191.853 L 228.071 191.853 Z  M 232.587 195.034 L 233.188 194.059 L 233.098 194.059 L 233.098 194.059 Q 232.632 194.059 232.22 193.883 L 232.22 193.883 L 232.22 193.883 Q 231.807 193.706 231.499 193.399 L 231.499 193.399 L 231.499 193.399 Q 231.192 193.091 231.016 192.678 L 231.016 192.678 L 231.016 192.678 Q 230.839 192.266 230.839 191.801 L 230.839 191.801 L 230.839 188.334 L 230.839 188.334 Q 230.839 187.869 231.016 187.457 L 231.016 187.457 L 231.016 187.457 Q 231.192 187.044 231.499 186.736 L 231.499 186.736 L 231.499 186.736 Q 231.807 186.429 232.22 186.252 L 232.22 186.252 L 232.22 186.252 Q 232.632 186.076 233.098 186.076 L 233.098 186.076 L 233.713 186.076 L 233.713 186.076 Q 234.178 186.076 234.591 186.252 L 234.591 186.252 L 234.591 186.252 Q 235.003 186.429 235.311 186.736 L 235.311 186.736 L 235.311 186.736 Q 235.618 187.044 235.795 187.457 L 235.795 187.457 L 235.795 187.457 Q 235.971 187.869 235.971 188.334 L 235.971 188.334 L 235.971 188.642 L 235.048 188.792 L 235.048 188.282 L 235.048 188.282 Q 235.048 188.004 234.943 187.76 L 234.943 187.76 L 234.943 187.76 Q 234.838 187.517 234.658 187.337 L 234.658 187.337 L 234.658 187.337 Q 234.478 187.156 234.234 187.051 L 234.234 187.051 L 234.234 187.051 Q 233.99 186.946 233.713 186.946 L 233.713 186.946 L 233.098 186.946 L 233.098 186.946 Q 232.82 186.946 232.576 187.051 L 232.576 187.051 L 232.576 187.051 Q 232.332 187.156 232.152 187.337 L 232.152 187.337 L 232.152 187.337 Q 231.972 187.517 231.867 187.76 L 231.867 187.76 L 231.867 187.76 Q 231.762 188.004 231.762 188.282 L 231.762 188.282 L 231.762 191.853 L 231.762 191.853 Q 231.762 192.131 231.867 192.375 L 231.867 192.375 L 231.867 192.375 Q 231.972 192.618 232.152 192.798 L 232.152 192.798 L 232.152 192.798 Q 232.332 192.979 232.576 193.084 L 232.576 193.084 L 232.576 193.084 Q 232.82 193.189 233.098 193.189 L 233.098 193.189 L 233.713 193.189 L 233.713 193.189 Q 233.99 193.189 234.234 193.084 L 234.234 193.084 L 234.234 193.084 Q 234.478 192.979 234.658 192.798 L 234.658 192.798 L 234.658 192.798 Q 234.838 192.618 234.943 192.375 L 234.943 192.375 L 234.943 192.375 Q 235.048 192.131 235.048 191.853 L 235.048 191.853 L 235.048 191.343 L 235.971 191.493 L 235.971 191.801 L 235.971 191.801 Q 235.971 192.251 235.802 192.648 L 235.802 192.648 L 235.802 192.648 Q 235.633 193.046 235.345 193.35 L 235.345 193.35 L 235.345 193.35 Q 235.056 193.654 234.666 193.841 L 234.666 193.841 L 234.666 193.841 Q 234.275 194.029 233.833 194.059 L 233.833 194.059 L 233.48 194.674 L 233.48 194.674 Q 233.548 194.704 233.668 194.783 L 233.668 194.783 L 233.668 194.783 Q 233.788 194.862 233.904 194.997 L 233.904 194.997 L 233.904 194.997 Q 234.02 195.132 234.103 195.319 L 234.103 195.319 L 234.103 195.319 Q 234.185 195.507 234.185 195.755 L 234.185 195.755 L 234.185 195.755 Q 234.185 196.04 234.084 196.272 L 234.084 196.272 L 234.084 196.272 Q 233.983 196.505 233.799 196.666 L 233.799 196.666 L 233.799 196.666 Q 233.615 196.827 233.36 196.914 L 233.36 196.914 L 233.36 196.914 Q 233.105 197 232.805 197 L 232.805 197 L 232.805 197 Q 232.467 197 232.193 196.869 L 232.193 196.869 L 232.193 196.869 Q 231.92 196.737 231.702 196.52 L 231.702 196.52 L 232.055 195.98 L 232.055 195.98 Q 232.092 196.025 232.16 196.085 L 232.16 196.085 L 232.16 196.085 Q 232.227 196.145 232.329 196.197 L 232.329 196.197 L 232.329 196.197 Q 232.43 196.25 232.554 196.287 L 232.554 196.287 L 232.554 196.287 Q 232.677 196.325 232.82 196.325 L 232.82 196.325 L 232.82 196.325 Q 233.098 196.325 233.289 196.167 L 233.289 196.167 L 233.289 196.167 Q 233.48 196.01 233.48 195.725 L 233.48 195.725 L 233.48 195.725 Q 233.48 195.544 233.409 195.409 L 233.409 195.409 L 233.409 195.409 Q 233.338 195.274 233.214 195.184 L 233.214 195.184 L 233.214 195.184 Q 233.09 195.094 232.929 195.057 L 232.929 195.057 L 232.929 195.057 Q 232.767 195.019 232.587 195.034 L 232.587 195.034 Z  M 242.949 193.909 L 242.641 193.909 L 242.131 193.144 L 242.131 193.144 Q 241.816 193.556 241.343 193.808 L 241.343 193.808 L 241.343 193.808 Q 240.87 194.059 240.308 194.059 L 240.308 194.059 L 240.075 194.059 L 240.075 194.059 Q 239.61 194.059 239.197 193.883 L 239.197 193.883 L 239.197 193.883 Q 238.785 193.706 238.477 193.399 L 238.477 193.399 L 238.477 193.399 Q 238.169 193.091 237.993 192.678 L 237.993 192.678 L 237.993 192.678 Q 237.817 192.266 237.817 191.801 L 237.817 191.801 L 237.817 191.726 L 237.817 191.726 Q 237.817 191.26 237.993 190.848 L 237.993 190.848 L 237.993 190.848 Q 238.169 190.435 238.477 190.128 L 238.477 190.128 L 238.477 190.128 Q 238.785 189.82 239.197 189.644 L 239.197 189.644 L 239.197 189.644 Q 239.61 189.467 240.075 189.467 L 240.075 189.467 L 242.026 189.467 L 242.026 188.282 L 242.026 188.282 Q 242.026 188.004 241.921 187.76 L 241.921 187.76 L 241.921 187.76 Q 241.816 187.517 241.636 187.337 L 241.636 187.337 L 241.636 187.337 Q 241.456 187.156 241.212 187.051 L 241.212 187.051 L 241.212 187.051 Q 240.968 186.946 240.69 186.946 L 240.69 186.946 L 240.15 186.946 L 240.15 186.946 Q 239.872 186.946 239.629 187.051 L 239.629 187.051 L 239.629 187.051 Q 239.385 187.156 239.205 187.337 L 239.205 187.337 L 239.205 187.337 Q 239.025 187.517 238.92 187.76 L 238.92 187.76 L 238.92 187.76 Q 238.815 188.004 238.815 188.282 L 238.815 188.282 L 238.815 188.559 L 237.892 188.409 L 237.892 188.334 L 237.892 188.334 Q 237.892 187.869 238.068 187.457 L 238.068 187.457 L 238.068 187.457 Q 238.244 187.044 238.552 186.736 L 238.552 186.736 L 238.552 186.736 Q 238.86 186.429 239.272 186.252 L 239.272 186.252 L 239.272 186.252 Q 239.685 186.076 240.15 186.076 L 240.15 186.076 L 240.69 186.076 L 240.69 186.076 Q 241.155 186.076 241.568 186.252 L 241.568 186.252 L 241.568 186.252 Q 241.981 186.429 242.288 186.736 L 242.288 186.736 L 242.288 186.736 Q 242.596 187.044 242.772 187.457 L 242.772 187.457 L 242.772 187.457 Q 242.949 187.869 242.949 188.334 L 242.949 188.334 L 242.949 193.909 Z  M 242.026 191.853 L 242.026 190.188 L 240.075 190.188 L 240.075 190.188 Q 239.797 190.188 239.554 190.293 L 239.554 190.293 L 239.554 190.293 Q 239.31 190.398 239.13 190.581 L 239.13 190.581 L 239.13 190.581 Q 238.95 190.765 238.845 191.009 L 238.845 191.009 L 238.845 191.009 Q 238.74 191.253 238.74 191.531 L 238.74 191.531 L 238.74 191.853 L 238.74 191.853 Q 238.74 192.131 238.845 192.375 L 238.845 192.375 L 238.845 192.375 Q 238.95 192.618 239.13 192.798 L 239.13 192.798 L 239.13 192.798 Q 239.31 192.979 239.554 193.084 L 239.554 193.084 L 239.554 193.084 Q 239.797 193.189 240.075 193.189 L 240.075 193.189 L 240.69 193.189 L 240.69 193.189 Q 240.968 193.189 241.212 193.084 L 241.212 193.084 L 241.212 193.084 Q 241.456 192.979 241.636 192.798 L 241.636 192.798 L 241.636 192.798 Q 241.816 192.618 241.921 192.375 L 241.921 192.375 L 241.921 192.375 Q 242.026 192.131 242.026 191.853 L 242.026 191.853 Z  M 241.411 184.013 L 241.411 184.013 L 241.411 184.013 Q 241.726 184.013 241.891 183.773 L 241.891 183.773 L 241.891 183.773 Q 242.056 183.533 242.056 183.15 L 242.056 183.15 L 242.761 183.15 L 242.761 183.15 Q 242.761 183.488 242.675 183.78 L 242.675 183.78 L 242.675 183.78 Q 242.588 184.073 242.42 184.29 L 242.42 184.29 L 242.42 184.29 Q 242.251 184.508 241.992 184.636 L 241.992 184.636 L 241.992 184.636 Q 241.733 184.763 241.395 184.763 L 241.395 184.763 L 241.395 184.763 Q 241.035 184.763 240.762 184.628 L 240.762 184.628 L 240.762 184.628 Q 240.488 184.493 240.251 184.335 L 240.251 184.335 L 240.251 184.335 Q 240.015 184.178 239.801 184.043 L 239.801 184.043 L 239.801 184.043 Q 239.587 183.908 239.355 183.908 L 239.355 183.908 L 239.355 183.908 Q 239.04 183.908 238.882 184.144 L 238.882 184.144 L 238.882 184.144 Q 238.725 184.38 238.725 184.748 L 238.725 184.748 L 238.019 184.748 L 238.019 184.748 Q 238.019 184.418 238.102 184.125 L 238.102 184.125 L 238.102 184.125 Q 238.184 183.833 238.353 183.615 L 238.353 183.615 L 238.353 183.615 Q 238.522 183.398 238.781 183.274 L 238.781 183.274 L 238.781 183.274 Q 239.04 183.15 239.385 183.15 L 239.385 183.15 L 239.385 183.15 Q 239.722 183.15 239.981 183.285 L 239.981 183.285 L 239.981 183.285 Q 240.24 183.42 240.469 183.581 L 240.469 183.581 L 240.469 183.581 Q 240.698 183.743 240.923 183.878 L 240.923 183.878 L 240.923 183.878 Q 241.148 184.013 241.411 184.013 Z  M 249.926 191.801 L 249.926 191.801 L 249.926 191.801 Q 249.926 192.266 249.75 192.678 L 249.75 192.678 L 249.75 192.678 Q 249.573 193.091 249.266 193.399 L 249.266 193.399 L 249.266 193.399 Q 248.958 193.706 248.546 193.883 L 248.546 193.883 L 248.546 193.883 Q 248.133 194.059 247.668 194.059 L 247.668 194.059 L 247.053 194.059 L 247.053 194.059 Q 246.587 194.059 246.175 193.883 L 246.175 193.883 L 246.175 193.883 Q 245.762 193.706 245.454 193.399 L 245.454 193.399 L 245.454 193.399 Q 245.147 193.091 244.971 192.678 L 244.971 192.678 L 244.971 192.678 Q 244.794 192.266 244.794 191.801 L 244.794 191.801 L 244.794 188.334 L 244.794 188.334 Q 244.794 187.869 244.971 187.457 L 244.971 187.457 L 244.971 187.457 Q 245.147 187.044 245.454 186.736 L 245.454 186.736 L 245.454 186.736 Q 245.762 186.429 246.175 186.252 L 246.175 186.252 L 246.175 186.252 Q 246.587 186.076 247.053 186.076 L 247.053 186.076 L 247.668 186.076 L 247.668 186.076 Q 248.133 186.076 248.546 186.252 L 248.546 186.252 L 248.546 186.252 Q 248.958 186.429 249.266 186.736 L 249.266 186.736 L 249.266 186.736 Q 249.573 187.044 249.75 187.457 L 249.75 187.457 L 249.75 187.457 Q 249.926 187.869 249.926 188.334 L 249.926 188.334 L 249.926 191.801 Z  M 249.003 191.853 L 249.003 188.282 L 249.003 188.282 Q 249.003 188.004 248.898 187.76 L 248.898 187.76 L 248.898 187.76 Q 248.793 187.517 248.613 187.337 L 248.613 187.337 L 248.613 187.337 Q 248.433 187.156 248.189 187.051 L 248.189 187.051 L 248.189 187.051 Q 247.945 186.946 247.668 186.946 L 247.668 186.946 L 247.053 186.946 L 247.053 186.946 Q 246.775 186.946 246.531 187.051 L 246.531 187.051 L 246.531 187.051 Q 246.287 187.156 246.107 187.337 L 246.107 187.337 L 246.107 187.337 Q 245.927 187.517 245.822 187.76 L 245.822 187.76 L 245.822 187.76 Q 245.717 188.004 245.717 188.282 L 245.717 188.282 L 245.717 191.853 L 245.717 191.853 Q 245.717 192.131 245.822 192.375 L 245.822 192.375 L 245.822 192.375 Q 245.927 192.618 246.107 192.798 L 246.107 192.798 L 246.107 192.798 Q 246.287 192.979 246.531 193.084 L 246.531 193.084 L 246.531 193.084 Q 246.775 193.189 247.053 193.189 L 247.053 193.189 L 247.668 193.189 L 247.668 193.189 Q 247.945 193.189 248.189 193.084 L 248.189 193.084 L 248.189 193.084 Q 248.433 192.979 248.613 192.798 L 248.613 192.798 L 248.613 192.798 Q 248.793 192.618 248.898 192.375 L 248.898 192.375 L 248.898 192.375 Q 249.003 192.131 249.003 191.853 L 249.003 191.853 Z  M 178.771 191.801 L 178.771 191.801 L 178.771 191.801 Q 178.771 192.266 178.594 192.678 L 178.594 192.678 L 178.594 192.678 Q 178.418 193.091 178.11 193.399 L 178.11 193.399 L 178.11 193.399 Q 177.803 193.706 177.39 193.883 L 177.39 193.883 L 177.39 193.883 Q 176.977 194.059 176.512 194.059 L 176.512 194.059 L 175.897 194.059 L 175.897 194.059 Q 175.432 194.059 175.019 193.883 L 175.019 193.883 L 175.019 193.883 Q 174.607 193.706 174.299 193.399 L 174.299 193.399 L 174.299 193.399 Q 173.991 193.091 173.815 192.678 L 173.815 192.678 L 173.815 192.678 Q 173.639 192.266 173.639 191.801 L 173.639 191.801 L 173.639 188.334 L 173.639 188.334 Q 173.639 187.869 173.815 187.457 L 173.815 187.457 L 173.815 187.457 Q 173.991 187.044 174.299 186.736 L 174.299 186.736 L 174.299 186.736 Q 174.607 186.429 175.019 186.252 L 175.019 186.252 L 175.019 186.252 Q 175.432 186.076 175.897 186.076 L 175.897 186.076 L 176.512 186.076 L 176.512 186.076 Q 176.977 186.076 177.39 186.252 L 177.39 186.252 L 177.39 186.252 Q 177.803 186.429 178.11 186.736 L 178.11 186.736 L 178.11 186.736 Q 178.418 187.044 178.594 187.457 L 178.594 187.457 L 178.594 187.457 Q 178.771 187.869 178.771 188.334 L 178.771 188.334 L 178.771 190.143 L 174.562 190.143 L 174.562 191.853 L 174.562 191.853 Q 174.562 192.131 174.667 192.375 L 174.667 192.375 L 174.667 192.375 Q 174.772 192.618 174.952 192.798 L 174.952 192.798 L 174.952 192.798 Q 175.132 192.979 175.376 193.084 L 175.376 193.084 L 175.376 193.084 Q 175.62 193.189 175.897 193.189 L 175.897 193.189 L 176.512 193.189 L 176.512 193.189 Q 176.79 193.189 177.034 193.084 L 177.034 193.084 L 177.034 193.084 Q 177.278 192.979 177.458 192.798 L 177.458 192.798 L 177.458 192.798 Q 177.638 192.618 177.743 192.375 L 177.743 192.375 L 177.743 192.375 Q 177.848 192.131 177.848 191.853 L 177.848 191.853 L 177.848 191.343 L 178.771 191.493 L 178.771 191.801 Z  M 177.848 189.422 L 177.848 188.282 L 177.848 188.282 Q 177.848 188.004 177.743 187.76 L 177.743 187.76 L 177.743 187.76 Q 177.638 187.517 177.458 187.337 L 177.458 187.337 L 177.458 187.337 Q 177.278 187.156 177.034 187.051 L 177.034 187.051 L 177.034 187.051 Q 176.79 186.946 176.512 186.946 L 176.512 186.946 L 175.897 186.946 L 175.897 186.946 Q 175.62 186.946 175.376 187.051 L 175.376 187.051 L 175.376 187.051 Q 175.132 187.156 174.952 187.337 L 174.952 187.337 L 174.952 187.337 Q 174.772 187.517 174.667 187.76 L 174.667 187.76 L 174.667 187.76 Q 174.562 188.004 174.562 188.282 L 174.562 188.282 L 174.562 189.422 L 177.848 189.422 Z  M 189.65 193.909 L 188.727 193.909 L 188.727 188.282 L 188.727 188.282 Q 188.727 188.004 188.622 187.76 L 188.622 187.76 L 188.622 187.76 Q 188.517 187.517 188.337 187.337 L 188.337 187.337 L 188.337 187.337 Q 188.156 187.156 187.913 187.051 L 187.913 187.051 L 187.913 187.051 Q 187.669 186.946 187.391 186.946 L 187.391 186.946 L 186.934 186.946 L 186.934 186.946 Q 186.656 186.946 186.412 187.051 L 186.412 187.051 L 186.412 187.051 Q 186.168 187.156 185.984 187.337 L 185.984 187.337 L 185.984 187.337 Q 185.801 187.517 185.696 187.76 L 185.696 187.76 L 185.696 187.76 Q 185.591 188.004 185.591 188.282 L 185.591 188.282 L 185.591 193.909 L 184.675 193.909 L 184.675 188.282 L 184.675 188.282 Q 184.675 188.004 184.57 187.76 L 184.57 187.76 L 184.57 187.76 Q 184.465 187.517 184.281 187.337 L 184.281 187.337 L 184.281 187.337 Q 184.098 187.156 183.854 187.051 L 183.854 187.051 L 183.854 187.051 Q 183.61 186.946 183.332 186.946 L 183.332 186.946 L 182.875 186.946 L 182.875 186.946 Q 182.597 186.946 182.353 187.051 L 182.353 187.051 L 182.353 187.051 Q 182.109 187.156 181.929 187.337 L 181.929 187.337 L 181.929 187.337 Q 181.749 187.517 181.644 187.76 L 181.644 187.76 L 181.644 187.76 Q 181.539 188.004 181.539 188.282 L 181.539 188.282 L 181.539 193.909 L 180.616 193.909 L 180.616 186.226 L 180.924 186.226 L 181.427 187.006 L 181.427 187.006 Q 181.742 186.579 182.218 186.327 L 182.218 186.327 L 182.218 186.327 Q 182.695 186.076 183.257 186.076 L 183.257 186.076 L 183.332 186.076 L 183.332 186.076 Q 183.985 186.076 184.51 186.399 L 184.51 186.399 L 184.51 186.399 Q 185.035 186.721 185.32 187.254 L 185.32 187.254 L 185.32 187.254 Q 185.463 186.991 185.673 186.774 L 185.673 186.774 L 185.673 186.774 Q 185.883 186.556 186.138 186.402 L 186.138 186.402 L 186.138 186.402 Q 186.393 186.249 186.693 186.162 L 186.693 186.162 L 186.693 186.162 Q 186.994 186.076 187.316 186.076 L 187.316 186.076 L 187.391 186.076 L 187.391 186.076 Q 187.856 186.076 188.269 186.252 L 188.269 186.252 L 188.269 186.252 Q 188.682 186.429 188.989 186.736 L 188.989 186.736 L 188.989 186.736 Q 189.297 187.044 189.473 187.457 L 189.473 187.457 L 189.473 187.457 Q 189.65 187.869 189.65 188.334 L 189.65 188.334 L 189.65 193.909 Z  M 88.663 187.134 L 88.663 187.134 L 88.663 187.134 Q 88.663 187.682 88.457 188.162 L 88.457 188.162 L 88.457 188.162 Q 88.251 188.642 87.891 189.002 L 87.891 189.002 L 87.891 189.002 Q 87.531 189.362 87.047 189.569 L 87.047 189.569 L 87.047 189.569 Q 86.563 189.775 86.015 189.775 L 86.015 189.775 L 83.577 189.775 L 83.577 193.909 L 82.609 193.909 L 82.609 183.15 L 86.015 183.15 L 86.015 183.15 Q 86.563 183.15 87.047 183.356 L 87.047 183.356 L 87.047 183.356 Q 87.531 183.563 87.891 183.923 L 87.891 183.923 L 87.891 183.923 Q 88.251 184.283 88.457 184.767 L 88.457 184.767 L 88.457 184.767 Q 88.663 185.251 88.663 185.798 L 88.663 185.798 L 88.663 187.134 Z  M 87.696 187.134 L 87.696 185.798 L 87.696 185.798 Q 87.696 185.438 87.561 185.127 L 87.561 185.127 L 87.561 185.127 Q 87.426 184.816 87.189 184.579 L 87.189 184.579 L 87.189 184.579 Q 86.953 184.343 86.641 184.208 L 86.641 184.208 L 86.641 184.208 Q 86.33 184.073 85.97 184.073 L 85.97 184.073 L 83.577 184.073 L 83.577 188.852 L 85.97 188.852 L 85.97 188.852 Q 86.33 188.852 86.641 188.717 L 86.641 188.717 L 86.641 188.717 Q 86.953 188.582 87.189 188.349 L 87.189 188.349 L 87.189 188.349 Q 87.426 188.117 87.561 187.805 L 87.561 187.805 L 87.561 187.805 Q 87.696 187.494 87.696 187.134 L 87.696 187.134 Z  M 95.333 191.801 L 95.333 191.801 L 95.333 191.801 Q 95.333 192.266 95.157 192.678 L 95.157 192.678 L 95.157 192.678 Q 94.981 193.091 94.673 193.399 L 94.673 193.399 L 94.673 193.399 Q 94.365 193.706 93.953 193.883 L 93.953 193.883 L 93.953 193.883 Q 93.54 194.059 93.075 194.059 L 93.075 194.059 L 92.46 194.059 L 92.46 194.059 Q 91.995 194.059 91.582 193.883 L 91.582 193.883 L 91.582 193.883 Q 91.169 193.706 90.862 193.399 L 90.862 193.399 L 90.862 193.399 Q 90.554 193.091 90.378 192.678 L 90.378 192.678 L 90.378 192.678 Q 90.202 192.266 90.202 191.801 L 90.202 191.801 L 90.202 188.334 L 90.202 188.334 Q 90.202 187.869 90.378 187.457 L 90.378 187.457 L 90.378 187.457 Q 90.554 187.044 90.862 186.736 L 90.862 186.736 L 90.862 186.736 Q 91.169 186.429 91.582 186.252 L 91.582 186.252 L 91.582 186.252 Q 91.995 186.076 92.46 186.076 L 92.46 186.076 L 93.075 186.076 L 93.075 186.076 Q 93.54 186.076 93.953 186.252 L 93.953 186.252 L 93.953 186.252 Q 94.365 186.429 94.673 186.736 L 94.673 186.736 L 94.673 186.736 Q 94.981 187.044 95.157 187.457 L 95.157 187.457 L 95.157 187.457 Q 95.333 187.869 95.333 188.334 L 95.333 188.334 L 95.333 191.801 Z  M 94.411 191.853 L 94.411 188.282 L 94.411 188.282 Q 94.411 188.004 94.305 187.76 L 94.305 187.76 L 94.305 187.76 Q 94.2 187.517 94.02 187.337 L 94.02 187.337 L 94.02 187.337 Q 93.84 187.156 93.596 187.051 L 93.596 187.051 L 93.596 187.051 Q 93.353 186.946 93.075 186.946 L 93.075 186.946 L 92.46 186.946 L 92.46 186.946 Q 92.182 186.946 91.938 187.051 L 91.938 187.051 L 91.938 187.051 Q 91.695 187.156 91.514 187.337 L 91.514 187.337 L 91.514 187.337 Q 91.334 187.517 91.229 187.76 L 91.229 187.76 L 91.229 187.76 Q 91.124 188.004 91.124 188.282 L 91.124 188.282 L 91.124 191.853 L 91.124 191.853 Q 91.124 192.131 91.229 192.375 L 91.229 192.375 L 91.229 192.375 Q 91.334 192.618 91.514 192.798 L 91.514 192.798 L 91.514 192.798 Q 91.695 192.979 91.938 193.084 L 91.938 193.084 L 91.938 193.084 Q 92.182 193.189 92.46 193.189 L 92.46 193.189 L 93.075 193.189 L 93.075 193.189 Q 93.353 193.189 93.596 193.084 L 93.596 193.084 L 93.596 193.084 Q 93.84 192.979 94.02 192.798 L 94.02 192.798 L 94.02 192.798 Q 94.2 192.618 94.305 192.375 L 94.305 192.375 L 94.305 192.375 Q 94.411 192.131 94.411 191.853 L 94.411 191.853 Z  M 94.456 183.15 L 92.385 184.996 L 91.695 184.996 L 92.917 183.15 L 94.456 183.15 Z  M 102.461 191.958 L 102.461 191.958 L 102.461 191.958 Q 102.461 192.423 102.273 192.81 L 102.273 192.81 L 102.273 192.81 Q 102.086 193.196 101.763 193.474 L 101.763 193.474 L 101.763 193.474 Q 101.441 193.751 101.017 193.905 L 101.017 193.905 L 101.017 193.905 Q 100.593 194.059 100.128 194.059 L 100.128 194.059 L 99.512 194.059 L 99.512 194.059 Q 99.047 194.059 98.623 193.883 L 98.623 193.883 L 98.623 193.883 Q 98.199 193.706 97.88 193.399 L 97.88 193.399 L 97.88 193.399 Q 97.562 193.091 97.37 192.678 L 97.37 192.678 L 97.37 192.678 Q 97.179 192.266 97.179 191.801 L 97.179 191.801 L 97.179 191.493 L 98.102 191.343 L 98.102 191.853 L 98.102 191.853 Q 98.102 192.131 98.218 192.375 L 98.218 192.375 L 98.218 192.375 Q 98.334 192.618 98.529 192.798 L 98.529 192.798 L 98.529 192.798 Q 98.725 192.979 98.98 193.084 L 98.98 193.084 L 98.98 193.084 Q 99.235 193.189 99.512 193.189 L 99.512 193.189 L 100.128 193.189 L 100.128 193.189 Q 100.405 193.189 100.66 193.106 L 100.66 193.106 L 100.66 193.106 Q 100.915 193.024 101.114 192.87 L 101.114 192.87 L 101.114 192.87 Q 101.313 192.716 101.429 192.498 L 101.429 192.498 L 101.429 192.498 Q 101.546 192.281 101.546 192.003 L 101.546 192.003 L 101.546 192.003 Q 101.546 191.591 101.365 191.328 L 101.365 191.328 L 101.365 191.328 Q 101.185 191.065 100.889 190.889 L 100.889 190.889 L 100.889 190.889 Q 100.593 190.713 100.214 190.596 L 100.214 190.596 L 100.214 190.596 Q 99.835 190.48 99.437 190.364 L 99.437 190.364 L 99.437 190.364 Q 99.04 190.248 98.661 190.098 L 98.661 190.098 L 98.661 190.098 Q 98.282 189.947 97.986 189.704 L 97.986 189.704 L 97.986 189.704 Q 97.689 189.46 97.509 189.092 L 97.509 189.092 L 97.509 189.092 Q 97.329 188.725 97.329 188.177 L 97.329 188.177 L 97.329 188.177 Q 97.329 187.712 97.509 187.325 L 97.509 187.325 L 97.509 187.325 Q 97.689 186.939 97.997 186.661 L 97.997 186.661 L 97.997 186.661 Q 98.304 186.384 98.713 186.23 L 98.713 186.23 L 98.713 186.23 Q 99.122 186.076 99.587 186.076 L 99.587 186.076 L 100.128 186.076 L 100.128 186.076 Q 100.593 186.076 101.005 186.252 L 101.005 186.252 L 101.005 186.252 Q 101.418 186.429 101.726 186.736 L 101.726 186.736 L 101.726 186.736 Q 102.033 187.044 102.21 187.457 L 102.21 187.457 L 102.21 187.457 Q 102.386 187.869 102.386 188.334 L 102.386 188.334 L 102.386 188.364 L 101.463 188.514 L 101.463 188.282 L 101.463 188.282 Q 101.463 188.004 101.358 187.76 L 101.358 187.76 L 101.358 187.76 Q 101.253 187.517 101.073 187.337 L 101.073 187.337 L 101.073 187.337 Q 100.893 187.156 100.649 187.051 L 100.649 187.051 L 100.649 187.051 Q 100.405 186.946 100.128 186.946 L 100.128 186.946 L 99.587 186.946 L 99.587 186.946 Q 99.31 186.946 99.066 187.029 L 99.066 187.029 L 99.066 187.029 Q 98.822 187.111 98.642 187.265 L 98.642 187.265 L 98.642 187.265 Q 98.462 187.419 98.357 187.637 L 98.357 187.637 L 98.357 187.637 Q 98.252 187.854 98.252 188.132 L 98.252 188.132 L 98.252 188.132 Q 98.252 188.529 98.432 188.781 L 98.432 188.781 L 98.432 188.781 Q 98.612 189.032 98.908 189.205 L 98.908 189.205 L 98.908 189.205 Q 99.205 189.377 99.584 189.494 L 99.584 189.494 L 99.584 189.494 Q 99.962 189.61 100.356 189.734 L 100.356 189.734 L 100.356 189.734 Q 100.75 189.857 101.129 190.015 L 101.129 190.015 L 101.129 190.015 Q 101.508 190.173 101.804 190.42 L 101.804 190.42 L 101.804 190.42 Q 102.101 190.668 102.281 191.039 L 102.281 191.039 L 102.281 191.039 Q 102.461 191.411 102.461 191.958 Z  M 106.947 189.205 L 104.074 189.205 L 104.074 188.334 L 106.947 188.334 L 106.947 189.205 Z  M 114.848 188.252 L 114.848 193.909 L 114.54 193.909 L 113.977 193.046 L 113.977 193.046 Q 113.625 193.511 113.122 193.785 L 113.122 193.785 L 113.122 193.785 Q 112.62 194.059 112.004 194.059 L 112.004 194.059 L 111.442 194.059 L 111.442 194.059 Q 110.894 194.059 110.41 193.853 L 110.41 193.853 L 110.41 193.853 Q 109.926 193.646 109.566 193.286 L 109.566 193.286 L 109.566 193.286 Q 109.206 192.926 108.999 192.446 L 108.999 192.446 L 108.999 192.446 Q 108.793 191.966 108.793 191.418 L 108.793 191.418 L 108.793 185.641 L 108.793 185.641 Q 108.793 185.093 108.999 184.613 L 108.999 184.613 L 108.999 184.613 Q 109.206 184.133 109.566 183.773 L 109.566 183.773 L 109.566 183.773 Q 109.926 183.413 110.41 183.206 L 110.41 183.206 L 110.41 183.206 Q 110.894 183 111.442 183 L 111.442 183 L 112.207 183 L 112.207 183 Q 112.755 183 113.235 183.206 L 113.235 183.206 L 113.235 183.206 Q 113.715 183.413 114.075 183.773 L 114.075 183.773 L 114.075 183.773 Q 114.435 184.133 114.641 184.613 L 114.641 184.613 L 114.641 184.613 Q 114.848 185.093 114.848 185.641 L 114.848 185.641 L 114.848 186.076 L 113.88 186.226 L 113.88 185.641 L 113.88 185.641 Q 113.88 185.281 113.745 184.969 L 113.745 184.969 L 113.745 184.969 Q 113.61 184.658 113.377 184.426 L 113.377 184.426 L 113.377 184.426 Q 113.145 184.193 112.833 184.058 L 112.833 184.058 L 112.833 184.058 Q 112.522 183.923 112.162 183.923 L 112.162 183.923 L 111.487 183.923 L 111.487 183.923 Q 111.126 183.923 110.815 184.058 L 110.815 184.058 L 110.815 184.058 Q 110.504 184.193 110.267 184.426 L 110.267 184.426 L 110.267 184.426 Q 110.031 184.658 109.896 184.969 L 109.896 184.969 L 109.896 184.969 Q 109.761 185.281 109.761 185.641 L 109.761 185.641 L 109.761 191.418 L 109.761 191.418 Q 109.761 191.778 109.896 192.089 L 109.896 192.089 L 109.896 192.089 Q 110.031 192.401 110.267 192.637 L 110.267 192.637 L 110.267 192.637 Q 110.504 192.874 110.815 193.009 L 110.815 193.009 L 110.815 193.009 Q 111.126 193.144 111.487 193.144 L 111.487 193.144 L 112.162 193.144 L 112.162 193.144 Q 112.522 193.144 112.833 193.009 L 112.833 193.009 L 112.833 193.009 Q 113.145 192.874 113.377 192.637 L 113.377 192.637 L 113.377 192.637 Q 113.61 192.401 113.745 192.089 L 113.745 192.089 L 113.745 192.089 Q 113.88 191.778 113.88 191.418 L 113.88 191.418 L 113.88 189.175 L 112.162 189.175 L 112.162 188.252 L 114.848 188.252 Z  M 120.032 187.104 L 119.109 187.104 L 119.109 187.104 Q 118.832 187.104 118.588 187.209 L 118.588 187.209 L 118.588 187.209 Q 118.344 187.314 118.164 187.494 L 118.164 187.494 L 118.164 187.494 Q 117.984 187.674 117.879 187.918 L 117.879 187.918 L 117.879 187.918 Q 117.774 188.162 117.774 188.439 L 117.774 188.439 L 117.774 193.909 L 116.851 193.909 L 116.851 186.226 L 117.159 186.226 L 117.661 187.006 L 117.661 187.006 Q 117.976 186.579 118.453 186.327 L 118.453 186.327 L 118.453 186.327 Q 118.929 186.076 119.492 186.076 L 119.492 186.076 L 120.032 186.076 L 120.032 187.104 Z  M 126.394 193.909 L 126.087 193.909 L 125.577 193.144 L 125.577 193.144 Q 125.262 193.556 124.789 193.808 L 124.789 193.808 L 124.789 193.808 Q 124.316 194.059 123.753 194.059 L 123.753 194.059 L 123.521 194.059 L 123.521 194.059 Q 123.056 194.059 122.643 193.883 L 122.643 193.883 L 122.643 193.883 Q 122.23 193.706 121.923 193.399 L 121.923 193.399 L 121.923 193.399 Q 121.615 193.091 121.439 192.678 L 121.439 192.678 L 121.439 192.678 Q 121.263 192.266 121.263 191.801 L 121.263 191.801 L 121.263 191.726 L 121.263 191.726 Q 121.263 191.26 121.439 190.848 L 121.439 190.848 L 121.439 190.848 Q 121.615 190.435 121.923 190.128 L 121.923 190.128 L 121.923 190.128 Q 122.23 189.82 122.643 189.644 L 122.643 189.644 L 122.643 189.644 Q 123.056 189.467 123.521 189.467 L 123.521 189.467 L 125.472 189.467 L 125.472 188.282 L 125.472 188.282 Q 125.472 188.004 125.367 187.76 L 125.367 187.76 L 125.367 187.76 Q 125.262 187.517 125.081 187.337 L 125.081 187.337 L 125.081 187.337 Q 124.901 187.156 124.658 187.051 L 124.658 187.051 L 124.658 187.051 Q 124.414 186.946 124.136 186.946 L 124.136 186.946 L 123.596 186.946 L 123.596 186.946 Q 123.318 186.946 123.074 187.051 L 123.074 187.051 L 123.074 187.051 Q 122.831 187.156 122.651 187.337 L 122.651 187.337 L 122.651 187.337 Q 122.471 187.517 122.365 187.76 L 122.365 187.76 L 122.365 187.76 Q 122.26 188.004 122.26 188.282 L 122.26 188.282 L 122.26 188.559 L 121.338 188.409 L 121.338 188.334 L 121.338 188.334 Q 121.338 187.869 121.514 187.457 L 121.514 187.457 L 121.514 187.457 Q 121.69 187.044 121.998 186.736 L 121.998 186.736 L 121.998 186.736 Q 122.305 186.429 122.718 186.252 L 122.718 186.252 L 122.718 186.252 Q 123.131 186.076 123.596 186.076 L 123.596 186.076 L 124.136 186.076 L 124.136 186.076 Q 124.601 186.076 125.014 186.252 L 125.014 186.252 L 125.014 186.252 Q 125.427 186.429 125.734 186.736 L 125.734 186.736 L 125.734 186.736 Q 126.042 187.044 126.218 187.457 L 126.218 187.457 L 126.218 187.457 Q 126.394 187.869 126.394 188.334 L 126.394 188.334 L 126.394 193.909 Z  M 125.472 191.853 L 125.472 190.188 L 123.521 190.188 L 123.521 190.188 Q 123.243 190.188 122.999 190.293 L 122.999 190.293 L 122.999 190.293 Q 122.756 190.398 122.576 190.581 L 122.576 190.581 L 122.576 190.581 Q 122.395 190.765 122.29 191.009 L 122.29 191.009 L 122.29 191.009 Q 122.185 191.253 122.185 191.531 L 122.185 191.531 L 122.185 191.853 L 122.185 191.853 Q 122.185 192.131 122.29 192.375 L 122.29 192.375 L 122.29 192.375 Q 122.395 192.618 122.576 192.798 L 122.576 192.798 L 122.576 192.798 Q 122.756 192.979 122.999 193.084 L 122.999 193.084 L 122.999 193.084 Q 123.243 193.189 123.521 193.189 L 123.521 193.189 L 124.136 193.189 L 124.136 193.189 Q 124.414 193.189 124.658 193.084 L 124.658 193.084 L 124.658 193.084 Q 124.901 192.979 125.081 192.798 L 125.081 192.798 L 125.081 192.798 Q 125.262 192.618 125.367 192.375 L 125.367 192.375 L 125.367 192.375 Q 125.472 192.131 125.472 191.853 L 125.472 191.853 Z  M 133.372 193.909 L 133.064 193.909 L 132.554 193.129 L 132.554 193.129 Q 132.239 193.556 131.766 193.808 L 131.766 193.808 L 131.766 193.808 Q 131.294 194.059 130.731 194.059 L 130.731 194.059 L 130.498 194.059 L 130.498 194.059 Q 130.033 194.059 129.621 193.883 L 129.621 193.883 L 129.621 193.883 Q 129.208 193.706 128.9 193.399 L 128.9 193.399 L 128.9 193.399 Q 128.593 193.091 128.416 192.678 L 128.416 192.678 L 128.416 192.678 Q 128.24 192.266 128.24 191.801 L 128.24 191.801 L 128.24 188.334 L 128.24 188.334 Q 128.24 187.869 128.416 187.457 L 128.416 187.457 L 128.416 187.457 Q 128.593 187.044 128.9 186.736 L 128.9 186.736 L 128.9 186.736 Q 129.208 186.429 129.621 186.252 L 129.621 186.252 L 129.621 186.252 Q 130.033 186.076 130.498 186.076 L 130.498 186.076 L 130.731 186.076 L 130.731 186.076 Q 131.249 186.076 131.691 186.286 L 131.691 186.286 L 131.691 186.286 Q 132.134 186.496 132.449 186.871 L 132.449 186.871 L 132.449 183.15 L 133.372 183.15 L 133.372 193.909 Z  M 132.449 191.853 L 132.449 188.282 L 132.449 188.282 Q 132.449 188.004 132.344 187.76 L 132.344 187.76 L 132.344 187.76 Q 132.239 187.517 132.059 187.337 L 132.059 187.337 L 132.059 187.337 Q 131.879 187.156 131.635 187.051 L 131.635 187.051 L 131.635 187.051 Q 131.391 186.946 131.114 186.946 L 131.114 186.946 L 130.498 186.946 L 130.498 186.946 Q 130.221 186.946 129.977 187.051 L 129.977 187.051 L 129.977 187.051 Q 129.733 187.156 129.553 187.337 L 129.553 187.337 L 129.553 187.337 Q 129.373 187.517 129.268 187.76 L 129.268 187.76 L 129.268 187.76 Q 129.163 188.004 129.163 188.282 L 129.163 188.282 L 129.163 191.853 L 129.163 191.853 Q 129.163 192.131 129.268 192.375 L 129.268 192.375 L 129.268 192.375 Q 129.373 192.618 129.553 192.798 L 129.553 192.798 L 129.553 192.798 Q 129.733 192.979 129.977 193.084 L 129.977 193.084 L 129.977 193.084 Q 130.221 193.189 130.498 193.189 L 130.498 193.189 L 131.114 193.189 L 131.114 193.189 Q 131.391 193.189 131.635 193.084 L 131.635 193.084 L 131.635 193.084 Q 131.879 192.979 132.059 192.798 L 132.059 192.798 L 132.059 192.798 Q 132.239 192.618 132.344 192.375 L 132.344 192.375 L 132.344 192.375 Q 132.449 192.131 132.449 191.853 L 132.449 191.853 Z  M 140.349 193.909 L 140.042 193.909 L 139.532 193.129 L 139.532 193.129 Q 139.217 193.556 138.744 193.808 L 138.744 193.808 L 138.744 193.808 Q 138.271 194.059 137.708 194.059 L 137.708 194.059 L 137.476 194.059 L 137.476 194.059 Q 137.011 194.059 136.598 193.883 L 136.598 193.883 L 136.598 193.883 Q 136.185 193.706 135.878 193.399 L 135.878 193.399 L 135.878 193.399 Q 135.57 193.091 135.394 192.678 L 135.394 192.678 L 135.394 192.678 Q 135.218 192.266 135.218 191.801 L 135.218 191.801 L 135.218 186.226 L 136.14 186.226 L 136.14 191.853 L 136.14 191.853 Q 136.14 192.131 136.245 192.375 L 136.245 192.375 L 136.245 192.375 Q 136.35 192.618 136.531 192.798 L 136.531 192.798 L 136.531 192.798 Q 136.711 192.979 136.954 193.084 L 136.954 193.084 L 136.954 193.084 Q 137.198 193.189 137.476 193.189 L 137.476 193.189 L 138.091 193.189 L 138.091 193.189 Q 138.369 193.189 138.613 193.084 L 138.613 193.084 L 138.613 193.084 Q 138.856 192.979 139.036 192.798 L 139.036 192.798 L 139.036 192.798 Q 139.217 192.618 139.322 192.375 L 139.322 192.375 L 139.322 192.375 Q 139.427 192.131 139.427 191.853 L 139.427 191.853 L 139.427 186.226 L 140.349 186.226 L 140.349 193.909 Z  M 147.327 193.909 L 147.019 193.909 L 146.509 193.144 L 146.509 193.144 Q 146.194 193.556 145.721 193.808 L 145.721 193.808 L 145.721 193.808 Q 145.249 194.059 144.686 194.059 L 144.686 194.059 L 144.453 194.059 L 144.453 194.059 Q 143.988 194.059 143.576 193.883 L 143.576 193.883 L 143.576 193.883 Q 143.163 193.706 142.855 193.399 L 142.855 193.399 L 142.855 193.399 Q 142.548 193.091 142.371 192.678 L 142.371 192.678 L 142.371 192.678 Q 142.195 192.266 142.195 191.801 L 142.195 191.801 L 142.195 191.726 L 142.195 191.726 Q 142.195 191.26 142.371 190.848 L 142.371 190.848 L 142.371 190.848 Q 142.548 190.435 142.855 190.128 L 142.855 190.128 L 142.855 190.128 Q 143.163 189.82 143.576 189.644 L 143.576 189.644 L 143.576 189.644 Q 143.988 189.467 144.453 189.467 L 144.453 189.467 L 146.404 189.467 L 146.404 188.282 L 146.404 188.282 Q 146.404 188.004 146.299 187.76 L 146.299 187.76 L 146.299 187.76 Q 146.194 187.517 146.014 187.337 L 146.014 187.337 L 146.014 187.337 Q 145.834 187.156 145.59 187.051 L 145.59 187.051 L 145.59 187.051 Q 145.346 186.946 145.069 186.946 L 145.069 186.946 L 144.528 186.946 L 144.528 186.946 Q 144.251 186.946 144.007 187.051 L 144.007 187.051 L 144.007 187.051 Q 143.763 187.156 143.583 187.337 L 143.583 187.337 L 143.583 187.337 Q 143.403 187.517 143.298 187.76 L 143.298 187.76 L 143.298 187.76 Q 143.193 188.004 143.193 188.282 L 143.193 188.282 L 143.193 188.559 L 142.27 188.409 L 142.27 188.334 L 142.27 188.334 Q 142.27 187.869 142.446 187.457 L 142.446 187.457 L 142.446 187.457 Q 142.623 187.044 142.93 186.736 L 142.93 186.736 L 142.93 186.736 Q 143.238 186.429 143.651 186.252 L 143.651 186.252 L 143.651 186.252 Q 144.063 186.076 144.528 186.076 L 144.528 186.076 L 145.069 186.076 L 145.069 186.076 Q 145.534 186.076 145.946 186.252 L 145.946 186.252 L 145.946 186.252 Q 146.359 186.429 146.667 186.736 L 146.667 186.736 L 146.667 186.736 Q 146.974 187.044 147.151 187.457 L 147.151 187.457 L 147.151 187.457 Q 147.327 187.869 147.327 188.334 L 147.327 188.334 L 147.327 193.909 Z  M 146.404 191.853 L 146.404 190.188 L 144.453 190.188 L 144.453 190.188 Q 144.176 190.188 143.932 190.293 L 143.932 190.293 L 143.932 190.293 Q 143.688 190.398 143.508 190.581 L 143.508 190.581 L 143.508 190.581 Q 143.328 190.765 143.223 191.009 L 143.223 191.009 L 143.223 191.009 Q 143.118 191.253 143.118 191.531 L 143.118 191.531 L 143.118 191.853 L 143.118 191.853 Q 143.118 192.131 143.223 192.375 L 143.223 192.375 L 143.223 192.375 Q 143.328 192.618 143.508 192.798 L 143.508 192.798 L 143.508 192.798 Q 143.688 192.979 143.932 193.084 L 143.932 193.084 L 143.932 193.084 Q 144.176 193.189 144.453 193.189 L 144.453 193.189 L 145.069 193.189 L 145.069 193.189 Q 145.346 193.189 145.59 193.084 L 145.59 193.084 L 145.59 193.084 Q 145.834 192.979 146.014 192.798 L 146.014 192.798 L 146.014 192.798 Q 146.194 192.618 146.299 192.375 L 146.299 192.375 L 146.299 192.375 Q 146.404 192.131 146.404 191.853 L 146.404 191.853 Z  M 150.921 195.034 L 151.521 194.059 L 151.431 194.059 L 151.431 194.059 Q 150.966 194.059 150.553 193.883 L 150.553 193.883 L 150.553 193.883 Q 150.14 193.706 149.833 193.399 L 149.833 193.399 L 149.833 193.399 Q 149.525 193.091 149.349 192.678 L 149.349 192.678 L 149.349 192.678 Q 149.173 192.266 149.173 191.801 L 149.173 191.801 L 149.173 188.334 L 149.173 188.334 Q 149.173 187.869 149.349 187.457 L 149.349 187.457 L 149.349 187.457 Q 149.525 187.044 149.833 186.736 L 149.833 186.736 L 149.833 186.736 Q 150.14 186.429 150.553 186.252 L 150.553 186.252 L 150.553 186.252 Q 150.966 186.076 151.431 186.076 L 151.431 186.076 L 152.046 186.076 L 152.046 186.076 Q 152.511 186.076 152.924 186.252 L 152.924 186.252 L 152.924 186.252 Q 153.337 186.429 153.644 186.736 L 153.644 186.736 L 153.644 186.736 Q 153.952 187.044 154.128 187.457 L 154.128 187.457 L 154.128 187.457 Q 154.304 187.869 154.304 188.334 L 154.304 188.334 L 154.304 188.642 L 153.382 188.792 L 153.382 188.282 L 153.382 188.282 Q 153.382 188.004 153.277 187.76 L 153.277 187.76 L 153.277 187.76 Q 153.171 187.517 152.991 187.337 L 152.991 187.337 L 152.991 187.337 Q 152.811 187.156 152.568 187.051 L 152.568 187.051 L 152.568 187.051 Q 152.324 186.946 152.046 186.946 L 152.046 186.946 L 151.431 186.946 L 151.431 186.946 Q 151.153 186.946 150.909 187.051 L 150.909 187.051 L 150.909 187.051 Q 150.666 187.156 150.486 187.337 L 150.486 187.337 L 150.486 187.337 Q 150.305 187.517 150.2 187.76 L 150.2 187.76 L 150.2 187.76 Q 150.095 188.004 150.095 188.282 L 150.095 188.282 L 150.095 191.853 L 150.095 191.853 Q 150.095 192.131 150.2 192.375 L 150.2 192.375 L 150.2 192.375 Q 150.305 192.618 150.486 192.798 L 150.486 192.798 L 150.486 192.798 Q 150.666 192.979 150.909 193.084 L 150.909 193.084 L 150.909 193.084 Q 151.153 193.189 151.431 193.189 L 151.431 193.189 L 152.046 193.189 L 152.046 193.189 Q 152.324 193.189 152.568 193.084 L 152.568 193.084 L 152.568 193.084 Q 152.811 192.979 152.991 192.798 L 152.991 192.798 L 152.991 192.798 Q 153.171 192.618 153.277 192.375 L 153.277 192.375 L 153.277 192.375 Q 153.382 192.131 153.382 191.853 L 153.382 191.853 L 153.382 191.343 L 154.304 191.493 L 154.304 191.801 L 154.304 191.801 Q 154.304 192.251 154.136 192.648 L 154.136 192.648 L 154.136 192.648 Q 153.967 193.046 153.678 193.35 L 153.678 193.35 L 153.678 193.35 Q 153.389 193.654 152.999 193.841 L 152.999 193.841 L 152.999 193.841 Q 152.609 194.029 152.166 194.059 L 152.166 194.059 L 151.814 194.674 L 151.814 194.674 Q 151.881 194.704 152.001 194.783 L 152.001 194.783 L 152.001 194.783 Q 152.121 194.862 152.237 194.997 L 152.237 194.997 L 152.237 194.997 Q 152.354 195.132 152.436 195.319 L 152.436 195.319 L 152.436 195.319 Q 152.519 195.507 152.519 195.755 L 152.519 195.755 L 152.519 195.755 Q 152.519 196.04 152.417 196.272 L 152.417 196.272 L 152.417 196.272 Q 152.316 196.505 152.132 196.666 L 152.132 196.666 L 152.132 196.666 Q 151.949 196.827 151.693 196.914 L 151.693 196.914 L 151.693 196.914 Q 151.438 197 151.138 197 L 151.138 197 L 151.138 197 Q 150.801 197 150.527 196.869 L 150.527 196.869 L 150.527 196.869 Q 150.253 196.737 150.035 196.52 L 150.035 196.52 L 150.388 195.98 L 150.388 195.98 Q 150.426 196.025 150.493 196.085 L 150.493 196.085 L 150.493 196.085 Q 150.561 196.145 150.662 196.197 L 150.662 196.197 L 150.662 196.197 Q 150.763 196.25 150.887 196.287 L 150.887 196.287 L 150.887 196.287 Q 151.011 196.325 151.153 196.325 L 151.153 196.325 L 151.153 196.325 Q 151.431 196.325 151.622 196.167 L 151.622 196.167 L 151.622 196.167 Q 151.814 196.01 151.814 195.725 L 151.814 195.725 L 151.814 195.725 Q 151.814 195.544 151.742 195.409 L 151.742 195.409 L 151.742 195.409 Q 151.671 195.274 151.547 195.184 L 151.547 195.184 L 151.547 195.184 Q 151.423 195.094 151.262 195.057 L 151.262 195.057 L 151.262 195.057 Q 151.101 195.019 150.921 195.034 L 150.921 195.034 Z  M 161.282 193.909 L 160.974 193.909 L 160.464 193.144 L 160.464 193.144 Q 160.149 193.556 159.676 193.808 L 159.676 193.808 L 159.676 193.808 Q 159.204 194.059 158.641 194.059 L 158.641 194.059 L 158.408 194.059 L 158.408 194.059 Q 157.943 194.059 157.531 193.883 L 157.531 193.883 L 157.531 193.883 Q 157.118 193.706 156.81 193.399 L 156.81 193.399 L 156.81 193.399 Q 156.503 193.091 156.326 192.678 L 156.326 192.678 L 156.326 192.678 Q 156.15 192.266 156.15 191.801 L 156.15 191.801 L 156.15 191.726 L 156.15 191.726 Q 156.15 191.26 156.326 190.848 L 156.326 190.848 L 156.326 190.848 Q 156.503 190.435 156.81 190.128 L 156.81 190.128 L 156.81 190.128 Q 157.118 189.82 157.531 189.644 L 157.531 189.644 L 157.531 189.644 Q 157.943 189.467 158.408 189.467 L 158.408 189.467 L 160.359 189.467 L 160.359 188.282 L 160.359 188.282 Q 160.359 188.004 160.254 187.76 L 160.254 187.76 L 160.254 187.76 Q 160.149 187.517 159.969 187.337 L 159.969 187.337 L 159.969 187.337 Q 159.789 187.156 159.545 187.051 L 159.545 187.051 L 159.545 187.051 Q 159.301 186.946 159.024 186.946 L 159.024 186.946 L 158.483 186.946 L 158.483 186.946 Q 158.206 186.946 157.962 187.051 L 157.962 187.051 L 157.962 187.051 Q 157.718 187.156 157.538 187.337 L 157.538 187.337 L 157.538 187.337 Q 157.358 187.517 157.253 187.76 L 157.253 187.76 L 157.253 187.76 Q 157.148 188.004 157.148 188.282 L 157.148 188.282 L 157.148 188.559 L 156.225 188.409 L 156.225 188.334 L 156.225 188.334 Q 156.225 187.869 156.401 187.457 L 156.401 187.457 L 156.401 187.457 Q 156.578 187.044 156.885 186.736 L 156.885 186.736 L 156.885 186.736 Q 157.193 186.429 157.606 186.252 L 157.606 186.252 L 157.606 186.252 Q 158.018 186.076 158.483 186.076 L 158.483 186.076 L 159.024 186.076 L 159.024 186.076 Q 159.489 186.076 159.901 186.252 L 159.901 186.252 L 159.901 186.252 Q 160.314 186.429 160.622 186.736 L 160.622 186.736 L 160.622 186.736 Q 160.929 187.044 161.106 187.457 L 161.106 187.457 L 161.106 187.457 Q 161.282 187.869 161.282 188.334 L 161.282 188.334 L 161.282 193.909 Z  M 160.359 191.853 L 160.359 190.188 L 158.408 190.188 L 158.408 190.188 Q 158.131 190.188 157.887 190.293 L 157.887 190.293 L 157.887 190.293 Q 157.643 190.398 157.463 190.581 L 157.463 190.581 L 157.463 190.581 Q 157.283 190.765 157.178 191.009 L 157.178 191.009 L 157.178 191.009 Q 157.073 191.253 157.073 191.531 L 157.073 191.531 L 157.073 191.853 L 157.073 191.853 Q 157.073 192.131 157.178 192.375 L 157.178 192.375 L 157.178 192.375 Q 157.283 192.618 157.463 192.798 L 157.463 192.798 L 157.463 192.798 Q 157.643 192.979 157.887 193.084 L 157.887 193.084 L 157.887 193.084 Q 158.131 193.189 158.408 193.189 L 158.408 193.189 L 159.024 193.189 L 159.024 193.189 Q 159.301 193.189 159.545 193.084 L 159.545 193.084 L 159.545 193.084 Q 159.789 192.979 159.969 192.798 L 159.969 192.798 L 159.969 192.798 Q 160.149 192.618 160.254 192.375 L 160.254 192.375 L 160.254 192.375 Q 160.359 192.131 160.359 191.853 L 160.359 191.853 Z  M 159.744 184.013 L 159.744 184.013 L 159.744 184.013 Q 160.059 184.013 160.224 183.773 L 160.224 183.773 L 160.224 183.773 Q 160.389 183.533 160.389 183.15 L 160.389 183.15 L 161.094 183.15 L 161.094 183.15 Q 161.094 183.488 161.008 183.78 L 161.008 183.78 L 161.008 183.78 Q 160.922 184.073 160.753 184.29 L 160.753 184.29 L 160.753 184.29 Q 160.584 184.508 160.325 184.636 L 160.325 184.636 L 160.325 184.636 Q 160.066 184.763 159.729 184.763 L 159.729 184.763 L 159.729 184.763 Q 159.369 184.763 159.095 184.628 L 159.095 184.628 L 159.095 184.628 Q 158.821 184.493 158.585 184.335 L 158.585 184.335 L 158.585 184.335 Q 158.348 184.178 158.135 184.043 L 158.135 184.043 L 158.135 184.043 Q 157.921 183.908 157.688 183.908 L 157.688 183.908 L 157.688 183.908 Q 157.373 183.908 157.215 184.144 L 157.215 184.144 L 157.215 184.144 Q 157.058 184.38 157.058 184.748 L 157.058 184.748 L 156.353 184.748 L 156.353 184.748 Q 156.353 184.418 156.435 184.125 L 156.435 184.125 L 156.435 184.125 Q 156.518 183.833 156.686 183.615 L 156.686 183.615 L 156.686 183.615 Q 156.855 183.398 157.114 183.274 L 157.114 183.274 L 157.114 183.274 Q 157.373 183.15 157.718 183.15 L 157.718 183.15 L 157.718 183.15 Q 158.056 183.15 158.315 183.285 L 158.315 183.285 L 158.315 183.285 Q 158.573 183.42 158.802 183.581 L 158.802 183.581 L 158.802 183.581 Q 159.031 183.743 159.256 183.878 L 159.256 183.878 L 159.256 183.878 Q 159.481 184.013 159.744 184.013 Z  M 168.259 191.801 L 168.259 191.801 L 168.259 191.801 Q 168.259 192.266 168.083 192.678 L 168.083 192.678 L 168.083 192.678 Q 167.907 193.091 167.599 193.399 L 167.599 193.399 L 167.599 193.399 Q 167.292 193.706 166.879 193.883 L 166.879 193.883 L 166.879 193.883 Q 166.466 194.059 166.001 194.059 L 166.001 194.059 L 165.386 194.059 L 165.386 194.059 Q 164.921 194.059 164.508 193.883 L 164.508 193.883 L 164.508 193.883 Q 164.095 193.706 163.788 193.399 L 163.788 193.399 L 163.788 193.399 Q 163.48 193.091 163.304 192.678 L 163.304 192.678 L 163.304 192.678 Q 163.128 192.266 163.128 191.801 L 163.128 191.801 L 163.128 188.334 L 163.128 188.334 Q 163.128 187.869 163.304 187.457 L 163.304 187.457 L 163.304 187.457 Q 163.48 187.044 163.788 186.736 L 163.788 186.736 L 163.788 186.736 Q 164.095 186.429 164.508 186.252 L 164.508 186.252 L 164.508 186.252 Q 164.921 186.076 165.386 186.076 L 165.386 186.076 L 166.001 186.076 L 166.001 186.076 Q 166.466 186.076 166.879 186.252 L 166.879 186.252 L 166.879 186.252 Q 167.292 186.429 167.599 186.736 L 167.599 186.736 L 167.599 186.736 Q 167.907 187.044 168.083 187.457 L 168.083 187.457 L 168.083 187.457 Q 168.259 187.869 168.259 188.334 L 168.259 188.334 L 168.259 191.801 Z  M 167.337 191.853 L 167.337 188.282 L 167.337 188.282 Q 167.337 188.004 167.232 187.76 L 167.232 187.76 L 167.232 187.76 Q 167.126 187.517 166.946 187.337 L 166.946 187.337 L 166.946 187.337 Q 166.766 187.156 166.523 187.051 L 166.523 187.051 L 166.523 187.051 Q 166.279 186.946 166.001 186.946 L 166.001 186.946 L 165.386 186.946 L 165.386 186.946 Q 165.108 186.946 164.864 187.051 L 164.864 187.051 L 164.864 187.051 Q 164.621 187.156 164.441 187.337 L 164.441 187.337 L 164.441 187.337 Q 164.26 187.517 164.155 187.76 L 164.155 187.76 L 164.155 187.76 Q 164.05 188.004 164.05 188.282 L 164.05 188.282 L 164.05 191.853 L 164.05 191.853 Q 164.05 192.131 164.155 192.375 L 164.155 192.375 L 164.155 192.375 Q 164.26 192.618 164.441 192.798 L 164.441 192.798 L 164.441 192.798 Q 164.621 192.979 164.864 193.084 L 164.864 193.084 L 164.864 193.084 Q 165.108 193.189 165.386 193.189 L 165.386 193.189 L 166.001 193.189 L 166.001 193.189 Q 166.279 193.189 166.523 193.084 L 166.523 193.084 L 166.523 193.084 Q 166.766 192.979 166.946 192.798 L 166.946 192.798 L 166.946 192.798 Q 167.126 192.618 167.232 192.375 L 167.232 192.375 L 167.232 192.375 Q 167.337 192.131 167.337 191.853 L 167.337 191.853 Z  M 69.944 193.909 L 69.637 193.909 L 69.126 193.129 L 69.126 193.129 Q 68.811 193.556 68.339 193.808 L 68.339 193.808 L 68.339 193.808 Q 67.866 194.059 67.303 194.059 L 67.303 194.059 L 67.071 194.059 L 67.071 194.059 Q 66.606 194.059 66.193 193.883 L 66.193 193.883 L 66.193 193.883 Q 65.78 193.706 65.473 193.399 L 65.473 193.399 L 65.473 193.399 Q 65.165 193.091 64.989 192.678 L 64.989 192.678 L 64.989 192.678 Q 64.812 192.266 64.812 191.801 L 64.812 191.801 L 64.812 188.334 L 64.812 188.334 Q 64.812 187.869 64.989 187.457 L 64.989 187.457 L 64.989 187.457 Q 65.165 187.044 65.473 186.736 L 65.473 186.736 L 65.473 186.736 Q 65.78 186.429 66.193 186.252 L 66.193 186.252 L 66.193 186.252 Q 66.606 186.076 67.071 186.076 L 67.071 186.076 L 67.303 186.076 L 67.303 186.076 Q 67.821 186.076 68.264 186.286 L 68.264 186.286 L 68.264 186.286 Q 68.706 186.496 69.021 186.871 L 69.021 186.871 L 69.021 183.15 L 69.944 183.15 L 69.944 193.909 Z  M 69.021 191.853 L 69.021 188.282 L 69.021 188.282 Q 69.021 188.004 68.916 187.76 L 68.916 187.76 L 68.916 187.76 Q 68.811 187.517 68.631 187.337 L 68.631 187.337 L 68.631 187.337 Q 68.451 187.156 68.207 187.051 L 68.207 187.051 L 68.207 187.051 Q 67.964 186.946 67.686 186.946 L 67.686 186.946 L 67.071 186.946 L 67.071 186.946 Q 66.793 186.946 66.549 187.051 L 66.549 187.051 L 66.549 187.051 Q 66.305 187.156 66.125 187.337 L 66.125 187.337 L 66.125 187.337 Q 65.945 187.517 65.84 187.76 L 65.84 187.76 L 65.84 187.76 Q 65.735 188.004 65.735 188.282 L 65.735 188.282 L 65.735 191.853 L 65.735 191.853 Q 65.735 192.131 65.84 192.375 L 65.84 192.375 L 65.84 192.375 Q 65.945 192.618 66.125 192.798 L 66.125 192.798 L 66.125 192.798 Q 66.305 192.979 66.549 193.084 L 66.549 193.084 L 66.549 193.084 Q 66.793 193.189 67.071 193.189 L 67.071 193.189 L 67.686 193.189 L 67.686 193.189 Q 67.964 193.189 68.207 193.084 L 68.207 193.084 L 68.207 193.084 Q 68.451 192.979 68.631 192.798 L 68.631 192.798 L 68.631 192.798 Q 68.811 192.618 68.916 192.375 L 68.916 192.375 L 68.916 192.375 Q 69.021 192.131 69.021 191.853 L 69.021 191.853 Z  M 76.922 191.801 L 76.922 191.801 L 76.922 191.801 Q 76.922 192.266 76.745 192.678 L 76.745 192.678 L 76.745 192.678 Q 76.569 193.091 76.262 193.399 L 76.262 193.399 L 76.262 193.399 Q 75.954 193.706 75.541 193.883 L 75.541 193.883 L 75.541 193.883 Q 75.129 194.059 74.663 194.059 L 74.663 194.059 L 74.048 194.059 L 74.048 194.059 Q 73.583 194.059 73.17 193.883 L 73.17 193.883 L 73.17 193.883 Q 72.758 193.706 72.45 193.399 L 72.45 193.399 L 72.45 193.399 Q 72.143 193.091 71.966 192.678 L 71.966 192.678 L 71.966 192.678 Q 71.79 192.266 71.79 191.801 L 71.79 191.801 L 71.79 188.334 L 71.79 188.334 Q 71.79 187.869 71.966 187.457 L 71.966 187.457 L 71.966 187.457 Q 72.143 187.044 72.45 186.736 L 72.45 186.736 L 72.45 186.736 Q 72.758 186.429 73.17 186.252 L 73.17 186.252 L 73.17 186.252 Q 73.583 186.076 74.048 186.076 L 74.048 186.076 L 74.663 186.076 L 74.663 186.076 Q 75.129 186.076 75.541 186.252 L 75.541 186.252 L 75.541 186.252 Q 75.954 186.429 76.262 186.736 L 76.262 186.736 L 76.262 186.736 Q 76.569 187.044 76.745 187.457 L 76.745 187.457 L 76.745 187.457 Q 76.922 187.869 76.922 188.334 L 76.922 188.334 L 76.922 190.143 L 72.713 190.143 L 72.713 191.853 L 72.713 191.853 Q 72.713 192.131 72.818 192.375 L 72.818 192.375 L 72.818 192.375 Q 72.923 192.618 73.103 192.798 L 73.103 192.798 L 73.103 192.798 Q 73.283 192.979 73.527 193.084 L 73.527 193.084 L 73.527 193.084 Q 73.771 193.189 74.048 193.189 L 74.048 193.189 L 74.663 193.189 L 74.663 193.189 Q 74.941 193.189 75.185 193.084 L 75.185 193.084 L 75.185 193.084 Q 75.429 192.979 75.609 192.798 L 75.609 192.798 L 75.609 192.798 Q 75.789 192.618 75.894 192.375 L 75.894 192.375 L 75.894 192.375 Q 75.999 192.131 75.999 191.853 L 75.999 191.853 L 75.999 191.343 L 76.922 191.493 L 76.922 191.801 Z  M 75.999 189.422 L 75.999 188.282 L 75.999 188.282 Q 75.999 188.004 75.894 187.76 L 75.894 187.76 L 75.894 187.76 Q 75.789 187.517 75.609 187.337 L 75.609 187.337 L 75.609 187.337 Q 75.429 187.156 75.185 187.051 L 75.185 187.051 L 75.185 187.051 Q 74.941 186.946 74.663 186.946 L 74.663 186.946 L 74.048 186.946 L 74.048 186.946 Q 73.771 186.946 73.527 187.051 L 73.527 187.051 L 73.527 187.051 Q 73.283 187.156 73.103 187.337 L 73.103 187.337 L 73.103 187.337 Q 72.923 187.517 72.818 187.76 L 72.818 187.76 L 72.818 187.76 Q 72.713 188.004 72.713 188.282 L 72.713 188.282 L 72.713 189.422 L 75.999 189.422 Z  M 12.129 187.134 L 12.129 187.134 L 12.129 187.134 Q 12.129 187.682 11.922 188.162 L 11.922 188.162 L 11.922 188.162 Q 11.716 188.642 11.356 189.002 L 11.356 189.002 L 11.356 189.002 Q 10.996 189.362 10.512 189.569 L 10.512 189.569 L 10.512 189.569 Q 10.028 189.775 9.48 189.775 L 9.48 189.775 L 7.042 189.775 L 7.042 193.909 L 6.074 193.909 L 6.074 183.15 L 9.48 183.15 L 9.48 183.15 Q 10.028 183.15 10.512 183.356 L 10.512 183.356 L 10.512 183.356 Q 10.996 183.563 11.356 183.923 L 11.356 183.923 L 11.356 183.923 Q 11.716 184.283 11.922 184.767 L 11.922 184.767 L 11.922 184.767 Q 12.129 185.251 12.129 185.798 L 12.129 185.798 L 12.129 187.134 Z  M 11.161 187.134 L 11.161 185.798 L 11.161 185.798 Q 11.161 185.438 11.026 185.127 L 11.026 185.127 L 11.026 185.127 Q 10.891 184.816 10.654 184.579 L 10.654 184.579 L 10.654 184.579 Q 10.418 184.343 10.107 184.208 L 10.107 184.208 L 10.107 184.208 Q 9.795 184.073 9.435 184.073 L 9.435 184.073 L 7.042 184.073 L 7.042 188.852 L 9.435 188.852 L 9.435 188.852 Q 9.795 188.852 10.107 188.717 L 10.107 188.717 L 10.107 188.717 Q 10.418 188.582 10.654 188.349 L 10.654 188.349 L 10.654 188.349 Q 10.891 188.117 11.026 187.805 L 11.026 187.805 L 11.026 187.805 Q 11.161 187.494 11.161 187.134 L 11.161 187.134 Z  M 16.848 187.104 L 15.925 187.104 L 15.925 187.104 Q 15.647 187.104 15.404 187.209 L 15.404 187.209 L 15.404 187.209 Q 15.16 187.314 14.98 187.494 L 14.98 187.494 L 14.98 187.494 Q 14.8 187.674 14.695 187.918 L 14.695 187.918 L 14.695 187.918 Q 14.589 188.162 14.589 188.439 L 14.589 188.439 L 14.589 193.909 L 13.667 193.909 L 13.667 186.226 L 13.974 186.226 L 14.477 187.006 L 14.477 187.006 Q 14.792 186.579 15.268 186.327 L 15.268 186.327 L 15.268 186.327 Q 15.745 186.076 16.308 186.076 L 16.308 186.076 L 16.848 186.076 L 16.848 187.104 Z  M 23.21 191.801 L 23.21 191.801 L 23.21 191.801 Q 23.21 192.266 23.034 192.678 L 23.034 192.678 L 23.034 192.678 Q 22.857 193.091 22.55 193.399 L 22.55 193.399 L 22.55 193.399 Q 22.242 193.706 21.83 193.883 L 21.83 193.883 L 21.83 193.883 Q 21.417 194.059 20.952 194.059 L 20.952 194.059 L 20.337 194.059 L 20.337 194.059 Q 19.871 194.059 19.459 193.883 L 19.459 193.883 L 19.459 193.883 Q 19.046 193.706 18.738 193.399 L 18.738 193.399 L 18.738 193.399 Q 18.431 193.091 18.255 192.678 L 18.255 192.678 L 18.255 192.678 Q 18.078 192.266 18.078 191.801 L 18.078 191.801 L 18.078 188.334 L 18.078 188.334 Q 18.078 187.869 18.255 187.457 L 18.255 187.457 L 18.255 187.457 Q 18.431 187.044 18.738 186.736 L 18.738 186.736 L 18.738 186.736 Q 19.046 186.429 19.459 186.252 L 19.459 186.252 L 19.459 186.252 Q 19.871 186.076 20.337 186.076 L 20.337 186.076 L 20.952 186.076 L 20.952 186.076 Q 21.417 186.076 21.83 186.252 L 21.83 186.252 L 21.83 186.252 Q 22.242 186.429 22.55 186.736 L 22.55 186.736 L 22.55 186.736 Q 22.857 187.044 23.034 187.457 L 23.034 187.457 L 23.034 187.457 Q 23.21 187.869 23.21 188.334 L 23.21 188.334 L 23.21 191.801 Z  M 22.287 191.853 L 22.287 188.282 L 22.287 188.282 Q 22.287 188.004 22.182 187.76 L 22.182 187.76 L 22.182 187.76 Q 22.077 187.517 21.897 187.337 L 21.897 187.337 L 21.897 187.337 Q 21.717 187.156 21.473 187.051 L 21.473 187.051 L 21.473 187.051 Q 21.229 186.946 20.952 186.946 L 20.952 186.946 L 20.337 186.946 L 20.337 186.946 Q 20.059 186.946 19.815 187.051 L 19.815 187.051 L 19.815 187.051 Q 19.571 187.156 19.391 187.337 L 19.391 187.337 L 19.391 187.337 Q 19.211 187.517 19.106 187.76 L 19.106 187.76 L 19.106 187.76 Q 19.001 188.004 19.001 188.282 L 19.001 188.282 L 19.001 191.853 L 19.001 191.853 Q 19.001 192.131 19.106 192.375 L 19.106 192.375 L 19.106 192.375 Q 19.211 192.618 19.391 192.798 L 19.391 192.798 L 19.391 192.798 Q 19.571 192.979 19.815 193.084 L 19.815 193.084 L 19.815 193.084 Q 20.059 193.189 20.337 193.189 L 20.337 193.189 L 20.952 193.189 L 20.952 193.189 Q 21.229 193.189 21.473 193.084 L 21.473 193.084 L 21.473 193.084 Q 21.717 192.979 21.897 192.798 L 21.897 192.798 L 21.897 192.798 Q 22.077 192.618 22.182 192.375 L 22.182 192.375 L 22.182 192.375 Q 22.287 192.131 22.287 191.853 L 22.287 191.853 Z  M 30.263 194.877 L 30.263 194.877 L 30.263 194.877 Q 30.263 195.342 30.086 195.732 L 30.086 195.732 L 30.086 195.732 Q 29.91 196.122 29.602 196.4 L 29.602 196.4 L 29.602 196.4 Q 29.295 196.677 28.882 196.831 L 28.882 196.831 L 28.882 196.831 Q 28.469 196.985 28.004 196.985 L 28.004 196.985 L 27.622 196.985 L 27.622 196.985 Q 27.156 196.985 26.744 196.831 L 26.744 196.831 L 26.744 196.831 Q 26.331 196.677 26.024 196.4 L 26.024 196.4 L 26.024 196.4 Q 25.716 196.122 25.54 195.732 L 25.54 195.732 L 25.54 195.732 Q 25.363 195.342 25.363 194.877 L 25.363 194.877 L 25.363 194.847 L 25.363 194.847 Q 25.363 194.397 25.528 194.021 L 25.528 194.021 L 25.528 194.021 Q 25.693 193.646 25.979 193.369 L 25.979 193.369 L 25.979 193.369 Q 25.618 193.151 25.405 192.78 L 25.405 192.78 L 25.405 192.78 Q 25.191 192.408 25.191 191.958 L 25.191 191.958 L 25.191 191.958 Q 25.191 191.553 25.363 191.204 L 25.363 191.204 L 25.363 191.204 Q 25.536 190.855 25.836 190.638 L 25.836 190.638 L 25.836 190.638 Q 25.476 190.323 25.266 189.88 L 25.266 189.88 L 25.266 189.88 Q 25.056 189.437 25.056 188.912 L 25.056 188.912 L 25.056 188.334 L 25.056 188.334 Q 25.056 187.869 25.232 187.457 L 25.232 187.457 L 25.232 187.457 Q 25.408 187.044 25.716 186.736 L 25.716 186.736 L 25.716 186.736 Q 26.024 186.429 26.436 186.252 L 26.436 186.252 L 26.436 186.252 Q 26.849 186.076 27.314 186.076 L 27.314 186.076 L 27.697 186.076 L 27.697 186.076 Q 28.259 186.076 28.736 186.327 L 28.736 186.327 L 28.736 186.327 Q 29.212 186.579 29.527 187.006 L 29.527 187.006 L 30.03 186.226 L 30.338 186.226 L 30.338 188.912 L 30.338 188.912 Q 30.338 189.377 30.161 189.79 L 30.161 189.79 L 30.161 189.79 Q 29.985 190.203 29.677 190.51 L 29.677 190.51 L 29.677 190.51 Q 29.37 190.818 28.957 190.994 L 28.957 190.994 L 28.957 190.994 Q 28.544 191.17 28.079 191.17 L 28.079 191.17 L 26.744 191.17 L 26.744 191.17 Q 26.586 191.17 26.444 191.234 L 26.444 191.234 L 26.444 191.234 Q 26.301 191.298 26.192 191.403 L 26.192 191.403 L 26.192 191.403 Q 26.084 191.508 26.024 191.654 L 26.024 191.654 L 26.024 191.654 Q 25.964 191.801 25.964 191.958 L 25.964 191.958 L 25.964 191.958 Q 25.964 192.116 26.024 192.258 L 26.024 192.258 L 26.024 192.258 Q 26.084 192.401 26.192 192.51 L 26.192 192.51 L 26.192 192.51 Q 26.301 192.618 26.444 192.678 L 26.444 192.678 L 26.444 192.678 Q 26.586 192.738 26.744 192.738 L 26.744 192.738 L 28.004 192.738 L 28.004 192.738 Q 28.469 192.738 28.882 192.892 L 28.882 192.892 L 28.882 192.892 Q 29.295 193.046 29.602 193.324 L 29.602 193.324 L 29.602 193.324 Q 29.91 193.601 30.086 193.991 L 30.086 193.991 L 30.086 193.991 Q 30.263 194.382 30.263 194.847 L 30.263 194.847 L 30.263 194.877 Z  M 29.422 188.965 L 29.422 188.282 L 29.422 188.282 Q 29.422 188.004 29.317 187.76 L 29.317 187.76 L 29.317 187.76 Q 29.212 187.517 29.028 187.337 L 29.028 187.337 L 29.028 187.337 Q 28.845 187.156 28.601 187.051 L 28.601 187.051 L 28.601 187.051 Q 28.357 186.946 28.079 186.946 L 28.079 186.946 L 27.314 186.946 L 27.314 186.946 Q 27.036 186.946 26.793 187.051 L 26.793 187.051 L 26.793 187.051 Q 26.549 187.156 26.369 187.337 L 26.369 187.337 L 26.369 187.337 Q 26.189 187.517 26.084 187.76 L 26.084 187.76 L 26.084 187.76 Q 25.979 188.004 25.979 188.282 L 25.979 188.282 L 25.979 188.965 L 25.979 188.965 Q 25.979 189.242 26.084 189.486 L 26.084 189.486 L 26.084 189.486 Q 26.189 189.73 26.369 189.91 L 26.369 189.91 L 26.369 189.91 Q 26.549 190.09 26.793 190.195 L 26.793 190.195 L 26.793 190.195 Q 27.036 190.3 27.314 190.3 L 27.314 190.3 L 28.079 190.3 L 28.079 190.3 Q 28.357 190.3 28.601 190.195 L 28.601 190.195 L 28.601 190.195 Q 28.845 190.09 29.028 189.91 L 29.028 189.91 L 29.028 189.91 Q 29.212 189.73 29.317 189.486 L 29.317 189.486 L 29.317 189.486 Q 29.422 189.242 29.422 188.965 L 29.422 188.965 Z  M 29.385 194.922 L 29.385 194.802 L 29.385 194.802 Q 29.385 194.524 29.28 194.303 L 29.28 194.303 L 29.28 194.303 Q 29.175 194.081 28.995 193.931 L 28.995 193.931 L 28.995 193.931 Q 28.815 193.781 28.571 193.699 L 28.571 193.699 L 28.571 193.699 Q 28.327 193.616 28.049 193.616 L 28.049 193.616 L 27.577 193.616 L 27.577 193.616 Q 27.299 193.616 27.055 193.699 L 27.055 193.699 L 27.055 193.699 Q 26.811 193.781 26.631 193.931 L 26.631 193.931 L 26.631 193.931 Q 26.451 194.081 26.346 194.303 L 26.346 194.303 L 26.346 194.303 Q 26.241 194.524 26.241 194.802 L 26.241 194.802 L 26.241 194.922 L 26.241 194.922 Q 26.241 195.199 26.346 195.417 L 26.346 195.417 L 26.346 195.417 Q 26.451 195.635 26.631 195.788 L 26.631 195.788 L 26.631 195.788 Q 26.811 195.942 27.055 196.025 L 27.055 196.025 L 27.055 196.025 Q 27.299 196.107 27.577 196.107 L 27.577 196.107 L 28.049 196.107 L 28.049 196.107 Q 28.327 196.107 28.571 196.025 L 28.571 196.025 L 28.571 196.025 Q 28.815 195.942 28.995 195.788 L 28.995 195.788 L 28.995 195.788 Q 29.175 195.635 29.28 195.417 L 29.28 195.417 L 29.28 195.417 Q 29.385 195.199 29.385 194.922 L 29.385 194.922 Z  M 35.214 187.104 L 34.292 187.104 L 34.292 187.104 Q 34.014 187.104 33.77 187.209 L 33.77 187.209 L 33.77 187.209 Q 33.526 187.314 33.346 187.494 L 33.346 187.494 L 33.346 187.494 Q 33.166 187.674 33.061 187.918 L 33.061 187.918 L 33.061 187.918 Q 32.956 188.162 32.956 188.439 L 32.956 188.439 L 32.956 193.909 L 32.033 193.909 L 32.033 186.226 L 32.341 186.226 L 32.844 187.006 L 32.844 187.006 Q 33.159 186.579 33.635 186.327 L 33.635 186.327 L 33.635 186.327 Q 34.111 186.076 34.674 186.076 L 34.674 186.076 L 35.214 186.076 L 35.214 187.104 Z  M 41.577 193.909 L 41.269 193.909 L 40.759 193.144 L 40.759 193.144 Q 40.444 193.556 39.971 193.808 L 39.971 193.808 L 39.971 193.808 Q 39.498 194.059 38.936 194.059 L 38.936 194.059 L 38.703 194.059 L 38.703 194.059 Q 38.238 194.059 37.825 193.883 L 37.825 193.883 L 37.825 193.883 Q 37.413 193.706 37.105 193.399 L 37.105 193.399 L 37.105 193.399 Q 36.797 193.091 36.621 192.678 L 36.621 192.678 L 36.621 192.678 Q 36.445 192.266 36.445 191.801 L 36.445 191.801 L 36.445 191.726 L 36.445 191.726 Q 36.445 191.26 36.621 190.848 L 36.621 190.848 L 36.621 190.848 Q 36.797 190.435 37.105 190.128 L 37.105 190.128 L 37.105 190.128 Q 37.413 189.82 37.825 189.644 L 37.825 189.644 L 37.825 189.644 Q 38.238 189.467 38.703 189.467 L 38.703 189.467 L 40.654 189.467 L 40.654 188.282 L 40.654 188.282 Q 40.654 188.004 40.549 187.76 L 40.549 187.76 L 40.549 187.76 Q 40.444 187.517 40.264 187.337 L 40.264 187.337 L 40.264 187.337 Q 40.084 187.156 39.84 187.051 L 39.84 187.051 L 39.84 187.051 Q 39.596 186.946 39.318 186.946 L 39.318 186.946 L 38.778 186.946 L 38.778 186.946 Q 38.501 186.946 38.257 187.051 L 38.257 187.051 L 38.257 187.051 Q 38.013 187.156 37.833 187.337 L 37.833 187.337 L 37.833 187.337 Q 37.653 187.517 37.548 187.76 L 37.548 187.76 L 37.548 187.76 Q 37.443 188.004 37.443 188.282 L 37.443 188.282 L 37.443 188.559 L 36.52 188.409 L 36.52 188.334 L 36.52 188.334 Q 36.52 187.869 36.696 187.457 L 36.696 187.457 L 36.696 187.457 Q 36.872 187.044 37.18 186.736 L 37.18 186.736 L 37.18 186.736 Q 37.488 186.429 37.9 186.252 L 37.9 186.252 L 37.9 186.252 Q 38.313 186.076 38.778 186.076 L 38.778 186.076 L 39.318 186.076 L 39.318 186.076 Q 39.783 186.076 40.196 186.252 L 40.196 186.252 L 40.196 186.252 Q 40.609 186.429 40.916 186.736 L 40.916 186.736 L 40.916 186.736 Q 41.224 187.044 41.4 187.457 L 41.4 187.457 L 41.4 187.457 Q 41.577 187.869 41.577 188.334 L 41.577 188.334 L 41.577 193.909 Z  M 40.654 191.853 L 40.654 190.188 L 38.703 190.188 L 38.703 190.188 Q 38.426 190.188 38.182 190.293 L 38.182 190.293 L 38.182 190.293 Q 37.938 190.398 37.758 190.581 L 37.758 190.581 L 37.758 190.581 Q 37.578 190.765 37.473 191.009 L 37.473 191.009 L 37.473 191.009 Q 37.368 191.253 37.368 191.531 L 37.368 191.531 L 37.368 191.853 L 37.368 191.853 Q 37.368 192.131 37.473 192.375 L 37.473 192.375 L 37.473 192.375 Q 37.578 192.618 37.758 192.798 L 37.758 192.798 L 37.758 192.798 Q 37.938 192.979 38.182 193.084 L 38.182 193.084 L 38.182 193.084 Q 38.426 193.189 38.703 193.189 L 38.703 193.189 L 39.318 193.189 L 39.318 193.189 Q 39.596 193.189 39.84 193.084 L 39.84 193.084 L 39.84 193.084 Q 40.084 192.979 40.264 192.798 L 40.264 192.798 L 40.264 192.798 Q 40.444 192.618 40.549 192.375 L 40.549 192.375 L 40.549 192.375 Q 40.654 192.131 40.654 191.853 L 40.654 191.853 Z  M 52.456 193.909 L 51.533 193.909 L 51.533 188.282 L 51.533 188.282 Q 51.533 188.004 51.428 187.76 L 51.428 187.76 L 51.428 187.76 Q 51.323 187.517 51.143 187.337 L 51.143 187.337 L 51.143 187.337 Q 50.962 187.156 50.719 187.051 L 50.719 187.051 L 50.719 187.051 Q 50.475 186.946 50.197 186.946 L 50.197 186.946 L 49.74 186.946 L 49.74 186.946 Q 49.462 186.946 49.218 187.051 L 49.218 187.051 L 49.218 187.051 Q 48.974 187.156 48.79 187.337 L 48.79 187.337 L 48.79 187.337 Q 48.607 187.517 48.502 187.76 L 48.502 187.76 L 48.502 187.76 Q 48.397 188.004 48.397 188.282 L 48.397 188.282 L 48.397 193.909 L 47.481 193.909 L 47.481 188.282 L 47.481 188.282 Q 47.481 188.004 47.376 187.76 L 47.376 187.76 L 47.376 187.76 Q 47.271 187.517 47.087 187.337 L 47.087 187.337 L 47.087 187.337 Q 46.904 187.156 46.66 187.051 L 46.66 187.051 L 46.66 187.051 Q 46.416 186.946 46.138 186.946 L 46.138 186.946 L 45.681 186.946 L 45.681 186.946 Q 45.403 186.946 45.159 187.051 L 45.159 187.051 L 45.159 187.051 Q 44.915 187.156 44.735 187.337 L 44.735 187.337 L 44.735 187.337 Q 44.555 187.517 44.45 187.76 L 44.45 187.76 L 44.45 187.76 Q 44.345 188.004 44.345 188.282 L 44.345 188.282 L 44.345 193.909 L 43.422 193.909 L 43.422 186.226 L 43.73 186.226 L 44.233 187.006 L 44.233 187.006 Q 44.548 186.579 45.024 186.327 L 45.024 186.327 L 45.024 186.327 Q 45.501 186.076 46.063 186.076 L 46.063 186.076 L 46.138 186.076 L 46.138 186.076 Q 46.791 186.076 47.316 186.399 L 47.316 186.399 L 47.316 186.399 Q 47.841 186.721 48.126 187.254 L 48.126 187.254 L 48.126 187.254 Q 48.269 186.991 48.479 186.774 L 48.479 186.774 L 48.479 186.774 Q 48.689 186.556 48.944 186.402 L 48.944 186.402 L 48.944 186.402 Q 49.199 186.249 49.499 186.162 L 49.499 186.162 L 49.499 186.162 Q 49.8 186.076 50.122 186.076 L 50.122 186.076 L 50.197 186.076 L 50.197 186.076 Q 50.662 186.076 51.075 186.252 L 51.075 186.252 L 51.075 186.252 Q 51.488 186.429 51.795 186.736 L 51.795 186.736 L 51.795 186.736 Q 52.103 187.044 52.279 187.457 L 52.279 187.457 L 52.279 187.457 Q 52.456 187.869 52.456 188.334 L 52.456 188.334 L 52.456 193.909 Z  M 59.433 193.909 L 59.125 193.909 L 58.615 193.144 L 58.615 193.144 Q 58.3 193.556 57.827 193.808 L 57.827 193.808 L 57.827 193.808 Q 57.355 194.059 56.792 194.059 L 56.792 194.059 L 56.559 194.059 L 56.559 194.059 Q 56.094 194.059 55.682 193.883 L 55.682 193.883 L 55.682 193.883 Q 55.269 193.706 54.961 193.399 L 54.961 193.399 L 54.961 193.399 Q 54.654 193.091 54.477 192.678 L 54.477 192.678 L 54.477 192.678 Q 54.301 192.266 54.301 191.801 L 54.301 191.801 L 54.301 191.726 L 54.301 191.726 Q 54.301 191.26 54.477 190.848 L 54.477 190.848 L 54.477 190.848 Q 54.654 190.435 54.961 190.128 L 54.961 190.128 L 54.961 190.128 Q 55.269 189.82 55.682 189.644 L 55.682 189.644 L 55.682 189.644 Q 56.094 189.467 56.559 189.467 L 56.559 189.467 L 58.51 189.467 L 58.51 188.282 L 58.51 188.282 Q 58.51 188.004 58.405 187.76 L 58.405 187.76 L 58.405 187.76 Q 58.3 187.517 58.12 187.337 L 58.12 187.337 L 58.12 187.337 Q 57.94 187.156 57.696 187.051 L 57.696 187.051 L 57.696 187.051 Q 57.452 186.946 57.175 186.946 L 57.175 186.946 L 56.635 186.946 L 56.635 186.946 Q 56.357 186.946 56.113 187.051 L 56.113 187.051 L 56.113 187.051 Q 55.869 187.156 55.689 187.337 L 55.689 187.337 L 55.689 187.337 Q 55.509 187.517 55.404 187.76 L 55.404 187.76 L 55.404 187.76 Q 55.299 188.004 55.299 188.282 L 55.299 188.282 L 55.299 188.559 L 54.376 188.409 L 54.376 188.334 L 54.376 188.334 Q 54.376 187.869 54.553 187.457 L 54.553 187.457 L 54.553 187.457 Q 54.729 187.044 55.036 186.736 L 55.036 186.736 L 55.036 186.736 Q 55.344 186.429 55.757 186.252 L 55.757 186.252 L 55.757 186.252 Q 56.169 186.076 56.635 186.076 L 56.635 186.076 L 57.175 186.076 L 57.175 186.076 Q 57.64 186.076 58.053 186.252 L 58.053 186.252 L 58.053 186.252 Q 58.465 186.429 58.773 186.736 L 58.773 186.736 L 58.773 186.736 Q 59.08 187.044 59.257 187.457 L 59.257 187.457 L 59.257 187.457 Q 59.433 187.869 59.433 188.334 L 59.433 188.334 L 59.433 193.909 Z  M 58.51 191.853 L 58.51 190.188 L 56.559 190.188 L 56.559 190.188 Q 56.282 190.188 56.038 190.293 L 56.038 190.293 L 56.038 190.293 Q 55.794 190.398 55.614 190.581 L 55.614 190.581 L 55.614 190.581 Q 55.434 190.765 55.329 191.009 L 55.329 191.009 L 55.329 191.009 Q 55.224 191.253 55.224 191.531 L 55.224 191.531 L 55.224 191.853 L 55.224 191.853 Q 55.224 192.131 55.329 192.375 L 55.329 192.375 L 55.329 192.375 Q 55.434 192.618 55.614 192.798 L 55.614 192.798 L 55.614 192.798 Q 55.794 192.979 56.038 193.084 L 56.038 193.084 L 56.038 193.084 Q 56.282 193.189 56.559 193.189 L 56.559 193.189 L 57.175 193.189 L 57.175 193.189 Q 57.452 193.189 57.696 193.084 L 57.696 193.084 L 57.696 193.084 Q 57.94 192.979 58.12 192.798 L 58.12 192.798 L 58.12 192.798 Q 58.3 192.618 58.405 192.375 L 58.405 192.375 L 58.405 192.375 Q 58.51 192.131 58.51 191.853 L 58.51 191.853 Z " fill-rule="evenodd" fill="rgb(254,253,254)"/></svg>