<?xml version="1.0" standalone="no"?><!-- Generator: Gravit.io --><svg xmlns="http://www.w3.org/2000/svg" xmlns:xlink="http://www.w3.org/1999/xlink" style="isolation:isolate" viewBox="0 0 256 256" width="256" height="256"><defs><clipPath id="_clipPath_KXnOXdVi47bZSElt0iFgdF9uMcwpw2MZ"><rect width="256" height="256"/></clipPath></defs><g clip-path="url(#_clipPath_KXnOXdVi47bZSElt0iFgdF9uMcwpw2MZ)"><g id="Group"><path d=" M 22.589 141.513 L 22.067 141.513 C 21.701 141.513 21.335 141.147 20.969 140.415 C 19.453 141.147 18.198 141.513 17.205 141.513 L 14.226 141.513 C 12.344 141.513 10.88 140.886 9.835 139.683 C 8.789 138.481 8.266 136.808 8.266 134.717 L 8.266 123.896 C 8.266 121.806 8.789 120.133 9.835 118.93 C 10.88 117.728 12.344 117.101 14.226 117.101 L 22.537 117.101 C 23.217 117.101 23.53 117.415 23.53 118.094 L 23.53 140.467 C 23.583 141.147 23.269 141.513 22.589 141.513 Z  M 21.335 122.067 C 21.335 121.858 21.283 121.492 21.178 121.074 C 21.073 120.708 20.864 120.394 20.603 120.185 C 20.342 119.976 19.871 119.819 19.296 119.662 L 14.278 119.662 C 11.821 119.662 10.619 121.074 10.619 123.896 L 10.619 134.613 C 10.619 137.488 11.821 138.951 14.278 138.951 L 17.205 138.951 C 19.923 138.951 21.283 137.592 21.283 134.874 C 21.283 131.11 21.283 128.34 21.335 126.615 C 21.335 124.89 21.387 123.74 21.387 123.112 L 21.387 122.067 L 21.335 122.067 Z " fill="rgb(255,255,255)"/><path d=" M 39.788 141.879 L 36.808 141.879 C 36.181 141.879 35.606 141.774 35.083 141.617 C 34.56 141.461 33.828 141.095 32.887 140.52 L 32.887 147.838 C 32.887 148.099 32.783 148.361 32.626 148.57 C 32.469 148.779 32.26 148.883 31.946 148.883 L 31.371 148.883 C 31.11 148.883 30.901 148.779 30.744 148.57 C 30.587 148.361 30.535 148.099 30.535 147.838 L 30.535 118.042 C 30.535 117.78 30.587 117.519 30.744 117.362 C 30.901 117.153 31.11 117.049 31.371 117.049 L 31.946 117.049 C 32.103 117.049 32.26 117.101 32.417 117.258 C 32.574 117.415 32.783 117.676 33.044 118.146 C 34.456 117.415 35.658 117.049 36.808 117.049 L 39.788 117.049 C 41.617 117.049 43.081 117.624 44.179 118.774 C 45.276 119.924 45.851 121.649 45.851 123.949 L 45.851 134.926 C 45.851 137.279 45.276 139.004 44.179 140.154 C 43.081 141.304 41.617 141.879 39.788 141.879 Z  M 43.447 123.949 C 43.447 121.126 42.244 119.715 39.788 119.715 L 36.808 119.715 C 34.194 119.715 32.887 121.021 32.887 123.687 L 32.887 135.083 C 32.887 137.749 34.194 139.056 36.808 139.056 L 39.788 139.056 C 42.244 139.056 43.447 137.645 43.447 134.822 L 43.447 123.949 Z " fill="rgb(255,255,255)"/><path d=" M 58.449 119.662 L 56.933 119.662 C 55.836 119.662 54.947 120.08 54.372 120.969 C 53.745 121.806 53.431 122.956 53.431 124.315 L 53.431 140.467 C 53.431 141.199 53.17 141.565 52.595 141.565 L 52.072 141.565 C 51.654 141.565 51.392 141.199 51.392 140.467 L 51.392 118.094 C 51.392 117.415 51.601 117.101 52.072 117.101 L 52.595 117.101 C 52.804 117.101 52.961 117.153 53.117 117.258 C 53.222 117.362 53.379 117.728 53.64 118.251 C 54.372 117.885 54.947 117.571 55.417 117.362 C 55.888 117.153 56.411 117.049 57.038 117.049 L 58.449 117.049 C 58.658 117.049 58.868 117.153 59.024 117.362 C 59.181 117.571 59.286 117.78 59.286 118.042 L 59.286 118.617 C 59.286 119.296 59.024 119.662 58.449 119.662 Z " fill="rgb(255,255,255)"/><path d=" M 78.889 130.797 L 66.5 130.797 L 66.5 134.613 C 66.5 137.488 67.702 138.951 70.159 138.951 L 78.575 138.951 C 79.254 138.951 79.568 139.265 79.568 139.945 L 79.568 140.52 C 79.568 140.833 79.464 141.095 79.254 141.251 C 79.045 141.408 78.836 141.513 78.575 141.513 L 70.159 141.513 C 68.277 141.513 66.813 140.886 65.768 139.683 C 64.722 138.481 64.2 136.808 64.2 134.717 L 64.2 123.896 C 64.2 121.806 64.722 120.133 65.768 118.93 C 66.813 117.728 68.277 117.101 70.159 117.101 L 73.713 117.101 C 75.648 117.101 77.163 117.728 78.209 118.93 C 79.254 120.133 79.777 121.806 79.777 123.896 L 79.777 129.647 C 79.829 130.431 79.516 130.797 78.889 130.797 Z  M 77.477 123.896 C 77.477 121.074 76.223 119.662 73.713 119.662 L 70.159 119.662 C 67.702 119.662 66.5 121.074 66.5 123.896 L 66.5 128.235 L 77.477 128.235 L 77.477 123.896 Z " fill="rgb(255,255,255)"/><path d=" M 100.321 141.513 L 99.746 141.513 C 99.171 141.513 98.909 141.147 98.909 140.415 L 98.909 123.896 C 98.909 121.074 97.707 119.662 95.25 119.662 L 92.271 119.662 C 89.657 119.662 88.35 121.021 88.35 123.74 L 88.35 140.467 C 88.35 141.199 88.036 141.565 87.461 141.565 L 86.886 141.565 C 86.311 141.565 86.05 141.199 86.05 140.467 L 86.05 118.094 C 86.05 117.833 86.102 117.571 86.259 117.415 C 86.416 117.205 86.625 117.101 86.886 117.101 L 87.461 117.101 C 87.618 117.101 87.775 117.153 87.932 117.31 C 88.089 117.467 88.298 117.728 88.559 118.199 C 89.814 117.467 91.068 117.101 92.323 117.101 L 95.303 117.101 C 97.132 117.101 98.596 117.728 99.694 118.93 C 100.791 120.133 101.366 121.806 101.366 123.896 L 101.366 140.467 C 101.314 141.147 100.948 141.513 100.321 141.513 Z " fill="rgb(255,255,255)"/><path d=" M 121.335 141.513 L 120.812 141.513 C 120.551 141.513 120.342 141.461 120.237 141.356 C 120.133 141.251 119.976 140.938 119.715 140.363 C 118.93 140.833 118.251 141.095 117.728 141.251 C 117.153 141.408 116.578 141.513 116.003 141.513 L 113.023 141.513 C 111.142 141.513 109.678 140.938 108.632 139.788 C 107.587 138.638 107.064 136.86 107.064 134.56 L 107.064 123.635 C 107.064 121.335 107.587 119.61 108.632 118.408 C 109.678 117.205 111.142 116.63 113.023 116.63 L 116.003 116.63 C 116.63 116.63 117.205 116.735 117.728 116.892 C 118.303 117.049 119.035 117.415 119.976 117.99 L 119.976 108.894 C 119.976 108.162 120.237 107.796 120.812 107.796 L 121.335 107.796 C 122.015 107.796 122.328 108.162 122.328 108.894 L 122.328 140.415 C 122.328 141.147 122.015 141.513 121.335 141.513 Z  M 120.028 123.478 C 120.028 120.708 118.669 119.296 115.951 119.296 L 113.023 119.296 C 110.567 119.296 109.364 120.76 109.364 123.635 L 109.364 134.456 C 109.364 137.331 110.567 138.795 113.023 138.795 L 115.951 138.795 C 118.669 138.795 120.028 137.488 120.028 134.822 L 120.028 123.478 Z " fill="rgb(255,255,255)"/><path d=" M 131.424 113.912 L 129.072 113.912 C 128.967 113.912 128.967 113.755 129.019 113.494 C 129.124 113.233 129.124 112.971 129.124 112.762 L 129.124 108.998 C 129.124 108.737 129.072 108.476 129.019 108.267 C 128.915 108.057 128.967 107.953 129.072 107.953 L 131.424 107.953 C 131.529 107.953 131.581 108.057 131.529 108.267 C 131.476 108.476 131.476 108.737 131.476 108.998 L 131.476 112.762 C 131.476 112.971 131.476 113.233 131.529 113.494 C 131.581 113.755 131.529 113.912 131.424 113.912 Z  M 131.424 141.513 L 129.072 141.513 C 128.967 141.513 128.967 141.408 129.019 141.147 C 129.124 140.886 129.124 140.676 129.124 140.467 L 129.124 117.728 C 129.124 117.467 129.072 117.205 129.019 116.996 C 128.915 116.787 128.967 116.683 129.072 116.683 L 131.424 116.683 C 131.529 116.683 131.581 116.787 131.529 116.996 C 131.476 117.205 131.476 117.467 131.476 117.728 L 131.476 140.467 C 131.476 140.676 131.476 140.938 131.529 141.147 C 131.581 141.408 131.529 141.513 131.424 141.513 Z " fill="rgb(255,255,255)"/><path d=" M 150.138 141.513 L 137.906 141.513 C 137.645 141.513 137.383 141.461 137.174 141.304 C 136.965 141.147 136.86 140.886 136.86 140.52 L 136.86 139.997 C 136.86 139.788 136.965 139.579 137.122 139.317 L 147.681 119.61 L 138.01 119.61 C 137.435 119.61 137.174 119.296 137.174 118.617 L 137.174 118.042 C 137.174 117.78 137.226 117.519 137.383 117.362 C 137.54 117.153 137.749 117.049 138.01 117.049 L 149.824 117.049 C 150.034 117.049 150.243 117.101 150.452 117.258 C 150.661 117.415 150.765 117.676 150.765 118.042 L 150.765 118.617 C 150.765 118.774 150.713 118.983 150.609 119.192 L 139.945 138.899 L 150.086 138.899 C 150.347 138.899 150.609 139.004 150.765 139.213 C 150.922 139.422 151.027 139.631 151.027 139.945 L 151.027 140.52 C 151.027 141.199 150.765 141.513 150.138 141.513 Z " fill="rgb(255,255,255)"/><path d=" M 169.95 141.513 L 169.427 141.513 C 169.061 141.513 168.695 141.147 168.329 140.415 C 166.813 141.147 165.559 141.513 164.566 141.513 L 161.586 141.513 C 159.704 141.513 158.241 140.886 157.195 139.683 C 156.15 138.481 155.627 136.808 155.627 134.717 L 155.627 123.896 C 155.627 121.806 156.15 120.133 157.195 118.93 C 158.241 117.728 159.704 117.101 161.586 117.101 L 169.898 117.101 C 170.577 117.101 170.891 117.415 170.891 118.094 L 170.891 140.467 C 170.943 141.147 170.629 141.513 169.95 141.513 Z  M 168.695 122.067 C 168.695 121.858 168.643 121.492 168.539 121.074 C 168.434 120.708 168.225 120.394 167.964 120.185 C 167.702 119.976 167.232 119.819 166.657 119.662 L 161.691 119.662 C 159.234 119.662 158.031 121.074 158.031 123.896 L 158.031 134.613 C 158.031 137.488 159.234 138.951 161.691 138.951 L 164.618 138.951 C 167.336 138.951 168.695 137.592 168.695 134.874 C 168.695 131.11 168.695 128.34 168.748 126.615 C 168.8 124.89 168.8 123.74 168.8 123.112 L 168.8 122.067 L 168.695 122.067 Z " fill="rgb(255,255,255)"/><path d=" M 186.312 147.943 L 178.993 147.943 C 178.784 147.943 178.575 147.838 178.366 147.681 C 178.157 147.524 178.052 147.263 178.052 146.845 L 178.052 146.27 C 178.052 145.59 178.366 145.277 178.993 145.277 L 186.312 145.277 C 188.769 145.277 189.971 143.813 189.971 140.886 L 189.971 139.37 C 189.082 139.84 188.35 140.101 187.723 140.258 C 187.096 140.415 186.573 140.467 186.05 140.467 L 183.071 140.467 C 181.241 140.467 179.777 139.892 178.68 138.742 C 177.582 137.592 177.059 135.815 177.059 133.515 L 177.059 124.106 C 177.059 121.753 177.582 120.028 178.68 118.878 C 179.777 117.728 181.241 117.153 183.071 117.153 L 191.487 117.153 C 191.748 117.153 192.01 117.258 192.166 117.467 C 192.323 117.676 192.428 117.885 192.428 118.146 L 192.428 141.042 C 192.428 143.395 191.853 145.12 190.755 146.27 C 189.605 147.368 188.141 147.943 186.312 147.943 Z  M 182.914 119.819 C 181.659 119.819 180.771 120.185 180.248 120.865 C 179.725 121.544 179.516 122.642 179.516 124.053 L 179.516 133.463 C 179.516 136.338 180.718 137.801 183.071 137.801 L 186.05 137.801 C 188.612 137.801 189.866 136.442 189.866 133.619 L 190.128 119.715 L 182.914 119.819 Z " fill="rgb(255,255,255)"/><path d=" M 212.971 130.797 L 200.583 130.797 L 200.583 134.613 C 200.583 137.488 201.785 138.951 204.242 138.951 L 212.658 138.951 C 213.337 138.951 213.651 139.265 213.651 139.945 L 213.651 140.52 C 213.651 140.833 213.546 141.095 213.337 141.251 C 213.128 141.408 212.919 141.513 212.658 141.513 L 204.242 141.513 C 202.36 141.513 200.896 140.886 199.851 139.683 C 198.805 138.481 198.282 136.808 198.282 134.717 L 198.282 123.896 C 198.282 121.806 198.805 120.133 199.851 118.93 C 200.896 117.728 202.36 117.101 204.242 117.101 L 207.796 117.101 C 209.73 117.101 211.246 117.728 212.292 118.93 C 213.337 120.133 213.86 121.806 213.86 123.896 L 213.86 129.647 C 213.86 130.431 213.546 130.797 212.971 130.797 Z  M 211.56 123.896 C 211.56 121.074 210.306 119.662 207.796 119.662 L 204.242 119.662 C 201.785 119.662 200.583 121.074 200.583 123.896 L 200.583 128.235 L 211.56 128.235 L 211.56 123.896 Z " fill="rgb(255,255,255)"/><path d=" M 246.636 141.513 L 246.061 141.513 C 245.747 141.513 245.486 141.408 245.381 141.199 C 245.225 140.99 245.172 140.729 245.172 140.467 L 245.172 123.896 C 245.172 121.074 243.865 119.662 241.199 119.662 L 239.527 119.662 C 238.115 119.662 237.07 120.028 236.286 120.76 C 235.502 121.492 235.136 122.537 235.136 123.896 L 235.136 140.467 C 235.136 140.729 235.031 140.99 234.874 141.199 C 234.717 141.408 234.508 141.513 234.195 141.513 L 233.515 141.513 C 232.888 141.513 232.574 141.147 232.574 140.415 L 232.574 123.896 C 232.574 121.074 231.267 119.662 228.601 119.662 L 226.772 119.662 C 224.001 119.662 222.59 121.021 222.59 123.74 L 222.59 140.467 C 222.59 141.199 222.224 141.565 221.492 141.565 L 220.917 141.565 C 220.603 141.565 220.342 141.461 220.185 141.251 C 220.028 141.042 219.976 140.781 219.976 140.52 L 219.976 118.146 C 219.976 117.885 220.028 117.624 220.185 117.467 C 220.342 117.258 220.551 117.153 220.917 117.153 L 221.492 117.153 C 221.701 117.153 221.91 117.205 222.119 117.31 C 222.329 117.415 222.538 117.676 222.851 118.146 C 223.583 117.78 224.21 117.519 224.838 117.362 C 225.465 117.205 226.04 117.153 226.667 117.153 L 228.601 117.153 C 230.588 117.153 232.365 117.937 233.933 119.558 C 234.874 118.617 235.815 117.99 236.704 117.624 C 237.645 117.31 238.533 117.101 239.474 117.101 L 241.147 117.101 C 243.134 117.101 244.754 117.728 245.956 118.93 C 247.159 120.133 247.734 121.806 247.734 123.896 L 247.734 140.467 C 247.734 141.147 247.368 141.513 246.636 141.513 Z " fill="rgb(255,255,255)"/><path d=" M 139.683 177.896 L 134.194 177.896 C 132.417 177.896 131.006 177.268 129.96 176.066 C 128.915 174.864 128.392 173.191 128.392 171.1 L 128.392 160.279 C 128.392 158.188 128.915 156.515 129.96 155.313 C 131.006 154.111 132.417 153.484 134.194 153.484 L 139.683 153.484 C 140.311 153.484 140.624 153.797 140.624 154.477 L 140.624 155.052 C 140.624 155.365 140.52 155.627 140.311 155.784 C 140.101 155.94 139.892 156.045 139.683 156.045 L 134.194 156.045 C 131.842 156.045 130.692 157.456 130.692 160.279 L 130.692 170.995 C 130.692 173.87 131.842 175.334 134.194 175.334 L 139.683 175.334 C 140.311 175.334 140.624 175.648 140.624 176.327 L 140.624 176.902 C 140.624 177.268 140.52 177.53 140.311 177.686 C 140.101 177.843 139.892 177.896 139.683 177.896 Z " fill="rgb(255,255,255)"/><path d=" M 152.386 156.045 L 150.87 156.045 C 149.772 156.045 148.883 156.463 148.308 157.352 C 147.681 158.188 147.42 159.338 147.42 160.697 L 147.42 176.85 C 147.42 177.582 147.158 177.948 146.583 177.948 L 146.061 177.948 C 145.59 177.948 145.381 177.582 145.381 176.85 L 145.381 154.477 C 145.381 153.797 145.59 153.484 146.061 153.484 L 146.583 153.484 C 146.793 153.484 146.949 153.536 147.106 153.64 C 147.211 153.745 147.368 154.111 147.629 154.634 C 148.361 154.268 148.936 153.954 149.406 153.745 C 149.877 153.536 150.399 153.431 151.027 153.431 L 152.438 153.431 C 152.647 153.431 152.856 153.536 153.013 153.745 C 153.17 153.954 153.274 154.163 153.274 154.425 L 153.274 155 C 153.222 155.679 152.961 156.045 152.386 156.045 Z " fill="rgb(255,255,255)"/><path d=" M 160.802 150.295 L 158.45 150.295 C 158.345 150.295 158.345 150.138 158.397 149.877 C 158.502 149.615 158.502 149.354 158.502 149.145 L 158.502 145.381 C 158.502 145.12 158.45 144.858 158.397 144.649 C 158.293 144.44 158.345 144.336 158.45 144.336 L 160.802 144.336 C 160.907 144.336 160.959 144.44 160.907 144.649 C 160.854 144.858 160.854 145.12 160.854 145.381 L 160.854 149.145 C 160.854 149.354 160.854 149.615 160.907 149.877 C 160.959 150.138 160.907 150.295 160.802 150.295 Z  M 160.802 177.896 L 158.45 177.896 C 158.345 177.896 158.345 177.791 158.397 177.53 C 158.502 177.268 158.502 177.059 158.502 176.85 L 158.502 154.111 C 158.502 153.85 158.45 153.588 158.397 153.379 C 158.293 153.17 158.345 153.065 158.45 153.065 L 160.802 153.065 C 160.907 153.065 160.959 153.17 160.907 153.379 C 160.854 153.588 160.854 153.85 160.854 154.111 L 160.854 176.85 C 160.854 177.059 160.854 177.321 160.907 177.53 C 160.959 177.791 160.907 177.896 160.802 177.896 Z " fill="rgb(255,255,255)"/><path d=" M 181.293 177.896 L 180.771 177.896 C 180.405 177.896 180.039 177.53 179.673 176.798 C 178.157 177.53 176.902 177.896 175.909 177.896 L 172.982 177.896 C 171.1 177.896 169.636 177.268 168.591 176.066 C 167.545 174.864 167.023 173.191 167.023 171.1 L 167.023 160.279 C 167.023 158.188 167.545 156.515 168.591 155.313 C 169.636 154.111 171.1 153.484 172.982 153.484 L 181.293 153.484 C 181.973 153.484 182.287 153.797 182.287 154.477 L 182.287 176.85 C 182.287 177.582 181.921 177.896 181.293 177.896 Z  M 180.039 158.45 C 180.039 158.241 179.987 157.875 179.882 157.456 C 179.777 157.091 179.568 156.777 179.307 156.515 C 179.046 156.306 178.575 156.15 178 155.993 L 172.982 155.993 C 170.525 155.993 169.323 157.404 169.323 160.227 L 169.323 170.943 C 169.323 173.818 170.525 175.282 172.982 175.282 L 175.909 175.282 C 178.627 175.282 179.987 173.923 179.987 171.205 C 179.987 167.441 179.987 164.67 180.039 162.945 C 180.091 161.22 180.091 160.07 180.091 159.443 L 180.091 158.45 L 180.039 158.45 Z " fill="rgb(255,255,255)"/><path d=" M 198.021 177.896 L 196.61 177.896 C 194.78 177.896 193.316 177.268 192.219 176.066 C 191.121 174.864 190.546 173.191 190.546 171.1 L 190.546 155.888 L 188.194 155.888 C 187.619 155.888 187.357 155.575 187.357 154.895 L 187.357 154.32 C 187.357 153.588 187.619 153.222 188.194 153.222 L 190.546 153.222 L 190.546 149.981 C 190.546 149.72 190.65 149.458 190.807 149.197 C 190.964 148.936 191.173 148.831 191.487 148.831 L 192.062 148.831 C 192.323 148.831 192.532 148.936 192.689 149.197 C 192.846 149.458 192.898 149.72 192.898 149.981 L 192.898 153.222 L 197.655 153.222 C 198.282 153.222 198.544 153.588 198.544 154.32 L 198.544 154.895 C 198.544 155.313 198.439 155.575 198.23 155.679 C 198.021 155.836 197.812 155.888 197.603 155.888 L 192.846 155.888 L 192.846 171.1 C 192.846 173.87 194.101 175.282 196.61 175.282 L 198.021 175.282 C 198.648 175.282 198.91 175.596 198.91 176.275 L 198.91 176.955 C 198.91 177.321 198.805 177.582 198.596 177.739 C 198.439 177.843 198.23 177.896 198.021 177.896 Z " fill="rgb(255,255,255)"/><path d=" M 206.228 150.295 L 203.876 150.295 C 203.771 150.295 203.771 150.138 203.824 149.877 C 203.928 149.615 203.928 149.354 203.928 149.145 L 203.928 145.381 C 203.928 145.12 203.876 144.858 203.824 144.649 C 203.719 144.44 203.771 144.336 203.876 144.336 L 206.228 144.336 C 206.333 144.336 206.385 144.44 206.333 144.649 C 206.28 144.858 206.28 145.12 206.28 145.381 L 206.28 149.145 C 206.28 149.354 206.28 149.615 206.333 149.877 C 206.385 150.138 206.333 150.295 206.228 150.295 Z  M 206.228 177.896 L 203.876 177.896 C 203.771 177.896 203.771 177.791 203.824 177.53 C 203.928 177.268 203.928 177.059 203.928 176.85 L 203.928 154.111 C 203.928 153.85 203.876 153.588 203.824 153.379 C 203.719 153.17 203.771 153.065 203.876 153.065 L 206.228 153.065 C 206.333 153.065 206.385 153.17 206.333 153.379 C 206.28 153.588 206.28 153.85 206.28 154.111 L 206.28 176.85 C 206.28 177.059 206.28 177.321 206.333 177.53 C 206.385 177.791 206.333 177.896 206.228 177.896 Z " fill="rgb(255,255,255)"/><path d=" M 221.074 177.059 C 220.865 177.634 220.551 177.896 220.185 177.896 L 219.192 177.896 C 218.931 177.896 218.722 177.791 218.565 177.582 C 218.408 177.373 218.356 177.216 218.251 177.111 L 211.769 154.738 C 211.612 153.85 211.874 153.379 212.606 153.379 L 213.285 153.379 C 213.546 153.379 213.756 153.484 213.912 153.64 C 214.069 153.797 214.174 153.954 214.226 154.059 L 219.715 173.766 C 220.447 170.995 221.126 168.539 221.754 166.343 C 222.381 164.2 222.956 162.213 223.479 160.436 L 225.413 154.006 C 225.413 153.954 225.465 153.85 225.57 153.64 C 225.674 153.431 225.883 153.327 226.145 153.327 L 226.824 153.327 C 227.556 153.327 227.817 153.797 227.66 154.686 L 221.074 177.059 Z " fill="rgb(255,255,255)"/><path d=" M 246.74 177.896 L 246.218 177.896 C 245.852 177.896 245.486 177.53 245.12 176.798 C 243.604 177.53 242.402 177.896 241.356 177.896 L 238.377 177.896 C 236.495 177.896 235.031 177.268 233.986 176.066 C 232.94 174.864 232.417 173.191 232.417 171.1 L 232.417 160.279 C 232.417 158.188 232.94 156.515 233.986 155.313 C 235.031 154.111 236.495 153.484 238.377 153.484 L 246.688 153.484 C 247.368 153.484 247.681 153.797 247.681 154.477 L 247.681 176.85 C 247.786 177.582 247.42 177.896 246.74 177.896 Z  M 245.538 158.45 C 245.538 158.241 245.486 157.875 245.381 157.456 C 245.277 157.091 245.068 156.777 244.806 156.515 C 244.545 156.306 244.075 156.15 243.5 155.993 L 238.533 155.993 C 236.077 155.993 234.874 157.404 234.874 160.227 L 234.874 170.943 C 234.874 173.818 236.077 175.282 238.533 175.282 L 241.461 175.282 C 244.179 175.282 245.538 173.923 245.538 171.205 C 245.538 167.441 245.538 164.67 245.59 162.945 C 245.59 161.22 245.643 160.07 245.643 159.443 L 245.643 158.45 L 245.538 158.45 Z " fill="rgb(255,255,255)"/></g><g id="Group"><path d=" M 15.898 86.834 L 14.696 86.834 C 13.703 86.834 12.919 87.252 12.396 88.036 C 11.873 88.821 11.612 89.814 11.612 90.912 L 11.612 104.032 C 11.612 104.346 11.56 104.503 11.507 104.555 C 11.455 104.607 11.35 104.607 11.298 104.607 L 10.932 104.607 C 10.775 104.607 10.671 104.398 10.671 104.032 L 10.671 85.841 C 10.671 85.475 10.775 85.318 10.932 85.318 L 11.35 85.318 C 11.507 85.318 11.56 85.371 11.612 85.527 C 11.664 85.684 11.769 85.946 11.925 86.468 C 12.657 86.05 13.232 85.736 13.598 85.58 C 13.964 85.423 14.382 85.371 14.801 85.371 L 15.898 85.371 C 15.951 85.371 16.003 85.423 16.107 85.527 C 16.212 85.632 16.264 85.736 16.264 85.946 L 16.264 86.416 C 16.264 86.625 16.16 86.834 15.898 86.834 Z " fill="rgb(249,249,249)"/><path d=" M 32.103 95.878 L 21.962 95.878 L 21.962 99.275 C 21.962 101.837 23.06 103.091 25.203 103.091 L 31.842 103.091 C 32.156 103.091 32.312 103.248 32.312 103.614 L 32.312 104.085 C 32.312 104.451 32.156 104.607 31.842 104.607 L 25.203 104.607 C 23.792 104.607 22.694 104.137 21.91 103.248 C 21.126 102.307 20.708 101.053 20.708 99.38 L 20.708 90.546 C 20.708 88.873 21.126 87.566 21.91 86.677 C 22.694 85.736 23.792 85.318 25.203 85.318 L 28.026 85.318 C 29.437 85.318 30.535 85.789 31.319 86.677 C 32.103 87.618 32.521 88.873 32.521 90.546 L 32.521 95.198 C 32.469 95.669 32.365 95.878 32.103 95.878 Z  M 31.215 90.546 C 31.215 89.343 30.953 88.455 30.43 87.775 C 29.908 87.096 29.071 86.782 27.974 86.782 L 25.151 86.782 C 24.053 86.782 23.269 87.096 22.694 87.775 C 22.171 88.455 21.91 89.343 21.91 90.546 L 21.91 94.362 L 31.162 94.362 L 31.162 90.546 L 31.215 90.546 Z " fill="rgb(249,249,249)"/><path d=" M 48.622 104.66 L 48.204 104.66 C 48.047 104.66 47.995 104.607 47.89 104.451 C 47.838 104.294 47.681 104.032 47.524 103.51 C 46.792 103.98 46.165 104.294 45.695 104.451 C 45.224 104.607 44.806 104.66 44.335 104.66 L 41.983 104.66 C 40.572 104.66 39.474 104.241 38.69 103.353 C 37.906 102.464 37.487 101.105 37.487 99.275 L 37.487 90.441 C 37.487 88.664 37.906 87.357 38.69 86.521 C 39.474 85.632 40.572 85.214 41.983 85.214 L 44.335 85.214 C 44.754 85.214 45.224 85.266 45.695 85.423 C 46.165 85.58 46.845 85.893 47.785 86.468 L 47.785 78.575 C 47.785 78.209 47.942 78.052 48.204 78.052 L 48.622 78.052 C 48.936 78.052 49.092 78.209 49.092 78.575 L 49.092 104.137 C 49.04 104.451 48.883 104.66 48.622 104.66 Z  M 47.785 90.284 C 47.785 87.88 46.635 86.677 44.283 86.677 L 41.983 86.677 C 40.885 86.677 40.101 86.991 39.526 87.671 C 39.003 88.35 38.742 89.239 38.742 90.441 L 38.742 99.171 C 38.742 100.373 39.003 101.314 39.526 101.994 C 40.049 102.673 40.885 103.039 41.983 103.039 L 44.283 103.039 C 46.583 103.039 47.785 101.837 47.785 99.432 L 47.785 90.284 Z " fill="rgb(249,249,249)"/><path d=" M 66.081 95.878 L 55.94 95.878 L 55.94 99.275 C 55.94 101.837 57.038 103.091 59.181 103.091 L 65.82 103.091 C 66.134 103.091 66.29 103.248 66.29 103.614 L 66.29 104.085 C 66.29 104.451 66.134 104.607 65.82 104.607 L 59.181 104.607 C 57.77 104.607 56.672 104.137 55.888 103.248 C 55.104 102.307 54.686 101.053 54.686 99.38 L 54.686 90.546 C 54.686 88.873 55.104 87.566 55.888 86.677 C 56.672 85.736 57.77 85.318 59.181 85.318 L 62.004 85.318 C 63.415 85.318 64.513 85.789 65.297 86.677 C 66.081 87.618 66.5 88.873 66.5 90.546 L 66.5 95.198 C 66.5 95.669 66.343 95.878 66.081 95.878 Z  M 65.245 90.546 C 65.245 89.343 64.984 88.455 64.461 87.775 C 63.938 87.096 63.102 86.782 62.004 86.782 L 59.181 86.782 C 58.083 86.782 57.299 87.096 56.724 87.775 C 56.202 88.455 55.94 89.343 55.94 90.546 L 55.94 94.362 L 65.193 94.362 L 65.193 90.546 L 65.245 90.546 Z " fill="rgb(249,249,249)"/><path d=" M 90.807 104.66 L 84.168 104.66 C 83.907 104.66 83.75 104.503 83.75 104.137 L 83.75 78.575 C 83.75 78.209 83.855 78.052 84.168 78.052 L 84.639 78.052 C 84.9 78.052 85.057 78.209 85.057 78.575 L 85.057 86.05 C 85.998 85.475 86.677 85.109 87.148 85.005 C 87.618 84.848 88.036 84.795 88.507 84.795 L 90.859 84.795 C 92.218 84.795 93.316 85.266 94.1 86.207 C 94.937 87.148 95.303 88.455 95.303 90.127 L 95.303 99.275 C 95.303 101.053 94.884 102.412 94.1 103.301 C 93.264 104.189 92.166 104.66 90.807 104.66 Z  M 93.943 90.18 C 93.943 89.03 93.682 88.141 93.212 87.409 C 92.689 86.73 91.905 86.364 90.807 86.364 L 88.455 86.364 C 86.155 86.364 85.057 87.566 85.057 89.971 L 85.057 103.039 L 90.859 103.039 C 91.957 103.039 92.741 102.673 93.264 101.994 C 93.787 101.314 93.996 100.373 93.996 99.171 L 93.996 90.18 L 93.943 90.18 Z " fill="rgb(249,249,249)"/><path d=" M 105.653 86.834 L 104.503 86.834 C 103.51 86.834 102.726 87.252 102.203 88.036 C 101.68 88.821 101.419 89.814 101.419 90.912 L 101.419 104.032 C 101.419 104.346 101.366 104.503 101.314 104.555 C 101.262 104.607 101.157 104.607 101.105 104.607 L 100.687 104.607 C 100.53 104.607 100.425 104.398 100.425 104.032 L 100.425 85.841 C 100.425 85.475 100.53 85.318 100.687 85.318 L 101.105 85.318 C 101.262 85.318 101.314 85.371 101.366 85.527 C 101.419 85.684 101.523 85.946 101.68 86.468 C 102.412 86.05 102.987 85.736 103.353 85.58 C 103.719 85.423 104.137 85.371 104.555 85.371 L 105.653 85.371 C 105.705 85.371 105.757 85.423 105.862 85.527 C 105.966 85.632 106.019 85.736 106.019 85.946 L 106.019 86.416 C 106.019 86.625 105.914 86.834 105.653 86.834 Z " fill="rgb(249,249,249)"/><path d=" M 121.544 104.66 L 121.126 104.66 C 121.021 104.66 120.969 104.607 120.917 104.503 C 120.865 104.398 120.708 104.137 120.499 103.666 C 119.767 104.032 119.14 104.294 118.669 104.398 C 118.199 104.555 117.728 104.607 117.362 104.607 L 114.958 104.607 C 113.546 104.607 112.448 104.137 111.664 103.248 C 110.88 102.307 110.462 101.053 110.462 99.38 L 110.462 90.546 C 110.462 88.873 110.88 87.566 111.664 86.677 C 112.448 85.736 113.546 85.318 114.958 85.318 L 121.544 85.318 C 121.858 85.318 122.015 85.475 122.015 85.841 L 122.015 104.032 C 122.015 104.294 121.962 104.451 121.91 104.503 C 121.806 104.607 121.701 104.66 121.544 104.66 Z  M 120.655 88.141 C 120.446 87.409 119.871 86.939 118.93 86.834 L 114.958 86.834 C 113.86 86.834 113.076 87.148 112.501 87.827 C 111.978 88.507 111.717 89.396 111.717 90.598 L 111.717 99.328 C 111.717 101.889 112.814 103.144 114.958 103.144 L 117.258 103.144 C 119.558 103.144 120.76 101.941 120.76 99.537 C 120.76 96.453 120.76 94.257 120.812 92.846 C 120.812 91.434 120.865 90.493 120.865 89.971 C 120.865 89.657 120.865 89.343 120.865 89.082 C 120.812 88.716 120.76 88.455 120.655 88.141 Z " fill="rgb(249,249,249)"/><path d=" M 133.149 104.66 L 127.765 104.66 C 127.503 104.66 127.347 104.503 127.347 104.137 L 127.347 103.666 C 127.347 103.301 127.503 103.144 127.765 103.144 L 133.149 103.144 C 134.247 103.144 135.031 102.882 135.501 102.412 C 135.972 101.941 136.233 101.262 136.233 100.373 L 136.233 99.328 C 136.233 98.439 136.129 97.759 135.867 97.237 C 135.606 96.714 135.135 96.348 134.299 96.034 L 130.169 94.309 C 129.019 93.839 128.235 93.264 127.817 92.584 C 127.399 91.905 127.137 90.912 127.137 89.657 C 127.137 86.782 128.497 85.318 131.215 85.318 L 136.285 85.318 C 136.547 85.318 136.704 85.475 136.704 85.841 L 136.704 86.311 C 136.704 86.677 136.547 86.834 136.285 86.834 L 131.215 86.834 C 130.169 86.834 129.438 87.096 129.072 87.566 C 128.653 88.036 128.497 88.612 128.497 89.187 L 128.497 90.18 C 128.497 90.912 128.653 91.487 128.967 91.8 C 129.281 92.166 129.856 92.48 130.588 92.793 L 134.717 94.571 C 135.763 94.989 136.495 95.669 136.86 96.557 C 137.226 97.446 137.435 98.648 137.435 100.164 C 137.435 101.785 137.07 102.935 136.39 103.614 C 135.658 104.294 134.613 104.66 133.149 104.66 Z " fill="rgb(249,249,249)"/><path d=" M 143.604 78.052 C 143.552 78.209 143.552 78.366 143.552 78.575 L 143.552 81.659 C 143.552 81.764 143.552 81.868 143.604 81.973 C 143.604 82.077 143.656 82.182 143.656 82.286 L 142.297 82.286 C 142.297 82.182 142.297 82.077 142.349 81.973 C 142.349 81.868 142.402 81.764 142.402 81.659 L 142.402 78.575 C 142.402 78.47 142.402 78.418 142.349 78.314 C 142.349 78.209 142.297 78.157 142.297 78.052 L 143.604 78.052 Z  M 143.604 85.161 C 143.552 85.266 143.552 85.423 143.552 85.684 L 143.552 104.085 C 143.552 104.189 143.552 104.241 143.604 104.346 C 143.604 104.451 143.656 104.503 143.656 104.607 C 143.708 104.607 143.761 104.607 143.813 104.66 C 143.865 104.712 143.865 104.66 143.865 104.607 L 142.297 104.607 L 142.349 104.346 L 142.349 104.085 L 142.349 85.684 C 142.349 85.58 142.349 85.527 142.297 85.423 C 142.297 85.318 142.245 85.266 142.245 85.161 L 143.604 85.161 L 143.604 85.161 Z " fill="rgb(249,249,249)"/><path d=" M 150.19 104.66 L 149.72 104.66 C 149.458 104.66 149.302 104.503 149.302 104.137 L 149.302 78.575 C 149.302 78.209 149.458 78.052 149.72 78.052 L 150.19 78.052 C 150.504 78.052 150.661 78.209 150.661 78.575 L 150.661 104.137 C 150.661 104.451 150.504 104.66 150.19 104.66 Z " fill="rgb(249,249,249)"/><path d=" M 167.754 95.878 L 157.613 95.878 L 157.613 99.275 C 157.613 101.837 158.711 103.091 160.854 103.091 L 167.493 103.091 C 167.807 103.091 167.964 103.248 167.964 103.614 L 167.964 104.085 C 167.964 104.451 167.807 104.607 167.493 104.607 L 160.854 104.607 C 159.443 104.607 158.345 104.137 157.561 103.248 C 156.777 102.307 156.359 101.053 156.359 99.38 L 156.359 90.546 C 156.359 88.873 156.777 87.566 157.561 86.677 C 158.345 85.736 159.443 85.318 160.854 85.318 L 163.677 85.318 C 165.088 85.318 166.186 85.789 166.97 86.677 C 167.754 87.618 168.173 88.873 168.173 90.546 L 168.173 95.198 C 168.12 95.669 168.016 95.878 167.754 95.878 Z  M 166.918 90.546 C 166.918 89.343 166.657 88.455 166.134 87.775 C 165.611 87.096 164.775 86.782 163.677 86.782 L 160.854 86.782 C 159.756 86.782 158.972 87.096 158.397 87.775 C 157.875 88.455 157.613 89.343 157.613 90.546 L 157.613 94.362 L 166.866 94.362 L 166.866 90.546 L 166.918 90.546 Z " fill="rgb(249,249,249)"/><path d=" M 174.864 78.052 C 174.811 78.209 174.811 78.366 174.811 78.575 L 174.811 81.659 C 174.811 81.764 174.811 81.868 174.864 81.973 C 174.864 82.077 174.916 82.182 174.916 82.286 L 173.557 82.286 C 173.557 82.182 173.557 82.077 173.609 81.973 C 173.609 81.868 173.661 81.764 173.661 81.659 L 173.661 78.575 C 173.661 78.47 173.661 78.418 173.609 78.314 C 173.609 78.209 173.557 78.157 173.557 78.052 L 174.864 78.052 Z  M 174.864 85.161 C 174.811 85.266 174.811 85.423 174.811 85.684 L 174.811 104.085 C 174.811 104.189 174.811 104.241 174.864 104.346 C 174.864 104.451 174.916 104.503 174.916 104.607 C 174.968 104.607 175.021 104.607 175.073 104.66 C 175.125 104.712 175.125 104.66 175.125 104.607 L 173.557 104.607 L 173.609 104.346 L 173.609 104.085 L 173.609 85.684 C 173.609 85.58 173.609 85.527 173.557 85.423 C 173.557 85.318 173.505 85.266 173.505 85.161 L 174.864 85.161 L 174.864 85.161 Z " fill="rgb(249,249,249)"/><path d=" M 185.214 86.834 L 184.012 86.834 C 183.018 86.834 182.234 87.252 181.712 88.036 C 181.189 88.821 180.927 89.814 180.927 90.912 L 180.927 104.032 C 180.927 104.346 180.875 104.503 180.823 104.555 C 180.771 104.607 180.666 104.607 180.614 104.607 L 180.196 104.607 C 180.039 104.607 179.934 104.398 179.934 104.032 L 179.934 85.841 C 179.934 85.475 180.039 85.318 180.196 85.318 L 180.614 85.318 C 180.771 85.318 180.823 85.371 180.875 85.527 C 180.927 85.684 181.032 85.946 181.189 86.468 C 181.921 86.05 182.496 85.736 182.862 85.58 C 183.228 85.423 183.646 85.371 184.064 85.371 L 185.162 85.371 C 185.214 85.371 185.266 85.423 185.371 85.527 C 185.475 85.632 185.528 85.736 185.528 85.946 L 185.528 86.416 C 185.58 86.625 185.475 86.834 185.214 86.834 Z " fill="rgb(249,249,249)"/><path d=" M 201.105 104.66 L 200.687 104.66 C 200.583 104.66 200.53 104.607 200.478 104.503 C 200.426 104.398 200.269 104.137 200.06 103.666 C 199.328 104.032 198.701 104.294 198.23 104.398 C 197.76 104.555 197.289 104.607 196.923 104.607 L 194.571 104.607 C 193.16 104.607 192.062 104.137 191.278 103.248 C 190.494 102.307 190.075 101.053 190.075 99.38 L 190.075 90.546 C 190.075 88.873 190.494 87.566 191.278 86.677 C 192.062 85.736 193.16 85.318 194.571 85.318 L 201.158 85.318 C 201.471 85.318 201.628 85.475 201.628 85.841 L 201.628 104.032 C 201.628 104.294 201.576 104.451 201.523 104.503 C 201.367 104.607 201.262 104.66 201.105 104.66 Z  M 200.217 88.141 C 200.008 87.409 199.432 86.939 198.492 86.834 L 194.466 86.834 C 193.369 86.834 192.585 87.148 192.01 87.827 C 191.487 88.507 191.225 89.396 191.225 90.598 L 191.225 99.328 C 191.225 101.889 192.323 103.144 194.466 103.144 L 196.767 103.144 C 199.067 103.144 200.269 101.941 200.269 99.537 C 200.269 96.453 200.269 94.257 200.321 92.846 C 200.321 91.434 200.373 90.493 200.373 89.971 C 200.373 89.657 200.373 89.343 200.373 89.082 C 200.373 88.716 200.321 88.455 200.217 88.141 Z " fill="rgb(249,249,249)"/><path d=" M 229.699 104.66 L 229.281 104.66 C 229.124 104.66 229.072 104.607 228.967 104.451 C 228.915 104.294 228.758 104.032 228.601 103.51 C 227.87 103.98 227.242 104.294 226.772 104.451 C 226.301 104.607 225.883 104.66 225.413 104.66 L 223.06 104.66 C 221.649 104.66 220.551 104.241 219.767 103.353 C 218.983 102.464 218.565 101.105 218.565 99.275 L 218.565 90.441 C 218.565 88.664 218.983 87.357 219.767 86.521 C 220.551 85.632 221.649 85.214 223.06 85.214 L 225.413 85.214 C 225.831 85.214 226.301 85.266 226.772 85.423 C 227.242 85.58 227.922 85.893 228.863 86.468 L 228.863 78.575 C 228.863 78.209 229.02 78.052 229.281 78.052 L 229.699 78.052 C 230.013 78.052 230.17 78.209 230.17 78.575 L 230.17 104.137 C 230.17 104.451 230.013 104.66 229.699 104.66 Z  M 228.915 90.284 C 228.915 87.88 227.765 86.677 225.413 86.677 L 223.113 86.677 C 222.015 86.677 221.231 86.991 220.656 87.671 C 220.133 88.35 219.872 89.239 219.872 90.441 L 219.872 99.171 C 219.872 100.373 220.133 101.314 220.656 101.994 C 221.179 102.673 222.015 103.039 223.113 103.039 L 225.413 103.039 C 227.713 103.039 228.915 101.837 228.915 99.432 L 228.915 90.284 Z " fill="rgb(249,249,249)"/><path d=" M 247.159 95.878 L 237.018 95.878 L 237.018 99.275 C 237.018 101.837 238.115 103.091 240.259 103.091 L 246.897 103.091 C 247.211 103.091 247.368 103.248 247.368 103.614 L 247.368 104.085 C 247.368 104.451 247.211 104.607 246.897 104.607 L 240.259 104.607 C 238.847 104.607 237.749 104.137 236.965 103.248 C 236.181 102.307 235.763 101.053 235.763 99.38 L 235.763 90.546 C 235.763 88.873 236.181 87.566 236.965 86.677 C 237.749 85.736 238.847 85.318 240.259 85.318 L 243.081 85.318 C 244.493 85.318 245.59 85.789 246.375 86.677 C 247.159 87.618 247.577 88.873 247.577 90.546 L 247.577 95.198 C 247.577 95.669 247.42 95.878 247.159 95.878 Z  M 246.322 90.546 C 246.322 89.343 246.061 88.455 245.538 87.775 C 245.015 87.096 244.179 86.782 243.081 86.782 L 240.259 86.782 C 239.161 86.782 238.377 87.096 237.802 87.775 C 237.279 88.455 237.018 89.343 237.018 90.546 L 237.018 94.362 L 246.27 94.362 L 246.27 90.546 L 246.322 90.546 Z " fill="rgb(249,249,249)"/></g></g></svg>