<?xml version="1.0" standalone="no"?><!-- Generator: Gravit.io --><svg xmlns="http://www.w3.org/2000/svg" xmlns:xlink="http://www.w3.org/1999/xlink" style="isolation:isolate" viewBox="0 0 256 256" width="256" height="256"><path d=" M 191.226 98.314 C 190.237 96.161 188.978 94.015 187.404 91.901 C 182.965 85.936 176.02 80.231 165.552 75.371 C 123.915 57.752 93.232 76.265 81.183 85.267 C 78.932 86.949 77.329 88.301 76.43 89.02 C 77.944 87.912 79.723 86.865 81.722 85.896 C 103.169 75.489 150.138 73.958 172.519 100.484 C 175.366 103.858 177.813 107.688 179.76 112.009 C 180.424 113.483 181.028 115.015 181.572 116.604 C 183.022 120.84 184.025 125.496 184.511 130.6 C 184.771 133.325 184.889 136.174 184.84 139.16 C 184.634 141.216 200.92 119.439 191.226 98.314 Z " fill="rgb(254,253,254)"/><path d=" M 40.919 213.798 C 40.402 213.561 39.819 213.332 39.169 213.113 C 38.52 212.892 37.796 212.774 36.999 212.759 C 36.32 212.759 35.766 212.915 35.338 213.226 C 34.872 213.537 34.641 214.044 34.641 214.746 C 34.641 215.096 34.755 215.409 34.982 215.683 C 35.19 215.979 35.467 216.262 35.814 216.528 C 36.558 217.031 37.414 217.537 38.381 218.047 C 39.347 218.565 40.199 219.198 40.937 219.944 C 41.689 220.705 42.077 221.686 42.099 222.889 C 42.077 224.39 41.544 225.529 40.506 226.305 C 39.465 227.091 38.074 227.482 36.333 227.482 C 35.322 227.458 34.418 227.356 33.622 227.173 C 32.818 226.984 32.278 226.857 32.006 226.796 L 32.006 223.964 C 32.494 224.277 33.107 224.605 33.846 224.947 C 34.607 225.328 35.471 225.526 36.44 225.54 C 37.466 225.526 38.19 225.274 38.612 224.788 C 38.988 224.337 39.177 223.839 39.177 223.29 C 39.161 222.416 38.778 221.699 38.025 221.144 C 37.286 220.58 36.432 220.039 35.464 219.521 C 34.488 219.011 33.632 218.407 32.894 217.705 C 32.125 217.013 31.733 216.105 31.718 214.986 C 31.733 213.539 32.261 212.478 33.301 211.801 C 34.313 211.145 35.575 210.818 37.088 210.818 C 37.982 210.818 38.775 210.875 39.468 210.989 C 40.147 211.095 40.631 211.187 40.919 211.263 L 40.919 213.798 Z " fill="rgb(254,253,254)"/><path d=" M 46.668 221.663 C 46.668 222.172 46.697 222.662 46.756 223.134 C 46.801 223.598 46.89 224.024 47.024 224.412 C 47.179 224.785 47.402 225.082 47.691 225.302 C 47.966 225.537 48.322 225.655 48.758 225.655 C 49.21 225.655 49.582 225.537 49.872 225.302 C 50.145 225.082 50.353 224.785 50.494 224.412 C 50.643 224.024 50.746 223.598 50.805 223.134 C 50.836 222.662 50.851 222.172 50.851 221.663 C 50.865 220.568 50.747 219.631 50.494 218.856 C 50.353 218.484 50.145 218.186 49.872 217.966 C 49.582 217.76 49.21 217.659 48.758 217.659 C 48.322 217.659 47.966 217.76 47.691 217.966 C 47.402 218.186 47.179 218.484 47.024 218.856 C 46.771 219.631 46.652 220.568 46.668 221.663 Z  M 48.758 227.482 C 45.598 227.413 44.012 225.471 43.997 221.656 C 44.012 217.835 45.598 215.894 48.758 215.831 C 51.919 215.894 53.506 217.835 53.521 221.656 C 53.506 225.471 51.919 227.413 48.758 227.482 Z " fill="rgb(254,253,254)"/><path d=" M 64.581 226.957 C 63.629 227.285 62.577 227.459 61.426 227.482 C 59.78 227.482 58.411 226.979 57.318 225.974 C 56.219 224.992 55.661 223.389 55.648 221.165 C 55.631 219.666 56.022 218.41 56.819 217.396 C 57.61 216.384 58.865 215.862 60.585 215.831 C 61.404 215.831 62.086 215.938 62.633 216.152 C 63.141 216.374 63.554 216.679 63.872 217.067 C 64.042 217.258 64.178 217.453 64.282 217.65 C 64.385 217.888 64.469 218.132 64.535 218.383 C 64.639 218.88 64.691 219.386 64.691 219.906 L 62.02 219.906 C 62.02 219.342 61.925 218.829 61.733 218.365 C 61.504 217.909 61.057 217.674 60.391 217.659 C 59.711 217.674 59.198 217.963 58.85 218.525 C 58.496 219.104 58.318 219.83 58.318 220.704 C 58.318 221.26 58.402 221.825 58.572 222.404 C 58.742 222.983 58.992 223.519 59.325 224.013 C 59.687 224.484 60.144 224.869 60.697 225.164 C 61.258 225.491 61.947 225.655 62.766 225.655 C 63.475 225.655 64.079 225.56 64.581 225.369 L 64.581 226.957 Z " fill="rgb(254,253,254)"/><path d=" M 66.851 216.083 L 69.362 216.083 L 69.362 227.219 L 66.851 227.219 L 66.851 216.083 Z  M 66.851 211.081 L 69.362 211.081 L 69.362 213.638 L 66.851 213.638 L 66.851 211.081 Z " fill="rgb(254,253,254)"/><path d=" M 78.48 219.406 C 78.496 219.017 78.384 218.599 78.147 218.154 C 78.006 217.954 77.813 217.791 77.568 217.659 C 77.317 217.537 76.984 217.475 76.569 217.475 C 75.837 217.491 75.308 217.728 74.981 218.188 C 74.669 218.625 74.497 219.032 74.466 219.406 L 78.48 219.406 Z  M 80.589 227.036 C 79.71 227.334 78.703 227.482 77.565 227.482 C 73.972 227.429 72.159 225.289 72.129 221.063 C 72.115 219.479 72.476 218.211 73.214 217.259 C 73.96 216.322 75.141 215.847 76.757 215.831 C 79.488 215.908 80.853 217.409 80.853 220.334 L 80.853 220.96 L 74.458 220.96 C 74.458 221.349 74.532 221.805 74.678 222.322 C 74.761 222.576 74.853 222.835 74.957 223.101 C 75.076 223.346 75.213 223.601 75.368 223.869 C 75.688 224.373 76.102 224.789 76.611 225.116 C 77.146 225.477 77.783 225.656 78.524 225.656 C 79.385 225.625 80.074 225.483 80.589 225.232 L 80.589 227.036 Z " fill="rgb(254,253,254)"/><path d=" M 85.628 221.663 C 85.628 222.082 85.657 222.516 85.716 222.967 C 85.76 223.425 85.842 223.841 85.961 224.214 C 86.101 224.587 86.29 224.885 86.526 225.107 C 86.786 225.35 87.104 225.473 87.481 225.473 C 87.85 225.473 88.153 225.35 88.39 225.107 C 88.634 224.885 88.834 224.587 88.989 224.214 C 89.263 223.443 89.399 222.593 89.399 221.663 C 89.399 220.594 89.263 219.694 88.989 218.962 C 88.7 218.229 88.198 217.857 87.481 217.842 C 87.073 217.842 86.755 217.948 86.526 218.162 C 86.29 218.383 86.101 218.673 85.961 219.031 C 85.842 219.39 85.76 219.797 85.716 220.254 C 85.657 220.704 85.628 221.175 85.628 221.663 Z  M 89.399 225.688 L 89.344 225.688 C 89.225 226.028 88.923 226.4 88.435 226.801 C 87.942 227.218 87.348 227.444 86.654 227.482 C 85.245 227.444 84.271 226.857 83.732 225.723 C 83.201 224.595 82.943 223.241 82.957 221.656 C 82.957 219.982 83.26 218.599 83.865 217.511 C 84.441 216.407 85.37 215.847 86.654 215.831 C 87.06 215.831 87.422 215.877 87.739 215.969 C 88.041 216.091 88.293 216.239 88.49 216.415 C 88.911 216.772 89.196 217.107 89.344 217.419 L 89.399 217.419 L 89.399 211.081 L 91.91 211.081 L 91.91 227.219 L 89.399 227.219 L 89.399 225.688 Z " fill="rgb(254,253,254)"/><path d=" M 97.198 224.318 C 97.198 225.211 97.646 225.656 98.542 225.656 C 98.95 225.656 99.306 225.546 99.609 225.323 C 99.883 225.126 100.113 224.86 100.299 224.525 C 100.477 224.181 100.614 223.823 100.709 223.45 C 100.768 223.062 100.798 222.681 100.798 222.307 C 99.932 222.307 99.136 222.447 98.409 222.73 C 98.06 222.883 97.779 223.091 97.566 223.357 C 97.321 223.626 97.198 223.945 97.198 224.318 Z  M 100.798 225.93 L 100.755 225.93 C 100.599 226.287 100.31 226.63 99.888 226.957 C 99.658 227.102 99.386 227.219 99.069 227.311 C 98.75 227.401 98.373 227.458 97.937 227.482 C 97.013 227.458 96.255 227.193 95.663 226.685 C 95.056 226.152 94.754 225.445 94.754 224.564 C 94.768 223.644 95.02 222.919 95.508 222.386 C 95.974 221.877 96.547 221.512 97.227 221.291 C 97.915 221.072 98.584 220.93 99.234 220.869 C 99.9 220.808 100.421 220.787 100.798 220.802 L 100.798 219.704 C 100.798 219.125 100.706 218.642 100.521 218.252 C 100.315 217.871 99.902 217.673 99.282 217.659 C 98.618 217.673 98.171 217.864 97.943 218.23 C 97.713 218.587 97.605 218.969 97.621 219.373 L 95.179 219.373 C 95.179 217.074 96.547 215.893 99.282 215.831 C 101.905 215.848 103.209 217.002 103.195 219.292 L 103.195 227.219 L 100.798 227.219 L 100.798 225.93 Z " fill="rgb(254,253,254)"/><path d=" M 108.575 221.663 C 108.575 222.082 108.603 222.516 108.662 222.967 C 108.707 223.425 108.789 223.841 108.908 224.214 C 109.048 224.587 109.236 224.885 109.473 225.107 C 109.731 225.35 110.05 225.473 110.427 225.473 C 110.797 225.473 111.1 225.35 111.336 225.107 C 111.58 224.885 111.78 224.587 111.935 224.214 C 112.209 223.443 112.345 222.593 112.345 221.663 C 112.345 220.594 112.209 219.694 111.935 218.962 C 111.646 218.229 111.144 217.857 110.427 217.842 C 110.02 217.842 109.702 217.948 109.473 218.162 C 109.236 218.383 109.048 218.673 108.908 219.031 C 108.789 219.39 108.707 219.797 108.662 220.254 C 108.603 220.704 108.575 221.175 108.575 221.663 Z  M 112.345 225.688 L 112.29 225.688 C 112.172 226.028 111.87 226.4 111.382 226.801 C 110.888 227.218 110.294 227.444 109.601 227.482 C 108.191 227.444 107.217 226.857 106.679 225.723 C 106.147 224.595 105.888 223.241 105.903 221.656 C 105.903 219.982 106.206 218.599 106.812 217.511 C 107.388 216.407 108.316 215.847 109.601 215.831 C 110.006 215.831 110.368 215.877 110.685 215.969 C 110.988 216.091 111.239 216.239 111.438 216.415 C 111.859 216.772 112.143 217.107 112.29 217.419 L 112.345 217.419 L 112.345 211.081 L 114.856 211.081 L 114.856 227.219 L 112.345 227.219 L 112.345 225.688 Z " fill="rgb(254,253,254)"/><path d=" M 123.95 219.406 C 123.966 219.017 123.854 218.599 123.617 218.154 C 123.476 217.954 123.284 217.791 123.039 217.659 C 122.787 217.537 122.454 217.475 122.039 217.475 C 121.308 217.491 120.778 217.728 120.452 218.188 C 120.139 218.625 119.968 219.032 119.936 219.406 L 123.95 219.406 Z  M 126.058 227.036 C 125.181 227.334 124.173 227.482 123.036 227.482 C 119.442 227.429 117.629 225.289 117.6 221.063 C 117.585 219.479 117.946 218.211 118.684 217.259 C 119.43 216.322 120.611 215.847 122.227 215.831 C 124.959 215.908 126.323 217.409 126.323 220.334 L 126.323 220.96 L 119.927 220.96 C 119.927 221.349 120.002 221.805 120.15 222.322 C 120.231 222.576 120.324 222.835 120.427 223.101 C 120.545 223.346 120.683 223.601 120.839 223.869 C 121.158 224.373 121.572 224.789 122.083 225.116 C 122.616 225.477 123.253 225.656 123.994 225.656 C 124.856 225.625 125.544 225.483 126.058 225.232 L 126.058 227.036 Z " fill="rgb(254,253,254)"/><path d=" M 138.728 225.279 L 139.797 225.279 C 140.242 225.279 140.683 225.24 141.121 225.164 C 141.543 225.103 141.933 224.979 142.289 224.788 C 142.638 224.584 142.916 224.294 143.124 223.922 C 143.323 223.565 143.425 223.096 143.425 222.519 C 143.409 221.462 143.09 220.718 142.468 220.284 C 141.814 219.858 140.924 219.646 139.797 219.646 L 138.728 219.646 L 138.728 225.279 Z  M 138.728 217.707 L 139.79 217.707 C 140.204 217.707 140.592 217.672 140.953 217.603 C 141.3 217.542 141.596 217.436 141.84 217.282 C 142.09 217.123 142.285 216.88 142.425 216.551 C 142.558 216.255 142.625 215.851 142.625 215.341 C 142.625 214.823 142.566 214.408 142.447 214.095 C 142.307 213.797 142.112 213.573 141.861 213.421 C 141.617 213.245 141.323 213.128 140.975 213.066 C 140.791 213.037 140.61 213.02 140.433 213.02 L 139.79 213.02 L 138.728 213.02 L 138.728 217.707 Z  M 136.08 211.081 L 140.887 211.081 C 141.322 211.081 141.797 211.119 142.312 211.194 C 142.821 211.271 143.303 211.448 143.759 211.731 C 144.209 211.983 144.586 212.367 144.888 212.885 C 145.175 213.395 145.319 214.057 145.319 214.873 C 145.319 215.512 145.234 216.048 145.065 216.482 C 144.888 216.917 144.656 217.274 144.369 217.557 C 143.78 218.09 143.228 218.431 142.713 218.584 L 142.713 218.631 C 143.07 218.668 143.444 218.755 143.838 218.893 C 144.231 219.045 144.594 219.278 144.929 219.59 C 145.277 219.886 145.567 220.294 145.798 220.811 C 146.013 221.306 146.12 221.954 146.12 222.753 C 146.105 223.736 145.946 224.516 145.644 225.095 C 145.325 225.703 144.901 226.154 144.369 226.443 C 143.852 226.738 143.291 226.945 142.685 227.059 C 142.063 227.166 141.469 227.219 140.901 227.219 L 136.08 227.219 L 136.08 211.081 Z " fill="rgb(254,253,254)"/><path d=" M 148.976 216.083 L 151.485 216.083 L 151.485 218.138 L 151.538 218.138 C 151.686 217.864 151.859 217.587 152.058 217.305 C 152.235 217.039 152.445 216.794 152.689 216.574 C 153.191 216.094 153.97 215.848 155.024 215.831 L 155.024 218.55 C 152.612 218.519 151.433 219.781 151.485 222.337 L 151.485 227.219 L 148.976 227.219 L 148.976 216.083 Z " fill="rgb(254,253,254)"/><path d=" M 159.139 224.318 C 159.139 225.211 159.586 225.656 160.483 225.656 C 160.89 225.656 161.246 225.546 161.549 225.323 C 161.823 225.126 162.053 224.86 162.239 224.525 C 162.417 224.181 162.554 223.823 162.65 223.45 C 162.708 223.062 162.738 222.681 162.738 222.307 C 161.872 222.307 161.076 222.447 160.349 222.73 C 160.001 222.883 159.72 223.091 159.506 223.357 C 159.261 223.626 159.139 223.945 159.139 224.318 Z  M 162.738 225.93 L 162.695 225.93 C 162.539 226.287 162.25 226.63 161.828 226.957 C 161.599 227.102 161.326 227.219 161.009 227.311 C 160.691 227.401 160.314 227.458 159.877 227.482 C 158.953 227.458 158.195 227.193 157.603 226.685 C 156.997 226.152 156.695 225.445 156.695 224.564 C 156.708 223.644 156.96 222.919 157.448 222.386 C 157.914 221.877 158.487 221.512 159.167 221.291 C 159.855 221.072 160.524 220.93 161.174 220.869 C 161.84 220.808 162.361 220.787 162.738 220.802 L 162.738 219.704 C 162.738 219.125 162.646 218.642 162.461 218.252 C 162.255 217.871 161.842 217.673 161.221 217.659 C 160.558 217.673 160.111 217.864 159.883 218.23 C 159.653 218.587 159.545 218.969 159.561 219.373 L 157.119 219.373 C 157.119 217.074 158.487 215.893 161.221 215.831 C 163.846 215.848 165.149 217.002 165.136 219.292 L 165.136 227.219 L 162.738 227.219 L 162.738 225.93 Z " fill="rgb(254,253,254)"/><path d=" M 174.075 218.448 C 173.927 218.356 173.64 218.208 173.212 218.001 C 172.776 217.818 172.263 217.72 171.672 217.703 C 171.265 217.703 170.897 217.787 170.565 217.955 C 170.181 218.146 169.989 218.405 169.989 218.732 C 169.989 218.885 170.067 219.048 170.222 219.224 C 170.355 219.406 170.536 219.577 170.765 219.736 C 171.221 220.049 171.758 220.398 172.37 220.788 C 172.989 221.162 173.537 221.614 174.01 222.147 C 174.474 222.672 174.715 223.335 174.729 224.135 C 174.715 225.269 174.338 226.105 173.6 226.636 C 172.862 227.2 171.879 227.481 170.655 227.481 C 169.931 227.459 169.34 227.403 168.882 227.311 C 168.416 227.205 168.055 227.114 167.797 227.038 L 167.797 224.798 C 167.974 224.858 168.176 224.927 168.407 225.003 C 168.62 225.103 168.837 225.182 169.059 225.244 C 169.545 225.396 170.04 225.473 170.542 225.473 C 170.903 225.473 171.295 225.412 171.714 225.289 C 172.151 225.167 172.379 224.893 172.401 224.467 C 172.379 224.139 172.143 223.803 171.693 223.459 C 171.243 223.132 170.708 222.774 170.089 222.385 C 169.815 222.179 169.534 221.962 169.247 221.733 C 168.974 221.497 168.724 221.245 168.494 220.978 C 168.015 220.452 167.767 219.827 167.752 219.102 C 167.752 218.044 168.106 217.232 168.815 216.666 C 169.51 216.111 170.446 215.831 171.628 215.831 C 172.174 215.847 172.657 215.894 173.078 215.969 C 173.485 216.076 173.816 216.17 174.075 216.254 L 174.075 218.448 Z " fill="rgb(254,253,254)"/><path d=" M 177.278 216.083 L 179.788 216.083 L 179.788 227.219 L 177.278 227.219 L 177.278 216.083 Z  M 177.278 211.081 L 179.788 211.081 L 179.788 213.638 L 177.278 213.638 L 177.278 211.081 Z " fill="rgb(254,253,254)"/><path d=" M 183.332 211.081 L 185.842 211.081 L 185.842 227.219 L 183.332 227.219 L 183.332 211.081 Z " fill="rgb(254,253,254)"/><path d=" M 194.96 219.406 C 194.976 219.017 194.864 218.599 194.627 218.154 C 194.486 217.954 194.292 217.791 194.048 217.659 C 193.797 217.537 193.463 217.475 193.048 217.475 C 192.317 217.491 191.788 217.728 191.461 218.188 C 191.149 218.625 190.977 219.032 190.946 219.406 L 194.96 219.406 Z  M 197.069 227.036 C 196.19 227.334 195.183 227.482 194.046 227.482 C 190.451 227.429 188.638 225.289 188.609 221.063 C 188.595 219.479 188.956 218.211 189.693 217.259 C 190.439 216.322 191.62 215.847 193.237 215.831 C 195.968 215.908 197.333 217.409 197.333 220.334 L 197.333 220.96 L 190.938 220.96 C 190.938 221.349 191.012 221.805 191.159 222.322 C 191.241 222.576 191.333 222.835 191.437 223.101 C 191.556 223.346 191.692 223.601 191.848 223.869 C 192.167 224.373 192.581 224.789 193.092 225.116 C 193.626 225.477 194.263 225.656 195.004 225.656 C 195.865 225.625 196.555 225.483 197.069 225.232 L 197.069 227.036 Z " fill="rgb(254,253,254)"/><path d=" M 200.213 216.083 L 202.725 216.083 L 202.725 227.219 L 200.213 227.219 L 200.213 216.083 Z  M 200.213 211.081 L 202.725 211.081 L 202.725 213.638 L 200.213 213.638 L 200.213 211.081 Z " fill="rgb(254,253,254)"/><path d=" M 206.108 216.083 L 208.617 216.083 L 208.617 218.138 L 208.67 218.138 C 208.818 217.864 208.992 217.587 209.191 217.305 C 209.368 217.039 209.578 216.794 209.82 216.574 C 210.324 216.094 211.102 215.848 212.157 215.831 L 212.157 218.55 C 209.745 218.519 208.566 219.781 208.617 222.337 L 208.617 227.219 L 206.108 227.219 L 206.108 216.083 Z " fill="rgb(254,253,254)"/><path d=" M 216.272 224.318 C 216.272 225.211 216.719 225.656 217.616 225.656 C 218.023 225.656 218.378 225.546 218.682 225.323 C 218.956 225.126 219.186 224.86 219.372 224.525 C 219.549 224.181 219.687 223.823 219.782 223.45 C 219.842 223.062 219.871 222.681 219.871 222.307 C 219.005 222.307 218.209 222.447 217.482 222.73 C 217.134 222.883 216.852 223.091 216.638 223.357 C 216.393 223.626 216.272 223.945 216.272 224.318 Z  M 219.871 225.93 L 219.827 225.93 C 219.671 226.287 219.383 226.63 218.961 226.957 C 218.732 227.102 218.459 227.219 218.142 227.311 C 217.823 227.401 217.446 227.458 217.009 227.482 C 216.086 227.458 215.328 227.193 214.737 226.685 C 214.129 226.152 213.827 225.445 213.827 224.564 C 213.841 223.644 214.093 222.919 214.581 222.386 C 215.047 221.877 215.62 221.512 216.3 221.291 C 216.988 221.072 217.657 220.93 218.307 220.869 C 218.973 220.808 219.494 220.787 219.871 220.802 L 219.871 219.704 C 219.871 219.125 219.778 218.642 219.594 218.252 C 219.387 217.871 218.975 217.673 218.354 217.659 C 217.689 217.673 217.244 217.864 217.015 218.23 C 216.786 218.587 216.678 218.969 216.694 219.373 L 214.251 219.373 C 214.251 217.074 215.619 215.893 218.354 215.831 C 220.978 215.848 222.283 217.002 222.268 219.292 L 222.268 227.219 L 219.871 227.219 L 219.871 225.93 Z " fill="rgb(254,253,254)"/><path d=" M 56.599 243.641 C 56.599 244.06 56.627 244.496 56.688 244.947 C 56.732 245.404 56.813 245.819 56.932 246.192 C 57.072 246.567 57.261 246.864 57.497 247.085 C 57.757 247.33 58.074 247.451 58.452 247.451 C 58.821 247.451 59.124 247.33 59.361 247.085 C 59.605 246.864 59.805 246.567 59.96 246.192 C 60.233 245.423 60.37 244.571 60.37 243.641 C 60.37 242.574 60.233 241.674 59.96 240.941 C 59.671 240.209 59.169 239.837 58.452 239.819 C 58.044 239.819 57.727 239.926 57.497 240.14 C 57.261 240.362 57.072 240.651 56.932 241.01 C 56.813 241.368 56.732 241.777 56.688 242.234 C 56.627 242.684 56.599 243.153 56.599 243.641 Z  M 60.37 247.667 L 60.315 247.667 C 60.196 248.009 59.894 248.379 59.407 248.779 C 58.912 249.196 58.319 249.424 57.625 249.462 C 56.216 249.422 55.242 248.837 54.703 247.701 C 54.171 246.575 53.914 245.219 53.928 243.636 C 53.928 241.961 54.231 240.578 54.837 239.489 C 55.412 238.386 56.341 237.826 57.625 237.811 C 58.031 237.811 58.393 237.857 58.71 237.947 C 59.012 238.069 59.264 238.219 59.462 238.393 C 59.883 238.751 60.167 239.085 60.315 239.397 L 60.37 239.397 L 60.37 233.059 L 62.881 233.059 L 62.881 249.199 L 60.37 249.199 L 60.37 247.667 Z " fill="rgb(254,253,254)"/><path d=" M 71.975 241.386 C 71.991 240.995 71.879 240.577 71.641 240.134 C 71.501 239.933 71.308 239.768 71.063 239.639 C 70.812 239.515 70.478 239.455 70.063 239.455 C 69.332 239.47 68.803 239.708 68.475 240.168 C 68.164 240.603 67.992 241.01 67.961 241.386 L 71.975 241.386 Z  M 74.084 249.016 C 73.205 249.312 72.197 249.462 71.061 249.462 C 67.467 249.407 65.654 247.267 65.624 243.041 C 65.61 241.458 65.971 240.191 66.709 239.237 C 67.454 238.303 68.636 237.826 70.252 237.811 C 72.983 237.887 74.348 239.387 74.348 242.314 L 74.348 242.94 L 67.953 242.94 C 67.953 243.329 68.027 243.783 68.174 244.302 C 68.255 244.554 68.348 244.813 68.452 245.081 C 68.571 245.325 68.708 245.58 68.863 245.849 C 69.183 246.351 69.596 246.768 70.107 247.096 C 70.641 247.455 71.278 247.634 72.019 247.634 C 72.881 247.605 73.569 247.463 74.084 247.212 L 74.084 249.016 Z " fill="rgb(254,253,254)"/><path d=" M 94.321 248.529 C 94.136 248.605 93.912 248.689 93.646 248.78 C 93.344 248.907 93.007 249.018 92.64 249.108 C 91.887 249.32 91.027 249.439 90.061 249.461 C 87.812 249.439 86.158 248.666 85.104 247.143 C 84.027 245.627 83.487 243.599 83.487 241.054 C 83.472 238.626 83.948 236.654 84.916 235.138 C 85.867 233.614 87.446 232.836 89.652 232.796 C 91.466 232.819 92.798 233.281 93.646 234.18 C 94.487 235.085 94.908 236.187 94.908 237.482 L 91.963 237.482 C 91.963 237.153 91.949 236.827 91.92 236.498 C 91.859 236.17 91.745 235.873 91.576 235.607 C 91.428 235.339 91.204 235.122 90.902 234.954 C 90.585 234.809 90.167 234.737 89.651 234.737 C 88.973 234.752 88.423 234.942 88.002 235.309 C 87.575 235.668 87.251 236.139 87.03 236.726 C 86.801 237.321 86.643 237.954 86.554 238.624 C 86.457 239.312 86.41 239.983 86.41 240.636 C 86.395 242.589 86.712 244.182 87.361 245.417 C 87.996 246.667 89.099 247.3 90.669 247.315 C 91.577 247.3 92.355 247.128 93.005 246.8 C 93.654 246.503 94.093 246.277 94.321 246.126 L 94.321 248.529 Z " fill="rgb(254,253,254)"/><path d=" M 99.055 243.641 C 99.055 244.15 99.084 244.642 99.143 245.114 C 99.187 245.578 99.277 246.003 99.41 246.392 C 99.565 246.764 99.788 247.06 100.078 247.28 C 100.352 247.517 100.708 247.634 101.144 247.634 C 101.597 247.634 101.969 247.517 102.258 247.28 C 102.532 247.06 102.74 246.764 102.88 246.392 C 103.029 246.003 103.133 245.578 103.192 245.114 C 103.222 244.642 103.237 244.15 103.237 243.641 C 103.252 242.546 103.134 241.611 102.88 240.835 C 102.74 240.463 102.532 240.166 102.258 239.944 C 101.969 239.74 101.597 239.637 101.144 239.637 C 100.708 239.637 100.352 239.74 100.078 239.944 C 99.788 240.166 99.565 240.463 99.41 240.835 C 99.157 241.611 99.038 242.546 99.055 243.641 Z  M 101.144 249.462 C 97.985 249.393 96.398 247.451 96.383 243.636 C 96.398 239.813 97.985 237.872 101.144 237.811 C 104.305 237.872 105.892 239.813 105.907 243.636 C 105.892 247.451 104.305 249.393 101.144 249.462 Z " fill="rgb(254,253,254)"/><path d=" M 108.557 238.063 L 111.072 238.063 L 111.072 239.775 L 111.117 239.775 C 111.208 239.585 111.322 239.373 111.459 239.135 C 111.603 238.922 111.794 238.713 112.029 238.508 C 112.258 238.286 112.537 238.114 112.864 237.993 C 113.191 237.871 113.584 237.811 114.041 237.811 C 114.742 237.811 115.339 237.982 115.834 238.325 C 116.336 238.699 116.672 239.266 116.84 240.027 L 116.896 240.027 C 117.063 239.561 117.407 239.078 117.924 238.575 C 118.434 238.08 119.135 237.826 120.026 237.811 C 120.872 237.811 121.587 238.097 122.175 238.668 C 122.737 239.261 123.025 240.198 123.042 241.477 L 123.042 249.198 L 120.529 249.198 L 120.529 242.828 C 120.529 241.722 120.455 240.998 120.307 240.654 C 120.135 240.358 119.815 240.216 119.348 240.23 C 118.965 240.23 118.63 240.354 118.341 240.597 C 118.061 240.863 117.824 241.212 117.627 241.638 C 117.245 242.507 117.055 243.418 117.055 244.371 L 117.055 249.198 L 114.544 249.198 L 114.544 242.828 C 114.544 241.722 114.47 240.998 114.322 240.654 C 114.15 240.358 113.831 240.216 113.362 240.23 C 112.98 240.23 112.644 240.354 112.357 240.597 C 112.068 240.863 111.831 241.212 111.643 241.638 C 111.26 242.507 111.07 243.418 111.07 244.371 L 111.07 249.198 L 108.557 249.198 L 108.557 238.063 Z " fill="rgb(254,253,254)"/><path d=" M 128.933 243.641 C 128.918 244.686 129.056 245.576 129.344 246.307 C 129.632 247.056 130.123 247.437 130.819 247.451 C 131.263 247.451 131.607 247.338 131.851 247.108 C 132.087 246.887 132.276 246.599 132.417 246.239 C 132.55 245.865 132.631 245.449 132.661 244.992 C 132.689 244.542 132.703 244.091 132.703 243.641 C 132.703 243.184 132.689 242.731 132.661 242.28 C 132.616 241.823 132.528 241.414 132.395 241.056 C 132.253 240.682 132.065 240.377 131.828 240.14 C 131.57 239.926 131.232 239.819 130.819 239.819 C 130.487 239.819 130.211 239.926 129.988 240.14 C 129.744 240.377 129.536 240.682 129.367 241.056 C 129.078 241.841 128.933 242.703 128.933 243.641 Z  M 126.424 238.062 L 128.933 238.062 L 128.933 239.604 L 128.989 239.604 C 129.137 239.246 129.454 238.866 129.941 238.462 C 130.406 238.043 130.978 237.826 131.657 237.811 C 133.081 237.84 134.063 238.416 134.601 239.535 C 135.132 240.663 135.391 242.029 135.376 243.636 C 135.376 245.288 135.087 246.659 134.512 247.747 C 133.907 248.851 132.955 249.422 131.657 249.462 C 131.281 249.462 130.941 249.396 130.638 249.268 C 130.351 249.177 130.092 249.044 129.863 248.87 C 129.442 248.515 129.152 248.182 128.989 247.872 L 128.933 247.872 L 128.933 254.201 L 126.424 254.201 L 126.424 238.062 Z " fill="rgb(254,253,254)"/><path d=" M 144.332 247.131 L 144.288 247.131 C 144.228 247.328 144.114 247.56 143.944 247.824 C 143.797 248.09 143.594 248.347 143.335 248.597 C 143.077 248.826 142.767 249.026 142.406 249.201 C 142.029 249.374 141.589 249.462 141.088 249.462 C 140.275 249.462 139.597 249.164 139.05 248.571 C 138.475 247.961 138.179 247.033 138.164 245.783 L 138.164 238.063 L 140.675 238.063 L 140.675 244.433 C 140.675 245.532 140.756 246.243 140.919 246.572 C 141.075 246.899 141.365 247.055 141.787 247.041 C 142.21 247.041 142.579 246.899 142.898 246.618 C 143.217 246.35 143.484 246.015 143.699 245.61 C 144.121 244.749 144.332 243.842 144.332 242.888 L 144.332 238.063 L 146.843 238.063 L 146.843 249.199 L 144.332 249.199 L 144.332 247.131 Z " fill="rgb(254,253,254)"/><path d=" M 156.697 249.268 C 156.018 249.396 155.329 249.461 154.627 249.461 C 153.935 249.461 153.371 249.373 152.936 249.199 C 152.494 249.046 152.156 248.829 151.918 248.548 C 151.705 248.25 151.554 247.915 151.466 247.541 C 151.37 247.183 151.322 246.798 151.322 246.388 L 151.322 239.866 L 149.218 239.866 L 149.218 238.063 L 151.322 238.063 L 151.322 235.424 L 153.833 233.859 L 153.833 238.063 L 157.029 238.063 L 157.029 239.866 L 153.833 239.866 L 153.833 245.132 C 153.817 245.817 153.914 246.393 154.121 246.858 C 154.232 247.093 154.399 247.273 154.621 247.395 C 154.85 247.555 155.154 247.634 155.531 247.634 C 155.945 247.634 156.334 247.569 156.697 247.44 L 156.697 249.268 Z " fill="rgb(254,253,254)"/><path d=" M 160.869 246.297 C 160.869 247.188 161.317 247.634 162.213 247.634 C 162.62 247.634 162.976 247.523 163.279 247.303 C 163.553 247.104 163.783 246.839 163.969 246.503 C 164.147 246.161 164.284 245.803 164.38 245.428 C 164.439 245.04 164.468 244.659 164.468 244.285 C 163.602 244.285 162.806 244.426 162.079 244.708 C 161.732 244.861 161.449 245.071 161.236 245.337 C 160.991 245.604 160.869 245.925 160.869 246.297 Z  M 164.468 247.908 L 164.425 247.908 C 164.269 248.267 163.98 248.609 163.559 248.936 C 163.329 249.081 163.056 249.199 162.739 249.289 C 162.421 249.381 162.044 249.438 161.607 249.462 C 160.683 249.438 159.925 249.172 159.334 248.663 C 158.727 248.131 158.425 247.423 158.425 246.542 C 158.438 245.623 158.69 244.897 159.178 244.364 C 159.644 243.855 160.217 243.492 160.896 243.269 C 161.585 243.05 162.254 242.91 162.904 242.848 C 163.57 242.788 164.091 242.765 164.468 242.78 L 164.468 241.684 C 164.468 241.103 164.377 240.62 164.191 240.232 C 163.985 239.851 163.572 239.652 162.952 239.637 C 162.288 239.652 161.841 239.842 161.612 240.209 C 161.383 240.567 161.276 240.949 161.291 241.351 L 158.849 241.351 C 158.849 239.052 160.217 237.871 162.952 237.811 C 165.576 237.826 166.88 238.98 166.865 241.271 L 166.865 249.199 L 164.468 249.199 L 164.468 247.908 Z " fill="rgb(254,253,254)"/><path d=" M 172.94 249.107 C 170.625 248.453 169.438 246.465 169.379 243.145 C 169.363 241.644 169.763 240.388 170.578 239.375 C 171.386 238.363 172.669 237.84 174.428 237.811 C 175.266 237.811 175.965 237.918 176.522 238.132 C 177.043 238.352 177.467 238.657 177.792 239.047 C 177.966 239.237 178.105 239.431 178.21 239.63 C 178.316 239.867 178.402 240.111 178.47 240.362 C 178.577 240.858 178.629 241.367 178.629 241.884 L 175.957 241.884 C 175.957 241.322 175.855 240.809 175.653 240.344 C 175.411 239.889 174.939 239.652 174.237 239.637 C 173.52 239.652 172.978 239.941 172.611 240.503 C 172.237 241.082 172.049 241.808 172.049 242.683 C 172.049 243.238 172.138 243.805 172.311 244.383 C 172.484 244.961 172.741 245.497 173.08 245.992 C 173.448 246.463 173.917 246.848 174.483 247.144 C 175.056 247.471 175.761 247.634 176.598 247.634 C 177.322 247.634 177.94 247.54 178.454 247.35 L 178.454 248.936 C 177.494 249.263 176.435 249.439 175.276 249.462 C 174.913 249.462 174.564 249.434 174.229 249.381 L 173.928 250.716 C 174.018 250.701 174.125 250.693 174.252 250.693 C 174.47 250.693 174.705 250.716 174.959 250.762 C 175.22 250.823 175.467 250.941 175.696 251.115 C 175.944 251.268 176.135 251.485 176.269 251.768 C 176.41 252.049 176.483 252.399 176.483 252.818 C 176.483 253.487 176.261 254.044 175.82 254.485 C 175.386 254.95 174.708 255.19 173.787 255.205 C 173.338 255.19 172.972 255.12 172.69 254.999 C 172.409 254.893 172.187 254.798 172.028 254.715 L 172.028 253.242 C 172.27 253.387 172.521 253.52 172.78 253.642 C 173.022 253.763 173.311 253.837 173.647 253.858 C 174.03 253.837 174.3 253.711 174.456 253.482 C 174.62 253.277 174.702 253.054 174.702 252.82 C 174.686 252.309 174.496 251.965 174.127 251.79 C 173.736 251.623 173.342 251.545 172.942 251.561 C 172.745 251.561 172.549 251.592 172.361 251.653 L 172.94 249.107 Z " fill="rgb(254,253,254)"/><path d=" M 182.502 246.297 C 182.502 247.188 182.949 247.634 183.846 247.634 C 184.252 247.634 184.609 247.523 184.913 247.303 C 185.187 247.104 185.416 246.839 185.602 246.503 C 185.78 246.161 185.917 245.803 186.013 245.428 C 186.072 245.04 186.101 244.659 186.101 244.285 C 185.235 244.285 184.439 244.426 183.712 244.708 C 183.365 244.861 183.083 245.071 182.869 245.337 C 182.624 245.604 182.502 245.925 182.502 246.297 Z  M 181.511 235.914 C 181.495 234.846 181.595 234.045 181.809 233.515 C 182.024 232.984 182.429 232.717 183.027 232.717 C 183.286 232.717 183.559 232.798 183.847 232.957 C 184.15 233.094 184.445 233.271 184.732 233.491 C 185.035 233.674 185.301 233.844 185.53 234.003 C 185.751 234.17 185.925 234.254 186.051 234.254 C 186.212 234.269 186.327 234.179 186.394 233.981 C 186.424 233.775 186.439 233.427 186.439 232.934 L 187.767 232.934 C 187.767 234.034 187.686 234.841 187.524 235.357 C 187.323 235.865 186.892 236.119 186.229 236.119 C 185.925 236.119 185.637 236.044 185.364 235.891 C 185.061 235.733 184.777 235.569 184.511 235.403 C 184.238 235.198 183.994 235.026 183.781 234.89 C 183.551 234.762 183.37 234.698 183.238 234.698 C 183.098 234.698 182.998 234.777 182.939 234.936 C 182.88 235.103 182.85 235.429 182.85 235.914 L 181.511 235.914 Z  M 186.101 247.908 L 186.058 247.908 C 185.902 248.267 185.613 248.609 185.193 248.936 C 184.963 249.081 184.688 249.199 184.372 249.289 C 184.054 249.381 183.676 249.438 183.24 249.462 C 182.316 249.438 181.558 249.172 180.967 248.663 C 180.36 248.131 180.058 247.423 180.058 246.542 C 180.071 245.623 180.323 244.897 180.811 244.364 C 181.277 243.855 181.85 243.492 182.531 243.269 C 183.218 243.05 183.887 242.91 184.538 242.848 C 185.204 242.788 185.723 242.765 186.101 242.78 L 186.101 241.684 C 186.101 241.103 186.009 240.62 185.824 240.232 C 185.618 239.851 185.205 239.652 184.585 239.637 C 183.921 239.652 183.475 239.842 183.246 240.209 C 183.016 240.567 182.909 240.949 182.925 241.351 L 180.482 241.351 C 180.482 239.052 181.85 237.871 184.585 237.811 C 187.209 237.826 188.514 238.98 188.498 241.271 L 188.498 249.199 L 186.101 249.199 L 186.101 247.908 Z " fill="rgb(254,253,254)"/><path d=" M 193.878 243.641 C 193.878 244.15 193.908 244.642 193.966 245.114 C 194.011 245.578 194.1 246.003 194.234 246.392 C 194.389 246.764 194.612 247.06 194.901 247.28 C 195.176 247.517 195.532 247.634 195.969 247.634 C 196.421 247.634 196.793 247.517 197.082 247.28 C 197.355 247.06 197.563 246.764 197.703 246.392 C 197.853 246.003 197.956 245.578 198.016 245.114 C 198.046 244.642 198.061 244.15 198.061 243.641 C 198.075 242.546 197.958 241.611 197.703 240.835 C 197.563 240.463 197.355 240.166 197.082 239.944 C 196.793 239.74 196.421 239.637 195.969 239.637 C 195.532 239.637 195.176 239.74 194.901 239.944 C 194.612 240.166 194.389 240.463 194.234 240.835 C 193.981 241.611 193.861 242.546 193.878 243.641 Z  M 195.969 249.462 C 192.808 249.393 191.222 247.451 191.207 243.636 C 191.222 239.813 192.808 237.872 195.969 237.811 C 199.129 237.872 200.716 239.813 200.731 243.636 C 200.716 247.451 199.129 249.393 195.969 249.462 Z " fill="rgb(254,253,254)"/><path d=" M 55.18 100.991 L 55.18 205.709 L 184.512 205.709 L 184.512 130.599 C 184.025 125.496 183.021 120.84 181.573 116.604 C 159.886 140.611 88.122 144.949 55.18 100.991 Z  M 81.844 169.28 C 78.856 167.704 76.173 166.116 73.908 164.591 C 72.892 163.811 72.074 162.979 71.434 162.064 C 70.834 161.346 70.544 160.552 70.544 159.639 C 70.544 157.709 71.144 156.368 72.402 155.522 C 73.598 154.65 75.192 154.207 77.124 154.207 C 79.529 154.254 81.738 154.613 83.685 155.274 C 85.688 155.955 87.507 156.668 89.097 157.394 L 90.226 157.91 L 90.226 148.104 L 89.631 147.947 C 88.702 147.701 87.144 147.408 85.011 147.073 C 82.804 146.709 80.25 146.525 77.419 146.525 C 72.542 146.525 68.401 147.604 65.11 149.734 C 61.626 152.004 59.835 155.588 59.787 160.405 C 59.835 164.13 61.163 167.193 63.717 169.497 C 66.078 171.737 68.85 173.695 71.95 175.316 C 74.936 176.912 77.6 178.601 79.878 180.34 C 82.049 181.94 83.125 183.937 83.168 186.428 C 83.168 187.965 82.649 189.332 81.591 190.597 C 80.432 191.937 78.34 192.64 75.398 192.683 C 72.498 192.638 69.878 192.04 67.591 190.896 C 65.316 189.841 63.406 188.821 61.918 187.868 L 60.688 187.079 L 60.688 198.058 L 61.313 198.198 C 62.166 198.389 63.852 198.782 66.373 199.377 C 68.91 199.961 71.825 200.293 75.034 200.365 L 75.052 200.365 C 80.662 200.365 85.225 199.07 88.609 196.519 C 92.064 193.94 93.851 190.125 93.926 185.155 C 93.851 181.19 92.549 177.897 90.052 175.371 C 87.694 172.985 84.934 170.937 81.844 169.28 Z  M 124.292 188.016 C 123.712 189.053 122.931 189.866 121.996 190.417 C 120.966 190.966 119.821 191.334 118.571 191.513 C 117.254 191.744 115.904 191.86 114.558 191.86 L 112.007 191.86 L 112.007 175.799 L 114.558 175.799 C 117.917 175.799 120.589 176.429 122.475 177.657 C 124.219 178.87 125.09 180.951 125.132 184.006 C 125.132 185.671 124.849 187.019 124.292 188.016 Z  M 112.007 155.031 L 116.553 155.031 C 117.058 155.031 117.587 155.075 118.116 155.162 C 119.079 155.331 119.903 155.659 120.615 156.168 C 121.27 156.566 121.77 157.146 122.122 157.882 C 122.457 158.765 122.626 159.983 122.626 161.504 C 122.626 162.982 122.439 164.151 122.066 164.986 C 121.692 165.859 121.177 166.508 120.537 166.915 C 119.864 167.337 119.025 167.639 118.036 167.812 C 116.955 168.016 115.778 168.12 114.539 168.12 L 112.007 168.12 L 112.007 155.031 Z  M 131.192 174.24 C 130.076 173.196 128.839 172.407 127.491 171.886 C 127.039 171.727 126.591 171.589 126.15 171.471 C 127.214 170.867 128.316 170.05 129.452 169.02 C 130.425 168.065 131.219 166.842 131.816 165.374 C 132.382 163.925 132.668 162.129 132.668 160.035 C 132.668 157.354 132.179 155.126 131.207 153.402 C 130.192 151.663 128.902 150.347 127.403 149.508 C 125.882 148.572 124.257 147.968 122.562 147.715 C 120.909 147.472 119.366 147.348 117.978 147.348 L 102.108 147.348 L 102.108 199.542 L 118.02 199.542 C 119.839 199.542 121.766 199.369 123.76 199.027 C 125.737 198.654 127.598 197.972 129.274 197.01 C 131.076 196.028 132.531 194.495 133.595 192.453 C 134.599 190.536 135.132 187.946 135.181 184.742 C 135.181 182.138 134.818 179.984 134.099 178.33 C 133.332 176.604 132.345 175.22 131.192 174.24 Z  M 178.607 162.81 L 178.607 162.011 C 178.607 157.763 177.204 154.098 174.434 151.11 C 171.632 148.142 167.226 146.6 161.316 146.525 C 154.146 146.649 148.926 149.245 145.809 154.235 C 142.707 159.094 141.16 165.481 141.208 173.212 C 141.208 181.317 142.962 187.893 146.414 192.753 C 149.864 197.731 155.309 200.292 162.604 200.365 L 162.617 200.365 L 162.631 200.365 C 165.714 200.293 168.501 199.912 170.884 199.238 C 172.08 198.945 173.181 198.584 174.109 198.186 C 174.949 197.899 175.677 197.63 176.271 197.386 L 176.766 197.183 L 176.766 187.615 L 175.524 188.445 C 174.847 188.897 173.496 189.587 171.479 190.512 C 169.563 191.48 167.217 191.993 164.528 192.039 C 159.884 191.995 156.722 190.191 154.856 186.516 C 152.892 182.778 151.919 177.866 151.965 171.905 C 151.965 169.892 152.115 167.807 152.409 165.7 C 152.679 163.666 153.165 161.725 153.856 159.926 C 154.498 158.225 155.446 156.84 156.685 155.802 C 157.852 154.787 159.419 154.25 161.327 154.207 C 162.822 154.207 164.028 154.412 164.859 154.787 C 165.679 155.243 166.269 155.809 166.688 156.56 C 167.16 157.305 167.485 158.15 167.641 158.999 C 167.731 159.996 167.777 161.009 167.777 162.011 L 167.777 162.81 L 178.607 162.81 Z " fill-rule="evenodd" fill="rgb(254,254,254)"/><path d=" M 85.101 20.797 L 55.18 20.797 C 55.18 20.797 55.175 48.893 55.18 63.196 C 57.105 35.2 85.101 20.797 85.101 20.797 Z " fill="rgb(254,253,254)"/><path d=" M 98.527 99.475 C 91.03 95.12 86.363 91.589 82.312 86.98 C 80.314 87.95 75.391 90.699 73.209 91.363 C 74.739 89.457 78.268 86.012 80.212 84.56 C 59.675 60.328 81.807 35.249 92.528 25.773 C 64.246 37.421 35.393 95.042 87.672 120.615 C 128.225 136.124 159.345 129.005 175.812 113.759 C 173.864 109.438 171.418 105.608 168.571 102.235 C 150.429 110.331 128.299 112.569 98.527 99.475 Z " fill="rgb(254,253,254)"/><path d=" M 201.371 77.839 C 199.217 80.965 195.244 85.017 189.726 89.052 C 191.343 91.224 192.638 93.43 193.654 95.643 C 199.396 86.739 201.608 79.146 201.371 77.839 Z " fill="rgb(254,253,254)"/></svg>