<?xml version="1.0" standalone="no"?><!-- Generator: Gravit.io --><svg xmlns="http://www.w3.org/2000/svg" xmlns:xlink="http://www.w3.org/1999/xlink" style="isolation:isolate" viewBox="0 0 256 256" width="256" height="256"><linearGradient id="_lgradient_2" x1="0%" y1="50%" x2="70.31418502375818%" y2="121.1049603364259%"><stop offset="0%" stop-opacity="1" style="stop-color:rgb(236,70,90)"/><stop offset="100%" stop-opacity="1" style="stop-color:rgb(156,45,96)"/></linearGradient><path d=" M 251.782 107.459 L 220.262 73.679 C 219.759 73.113 219.006 72.799 218.253 72.799 L 169.151 72.799 L 178.82 72.799 C 180.013 72.799 181.018 72.046 181.395 70.979 C 181.772 69.848 181.395 68.655 180.453 67.965 L 128.965 28.219 C 127.984 27.465 126.619 27.465 125.637 28.219 L 74.15 67.965 C 73.208 68.655 72.831 69.911 73.208 70.979 C 73.586 72.076 74.622 72.809 75.782 72.799 L 85.452 72.799 L 34.592 72.799 C 33.839 72.799 33.085 73.113 32.52 73.741 L 2.695 107.522 C 1.994 108.34 1.824 109.487 2.255 110.473 C 2.695 111.478 3.7 112.106 4.767 112.106 L 26.429 112.106 L 26.429 208.3 C 26.429 209.807 27.622 211 29.129 211 L 225.473 211 C 226.98 211 228.173 209.807 228.173 208.3 L 228.173 112.043 L 249.773 112.043 C 250.84 112.043 251.845 111.415 252.285 110.411 C 252.724 109.406 252.473 108.276 251.782 107.459 Z  M 85.515 205.537 L 31.892 205.537 L 31.892 112.043 L 85.515 112.043 L 85.515 205.537 L 85.515 205.537 Z  M 85.515 106.58 L 10.858 106.58 L 35.848 78.262 L 85.452 78.262 L 85.452 106.58 L 85.515 106.58 L 85.515 106.58 Z  M 145.542 205.537 L 108.998 205.537 L 108.998 196.307 L 145.542 196.307 L 145.542 205.537 L 145.542 205.537 Z  M 108.998 190.844 L 108.998 154.866 L 124.57 154.866 L 124.57 190.844 L 108.998 190.844 L 108.998 190.844 Z  M 145.542 190.844 L 130.033 190.844 L 130.033 154.866 L 145.605 154.866 L 145.542 190.844 L 145.542 190.844 Z  M 163.625 205.537 L 151.005 205.537 L 151.005 152.166 C 151.005 150.659 149.812 149.466 148.305 149.466 L 106.361 149.466 C 104.854 149.466 103.661 150.659 103.661 152.166 L 103.661 205.537 L 91.04 205.537 L 91.04 72.862 L 163.751 72.862 L 163.751 205.537 L 163.625 205.537 L 163.625 205.537 L 163.625 205.537 Z  M 88.215 67.4 L 83.757 67.4 L 127.27 33.807 L 170.783 67.4 L 88.215 67.4 L 88.215 67.4 Z  M 222.711 205.537 L 169.088 205.537 L 169.088 112.043 L 222.711 112.043 L 222.711 205.537 L 222.711 205.537 Z  M 225.473 106.58 L 169.088 106.58 L 169.088 78.262 L 216.997 78.262 L 243.431 106.58 L 225.473 106.58 L 225.473 106.58 Z  M 37.794 123.785 L 46.648 123.785 L 46.648 132.638 L 37.794 132.638 L 37.794 123.785 L 37.794 123.785 Z  M 54.245 123.785 L 63.099 123.785 L 63.099 132.638 L 54.245 132.638 L 54.245 123.785 L 54.245 123.785 Z  M 70.696 123.785 L 79.55 123.785 L 79.55 132.638 L 70.696 132.638 L 70.696 123.785 L 70.696 123.785 Z  M 37.794 147.708 L 46.648 147.708 L 46.648 156.561 L 37.794 156.561 L 37.794 147.708 L 37.794 147.708 Z  M 54.245 147.708 L 63.099 147.708 L 63.099 156.561 L 54.245 156.561 L 54.245 147.708 L 54.245 147.708 Z  M 70.696 147.708 L 79.55 147.708 L 79.55 156.561 L 70.696 156.561 L 70.696 147.708 L 70.696 147.708 Z  M 37.794 171.631 L 46.648 171.631 L 46.648 180.484 L 37.794 180.484 L 37.794 171.631 L 37.794 171.631 Z  M 54.245 171.631 L 63.099 171.631 L 63.099 180.484 L 54.245 180.484 L 54.245 171.631 L 54.245 171.631 Z  M 70.696 171.631 L 79.55 171.631 L 79.55 180.484 L 70.696 180.484 L 70.696 171.631 L 70.696 171.631 Z  M 174.99 123.785 L 183.844 123.785 L 183.844 132.638 L 174.99 132.638 L 174.99 123.785 L 174.99 123.785 Z  M 191.441 123.785 L 200.295 123.785 L 200.295 132.638 L 191.441 132.638 L 191.441 123.785 L 191.441 123.785 Z  M 207.955 123.785 L 216.808 123.785 L 216.808 132.638 L 207.955 132.638 L 207.955 123.785 L 207.955 123.785 Z  M 174.99 147.708 L 183.844 147.708 L 183.844 156.561 L 174.99 156.561 L 174.99 147.708 L 174.99 147.708 L 174.99 147.708 Z  M 191.441 147.708 L 200.295 147.708 L 200.295 156.561 L 191.441 156.561 L 191.441 147.708 L 191.441 147.708 L 191.441 147.708 Z  M 207.955 147.708 L 216.808 147.708 L 216.808 156.561 L 207.955 156.561 L 207.955 147.708 L 207.955 147.708 L 207.955 147.708 Z  M 174.99 171.631 L 183.844 171.631 L 183.844 180.484 L 174.99 180.484 L 174.99 171.631 L 174.99 171.631 Z  M 191.441 171.631 L 200.295 171.631 L 200.295 180.484 L 191.441 180.484 L 191.441 171.631 L 191.441 171.631 Z  M 207.955 171.631 L 216.808 171.631 L 216.808 180.484 L 207.955 180.484 L 207.955 171.631 L 207.955 171.631 Z  M 127.27 135.401 C 138.133 135.401 146.986 126.548 146.986 115.685 C 146.986 104.822 138.133 95.969 127.27 95.969 C 116.407 95.969 107.554 104.822 107.554 115.685 C 107.617 126.548 116.47 135.401 127.27 135.401 Z  M 127.27 101.432 C 135.119 101.432 141.523 107.836 141.523 115.685 C 141.523 123.534 135.119 129.938 127.27 129.938 C 119.421 129.938 113.017 123.534 113.017 115.685 C 113.079 107.836 119.421 101.432 127.27 101.432 Z " fill="url(#_lgradient_2)"/></svg>