<?xml version="1.0" standalone="no"?><!-- Generator: Gravit.io --><svg xmlns="http://www.w3.org/2000/svg" xmlns:xlink="http://www.w3.org/1999/xlink" style="isolation:isolate" viewBox="0 0 512 150" width="512" height="150"><defs><clipPath id="_clipPath_DRjSnD1q262LFEdGYZ2jFXXD1N5Ctnaa"><rect width="512" height="150"/></clipPath></defs><g clip-path="url(#_clipPath_DRjSnD1q262LFEdGYZ2jFXXD1N5Ctnaa)"><g id="Group"><g id="Layer 1"><path d=" M 410.793 14.768 C 397.569 14.847 385.584 19.443 375.883 26.985 C 372.908 24.041 368.013 20.071 362.965 19.749 C 361.224 19.762 358.261 19.605 354.259 19.628 C 347.473 19.669 340.734 19.554 338.824 19.966 C 337.44 20.265 330.778 22.552 326.97 25.706 L 312.177 25.795 C 308.35 25.817 302.973 29.156 294.484 35.471 C 294.137 35.649 293.789 35.997 293.441 36.172 C 292.918 35.655 292.568 35.136 292.041 34.616 C 289.235 31.497 285.906 27.517 281.725 26.669 L 279.799 26.506 L 228.469 26.809 C 225.493 24.217 221.038 18.999 213.455 18.719 C 212.932 18.7 207.708 18.578 205.447 18.591 C 192.044 18.671 184.614 21.391 175.579 29.909 C 174.017 30.505 168.777 29.561 166.644 29.306 C 159.452 28.949 141.333 26.927 136.16 30.419 C 133.519 32.202 124.233 39.543 117.715 45.608 C 116.953 46.316 115.884 46.205 115.629 45.621 C 114.36 37.275 108.55 25.473 92.885 25.565 C 86.096 25.607 81.239 28.247 78.984 29.826 C 78.289 29.657 75.441 29.313 73.311 29.459 C 66.643 29.918 52.305 34.246 48.032 54.64 C 48.032 54.64 47.519 57.927 47.719 62.408 C 47.825 64.672 48.096 73.997 48.096 73.997 C 46.54 76.271 43.784 80.812 43.654 88.121 C 43.516 94.387 43.717 99.26 43.74 102.915 C 43.749 104.308 43.756 105.526 43.762 106.569 C 43.832 118.231 55.909 130.442 67.919 130.369 C 67.919 130.369 68.448 130.429 69.236 130.366 C 72.619 130.072 79.217 127.77 85.283 123.034 C 86.664 121.982 88.229 121.449 89.971 121.44 C 91.536 121.427 91.938 122.948 94.416 122.836 C 95.57 122.785 96.76 121.573 96.76 121.573 C 101.301 124.504 111.257 130.362 121.003 130.305 C 129.702 130.254 136.125 126.733 139.939 124.622 C 140.806 124.096 141.849 123.567 142.369 123.391 C 146.719 123.362 159.248 123.114 164.807 120.821 C 165.154 120.993 165.677 121.337 166.204 121.679 C 168.997 123.407 173.889 126.507 182.939 126.453 C 183.115 126.453 183.462 126.449 183.982 126.449 C 187.812 126.424 200.335 125.132 208.257 110.989 C 212.269 112.533 216.449 112.855 217.145 112.852 L 224.626 112.807 C 226.737 116.452 231.82 122.508 240.176 122.46 L 268.468 122.291 C 268.468 122.291 269.836 122.17 271.016 121.669 C 272.509 121.041 274.272 120.167 275.312 119.293 C 278.281 121.363 282.825 124.817 287.873 124.791 C 287.873 124.791 303.729 124.769 305.279 124.689 C 306.829 124.603 310.142 123.091 312.052 122.036 C 312.572 122.033 313.618 122.026 315.707 122.017 C 318.491 121.998 321.973 121.975 323.887 122.138 C 326.339 124.734 331.413 129.402 336.809 129.371 C 343.072 129.332 350.333 128.494 356.367 127.406 C 361.762 126.433 371.939 125.161 377.296 118.515 C 386.911 125.592 398.599 129.702 411.473 129.626 C 443.146 129.441 468.578 103.706 468.393 72.029 C 468.029 40.012 442.294 14.579 410.793 14.768 Z " fill="rgb(41,164,217)"/><path d=" M 355.745 119.035 C 348.011 120.355 340.415 121.175 336.589 121.2 C 334.497 121.21 330.651 117.928 328.721 115.502 C 328.721 115.502 328.093 114.57 327.366 114.315 C 326.562 114.035 325.58 114.127 325.58 114.127 C 325.405 114.127 319.837 113.987 315.312 114.012 C 311.482 114.035 310.263 114.216 309.571 114.395 C 309.571 114.395 309.138 114.465 308.009 115.103 C 306.877 115.734 305.375 116.682 303.665 116.867 L 287.484 116.962 C 284.873 116.978 281.374 114.389 279.448 112.832 C 277.525 111.276 276.131 110.409 274.39 110.425 C 272.687 110.444 271.233 112.169 270.544 112.724 C 269.907 113.247 268.267 114.561 267.438 114.669 L 239.955 114.806 C 233.861 114.845 230.688 107.555 230.688 107.555 L 229.63 105.125 L 217.448 105.198 C 216.054 105.029 212.224 104.531 209.781 103.326 C 208.732 102.809 207.686 102.644 206.991 102.647 C 204.902 102.66 202.995 103.715 202.306 105.287 C 196.636 117.68 186.725 118.78 183.938 118.796 C 183.593 118.799 183.418 118.799 183.418 118.799 L 183.07 118.802 C 176.109 118.844 172.964 116.946 170.518 115.221 C 168.771 114.188 167.023 112.979 164.759 112.992 C 164.064 112.995 163.541 112.998 162.846 113.177 L 162.326 113.355 L 161.981 113.531 C 159.896 114.762 149.981 115.518 142.149 115.562 C 140.236 115.575 138.498 116.455 136.071 117.861 C 132.429 119.797 127.572 122.61 120.958 122.651 C 111.04 122.712 99.327 114.076 99.324 113.901 L 97.053 112.175 C 97.053 112.175 95.082 114.36 93.759 114.459 C 92.436 114.558 91.495 114.124 89.929 114.134 C 86.447 114.149 83.149 115.393 80.375 117.495 C 76.392 120.652 71.069 123.075 68.225 123.136 C 60.568 122.836 51.814 114.357 51.773 107.223 C 51.766 106.177 51.76 104.959 51.747 103.393 C 51.728 99.738 51.524 94.869 51.664 88.95 C 51.798 82.336 54.738 79.185 54.914 79.182 L 56.122 77.958 C 56.122 77.958 55.533 64.455 55.657 60.989 C 56.142 47.27 69.105 38.274 76.082 38.551 C 77.82 38.618 78.866 38.88 78.866 38.88 L 81.131 39.39 L 82.862 37.811 C 83.038 37.636 86.673 34.485 93.112 34.447 C 107.035 34.364 107.813 48.281 107.995 49.85 L 108.014 52.634 L 110.202 53.479 C 110.549 53.651 113.942 54.684 116.902 54.668 C 120.904 54.643 122.447 52.605 124.3 51.266 C 127.349 48.584 136.377 40.037 139.936 38.388 C 142.972 36.982 167.623 38.14 170.238 38.647 C 171.979 38.985 173.372 39.323 174.766 39.316 C 177.202 39.3 179.113 38.42 181.192 36.842 L 181.536 36.491 C 186.374 30.719 194.366 27.887 205.505 27.82 C 207.594 27.811 212.313 28.088 212.836 28.107 C 216.299 28.219 220.506 31.819 223.819 35.021 L 225.044 36.233 C 225.044 36.233 275.746 36.003 277.72 35.71 C 281.444 35.155 284.066 39.54 285.644 41.268 C 288.272 44.212 290.198 46.463 292.982 46.447 C 293.853 46.441 294.548 46.262 295.243 45.911 C 295.935 45.557 296.978 44.859 298.882 43.453 C 301.484 41.523 309.453 35.56 311.718 35.372 L 329.99 35.263 L 331.202 33.863 C 332.586 32.288 336.541 30.183 339.701 29.462 C 343.187 28.665 360.586 29.166 362.152 29.328 C 364.068 29.491 382.558 42.132 381.002 44.285 C 377.832 48.679 381.301 94.878 378.699 105.013 C 378.004 107.724 375.367 111.598 370.963 114.216 C 368.191 117.189 361.983 117.957 355.745 119.035 Z " fill="rgb(255,255,255)"/><path d=" M 97.028 49.349 L 96.119 72.501 C 96.119 72.501 95.959 74.938 93.175 74.953 C 90.391 74.969 89.164 73.413 89.151 71.149 C 88.963 68.888 89.617 62.095 83.159 58.827 C 77.399 55.902 76.035 60.785 75.697 62.351 C 75.531 63.572 75.403 71.752 75.585 72.795 C 75.945 75.056 77.696 76.436 81.357 77.46 C 83.098 77.97 100.52 80.48 100.587 91.791 C 100.663 104.672 90.589 108.208 84.323 108.247 C 80.145 108.272 73.343 105.53 72.294 104.49 C 72.294 104.49 72.332 111.276 72.339 112.147 C 72.345 113.014 71.309 114.242 69.567 114.252 C 67.826 114.264 65.906 113.231 65.897 111.837 C 65.89 110.444 65.76 88.864 65.76 88.864 C 65.76 88.864 65.737 84.865 69.567 85.012 C 72.874 85.168 72.562 91.262 72.578 93.698 C 72.59 96.135 75.929 101.336 83.239 101.291 C 90.548 101.247 93.657 97.401 93.628 92.7 C 93.6 88.003 90.988 87.324 89.071 86.81 C 87.155 86.3 81.749 84.766 77.218 83.749 C 73.732 82.9 69.72 81.532 69.344 76.66 C 68.974 73.356 68.923 64.481 69.258 62.217 C 69.417 60.125 69.714 50.899 79.112 50.845 C 88.507 50.79 90.277 55.998 90.277 55.998 L 90.238 49.212 C 90.238 49.212 90.398 46.772 93.705 46.756 C 97.012 46.734 97.028 49.349 97.028 49.349 Z " fill="rgb(249,167,56)"/><path d=" M 97.028 49.349 L 96.119 72.501 C 96.119 72.501 95.959 74.938 93.175 74.953 C 90.391 74.969 89.164 73.413 89.151 71.149 C 88.963 68.888 89.617 62.095 83.159 58.827 C 77.399 55.902 76.035 60.785 75.697 62.351 C 75.531 63.572 75.403 71.752 75.585 72.795 C 75.945 75.056 77.696 76.436 81.357 77.46 C 83.098 77.97 100.52 80.48 100.587 91.791 C 100.663 104.672 90.589 108.208 84.323 108.247 C 80.145 108.272 73.343 105.53 72.294 104.49 C 72.294 104.49 72.332 111.276 72.339 112.147 C 72.345 113.014 71.309 114.242 69.567 114.252 C 67.826 114.264 65.906 113.231 65.897 111.837 C 65.89 110.444 65.76 88.864 65.76 88.864 C 65.76 88.864 65.737 84.865 69.567 85.012 C 72.874 85.168 72.562 91.262 72.578 93.698 C 72.59 96.135 75.929 101.336 83.239 101.291 C 90.548 101.247 93.657 97.401 93.628 92.7 C 93.6 88.003 90.988 87.324 89.071 86.81 C 87.155 86.3 81.749 84.766 77.218 83.749 C 73.732 82.9 69.72 81.532 69.344 76.66 C 68.974 73.356 68.923 64.481 69.258 62.217 C 69.417 60.125 69.714 50.899 79.112 50.845 C 88.507 50.79 90.277 55.998 90.277 55.998 L 90.238 49.212 C 90.238 49.212 90.398 46.772 93.705 46.756 C 97.012 46.734 97.028 49.349 97.028 49.349 Z " fill="none" vector-effect="non-scaling-stroke" stroke-width="0.561" stroke="rgb(249,167,56)" stroke-opacity="100" stroke-linejoin="miter" stroke-linecap="butt" stroke-miterlimit="10"/><path d=" M 135.988 74.702 C 135.972 72.09 135.902 60.603 135.902 60.603 C 135.902 60.603 135.538 57.647 132.579 57.663 C 129.795 57.682 129.291 60.989 129.291 60.989 L 129.329 67.255 C 129.329 67.255 127.036 62.223 118.161 62.277 C 109.286 62.328 104.799 68.796 104.841 75.757 C 104.879 82.716 104.943 92.984 104.959 95.596 C 104.981 99.426 107.654 110.026 120.881 109.946 C 134.282 109.867 138.753 100.966 138.727 96.616 C 138.702 92.263 138.692 90.698 138.682 89.479 C 138.676 88.261 138.316 86 135.184 86.019 C 132.4 86.035 132.419 89.342 132.419 89.342 L 132.458 95.605 C 132.458 95.605 132.505 103.785 121.714 103.849 C 110.922 103.913 111.05 96.081 111.037 93.82 C 111.024 91.731 110.935 76.414 110.935 76.414 C 110.935 76.414 111.413 69.277 118.55 69.236 C 125.684 69.194 127.626 73.879 129.208 76.309 C 129.734 77.001 130.267 78.563 132.528 78.551 C 134.967 78.535 136.004 77.31 135.988 74.702 Z " fill="rgb(249,167,56)"/><path d=" M 135.988 74.702 C 135.972 72.09 135.902 60.603 135.902 60.603 C 135.902 60.603 135.538 57.647 132.579 57.663 C 129.795 57.682 129.291 60.989 129.291 60.989 L 129.329 67.255 C 129.329 67.255 127.036 62.223 118.161 62.277 C 109.286 62.328 104.799 68.796 104.841 75.757 C 104.879 82.716 104.943 92.984 104.959 95.596 C 104.981 99.426 107.654 110.026 120.881 109.946 C 134.282 109.867 138.753 100.966 138.727 96.616 C 138.702 92.263 138.692 90.698 138.682 89.479 C 138.676 88.261 138.316 86 135.184 86.019 C 132.4 86.035 132.419 89.342 132.419 89.342 L 132.458 95.605 C 132.458 95.605 132.505 103.785 121.714 103.849 C 110.922 103.913 111.05 96.081 111.037 93.82 C 111.024 91.731 110.935 76.414 110.935 76.414 C 110.935 76.414 111.413 69.277 118.55 69.236 C 125.684 69.194 127.626 73.879 129.208 76.309 C 129.734 77.001 130.267 78.563 132.528 78.551 C 134.967 78.535 136.004 77.31 135.988 74.702 Z " fill="none" vector-effect="non-scaling-stroke" stroke-width="0.561" stroke="rgb(249,167,56)" stroke-opacity="100" stroke-linejoin="miter" stroke-linecap="butt" stroke-miterlimit="10"/><path d=" M 308.962 70.715 C 308.946 68.107 308.879 56.62 308.879 56.62 C 308.879 56.62 308.513 53.664 305.556 53.68 C 302.769 53.699 302.269 57.006 302.269 57.006 L 302.307 63.275 C 302.307 63.275 300.014 58.24 291.136 58.291 C 282.261 58.345 277.774 64.809 277.815 71.771 C 277.857 78.732 277.917 89.004 277.933 91.61 C 277.956 95.44 280.631 106.04 293.859 105.963 C 307.084 105.884 311.727 96.98 311.705 92.63 C 311.676 88.28 311.67 86.715 311.663 85.493 C 311.654 84.275 311.293 82.014 308.162 82.033 C 305.378 82.049 305.394 85.356 305.394 85.356 L 305.432 91.622 C 305.432 91.622 305.48 99.802 294.688 99.866 C 283.9 99.93 284.027 92.098 284.015 89.833 C 284.002 87.572 283.913 72.431 283.913 72.431 C 283.913 72.431 284.391 65.294 291.528 65.249 C 298.49 65.208 300.604 69.896 302.186 72.323 C 302.712 73.015 303.241 74.577 305.505 74.564 C 307.939 74.379 308.978 73.327 308.962 70.715 Z " fill="rgb(249,167,56)"/><path d=" M 308.962 70.715 C 308.946 68.107 308.879 56.62 308.879 56.62 C 308.879 56.62 308.513 53.664 305.556 53.68 C 302.769 53.699 302.269 57.006 302.269 57.006 L 302.307 63.275 C 302.307 63.275 300.014 58.24 291.136 58.291 C 282.261 58.345 277.774 64.809 277.815 71.771 C 277.857 78.732 277.917 89.004 277.933 91.61 C 277.956 95.44 280.631 106.04 293.859 105.963 C 307.084 105.884 311.727 96.98 311.705 92.63 C 311.676 88.28 311.67 86.715 311.663 85.493 C 311.654 84.275 311.293 82.014 308.162 82.033 C 305.378 82.049 305.394 85.356 305.394 85.356 L 305.432 91.622 C 305.432 91.622 305.48 99.802 294.688 99.866 C 283.9 99.93 284.027 92.098 284.015 89.833 C 284.002 87.572 283.913 72.431 283.913 72.431 C 283.913 72.431 284.391 65.294 291.528 65.249 C 298.49 65.208 300.604 69.896 302.186 72.323 C 302.712 73.015 303.241 74.577 305.505 74.564 C 307.939 74.379 308.978 73.327 308.962 70.715 Z " fill="none" vector-effect="non-scaling-stroke" stroke-width="0.561" stroke="rgb(249,167,56)" stroke-opacity="100" stroke-linejoin="miter" stroke-linecap="butt" stroke-miterlimit="10"/><path d=" M 189.005 92.659 C 187.959 92.668 185.522 92.334 185.538 95.118 C 185.554 97.902 184.518 99.301 181.555 98.973 C 177.03 98.476 177.311 87.512 177.266 79.676 C 177.218 71.844 170.604 71.538 173.213 71.519 C 175.825 71.506 181.01 65.383 180.621 58.422 C 180.037 48.156 165.247 48.769 165.247 48.769 L 143.667 48.896 C 143.667 48.896 140.012 48.919 140.028 52.05 C 140.047 55.182 143.708 55.335 143.708 55.335 L 148.578 55.306 L 148.667 70.447 C 141.533 70.492 143.316 78.136 147.666 77.588 C 148.189 77.584 148.536 77.584 149.059 77.578 L 149.168 96.026 C 146.384 96.39 144.298 96.578 143.775 96.753 C 142.385 96.938 141.345 97.64 141.712 100.772 C 142.079 104.075 145.207 103.361 145.207 103.361 C 145.207 103.361 160.862 101.875 163.471 101.339 C 166.076 100.628 165.17 94.365 162.039 94.732 C 160.999 94.913 158.563 95.102 155.779 95.465 L 155.667 76.845 C 159.666 76.127 164.013 75.228 166.449 75.215 C 168.362 75.202 169.239 76.417 169.593 77.285 C 171.357 81.105 171.239 90.503 171.261 94.158 C 171.462 98.68 173.248 106.678 182.298 106.623 C 191.349 106.569 192.172 98.386 192.152 95.774 C 192.14 93.166 190.048 92.652 189.005 92.659 Z  M 155.626 69.886 L 155.54 55.265 C 155.54 55.265 173.283 53.418 173.318 59.685 C 173.366 67.868 155.626 69.886 155.626 69.886 Z " fill="rgb(249,167,56)"/><path d=" M 189.005 92.659 C 187.959 92.668 185.522 92.334 185.538 95.118 C 185.554 97.902 184.518 99.301 181.555 98.973 C 177.03 98.476 177.311 87.512 177.266 79.676 C 177.218 71.844 170.604 71.538 173.213 71.519 C 175.825 71.506 181.01 65.383 180.621 58.422 C 180.037 48.156 165.247 48.769 165.247 48.769 L 143.667 48.896 C 143.667 48.896 140.012 48.919 140.028 52.05 C 140.047 55.182 143.708 55.335 143.708 55.335 L 148.578 55.306 L 148.667 70.447 C 141.533 70.492 143.316 78.136 147.666 77.588 C 148.189 77.584 148.536 77.584 149.059 77.578 L 149.168 96.026 C 146.384 96.39 144.298 96.578 143.775 96.753 C 142.385 96.938 141.345 97.64 141.712 100.772 C 142.079 104.075 145.207 103.361 145.207 103.361 C 145.207 103.361 160.862 101.875 163.471 101.339 C 166.076 100.628 165.17 94.365 162.039 94.732 C 160.999 94.913 158.563 95.102 155.779 95.465 L 155.667 76.845 C 159.666 76.127 164.013 75.228 166.449 75.215 C 168.362 75.202 169.239 76.417 169.593 77.285 C 171.357 81.105 171.239 90.503 171.261 94.158 C 171.462 98.68 173.248 106.678 182.298 106.623 C 191.349 106.569 192.172 98.386 192.152 95.774 C 192.14 93.166 190.048 92.652 189.005 92.659 Z  M 155.626 69.886 L 155.54 55.265 C 155.54 55.265 173.283 53.418 173.318 59.685 C 173.366 67.868 155.626 69.886 155.626 69.886 Z " fill="none" vector-effect="non-scaling-stroke" stroke-width="0.561" stroke="rgb(249,167,56)" stroke-opacity="100" stroke-linejoin="miter" stroke-linecap="butt" stroke-miterlimit="10"/><path d=" M 239.401 80.177 C 238.345 78.095 236.948 77.409 236.081 77.76 C 235.733 77.938 232.783 79.348 229.311 80.933 L 211.854 42.572 C 211.841 40.139 210.964 38.924 210.094 38.931 C 209.223 38.937 191.993 39.039 191.993 39.039 C 191.993 39.039 189.907 39.396 189.926 42.703 C 189.946 46.013 191.515 46.351 191.515 46.351 C 191.515 46.351 198.301 46.31 203.697 46.278 L 196.78 83.216 C 191.384 83.248 185.293 83.286 185.293 83.286 C 185.293 83.286 183.035 83.647 183.051 86.778 C 183.073 90.085 184.815 90.248 184.815 90.248 C 184.815 90.248 205.176 90.13 205.699 90.127 C 206.394 90.124 207.259 88.899 207.243 86.635 C 207.23 84.374 206.181 83.162 205.307 83.168 C 205.135 83.168 204.264 83.172 203.218 83.181 L 204.239 78.997 L 218.841 76.299 L 222.544 84.112 C 219.941 85.343 217.859 86.402 217.859 86.402 C 217.859 86.402 215.952 87.63 217.361 90.58 C 218.771 93.529 220.509 92.997 220.509 92.997 C 220.509 92.997 238.903 84.361 239.426 84.01 C 240.118 83.832 240.456 82.263 239.401 80.177 Z  M 205.938 72.546 L 209.676 56.862 L 216.727 71.611 L 205.938 72.546 Z " fill="rgb(249,167,56)"/><path d=" M 239.401 80.177 C 238.345 78.095 236.948 77.409 236.081 77.76 C 235.733 77.938 232.783 79.348 229.311 80.933 L 211.854 42.572 C 211.841 40.139 210.964 38.924 210.094 38.931 C 209.223 38.937 191.993 39.039 191.993 39.039 C 191.993 39.039 189.907 39.396 189.926 42.703 C 189.946 46.013 191.515 46.351 191.515 46.351 C 191.515 46.351 198.301 46.31 203.697 46.278 L 196.78 83.216 C 191.384 83.248 185.293 83.286 185.293 83.286 C 185.293 83.286 183.035 83.647 183.051 86.778 C 183.073 90.085 184.815 90.248 184.815 90.248 C 184.815 90.248 205.176 90.13 205.699 90.127 C 206.394 90.124 207.259 88.899 207.243 86.635 C 207.23 84.374 206.181 83.162 205.307 83.168 C 205.135 83.168 204.264 83.172 203.218 83.181 L 204.239 78.997 L 218.841 76.299 L 222.544 84.112 C 219.941 85.343 217.859 86.402 217.859 86.402 C 217.859 86.402 215.952 87.63 217.361 90.58 C 218.771 93.529 220.509 92.997 220.509 92.997 C 220.509 92.997 238.903 84.361 239.426 84.01 C 240.118 83.832 240.456 82.263 239.401 80.177 Z  M 205.938 72.546 L 209.676 56.862 L 216.727 71.611 L 205.938 72.546 Z " fill="none" vector-effect="non-scaling-stroke" stroke-width="0.561" stroke="rgb(249,167,56)" stroke-opacity="100" stroke-linejoin="miter" stroke-linecap="butt" stroke-miterlimit="10"/><path d=" M 273.832 45.691 L 231.546 46.811 C 227.892 46.833 228.788 51.18 228.788 51.18 C 228.788 51.18 230.787 65.438 231.32 67.348 C 231.852 69.258 232.901 70.122 235.861 69.759 C 238.817 69.392 238.103 66.611 238.103 66.611 L 236.633 53.393 L 249.857 52.793 L 250.112 95.781 L 243.671 95.819 C 241.757 95.829 240.201 97.404 240.211 99.317 C 240.223 101.234 241.799 102.793 243.715 102.781 L 263.379 102.663 C 265.295 102.653 266.852 101.078 266.839 99.161 C 266.829 97.245 265.254 95.688 263.337 95.701 L 257.769 95.733 L 256.991 52.576 L 269.868 52.152 C 269.868 52.152 269.916 59.984 269.926 61.55 C 269.932 63.116 271.852 63.798 273.593 63.792 C 275.682 63.779 276.894 62.727 277.063 61.856 C 277.059 61.158 277.2 55.762 277.165 50.194 C 277.136 45.321 273.832 45.691 273.832 45.691 Z " fill="rgb(249,167,56)"/><path d=" M 273.832 45.691 L 231.546 46.811 C 227.892 46.833 228.788 51.18 228.788 51.18 C 228.788 51.18 230.787 65.438 231.32 67.348 C 231.852 69.258 232.901 70.122 235.861 69.759 C 238.817 69.392 238.103 66.611 238.103 66.611 L 236.633 53.393 L 249.857 52.793 L 250.112 95.781 L 243.671 95.819 C 241.757 95.829 240.201 97.404 240.211 99.317 C 240.223 101.234 241.799 102.793 243.715 102.781 L 263.379 102.663 C 265.295 102.653 266.852 101.078 266.839 99.161 C 266.829 97.245 265.254 95.688 263.337 95.701 L 257.769 95.733 L 256.991 52.576 L 269.868 52.152 C 269.868 52.152 269.916 59.984 269.926 61.55 C 269.932 63.116 271.852 63.798 273.593 63.792 C 275.682 63.779 276.894 62.727 277.063 61.856 C 277.059 61.158 277.2 55.762 277.165 50.194 C 277.136 45.321 273.832 45.691 273.832 45.691 Z " fill="none" vector-effect="non-scaling-stroke" stroke-width="0.561" stroke="rgb(249,167,56)" stroke-opacity="100" stroke-linejoin="miter" stroke-linecap="butt" stroke-miterlimit="10"/><path d=" M 358.912 99.659 L 354.912 100.204 L 353.895 46.259 L 359.116 46.227 C 360.681 46.217 361.89 44.817 361.88 42.904 C 361.871 41.163 360.64 39.607 359.074 39.616 L 341.844 39.718 C 340.278 39.728 339.07 41.125 339.082 43.041 C 339.089 44.779 340.32 46.339 341.885 46.332 L 347.278 46.297 L 347.412 68.748 L 327.768 72.692 L 327.822 52.155 L 333.39 52.12 C 334.959 52.111 336.168 50.886 336.158 49.32 C 336.148 47.755 334.924 46.543 333.358 46.552 L 316.125 46.654 C 314.559 46.664 313.35 47.888 313.357 49.457 C 313.369 51.023 314.594 52.232 316.16 52.222 L 321.205 52.194 L 321.466 96.224 L 315.895 96.256 C 314.332 96.269 313.121 97.841 313.133 99.582 C 313.143 101.323 314.546 102.88 316.109 102.695 L 333.687 102.417 C 335.256 102.408 336.461 100.835 336.455 99.094 C 336.442 97.356 335.039 95.797 333.476 95.979 L 327.557 96.017 L 327.634 79.654 L 347.278 75.712 L 347.431 101.119 L 341.171 102.025 C 339.602 102.21 338.569 103.782 338.754 105.695 C 338.936 107.433 340.511 108.645 342.077 108.46 L 359.466 106.094 C 361.032 105.912 362.065 104.337 361.88 102.424 C 361.874 100.689 360.477 99.477 358.912 99.659 Z " fill="rgb(249,167,56)"/><path d=" M 358.912 99.659 L 354.912 100.204 L 353.895 46.259 L 359.116 46.227 C 360.681 46.217 361.89 44.817 361.88 42.904 C 361.871 41.163 360.64 39.607 359.074 39.616 L 341.844 39.718 C 340.278 39.728 339.07 41.125 339.082 43.041 C 339.089 44.779 340.32 46.339 341.885 46.332 L 347.278 46.297 L 347.412 68.748 L 327.768 72.692 L 327.822 52.155 L 333.39 52.12 C 334.959 52.111 336.168 50.886 336.158 49.32 C 336.148 47.755 334.924 46.543 333.358 46.552 L 316.125 46.654 C 314.559 46.664 313.35 47.888 313.357 49.457 C 313.369 51.023 314.594 52.232 316.16 52.222 L 321.205 52.194 L 321.466 96.224 L 315.895 96.256 C 314.332 96.269 313.121 97.841 313.133 99.582 C 313.143 101.323 314.546 102.88 316.109 102.695 L 333.687 102.417 C 335.256 102.408 336.461 100.835 336.455 99.094 C 336.442 97.356 335.039 95.797 333.476 95.979 L 327.557 96.017 L 327.634 79.654 L 347.278 75.712 L 347.431 101.119 L 341.171 102.025 C 339.602 102.21 338.569 103.782 338.754 105.695 C 338.936 107.433 340.511 108.645 342.077 108.46 L 359.466 106.094 C 361.032 105.912 362.065 104.337 361.88 102.424 C 361.874 100.689 360.477 99.477 358.912 99.659 Z " fill="none" vector-effect="non-scaling-stroke" stroke-width="0.561" stroke="rgb(249,167,56)" stroke-opacity="100" stroke-linejoin="miter" stroke-linecap="butt" stroke-miterlimit="10"/><path d=" M 459.097 72.45 C 459.253 99.027 437.839 120.7 411.262 120.856 C 384.685 121.015 363.013 99.598 362.856 73.018 C 362.7 46.444 384.114 24.771 410.691 24.615 C 437.268 24.456 458.941 45.873 459.097 72.45 Z " fill="rgb(249,167,57)"/><path d=" M 423.54 96.591 L 423.54 96.591 C 420.864 96.607 416.683 96.463 412.496 94.815 C 412.161 94.652 410.659 94.993 410.328 95.331 C 400.034 107.258 390.333 106.145 390.333 106.145 C 384.816 106.18 373.913 99.557 374.021 89.192 C 374.123 78.831 380.3 77.288 385.482 77.09 C 388.655 76.905 390.502 78.063 391.344 79.061 C 391.844 79.558 392.351 80.225 392.511 78.72 C 392.67 77.718 392.661 75.878 392.31 72.705 C 391.592 65.02 389.743 63.192 389.743 63.192 C 387.565 61.869 381.04 61.238 382.303 48.695 C 383.725 34.648 395.751 33.069 395.751 33.069 C 409.782 31.816 411.182 42.34 411.205 46.017 C 411.211 47.187 412.381 47.181 412.381 47.181 L 437.782 46.026 C 442.629 45.997 451.185 51.294 451.243 60.488 C 451.306 71.353 440.948 72.249 436.599 72.106 C 435.262 72.115 435.262 72.284 436.101 72.779 C 437.874 74.051 440.735 76.861 441.87 80.92 C 444.255 96.616 423.54 96.591 423.54 96.591 Z " fill="rgb(255,255,255)"/><path d=" M 444.826 59.643 C 444.826 59.643 444.102 55.297 437.141 55.338 C 432.268 55.367 429.146 57.475 427.762 58.524 L 427.759 57.829 C 427.577 56.438 426.352 55.399 424.959 55.411 L 415.739 55.985 C 414.346 56.17 413.309 57.395 413.319 58.785 C 413.501 60.176 414.725 61.212 416.119 61.206 L 422.554 60.817 L 423.211 83.615 L 420.427 83.631 C 419.034 83.64 417.997 84.865 418.007 86.255 C 418.013 87.649 419.238 88.685 420.631 88.676 L 433.161 88.252 C 434.555 88.245 435.591 87.021 435.581 85.627 C 435.575 84.237 434.347 83.2 432.957 83.21 L 429.13 83.404 L 428.157 66.356 C 429.525 62.169 433.866 60.054 436.65 60.039 C 440.477 59.844 439.638 65.243 443.114 64.35 C 446.239 63.291 444.826 59.643 444.826 59.643 Z " fill="rgb(249,167,56)"/><path d=" M 444.826 59.643 C 444.826 59.643 444.102 55.297 437.141 55.338 C 432.268 55.367 429.146 57.475 427.762 58.524 L 427.759 57.829 C 427.577 56.438 426.352 55.399 424.959 55.411 L 415.739 55.985 C 414.346 56.17 413.309 57.395 413.319 58.785 C 413.501 60.176 414.725 61.212 416.119 61.206 L 422.554 60.817 L 423.211 83.615 L 420.427 83.631 C 419.034 83.64 417.997 84.865 418.007 86.255 C 418.013 87.649 419.238 88.685 420.631 88.676 L 433.161 88.252 C 434.555 88.245 435.591 87.021 435.581 85.627 C 435.575 84.237 434.347 83.2 432.957 83.21 L 429.13 83.404 L 428.157 66.356 C 429.525 62.169 433.866 60.054 436.65 60.039 C 440.477 59.844 439.638 65.243 443.114 64.35 C 446.239 63.291 444.826 59.643 444.826 59.643 Z " fill="none" vector-effect="non-scaling-stroke" stroke-width="0.966" stroke="rgb(249,168,57)" stroke-opacity="100" stroke-linejoin="miter" stroke-linecap="butt" stroke-miterlimit="10"/><path d=" M 406.297 77.97 C 405.889 68.053 404.951 56.572 404.061 53.619 C 403.529 51.361 403.178 51.186 401.089 51.202 L 393.432 51.243 C 391.867 51.253 390.476 51.61 390.489 53.699 C 390.502 55.612 391.723 56.129 393.458 56.119 L 399.903 56.081 C 400.445 59.732 401.363 68.081 401.587 76.258 C 401.81 84.613 399.606 94.719 392.125 94.764 C 387.424 94.789 387.399 90.264 387.223 89.4 C 386.863 87.658 386.161 86.447 384.592 86.628 C 383.03 86.813 381.99 87.863 382.178 89.951 C 382.363 92.037 382.58 99.171 392.15 99.113 C 402.416 99.053 406.695 86.845 406.297 77.97 Z " fill="rgb(249,167,56)"/><path d=" M 406.297 77.97 C 405.889 68.053 404.951 56.572 404.061 53.619 C 403.529 51.361 403.178 51.186 401.089 51.202 L 393.432 51.243 C 391.867 51.253 390.476 51.61 390.489 53.699 C 390.502 55.612 391.723 56.129 393.458 56.119 L 399.903 56.081 C 400.445 59.732 401.363 68.081 401.587 76.258 C 401.81 84.613 399.606 94.719 392.125 94.764 C 387.424 94.789 387.399 90.264 387.223 89.4 C 386.863 87.658 386.161 86.447 384.592 86.628 C 383.03 86.813 381.99 87.863 382.178 89.951 C 382.363 92.037 382.58 99.171 392.15 99.113 C 402.416 99.053 406.695 86.845 406.297 77.97 Z " fill="none" vector-effect="non-scaling-stroke" stroke-width="0.966" stroke="rgb(249,168,57)" stroke-opacity="100" stroke-linejoin="miter" stroke-linecap="butt" stroke-miterlimit="10"/><path d=" M 398.114 47.952 C 395.451 49.059 392.696 48.517 391.959 46.74 C 391.222 44.964 392.782 42.63 395.445 41.523 C 398.107 40.417 400.866 40.962 401.603 42.735 C 402.339 44.515 400.777 46.849 398.114 47.952 Z " fill="rgb(249,167,56)"/><path d=" M 395.464 41.533 C 398.127 40.426 400.885 40.972 401.622 42.745 C 402.358 44.521 400.796 46.858 398.133 47.962 C 395.473 49.065 392.715 48.523 391.978 46.747 C 391.242 44.974 392.804 42.636 395.464 41.533 Z " fill="none" vector-effect="non-scaling-stroke" stroke-width="0.966" stroke="rgb(249,168,57)" stroke-opacity="100" stroke-linejoin="miter" stroke-linecap="butt" stroke-miterlimit="10"/></g></g></g></svg>