<?xml version="1.0" standalone="no"?><!-- Generator: Gravit.io --><svg xmlns="http://www.w3.org/2000/svg" xmlns:xlink="http://www.w3.org/1999/xlink" style="isolation:isolate" viewBox="0 0 512 150" width="512" height="150"><defs><clipPath id="_clipPath_xNnrvndTsuzKfADfEZfR7JB7jlqNY4pt"><rect width="512" height="150"/></clipPath></defs><g clip-path="url(#_clipPath_xNnrvndTsuzKfADfEZfR7JB7jlqNY4pt)"><g id="ID0.5136232292279601"><path d=" M 73.264 133.285 C 63.405 133.285 55.136 125.56 54.439 115.705 C 54.432 115.576 54.427 115.443 54.417 115.312 C 54.256 112.149 54.045 105.988 54.428 99.044 C 54.686 94.515 54.8 86.896 54.804 86.624 C 54.804 86.603 54.804 86.588 54.804 86.567 C 54.872 81.897 56.666 77.619 59.571 74.344 C 58.133 69.328 57.666 63.347 58.563 56.303 L 58.699 55.199 C 59.209 51.027 59.968 44.845 63.11 38.895 C 67.859 29.913 76.563 24.757 86.989 24.757 C 87.588 24.757 88.211 24.774 88.845 24.811 C 89.778 24.862 90.8 24.974 91.89 25.167 C 95.223 22.227 99.6 20.437 104.379 20.437 C 104.44 20.437 104.509 20.437 104.572 20.437 C 114.911 20.566 123.287 29.07 123.235 39.402 C 123.235 39.471 123.235 39.543 123.234 39.612 C 123.231 39.841 122.287 66.248 122.002 68.126 C 121.982 68.256 121.96 68.385 121.938 68.513 C 121.689 69.918 121.283 71.261 120.751 72.531 C 125.315 77.896 127.781 84.563 127.863 92.094 C 127.962 101.566 123.629 110.765 115.967 117.326 C 109.392 122.967 101.047 126.066 92.48 126.066 C 92.48 126.066 92.48 126.066 92.48 126.066 C 91.09 126.066 89.704 125.99 88.323 125.825 C 88.042 126.195 87.742 126.559 87.433 126.91 C 84.095 130.685 79.48 132.938 74.445 133.247 C 74.11 133.27 73.683 133.285 73.264 133.285 Z " fill="none" vector-effect="non-scaling-stroke" stroke-width="10.445" stroke="rgb(40,165,218)" stroke-opacity="100" stroke-linejoin="miter" stroke-linecap="butt" stroke-miterlimit="4"/><path d=" M 87.411 72.945 C 82.657 72.203 80.141 69.038 81.39 59.198 L 81.542 58.01 C 82.596 49.452 83.502 47.581 87.583 47.791 C 88.804 47.868 90.19 48.623 91.585 49.763 C 92.843 51.245 95.722 53.169 97.307 56.994 C 98.469 59.781 98.865 61.599 99.011 63.557 C 99.025 63.62 99.288 65.958 99.288 65.958 L 99.29 65.956 C 99.604 67.594 100.89 68.943 102.627 69.257 C 104.871 69.658 107.029 68.165 107.435 65.914 C 107.469 65.657 108.493 39.763 108.499 39.333 C 108.512 37.054 106.673 35.198 104.392 35.173 C 102.092 35.168 100.229 37.012 100.219 39.303 C 100.219 39.351 100.199 42.905 100.135 46.516 C 96.889 42.966 92.698 39.787 88.039 39.524 C 75.499 38.836 74.139 50.353 73.324 56.999 L 73.179 58.166 C 71.512 71.258 75.876 79.534 86.141 81.137 C 97.308 82.896 104.765 85.464 104.836 92.335 C 104.864 94.989 103.471 97.727 101.005 99.842 C 98.065 102.362 94.091 103.488 90.39 102.865 C 89.24 102.68 88.144 102.389 87.119 102.023 C 85.635 101.216 81.96 98.982 80.091 96.391 C 78.511 94.206 77.975 90.77 77.799 88.598 C 77.821 87.63 77.832 86.982 77.836 86.895 C 77.862 84.618 76.038 82.744 73.75 82.7 C 71.464 82.658 69.57 84.485 69.54 86.783 C 69.54 86.861 69.415 94.965 69.144 99.853 C 68.711 107.717 69.132 114.389 69.144 114.672 C 69.303 116.958 71.264 118.694 73.548 118.542 C 75.842 118.399 77.562 116.425 77.421 114.148 C 77.421 114.087 77.211 110.883 77.241 106.398 C 80.268 108.346 84.237 110.236 89.026 111.044 C 95.203 112.077 101.531 110.294 106.386 106.134 C 110.72 102.426 113.182 97.359 113.129 92.248 C 112.962 76.946 95.719 74.252 87.411 72.945 Z " fill="none" vector-effect="non-scaling-stroke" stroke-width="10.445" stroke="rgb(40,165,218)" stroke-opacity="100" stroke-linejoin="miter" stroke-linecap="butt" stroke-miterlimit="4"/><path d=" M 216.268 129.419 C 212.683 129.415 209.079 128.695 205.263 127.213 C 201.883 125.906 199.187 123.916 197.078 121.798 C 195.678 122.367 194.205 122.773 192.673 122.995 L 172.683 125.928 C 171.742 126.061 170.843 126.125 169.949 126.125 C 160.618 126.125 152.584 119.16 151.26 109.92 C 150.535 104.996 151.786 100.022 154.798 95.974 C 156.307 93.945 158.166 92.278 160.27 91.022 L 160.257 88.134 C 156.415 84.676 153.991 79.663 153.991 74.098 C 153.991 70.006 155.301 66.216 157.518 63.118 C 153.065 60.227 149.857 55.506 149.068 49.955 C 148.339 45.066 149.588 40.074 152.608 36.011 C 155.625 31.955 160.039 29.325 165.047 28.602 C 169.222 27.987 177.65 26.937 186.619 26.937 C 206.523 26.937 219.194 32.035 225.347 42.52 C 228.561 48.005 232.224 59.031 222.628 73.245 C 223.532 76.154 224.209 79.387 224.67 83.007 C 224.735 83.007 224.8 83.007 224.864 83.007 C 226.744 83.007 228.608 83.282 230.406 83.839 C 240.389 86.927 245.977 97.523 242.905 107.469 C 239.908 117.129 235.134 123.109 227.42 126.866 C 223.883 128.573 220.155 129.419 216.274 129.419 C 216.274 129.419 216.274 129.419 216.268 129.419 Z " fill="none" vector-effect="non-scaling-stroke" stroke-width="10.445" stroke="rgb(40,165,218)" stroke-opacity="100" stroke-linejoin="miter" stroke-linecap="butt" stroke-miterlimit="4"/><path d=" M 226.089 97.925 C 223.895 97.251 221.565 98.485 220.903 100.66 C 219.39 105.581 218.181 105.764 217.34 106.164 C 216.509 106.566 215.386 106.447 213.584 105.746 C 213.307 105.582 212.557 104.608 212.129 103.699 C 211.483 102.31 210.723 96.539 210.651 93.245 C 210.333 81.079 208.219 74.393 204.802 70.705 C 207.109 69.19 208.787 67.22 208.973 66.971 C 209.004 66.939 209.029 66.913 209.058 66.872 C 214.139 60.285 215.342 54.594 212.642 49.977 C 205.867 38.441 176.109 41.863 167.151 43.186 C 164.877 43.514 163.32 45.63 163.663 47.889 C 163.981 50.163 166.091 51.718 168.355 51.375 C 170.478 51.065 172.652 50.807 174.836 50.605 L 174.918 69.896 C 174.229 69.937 173.544 69.959 172.869 69.959 C 170.584 69.959 168.726 71.802 168.726 74.097 C 168.726 76.375 170.584 78.241 172.869 78.241 C 173.558 78.241 174.25 78.222 174.959 78.191 L 175.046 102.31 L 169.342 103.14 C 167.079 103.471 165.513 105.582 165.85 107.836 C 166.171 110.107 168.278 111.673 170.54 111.349 L 190.534 108.414 C 192.79 108.084 194.363 105.983 194.028 103.727 C 193.7 101.453 191.586 99.889 189.331 100.205 L 183.33 101.094 L 183.222 77.322 C 187.176 76.682 190.941 75.827 194.086 74.869 L 194.086 74.869 L 194.094 74.869 C 194.116 74.863 195.002 74.75 195.549 74.845 C 197.217 75.128 198.133 75.431 199.096 76.794 C 200.445 78.676 202.108 83.1 202.364 93.457 C 202.415 95.453 202.942 103.619 204.619 107.208 C 205.141 108.343 207.147 112.139 210.603 113.475 C 213.147 114.47 216.985 115.533 220.965 113.62 C 224.642 111.827 226.93 109.221 228.826 103.114 C 229.504 100.924 228.272 98.601 226.089 97.925 Z  M 202.534 60.93 C 202.165 61.36 201.107 62.476 200.008 63.131 C 198.99 63.73 197.597 64.145 196.254 64.557 L 194.148 65.229 C 191.227 66.268 187.36 67.355 183.202 68.118 L 183.126 49.272 C 194.082 48.97 203.644 50.198 205.491 53.363 C 205.662 53.634 205.735 53.982 205.735 54.393 C 205.735 55.906 204.608 58.244 202.534 60.93 Z " fill="none" vector-effect="non-scaling-stroke" stroke-width="10.445" stroke="rgb(40,165,218)" stroke-opacity="100" stroke-linejoin="miter" stroke-linecap="butt" stroke-miterlimit="4"/><path d=" M 356.348 128.593 C 334.993 128.593 322.762 112.537 321.727 96.681 L 321.734 96.681 C 321.685 95.683 321.643 93.669 321.533 88.379 C 321.532 88.209 321.528 88.043 321.532 87.872 C 321.666 78.108 321.691 76.208 321.734 75.466 L 321.732 75.466 C 322.807 60.269 328.062 49.667 337.36 43.95 C 341.769 41.219 346.802 39.831 352.282 39.831 C 354.158 39.831 355.95 39.995 357.615 40.26 C 361.072 36.353 366.131 33.883 371.753 33.883 C 382.165 33.883 390.637 42.351 390.637 52.756 L 390.637 70.712 C 390.637 72.856 390.27 74.937 389.588 76.886 C 392.185 79.961 393.824 83.862 394.024 88.117 C 394.136 89.556 394.199 90.479 394.152 91.448 C 394.008 96.278 394.001 96.327 393.928 96.987 C 393.917 97.144 393.897 97.308 393.87 97.462 C 393.433 100.602 392.294 106.57 389.623 111.256 C 387.904 114.259 386.116 116.425 384.435 118.323 C 381.053 122.133 377.162 124.251 373.793 125.824 C 368.176 128.465 363.331 128.515 359.789 128.551 L 357.556 128.575 C 357.151 128.584 356.744 128.593 356.348 128.593 Z " fill="none" vector-effect="non-scaling-stroke" stroke-width="10.445" stroke="rgb(40,165,218)" stroke-opacity="100" stroke-linejoin="miter" stroke-linecap="butt" stroke-miterlimit="4"/><path d=" M 375.095 84.891 C 372.84 84.92 371.034 86.773 371.034 89.032 C 371.034 89.055 371.145 90.372 371.145 90.54 C 371.145 90.705 371.056 93.978 371.042 94.442 C 370.779 96.155 370.178 98.884 369.617 99.854 C 368.995 100.941 368.345 101.757 367.192 103.072 C 366.543 103.809 364.967 104.544 364.026 104.993 C 362.962 105.484 361.937 105.504 359.527 105.53 L 357.007 105.562 C 346.232 105.909 344.872 97.144 344.698 95.225 C 344.692 94.942 344.568 88.26 344.568 88.116 C 344.568 87.984 344.692 77.319 344.698 77.015 C 345.217 69.897 346.895 65.11 349.425 63.563 C 351.376 62.348 354.492 62.677 358.958 64.539 C 364.453 66.83 368.192 72.824 368.231 72.872 C 369.2 74.449 371.106 75.183 372.882 74.69 C 374.669 74.185 375.901 72.57 375.901 70.712 L 375.901 52.756 C 375.901 50.479 374.053 48.619 371.753 48.619 C 369.479 48.619 367.607 50.479 367.607 52.756 L 367.607 60.133 C 366.003 58.885 364.169 57.74 362.143 56.891 C 359.528 55.797 351.576 52.485 345.078 56.498 C 339.989 59.63 337.164 66.178 336.428 76.508 C 336.423 76.583 336.267 88.075 336.267 88.075 C 336.267 88.075 336.423 95.667 336.428 95.72 C 336.856 102.202 341.764 114.34 357.264 113.842 L 359.589 113.817 C 362.391 113.792 364.798 113.774 367.55 112.482 C 369.511 111.561 371.753 110.411 373.403 108.557 C 374.596 107.208 375.749 105.83 376.821 103.961 C 378.412 101.169 379.148 96.35 379.277 95.42 C 379.294 95.27 379.428 90.695 379.428 90.695 C 379.44 90.631 379.312 88.962 379.312 88.962 C 379.277 86.685 377.394 84.852 375.095 84.891 Z " fill="none" vector-effect="non-scaling-stroke" stroke-width="10.445" stroke="rgb(40,165,218)" stroke-opacity="100" stroke-linejoin="miter" stroke-linecap="butt" stroke-miterlimit="4"/><path d=" M 415.228 135.234 C 410.778 135.234 406.504 133.561 403.202 130.522 C 401.872 129.308 400.757 127.945 399.861 126.473 L 384.288 126.212 C 373.912 126.032 365.588 117.455 365.722 107.094 C 365.852 99.537 370.446 93.036 376.923 90.108 L 376.974 61.169 C 370.51 58.168 366.01 51.614 366.01 44.023 C 366.01 33.615 374.478 25.144 384.885 25.144 L 402.634 25.144 C 406.024 21.029 411.129 18.353 416.87 18.24 C 416.87 18.24 438.694 17.867 438.779 17.867 C 449.02 17.867 457.49 26.194 457.664 36.436 C 457.775 43.911 453.529 50.45 447.285 53.611 C 447.412 74.117 447.488 87.002 447.526 95.491 C 453.249 98.443 457.311 104.25 457.749 111.068 C 458.413 121.464 450.509 130.461 440.124 131.126 C 431.557 131.686 426.093 132.656 424.56 133.09 C 424.262 133.213 423.963 133.324 423.658 133.423 C 421.764 134.144 418.905 135.234 415.228 135.234 Z " fill="none" vector-effect="non-scaling-stroke" stroke-width="10.445" stroke="rgb(40,165,218)" stroke-opacity="100" stroke-linejoin="miter" stroke-linecap="butt" stroke-miterlimit="4"/><path d=" M 264.108 113.58 C 260.007 113.578 256.103 112.281 252.819 109.818 C 252.107 109.294 251.442 108.725 250.819 108.122 C 248.471 109.163 245.871 109.746 243.144 109.746 C 242.861 109.746 242.577 109.739 242.293 109.725 L 221.632 108.747 C 211.249 108.264 203.18 99.421 203.65 89.038 C 204.105 78.941 212.389 71.019 222.517 71.019 C 222.603 71.019 222.69 71.019 222.778 71.021 C 223.726 66.269 226.04 54.665 226.151 54.107 C 219.31 51.951 214.05 45.992 213.064 38.587 C 211.711 28.277 218.971 18.777 229.237 17.378 L 246.973 14.94 C 247.816 14.826 248.68 14.766 249.528 14.766 C 254.726 14.766 259.745 16.942 263.31 20.743 C 264.606 22.117 266.47 24.816 267.469 27.202 L 283.035 64.827 C 283.108 65.001 283.192 65.198 283.285 65.426 C 283.333 65.425 283.387 65.425 283.433 65.425 C 291.378 65.425 298.52 70.446 301.208 77.927 C 304.697 87.704 299.612 98.519 289.877 102.059 C 283.656 104.281 279.673 106.319 278.236 107.227 C 274.679 111.231 269.51 113.581 264.11 113.581 C 264.11 113.58 264.11 113.58 264.108 113.58 Z " fill="none" vector-effect="non-scaling-stroke" stroke-width="10.445" stroke="rgb(40,165,218)" stroke-opacity="100" stroke-linejoin="miter" stroke-linecap="butt" stroke-miterlimit="4"/><path d=" M 282.041 80.403 C 280.813 80.839 278.439 82.03 274.757 83.648 C 274.757 83.648 269.612 70.813 269.43 70.495 L 253.852 32.833 C 253.697 32.431 252.828 31.105 252.56 30.82 C 251.638 29.837 250.302 29.355 248.979 29.539 L 231.221 31.98 C 228.953 32.288 227.377 34.377 227.671 36.639 C 227.975 38.913 230.055 40.491 232.328 40.2 C 232.328 40.2 238.937 39.25 244.293 38.527 C 242.758 46.079 236.641 76.952 234.723 86.34 L 222.704 85.756 C 220.421 85.657 218.475 87.417 218.369 89.71 C 218.271 91.991 220.046 93.92 222.33 94.027 L 242.952 95.004 C 245.236 95.103 247.175 93.34 247.289 91.063 C 247.392 88.765 246.057 86.697 243.103 86.697 L 244.051 80.38 L 263.212 77.205 L 267.314 87.348 C 264.19 89.135 262.24 90.264 260.779 92.225 C 259.414 94.071 259.806 96.66 261.647 98.019 C 263.472 99.389 266.075 99.004 267.446 97.164 C 269.286 94.682 277.113 90.973 284.842 88.208 C 286.991 87.429 288.107 85.053 287.337 82.903 C 286.567 80.757 284.187 79.633 282.041 80.403 Z  M 245.819 73.726 L 250.899 48.856 L 260.012 71.372 L 245.819 73.726 Z " fill="none" vector-effect="non-scaling-stroke" stroke-width="10.445" stroke="rgb(40,165,218)" stroke-opacity="100" stroke-linejoin="miter" stroke-linecap="butt" stroke-miterlimit="4"/><path d=" M 293.396 125.426 C 283.168 125.426 274.698 117.091 274.521 106.852 C 274.394 98.466 279.759 91.264 287.276 88.682 L 287.265 83.104 C 286.706 83.239 286.137 83.35 285.561 83.437 C 284.632 83.579 283.683 83.65 282.753 83.65 C 273.34 83.65 265.493 76.888 264.092 67.579 L 260.932 47.256 C 260.094 41.87 261.648 36.374 265.197 32.188 C 268.693 28.019 273.882 25.577 279.384 25.514 L 305.745 25.073 C 318.554 24.831 329.983 24.023 330.6 23.98 C 330.688 23.967 330.777 23.962 330.868 23.958 C 331.275 23.934 331.684 23.917 332.087 23.917 C 337.138 23.917 342.05 25.976 345.569 29.566 C 349.361 33.374 351.339 38.755 350.923 44.239 C 350.568 48.936 350.455 56.364 350.439 58.165 C 350.649 65.811 346.468 72.728 339.662 75.901 C 337.145 77.087 334.295 77.736 331.477 77.736 L 331.477 77.736 C 329.236 77.736 327.048 77.327 325.015 76.574 L 325.038 88.423 C 332.2 91.045 337.391 97.895 337.502 105.911 C 337.58 110.956 335.671 115.74 332.133 119.362 C 328.601 122.977 323.875 125.001 318.824 125.047 C 318.824 125.048 293.466 125.426 293.396 125.426 Z " fill="none" vector-effect="non-scaling-stroke" stroke-width="10.445" stroke="rgb(40,165,218)" stroke-opacity="100" stroke-linejoin="miter" stroke-linecap="butt" stroke-miterlimit="4"/><path d=" M 331.818 38.66 C 331.69 38.677 319.558 39.547 305.991 39.808 L 279.551 40.25 C 278.349 40.258 277.216 40.784 276.443 41.713 C 275.669 42.617 275.313 43.816 275.493 44.997 L 278.661 65.386 C 279.006 67.649 281.11 69.204 283.373 68.869 C 285.431 68.56 286.902 66.791 286.902 64.773 C 286.902 64.582 285.237 54.142 284.394 48.461 C 285.469 48.456 301.933 48.161 301.933 48.161 L 302.04 102.282 L 293.334 102.395 C 291.048 102.434 289.219 104.318 289.253 106.595 C 289.298 108.892 291.169 110.719 293.449 110.691 L 318.686 110.313 C 320.97 110.292 322.803 108.394 322.772 106.115 C 322.737 103.82 320.854 102.006 318.57 102.024 L 310.328 102.15 L 310.221 48.001 C 317.356 47.802 323.463 47.462 327.648 47.233 C 327.437 50.677 327.335 53.273 327.335 55.161 C 327.335 59.593 327.809 60.433 328.17 61.058 C 329.223 62.973 331.459 63.48 333.437 62.546 C 334.975 61.832 335.8 60.105 335.703 58.411 C 335.698 58.341 335.78 49.059 336.232 43.125 C 336.32 41.915 335.897 40.737 335.044 39.879 C 334.204 39.022 333.013 38.585 331.818 38.66 Z " fill="none" vector-effect="non-scaling-stroke" stroke-width="10.445" stroke="rgb(40,165,218)" stroke-opacity="100" stroke-linejoin="miter" stroke-linecap="butt" stroke-miterlimit="4"/><path d=" M 138.557 133.779 C 117.298 133.774 105.071 117.891 103.899 102.111 C 103.864 101.63 103.849 101.223 103.846 100.899 L 103.696 93.239 C 103.696 93.173 103.846 81.766 103.846 81.766 C 103.847 81.411 103.864 81.016 103.892 80.61 C 104.984 65.424 110.242 54.827 119.526 49.116 C 123.953 46.387 128.978 45.005 134.445 45.005 C 136.323 45.005 138.116 45.174 139.781 45.438 C 143.242 41.525 148.301 39.052 153.925 39.052 C 164.338 39.052 172.802 47.523 172.802 57.936 L 172.802 75.875 C 172.802 77.809 172.507 79.692 171.946 81.479 C 174.469 84.568 176.042 88.465 176.193 92.707 L 176.309 94.885 C 176.326 95.149 176.331 95.416 176.331 95.685 C 176.331 95.731 176.277 100.773 176.021 102.675 L 176.021 102.675 C 175.47 106.534 174.286 112.062 171.775 116.448 C 170.041 119.492 168.217 121.657 166.643 123.452 C 163.192 127.313 159.311 129.427 155.958 130.993 C 150.35 133.64 145.496 133.685 141.951 133.719 L 139.787 133.762 C 139.378 133.772 138.969 133.78 138.561 133.78 C 138.559 133.779 138.558 133.779 138.557 133.779 Z " fill="none" vector-effect="non-scaling-stroke" stroke-width="10.445" stroke="rgb(40,165,218)" stroke-opacity="100" stroke-linejoin="miter" stroke-linecap="butt" stroke-miterlimit="4"/><path d=" M 157.271 89.235 C 155 89.277 153.195 91.134 153.195 93.385 C 153.195 93.408 153.309 95.54 153.309 95.715 C 153.307 95.883 153.217 99.133 153.203 99.609 C 152.942 101.32 152.347 104.05 151.785 105.019 C 151.166 106.109 150.473 106.967 149.347 108.233 C 148.705 108.975 147.133 109.717 146.188 110.148 C 145.127 110.649 144.11 110.673 141.701 110.696 L 139.171 110.737 C 128.395 111.068 127.039 102.328 126.864 100.395 C 126.861 100.111 126.726 93.42 126.715 93.289 C 126.726 93.151 126.864 82.485 126.864 82.18 C 127.386 75.063 129.058 70.277 131.592 68.732 C 133.533 67.514 136.653 67.846 141.116 69.705 C 146.612 72.006 150.361 77.982 150.384 78.046 C 151.36 79.615 153.267 80.369 155.047 79.856 C 156.833 79.356 158.067 77.736 158.067 75.875 L 158.067 57.935 C 158.067 55.644 156.208 53.787 153.927 53.787 C 151.628 53.787 149.78 55.644 149.78 57.935 L 149.78 65.3 C 148.171 64.052 146.344 62.898 144.307 62.059 C 141.701 60.968 133.743 57.664 127.249 61.665 C 122.161 64.794 119.33 71.343 118.588 81.678 C 118.582 81.759 118.582 81.837 118.582 81.904 L 118.431 93.239 L 118.431 93.385 L 118.582 100.704 C 118.582 100.771 118.582 100.831 118.588 100.884 C 119.021 107.379 123.924 119.496 139.428 119.032 L 141.754 118.985 C 144.552 118.958 146.964 118.946 149.715 117.649 C 151.686 116.729 153.91 115.586 155.572 113.723 C 156.764 112.372 157.924 110.996 158.985 109.132 C 160.581 106.339 161.304 101.519 161.436 100.59 C 161.459 100.433 161.597 95.739 161.597 95.684 L 161.473 93.319 C 161.436 91.029 159.549 89.193 157.271 89.235 Z " fill="none" vector-effect="non-scaling-stroke" stroke-width="10.445" stroke="rgb(40,165,218)" stroke-opacity="100" stroke-linejoin="miter" stroke-linecap="butt" stroke-miterlimit="4"/></g><g id="ID0.6219486179761589"><g id="ID0.8403278617188334"><path d=" M 73.264 133.285 C 63.405 133.285 55.136 125.56 54.439 115.705 C 54.432 115.576 54.427 115.443 54.417 115.312 C 54.256 112.149 54.045 105.988 54.428 99.044 C 54.686 94.515 54.8 86.896 54.804 86.624 C 54.804 86.603 54.804 86.588 54.804 86.567 C 54.872 81.897 56.666 77.619 59.571 74.344 C 58.133 69.328 57.666 63.347 58.563 56.303 L 58.699 55.199 C 59.209 51.027 59.968 44.845 63.11 38.895 C 67.859 29.913 76.563 24.757 86.989 24.757 C 87.588 24.757 88.211 24.774 88.845 24.811 C 89.778 24.862 90.8 24.974 91.89 25.167 C 95.223 22.227 99.6 20.437 104.379 20.437 C 104.44 20.437 104.509 20.437 104.572 20.437 C 114.911 20.566 123.287 29.07 123.235 39.402 C 123.235 39.471 123.235 39.543 123.234 39.612 C 123.231 39.841 122.287 66.248 122.002 68.126 C 121.982 68.256 121.96 68.385 121.938 68.513 C 121.689 69.918 121.283 71.261 120.751 72.531 C 125.315 77.896 127.781 84.563 127.863 92.094 C 127.962 101.566 123.629 110.765 115.967 117.326 C 109.392 122.967 101.047 126.066 92.48 126.066 C 92.48 126.066 92.48 126.066 92.48 126.066 C 91.09 126.066 89.704 125.99 88.323 125.825 C 88.042 126.195 87.742 126.559 87.433 126.91 C 84.095 130.685 79.48 132.938 74.445 133.247 C 74.11 133.27 73.683 133.285 73.264 133.285 Z " fill="rgb(247,248,249)"/><path d=" M 87.411 72.945 C 82.657 72.203 80.141 69.038 81.39 59.198 L 81.542 58.01 C 82.596 49.452 83.502 47.581 87.583 47.791 C 88.804 47.868 90.19 48.623 91.585 49.763 C 92.843 51.245 95.722 53.169 97.307 56.994 C 98.469 59.781 98.865 61.599 99.011 63.557 C 99.025 63.62 99.288 65.958 99.288 65.958 L 99.29 65.956 C 99.604 67.594 100.89 68.943 102.627 69.257 C 104.871 69.658 107.029 68.165 107.435 65.914 C 107.469 65.657 108.493 39.763 108.499 39.333 C 108.512 37.054 106.673 35.198 104.392 35.173 C 102.092 35.168 100.229 37.012 100.219 39.303 C 100.219 39.351 100.199 42.905 100.135 46.516 C 96.889 42.966 92.698 39.787 88.039 39.524 C 75.499 38.836 74.139 50.353 73.324 56.999 L 73.179 58.166 C 71.512 71.258 75.876 79.534 86.141 81.137 C 97.308 82.896 104.765 85.464 104.836 92.335 C 104.864 94.989 103.471 97.727 101.005 99.842 C 98.065 102.362 94.091 103.488 90.39 102.865 C 89.24 102.68 88.144 102.389 87.119 102.023 C 85.635 101.216 81.96 98.982 80.091 96.391 C 78.511 94.206 77.975 90.77 77.799 88.598 C 77.821 87.63 77.832 86.982 77.836 86.895 C 77.862 84.618 76.038 82.744 73.75 82.7 C 71.464 82.658 69.57 84.485 69.54 86.783 C 69.54 86.861 69.415 94.965 69.144 99.853 C 68.711 107.717 69.132 114.389 69.144 114.672 C 69.303 116.958 71.264 118.694 73.548 118.542 C 75.842 118.399 77.562 116.425 77.421 114.148 C 77.421 114.087 77.211 110.883 77.241 106.398 C 80.268 108.346 84.237 110.236 89.026 111.044 C 95.203 112.077 101.531 110.294 106.386 106.134 C 110.72 102.426 113.182 97.359 113.129 92.248 C 112.962 76.946 95.719 74.252 87.411 72.945 Z " fill="rgb(247,248,249)"/><path d=" M 216.268 129.419 C 212.683 129.415 209.079 128.695 205.263 127.213 C 201.883 125.906 199.187 123.916 197.078 121.798 C 195.678 122.367 194.205 122.773 192.673 122.995 L 172.683 125.928 C 171.742 126.061 170.843 126.125 169.949 126.125 C 160.618 126.125 152.584 119.16 151.26 109.92 C 150.535 104.996 151.786 100.022 154.798 95.974 C 156.307 93.945 158.166 92.278 160.27 91.022 L 160.257 88.134 C 156.415 84.676 153.991 79.663 153.991 74.098 C 153.991 70.006 155.301 66.216 157.518 63.118 C 153.065 60.227 149.857 55.506 149.068 49.955 C 148.339 45.066 149.588 40.074 152.608 36.011 C 155.625 31.955 160.039 29.325 165.047 28.602 C 169.222 27.987 177.65 26.937 186.619 26.937 C 206.523 26.937 219.194 32.035 225.347 42.52 C 228.561 48.005 232.224 59.031 222.628 73.245 C 223.532 76.154 224.209 79.387 224.67 83.007 C 224.735 83.007 224.8 83.007 224.864 83.007 C 226.744 83.007 228.608 83.282 230.406 83.839 C 240.389 86.927 245.977 97.523 242.905 107.469 C 239.908 117.129 235.134 123.109 227.42 126.866 C 223.883 128.573 220.155 129.419 216.274 129.419 C 216.274 129.419 216.274 129.419 216.268 129.419 Z " fill="rgb(247,248,249)"/><path d=" M 226.089 97.925 C 223.895 97.251 221.565 98.485 220.903 100.66 C 219.39 105.581 218.181 105.764 217.34 106.164 C 216.509 106.566 215.386 106.447 213.584 105.746 C 213.307 105.582 212.557 104.608 212.129 103.699 C 211.483 102.31 210.723 96.539 210.651 93.245 C 210.333 81.079 208.219 74.393 204.802 70.705 C 207.109 69.19 208.787 67.22 208.973 66.971 C 209.004 66.939 209.029 66.913 209.058 66.872 C 214.139 60.285 215.342 54.594 212.642 49.977 C 205.867 38.441 176.109 41.863 167.151 43.186 C 164.877 43.514 163.32 45.63 163.663 47.889 C 163.981 50.163 166.091 51.718 168.355 51.375 C 170.478 51.065 172.652 50.807 174.836 50.605 L 174.918 69.896 C 174.229 69.937 173.544 69.959 172.869 69.959 C 170.584 69.959 168.726 71.802 168.726 74.097 C 168.726 76.375 170.584 78.241 172.869 78.241 C 173.558 78.241 174.25 78.222 174.959 78.191 L 175.046 102.31 L 169.342 103.14 C 167.079 103.471 165.513 105.582 165.85 107.836 C 166.171 110.107 168.278 111.673 170.54 111.349 L 190.534 108.414 C 192.79 108.084 194.363 105.983 194.028 103.727 C 193.7 101.453 191.586 99.889 189.331 100.205 L 183.33 101.094 L 183.222 77.322 C 187.176 76.682 190.941 75.827 194.086 74.869 L 194.086 74.869 L 194.094 74.869 C 194.116 74.863 195.002 74.75 195.549 74.845 C 197.217 75.128 198.133 75.431 199.096 76.794 C 200.445 78.676 202.108 83.1 202.364 93.457 C 202.415 95.453 202.942 103.619 204.619 107.208 C 205.141 108.343 207.147 112.139 210.603 113.475 C 213.147 114.47 216.985 115.533 220.965 113.62 C 224.642 111.827 226.93 109.221 228.826 103.114 C 229.504 100.924 228.272 98.601 226.089 97.925 Z  M 202.534 60.93 C 202.165 61.36 201.107 62.476 200.008 63.131 C 198.99 63.73 197.597 64.145 196.254 64.557 L 194.148 65.229 C 191.227 66.268 187.36 67.355 183.202 68.118 L 183.126 49.272 C 194.082 48.97 203.644 50.198 205.491 53.363 C 205.662 53.634 205.735 53.982 205.735 54.393 C 205.735 55.906 204.608 58.244 202.534 60.93 Z " fill="rgb(247,248,249)"/><path d=" M 356.348 128.593 C 334.993 128.593 322.762 112.537 321.727 96.681 L 321.734 96.681 C 321.685 95.683 321.643 93.669 321.533 88.379 C 321.532 88.209 321.528 88.043 321.532 87.872 C 321.666 78.108 321.691 76.208 321.734 75.466 L 321.732 75.466 C 322.807 60.269 328.062 49.667 337.36 43.95 C 341.769 41.219 346.802 39.831 352.282 39.831 C 354.158 39.831 355.95 39.995 357.615 40.26 C 361.072 36.353 366.131 33.883 371.753 33.883 C 382.165 33.883 390.637 42.351 390.637 52.756 L 390.637 70.712 C 390.637 72.856 390.27 74.937 389.588 76.886 C 392.185 79.961 393.824 83.862 394.024 88.117 C 394.136 89.556 394.199 90.479 394.152 91.448 C 394.008 96.278 394.001 96.327 393.928 96.987 C 393.917 97.144 393.897 97.308 393.87 97.462 C 393.433 100.602 392.294 106.57 389.623 111.256 C 387.904 114.259 386.116 116.425 384.435 118.323 C 381.053 122.133 377.162 124.251 373.793 125.824 C 368.176 128.465 363.331 128.515 359.789 128.551 L 357.556 128.575 C 357.151 128.584 356.744 128.593 356.348 128.593 Z " fill="rgb(247,248,249)"/><path d=" M 375.095 84.891 C 372.84 84.92 371.034 86.773 371.034 89.032 C 371.034 89.055 371.145 90.372 371.145 90.54 C 371.145 90.705 371.056 93.978 371.042 94.442 C 370.779 96.155 370.178 98.884 369.617 99.854 C 368.995 100.941 368.345 101.757 367.192 103.072 C 366.543 103.809 364.967 104.544 364.026 104.993 C 362.962 105.484 361.937 105.504 359.527 105.53 L 357.007 105.562 C 346.232 105.909 344.872 97.144 344.698 95.225 C 344.692 94.942 344.568 88.26 344.568 88.116 C 344.568 87.984 344.692 77.319 344.698 77.015 C 345.217 69.897 346.895 65.11 349.425 63.563 C 351.376 62.348 354.492 62.677 358.958 64.539 C 364.453 66.83 368.192 72.824 368.231 72.872 C 369.2 74.449 371.106 75.183 372.882 74.69 C 374.669 74.185 375.901 72.57 375.901 70.712 L 375.901 52.756 C 375.901 50.479 374.053 48.619 371.753 48.619 C 369.479 48.619 367.607 50.479 367.607 52.756 L 367.607 60.133 C 366.003 58.885 364.169 57.74 362.143 56.891 C 359.528 55.797 351.576 52.485 345.078 56.498 C 339.989 59.63 337.164 66.178 336.428 76.508 C 336.423 76.583 336.267 88.075 336.267 88.075 C 336.267 88.075 336.423 95.667 336.428 95.72 C 336.856 102.202 341.764 114.34 357.264 113.842 L 359.589 113.817 C 362.391 113.792 364.798 113.774 367.55 112.482 C 369.511 111.561 371.753 110.411 373.403 108.557 C 374.596 107.208 375.749 105.83 376.821 103.961 C 378.412 101.169 379.148 96.35 379.277 95.42 C 379.294 95.27 379.428 90.695 379.428 90.695 C 379.44 90.631 379.312 88.962 379.312 88.962 C 379.277 86.685 377.394 84.852 375.095 84.891 Z " fill="rgb(247,248,249)"/><path d=" M 415.228 135.234 C 410.778 135.234 406.504 133.561 403.202 130.522 C 401.872 129.308 400.757 127.945 399.861 126.473 L 384.288 126.212 C 373.912 126.032 365.588 117.455 365.722 107.094 C 365.852 99.537 370.446 93.036 376.923 90.108 L 376.974 61.169 C 370.51 58.168 366.01 51.614 366.01 44.023 C 366.01 33.615 374.478 25.144 384.885 25.144 L 402.634 25.144 C 406.024 21.029 411.129 18.353 416.87 18.24 C 416.87 18.24 438.694 17.867 438.779 17.867 C 449.02 17.867 457.49 26.194 457.664 36.436 C 457.775 43.911 453.529 50.45 447.285 53.611 C 447.412 74.117 447.488 87.002 447.526 95.491 C 453.249 98.443 457.311 104.25 457.749 111.068 C 458.413 121.464 450.509 130.461 440.124 131.126 C 431.557 131.686 426.093 132.656 424.56 133.09 C 424.262 133.213 423.963 133.324 423.658 133.423 C 421.764 134.144 418.905 135.234 415.228 135.234 Z " fill="rgb(247,248,249)"/><path d=" M 443.047 112.018 C 442.9 109.739 440.928 108 438.646 108.148 C 437.105 108.252 435.08 108.405 432.824 108.647 C 432.832 101.565 432.758 87.298 432.474 40.993 L 438.855 40.904 C 441.134 40.865 442.964 38.968 442.931 36.682 C 442.895 34.4 441.009 32.57 438.723 32.602 L 417.157 32.968 C 414.862 33.019 413.047 34.895 413.087 37.185 C 413.116 39.47 415.009 41.303 417.287 41.258 L 424.175 41.133 C 424.24 50.195 424.289 59.964 424.348 69.846 L 399.977 73.92 L 400.021 48.177 L 406.645 48.177 C 408.939 48.177 410.8 46.318 410.8 44.023 C 410.8 41.739 408.939 39.879 406.645 39.879 L 384.884 39.879 C 382.596 39.879 380.745 41.739 380.745 44.023 C 380.745 46.318 382.596 48.177 384.884 48.177 L 391.732 48.177 L 391.634 103.315 L 384.665 103.194 C 382.382 103.156 380.496 104.983 380.455 107.29 C 380.427 109.558 382.244 111.439 384.531 111.479 L 406.916 111.855 C 409.203 111.887 411.087 110.058 411.124 107.774 C 411.158 105.478 409.334 103.601 407.053 103.57 L 399.916 103.456 L 399.96 82.314 L 424.401 78.235 C 424.482 93.852 424.545 104.268 424.545 109.833 C 418.899 110.901 415.115 111.345 412.819 113.922 C 411.326 115.61 411.5 118.151 413.172 119.671 C 414.837 121.205 416.692 120.289 419.034 119.421 L 419.003 119.443 C 421.394 118.357 429.283 117.065 439.177 116.424 C 441.46 116.273 443.193 114.306 443.047 112.018 Z " fill="rgb(247,248,249)"/><path d=" M 264.108 113.58 C 260.007 113.578 256.103 112.281 252.819 109.818 C 252.107 109.294 251.442 108.725 250.819 108.122 C 248.471 109.163 245.871 109.746 243.144 109.746 C 242.861 109.746 242.577 109.739 242.293 109.725 L 221.632 108.747 C 211.249 108.264 203.18 99.421 203.65 89.038 C 204.105 78.941 212.389 71.019 222.517 71.019 C 222.603 71.019 222.69 71.019 222.778 71.021 C 223.726 66.269 226.04 54.665 226.151 54.107 C 219.31 51.951 214.05 45.992 213.064 38.587 C 211.711 28.277 218.971 18.777 229.237 17.378 L 246.973 14.94 C 247.816 14.826 248.68 14.766 249.528 14.766 C 254.726 14.766 259.745 16.942 263.31 20.743 C 264.606 22.117 266.47 24.816 267.469 27.202 L 283.035 64.827 C 283.108 65.001 283.192 65.198 283.285 65.426 C 283.333 65.425 283.387 65.425 283.433 65.425 C 291.378 65.425 298.52 70.446 301.208 77.927 C 304.697 87.704 299.612 98.519 289.877 102.059 C 283.656 104.281 279.673 106.319 278.236 107.227 C 274.679 111.231 269.51 113.581 264.11 113.581 C 264.11 113.58 264.11 113.58 264.108 113.58 Z " fill="rgb(247,248,249)"/><path d=" M 282.041 80.403 C 280.813 80.839 278.439 82.03 274.757 83.648 C 274.757 83.648 269.612 70.813 269.43 70.495 L 253.852 32.833 C 253.697 32.431 252.828 31.105 252.56 30.82 C 251.638 29.837 250.302 29.355 248.979 29.539 L 231.221 31.98 C 228.953 32.288 227.377 34.377 227.671 36.639 C 227.975 38.913 230.055 40.491 232.328 40.2 C 232.328 40.2 238.937 39.25 244.293 38.527 C 242.758 46.079 236.641 76.952 234.723 86.34 L 222.704 85.756 C 220.421 85.657 218.475 87.417 218.369 89.71 C 218.271 91.991 220.046 93.92 222.33 94.027 L 242.952 95.004 C 245.236 95.103 247.175 93.34 247.289 91.063 C 247.392 88.765 246.057 86.697 243.103 86.697 L 244.051 80.38 L 263.212 77.205 L 267.314 87.348 C 264.19 89.135 262.24 90.264 260.779 92.225 C 259.414 94.071 259.806 96.66 261.647 98.019 C 263.472 99.389 266.075 99.004 267.446 97.164 C 269.286 94.682 277.113 90.973 284.842 88.208 C 286.991 87.429 288.107 85.053 287.337 82.903 C 286.567 80.757 284.187 79.633 282.041 80.403 Z  M 245.819 73.726 L 250.899 48.856 L 260.012 71.372 L 245.819 73.726 Z " fill="rgb(247,248,249)"/><path d=" M 293.396 125.426 C 283.168 125.426 274.698 117.091 274.521 106.852 C 274.394 98.466 279.759 91.264 287.276 88.682 L 287.265 83.104 C 286.706 83.239 286.137 83.35 285.561 83.437 C 284.632 83.579 283.683 83.65 282.753 83.65 C 273.34 83.65 265.493 76.888 264.092 67.579 L 260.932 47.256 C 260.094 41.87 261.648 36.374 265.197 32.188 C 268.693 28.019 273.882 25.577 279.384 25.514 L 305.745 25.073 C 318.554 24.831 329.983 24.023 330.6 23.98 C 330.688 23.967 330.777 23.962 330.868 23.958 C 331.275 23.934 331.684 23.917 332.087 23.917 C 337.138 23.917 342.05 25.976 345.569 29.566 C 349.361 33.374 351.339 38.755 350.923 44.239 C 350.568 48.936 350.455 56.364 350.439 58.165 C 350.649 65.811 346.468 72.728 339.662 75.901 C 337.145 77.087 334.295 77.736 331.477 77.736 L 331.477 77.736 C 329.236 77.736 327.048 77.327 325.015 76.574 L 325.038 88.423 C 332.2 91.045 337.391 97.895 337.502 105.911 C 337.58 110.956 335.671 115.74 332.133 119.362 C 328.601 122.977 323.875 125.001 318.824 125.047 C 318.824 125.048 293.466 125.426 293.396 125.426 Z " fill="rgb(247,248,249)"/><path d=" M 331.818 38.66 C 331.69 38.677 319.558 39.547 305.991 39.808 L 279.551 40.25 C 278.349 40.258 277.216 40.784 276.443 41.713 C 275.669 42.617 275.313 43.816 275.493 44.997 L 278.661 65.386 C 279.006 67.649 281.11 69.204 283.373 68.869 C 285.431 68.56 286.902 66.791 286.902 64.773 C 286.902 64.582 285.237 54.142 284.394 48.461 C 285.469 48.456 301.933 48.161 301.933 48.161 L 302.04 102.282 L 293.334 102.395 C 291.048 102.434 289.219 104.318 289.253 106.595 C 289.298 108.892 291.169 110.719 293.449 110.691 L 318.686 110.313 C 320.97 110.292 322.803 108.394 322.772 106.115 C 322.737 103.82 320.854 102.006 318.57 102.024 L 310.328 102.15 L 310.221 48.001 C 317.356 47.802 323.463 47.462 327.648 47.233 C 327.437 50.677 327.335 53.273 327.335 55.161 C 327.335 59.593 327.809 60.433 328.17 61.058 C 329.223 62.973 331.459 63.48 333.437 62.546 C 334.975 61.832 335.8 60.105 335.703 58.411 C 335.698 58.341 335.78 49.059 336.232 43.125 C 336.32 41.915 335.897 40.737 335.044 39.879 C 334.204 39.022 333.013 38.585 331.818 38.66 Z " fill="rgb(247,248,249)"/><path d=" M 138.557 133.779 C 117.298 133.774 105.071 117.891 103.899 102.111 C 103.864 101.63 103.849 101.223 103.846 100.899 L 103.696 93.239 C 103.696 93.173 103.846 81.766 103.846 81.766 C 103.847 81.411 103.864 81.016 103.892 80.61 C 104.984 65.424 110.242 54.827 119.526 49.116 C 123.953 46.387 128.978 45.005 134.445 45.005 C 136.323 45.005 138.116 45.174 139.781 45.438 C 143.242 41.525 148.301 39.052 153.925 39.052 C 164.338 39.052 172.802 47.523 172.802 57.936 L 172.802 75.875 C 172.802 77.809 172.507 79.692 171.946 81.479 C 174.469 84.568 176.042 88.465 176.193 92.707 L 176.309 94.885 C 176.326 95.149 176.331 95.416 176.331 95.685 C 176.331 95.731 176.277 100.773 176.021 102.675 L 176.021 102.675 C 175.47 106.534 174.286 112.062 171.775 116.448 C 170.041 119.492 168.217 121.657 166.643 123.452 C 163.192 127.313 159.311 129.427 155.958 130.993 C 150.35 133.64 145.496 133.685 141.951 133.719 L 139.787 133.762 C 139.378 133.772 138.969 133.78 138.561 133.78 C 138.559 133.779 138.558 133.779 138.557 133.779 Z " fill="rgb(247,248,249)"/><path d=" M 157.271 89.235 C 155 89.277 153.195 91.134 153.195 93.385 C 153.195 93.408 153.309 95.54 153.309 95.715 C 153.307 95.883 153.217 99.133 153.203 99.609 C 152.942 101.32 152.347 104.05 151.785 105.019 C 151.166 106.109 150.473 106.967 149.347 108.233 C 148.705 108.975 147.133 109.717 146.188 110.148 C 145.127 110.649 144.11 110.673 141.701 110.696 L 139.171 110.737 C 128.395 111.068 127.039 102.328 126.864 100.395 C 126.861 100.111 126.726 93.42 126.715 93.289 C 126.726 93.151 126.864 82.485 126.864 82.18 C 127.386 75.063 129.058 70.277 131.592 68.732 C 133.533 67.514 136.653 67.846 141.116 69.705 C 146.612 72.006 150.361 77.982 150.384 78.046 C 151.36 79.615 153.267 80.369 155.047 79.856 C 156.833 79.356 158.067 77.736 158.067 75.875 L 158.067 57.935 C 158.067 55.644 156.208 53.787 153.927 53.787 C 151.628 53.787 149.78 55.644 149.78 57.935 L 149.78 65.3 C 148.171 64.052 146.344 62.898 144.307 62.059 C 141.701 60.968 133.743 57.664 127.249 61.665 C 122.161 64.794 119.33 71.343 118.588 81.678 C 118.582 81.759 118.582 81.837 118.582 81.904 L 118.431 93.239 L 118.431 93.385 L 118.582 100.704 C 118.582 100.771 118.582 100.831 118.588 100.884 C 119.021 107.379 123.924 119.496 139.428 119.032 L 141.754 118.985 C 144.552 118.958 146.964 118.946 149.715 117.649 C 151.686 116.729 153.91 115.586 155.572 113.723 C 156.764 112.372 157.924 110.996 158.985 109.132 C 160.581 106.339 161.304 101.519 161.436 100.59 C 161.459 100.433 161.597 95.739 161.597 95.684 L 161.473 93.319 C 161.436 91.029 159.549 89.193 157.271 89.235 Z " fill="rgb(247,248,249)"/></g><path d=" M 87.411 72.945 C 82.657 72.203 80.141 69.038 81.39 59.198 L 81.542 58.01 C 82.596 49.452 83.502 47.581 87.583 47.791 C 88.804 47.868 90.19 48.623 91.585 49.763 C 92.843 51.245 95.722 53.169 97.307 56.994 C 98.469 59.781 98.865 61.599 99.011 63.557 C 99.025 63.62 99.288 65.958 99.288 65.958 L 99.29 65.956 C 99.604 67.594 100.89 68.943 102.627 69.257 C 104.871 69.658 107.029 68.165 107.435 65.914 C 107.469 65.657 108.493 39.763 108.499 39.333 C 108.512 37.054 106.673 35.198 104.392 35.173 C 102.092 35.168 100.229 37.012 100.219 39.303 C 100.219 39.351 100.199 42.905 100.135 46.516 C 96.889 42.966 92.698 39.787 88.039 39.524 C 75.499 38.836 74.139 50.353 73.324 56.999 L 73.179 58.166 C 71.512 71.258 75.876 79.534 86.141 81.137 C 97.308 82.896 104.765 85.464 104.836 92.335 C 104.864 94.989 103.471 97.727 101.005 99.842 C 98.065 102.362 94.091 103.488 90.39 102.865 C 89.24 102.68 88.144 102.389 87.119 102.023 C 85.635 101.216 81.96 98.982 80.091 96.391 C 78.511 94.206 77.975 90.77 77.799 88.598 C 77.821 87.63 77.832 86.982 77.836 86.895 C 77.862 84.618 76.038 82.744 73.75 82.7 C 71.464 82.658 69.57 84.485 69.54 86.783 C 69.54 86.861 69.415 94.965 69.144 99.853 C 68.711 107.717 69.132 114.389 69.144 114.672 C 69.303 116.958 71.264 118.694 73.548 118.542 C 75.842 118.399 77.562 116.425 77.421 114.148 C 77.421 114.087 77.211 110.883 77.241 106.398 C 80.268 108.346 84.237 110.236 89.026 111.044 C 95.203 112.077 101.531 110.294 106.386 106.134 C 110.72 102.426 113.182 97.359 113.129 92.248 C 112.962 76.946 95.719 74.252 87.411 72.945 Z " fill="rgb(249,167,55)"/><path d=" M 226.089 97.925 C 223.895 97.251 221.565 98.485 220.903 100.66 C 219.39 105.581 218.181 105.764 217.34 106.164 C 216.509 106.566 215.386 106.447 213.584 105.746 C 213.307 105.582 212.557 104.608 212.129 103.699 C 211.483 102.31 210.723 96.539 210.651 93.245 C 210.333 81.079 208.219 74.393 204.802 70.705 C 207.109 69.19 208.787 67.22 208.973 66.971 C 209.004 66.939 209.029 66.913 209.058 66.872 C 214.139 60.285 215.342 54.594 212.642 49.977 C 205.867 38.441 176.109 41.863 167.151 43.186 C 164.877 43.514 163.32 45.63 163.663 47.889 C 163.981 50.163 166.091 51.718 168.355 51.375 C 170.478 51.065 172.652 50.807 174.836 50.605 L 174.918 69.896 C 174.229 69.937 173.544 69.959 172.869 69.959 C 170.584 69.959 168.726 71.802 168.726 74.097 C 168.726 76.375 170.584 78.241 172.869 78.241 C 173.558 78.241 174.25 78.222 174.959 78.191 L 175.046 102.31 L 169.342 103.14 C 167.079 103.471 165.513 105.582 165.85 107.836 C 166.171 110.107 168.278 111.673 170.54 111.349 L 190.534 108.414 C 192.79 108.084 194.363 105.983 194.028 103.727 C 193.7 101.453 191.586 99.889 189.331 100.205 L 183.33 101.094 L 183.222 77.322 C 187.176 76.682 190.941 75.827 194.086 74.869 L 194.086 74.869 L 194.094 74.869 C 194.116 74.863 195.002 74.75 195.549 74.845 C 197.217 75.128 198.133 75.431 199.096 76.794 C 200.445 78.676 202.108 83.1 202.364 93.457 C 202.415 95.453 202.942 103.619 204.619 107.208 C 205.141 108.343 207.147 112.139 210.603 113.475 C 213.147 114.47 216.985 115.533 220.965 113.62 C 224.642 111.827 226.93 109.221 228.826 103.114 C 229.504 100.924 228.272 98.601 226.089 97.925 Z  M 202.534 60.93 C 202.165 61.36 201.107 62.476 200.008 63.131 C 198.99 63.73 197.597 64.145 196.254 64.557 L 194.148 65.229 C 191.227 66.268 187.36 67.355 183.202 68.118 L 183.126 49.272 C 194.082 48.97 203.644 50.198 205.491 53.363 C 205.662 53.634 205.735 53.982 205.735 54.393 C 205.735 55.906 204.608 58.244 202.534 60.93 Z " fill="rgb(249,167,55)"/><path d=" M 375.095 84.891 C 372.84 84.92 371.034 86.773 371.034 89.032 C 371.034 89.055 371.145 90.372 371.145 90.54 C 371.145 90.705 371.056 93.978 371.042 94.442 C 370.779 96.155 370.178 98.884 369.617 99.854 C 368.995 100.941 368.345 101.757 367.192 103.072 C 366.543 103.809 364.967 104.544 364.026 104.993 C 362.962 105.484 361.937 105.504 359.527 105.53 L 357.007 105.562 C 346.232 105.909 344.872 97.144 344.698 95.225 C 344.692 94.942 344.568 88.26 344.568 88.116 C 344.568 87.984 344.692 77.319 344.698 77.015 C 345.217 69.897 346.895 65.11 349.425 63.563 C 351.376 62.348 354.492 62.677 358.958 64.539 C 364.453 66.83 368.192 72.824 368.231 72.872 C 369.2 74.449 371.106 75.183 372.882 74.69 C 374.669 74.185 375.901 72.57 375.901 70.712 L 375.901 52.756 C 375.901 50.479 374.053 48.619 371.753 48.619 C 369.479 48.619 367.607 50.479 367.607 52.756 L 367.607 60.133 C 366.003 58.885 364.169 57.74 362.143 56.891 C 359.528 55.797 351.576 52.485 345.078 56.498 C 339.989 59.63 337.164 66.178 336.428 76.508 C 336.423 76.583 336.267 88.075 336.267 88.075 C 336.267 88.075 336.423 95.667 336.428 95.72 C 336.856 102.202 341.764 114.34 357.264 113.842 L 359.589 113.817 C 362.391 113.792 364.798 113.774 367.55 112.482 C 369.511 111.561 371.753 110.411 373.403 108.557 C 374.596 107.208 375.749 105.83 376.821 103.961 C 378.412 101.169 379.148 96.35 379.277 95.42 C 379.294 95.27 379.428 90.695 379.428 90.695 C 379.44 90.631 379.312 88.962 379.312 88.962 C 379.277 86.685 377.394 84.852 375.095 84.891 Z " fill="rgb(249,167,55)"/><path d=" M 443.047 112.018 C 442.9 109.739 440.928 108 438.646 108.148 C 437.105 108.252 435.08 108.405 432.824 108.647 C 432.832 101.565 432.758 87.298 432.474 40.993 L 438.855 40.904 C 441.134 40.865 442.964 38.968 442.931 36.682 C 442.895 34.4 441.009 32.57 438.723 32.602 L 417.157 32.968 C 414.862 33.019 413.047 34.895 413.087 37.185 C 413.116 39.47 415.009 41.303 417.287 41.258 L 424.175 41.133 C 424.24 50.195 424.289 59.964 424.348 69.846 L 399.977 73.92 L 400.021 48.177 L 406.645 48.177 C 408.939 48.177 410.8 46.318 410.8 44.023 C 410.8 41.739 408.939 39.879 406.645 39.879 L 384.884 39.879 C 382.596 39.879 380.745 41.739 380.745 44.023 C 380.745 46.318 382.596 48.177 384.884 48.177 L 391.732 48.177 L 391.634 103.315 L 384.665 103.194 C 382.382 103.156 380.496 104.983 380.455 107.29 C 380.427 109.558 382.244 111.439 384.531 111.479 L 406.916 111.855 C 409.203 111.887 411.087 110.058 411.124 107.774 C 411.158 105.478 409.334 103.601 407.053 103.57 L 399.916 103.456 L 399.96 82.314 L 424.401 78.235 C 424.482 93.852 424.545 104.268 424.545 109.833 C 418.899 110.901 415.115 111.345 412.819 113.922 C 411.326 115.61 411.5 118.151 413.172 119.671 C 414.837 121.205 416.692 120.289 419.034 119.421 L 419.003 119.443 C 421.394 118.357 429.283 117.065 439.177 116.424 C 441.46 116.273 443.193 114.306 443.047 112.018 Z " fill="rgb(249,167,55)"/><path d=" M 282.041 80.403 C 280.813 80.839 278.439 82.03 274.757 83.648 C 274.757 83.648 269.612 70.813 269.43 70.495 L 253.852 32.833 C 253.697 32.431 252.828 31.105 252.56 30.82 C 251.638 29.837 250.302 29.355 248.979 29.539 L 231.221 31.98 C 228.953 32.288 227.377 34.377 227.671 36.639 C 227.975 38.913 230.055 40.491 232.328 40.2 C 232.328 40.2 238.937 39.25 244.293 38.527 C 242.758 46.079 236.641 76.952 234.723 86.34 L 222.704 85.756 C 220.421 85.657 218.475 87.417 218.369 89.71 C 218.271 91.991 220.046 93.92 222.33 94.027 L 242.952 95.004 C 245.236 95.103 247.175 93.34 247.289 91.063 C 247.392 88.765 246.057 86.697 243.103 86.697 L 244.051 80.38 L 263.212 77.205 L 267.314 87.348 C 264.19 89.135 262.24 90.264 260.779 92.225 C 259.414 94.071 259.806 96.66 261.647 98.019 C 263.472 99.389 266.075 99.004 267.446 97.164 C 269.286 94.682 277.113 90.973 284.842 88.208 C 286.991 87.429 288.107 85.053 287.337 82.903 C 286.567 80.757 284.187 79.633 282.041 80.403 Z  M 245.819 73.726 L 250.899 48.856 L 260.012 71.372 L 245.819 73.726 Z " fill="rgb(249,167,55)"/><path d=" M 331.818 38.66 C 331.69 38.677 319.558 39.547 305.991 39.808 L 279.551 40.25 C 278.349 40.258 277.216 40.784 276.443 41.713 C 275.669 42.617 275.313 43.816 275.493 44.997 L 278.661 65.386 C 279.006 67.649 281.11 69.204 283.373 68.869 C 285.431 68.56 286.902 66.791 286.902 64.773 C 286.902 64.582 285.237 54.142 284.394 48.461 C 285.469 48.456 301.933 48.161 301.933 48.161 L 302.04 102.282 L 293.334 102.395 C 291.048 102.434 289.219 104.318 289.253 106.595 C 289.298 108.892 291.169 110.719 293.449 110.691 L 318.686 110.313 C 320.97 110.292 322.803 108.394 322.772 106.115 C 322.737 103.82 320.854 102.006 318.57 102.024 L 310.328 102.15 L 310.221 48.001 C 317.356 47.802 323.463 47.462 327.648 47.233 C 327.437 50.677 327.335 53.273 327.335 55.161 C 327.335 59.593 327.809 60.433 328.17 61.058 C 329.223 62.973 331.459 63.48 333.437 62.546 C 334.975 61.832 335.8 60.105 335.703 58.411 C 335.698 58.341 335.78 49.059 336.232 43.125 C 336.32 41.915 335.897 40.737 335.044 39.879 C 334.204 39.022 333.013 38.585 331.818 38.66 Z " fill="rgb(249,167,55)"/><path d=" M 157.271 89.235 C 155 89.277 153.195 91.134 153.195 93.385 C 153.195 93.408 153.309 95.54 153.309 95.715 C 153.307 95.883 153.217 99.133 153.203 99.609 C 152.942 101.32 152.347 104.05 151.785 105.019 C 151.166 106.109 150.473 106.967 149.347 108.233 C 148.705 108.975 147.133 109.717 146.188 110.148 C 145.127 110.649 144.11 110.673 141.701 110.696 L 139.171 110.737 C 128.395 111.068 127.039 102.328 126.864 100.395 C 126.861 100.111 126.726 93.42 126.715 93.289 C 126.726 93.151 126.864 82.485 126.864 82.18 C 127.386 75.063 129.058 70.277 131.592 68.732 C 133.533 67.514 136.653 67.846 141.116 69.705 C 146.612 72.006 150.361 77.982 150.384 78.046 C 151.36 79.615 153.267 80.369 155.047 79.856 C 156.833 79.356 158.067 77.736 158.067 75.875 L 158.067 57.935 C 158.067 55.644 156.208 53.787 153.927 53.787 C 151.628 53.787 149.78 55.644 149.78 57.935 L 149.78 65.3 C 148.171 64.052 146.344 62.898 144.307 62.059 C 141.701 60.968 133.743 57.664 127.249 61.665 C 122.161 64.794 119.33 71.343 118.588 81.678 C 118.582 81.759 118.582 81.837 118.582 81.904 L 118.431 93.239 L 118.431 93.385 L 118.582 100.704 C 118.582 100.771 118.582 100.831 118.588 100.884 C 119.021 107.379 123.924 119.496 139.428 119.032 L 141.754 118.985 C 144.552 118.958 146.964 118.946 149.715 117.649 C 151.686 116.729 153.91 115.586 155.572 113.723 C 156.764 112.372 157.924 110.996 158.985 109.132 C 160.581 106.339 161.304 101.519 161.436 100.59 C 161.459 100.433 161.597 95.739 161.597 95.684 L 161.473 93.319 C 161.436 91.029 159.549 89.193 157.271 89.235 Z " fill="rgb(249,167,55)"/></g></g></svg>