<?xml version="1.0" standalone="no"?><!-- Generator: Gravit.io --><svg xmlns="http://www.w3.org/2000/svg" xmlns:xlink="http://www.w3.org/1999/xlink" style="isolation:isolate" viewBox="0 0 256 256" width="256" height="256"><linearGradient id="_lgradient_5" x1="0%" y1="50%" x2="70.31418502375818%" y2="121.1049603364259%"><stop offset="0%" stop-opacity="1" style="stop-color:rgb(236,70,90)"/><stop offset="100%" stop-opacity="1" style="stop-color:rgb(156,45,96)"/></linearGradient><path d=" M 50.383 184.881 C 49.093 184.451 47.804 185.096 47.266 186.386 C 46.191 189.503 45.224 192.942 44.472 196.489 C 44.257 197.779 45.009 199.069 46.299 199.283 L 46.729 199.283 C 47.804 199.283 48.878 198.531 49.093 197.349 C 49.738 193.91 50.706 190.793 51.673 187.891 C 52.318 186.708 51.673 185.311 50.383 184.881 L 50.383 184.881 Z  M 226.113 140.707 C 225.145 138.127 223.318 136.085 220.846 134.903 L 191.397 121.038 C 189.999 120.393 188.495 120.071 186.99 120.071 C 183.013 120.071 179.359 122.435 177.639 125.982 L 161.195 160.913 C 158.293 159.838 155.928 158.764 153.994 157.581 L 153.886 157.581 C 151.414 156.077 149.587 154.357 148.19 152.422 C 146.47 149.843 145.073 147.156 143.998 144.254 C 152.596 134.796 161.195 121.253 161.517 112.87 C 167.966 109.645 170.653 103.841 171.728 99.327 C 173.233 93.308 172.695 86.107 170.546 83.528 C 169.793 82.56 168.611 82.023 167.321 81.916 C 165.387 81.808 163.237 82.775 161.517 83.85 L 161.517 72.35 C 161.517 71.168 161.84 56.12 151.522 45.265 C 144.75 38.171 134.97 34.517 122.395 34.517 C 109.819 34.517 100.146 38.171 93.268 45.265 C 82.842 56.12 83.164 71.06 83.272 72.35 L 83.272 84.065 C 81.445 82.883 79.295 81.808 77.361 81.916 C 76.071 82.023 74.996 82.56 74.244 83.528 C 72.309 85.892 71.449 92.986 73.169 99.65 C 74.781 105.884 78.22 110.505 83.272 112.977 C 83.702 121.361 92.3 134.903 100.899 144.254 C 99.931 147.048 98.534 149.735 96.814 152.315 C 96.599 152.53 96.492 152.745 96.277 153.067 C 96.062 153.175 95.955 153.39 95.847 153.605 C 91.118 159.194 82.412 161.666 70.589 164.89 C 67.257 165.857 63.711 166.825 59.841 168.007 C 57.262 168.759 54.575 169.619 51.78 170.694 C 29.21 178.54 31.789 219.49 31.897 221.209 L 32.004 223.466 L 212.785 223.466 L 212.893 221.209 C 212.893 220.457 214.182 201.97 208.379 187.353 C 208.271 187.031 208.056 186.708 207.734 186.493 L 225.575 148.66 C 226.876 146.206 227.071 143.314 226.113 140.707 L 226.113 140.707 Z  M 97.567 158.656 C 101.651 164.03 109.39 170.909 122.287 170.909 C 135.507 170.909 143.138 163.708 147.008 158.441 C 147.652 159.086 148.405 159.623 149.157 160.161 C 145.18 165.32 138.517 171.016 128.306 172.628 C 126.909 172.843 125.404 173.918 122.717 178.647 C 122.502 179.077 122.18 179.077 121.965 179.077 C 121.75 179.077 121.427 179.077 121.212 178.647 C 117.988 173.488 116.268 172.521 114.979 172.306 C 105.52 170.371 99.394 164.782 95.632 160.268 C 96.277 159.838 96.922 159.301 97.567 158.656 L 97.567 158.656 Z  M 104.66 147.908 C 109.68 151.772 115.845 153.852 122.18 153.82 L 122.395 153.82 C 128.843 153.82 135.077 151.67 140.129 147.801 C 141.096 150.165 142.386 152.53 143.783 154.679 C 140.774 159.086 134.217 166.072 122.287 166.072 C 110.679 166.072 104.123 159.623 100.791 155.002 C 102.403 152.745 103.693 150.38 104.66 147.908 L 104.66 147.908 Z  M 166.891 86.752 C 167.644 88.042 168.396 93.416 166.891 98.897 C 166.139 101.584 164.634 104.809 161.517 107.173 L 161.517 89.869 C 163.452 88.257 165.924 86.752 166.891 86.752 Z  M 78.005 99.327 C 76.286 93.523 77.253 88.149 77.898 86.86 C 78.865 86.967 81.337 88.579 83.164 90.299 C 83.164 90.299 83.272 90.299 83.272 90.406 L 83.272 107.496 C 80.8 105.561 79.08 102.874 78.005 99.327 L 78.005 99.327 Z  M 88.109 94.276 L 89.828 94.276 L 89.828 75.467 C 89.828 72.457 106.81 65.041 118.095 70.523 C 120.782 71.812 123.899 71.812 126.586 70.523 C 137.872 65.041 154.854 72.35 154.854 75.467 L 154.854 94.276 L 156.573 94.276 L 156.573 112.44 C 156.573 118.566 149.265 131.356 139.914 141.459 C 135.507 146.296 129.058 148.983 122.395 148.983 L 122.18 148.983 C 115.516 148.983 109.175 146.188 104.66 141.459 C 95.31 131.356 88.001 118.566 88.001 112.44 L 88.001 94.276 L 88.109 94.276 L 88.109 94.276 Z  M 70.159 218.63 L 70.159 210.999 C 72.309 211.859 73.814 214.008 73.814 216.48 L 73.814 218.63 L 70.159 218.63 Z  M 174.307 218.63 L 170.653 218.63 L 170.653 216.48 C 170.653 214.008 172.158 211.859 174.307 210.999 L 174.307 218.63 Z  M 208.271 218.63 L 202.682 218.63 L 202.682 216.48 C 202.682 215.191 201.5 214.116 200.21 214.116 C 198.92 214.116 197.845 215.298 197.845 216.588 L 197.845 218.63 L 179.037 218.63 L 179.037 202.83 C 179.037 201.541 177.962 200.466 176.672 200.466 C 175.382 200.466 174.307 201.541 174.307 202.83 L 174.307 206.055 C 169.471 207.13 165.816 211.429 165.816 216.588 L 165.816 218.737 L 78.65 218.737 L 78.65 216.588 C 78.65 211.429 74.996 207.13 70.159 206.055 L 70.159 202.83 C 70.159 201.541 69.085 200.466 67.795 200.466 C 66.505 200.466 65.43 201.541 65.43 202.83 L 65.43 218.63 L 46.836 218.63 C 47.159 218.2 47.374 217.77 47.374 217.233 C 47.481 213.793 47.696 210.461 48.019 207.237 C 48.126 205.947 47.159 204.765 45.869 204.55 C 44.579 204.443 43.397 205.41 43.182 206.7 C 42.86 210.031 42.645 213.471 42.537 217.018 C 42.537 217.555 42.752 218.092 43.075 218.522 L 36.733 218.522 C 36.518 210.246 37.056 181.872 52.748 175.423 C 52.533 175.745 52.318 176.175 52.103 176.498 C 51.458 177.68 51.78 179.077 52.855 179.83 C 53.285 180.045 53.715 180.152 54.145 180.152 C 55.005 180.152 55.757 179.722 56.187 178.97 C 58.767 174.671 61.131 172.843 61.883 172.306 C 65.538 171.231 68.977 170.264 72.202 169.297 C 79.725 167.147 86.389 165.32 91.763 162.633 C 95.847 167.899 103.048 174.563 114.011 176.928 C 114.226 177.143 115.301 177.895 117.343 181.227 C 118.418 182.839 120.245 183.914 122.18 183.914 L 122.287 183.914 C 124.329 183.914 126.156 182.839 127.124 181.119 C 128.628 178.54 129.488 177.68 129.703 177.358 C 141.419 175.315 148.942 168.652 153.456 162.74 C 155.391 163.708 157.326 164.568 159.26 165.32 L 156.788 170.586 C 155.614 173.066 155.476 175.91 156.404 178.492 C 157.331 181.073 159.249 183.179 161.732 184.344 L 191.182 198.209 C 192.579 198.854 194.084 199.176 195.588 199.176 L 196.448 199.176 C 196.878 201.541 197.201 204.013 197.523 206.7 C 197.631 207.989 198.705 208.849 199.888 208.849 L 200.103 208.849 C 201.392 208.742 202.36 207.559 202.252 206.162 C 201.93 203.26 201.5 200.358 200.962 197.671 C 202.575 196.596 203.972 195.092 204.832 193.265 L 205.262 192.297 C 208.271 202.4 208.379 213.901 208.271 218.63 L 208.271 218.63 Z  M 221.384 146.618 L 200.318 191.223 C 199.697 192.54 198.575 193.554 197.202 194.038 C 195.829 194.523 194.319 194.438 193.009 193.802 L 163.559 179.937 C 162.231 179.327 161.201 178.213 160.697 176.841 C 160.192 175.47 160.256 173.953 160.872 172.628 L 164.419 164.997 L 181.831 128.024 C 182.452 126.707 183.574 125.693 184.947 125.209 C 186.32 124.724 187.83 124.809 189.14 125.445 L 218.589 139.31 C 219.879 139.955 220.954 141.029 221.384 142.427 C 222.028 143.716 222.028 145.221 221.384 146.618 L 221.384 146.618 Z " fill="url(#_lgradient_5)"/></svg>