<?xml version="1.0" standalone="no"?><!-- Generator: Gravit.io --><svg xmlns="http://www.w3.org/2000/svg" xmlns:xlink="http://www.w3.org/1999/xlink" style="isolation:isolate" viewBox="0 0 140 116" width="140" height="116"><defs><clipPath id="_clipPath_XYkCGjdoD8h4pk14VSJZhcIXHdHSsEWr"><rect width="140" height="116"/></clipPath></defs><g clip-path="url(#_clipPath_XYkCGjdoD8h4pk14VSJZhcIXHdHSsEWr)"><g style="isolation:isolate" id="Layer 1"><path d=" M 30.897 60.293 C 21.296 65.418 15.806 72.573 18.138 76.942 C 20.846 82.014 25.381 79.178 33.079 75.068 C 35.994 73.512 40.928 73.11 44.301 72.47 C 47.224 71.919 49.887 71.409 51.746 70.416 C 52.763 69.873 53.536 69.182 53.977 68.261 C 54.688 66.792 54.416 65.037 53.129 62.9 C 49.964 57.595 42.463 54.118 30.897 60.293 Z " fill="rgb(76,151,255)" vector-effect="non-scaling-stroke" stroke-width="10" stroke="rgb(76,151,255)" stroke-linejoin="miter" stroke-linecap="butt" stroke-miterlimit="4"/><path d=" M 88.4 93.356 C 78.799 98.482 69.799 99.062 67.467 94.694 C 64.759 89.622 69.639 87.431 77.337 83.322 C 80.252 81.766 83.331 77.89 85.739 75.443 C 87.824 73.321 89.732 71.391 91.588 70.4 C 92.606 69.857 93.611 69.599 94.621 69.745 C 96.238 69.972 97.544 71.174 98.603 73.432 C 101.251 79.014 99.966 87.182 88.4 93.356 Z " fill="rgb(255,191,0)" vector-effect="non-scaling-stroke" stroke-width="10" stroke="rgb(76,151,255)" stroke-linejoin="miter" stroke-linecap="butt" stroke-miterlimit="4"/><path d=" M 57.889 61.823 C 56.752 62.43 55.325 61.997 54.718 60.86 C 54.111 59.722 54.544 58.295 55.681 57.688 C 56.818 57.081 58.246 57.515 58.853 58.652 C 59.46 59.789 59.026 61.216 57.889 61.823 Z " fill="rgb(69,136,230)" vector-effect="non-scaling-stroke" stroke-width="10" stroke="rgb(76,151,255)" stroke-linejoin="miter" stroke-linecap="butt" stroke-miterlimit="4"/><path d=" M 61.2 68.026 C 60.063 68.633 58.636 68.199 58.029 67.062 C 57.422 65.925 57.855 64.498 58.993 63.891 C 60.13 63.284 61.557 63.717 62.164 64.855 C 62.771 65.992 62.337 67.419 61.2 68.026 Z " fill="rgb(69,136,230)" vector-effect="non-scaling-stroke" stroke-width="10" stroke="rgb(76,151,255)" stroke-linejoin="miter" stroke-linecap="butt" stroke-miterlimit="4"/><path d=" M 52.51 56.725 C 51.373 57.332 49.946 56.898 49.339 55.761 C 48.732 54.624 49.165 53.197 50.303 52.59 C 51.44 51.982 52.867 52.416 53.474 53.553 C 54.081 54.69 53.647 56.117 52.51 56.725 Z " fill="rgb(69,136,230)" vector-effect="non-scaling-stroke" stroke-width="10" stroke="rgb(76,151,255)" stroke-linejoin="miter" stroke-linecap="butt" stroke-miterlimit="4"/><path d=" M 46.168 54.797 C 45.03 55.404 43.603 54.97 42.996 53.833 C 42.389 52.696 42.823 51.269 43.96 50.662 C 45.097 50.055 46.524 50.489 47.131 51.626 C 47.738 52.763 47.305 54.19 46.168 54.797 Z " fill="rgb(69,136,230)" vector-effect="non-scaling-stroke" stroke-width="10" stroke="rgb(76,151,255)" stroke-linejoin="miter" stroke-linecap="butt" stroke-miterlimit="4"/><path d=" M 102.025 70.142 C 100.896 70.745 100.454 72.176 101.061 73.313 C 101.668 74.45 103.103 74.88 104.232 74.277 C 105.371 73.669 105.803 72.243 105.196 71.106 C 104.589 69.969 103.164 69.534 102.025 70.142 Z " fill="rgb(230,172,0)" vector-effect="non-scaling-stroke" stroke-width="10" stroke="rgb(76,151,255)" stroke-linejoin="miter" stroke-linecap="butt" stroke-miterlimit="4"/><path d=" M 98.713 63.94 C 97.584 64.542 97.142 65.974 97.75 67.111 C 98.357 68.248 99.792 68.677 100.921 68.075 C 102.06 67.466 102.492 66.04 101.885 64.903 C 101.278 63.766 99.853 63.331 98.713 63.94 Z " fill="rgb(230,172,0)" vector-effect="non-scaling-stroke" stroke-width="10" stroke="rgb(76,151,255)" stroke-linejoin="miter" stroke-linecap="butt" stroke-miterlimit="4"/><path d=" M 103.268 77.448 C 102.14 78.051 101.698 79.482 102.305 80.62 C 102.912 81.757 104.347 82.186 105.476 81.583 C 106.615 80.975 107.047 79.549 106.44 78.412 C 105.833 77.275 104.408 76.84 103.268 77.448 Z " fill="rgb(230,172,0)" vector-effect="non-scaling-stroke" stroke-width="10" stroke="rgb(76,151,255)" stroke-linejoin="miter" stroke-linecap="butt" stroke-miterlimit="4"/><path d=" M 101.341 83.791 C 100.212 84.394 99.77 85.825 100.377 86.962 C 100.984 88.099 102.42 88.529 103.548 87.926 C 104.688 87.318 105.119 85.892 104.512 84.755 C 103.905 83.617 102.48 83.183 101.341 83.791 Z " fill="rgb(230,172,0)" vector-effect="non-scaling-stroke" stroke-width="10" stroke="rgb(76,151,255)" stroke-linejoin="miter" stroke-linecap="butt" stroke-miterlimit="4"/><path d=" M 90.855 28.283 C 81.253 33.409 75.764 40.564 78.096 44.933 C 80.804 50.004 85.339 47.169 93.036 43.059 C 95.952 41.503 100.886 41.101 104.258 40.461 C 107.182 39.91 109.845 39.4 111.703 38.407 C 112.721 37.864 113.494 37.173 113.935 36.252 C 114.646 34.783 114.374 33.028 113.087 30.891 C 109.922 25.586 102.42 22.109 90.855 28.283 Z " fill="rgb(207,99,207)" vector-effect="non-scaling-stroke" stroke-width="10" stroke="rgb(76,151,255)" stroke-linejoin="miter" stroke-linecap="butt" stroke-miterlimit="4"/><path d=" M 117.846 29.814 C 116.709 30.421 115.282 29.988 114.675 28.85 C 114.068 27.713 114.502 26.286 115.639 25.679 C 116.776 25.072 118.203 25.506 118.81 26.643 C 119.417 27.78 118.984 29.207 117.846 29.814 Z " fill="rgb(187,89,187)" vector-effect="non-scaling-stroke" stroke-width="10" stroke="rgb(76,151,255)" stroke-linejoin="miter" stroke-linecap="butt" stroke-miterlimit="4"/><path d=" M 121.158 36.017 C 120.021 36.624 118.594 36.19 117.987 35.053 C 117.379 33.916 117.813 32.489 118.95 31.882 C 120.087 31.275 121.514 31.708 122.122 32.845 C 122.729 33.983 122.295 35.41 121.158 36.017 Z " fill="rgb(187,89,187)" vector-effect="non-scaling-stroke" stroke-width="10" stroke="rgb(76,151,255)" stroke-linejoin="miter" stroke-linecap="butt" stroke-miterlimit="4"/><path d=" M 112.468 24.715 C 111.331 25.323 109.904 24.889 109.296 23.752 C 108.689 22.615 109.123 21.187 110.26 20.58 C 111.397 19.973 112.824 20.407 113.431 21.544 C 114.039 22.681 113.605 24.108 112.468 24.715 Z " fill="rgb(187,89,187)" vector-effect="non-scaling-stroke" stroke-width="10" stroke="rgb(76,151,255)" stroke-linejoin="miter" stroke-linecap="butt" stroke-miterlimit="4"/><path d=" M 106.125 22.788 C 104.988 23.395 103.561 22.961 102.954 21.824 C 102.347 20.687 102.781 19.26 103.918 18.653 C 105.055 18.046 106.482 18.48 107.089 19.617 C 107.696 20.754 107.262 22.181 106.125 22.788 Z " fill="rgb(187,89,187)" vector-effect="non-scaling-stroke" stroke-width="10" stroke="rgb(76,151,255)" stroke-linejoin="miter" stroke-linecap="butt" stroke-miterlimit="4"/><path d=" M 30.897 60.293 C 21.296 65.418 15.806 72.573 18.138 76.942 C 20.846 82.014 25.381 79.178 33.079 75.068 C 35.994 73.512 40.928 73.11 44.301 72.47 C 47.224 71.919 49.887 71.409 51.746 70.416 C 52.763 69.873 53.536 69.182 53.977 68.261 C 54.688 66.792 54.416 65.037 53.129 62.9 C 49.964 57.595 42.463 54.118 30.897 60.293 Z " fill="rgb(76,151,255)" vector-effect="non-scaling-stroke" stroke-width="7" stroke="rgb(255,255,255)" stroke-linejoin="miter" stroke-linecap="butt" stroke-miterlimit="4"/><path d=" M 88.4 93.356 C 78.799 98.482 69.799 99.062 67.467 94.694 C 64.759 89.622 69.639 87.431 77.337 83.322 C 80.252 81.766 83.331 77.89 85.739 75.443 C 87.824 73.321 89.732 71.391 91.588 70.4 C 92.606 69.857 93.611 69.599 94.621 69.745 C 96.238 69.972 97.544 71.174 98.603 73.432 C 101.251 79.014 99.966 87.182 88.4 93.356 Z " fill="rgb(255,191,0)" vector-effect="non-scaling-stroke" stroke-width="7" stroke="rgb(255,255,255)" stroke-linejoin="miter" stroke-linecap="butt" stroke-miterlimit="4"/><path d=" M 57.889 61.823 C 56.752 62.43 55.325 61.997 54.718 60.86 C 54.111 59.722 54.544 58.295 55.681 57.688 C 56.818 57.081 58.246 57.515 58.853 58.652 C 59.46 59.789 59.026 61.216 57.889 61.823 Z " fill="rgb(69,136,230)" vector-effect="non-scaling-stroke" stroke-width="7" stroke="rgb(255,255,255)" stroke-linejoin="miter" stroke-linecap="butt" stroke-miterlimit="4"/><path d=" M 61.2 68.026 C 60.063 68.633 58.636 68.199 58.029 67.062 C 57.422 65.925 57.855 64.498 58.993 63.891 C 60.13 63.284 61.557 63.717 62.164 64.855 C 62.771 65.992 62.337 67.419 61.2 68.026 Z " fill="rgb(69,136,230)" vector-effect="non-scaling-stroke" stroke-width="7" stroke="rgb(255,255,255)" stroke-linejoin="miter" stroke-linecap="butt" stroke-miterlimit="4"/><path d=" M 52.51 56.725 C 51.373 57.332 49.946 56.898 49.339 55.761 C 48.732 54.624 49.165 53.197 50.303 52.59 C 51.44 51.982 52.867 52.416 53.474 53.553 C 54.081 54.69 53.647 56.117 52.51 56.725 Z " fill="rgb(69,136,230)" vector-effect="non-scaling-stroke" stroke-width="7" stroke="rgb(255,255,255)" stroke-linejoin="miter" stroke-linecap="butt" stroke-miterlimit="4"/><path d=" M 46.168 54.797 C 45.03 55.404 43.603 54.97 42.996 53.833 C 42.389 52.696 42.823 51.269 43.96 50.662 C 45.097 50.055 46.524 50.489 47.131 51.626 C 47.738 52.763 47.305 54.19 46.168 54.797 Z " fill="rgb(69,136,230)" vector-effect="non-scaling-stroke" stroke-width="7" stroke="rgb(255,255,255)" stroke-linejoin="miter" stroke-linecap="butt" stroke-miterlimit="4"/><path d=" M 102.025 70.142 C 100.896 70.745 100.454 72.176 101.061 73.313 C 101.668 74.45 103.103 74.88 104.232 74.277 C 105.371 73.669 105.803 72.243 105.196 71.106 C 104.589 69.969 103.164 69.534 102.025 70.142 Z " fill="rgb(230,172,0)" vector-effect="non-scaling-stroke" stroke-width="7" stroke="rgb(255,255,255)" stroke-linejoin="miter" stroke-linecap="butt" stroke-miterlimit="4"/><path d=" M 98.713 63.94 C 97.584 64.542 97.142 65.974 97.75 67.111 C 98.357 68.248 99.792 68.677 100.921 68.075 C 102.06 67.466 102.492 66.04 101.885 64.903 C 101.278 63.766 99.853 63.331 98.713 63.94 Z " fill="rgb(230,172,0)" vector-effect="non-scaling-stroke" stroke-width="7" stroke="rgb(255,255,255)" stroke-linejoin="miter" stroke-linecap="butt" stroke-miterlimit="4"/><path d=" M 103.268 77.448 C 102.14 78.051 101.698 79.482 102.305 80.62 C 102.912 81.757 104.347 82.186 105.476 81.583 C 106.615 80.975 107.047 79.549 106.44 78.412 C 105.833 77.275 104.408 76.84 103.268 77.448 Z " fill="rgb(230,172,0)" vector-effect="non-scaling-stroke" stroke-width="7" stroke="rgb(255,255,255)" stroke-linejoin="miter" stroke-linecap="butt" stroke-miterlimit="4"/><path d=" M 101.341 83.791 C 100.212 84.394 99.77 85.825 100.377 86.962 C 100.984 88.099 102.42 88.529 103.548 87.926 C 104.688 87.318 105.119 85.892 104.512 84.755 C 103.905 83.617 102.48 83.183 101.341 83.791 Z " fill="rgb(230,172,0)" vector-effect="non-scaling-stroke" stroke-width="7" stroke="rgb(255,255,255)" stroke-linejoin="miter" stroke-linecap="butt" stroke-miterlimit="4"/><path d=" M 90.855 28.283 C 81.253 33.409 75.764 40.564 78.096 44.933 C 80.804 50.004 85.339 47.169 93.036 43.059 C 95.952 41.503 100.886 41.101 104.258 40.461 C 107.182 39.91 109.845 39.4 111.703 38.407 C 112.721 37.864 113.494 37.173 113.935 36.252 C 114.646 34.783 114.374 33.028 113.087 30.891 C 109.922 25.586 102.42 22.109 90.855 28.283 Z " fill="rgb(207,99,207)" vector-effect="non-scaling-stroke" stroke-width="7" stroke="rgb(255,255,255)" stroke-linejoin="miter" stroke-linecap="butt" stroke-miterlimit="4"/><path d=" M 117.846 29.814 C 116.709 30.421 115.282 29.988 114.675 28.85 C 114.068 27.713 114.502 26.286 115.639 25.679 C 116.776 25.072 118.203 25.506 118.81 26.643 C 119.417 27.78 118.984 29.207 117.846 29.814 Z " fill="rgb(187,89,187)" vector-effect="non-scaling-stroke" stroke-width="7" stroke="rgb(255,255,255)" stroke-linejoin="miter" stroke-linecap="butt" stroke-miterlimit="4"/><path d=" M 121.158 36.017 C 120.021 36.624 118.594 36.19 117.987 35.053 C 117.379 33.916 117.813 32.489 118.95 31.882 C 120.087 31.275 121.514 31.708 122.122 32.845 C 122.729 33.983 122.295 35.41 121.158 36.017 Z " fill="rgb(187,89,187)" vector-effect="non-scaling-stroke" stroke-width="7" stroke="rgb(255,255,255)" stroke-linejoin="miter" stroke-linecap="butt" stroke-miterlimit="4"/><path d=" M 112.468 24.715 C 111.331 25.323 109.904 24.889 109.296 23.752 C 108.689 22.615 109.123 21.187 110.26 20.58 C 111.397 19.973 112.824 20.407 113.431 21.544 C 114.039 22.681 113.605 24.108 112.468 24.715 Z " fill="rgb(187,89,187)" vector-effect="non-scaling-stroke" stroke-width="7" stroke="rgb(255,255,255)" stroke-linejoin="miter" stroke-linecap="butt" stroke-miterlimit="4"/><path d=" M 106.125 22.788 C 104.988 23.395 103.561 22.961 102.954 21.824 C 102.347 20.687 102.781 19.26 103.918 18.653 C 105.055 18.046 106.482 18.48 107.089 19.617 C 107.696 20.754 107.262 22.181 106.125 22.788 Z " fill="rgb(187,89,187)" vector-effect="non-scaling-stroke" stroke-width="7" stroke="rgb(255,255,255)" stroke-linejoin="miter" stroke-linecap="butt" stroke-miterlimit="4"/><path d=" M 30.897 60.293 C 21.296 65.418 15.806 72.573 18.138 76.942 C 20.846 82.014 25.381 79.178 33.079 75.068 C 35.994 73.512 40.928 73.11 44.301 72.47 C 47.224 71.919 49.887 71.409 51.746 70.416 C 52.763 69.873 53.536 69.182 53.977 68.261 C 54.688 66.792 54.416 65.037 53.129 62.9 C 49.964 57.595 42.463 54.118 30.897 60.293 Z " fill="rgb(76,151,255)"/><path d=" M 88.4 93.356 C 78.799 98.482 69.799 99.062 67.467 94.694 C 64.759 89.622 69.639 87.431 77.337 83.322 C 80.252 81.766 83.331 77.89 85.739 75.443 C 87.824 73.321 89.732 71.391 91.588 70.4 C 92.606 69.857 93.611 69.599 94.621 69.745 C 96.238 69.972 97.544 71.174 98.603 73.432 C 101.251 79.014 99.966 87.182 88.4 93.356 Z " fill="rgb(255,191,0)"/><path d=" M 57.889 61.823 C 56.752 62.43 55.325 61.997 54.718 60.86 C 54.111 59.722 54.544 58.295 55.681 57.688 C 56.818 57.081 58.246 57.515 58.853 58.652 C 59.46 59.789 59.026 61.216 57.889 61.823 Z " fill="rgb(69,136,230)"/><path d=" M 61.2 68.026 C 60.063 68.633 58.636 68.199 58.029 67.062 C 57.422 65.925 57.855 64.498 58.993 63.891 C 60.13 63.284 61.557 63.717 62.164 64.855 C 62.771 65.992 62.337 67.419 61.2 68.026 Z " fill="rgb(69,136,230)"/><path d=" M 52.51 56.725 C 51.373 57.332 49.946 56.898 49.339 55.761 C 48.732 54.624 49.165 53.197 50.303 52.59 C 51.44 51.982 52.867 52.416 53.474 53.553 C 54.081 54.69 53.647 56.117 52.51 56.725 Z " fill="rgb(69,136,230)"/><path d=" M 46.168 54.797 C 45.03 55.404 43.603 54.97 42.996 53.833 C 42.389 52.696 42.823 51.269 43.96 50.662 C 45.097 50.055 46.524 50.489 47.131 51.626 C 47.738 52.763 47.305 54.19 46.168 54.797 Z " fill="rgb(69,136,230)"/><path d=" M 102.025 70.142 C 100.896 70.745 100.454 72.176 101.061 73.313 C 101.668 74.45 103.103 74.88 104.232 74.277 C 105.371 73.669 105.803 72.243 105.196 71.106 C 104.589 69.969 103.164 69.534 102.025 70.142 Z " fill="rgb(230,172,0)"/><path d=" M 98.713 63.94 C 97.584 64.542 97.142 65.974 97.75 67.111 C 98.357 68.248 99.792 68.677 100.921 68.075 C 102.06 67.466 102.492 66.04 101.885 64.903 C 101.278 63.766 99.853 63.331 98.713 63.94 Z " fill="rgb(230,172,0)"/><path d=" M 103.268 77.448 C 102.14 78.051 101.698 79.482 102.305 80.62 C 102.912 81.757 104.347 82.186 105.476 81.583 C 106.615 80.975 107.047 79.549 106.44 78.412 C 105.833 77.275 104.408 76.84 103.268 77.448 Z " fill="rgb(230,172,0)"/><path d=" M 101.341 83.791 C 100.212 84.394 99.77 85.825 100.377 86.962 C 100.984 88.099 102.42 88.529 103.548 87.926 C 104.688 87.318 105.119 85.892 104.512 84.755 C 103.905 83.617 102.48 83.183 101.341 83.791 Z " fill="rgb(230,172,0)"/><path d=" M 90.855 28.283 C 81.253 33.409 75.764 40.564 78.096 44.933 C 80.804 50.004 85.339 47.169 93.036 43.059 C 95.952 41.503 100.886 41.101 104.258 40.461 C 107.182 39.91 109.845 39.4 111.703 38.407 C 112.721 37.864 113.494 37.173 113.935 36.252 C 114.646 34.783 114.374 33.028 113.087 30.891 C 109.922 25.586 102.42 22.109 90.855 28.283 Z " fill="rgb(207,99,207)"/><path d=" M 117.846 29.814 C 116.709 30.421 115.282 29.988 114.675 28.85 C 114.068 27.713 114.502 26.286 115.639 25.679 C 116.776 25.072 118.203 25.506 118.81 26.643 C 119.417 27.78 118.984 29.207 117.846 29.814 Z " fill="rgb(187,89,187)"/><path d=" M 121.158 36.017 C 120.021 36.624 118.594 36.19 117.987 35.053 C 117.379 33.916 117.813 32.489 118.95 31.882 C 120.087 31.275 121.514 31.708 122.122 32.845 C 122.729 33.983 122.295 35.41 121.158 36.017 Z " fill="rgb(187,89,187)"/><path d=" M 112.468 24.715 C 111.331 25.323 109.904 24.889 109.296 23.752 C 108.689 22.615 109.123 21.187 110.26 20.58 C 111.397 19.973 112.824 20.407 113.431 21.544 C 114.039 22.681 113.605 24.108 112.468 24.715 Z " fill="rgb(187,89,187)"/><path d=" M 106.125 22.788 C 104.988 23.395 103.561 22.961 102.954 21.824 C 102.347 20.687 102.781 19.26 103.918 18.653 C 105.055 18.046 106.482 18.48 107.089 19.617 C 107.696 20.754 107.262 22.181 106.125 22.788 Z " fill="rgb(187,89,187)"/></g></g></svg>