<?xml version="1.0" standalone="no"?><!-- Generator: Gravit.io --><svg xmlns="http://www.w3.org/2000/svg" xmlns:xlink="http://www.w3.org/1999/xlink" style="isolation:isolate" viewBox="0 0 256 256" width="256" height="256"><linearGradient id="_lgradient_0" x1="0%" y1="50%" x2="70.31418502375818%" y2="121.1049603364259%"><stop offset="0%" stop-opacity="1" style="stop-color:rgb(236,70,90)"/><stop offset="100%" stop-opacity="1" style="stop-color:rgb(156,45,96)"/></linearGradient><path d=" M 242.121 71.853 L 234.451 71.853 L 234.451 55.896 C 234.451 54.252 233.15 52.951 231.506 52.951 L 155.693 52.951 C 144.462 52.951 134.669 59.526 130.012 68.977 C 125.355 59.526 115.63 52.951 104.33 52.951 L 28.586 52.951 C 26.942 52.951 25.641 54.252 25.641 55.896 L 25.641 71.853 L 17.971 71.853 C 16.327 71.853 15.026 73.154 15.026 74.798 L 15.026 208.754 C 15.026 210.397 16.327 211.699 17.971 211.699 L 242.053 211.699 C 243.696 211.699 244.997 210.397 244.997 208.754 L 244.997 74.798 C 245.066 73.154 243.765 71.853 242.121 71.853 L 242.121 71.853 Z  M 133.025 81.578 C 133.025 69.045 143.229 58.909 155.693 58.909 L 228.493 58.909 L 228.493 195.262 L 133.025 195.262 L 133.025 81.578 Z  M 31.599 58.909 L 104.399 58.909 C 116.931 58.909 127.067 69.114 127.067 81.578 L 127.067 195.262 L 31.599 195.262 L 31.599 58.909 Z  M 20.916 77.811 L 25.573 77.811 L 25.573 198.344 C 25.573 198.686 25.641 198.96 25.778 199.303 C 25.778 199.371 25.847 199.44 25.847 199.577 C 25.847 199.645 25.915 199.714 25.915 199.782 L 29.339 205.877 L 20.847 205.877 L 20.916 77.811 L 20.916 77.811 Z  M 33.654 201.22 L 127.067 201.22 L 127.067 205.809 L 36.256 205.809 L 33.654 201.22 L 33.654 201.22 Z  M 133.025 205.809 L 133.025 201.22 L 226.438 201.22 L 223.904 205.809 L 133.025 205.809 Z  M 239.176 205.809 L 230.684 205.809 L 234.108 199.714 C 234.177 199.645 234.177 199.577 234.177 199.508 C 234.245 199.44 234.245 199.371 234.245 199.303 C 234.382 198.96 234.451 198.686 234.451 198.344 L 234.451 77.811 L 239.108 77.811 L 239.108 205.809 L 239.176 205.809 L 239.176 205.809 Z  M 110.768 82.468 L 47.351 82.468 C 46.598 82.468 45.913 83.084 45.913 83.906 C 45.913 84.66 46.529 85.344 47.351 85.344 L 110.768 85.344 C 111.521 85.344 112.206 84.728 112.206 83.906 C 112.137 83.084 111.521 82.468 110.768 82.468 Z  M 110.768 98.904 L 47.351 98.904 C 46.598 98.904 45.913 99.521 45.913 100.343 C 45.913 101.096 46.529 101.781 47.351 101.781 L 110.768 101.781 C 111.521 101.781 112.206 101.164 112.206 100.343 C 112.137 99.521 111.521 98.904 110.768 98.904 Z  M 110.768 115.409 L 47.351 115.409 C 46.598 115.409 45.913 116.026 45.913 116.847 C 45.913 117.601 46.529 118.286 47.351 118.286 L 110.768 118.286 C 111.521 118.286 112.206 117.669 112.206 116.847 C 112.137 116.026 111.521 115.409 110.768 115.409 Z  M 110.768 181.223 L 47.351 181.223 C 46.598 181.223 45.913 181.839 45.913 182.661 C 45.913 183.414 46.529 184.099 47.351 184.099 L 110.768 184.099 C 111.521 184.099 112.206 183.483 112.206 182.661 C 112.137 181.839 111.521 181.223 110.768 181.223 Z  M 47.282 134.653 L 89.537 134.653 C 90.291 134.653 90.976 134.037 90.976 133.215 C 90.976 132.393 90.359 131.777 89.537 131.777 L 47.282 131.777 C 46.529 131.777 45.844 132.393 45.844 133.215 C 45.844 134.037 46.529 134.653 47.282 134.653 Z  M 47.282 151.158 L 89.537 151.158 C 90.291 151.158 90.976 150.542 90.976 149.72 C 90.976 148.967 90.359 148.282 89.537 148.282 L 47.282 148.282 C 46.529 148.282 45.844 148.898 45.844 149.72 C 45.913 150.473 46.529 151.158 47.282 151.158 Z  M 47.282 167.594 L 89.537 167.594 C 90.291 167.594 90.976 166.978 90.976 166.156 C 90.976 165.403 90.359 164.718 89.537 164.718 L 47.282 164.718 C 46.529 164.718 45.844 165.334 45.844 166.156 C 45.913 166.978 46.529 167.594 47.282 167.594 Z  M 214.59 115.409 L 151.174 115.409 C 150.42 115.409 149.735 116.026 149.735 116.847 C 149.735 117.601 150.352 118.286 151.174 118.286 L 214.59 118.286 C 215.344 118.286 216.028 117.669 216.028 116.847 C 216.028 116.026 215.412 115.409 214.59 115.409 Z  M 214.59 181.223 L 151.174 181.223 C 150.42 181.223 149.735 181.839 149.735 182.661 C 149.735 183.414 150.352 184.099 151.174 184.099 L 214.59 184.099 C 215.344 184.099 216.028 183.483 216.028 182.661 C 216.028 181.839 215.412 181.223 214.59 181.223 Z  M 214.59 131.845 L 172.335 131.845 C 171.582 131.845 170.897 132.462 170.897 133.284 C 170.897 134.105 171.513 134.722 172.335 134.722 L 214.59 134.722 C 215.344 134.722 216.028 134.105 216.028 133.284 C 216.028 132.462 215.412 131.845 214.59 131.845 Z  M 214.59 148.282 L 172.335 148.282 C 171.582 148.282 170.897 148.898 170.897 149.72 C 170.897 150.473 171.513 151.158 172.335 151.158 L 214.59 151.158 C 215.344 151.158 216.028 150.542 216.028 149.72 C 216.028 148.967 215.412 148.282 214.59 148.282 Z  M 214.59 164.787 L 172.335 164.787 C 171.582 164.787 170.897 165.403 170.897 166.225 C 170.897 166.978 171.513 167.663 172.335 167.663 L 214.59 167.663 C 215.344 167.663 216.028 167.047 216.028 166.225 C 216.028 165.403 215.412 164.787 214.59 164.787 Z  M 214.59 80.619 L 151.174 80.619 C 150.42 80.619 149.735 81.235 149.735 82.057 L 149.735 110.684 C 149.735 111.437 150.352 112.122 151.174 112.122 L 214.59 112.122 C 215.344 112.122 216.028 111.506 216.028 110.684 L 216.028 82.057 C 216.028 81.304 215.412 80.619 214.59 80.619 Z  M 213.221 109.246 L 152.612 109.246 L 152.612 83.495 L 213.221 83.495 L 213.221 109.246 Z " fill="url(#_lgradient_0)"/></svg>