<?xml version="1.0" standalone="no"?><!-- Generator: Gravit.io --><svg xmlns="http://www.w3.org/2000/svg" xmlns:xlink="http://www.w3.org/1999/xlink" style="isolation:isolate" viewBox="0 0 256 256" width="256" height="256"><linearGradient id="_lgradient_4" x1="0%" y1="50%" x2="70.31418502375818%" y2="121.1049603364259%"><stop offset="0%" stop-opacity="1" style="stop-color:rgb(236,70,90)"/><stop offset="100%" stop-opacity="1" style="stop-color:rgb(156,45,96)"/></linearGradient><path d=" M 112.51 212.199 L 116.949 212.199 L 117.559 221.076 L 139.417 221.076 L 140.028 212.199 L 144.466 212.199 L 152.288 98.857 C 161.775 91.644 167.878 80.271 167.878 67.511 C 167.878 45.819 150.236 28.122 128.488 28.122 C 106.796 28.122 89.098 45.764 89.098 67.511 C 89.098 80.271 95.201 91.644 104.688 98.857 L 112.51 212.199 L 112.51 212.199 Z  M 91.872 67.511 C 91.872 47.317 108.294 30.896 128.488 30.896 C 148.183 30.896 164.327 46.541 165.048 66.124 L 121.997 66.124 L 121.997 68.898 L 165.048 68.898 C 164.66 79.328 159.889 88.649 152.51 95.084 C 152.011 95.528 151.512 95.916 151.012 96.305 L 149.57 97.414 C 143.578 101.631 136.31 104.127 128.488 104.127 C 120.666 104.127 113.342 101.631 107.406 97.414 C 106.907 97.081 106.408 96.693 105.964 96.305 C 105.464 95.916 104.965 95.528 104.466 95.084 C 96.468 88.154 91.873 78.094 91.872 67.511 L 91.872 67.511 Z  M 140.194 209.425 L 115.062 209.425 L 107.573 100.854 C 120.333 108.838 136.532 108.838 149.292 100.854 L 141.803 209.425 L 140.194 209.425 L 140.194 209.425 Z  M 136.81 218.302 L 120.166 218.302 L 119.722 212.199 L 137.254 212.199 L 136.81 218.302 Z  M 122.774 138.968 L 122.774 147.456 L 134.091 147.456 L 134.091 121.381 L 122.774 121.381 L 122.774 138.968 Z  M 131.373 130.424 L 125.603 130.424 L 125.603 124.155 L 131.373 124.155 L 131.373 130.424 Z  M 125.548 138.968 L 125.548 133.198 L 131.317 133.198 L 131.317 144.682 L 125.548 144.682 L 125.548 138.968 Z  M 112.233 67.511 L 112.233 66.124 L 100.971 66.124 L 100.971 68.898 L 112.233 68.898 L 112.233 67.511 Z " fill="url(#_lgradient_4)"/></svg>