<?xml version="1.0" standalone="no"?><!-- Generator: Gravit.io --><svg xmlns="http://www.w3.org/2000/svg" xmlns:xlink="http://www.w3.org/1999/xlink" style="isolation:isolate" viewBox="0 0 140 116" width="140" height="116"><defs><clipPath id="_clipPath_htPAYaOo8ZPA56XSBrWo6qJkGXaHb1bA"><rect width="140" height="116"/></clipPath></defs><g clip-path="url(#_clipPath_htPAYaOo8ZPA56XSBrWo6qJkGXaHb1bA)"><g id="Group"><linearGradient id="_lgradient_0" x1="0%" y1="50%" x2="9.015556664864759%" y2="-49.592769506739856%"><stop offset="0%" stop-opacity="1" style="stop-color:rgb(240,188,141)"/><stop offset="0.7625775349144215%" stop-opacity="1" style="stop-color:rgb(241,189,142)"/></linearGradient><path d=" M 96.943 40.619 L 93.791 61.684 L 93.239 61.6 L 96.391 40.538 L 96.943 40.619 Z " fill-rule="evenodd" fill="url(#_lgradient_0)"/><linearGradient id="_lgradient_1" x1="0%" y1="50%" x2="98.00332612590576%" y2="69.88336159353739%"><stop offset="19.36507866974756%" stop-opacity="1" style="stop-color:rgb(68,138,200)"/><stop offset="100%" stop-opacity="1" style="stop-color:rgb(40,66,116)"/></linearGradient><path d=" M 44.941 49.794 L 51.374 59.467 L 50.91 59.773 L 44.477 50.1 L 44.941 49.794 Z " fill-rule="evenodd" fill="url(#_lgradient_1)"/><path d=" M 45.779 66.051 C 45.779 61.04 49.848 56.971 54.86 56.971 C 59.872 56.971 63.941 61.04 63.941 66.051 C 63.941 71.063 59.872 75.132 54.86 75.132 C 49.848 75.132 45.779 71.063 45.779 66.051 Z " fill="rgb(42,71,122)"/><path d=" M 69.997 76.249 C 69.997 73.302 72.389 70.91 75.336 70.91 C 78.283 70.91 80.676 73.302 80.676 76.249 C 80.676 79.196 78.283 81.589 75.336 81.589 C 72.389 81.589 69.997 79.196 69.997 76.249 Z " fill="rgb(42,71,122)"/><path d=" M 79.868 89.425 C 79.868 87.603 81.347 86.124 83.169 86.124 C 84.99 86.124 86.469 87.603 86.469 89.425 C 86.469 91.246 84.99 92.725 83.169 92.725 C 81.347 92.725 79.868 91.246 79.868 89.425 Z " fill="rgb(124,54,100)"/><path d=" M 72.661 102.244 C 72.661 99.295 75.055 96.901 78.004 96.901 C 80.953 96.901 83.347 99.295 83.347 102.244 C 83.347 105.192 80.953 107.586 78.004 107.586 C 75.055 107.586 72.661 105.192 72.661 102.244 Z " fill="rgb(241,189,142)"/><path d=" M 85.302 57.734 C 85.302 53.606 88.653 50.255 92.781 50.255 C 96.909 50.255 100.261 53.606 100.261 57.734 C 100.261 61.862 96.909 65.214 92.781 65.214 C 88.653 65.214 85.302 61.862 85.302 57.734 Z " fill="rgb(0,0,0)"/><linearGradient id="_lgradient_2" x1="0%" y1="50%" x2="99.98084425801116%" y2="51.957238221401845%"><stop offset="3.5849428198166255%" stop-opacity="1" style="stop-color:rgb(241,86,135)"/><stop offset="97.7434963664093%" stop-opacity="1" style="stop-color:rgb(241,189,142)"/></linearGradient><path d=" M 69.616 97.015 L 74.172 99.717 L 73.889 100.195 L 69.334 97.493 L 69.616 97.015 Z " fill-rule="evenodd" fill="url(#_lgradient_2)"/><path d=" M 60.761 95.478 C 60.761 92.839 62.903 90.696 65.542 90.696 C 68.181 90.696 70.323 92.839 70.323 95.478 C 70.323 98.116 68.181 100.259 65.542 100.259 C 62.903 100.259 60.761 98.116 60.761 95.478 Z " fill="rgb(241,86,135)"/><linearGradient id="_lgradient_3" x1="0%" y1="50%" x2="99.98361982419992%" y2="48.19009203276601%"><stop offset="0.3788095219298782%" stop-opacity="1" style="stop-color:rgb(241,86,135)"/><stop offset="98.89161591135424%" stop-opacity="1" style="stop-color:rgb(124,54,100)"/></linearGradient><path d=" M 68.893 93.846 L 80.928 89.694 L 81.11 90.219 L 69.075 94.374 L 68.893 93.846 Z " fill-rule="evenodd" fill="url(#_lgradient_3)"/><linearGradient id="_lgradient_4" x1="0%" y1="50%" x2="99.99021376673461%" y2="51.398982088061075%"><stop offset="0.40912524559838964%" stop-opacity="1" style="stop-color:rgb(68,138,200)"/><stop offset="99.95034775268246%" stop-opacity="1" style="stop-color:rgb(124,54,100)"/></linearGradient><path d=" M 56.882 83.227 L 81.698 88.708 L 81.581 89.253 L 56.764 83.772 L 56.882 83.227 Z " fill-rule="evenodd" fill="url(#_lgradient_4)"/><path d=" M 50.257 83.725 C 50.257 81.087 52.399 78.944 55.038 78.944 C 57.677 78.944 59.819 81.087 59.819 83.725 C 59.819 86.364 57.677 88.506 55.038 88.506 C 52.399 88.506 50.257 86.364 50.257 83.725 Z " fill="rgb(68,138,200)"/><linearGradient id="_lgradient_5" x1="0%" y1="50%" x2="99.97167135878884%" y2="47.61988955501663%"><stop offset="0.2060487539534815%" stop-opacity="1" style="stop-color:rgb(68,138,200)"/><stop offset="98.75822049633992%" stop-opacity="1" style="stop-color:rgb(42,71,122)"/></linearGradient><path d=" M 58.005 81.791 L 71.289 76.794 L 71.484 77.316 L 58.201 82.312 L 58.005 81.791 Z " fill-rule="evenodd" fill="url(#_lgradient_5)"/><rect x="61.758" y="70.778" width="10.988" height="0.557" transform="matrix(0.838,0.545,-0.545,0.838,49.614,-25.176)" fill="rgb(42,71,122)"/><linearGradient id="_lgradient_6" x1="0%" y1="50%" x2="99.95636893195436%" y2="47.04630571334293%"><stop offset="0.05135012104170982%" stop-opacity="1" style="stop-color:rgb(124,54,100)"/><stop offset="98.98780319203344%" stop-opacity="1" style="stop-color:rgb(241,86,135)"/></linearGradient><path d=" M 55.966 21.862 L 68.486 18.719 L 68.62 19.261 L 56.101 22.403 L 55.966 21.862 Z " fill-rule="evenodd" fill="url(#_lgradient_6)"/><linearGradient id="_lgradient_7" x1="0%" y1="50%" x2="73.54943513156564%" y2="-17.753085478283694%"><stop offset="0%" stop-opacity="1" style="stop-color:rgb(123,55,101)"/><stop offset="1.162266611824403%" stop-opacity="1" style="stop-color:rgb(124,54,100)"/></linearGradient><path d=" M 43.82 44.724 L 48.544 29.506 L 49.076 29.671 L 44.352 44.889 L 43.82 44.724 Z " fill-rule="evenodd" fill="url(#_lgradient_7)"/><path d=" M 38.495 46.873 C 38.495 43.934 40.881 41.548 43.82 41.548 C 46.76 41.548 49.147 43.934 49.147 46.873 C 49.147 49.813 46.76 52.2 43.82 52.2 C 40.881 52.2 38.495 49.813 38.495 46.873 Z " fill="rgb(68,138,200)"/><path d=" M 43.824 24.795 C 43.824 20.571 47.254 17.141 51.478 17.141 C 55.703 17.141 59.133 20.571 59.133 24.795 C 59.133 29.02 55.703 32.45 51.478 32.45 C 47.254 32.45 43.824 29.02 43.824 24.795 Z " fill="rgb(124,54,100)"/><linearGradient id="_lgradient_8" x1="0%" y1="50%" x2="34.746774974734805%" y2="143.76919338916775%"><stop offset="0%" stop-opacity="1" style="stop-color:rgb(241,88,135)"/><stop offset="100%" stop-opacity="1" style="stop-color:rgb(241,125,138)"/></linearGradient><path d=" M 83.451 21.357 L 94.672 32.547 L 94.278 32.941 L 83.061 21.75 L 83.451 21.357 Z " fill-rule="evenodd" fill="url(#_lgradient_8)"/><path d=" M 89.4 35.299 C 89.4 31.959 92.112 29.247 95.453 29.247 C 98.793 29.247 101.505 31.959 101.505 35.299 C 101.505 38.64 98.793 41.352 95.453 41.352 C 92.112 41.352 89.4 38.64 89.4 35.299 Z " fill="rgb(241,189,142)"/><path d=" M 67.5 17.851 C 67.5 12.642 71.729 8.414 76.938 8.414 C 82.146 8.414 86.375 12.642 86.375 17.851 C 86.375 23.06 82.146 27.288 76.938 27.288 C 71.729 27.288 67.5 23.06 67.5 17.851 Z " fill="rgb(241,86,135)"/></g></g></svg>