<?xml version="1.0" standalone="no"?><!-- Generator: Gravit.io --><svg xmlns="http://www.w3.org/2000/svg" xmlns:xlink="http://www.w3.org/1999/xlink" style="isolation:isolate" viewBox="0 0 140 116" width="140" height="116"><defs><clipPath id="_clipPath_YNyVWVdDZEx0W24t9n5U8ff7GJQazqMX"><rect width="140" height="116"/></clipPath></defs><g clip-path="url(#_clipPath_YNyVWVdDZEx0W24t9n5U8ff7GJQazqMX)"><clipPath id="_clipPath_FcFvbr3HCFYgRgqTQ45bFbwF8xbSzwor"><rect x="0" y="0" width="512" height="150" transform="matrix(1,0,0,1,0,0)" fill="rgb(255,255,255)"/></clipPath><g clip-path="url(#_clipPath_FcFvbr3HCFYgRgqTQ45bFbwF8xbSzwor)"><g id="Group"><g id="ID0.5136232292279601"><path d=" M 10.231 77.064 C 7.007 77.064 4.302 74.537 4.074 71.314 C 4.072 71.271 4.07 71.228 4.067 71.185 C 4.014 70.151 3.945 68.135 4.071 65.864 C 4.155 64.383 4.192 61.891 4.194 61.802 C 4.194 61.795 4.194 61.79 4.194 61.783 C 4.216 60.256 4.803 58.857 5.753 57.785 C 5.282 56.145 5.13 54.189 5.423 51.885 L 5.468 51.524 C 5.634 50.159 5.883 48.137 6.91 46.191 C 8.464 43.253 11.31 41.567 14.721 41.567 C 14.916 41.567 15.12 41.572 15.328 41.584 C 15.633 41.601 15.967 41.638 16.324 41.701 C 17.414 40.739 18.845 40.154 20.408 40.154 C 20.428 40.154 20.451 40.154 20.472 40.154 C 23.853 40.196 26.593 42.977 26.576 46.357 C 26.576 46.379 26.576 46.403 26.575 46.425 C 26.574 46.5 26.266 55.137 26.172 55.752 C 26.166 55.794 26.159 55.836 26.152 55.878 C 26.07 56.338 25.937 56.777 25.763 57.192 C 27.256 58.947 28.063 61.128 28.089 63.591 C 28.122 66.689 26.705 69.698 24.199 71.844 C 22.048 73.689 19.319 74.702 16.517 74.702 C 16.517 74.702 16.517 74.702 16.517 74.702 C 16.062 74.702 15.609 74.678 15.157 74.624 C 15.065 74.745 14.967 74.864 14.866 74.979 C 13.774 76.213 12.265 76.95 10.618 77.051 C 10.508 77.059 10.368 77.064 10.231 77.064 Z " fill="none" vector-effect="non-scaling-stroke" stroke-width="3.416" stroke="rgb(40,165,218)" stroke-opacity="10000" stroke-linejoin="miter" stroke-linecap="butt" stroke-miterlimit="4"/><path d=" M 14.859 57.328 C 13.304 57.085 12.481 56.05 12.889 52.832 L 12.939 52.443 C 13.284 49.644 13.58 49.032 14.915 49.101 C 15.314 49.126 15.768 49.373 16.224 49.746 C 16.635 50.23 17.577 50.86 18.095 52.111 C 18.475 53.022 18.605 53.617 18.653 54.257 C 18.657 54.278 18.743 55.043 18.743 55.043 L 18.744 55.042 C 18.847 55.578 19.267 56.019 19.835 56.122 C 20.569 56.253 21.275 55.764 21.408 55.028 C 21.419 54.944 21.754 46.475 21.756 46.334 C 21.76 45.589 21.159 44.982 20.413 44.974 C 19.66 44.972 19.051 45.575 19.048 46.324 C 19.048 46.34 19.041 47.502 19.02 48.684 C 17.959 47.522 16.588 46.483 15.064 46.397 C 10.962 46.172 10.518 49.939 10.251 52.112 L 10.204 52.494 C 9.658 56.776 11.086 59.483 14.443 60.007 C 18.096 60.583 20.535 61.423 20.558 63.67 C 20.567 64.538 20.111 65.433 19.305 66.125 C 18.343 66.949 17.043 67.318 15.833 67.114 C 15.457 67.053 15.098 66.958 14.763 66.839 C 14.278 66.575 13.076 65.844 12.464 64.996 C 11.948 64.282 11.772 63.158 11.715 62.448 C 11.722 62.131 11.726 61.919 11.727 61.891 C 11.735 61.146 11.139 60.533 10.39 60.518 C 9.643 60.505 9.023 61.102 9.013 61.854 C 9.013 61.879 8.973 64.53 8.884 66.129 C 8.742 68.701 8.88 70.883 8.884 70.976 C 8.936 71.723 9.577 72.291 10.324 72.242 C 11.075 72.195 11.637 71.549 11.591 70.804 C 11.591 70.784 11.522 69.736 11.532 68.27 C 12.522 68.907 13.82 69.525 15.387 69.789 C 17.407 70.127 19.477 69.544 21.065 68.183 C 22.482 66.97 23.288 65.313 23.27 63.641 C 23.216 58.636 17.576 57.755 14.859 57.328 Z " fill="none" vector-effect="non-scaling-stroke" stroke-width="3.416" stroke="rgb(40,165,218)" stroke-opacity="10000" stroke-linejoin="miter" stroke-linecap="butt" stroke-miterlimit="4"/><path d=" M 57.005 75.799 C 55.832 75.798 54.653 75.562 53.405 75.078 C 52.3 74.65 51.418 73.999 50.728 73.307 C 50.27 73.493 49.788 73.625 49.287 73.698 L 42.749 74.657 C 42.441 74.701 42.147 74.722 41.855 74.722 C 38.803 74.722 36.175 72.444 35.742 69.421 C 35.505 67.811 35.914 66.184 36.899 64.86 C 37.393 64.196 38.001 63.651 38.689 63.24 L 38.685 62.296 C 37.428 61.165 36.635 59.525 36.635 57.705 C 36.635 56.367 37.064 55.127 37.789 54.114 C 36.332 53.168 35.283 51.624 35.025 49.808 C 34.787 48.209 35.195 46.577 36.183 45.248 C 37.17 43.921 38.613 43.061 40.251 42.824 C 41.617 42.623 44.374 42.28 47.307 42.28 C 53.817 42.28 57.962 43.947 59.974 47.377 C 61.025 49.171 62.223 52.777 59.085 57.426 C 59.38 58.377 59.602 59.435 59.753 60.619 C 59.774 60.619 59.795 60.619 59.816 60.619 C 60.431 60.619 61.041 60.709 61.629 60.891 C 64.894 61.901 66.722 65.367 65.717 68.62 C 64.737 71.779 63.175 73.735 60.652 74.964 C 59.495 75.522 58.276 75.799 57.007 75.799 C 57.007 75.799 57.007 75.799 57.005 75.799 Z " fill="none" vector-effect="non-scaling-stroke" stroke-width="3.416" stroke="rgb(40,165,218)" stroke-opacity="10000" stroke-linejoin="miter" stroke-linecap="butt" stroke-miterlimit="4"/><path d=" M 60.217 65.498 C 59.499 65.278 58.737 65.681 58.521 66.393 C 58.026 68.002 57.63 68.062 57.355 68.193 C 57.083 68.324 56.716 68.286 56.127 68.056 C 56.036 68.003 55.791 67.684 55.651 67.387 C 55.44 66.932 55.191 65.045 55.167 63.968 C 55.063 59.988 54.372 57.801 53.254 56.595 C 54.009 56.1 54.558 55.455 54.619 55.374 C 54.629 55.363 54.637 55.355 54.646 55.342 C 56.308 53.187 56.702 51.326 55.819 49.816 C 53.603 46.042 43.87 47.162 40.94 47.594 C 40.196 47.702 39.687 48.394 39.799 49.133 C 39.903 49.876 40.593 50.385 41.333 50.273 C 42.028 50.171 42.739 50.087 43.453 50.021 L 43.48 56.331 C 43.255 56.344 43.031 56.351 42.81 56.351 C 42.062 56.351 41.455 56.954 41.455 57.705 C 41.455 58.45 42.062 59.06 42.81 59.06 C 43.035 59.06 43.262 59.054 43.493 59.044 L 43.522 66.932 L 41.656 67.204 C 40.916 67.312 40.404 68.003 40.514 68.74 C 40.619 69.483 41.308 69.995 42.048 69.889 L 48.588 68.929 C 49.326 68.821 49.84 68.134 49.73 67.396 C 49.623 66.652 48.932 66.141 48.194 66.244 L 46.231 66.535 L 46.196 58.759 C 47.489 58.55 48.721 58.27 49.749 57.957 L 49.749 57.957 L 49.752 57.957 C 49.759 57.955 50.049 57.918 50.228 57.949 C 50.773 58.042 51.073 58.141 51.388 58.587 C 51.829 59.202 52.373 60.649 52.457 64.037 C 52.474 64.69 52.646 67.361 53.195 68.534 C 53.365 68.906 54.021 70.147 55.152 70.584 C 55.984 70.91 57.239 71.257 58.541 70.632 C 59.744 70.045 60.492 69.193 61.112 67.195 C 61.334 66.479 60.931 65.719 60.217 65.498 Z  M 52.513 53.398 C 52.392 53.539 52.046 53.904 51.686 54.118 C 51.353 54.314 50.898 54.45 50.459 54.584 L 49.77 54.804 C 48.814 55.144 47.55 55.5 46.19 55.749 L 46.165 49.585 C 49.748 49.486 52.876 49.888 53.48 50.923 C 53.536 51.012 53.56 51.126 53.56 51.26 C 53.56 51.755 53.191 52.52 52.513 53.398 Z " fill="none" vector-effect="non-scaling-stroke" stroke-width="3.416" stroke="rgb(40,165,218)" stroke-opacity="10000" stroke-linejoin="miter" stroke-linecap="butt" stroke-miterlimit="4"/><path d=" M 102.821 75.529 C 95.837 75.529 91.836 70.277 91.498 65.091 L 91.5 65.091 C 91.484 64.765 91.47 64.106 91.434 62.376 C 91.434 62.32 91.433 62.266 91.434 62.21 C 91.478 59.017 91.486 58.395 91.5 58.152 L 91.499 58.152 C 91.851 53.182 93.57 49.714 96.611 47.844 C 98.053 46.951 99.699 46.497 101.492 46.497 C 102.105 46.497 102.691 46.551 103.236 46.637 C 104.367 45.359 106.021 44.552 107.86 44.552 C 111.266 44.552 114.037 47.321 114.037 50.725 L 114.037 56.597 C 114.037 57.299 113.916 57.979 113.693 58.617 C 114.543 59.623 115.079 60.899 115.144 62.29 C 115.181 62.761 115.202 63.063 115.186 63.38 C 115.139 64.96 115.137 64.976 115.113 65.191 C 115.109 65.243 115.103 65.296 115.094 65.347 C 114.951 66.374 114.579 68.326 113.705 69.858 C 113.143 70.841 112.558 71.549 112.008 72.17 C 110.902 73.416 109.629 74.109 108.527 74.623 C 106.69 75.487 105.105 75.503 103.947 75.515 L 103.217 75.523 C 103.084 75.526 102.951 75.529 102.821 75.529 Z " fill="none" vector-effect="non-scaling-stroke" stroke-width="3.416" stroke="rgb(40,165,218)" stroke-opacity="10000" stroke-linejoin="miter" stroke-linecap="butt" stroke-miterlimit="4"/><path d=" M 108.953 61.235 C 108.216 61.245 107.625 61.851 107.625 62.59 C 107.625 62.597 107.661 63.028 107.661 63.083 C 107.661 63.137 107.632 64.207 107.627 64.359 C 107.541 64.919 107.345 65.812 107.161 66.129 C 106.958 66.485 106.745 66.752 106.368 67.182 C 106.156 67.423 105.64 67.663 105.333 67.81 C 104.985 67.971 104.649 67.977 103.861 67.986 L 103.037 67.996 C 99.513 68.11 99.068 65.243 99.011 64.615 C 99.009 64.523 98.968 62.337 98.968 62.29 C 98.968 62.247 99.009 58.758 99.011 58.659 C 99.181 56.331 99.73 54.765 100.557 54.259 C 101.195 53.862 102.214 53.969 103.675 54.578 C 105.472 55.328 106.695 57.288 106.708 57.304 C 107.025 57.82 107.648 58.06 108.229 57.899 C 108.814 57.733 109.217 57.205 109.217 56.597 L 109.217 50.725 C 109.217 49.98 108.612 49.371 107.86 49.371 C 107.116 49.371 106.504 49.98 106.504 50.725 L 106.504 53.137 C 105.979 52.729 105.379 52.355 104.717 52.077 C 103.862 51.719 101.261 50.636 99.135 51.948 C 97.471 52.973 96.547 55.115 96.306 58.493 C 96.304 58.518 96.253 62.277 96.253 62.277 C 96.253 62.277 96.304 64.76 96.306 64.777 C 96.446 66.897 98.051 70.867 103.121 70.704 L 103.881 70.696 C 104.798 70.688 105.585 70.682 106.485 70.259 C 107.127 69.958 107.86 69.582 108.4 68.976 C 108.79 68.534 109.167 68.084 109.518 67.472 C 110.038 66.559 110.279 64.983 110.321 64.679 C 110.327 64.63 110.37 63.133 110.37 63.133 C 110.374 63.113 110.332 62.567 110.332 62.567 C 110.321 61.822 109.705 61.222 108.953 61.235 Z " fill="none" vector-effect="non-scaling-stroke" stroke-width="3.416" stroke="rgb(40,165,218)" stroke-opacity="10000" stroke-linejoin="miter" stroke-linecap="butt" stroke-miterlimit="4"/><path d=" M 122.08 77.701 C 120.624 77.701 119.226 77.154 118.146 76.16 C 117.711 75.763 117.347 75.317 117.053 74.836 L 111.96 74.75 C 108.566 74.691 105.844 71.886 105.887 68.497 C 105.93 66.025 107.433 63.899 109.551 62.941 L 109.568 53.476 C 107.453 52.495 105.982 50.351 105.982 47.868 C 105.982 44.464 108.751 41.693 112.155 41.693 L 117.96 41.693 C 119.069 40.347 120.739 39.472 122.617 39.435 C 122.617 39.435 129.755 39.313 129.783 39.313 C 133.132 39.313 135.903 42.037 135.959 45.387 C 135.996 47.832 134.607 49.97 132.565 51.004 C 132.606 57.711 132.631 61.926 132.644 64.702 C 134.515 65.668 135.844 67.567 135.987 69.797 C 136.204 73.197 133.619 76.14 130.223 76.357 C 127.42 76.541 125.633 76.858 125.132 77 C 125.034 77.04 124.937 77.076 124.837 77.109 C 124.217 77.345 123.282 77.701 122.08 77.701 Z " fill="none" vector-effect="non-scaling-stroke" stroke-width="3.416" stroke="rgb(40,165,218)" stroke-opacity="10000" stroke-linejoin="miter" stroke-linecap="butt" stroke-miterlimit="4"/><path d=" M 72.652 70.619 C 71.311 70.618 70.034 70.194 68.96 69.388 C 68.727 69.217 68.509 69.031 68.305 68.833 C 67.537 69.174 66.687 69.365 65.795 69.365 C 65.703 69.365 65.61 69.362 65.517 69.358 L 58.759 69.038 C 55.363 68.88 52.724 65.988 52.878 62.591 C 53.026 59.289 55.736 56.698 59.049 56.698 C 59.077 56.698 59.105 56.698 59.134 56.699 C 59.444 55.144 60.201 51.349 60.237 51.166 C 58 50.461 56.279 48.512 55.957 46.09 C 55.514 42.718 57.889 39.611 61.246 39.153 L 67.047 38.356 C 67.323 38.319 67.606 38.299 67.883 38.299 C 69.583 38.299 71.225 39.011 72.391 40.254 C 72.815 40.703 73.424 41.586 73.751 42.366 L 78.843 54.673 C 78.866 54.73 78.894 54.794 78.924 54.869 C 78.94 54.868 78.958 54.868 78.973 54.868 C 81.571 54.868 83.907 56.51 84.786 58.957 C 85.928 62.155 84.264 65.693 81.08 66.85 C 79.046 67.577 77.743 68.244 77.273 68.541 C 76.109 69.85 74.419 70.619 72.653 70.619 C 72.653 70.619 72.653 70.619 72.652 70.619 Z " fill="none" vector-effect="non-scaling-stroke" stroke-width="3.416" stroke="rgb(40,165,218)" stroke-opacity="10000" stroke-linejoin="miter" stroke-linecap="butt" stroke-miterlimit="4"/><path d=" M 78.517 59.767 C 78.116 59.91 77.339 60.299 76.135 60.829 C 76.135 60.829 74.452 56.631 74.393 56.527 L 69.297 44.208 C 69.247 44.077 68.963 43.643 68.875 43.55 C 68.573 43.228 68.136 43.071 67.704 43.131 L 61.895 43.929 C 61.154 44.03 60.638 44.713 60.734 45.453 C 60.834 46.197 61.514 46.713 62.257 46.618 C 62.257 46.618 64.419 46.307 66.171 46.071 C 65.669 48.541 63.668 58.638 63.041 61.709 L 59.11 61.518 C 58.363 61.486 57.726 62.061 57.692 62.811 C 57.66 63.557 58.24 64.188 58.987 64.223 L 65.732 64.543 C 66.479 64.575 67.114 63.999 67.151 63.254 C 67.185 62.502 66.748 61.826 65.782 61.826 L 66.092 59.76 L 72.359 58.721 L 73.701 62.039 C 72.679 62.623 72.041 62.992 71.563 63.634 C 71.117 64.238 71.245 65.084 71.847 65.529 C 72.444 65.977 73.295 65.851 73.744 65.249 C 74.346 64.438 76.906 63.224 79.434 62.32 C 80.136 62.065 80.501 61.288 80.25 60.585 C 79.998 59.883 79.219 59.515 78.517 59.767 Z  M 66.67 57.583 L 68.332 49.449 L 71.312 56.813 L 66.67 57.583 Z " fill="none" vector-effect="non-scaling-stroke" stroke-width="3.416" stroke="rgb(40,165,218)" stroke-opacity="10000" stroke-linejoin="miter" stroke-linecap="butt" stroke-miterlimit="4"/><path d=" M 82.231 74.493 C 78.886 74.493 76.116 71.767 76.058 68.418 C 76.016 65.675 77.771 63.32 80.23 62.475 L 80.226 60.651 C 80.043 60.695 79.857 60.731 79.669 60.76 C 79.365 60.806 79.054 60.829 78.75 60.829 C 75.671 60.829 73.105 58.618 72.647 55.573 L 71.613 48.926 C 71.339 47.164 71.847 45.366 73.008 43.997 C 74.152 42.634 75.849 41.835 77.648 41.814 L 86.27 41.67 C 90.46 41.591 94.198 41.327 94.4 41.313 C 94.429 41.308 94.458 41.307 94.488 41.305 C 94.621 41.298 94.754 41.292 94.886 41.292 C 96.538 41.292 98.145 41.965 99.296 43.14 C 100.536 44.385 101.183 46.145 101.047 47.939 C 100.931 49.475 100.894 51.905 100.889 52.494 C 100.957 54.994 99.59 57.257 97.364 58.295 C 96.541 58.683 95.608 58.895 94.687 58.895 L 94.687 58.895 C 93.954 58.895 93.238 58.761 92.573 58.515 L 92.581 62.39 C 94.923 63.248 96.621 65.488 96.657 68.11 C 96.683 69.76 96.058 71.325 94.901 72.51 C 93.746 73.692 92.2 74.354 90.548 74.369 C 90.548 74.37 82.254 74.493 82.231 74.493 Z " fill="none" vector-effect="non-scaling-stroke" stroke-width="3.416" stroke="rgb(40,165,218)" stroke-opacity="10000" stroke-linejoin="miter" stroke-linecap="butt" stroke-miterlimit="4"/><path d=" M 94.798 46.114 C 94.756 46.12 90.788 46.404 86.351 46.49 L 77.703 46.634 C 77.31 46.637 76.939 46.809 76.686 47.113 C 76.433 47.408 76.317 47.8 76.376 48.187 L 77.412 54.855 C 77.525 55.596 78.213 56.104 78.953 55.995 C 79.626 55.894 80.107 55.315 80.107 54.655 C 80.107 54.593 79.563 51.178 79.287 49.32 C 79.639 49.318 85.024 49.222 85.024 49.222 L 85.059 66.923 L 82.211 66.96 C 81.463 66.973 80.865 67.589 80.876 68.334 C 80.891 69.085 81.503 69.683 82.249 69.674 L 90.503 69.55 C 91.25 69.543 91.85 68.922 91.84 68.177 C 91.828 67.426 91.212 66.833 90.465 66.839 L 87.769 66.88 L 87.734 49.169 C 90.068 49.104 92.066 48.993 93.434 48.918 C 93.365 50.045 93.332 50.894 93.332 51.511 C 93.332 52.961 93.487 53.235 93.605 53.44 C 93.949 54.066 94.681 54.232 95.328 53.927 C 95.831 53.693 96.101 53.128 96.069 52.574 C 96.067 52.551 96.094 49.515 96.242 47.574 C 96.271 47.179 96.132 46.793 95.853 46.513 C 95.579 46.232 95.189 46.09 94.798 46.114 Z " fill="none" vector-effect="non-scaling-stroke" stroke-width="3.416" stroke="rgb(40,165,218)" stroke-opacity="10000" stroke-linejoin="miter" stroke-linecap="butt" stroke-miterlimit="4"/><path d=" M 31.587 77.225 C 24.634 77.224 20.635 72.029 20.251 66.867 C 20.24 66.71 20.235 66.577 20.234 66.471 L 20.185 63.966 C 20.185 63.944 20.234 60.213 20.234 60.213 C 20.234 60.097 20.24 59.968 20.249 59.835 C 20.606 54.868 22.326 51.402 25.363 49.534 C 26.811 48.641 28.454 48.189 30.242 48.189 C 30.857 48.189 31.443 48.245 31.988 48.331 C 33.12 47.051 34.774 46.242 36.614 46.242 C 40.02 46.242 42.788 49.013 42.788 52.419 L 42.788 58.286 C 42.788 58.919 42.691 59.535 42.508 60.119 C 43.333 61.129 43.848 62.404 43.897 63.792 L 43.935 64.504 C 43.941 64.59 43.942 64.678 43.942 64.766 C 43.942 64.781 43.925 66.43 43.841 67.052 L 43.841 67.052 C 43.661 68.314 43.273 70.122 42.452 71.557 C 41.885 72.552 41.288 73.26 40.773 73.847 C 39.645 75.11 38.375 75.802 37.279 76.314 C 35.444 77.18 33.857 77.194 32.697 77.206 L 31.99 77.22 C 31.856 77.223 31.722 77.226 31.589 77.226 C 31.588 77.225 31.588 77.225 31.587 77.225 Z " fill="none" vector-effect="non-scaling-stroke" stroke-width="3.416" stroke="rgb(40,165,218)" stroke-opacity="10000" stroke-linejoin="miter" stroke-linecap="butt" stroke-miterlimit="4"/><path d=" M 37.708 62.656 C 36.965 62.67 36.375 63.277 36.375 64.013 C 36.375 64.021 36.412 64.718 36.412 64.775 C 36.412 64.83 36.382 65.893 36.378 66.049 C 36.292 66.609 36.098 67.502 35.914 67.818 C 35.711 68.175 35.485 68.456 35.116 68.87 C 34.906 69.112 34.392 69.355 34.083 69.496 C 33.736 69.66 33.403 69.668 32.616 69.675 L 31.788 69.689 C 28.263 69.797 27.82 66.938 27.763 66.306 C 27.762 66.213 27.718 64.025 27.714 63.982 C 27.718 63.937 27.763 60.448 27.763 60.348 C 27.933 58.021 28.48 56.455 29.309 55.95 C 29.944 55.552 30.964 55.66 32.424 56.268 C 34.222 57.021 35.448 58.975 35.456 58.996 C 35.775 59.509 36.399 59.756 36.981 59.588 C 37.565 59.425 37.968 58.895 37.968 58.286 L 37.968 52.418 C 37.968 51.669 37.36 51.062 36.614 51.062 C 35.862 51.062 35.258 51.669 35.258 52.418 L 35.258 54.827 C 34.732 54.419 34.134 54.042 33.468 53.767 C 32.616 53.41 30.013 52.33 27.889 53.638 C 26.224 54.662 25.299 56.804 25.056 60.184 C 25.054 60.211 25.054 60.236 25.054 60.258 L 25.004 63.966 L 25.004 64.013 L 25.054 66.407 C 25.054 66.429 25.054 66.449 25.056 66.466 C 25.197 68.59 26.801 72.554 31.872 72.402 L 32.633 72.386 C 33.548 72.378 34.337 72.374 35.237 71.949 C 35.881 71.649 36.609 71.275 37.152 70.665 C 37.542 70.223 37.922 69.773 38.269 69.164 C 38.791 68.25 39.027 66.674 39.07 66.37 C 39.078 66.319 39.123 64.783 39.123 64.765 L 39.082 63.992 C 39.07 63.243 38.453 62.642 37.708 62.656 Z " fill="none" vector-effect="non-scaling-stroke" stroke-width="3.416" stroke="rgb(40,165,218)" stroke-opacity="10000" stroke-linejoin="miter" stroke-linecap="butt" stroke-miterlimit="4"/></g><g id="ID0.6219486179761589"><g id="ID0.8403278617188334"><path d=" M 10.231 77.064 C 7.007 77.064 4.302 74.537 4.074 71.314 C 4.072 71.271 4.07 71.228 4.067 71.185 C 4.014 70.151 3.945 68.135 4.071 65.864 C 4.155 64.383 4.192 61.891 4.194 61.802 C 4.194 61.795 4.194 61.79 4.194 61.783 C 4.216 60.256 4.803 58.857 5.753 57.785 C 5.282 56.145 5.13 54.189 5.423 51.885 L 5.468 51.524 C 5.634 50.159 5.883 48.137 6.91 46.191 C 8.464 43.253 11.31 41.567 14.721 41.567 C 14.916 41.567 15.12 41.572 15.328 41.584 C 15.633 41.601 15.967 41.638 16.324 41.701 C 17.414 40.739 18.845 40.154 20.408 40.154 C 20.428 40.154 20.451 40.154 20.472 40.154 C 23.853 40.196 26.593 42.977 26.576 46.357 C 26.576 46.379 26.576 46.403 26.575 46.425 C 26.574 46.5 26.266 55.137 26.172 55.752 C 26.166 55.794 26.159 55.836 26.152 55.878 C 26.07 56.338 25.937 56.777 25.763 57.192 C 27.256 58.947 28.063 61.128 28.089 63.591 C 28.122 66.689 26.705 69.698 24.199 71.844 C 22.048 73.689 19.319 74.702 16.517 74.702 C 16.517 74.702 16.517 74.702 16.517 74.702 C 16.062 74.702 15.609 74.678 15.157 74.624 C 15.065 74.745 14.967 74.864 14.866 74.979 C 13.774 76.213 12.265 76.95 10.618 77.051 C 10.508 77.059 10.368 77.064 10.231 77.064 Z " fill="rgb(247,248,249)"/><path d=" M 14.859 57.328 C 13.304 57.085 12.481 56.05 12.889 52.832 L 12.939 52.443 C 13.284 49.644 13.58 49.032 14.915 49.101 C 15.314 49.126 15.768 49.373 16.224 49.746 C 16.635 50.23 17.577 50.86 18.095 52.111 C 18.475 53.022 18.605 53.617 18.653 54.257 C 18.657 54.278 18.743 55.043 18.743 55.043 L 18.744 55.042 C 18.847 55.578 19.267 56.019 19.835 56.122 C 20.569 56.253 21.275 55.764 21.408 55.028 C 21.419 54.944 21.754 46.475 21.756 46.334 C 21.76 45.589 21.159 44.982 20.413 44.974 C 19.66 44.972 19.051 45.575 19.048 46.324 C 19.048 46.34 19.041 47.502 19.02 48.684 C 17.959 47.522 16.588 46.483 15.064 46.397 C 10.962 46.172 10.518 49.939 10.251 52.112 L 10.204 52.494 C 9.658 56.776 11.086 59.483 14.443 60.007 C 18.096 60.583 20.535 61.423 20.558 63.67 C 20.567 64.538 20.111 65.433 19.305 66.125 C 18.343 66.949 17.043 67.318 15.833 67.114 C 15.457 67.053 15.098 66.958 14.763 66.839 C 14.278 66.575 13.076 65.844 12.464 64.996 C 11.948 64.282 11.772 63.158 11.715 62.448 C 11.722 62.131 11.726 61.919 11.727 61.891 C 11.735 61.146 11.139 60.533 10.39 60.518 C 9.643 60.505 9.023 61.102 9.013 61.854 C 9.013 61.879 8.973 64.53 8.884 66.129 C 8.742 68.701 8.88 70.883 8.884 70.976 C 8.936 71.723 9.577 72.291 10.324 72.242 C 11.075 72.195 11.637 71.549 11.591 70.804 C 11.591 70.784 11.522 69.736 11.532 68.27 C 12.522 68.907 13.82 69.525 15.387 69.789 C 17.407 70.127 19.477 69.544 21.065 68.183 C 22.482 66.97 23.288 65.313 23.27 63.641 C 23.216 58.636 17.576 57.755 14.859 57.328 Z " fill="rgb(247,248,249)"/><path d=" M 57.005 75.799 C 55.832 75.798 54.653 75.562 53.405 75.078 C 52.3 74.65 51.418 73.999 50.728 73.307 C 50.27 73.493 49.788 73.625 49.287 73.698 L 42.749 74.657 C 42.441 74.701 42.147 74.722 41.855 74.722 C 38.803 74.722 36.175 72.444 35.742 69.421 C 35.505 67.811 35.914 66.184 36.899 64.86 C 37.393 64.196 38.001 63.651 38.689 63.24 L 38.685 62.296 C 37.428 61.165 36.635 59.525 36.635 57.705 C 36.635 56.367 37.064 55.127 37.789 54.114 C 36.332 53.168 35.283 51.624 35.025 49.808 C 34.787 48.209 35.195 46.577 36.183 45.248 C 37.17 43.921 38.613 43.061 40.251 42.824 C 41.617 42.623 44.374 42.28 47.307 42.28 C 53.817 42.28 57.962 43.947 59.974 47.377 C 61.025 49.171 62.223 52.777 59.085 57.426 C 59.38 58.377 59.602 59.435 59.753 60.619 C 59.774 60.619 59.795 60.619 59.816 60.619 C 60.431 60.619 61.041 60.709 61.629 60.891 C 64.894 61.901 66.722 65.367 65.717 68.62 C 64.737 71.779 63.175 73.735 60.652 74.964 C 59.495 75.522 58.276 75.799 57.007 75.799 C 57.007 75.799 57.007 75.799 57.005 75.799 Z " fill="rgb(247,248,249)"/><path d=" M 60.217 65.498 C 59.499 65.278 58.737 65.681 58.521 66.393 C 58.026 68.002 57.63 68.062 57.355 68.193 C 57.083 68.324 56.716 68.286 56.127 68.056 C 56.036 68.003 55.791 67.684 55.651 67.387 C 55.44 66.932 55.191 65.045 55.167 63.968 C 55.063 59.988 54.372 57.801 53.254 56.595 C 54.009 56.1 54.558 55.455 54.619 55.374 C 54.629 55.363 54.637 55.355 54.646 55.342 C 56.308 53.187 56.702 51.326 55.819 49.816 C 53.603 46.042 43.87 47.162 40.94 47.594 C 40.196 47.702 39.687 48.394 39.799 49.133 C 39.903 49.876 40.593 50.385 41.333 50.273 C 42.028 50.171 42.739 50.087 43.453 50.021 L 43.48 56.331 C 43.255 56.344 43.031 56.351 42.81 56.351 C 42.062 56.351 41.455 56.954 41.455 57.705 C 41.455 58.45 42.062 59.06 42.81 59.06 C 43.035 59.06 43.262 59.054 43.493 59.044 L 43.522 66.932 L 41.656 67.204 C 40.916 67.312 40.404 68.003 40.514 68.74 C 40.619 69.483 41.308 69.995 42.048 69.889 L 48.588 68.929 C 49.326 68.821 49.84 68.134 49.73 67.396 C 49.623 66.652 48.932 66.141 48.194 66.244 L 46.231 66.535 L 46.196 58.759 C 47.489 58.55 48.721 58.27 49.749 57.957 L 49.749 57.957 L 49.752 57.957 C 49.759 57.955 50.049 57.918 50.228 57.949 C 50.773 58.042 51.073 58.141 51.388 58.587 C 51.829 59.202 52.373 60.649 52.457 64.037 C 52.474 64.69 52.646 67.361 53.195 68.534 C 53.365 68.906 54.021 70.147 55.152 70.584 C 55.984 70.91 57.239 71.257 58.541 70.632 C 59.744 70.045 60.492 69.193 61.112 67.195 C 61.334 66.479 60.931 65.719 60.217 65.498 Z  M 52.513 53.398 C 52.392 53.539 52.046 53.904 51.686 54.118 C 51.353 54.314 50.898 54.45 50.459 54.584 L 49.77 54.804 C 48.814 55.144 47.55 55.5 46.19 55.749 L 46.165 49.585 C 49.748 49.486 52.876 49.888 53.48 50.923 C 53.536 51.012 53.56 51.126 53.56 51.26 C 53.56 51.755 53.191 52.52 52.513 53.398 Z " fill="rgb(247,248,249)"/><path d=" M 102.821 75.529 C 95.837 75.529 91.836 70.277 91.498 65.091 L 91.5 65.091 C 91.484 64.765 91.47 64.106 91.434 62.376 C 91.434 62.32 91.433 62.266 91.434 62.21 C 91.478 59.017 91.486 58.395 91.5 58.152 L 91.499 58.152 C 91.851 53.182 93.57 49.714 96.611 47.844 C 98.053 46.951 99.699 46.497 101.492 46.497 C 102.105 46.497 102.691 46.551 103.236 46.637 C 104.367 45.359 106.021 44.552 107.86 44.552 C 111.266 44.552 114.037 47.321 114.037 50.725 L 114.037 56.597 C 114.037 57.299 113.916 57.979 113.693 58.617 C 114.543 59.623 115.079 60.899 115.144 62.29 C 115.181 62.761 115.202 63.063 115.186 63.38 C 115.139 64.96 115.137 64.976 115.113 65.191 C 115.109 65.243 115.103 65.296 115.094 65.347 C 114.951 66.374 114.579 68.326 113.705 69.858 C 113.143 70.841 112.558 71.549 112.008 72.17 C 110.902 73.416 109.629 74.109 108.527 74.623 C 106.69 75.487 105.105 75.503 103.947 75.515 L 103.217 75.523 C 103.084 75.526 102.951 75.529 102.821 75.529 Z " fill="rgb(247,248,249)"/><path d=" M 108.953 61.235 C 108.216 61.245 107.625 61.851 107.625 62.59 C 107.625 62.597 107.661 63.028 107.661 63.083 C 107.661 63.137 107.632 64.207 107.627 64.359 C 107.541 64.919 107.345 65.812 107.161 66.129 C 106.958 66.485 106.745 66.752 106.368 67.182 C 106.156 67.423 105.64 67.663 105.333 67.81 C 104.985 67.971 104.649 67.977 103.861 67.986 L 103.037 67.996 C 99.513 68.11 99.068 65.243 99.011 64.615 C 99.009 64.523 98.968 62.337 98.968 62.29 C 98.968 62.247 99.009 58.758 99.011 58.659 C 99.181 56.331 99.73 54.765 100.557 54.259 C 101.195 53.862 102.214 53.969 103.675 54.578 C 105.472 55.328 106.695 57.288 106.708 57.304 C 107.025 57.82 107.648 58.06 108.229 57.899 C 108.814 57.733 109.217 57.205 109.217 56.597 L 109.217 50.725 C 109.217 49.98 108.612 49.371 107.86 49.371 C 107.116 49.371 106.504 49.98 106.504 50.725 L 106.504 53.137 C 105.979 52.729 105.379 52.355 104.717 52.077 C 103.862 51.719 101.261 50.636 99.135 51.948 C 97.471 52.973 96.547 55.115 96.306 58.493 C 96.304 58.518 96.253 62.277 96.253 62.277 C 96.253 62.277 96.304 64.76 96.306 64.777 C 96.446 66.897 98.051 70.867 103.121 70.704 L 103.881 70.696 C 104.798 70.688 105.585 70.682 106.485 70.259 C 107.127 69.958 107.86 69.582 108.4 68.976 C 108.79 68.534 109.167 68.084 109.518 67.472 C 110.038 66.559 110.279 64.983 110.321 64.679 C 110.327 64.63 110.37 63.133 110.37 63.133 C 110.374 63.113 110.332 62.567 110.332 62.567 C 110.321 61.822 109.705 61.222 108.953 61.235 Z " fill="rgb(247,248,249)"/><path d=" M 122.08 77.701 C 120.624 77.701 119.226 77.154 118.146 76.16 C 117.711 75.763 117.347 75.317 117.053 74.836 L 111.96 74.75 C 108.566 74.691 105.844 71.886 105.887 68.497 C 105.93 66.025 107.433 63.899 109.551 62.941 L 109.568 53.476 C 107.453 52.495 105.982 50.351 105.982 47.868 C 105.982 44.464 108.751 41.693 112.155 41.693 L 117.96 41.693 C 119.069 40.347 120.739 39.472 122.617 39.435 C 122.617 39.435 129.755 39.313 129.783 39.313 C 133.132 39.313 135.903 42.037 135.959 45.387 C 135.996 47.832 134.607 49.97 132.565 51.004 C 132.606 57.711 132.631 61.926 132.644 64.702 C 134.515 65.668 135.844 67.567 135.987 69.797 C 136.204 73.197 133.619 76.14 130.223 76.357 C 127.42 76.541 125.633 76.858 125.132 77 C 125.034 77.04 124.937 77.076 124.837 77.109 C 124.217 77.345 123.282 77.701 122.08 77.701 Z " fill="rgb(247,248,249)"/><path d=" M 131.179 70.108 C 131.131 69.362 130.486 68.794 129.739 68.842 C 129.235 68.876 128.573 68.926 127.835 69.005 C 127.838 66.689 127.813 62.022 127.72 46.877 L 129.807 46.848 C 130.553 46.835 131.151 46.215 131.141 45.467 C 131.129 44.721 130.512 44.122 129.764 44.133 L 122.711 44.252 C 121.96 44.269 121.366 44.883 121.379 45.632 C 121.389 46.379 122.008 46.979 122.753 46.964 L 125.006 46.923 C 125.027 49.887 125.043 53.082 125.063 56.314 L 117.091 57.647 L 117.106 49.227 L 119.272 49.227 C 120.023 49.227 120.631 48.619 120.631 47.868 C 120.631 47.121 120.023 46.513 119.272 46.513 L 112.155 46.513 C 111.407 46.513 110.801 47.121 110.801 47.868 C 110.801 48.619 111.407 49.227 112.155 49.227 L 114.395 49.227 L 114.363 67.261 L 112.083 67.222 C 111.337 67.209 110.72 67.807 110.706 68.561 C 110.697 69.303 111.291 69.918 112.039 69.931 L 119.361 70.054 C 120.109 70.065 120.725 69.467 120.737 68.72 C 120.748 67.969 120.152 67.355 119.406 67.345 L 117.071 67.307 L 117.086 60.392 L 125.08 59.058 C 125.106 64.166 125.127 67.573 125.127 69.393 C 123.28 69.742 122.043 69.888 121.292 70.73 C 120.803 71.283 120.86 72.114 121.407 72.611 C 121.952 73.113 122.558 72.813 123.325 72.529 L 123.314 72.536 C 124.096 72.181 126.677 71.758 129.913 71.549 C 130.66 71.499 131.226 70.856 131.179 70.108 Z " fill="rgb(247,248,249)"/><path d=" M 72.652 70.619 C 71.311 70.618 70.034 70.194 68.96 69.388 C 68.727 69.217 68.509 69.031 68.305 68.833 C 67.537 69.174 66.687 69.365 65.795 69.365 C 65.703 69.365 65.61 69.362 65.517 69.358 L 58.759 69.038 C 55.363 68.88 52.724 65.988 52.878 62.591 C 53.026 59.289 55.736 56.698 59.049 56.698 C 59.077 56.698 59.105 56.698 59.134 56.699 C 59.444 55.144 60.201 51.349 60.237 51.166 C 58 50.461 56.279 48.512 55.957 46.09 C 55.514 42.718 57.889 39.611 61.246 39.153 L 67.047 38.356 C 67.323 38.319 67.606 38.299 67.883 38.299 C 69.583 38.299 71.225 39.011 72.391 40.254 C 72.815 40.703 73.424 41.586 73.751 42.366 L 78.843 54.673 C 78.866 54.73 78.894 54.794 78.924 54.869 C 78.94 54.868 78.958 54.868 78.973 54.868 C 81.571 54.868 83.907 56.51 84.786 58.957 C 85.928 62.155 84.264 65.693 81.08 66.85 C 79.046 67.577 77.743 68.244 77.273 68.541 C 76.109 69.85 74.419 70.619 72.653 70.619 C 72.653 70.619 72.653 70.619 72.652 70.619 Z " fill="rgb(247,248,249)"/><path d=" M 78.517 59.767 C 78.116 59.91 77.339 60.299 76.135 60.829 C 76.135 60.829 74.452 56.631 74.393 56.527 L 69.297 44.208 C 69.247 44.077 68.963 43.643 68.875 43.55 C 68.573 43.228 68.136 43.071 67.704 43.131 L 61.895 43.929 C 61.154 44.03 60.638 44.713 60.734 45.453 C 60.834 46.197 61.514 46.713 62.257 46.618 C 62.257 46.618 64.419 46.307 66.171 46.071 C 65.669 48.541 63.668 58.638 63.041 61.709 L 59.11 61.518 C 58.363 61.486 57.726 62.061 57.692 62.811 C 57.66 63.557 58.24 64.188 58.987 64.223 L 65.732 64.543 C 66.479 64.575 67.114 63.999 67.151 63.254 C 67.185 62.502 66.748 61.826 65.782 61.826 L 66.092 59.76 L 72.359 58.721 L 73.701 62.039 C 72.679 62.623 72.041 62.992 71.563 63.634 C 71.117 64.238 71.245 65.084 71.847 65.529 C 72.444 65.977 73.295 65.851 73.744 65.249 C 74.346 64.438 76.906 63.224 79.434 62.32 C 80.136 62.065 80.501 61.288 80.25 60.585 C 79.998 59.883 79.219 59.515 78.517 59.767 Z  M 66.67 57.583 L 68.332 49.449 L 71.312 56.813 L 66.67 57.583 Z " fill="rgb(247,248,249)"/><path d=" M 82.231 74.493 C 78.886 74.493 76.116 71.767 76.058 68.418 C 76.016 65.675 77.771 63.32 80.23 62.475 L 80.226 60.651 C 80.043 60.695 79.857 60.731 79.669 60.76 C 79.365 60.806 79.054 60.829 78.75 60.829 C 75.671 60.829 73.105 58.618 72.647 55.573 L 71.613 48.926 C 71.339 47.164 71.847 45.366 73.008 43.997 C 74.152 42.634 75.849 41.835 77.648 41.814 L 86.27 41.67 C 90.46 41.591 94.198 41.327 94.4 41.313 C 94.429 41.308 94.458 41.307 94.488 41.305 C 94.621 41.298 94.754 41.292 94.886 41.292 C 96.538 41.292 98.145 41.965 99.296 43.14 C 100.536 44.385 101.183 46.145 101.047 47.939 C 100.931 49.475 100.894 51.905 100.889 52.494 C 100.957 54.994 99.59 57.257 97.364 58.295 C 96.541 58.683 95.608 58.895 94.687 58.895 L 94.687 58.895 C 93.954 58.895 93.238 58.761 92.573 58.515 L 92.581 62.39 C 94.923 63.248 96.621 65.488 96.657 68.11 C 96.683 69.76 96.058 71.325 94.901 72.51 C 93.746 73.692 92.2 74.354 90.548 74.369 C 90.548 74.37 82.254 74.493 82.231 74.493 Z " fill="rgb(247,248,249)"/><path d=" M 94.798 46.114 C 94.756 46.12 90.788 46.404 86.351 46.49 L 77.703 46.634 C 77.31 46.637 76.939 46.809 76.686 47.113 C 76.433 47.408 76.317 47.8 76.376 48.187 L 77.412 54.855 C 77.525 55.596 78.213 56.104 78.953 55.995 C 79.626 55.894 80.107 55.315 80.107 54.655 C 80.107 54.593 79.563 51.178 79.287 49.32 C 79.639 49.318 85.024 49.222 85.024 49.222 L 85.059 66.923 L 82.211 66.96 C 81.463 66.973 80.865 67.589 80.876 68.334 C 80.891 69.085 81.503 69.683 82.249 69.674 L 90.503 69.55 C 91.25 69.543 91.85 68.922 91.84 68.177 C 91.828 67.426 91.212 66.833 90.465 66.839 L 87.769 66.88 L 87.734 49.169 C 90.068 49.104 92.066 48.993 93.434 48.918 C 93.365 50.045 93.332 50.894 93.332 51.511 C 93.332 52.961 93.487 53.235 93.605 53.44 C 93.949 54.066 94.681 54.232 95.328 53.927 C 95.831 53.693 96.101 53.128 96.069 52.574 C 96.067 52.551 96.094 49.515 96.242 47.574 C 96.271 47.179 96.132 46.793 95.853 46.513 C 95.579 46.232 95.189 46.09 94.798 46.114 Z " fill="rgb(247,248,249)"/><path d=" M 31.587 77.225 C 24.634 77.224 20.635 72.029 20.251 66.867 C 20.24 66.71 20.235 66.577 20.234 66.471 L 20.185 63.966 C 20.185 63.944 20.234 60.213 20.234 60.213 C 20.234 60.097 20.24 59.968 20.249 59.835 C 20.606 54.868 22.326 51.402 25.363 49.534 C 26.811 48.641 28.454 48.189 30.242 48.189 C 30.857 48.189 31.443 48.245 31.988 48.331 C 33.12 47.051 34.774 46.242 36.614 46.242 C 40.02 46.242 42.788 49.013 42.788 52.419 L 42.788 58.286 C 42.788 58.919 42.691 59.535 42.508 60.119 C 43.333 61.129 43.848 62.404 43.897 63.792 L 43.935 64.504 C 43.941 64.59 43.942 64.678 43.942 64.766 C 43.942 64.781 43.925 66.43 43.841 67.052 L 43.841 67.052 C 43.661 68.314 43.273 70.122 42.452 71.557 C 41.885 72.552 41.288 73.26 40.773 73.847 C 39.645 75.11 38.375 75.802 37.279 76.314 C 35.444 77.18 33.857 77.194 32.697 77.206 L 31.99 77.22 C 31.856 77.223 31.722 77.226 31.589 77.226 C 31.588 77.225 31.588 77.225 31.587 77.225 Z " fill="rgb(247,248,249)"/><path d=" M 37.708 62.656 C 36.965 62.67 36.375 63.277 36.375 64.013 C 36.375 64.021 36.412 64.718 36.412 64.775 C 36.412 64.83 36.382 65.893 36.378 66.049 C 36.292 66.609 36.098 67.502 35.914 67.818 C 35.711 68.175 35.485 68.456 35.116 68.87 C 34.906 69.112 34.392 69.355 34.083 69.496 C 33.736 69.66 33.403 69.668 32.616 69.675 L 31.788 69.689 C 28.263 69.797 27.82 66.938 27.763 66.306 C 27.762 66.213 27.718 64.025 27.714 63.982 C 27.718 63.937 27.763 60.448 27.763 60.348 C 27.933 58.021 28.48 56.455 29.309 55.95 C 29.944 55.552 30.964 55.66 32.424 56.268 C 34.222 57.021 35.448 58.975 35.456 58.996 C 35.775 59.509 36.399 59.756 36.981 59.588 C 37.565 59.425 37.968 58.895 37.968 58.286 L 37.968 52.418 C 37.968 51.669 37.36 51.062 36.614 51.062 C 35.862 51.062 35.258 51.669 35.258 52.418 L 35.258 54.827 C 34.732 54.419 34.134 54.042 33.468 53.767 C 32.616 53.41 30.013 52.33 27.889 53.638 C 26.224 54.662 25.299 56.804 25.056 60.184 C 25.054 60.211 25.054 60.236 25.054 60.258 L 25.004 63.966 L 25.004 64.013 L 25.054 66.407 C 25.054 66.429 25.054 66.449 25.056 66.466 C 25.197 68.59 26.801 72.554 31.872 72.402 L 32.633 72.386 C 33.548 72.378 34.337 72.374 35.237 71.949 C 35.881 71.649 36.609 71.275 37.152 70.665 C 37.542 70.223 37.922 69.773 38.269 69.164 C 38.791 68.25 39.027 66.674 39.07 66.37 C 39.078 66.319 39.123 64.783 39.123 64.765 L 39.082 63.992 C 39.07 63.243 38.453 62.642 37.708 62.656 Z " fill="rgb(247,248,249)"/></g><path d=" M 14.859 57.328 C 13.304 57.085 12.481 56.05 12.889 52.832 L 12.939 52.443 C 13.284 49.644 13.58 49.032 14.915 49.101 C 15.314 49.126 15.768 49.373 16.224 49.746 C 16.635 50.23 17.577 50.86 18.095 52.111 C 18.475 53.022 18.605 53.617 18.653 54.257 C 18.657 54.278 18.743 55.043 18.743 55.043 L 18.744 55.042 C 18.847 55.578 19.267 56.019 19.835 56.122 C 20.569 56.253 21.275 55.764 21.408 55.028 C 21.419 54.944 21.754 46.475 21.756 46.334 C 21.76 45.589 21.159 44.982 20.413 44.974 C 19.66 44.972 19.051 45.575 19.048 46.324 C 19.048 46.34 19.041 47.502 19.02 48.684 C 17.959 47.522 16.588 46.483 15.064 46.397 C 10.962 46.172 10.518 49.939 10.251 52.112 L 10.204 52.494 C 9.658 56.776 11.086 59.483 14.443 60.007 C 18.096 60.583 20.535 61.423 20.558 63.67 C 20.567 64.538 20.111 65.433 19.305 66.125 C 18.343 66.949 17.043 67.318 15.833 67.114 C 15.457 67.053 15.098 66.958 14.763 66.839 C 14.278 66.575 13.076 65.844 12.464 64.996 C 11.948 64.282 11.772 63.158 11.715 62.448 C 11.722 62.131 11.726 61.919 11.727 61.891 C 11.735 61.146 11.139 60.533 10.39 60.518 C 9.643 60.505 9.023 61.102 9.013 61.854 C 9.013 61.879 8.973 64.53 8.884 66.129 C 8.742 68.701 8.88 70.883 8.884 70.976 C 8.936 71.723 9.577 72.291 10.324 72.242 C 11.075 72.195 11.637 71.549 11.591 70.804 C 11.591 70.784 11.522 69.736 11.532 68.27 C 12.522 68.907 13.82 69.525 15.387 69.789 C 17.407 70.127 19.477 69.544 21.065 68.183 C 22.482 66.97 23.288 65.313 23.27 63.641 C 23.216 58.636 17.576 57.755 14.859 57.328 Z " fill="rgb(249,167,55)"/><path d=" M 60.217 65.498 C 59.499 65.278 58.737 65.681 58.521 66.393 C 58.026 68.002 57.63 68.062 57.355 68.193 C 57.083 68.324 56.716 68.286 56.127 68.056 C 56.036 68.003 55.791 67.684 55.651 67.387 C 55.44 66.932 55.191 65.045 55.167 63.968 C 55.063 59.988 54.372 57.801 53.254 56.595 C 54.009 56.1 54.558 55.455 54.619 55.374 C 54.629 55.363 54.637 55.355 54.646 55.342 C 56.308 53.187 56.702 51.326 55.819 49.816 C 53.603 46.042 43.87 47.162 40.94 47.594 C 40.196 47.702 39.687 48.394 39.799 49.133 C 39.903 49.876 40.593 50.385 41.333 50.273 C 42.028 50.171 42.739 50.087 43.453 50.021 L 43.48 56.331 C 43.255 56.344 43.031 56.351 42.81 56.351 C 42.062 56.351 41.455 56.954 41.455 57.705 C 41.455 58.45 42.062 59.06 42.81 59.06 C 43.035 59.06 43.262 59.054 43.493 59.044 L 43.522 66.932 L 41.656 67.204 C 40.916 67.312 40.404 68.003 40.514 68.74 C 40.619 69.483 41.308 69.995 42.048 69.889 L 48.588 68.929 C 49.326 68.821 49.84 68.134 49.73 67.396 C 49.623 66.652 48.932 66.141 48.194 66.244 L 46.231 66.535 L 46.196 58.759 C 47.489 58.55 48.721 58.27 49.749 57.957 L 49.749 57.957 L 49.752 57.957 C 49.759 57.955 50.049 57.918 50.228 57.949 C 50.773 58.042 51.073 58.141 51.388 58.587 C 51.829 59.202 52.373 60.649 52.457 64.037 C 52.474 64.69 52.646 67.361 53.195 68.534 C 53.365 68.906 54.021 70.147 55.152 70.584 C 55.984 70.91 57.239 71.257 58.541 70.632 C 59.744 70.045 60.492 69.193 61.112 67.195 C 61.334 66.479 60.931 65.719 60.217 65.498 Z  M 52.513 53.398 C 52.392 53.539 52.046 53.904 51.686 54.118 C 51.353 54.314 50.898 54.45 50.459 54.584 L 49.77 54.804 C 48.814 55.144 47.55 55.5 46.19 55.749 L 46.165 49.585 C 49.748 49.486 52.876 49.888 53.48 50.923 C 53.536 51.012 53.56 51.126 53.56 51.26 C 53.56 51.755 53.191 52.52 52.513 53.398 Z " fill="rgb(249,167,55)"/><path d=" M 108.953 61.235 C 108.216 61.245 107.625 61.851 107.625 62.59 C 107.625 62.597 107.661 63.028 107.661 63.083 C 107.661 63.137 107.632 64.207 107.627 64.359 C 107.541 64.919 107.345 65.812 107.161 66.129 C 106.958 66.485 106.745 66.752 106.368 67.182 C 106.156 67.423 105.64 67.663 105.333 67.81 C 104.985 67.971 104.649 67.977 103.861 67.986 L 103.037 67.996 C 99.513 68.11 99.068 65.243 99.011 64.615 C 99.009 64.523 98.968 62.337 98.968 62.29 C 98.968 62.247 99.009 58.758 99.011 58.659 C 99.181 56.331 99.73 54.765 100.557 54.259 C 101.195 53.862 102.214 53.969 103.675 54.578 C 105.472 55.328 106.695 57.288 106.708 57.304 C 107.025 57.82 107.648 58.06 108.229 57.899 C 108.814 57.733 109.217 57.205 109.217 56.597 L 109.217 50.725 C 109.217 49.98 108.612 49.371 107.86 49.371 C 107.116 49.371 106.504 49.98 106.504 50.725 L 106.504 53.137 C 105.979 52.729 105.379 52.355 104.717 52.077 C 103.862 51.719 101.261 50.636 99.135 51.948 C 97.471 52.973 96.547 55.115 96.306 58.493 C 96.304 58.518 96.253 62.277 96.253 62.277 C 96.253 62.277 96.304 64.76 96.306 64.777 C 96.446 66.897 98.051 70.867 103.121 70.704 L 103.881 70.696 C 104.798 70.688 105.585 70.682 106.485 70.259 C 107.127 69.958 107.86 69.582 108.4 68.976 C 108.79 68.534 109.167 68.084 109.518 67.472 C 110.038 66.559 110.279 64.983 110.321 64.679 C 110.327 64.63 110.37 63.133 110.37 63.133 C 110.374 63.113 110.332 62.567 110.332 62.567 C 110.321 61.822 109.705 61.222 108.953 61.235 Z " fill="rgb(249,167,55)"/><path d=" M 131.179 70.108 C 131.131 69.362 130.486 68.794 129.739 68.842 C 129.235 68.876 128.573 68.926 127.835 69.005 C 127.838 66.689 127.813 62.022 127.72 46.877 L 129.807 46.848 C 130.553 46.835 131.151 46.215 131.141 45.467 C 131.129 44.721 130.512 44.122 129.764 44.133 L 122.711 44.252 C 121.96 44.269 121.366 44.883 121.379 45.632 C 121.389 46.379 122.008 46.979 122.753 46.964 L 125.006 46.923 C 125.027 49.887 125.043 53.082 125.063 56.314 L 117.091 57.647 L 117.106 49.227 L 119.272 49.227 C 120.023 49.227 120.631 48.619 120.631 47.868 C 120.631 47.121 120.023 46.513 119.272 46.513 L 112.155 46.513 C 111.407 46.513 110.801 47.121 110.801 47.868 C 110.801 48.619 111.407 49.227 112.155 49.227 L 114.395 49.227 L 114.363 67.261 L 112.083 67.222 C 111.337 67.209 110.72 67.807 110.706 68.561 C 110.697 69.303 111.291 69.918 112.039 69.931 L 119.361 70.054 C 120.109 70.065 120.725 69.467 120.737 68.72 C 120.748 67.969 120.152 67.355 119.406 67.345 L 117.071 67.307 L 117.086 60.392 L 125.08 59.058 C 125.106 64.166 125.127 67.573 125.127 69.393 C 123.28 69.742 122.043 69.888 121.292 70.73 C 120.803 71.283 120.86 72.114 121.407 72.611 C 121.952 73.113 122.558 72.813 123.325 72.529 L 123.314 72.536 C 124.096 72.181 126.677 71.758 129.913 71.549 C 130.66 71.499 131.226 70.856 131.179 70.108 Z " fill="rgb(249,167,55)"/><path d=" M 78.517 59.767 C 78.116 59.91 77.339 60.299 76.135 60.829 C 76.135 60.829 74.452 56.631 74.393 56.527 L 69.297 44.208 C 69.247 44.077 68.963 43.643 68.875 43.55 C 68.573 43.228 68.136 43.071 67.704 43.131 L 61.895 43.929 C 61.154 44.03 60.638 44.713 60.734 45.453 C 60.834 46.197 61.514 46.713 62.257 46.618 C 62.257 46.618 64.419 46.307 66.171 46.071 C 65.669 48.541 63.668 58.638 63.041 61.709 L 59.11 61.518 C 58.363 61.486 57.726 62.061 57.692 62.811 C 57.66 63.557 58.24 64.188 58.987 64.223 L 65.732 64.543 C 66.479 64.575 67.114 63.999 67.151 63.254 C 67.185 62.502 66.748 61.826 65.782 61.826 L 66.092 59.76 L 72.359 58.721 L 73.701 62.039 C 72.679 62.623 72.041 62.992 71.563 63.634 C 71.117 64.238 71.245 65.084 71.847 65.529 C 72.444 65.977 73.295 65.851 73.744 65.249 C 74.346 64.438 76.906 63.224 79.434 62.32 C 80.136 62.065 80.501 61.288 80.25 60.585 C 79.998 59.883 79.219 59.515 78.517 59.767 Z  M 66.67 57.583 L 68.332 49.449 L 71.312 56.813 L 66.67 57.583 Z " fill="rgb(249,167,55)"/><path d=" M 94.798 46.114 C 94.756 46.12 90.788 46.404 86.351 46.49 L 77.703 46.634 C 77.31 46.637 76.939 46.809 76.686 47.113 C 76.433 47.408 76.317 47.8 76.376 48.187 L 77.412 54.855 C 77.525 55.596 78.213 56.104 78.953 55.995 C 79.626 55.894 80.107 55.315 80.107 54.655 C 80.107 54.593 79.563 51.178 79.287 49.32 C 79.639 49.318 85.024 49.222 85.024 49.222 L 85.059 66.923 L 82.211 66.96 C 81.463 66.973 80.865 67.589 80.876 68.334 C 80.891 69.085 81.503 69.683 82.249 69.674 L 90.503 69.55 C 91.25 69.543 91.85 68.922 91.84 68.177 C 91.828 67.426 91.212 66.833 90.465 66.839 L 87.769 66.88 L 87.734 49.169 C 90.068 49.104 92.066 48.993 93.434 48.918 C 93.365 50.045 93.332 50.894 93.332 51.511 C 93.332 52.961 93.487 53.235 93.605 53.44 C 93.949 54.066 94.681 54.232 95.328 53.927 C 95.831 53.693 96.101 53.128 96.069 52.574 C 96.067 52.551 96.094 49.515 96.242 47.574 C 96.271 47.179 96.132 46.793 95.853 46.513 C 95.579 46.232 95.189 46.09 94.798 46.114 Z " fill="rgb(249,167,55)"/><path d=" M 37.708 62.656 C 36.965 62.67 36.375 63.277 36.375 64.013 C 36.375 64.021 36.412 64.718 36.412 64.775 C 36.412 64.83 36.382 65.893 36.378 66.049 C 36.292 66.609 36.098 67.502 35.914 67.818 C 35.711 68.175 35.485 68.456 35.116 68.87 C 34.906 69.112 34.392 69.355 34.083 69.496 C 33.736 69.66 33.403 69.668 32.616 69.675 L 31.788 69.689 C 28.263 69.797 27.82 66.938 27.763 66.306 C 27.762 66.213 27.718 64.025 27.714 63.982 C 27.718 63.937 27.763 60.448 27.763 60.348 C 27.933 58.021 28.48 56.455 29.309 55.95 C 29.944 55.552 30.964 55.66 32.424 56.268 C 34.222 57.021 35.448 58.975 35.456 58.996 C 35.775 59.509 36.399 59.756 36.981 59.588 C 37.565 59.425 37.968 58.895 37.968 58.286 L 37.968 52.418 C 37.968 51.669 37.36 51.062 36.614 51.062 C 35.862 51.062 35.258 51.669 35.258 52.418 L 35.258 54.827 C 34.732 54.419 34.134 54.042 33.468 53.767 C 32.616 53.41 30.013 52.33 27.889 53.638 C 26.224 54.662 25.299 56.804 25.056 60.184 C 25.054 60.211 25.054 60.236 25.054 60.258 L 25.004 63.966 L 25.004 64.013 L 25.054 66.407 C 25.054 66.429 25.054 66.449 25.056 66.466 C 25.197 68.59 26.801 72.554 31.872 72.402 L 32.633 72.386 C 33.548 72.378 34.337 72.374 35.237 71.949 C 35.881 71.649 36.609 71.275 37.152 70.665 C 37.542 70.223 37.922 69.773 38.269 69.164 C 38.791 68.25 39.027 66.674 39.07 66.37 C 39.078 66.319 39.123 64.783 39.123 64.765 L 39.082 63.992 C 39.07 63.243 38.453 62.642 37.708 62.656 Z " fill="rgb(249,167,55)"/></g></g></g><path d=" M 73.941 84.811 L 73.941 84.811 L 73.941 84.811 Q 74.648 85.708 75.137 87.012 L 75.137 87.012 L 75.137 87.012 Q 75.626 88.317 75.626 89.771 L 75.626 89.771 L 75.626 89.771 Q 75.626 91.225 75.259 92.312 L 75.259 92.312 L 75.259 92.312 Q 74.892 93.399 74.281 94.024 L 74.281 94.024 L 74.281 94.024 Q 73.669 94.649 73.058 95.057 L 73.058 95.057 L 73.058 95.057 Q 72.447 95.464 71.74 95.627 L 71.74 95.627 L 71.74 95.627 Q 70.68 95.872 70.136 95.872 L 70.136 95.872 L 70.136 95.872 Q 67.745 95.872 66.372 94.486 L 66.372 94.486 L 66.372 94.486 Q 65 93.1 65 90.871 L 65 90.871 L 65 90.871 Q 65 89.621 65.611 88.521 L 65.611 88.521 L 65.611 88.521 Q 66.223 87.42 67.174 87.42 L 67.174 87.42 L 67.174 87.42 Q 67.5 87.42 67.704 87.665 L 67.704 87.665 L 67.704 87.665 Q 67.908 87.909 67.962 88.507 L 67.962 88.507 L 67.962 88.507 Q 68.017 89.105 68.207 89.662 L 68.207 89.662 L 68.207 89.662 Q 68.397 90.219 68.615 90.477 L 68.615 90.477 L 68.615 90.477 Q 68.832 90.736 69.104 90.899 L 69.104 90.899 L 69.104 90.899 Q 69.484 91.089 69.756 91.089 L 69.756 91.089 L 69.756 91.089 Q 70.435 91.089 70.816 90.613 L 70.816 90.613 L 70.816 90.613 Q 71.196 90.138 71.196 89.349 L 71.196 89.349 L 71.196 89.349 Q 71.196 88.561 70.68 87.624 L 70.68 87.624 L 70.68 87.624 Q 70.164 86.686 69.443 85.83 L 69.443 85.83 L 69.443 85.83 Q 68.723 84.974 67.989 84.104 L 67.989 84.104 L 67.989 84.104 Q 66.223 82.012 66.223 80.136 L 66.223 80.136 L 66.223 80.136 Q 66.223 77.691 67.867 76.372 L 67.867 76.372 L 67.867 76.372 Q 69.511 75.054 72.066 75.054 L 72.066 75.054 L 72.066 75.054 Q 73.479 75.054 74.091 75.598 L 74.091 75.598 L 74.091 75.598 Q 74.702 76.141 74.702 77.514 L 74.702 77.514 L 74.702 77.514 Q 74.702 78.886 73.914 78.886 L 73.914 78.886 L 73.914 78.886 Q 73.642 78.886 73.194 78.682 L 73.194 78.682 L 73.194 78.682 Q 72.745 78.479 72.175 78.479 L 72.175 78.479 L 72.175 78.479 Q 71.604 78.479 71.224 78.941 L 71.224 78.941 L 71.224 78.941 Q 70.843 79.403 70.843 80.096 L 70.843 80.096 L 70.843 80.096 Q 70.843 80.789 71.332 81.577 L 71.332 81.577 L 71.332 81.577 Q 71.821 82.365 72.528 83.14 L 72.528 83.14 L 72.528 83.14 Q 73.235 83.914 73.941 84.811 Z  M 80.518 77.989 L 80.518 77.989 L 80.464 79.294 L 80.464 79.294 Q 80.464 80.001 80.776 80.082 L 80.776 80.082 L 80.776 80.082 Q 81.089 80.164 81.388 80.164 L 81.388 80.164 L 81.388 80.164 Q 81.687 80.164 82.285 80.109 L 82.285 80.109 L 82.285 80.109 Q 82.855 80.109 82.855 80.843 L 82.855 80.843 L 82.855 80.843 Q 82.855 82.229 80.871 82.99 L 80.871 82.99 L 80.871 82.99 Q 80.6 83.099 80.491 83.479 L 80.491 83.479 L 80.491 83.479 Q 80.328 85.137 80.328 87.366 L 80.328 87.366 L 80.328 87.366 Q 80.328 89.594 80.491 90.301 L 80.491 90.301 L 80.491 90.301 Q 80.627 90.953 81.469 91.089 L 81.469 91.089 L 81.469 91.089 Q 81.66 91.089 81.823 91.279 L 81.823 91.279 L 81.823 91.279 Q 82.122 91.632 82.122 91.972 L 82.122 91.972 L 82.122 91.972 Q 82.122 92.312 82.067 92.624 L 82.067 92.624 L 82.067 92.624 Q 82.013 92.937 81.809 93.494 L 81.809 93.494 L 81.809 93.494 Q 81.605 94.051 81.293 94.527 L 81.293 94.527 L 81.293 94.527 Q 80.98 95.002 80.355 95.356 L 80.355 95.356 L 80.355 95.356 Q 79.73 95.709 78.942 95.709 L 78.942 95.709 L 78.942 95.709 Q 77.583 95.709 76.985 94.105 L 76.985 94.105 L 76.985 94.105 Q 76.768 93.48 76.768 92.611 L 76.768 92.611 L 76.985 85.3 L 76.985 85.3 Q 76.985 83.968 76.836 83.126 L 76.836 83.126 L 76.836 83.126 Q 76.686 82.283 75.789 81.55 L 75.789 81.55 L 75.789 81.55 Q 75.409 81.278 75.409 80.789 L 75.409 80.789 L 75.409 80.789 Q 75.409 80.3 75.898 79.81 L 75.898 79.81 L 75.898 79.81 Q 77.393 78.886 78.643 76.902 L 78.643 76.902 L 78.643 76.902 Q 79.023 76.386 79.594 76.386 L 79.594 76.386 L 79.594 76.386 Q 80.518 76.386 80.518 77.989 Z  M 83.345 91.333 L 83.345 91.333 L 83.426 86.931 L 83.426 86.931 Q 83.426 86.143 83.29 85.558 L 83.29 85.558 L 83.29 85.558 Q 83.154 84.974 82.869 84.634 L 82.869 84.634 L 82.869 84.634 Q 82.584 84.295 82.584 83.914 L 82.584 83.914 L 82.584 83.914 Q 82.584 83.072 83.942 82.351 L 83.942 82.351 L 83.942 82.351 Q 85.301 81.631 86.035 81.631 L 86.035 81.631 L 86.035 81.631 Q 86.769 81.631 87.027 81.93 L 87.027 81.93 L 87.027 81.93 Q 87.285 82.229 87.285 83.017 L 87.285 83.017 L 87.285 83.017 Q 87.285 83.805 87.149 85.504 L 87.149 85.504 L 87.149 85.504 Q 87.013 87.203 87.013 87.556 L 87.013 87.556 L 87.013 87.556 Q 87.013 90.518 88.291 90.518 L 88.291 90.518 L 88.291 90.518 Q 89.215 90.518 89.541 88.589 L 89.541 88.589 L 89.541 88.589 Q 89.677 87.882 89.677 87.012 L 89.677 87.012 L 89.677 87.012 Q 89.677 85.273 89.378 84.43 L 89.378 84.43 L 89.378 84.43 Q 89.079 84.05 89.079 83.697 L 89.079 83.697 L 89.079 83.697 Q 89.079 82.881 90.302 82.324 L 90.302 82.324 L 90.302 82.324 Q 91.525 81.767 92.462 81.767 L 92.462 81.767 L 92.462 81.767 Q 93.4 81.767 93.4 82.705 L 93.4 82.705 L 93.4 82.705 Q 93.4 83.642 93.223 85.626 L 93.223 85.626 L 93.223 85.626 Q 93.047 87.61 93.047 88.765 L 93.047 88.765 L 93.047 88.765 Q 93.047 89.92 93.074 90.396 L 93.074 90.396 L 93.074 90.396 Q 93.101 90.871 93.359 91.809 L 93.359 91.809 L 93.359 91.809 Q 93.617 92.747 94.052 93.018 L 94.052 93.018 L 94.052 93.018 Q 94.514 93.236 94.514 93.603 L 94.514 93.603 L 94.514 93.603 Q 94.514 93.97 94.297 94.269 L 94.297 94.269 L 94.297 94.269 Q 93.291 95.655 91.117 95.655 L 91.117 95.655 L 91.117 95.655 Q 89.894 95.573 89.731 94.731 L 89.731 94.731 L 89.541 93.807 L 89.541 93.807 Q 89.514 93.616 89.378 93.616 L 89.378 93.616 L 89.16 93.725 L 89.16 93.725 Q 88.182 95.573 86.171 95.573 L 86.171 95.573 L 86.171 95.573 Q 83.345 95.519 83.345 91.333 Z  M 105.222 88.969 L 105.222 89.485 L 105.249 90.138 L 105.249 90.246 L 105.249 90.246 Q 105.249 91.687 106.119 92.285 L 106.119 92.285 L 106.119 92.285 Q 106.527 92.611 106.527 92.991 L 106.527 92.991 L 106.527 92.991 Q 106.527 93.372 106.336 93.643 L 106.336 93.643 L 106.336 93.643 Q 105.738 94.513 104.842 95.03 L 104.842 95.03 L 104.842 95.03 Q 103.646 95.736 102.749 95.736 L 102.749 95.736 L 102.749 95.736 Q 101.852 95.736 101.771 94.866 L 101.771 94.866 L 101.771 94.866 Q 101.716 94.187 101.499 94.187 L 101.499 94.187 L 101.309 94.296 L 101.309 94.296 Q 100.385 95.573 98.863 95.573 L 98.863 95.573 L 98.863 95.573 Q 97.748 95.573 96.947 95.002 L 96.947 95.002 L 96.947 95.002 Q 96.145 94.432 95.737 93.453 L 95.737 93.453 L 95.737 93.453 Q 94.949 91.605 94.949 89.295 L 94.949 89.295 L 94.949 89.295 Q 94.949 86.822 96.199 84.539 L 96.199 84.539 L 96.199 84.539 Q 96.824 83.452 97.884 82.759 L 97.884 82.759 L 97.884 82.759 Q 98.944 82.066 100.222 82.066 L 100.222 82.066 L 100.222 82.066 Q 100.819 82.066 101.2 82.229 L 101.2 82.229 L 101.58 82.392 L 101.58 82.392 Q 101.771 82.392 101.811 81.957 L 101.811 81.957 L 101.811 81.957 Q 101.852 81.523 101.852 80.829 L 101.852 80.829 L 101.852 80.829 Q 101.852 80.136 101.798 79.688 L 101.798 79.688 L 101.798 79.688 Q 101.743 79.24 101.662 79.022 L 101.662 79.022 L 101.662 79.022 Q 101.58 78.805 101.472 78.669 L 101.472 78.669 L 101.472 78.669 Q 101.309 78.451 100.928 78.207 L 100.928 78.207 L 100.928 78.207 Q 100.575 77.962 100.575 77.527 L 100.575 77.527 L 100.575 77.527 Q 100.575 76.631 102.11 75.815 L 102.11 75.815 L 102.11 75.815 Q 103.646 75 104.651 75 L 104.651 75 L 104.651 75 Q 105.412 75 105.494 75.679 L 105.494 75.679 L 105.494 75.679 Q 105.548 75.951 105.548 76.767 L 105.548 76.767 L 105.548 76.767 Q 105.548 77.582 105.372 80.082 L 105.372 80.082 L 105.372 80.082 Q 105.195 82.582 105.195 84.865 L 105.195 84.865 L 105.195 87.583 L 105.222 88.969 Z  M 99.569 90.736 L 99.569 90.736 L 99.569 90.736 Q 100.575 90.736 101.186 89.594 L 101.186 89.594 L 101.186 89.594 Q 101.798 88.453 101.798 87.556 L 101.798 87.556 L 101.798 87.556 Q 101.798 85.436 100.629 85.436 L 100.629 85.436 L 100.629 85.436 Q 99.678 85.436 99.039 86.645 L 99.039 86.645 L 99.039 86.645 Q 98.401 87.855 98.401 88.942 L 98.401 88.942 L 98.401 88.942 Q 98.401 90.627 99.569 90.736 Z  M 107.695 88.996 L 107.614 86.306 L 107.614 86.306 Q 107.614 85.871 107.41 85.49 L 107.41 85.49 L 107.41 85.49 Q 107.206 85.11 106.88 84.811 L 106.88 84.811 L 106.88 84.811 Q 106.554 84.512 106.554 84.159 L 106.554 84.159 L 106.554 84.159 Q 106.554 83.235 107.967 82.514 L 107.967 82.514 L 107.967 82.514 Q 109.38 81.794 110.345 81.794 L 110.345 81.794 L 110.345 81.794 Q 111.31 81.794 111.337 82.773 L 111.337 82.773 L 111.337 82.773 Q 111.337 83.452 111.215 85.205 L 111.215 85.205 L 111.215 85.205 Q 111.092 86.958 111.092 88.453 L 111.092 88.453 L 111.092 88.453 Q 111.092 92.067 111.745 92.991 L 111.745 92.991 L 111.745 92.991 Q 112.125 93.209 112.125 93.671 L 112.125 93.671 L 112.125 93.671 Q 112.125 94.568 111.133 95.084 L 111.133 95.084 L 111.133 95.084 Q 110.141 95.6 108.891 95.6 L 108.891 95.6 L 108.891 95.6 Q 107.233 95.6 107.233 94.486 L 107.233 94.486 L 107.233 94.486 Q 107.233 94.432 107.315 93.861 L 107.315 93.861 L 107.315 93.861 Q 107.695 91.687 107.695 88.996 L 107.695 88.996 Z  M 111.609 77.663 L 111.609 77.663 L 111.609 77.663 Q 111.609 78.669 110.644 79.28 L 110.644 79.28 L 110.644 79.28 Q 109.679 79.892 108.782 79.892 L 108.782 79.892 L 108.782 79.892 Q 107.885 79.892 107.383 79.552 L 107.383 79.552 L 107.383 79.552 Q 106.88 79.212 106.88 78.642 L 106.88 78.642 L 106.88 78.642 Q 106.88 77.609 107.858 76.97 L 107.858 76.97 L 107.858 76.97 Q 108.837 76.332 109.72 76.332 L 109.72 76.332 L 109.72 76.332 Q 110.603 76.332 111.106 76.685 L 111.106 76.685 L 111.106 76.685 Q 111.609 77.038 111.609 77.663 Z  M 117.832 81.631 L 117.832 81.631 L 117.832 81.631 Q 120.197 81.631 121.433 83.697 L 121.433 83.697 L 121.433 83.697 Q 122.67 85.762 122.67 88.752 L 122.67 88.752 L 122.67 88.752 Q 122.67 92.692 120.414 94.731 L 120.414 94.731 L 120.414 94.731 Q 119.164 95.845 117.642 95.845 L 117.642 95.845 L 117.642 95.845 Q 116.12 95.845 115.128 95.22 L 115.128 95.22 L 115.128 95.22 Q 114.136 94.595 113.62 93.562 L 113.62 93.562 L 113.62 93.562 Q 112.56 91.551 112.56 89.268 L 112.56 89.268 L 112.56 89.268 Q 112.56 86.605 113.783 84.267 L 113.783 84.267 L 113.783 84.267 Q 114.381 83.099 115.441 82.365 L 115.441 82.365 L 115.441 82.365 Q 116.501 81.631 117.832 81.631 Z  M 119.409 87.42 L 119.409 87.42 Q 119.409 86.605 119.082 85.952 L 119.082 85.952 L 119.082 85.952 Q 118.756 85.3 118.009 85.3 L 118.009 85.3 L 118.009 85.3 Q 117.262 85.3 116.569 86.346 L 116.569 86.346 L 116.569 86.346 Q 115.876 87.393 115.876 88.887 L 115.876 88.887 L 115.876 88.887 Q 115.876 90.98 117.262 90.98 L 117.262 90.98 L 117.262 90.98 Q 118.022 90.98 118.716 90.029 L 118.716 90.029 L 118.716 90.029 Q 119.409 89.078 119.409 87.42 L 119.409 87.42 Z  M 128.16 81.577 L 128.16 81.577 L 128.16 81.577 Q 131.747 81.577 131.747 83.697 L 131.747 83.697 L 131.747 83.697 Q 131.747 84.295 131.353 84.702 L 131.353 84.702 L 131.353 84.702 Q 130.959 85.11 130.456 85.11 L 130.456 85.11 L 130.456 85.11 Q 129.953 85.11 129.491 84.838 L 129.491 84.838 L 129.491 84.838 Q 129.029 84.566 128.458 84.566 L 128.458 84.566 L 128.458 84.566 Q 127.072 84.566 127.072 85.354 L 127.072 85.354 L 127.072 85.354 Q 127.072 85.708 127.507 85.952 L 127.507 85.952 L 127.507 85.952 Q 130.714 87.556 131.366 88.561 L 131.366 88.561 L 131.366 88.561 Q 132.155 89.73 132.155 91.361 L 132.155 91.361 L 132.155 91.361 Q 132.155 91.959 131.883 92.801 L 131.883 92.801 L 131.883 92.801 Q 131.611 93.643 131.149 94.228 L 131.149 94.228 L 131.149 94.228 Q 130.687 94.812 129.681 95.301 L 129.681 95.301 L 129.681 95.301 Q 128.676 95.79 127.29 95.79 L 127.29 95.79 L 127.29 95.79 Q 126.312 95.79 125.197 95.464 L 125.197 95.464 L 125.197 95.464 Q 122.942 94.812 122.942 92.774 L 122.942 92.774 L 122.942 92.774 Q 122.942 91.823 123.485 91.13 L 123.485 91.13 L 123.485 91.13 Q 124.029 90.437 124.844 90.437 L 124.844 90.437 L 124.844 90.437 Q 125.659 90.437 126.013 90.926 L 126.013 90.926 L 126.013 90.926 Q 126.04 90.953 126.176 91.17 L 126.176 91.17 L 126.176 91.17 Q 126.312 91.388 126.42 91.496 L 126.42 91.496 L 126.42 91.496 Q 126.774 91.85 127.344 91.85 L 127.344 91.85 L 127.344 91.85 Q 127.915 91.85 128.241 91.564 L 128.241 91.564 L 128.241 91.564 Q 128.567 91.279 128.567 90.79 L 128.567 90.79 L 128.567 90.79 Q 128.567 90.301 127.806 89.784 L 127.806 89.784 L 127.806 89.784 Q 127.045 89.268 126.135 88.887 L 126.135 88.887 L 126.135 88.887 Q 125.224 88.507 124.463 87.678 L 124.463 87.678 L 124.463 87.678 Q 123.703 86.849 123.703 85.735 L 123.703 85.735 L 123.703 85.735 Q 123.703 83.833 124.939 82.705 L 124.939 82.705 L 124.939 82.705 Q 126.176 81.577 128.16 81.577 Z " fill-rule="evenodd" fill="none" vector-effect="non-scaling-stroke" stroke-width="8" stroke="rgb(40,165,218)" stroke-linejoin="miter" stroke-linecap="square" stroke-miterlimit="3"/><path d=" M 73.941 84.811 L 73.941 84.811 L 73.941 84.811 Q 74.648 85.708 75.137 87.012 L 75.137 87.012 L 75.137 87.012 Q 75.626 88.317 75.626 89.771 L 75.626 89.771 L 75.626 89.771 Q 75.626 91.225 75.259 92.312 L 75.259 92.312 L 75.259 92.312 Q 74.892 93.399 74.281 94.024 L 74.281 94.024 L 74.281 94.024 Q 73.669 94.649 73.058 95.057 L 73.058 95.057 L 73.058 95.057 Q 72.447 95.464 71.74 95.627 L 71.74 95.627 L 71.74 95.627 Q 70.68 95.872 70.136 95.872 L 70.136 95.872 L 70.136 95.872 Q 67.745 95.872 66.372 94.486 L 66.372 94.486 L 66.372 94.486 Q 65 93.1 65 90.871 L 65 90.871 L 65 90.871 Q 65 89.621 65.611 88.521 L 65.611 88.521 L 65.611 88.521 Q 66.223 87.42 67.174 87.42 L 67.174 87.42 L 67.174 87.42 Q 67.5 87.42 67.704 87.665 L 67.704 87.665 L 67.704 87.665 Q 67.908 87.909 67.962 88.507 L 67.962 88.507 L 67.962 88.507 Q 68.017 89.105 68.207 89.662 L 68.207 89.662 L 68.207 89.662 Q 68.397 90.219 68.615 90.477 L 68.615 90.477 L 68.615 90.477 Q 68.832 90.736 69.104 90.899 L 69.104 90.899 L 69.104 90.899 Q 69.484 91.089 69.756 91.089 L 69.756 91.089 L 69.756 91.089 Q 70.435 91.089 70.816 90.613 L 70.816 90.613 L 70.816 90.613 Q 71.196 90.138 71.196 89.35 L 71.196 89.35 L 71.196 89.35 Q 71.196 88.561 70.68 87.624 L 70.68 87.624 L 70.68 87.624 Q 70.164 86.686 69.443 85.83 L 69.443 85.83 L 69.443 85.83 Q 68.723 84.974 67.989 84.104 L 67.989 84.104 L 67.989 84.104 Q 66.223 82.012 66.223 80.136 L 66.223 80.136 L 66.223 80.136 Q 66.223 77.691 67.867 76.372 L 67.867 76.372 L 67.867 76.372 Q 69.511 75.054 72.066 75.054 L 72.066 75.054 L 72.066 75.054 Q 73.479 75.054 74.091 75.598 L 74.091 75.598 L 74.091 75.598 Q 74.702 76.141 74.702 77.514 L 74.702 77.514 L 74.702 77.514 Q 74.702 78.886 73.914 78.886 L 73.914 78.886 L 73.914 78.886 Q 73.642 78.886 73.194 78.682 L 73.194 78.682 L 73.194 78.682 Q 72.745 78.479 72.175 78.479 L 72.175 78.479 L 72.175 78.479 Q 71.604 78.479 71.224 78.941 L 71.224 78.941 L 71.224 78.941 Q 70.843 79.403 70.843 80.096 L 70.843 80.096 L 70.843 80.096 Q 70.843 80.789 71.332 81.577 L 71.332 81.577 L 71.332 81.577 Q 71.821 82.365 72.528 83.14 L 72.528 83.14 L 72.528 83.14 Q 73.235 83.914 73.941 84.811 Z  M 80.518 77.989 L 80.518 77.989 L 80.464 79.294 L 80.464 79.294 Q 80.464 80.001 80.776 80.082 L 80.776 80.082 L 80.776 80.082 Q 81.089 80.164 81.388 80.164 L 81.388 80.164 L 81.388 80.164 Q 81.687 80.164 82.285 80.109 L 82.285 80.109 L 82.285 80.109 Q 82.855 80.109 82.855 80.843 L 82.855 80.843 L 82.855 80.843 Q 82.855 82.229 80.871 82.99 L 80.871 82.99 L 80.871 82.99 Q 80.6 83.099 80.491 83.479 L 80.491 83.479 L 80.491 83.479 Q 80.328 85.137 80.328 87.366 L 80.328 87.366 L 80.328 87.366 Q 80.328 89.594 80.491 90.301 L 80.491 90.301 L 80.491 90.301 Q 80.627 90.953 81.469 91.089 L 81.469 91.089 L 81.469 91.089 Q 81.66 91.089 81.823 91.279 L 81.823 91.279 L 81.823 91.279 Q 82.122 91.632 82.122 91.972 L 82.122 91.972 L 82.122 91.972 Q 82.122 92.312 82.067 92.624 L 82.067 92.624 L 82.067 92.624 Q 82.013 92.937 81.809 93.494 L 81.809 93.494 L 81.809 93.494 Q 81.605 94.051 81.293 94.527 L 81.293 94.527 L 81.293 94.527 Q 80.98 95.002 80.355 95.356 L 80.355 95.356 L 80.355 95.356 Q 79.73 95.709 78.942 95.709 L 78.942 95.709 L 78.942 95.709 Q 77.583 95.709 76.985 94.105 L 76.985 94.105 L 76.985 94.105 Q 76.768 93.48 76.768 92.611 L 76.768 92.611 L 76.985 85.3 L 76.985 85.3 Q 76.985 83.968 76.836 83.126 L 76.836 83.126 L 76.836 83.126 Q 76.686 82.283 75.789 81.55 L 75.789 81.55 L 75.789 81.55 Q 75.409 81.278 75.409 80.789 L 75.409 80.789 L 75.409 80.789 Q 75.409 80.3 75.898 79.81 L 75.898 79.81 L 75.898 79.81 Q 77.393 78.886 78.643 76.902 L 78.643 76.902 L 78.643 76.902 Q 79.023 76.386 79.594 76.386 L 79.594 76.386 L 79.594 76.386 Q 80.518 76.386 80.518 77.989 Z  M 83.345 91.333 L 83.345 91.333 L 83.426 86.931 L 83.426 86.931 Q 83.426 86.143 83.29 85.558 L 83.29 85.558 L 83.29 85.558 Q 83.154 84.974 82.869 84.634 L 82.869 84.634 L 82.869 84.634 Q 82.584 84.295 82.584 83.914 L 82.584 83.914 L 82.584 83.914 Q 82.584 83.072 83.942 82.351 L 83.942 82.351 L 83.942 82.351 Q 85.301 81.631 86.035 81.631 L 86.035 81.631 L 86.035 81.631 Q 86.769 81.631 87.027 81.93 L 87.027 81.93 L 87.027 81.93 Q 87.285 82.229 87.285 83.017 L 87.285 83.017 L 87.285 83.017 Q 87.285 83.805 87.149 85.504 L 87.149 85.504 L 87.149 85.504 Q 87.013 87.203 87.013 87.556 L 87.013 87.556 L 87.013 87.556 Q 87.013 90.518 88.291 90.518 L 88.291 90.518 L 88.291 90.518 Q 89.215 90.518 89.541 88.589 L 89.541 88.589 L 89.541 88.589 Q 89.677 87.882 89.677 87.012 L 89.677 87.012 L 89.677 87.012 Q 89.677 85.273 89.378 84.43 L 89.378 84.43 L 89.378 84.43 Q 89.079 84.05 89.079 83.697 L 89.079 83.697 L 89.079 83.697 Q 89.079 82.881 90.302 82.324 L 90.302 82.324 L 90.302 82.324 Q 91.525 81.767 92.462 81.767 L 92.462 81.767 L 92.462 81.767 Q 93.4 81.767 93.4 82.705 L 93.4 82.705 L 93.4 82.705 Q 93.4 83.642 93.223 85.626 L 93.223 85.626 L 93.223 85.626 Q 93.047 87.61 93.047 88.765 L 93.047 88.765 L 93.047 88.765 Q 93.047 89.92 93.074 90.396 L 93.074 90.396 L 93.074 90.396 Q 93.101 90.871 93.359 91.809 L 93.359 91.809 L 93.359 91.809 Q 93.617 92.747 94.052 93.018 L 94.052 93.018 L 94.052 93.018 Q 94.514 93.236 94.514 93.603 L 94.514 93.603 L 94.514 93.603 Q 94.514 93.97 94.297 94.269 L 94.297 94.269 L 94.297 94.269 Q 93.291 95.655 91.117 95.655 L 91.117 95.655 L 91.117 95.655 Q 89.894 95.573 89.731 94.731 L 89.731 94.731 L 89.541 93.807 L 89.541 93.807 Q 89.514 93.616 89.378 93.616 L 89.378 93.616 L 89.16 93.725 L 89.16 93.725 Q 88.182 95.573 86.171 95.573 L 86.171 95.573 L 86.171 95.573 Q 83.345 95.519 83.345 91.333 Z  M 105.222 88.969 L 105.222 89.485 L 105.249 90.138 L 105.249 90.246 L 105.249 90.246 Q 105.249 91.687 106.119 92.285 L 106.119 92.285 L 106.119 92.285 Q 106.527 92.611 106.527 92.991 L 106.527 92.991 L 106.527 92.991 Q 106.527 93.372 106.336 93.643 L 106.336 93.643 L 106.336 93.643 Q 105.738 94.513 104.842 95.03 L 104.842 95.03 L 104.842 95.03 Q 103.646 95.736 102.749 95.736 L 102.749 95.736 L 102.749 95.736 Q 101.852 95.736 101.771 94.866 L 101.771 94.866 L 101.771 94.866 Q 101.716 94.187 101.499 94.187 L 101.499 94.187 L 101.309 94.296 L 101.309 94.296 Q 100.385 95.573 98.863 95.573 L 98.863 95.573 L 98.863 95.573 Q 97.748 95.573 96.947 95.002 L 96.947 95.002 L 96.947 95.002 Q 96.145 94.432 95.737 93.453 L 95.737 93.453 L 95.737 93.453 Q 94.949 91.605 94.949 89.295 L 94.949 89.295 L 94.949 89.295 Q 94.949 86.822 96.199 84.539 L 96.199 84.539 L 96.199 84.539 Q 96.824 83.452 97.884 82.759 L 97.884 82.759 L 97.884 82.759 Q 98.944 82.066 100.222 82.066 L 100.222 82.066 L 100.222 82.066 Q 100.819 82.066 101.2 82.229 L 101.2 82.229 L 101.58 82.392 L 101.58 82.392 Q 101.771 82.392 101.811 81.957 L 101.811 81.957 L 101.811 81.957 Q 101.852 81.523 101.852 80.829 L 101.852 80.829 L 101.852 80.829 Q 101.852 80.136 101.798 79.688 L 101.798 79.688 L 101.798 79.688 Q 101.743 79.24 101.662 79.022 L 101.662 79.022 L 101.662 79.022 Q 101.58 78.805 101.472 78.669 L 101.472 78.669 L 101.472 78.669 Q 101.309 78.451 100.928 78.207 L 100.928 78.207 L 100.928 78.207 Q 100.575 77.962 100.575 77.527 L 100.575 77.527 L 100.575 77.527 Q 100.575 76.631 102.11 75.815 L 102.11 75.815 L 102.11 75.815 Q 103.646 75 104.651 75 L 104.651 75 L 104.651 75 Q 105.412 75 105.494 75.679 L 105.494 75.679 L 105.494 75.679 Q 105.548 75.951 105.548 76.767 L 105.548 76.767 L 105.548 76.767 Q 105.548 77.582 105.372 80.082 L 105.372 80.082 L 105.372 80.082 Q 105.195 82.582 105.195 84.865 L 105.195 84.865 L 105.195 87.583 L 105.222 88.969 Z  M 99.569 90.736 L 99.569 90.736 L 99.569 90.736 Q 100.575 90.736 101.186 89.594 L 101.186 89.594 L 101.186 89.594 Q 101.798 88.453 101.798 87.556 L 101.798 87.556 L 101.798 87.556 Q 101.798 85.436 100.629 85.436 L 100.629 85.436 L 100.629 85.436 Q 99.678 85.436 99.039 86.645 L 99.039 86.645 L 99.039 86.645 Q 98.401 87.855 98.401 88.942 L 98.401 88.942 L 98.401 88.942 Q 98.401 90.627 99.569 90.736 Z  M 107.695 88.996 L 107.614 86.306 L 107.614 86.306 Q 107.614 85.871 107.41 85.49 L 107.41 85.49 L 107.41 85.49 Q 107.206 85.11 106.88 84.811 L 106.88 84.811 L 106.88 84.811 Q 106.554 84.512 106.554 84.159 L 106.554 84.159 L 106.554 84.159 Q 106.554 83.235 107.967 82.514 L 107.967 82.514 L 107.967 82.514 Q 109.38 81.794 110.345 81.794 L 110.345 81.794 L 110.345 81.794 Q 111.31 81.794 111.337 82.773 L 111.337 82.773 L 111.337 82.773 Q 111.337 83.452 111.215 85.205 L 111.215 85.205 L 111.215 85.205 Q 111.092 86.958 111.092 88.453 L 111.092 88.453 L 111.092 88.453 Q 111.092 92.067 111.745 92.991 L 111.745 92.991 L 111.745 92.991 Q 112.125 93.209 112.125 93.671 L 112.125 93.671 L 112.125 93.671 Q 112.125 94.567 111.133 95.084 L 111.133 95.084 L 111.133 95.084 Q 110.141 95.6 108.891 95.6 L 108.891 95.6 L 108.891 95.6 Q 107.233 95.6 107.233 94.486 L 107.233 94.486 L 107.233 94.486 Q 107.233 94.432 107.315 93.861 L 107.315 93.861 L 107.315 93.861 Q 107.695 91.687 107.695 88.996 L 107.695 88.996 Z  M 111.609 77.663 L 111.609 77.663 L 111.609 77.663 Q 111.609 78.669 110.644 79.28 L 110.644 79.28 L 110.644 79.28 Q 109.679 79.892 108.782 79.892 L 108.782 79.892 L 108.782 79.892 Q 107.885 79.892 107.383 79.552 L 107.383 79.552 L 107.383 79.552 Q 106.88 79.212 106.88 78.642 L 106.88 78.642 L 106.88 78.642 Q 106.88 77.609 107.858 76.97 L 107.858 76.97 L 107.858 76.97 Q 108.837 76.332 109.72 76.332 L 109.72 76.332 L 109.72 76.332 Q 110.603 76.332 111.106 76.685 L 111.106 76.685 L 111.106 76.685 Q 111.609 77.038 111.609 77.663 Z  M 117.832 81.631 L 117.832 81.631 L 117.832 81.631 Q 120.197 81.631 121.433 83.697 L 121.433 83.697 L 121.433 83.697 Q 122.67 85.762 122.67 88.752 L 122.67 88.752 L 122.67 88.752 Q 122.67 92.692 120.414 94.731 L 120.414 94.731 L 120.414 94.731 Q 119.164 95.845 117.642 95.845 L 117.642 95.845 L 117.642 95.845 Q 116.12 95.845 115.128 95.22 L 115.128 95.22 L 115.128 95.22 Q 114.136 94.595 113.62 93.562 L 113.62 93.562 L 113.62 93.562 Q 112.56 91.551 112.56 89.268 L 112.56 89.268 L 112.56 89.268 Q 112.56 86.605 113.783 84.267 L 113.783 84.267 L 113.783 84.267 Q 114.381 83.099 115.441 82.365 L 115.441 82.365 L 115.441 82.365 Q 116.501 81.631 117.832 81.631 Z  M 119.409 87.42 L 119.409 87.42 Q 119.409 86.605 119.082 85.952 L 119.082 85.952 L 119.082 85.952 Q 118.756 85.3 118.009 85.3 L 118.009 85.3 L 118.009 85.3 Q 117.262 85.3 116.569 86.346 L 116.569 86.346 L 116.569 86.346 Q 115.876 87.393 115.876 88.887 L 115.876 88.887 L 115.876 88.887 Q 115.876 90.98 117.262 90.98 L 117.262 90.98 L 117.262 90.98 Q 118.022 90.98 118.716 90.029 L 118.716 90.029 L 118.716 90.029 Q 119.409 89.078 119.409 87.42 L 119.409 87.42 Z  M 128.16 81.577 L 128.16 81.577 L 128.16 81.577 Q 131.747 81.577 131.747 83.697 L 131.747 83.697 L 131.747 83.697 Q 131.747 84.295 131.353 84.702 L 131.353 84.702 L 131.353 84.702 Q 130.959 85.11 130.456 85.11 L 130.456 85.11 L 130.456 85.11 Q 129.953 85.11 129.491 84.838 L 129.491 84.838 L 129.491 84.838 Q 129.029 84.566 128.458 84.566 L 128.458 84.566 L 128.458 84.566 Q 127.072 84.566 127.072 85.354 L 127.072 85.354 L 127.072 85.354 Q 127.072 85.708 127.507 85.952 L 127.507 85.952 L 127.507 85.952 Q 130.714 87.556 131.366 88.561 L 131.366 88.561 L 131.366 88.561 Q 132.155 89.73 132.155 91.361 L 132.155 91.361 L 132.155 91.361 Q 132.155 91.958 131.883 92.801 L 131.883 92.801 L 131.883 92.801 Q 131.611 93.643 131.149 94.228 L 131.149 94.228 L 131.149 94.228 Q 130.687 94.812 129.681 95.301 L 129.681 95.301 L 129.681 95.301 Q 128.676 95.79 127.29 95.79 L 127.29 95.79 L 127.29 95.79 Q 126.312 95.79 125.197 95.464 L 125.197 95.464 L 125.197 95.464 Q 122.942 94.812 122.942 92.774 L 122.942 92.774 L 122.942 92.774 Q 122.942 91.823 123.485 91.13 L 123.485 91.13 L 123.485 91.13 Q 124.029 90.437 124.844 90.437 L 124.844 90.437 L 124.844 90.437 Q 125.659 90.437 126.013 90.926 L 126.013 90.926 L 126.013 90.926 Q 126.04 90.953 126.176 91.17 L 126.176 91.17 L 126.176 91.17 Q 126.312 91.388 126.42 91.496 L 126.42 91.496 L 126.42 91.496 Q 126.774 91.85 127.344 91.85 L 127.344 91.85 L 127.344 91.85 Q 127.915 91.85 128.241 91.564 L 128.241 91.564 L 128.241 91.564 Q 128.567 91.279 128.567 90.79 L 128.567 90.79 L 128.567 90.79 Q 128.567 90.301 127.806 89.784 L 127.806 89.784 L 127.806 89.784 Q 127.045 89.268 126.135 88.887 L 126.135 88.887 L 126.135 88.887 Q 125.224 88.507 124.463 87.678 L 124.463 87.678 L 124.463 87.678 Q 123.703 86.849 123.703 85.735 L 123.703 85.735 L 123.703 85.735 Q 123.703 83.833 124.939 82.705 L 124.939 82.705 L 124.939 82.705 Q 126.176 81.577 128.16 81.577 Z " fill-rule="evenodd" fill="rgb(249,167,55)" vector-effect="non-scaling-stroke" stroke-width="5" stroke="rgb(247,248,249)" stroke-linejoin="miter" stroke-linecap="square" stroke-miterlimit="3"/><path d=" M 73.941 84.811 L 73.941 84.811 L 73.941 84.811 Q 74.648 85.708 75.137 87.012 L 75.137 87.012 L 75.137 87.012 Q 75.626 88.317 75.626 89.771 L 75.626 89.771 L 75.626 89.771 Q 75.626 91.225 75.259 92.312 L 75.259 92.312 L 75.259 92.312 Q 74.892 93.399 74.281 94.024 L 74.281 94.024 L 74.281 94.024 Q 73.669 94.649 73.058 95.057 L 73.058 95.057 L 73.058 95.057 Q 72.447 95.464 71.74 95.627 L 71.74 95.627 L 71.74 95.627 Q 70.68 95.872 70.136 95.872 L 70.136 95.872 L 70.136 95.872 Q 67.745 95.872 66.372 94.486 L 66.372 94.486 L 66.372 94.486 Q 65 93.1 65 90.871 L 65 90.871 L 65 90.871 Q 65 89.621 65.611 88.521 L 65.611 88.521 L 65.611 88.521 Q 66.223 87.42 67.174 87.42 L 67.174 87.42 L 67.174 87.42 Q 67.5 87.42 67.704 87.665 L 67.704 87.665 L 67.704 87.665 Q 67.908 87.909 67.962 88.507 L 67.962 88.507 L 67.962 88.507 Q 68.017 89.105 68.207 89.662 L 68.207 89.662 L 68.207 89.662 Q 68.397 90.219 68.615 90.477 L 68.615 90.477 L 68.615 90.477 Q 68.832 90.736 69.104 90.899 L 69.104 90.899 L 69.104 90.899 Q 69.484 91.089 69.756 91.089 L 69.756 91.089 L 69.756 91.089 Q 70.435 91.089 70.816 90.613 L 70.816 90.613 L 70.816 90.613 Q 71.196 90.138 71.196 89.35 L 71.196 89.35 L 71.196 89.35 Q 71.196 88.561 70.68 87.624 L 70.68 87.624 L 70.68 87.624 Q 70.164 86.686 69.443 85.83 L 69.443 85.83 L 69.443 85.83 Q 68.723 84.974 67.989 84.104 L 67.989 84.104 L 67.989 84.104 Q 66.223 82.012 66.223 80.136 L 66.223 80.136 L 66.223 80.136 Q 66.223 77.691 67.867 76.372 L 67.867 76.372 L 67.867 76.372 Q 69.511 75.054 72.066 75.054 L 72.066 75.054 L 72.066 75.054 Q 73.479 75.054 74.091 75.598 L 74.091 75.598 L 74.091 75.598 Q 74.702 76.141 74.702 77.514 L 74.702 77.514 L 74.702 77.514 Q 74.702 78.886 73.914 78.886 L 73.914 78.886 L 73.914 78.886 Q 73.642 78.886 73.194 78.682 L 73.194 78.682 L 73.194 78.682 Q 72.745 78.479 72.175 78.479 L 72.175 78.479 L 72.175 78.479 Q 71.604 78.479 71.224 78.941 L 71.224 78.941 L 71.224 78.941 Q 70.843 79.403 70.843 80.096 L 70.843 80.096 L 70.843 80.096 Q 70.843 80.789 71.332 81.577 L 71.332 81.577 L 71.332 81.577 Q 71.821 82.365 72.528 83.14 L 72.528 83.14 L 72.528 83.14 Q 73.235 83.914 73.941 84.811 Z  M 80.518 77.989 L 80.518 77.989 L 80.464 79.294 L 80.464 79.294 Q 80.464 80.001 80.776 80.082 L 80.776 80.082 L 80.776 80.082 Q 81.089 80.164 81.388 80.164 L 81.388 80.164 L 81.388 80.164 Q 81.687 80.164 82.285 80.109 L 82.285 80.109 L 82.285 80.109 Q 82.855 80.109 82.855 80.843 L 82.855 80.843 L 82.855 80.843 Q 82.855 82.229 80.871 82.99 L 80.871 82.99 L 80.871 82.99 Q 80.6 83.099 80.491 83.479 L 80.491 83.479 L 80.491 83.479 Q 80.328 85.137 80.328 87.366 L 80.328 87.366 L 80.328 87.366 Q 80.328 89.594 80.491 90.301 L 80.491 90.301 L 80.491 90.301 Q 80.627 90.953 81.469 91.089 L 81.469 91.089 L 81.469 91.089 Q 81.66 91.089 81.823 91.279 L 81.823 91.279 L 81.823 91.279 Q 82.122 91.632 82.122 91.972 L 82.122 91.972 L 82.122 91.972 Q 82.122 92.312 82.067 92.624 L 82.067 92.624 L 82.067 92.624 Q 82.013 92.937 81.809 93.494 L 81.809 93.494 L 81.809 93.494 Q 81.605 94.051 81.293 94.527 L 81.293 94.527 L 81.293 94.527 Q 80.98 95.002 80.355 95.356 L 80.355 95.356 L 80.355 95.356 Q 79.73 95.709 78.942 95.709 L 78.942 95.709 L 78.942 95.709 Q 77.583 95.709 76.985 94.105 L 76.985 94.105 L 76.985 94.105 Q 76.768 93.48 76.768 92.611 L 76.768 92.611 L 76.985 85.3 L 76.985 85.3 Q 76.985 83.968 76.836 83.126 L 76.836 83.126 L 76.836 83.126 Q 76.686 82.283 75.789 81.55 L 75.789 81.55 L 75.789 81.55 Q 75.409 81.278 75.409 80.789 L 75.409 80.789 L 75.409 80.789 Q 75.409 80.3 75.898 79.81 L 75.898 79.81 L 75.898 79.81 Q 77.393 78.886 78.643 76.902 L 78.643 76.902 L 78.643 76.902 Q 79.023 76.386 79.594 76.386 L 79.594 76.386 L 79.594 76.386 Q 80.518 76.386 80.518 77.989 Z  M 83.345 91.333 L 83.345 91.333 L 83.426 86.931 L 83.426 86.931 Q 83.426 86.143 83.29 85.558 L 83.29 85.558 L 83.29 85.558 Q 83.154 84.974 82.869 84.634 L 82.869 84.634 L 82.869 84.634 Q 82.584 84.295 82.584 83.914 L 82.584 83.914 L 82.584 83.914 Q 82.584 83.072 83.942 82.351 L 83.942 82.351 L 83.942 82.351 Q 85.301 81.631 86.035 81.631 L 86.035 81.631 L 86.035 81.631 Q 86.769 81.631 87.027 81.93 L 87.027 81.93 L 87.027 81.93 Q 87.285 82.229 87.285 83.017 L 87.285 83.017 L 87.285 83.017 Q 87.285 83.805 87.149 85.504 L 87.149 85.504 L 87.149 85.504 Q 87.013 87.203 87.013 87.556 L 87.013 87.556 L 87.013 87.556 Q 87.013 90.518 88.291 90.518 L 88.291 90.518 L 88.291 90.518 Q 89.215 90.518 89.541 88.589 L 89.541 88.589 L 89.541 88.589 Q 89.677 87.882 89.677 87.012 L 89.677 87.012 L 89.677 87.012 Q 89.677 85.273 89.378 84.43 L 89.378 84.43 L 89.378 84.43 Q 89.079 84.05 89.079 83.697 L 89.079 83.697 L 89.079 83.697 Q 89.079 82.881 90.302 82.324 L 90.302 82.324 L 90.302 82.324 Q 91.525 81.767 92.462 81.767 L 92.462 81.767 L 92.462 81.767 Q 93.4 81.767 93.4 82.705 L 93.4 82.705 L 93.4 82.705 Q 93.4 83.642 93.223 85.626 L 93.223 85.626 L 93.223 85.626 Q 93.047 87.61 93.047 88.765 L 93.047 88.765 L 93.047 88.765 Q 93.047 89.92 93.074 90.396 L 93.074 90.396 L 93.074 90.396 Q 93.101 90.871 93.359 91.809 L 93.359 91.809 L 93.359 91.809 Q 93.617 92.747 94.052 93.018 L 94.052 93.018 L 94.052 93.018 Q 94.514 93.236 94.514 93.603 L 94.514 93.603 L 94.514 93.603 Q 94.514 93.97 94.297 94.269 L 94.297 94.269 L 94.297 94.269 Q 93.291 95.655 91.117 95.655 L 91.117 95.655 L 91.117 95.655 Q 89.894 95.573 89.731 94.731 L 89.731 94.731 L 89.541 93.807 L 89.541 93.807 Q 89.514 93.616 89.378 93.616 L 89.378 93.616 L 89.16 93.725 L 89.16 93.725 Q 88.182 95.573 86.171 95.573 L 86.171 95.573 L 86.171 95.573 Q 83.345 95.519 83.345 91.333 Z  M 105.222 88.969 L 105.222 89.485 L 105.249 90.138 L 105.249 90.246 L 105.249 90.246 Q 105.249 91.687 106.119 92.285 L 106.119 92.285 L 106.119 92.285 Q 106.527 92.611 106.527 92.991 L 106.527 92.991 L 106.527 92.991 Q 106.527 93.372 106.336 93.643 L 106.336 93.643 L 106.336 93.643 Q 105.738 94.513 104.842 95.03 L 104.842 95.03 L 104.842 95.03 Q 103.646 95.736 102.749 95.736 L 102.749 95.736 L 102.749 95.736 Q 101.852 95.736 101.771 94.866 L 101.771 94.866 L 101.771 94.866 Q 101.716 94.187 101.499 94.187 L 101.499 94.187 L 101.309 94.296 L 101.309 94.296 Q 100.385 95.573 98.863 95.573 L 98.863 95.573 L 98.863 95.573 Q 97.748 95.573 96.947 95.002 L 96.947 95.002 L 96.947 95.002 Q 96.145 94.432 95.737 93.453 L 95.737 93.453 L 95.737 93.453 Q 94.949 91.605 94.949 89.295 L 94.949 89.295 L 94.949 89.295 Q 94.949 86.822 96.199 84.539 L 96.199 84.539 L 96.199 84.539 Q 96.824 83.452 97.884 82.759 L 97.884 82.759 L 97.884 82.759 Q 98.944 82.066 100.222 82.066 L 100.222 82.066 L 100.222 82.066 Q 100.819 82.066 101.2 82.229 L 101.2 82.229 L 101.58 82.392 L 101.58 82.392 Q 101.771 82.392 101.811 81.957 L 101.811 81.957 L 101.811 81.957 Q 101.852 81.523 101.852 80.829 L 101.852 80.829 L 101.852 80.829 Q 101.852 80.136 101.798 79.688 L 101.798 79.688 L 101.798 79.688 Q 101.743 79.24 101.662 79.022 L 101.662 79.022 L 101.662 79.022 Q 101.58 78.805 101.472 78.669 L 101.472 78.669 L 101.472 78.669 Q 101.309 78.451 100.928 78.207 L 100.928 78.207 L 100.928 78.207 Q 100.575 77.962 100.575 77.527 L 100.575 77.527 L 100.575 77.527 Q 100.575 76.631 102.11 75.815 L 102.11 75.815 L 102.11 75.815 Q 103.646 75 104.651 75 L 104.651 75 L 104.651 75 Q 105.412 75 105.494 75.679 L 105.494 75.679 L 105.494 75.679 Q 105.548 75.951 105.548 76.767 L 105.548 76.767 L 105.548 76.767 Q 105.548 77.582 105.372 80.082 L 105.372 80.082 L 105.372 80.082 Q 105.195 82.582 105.195 84.865 L 105.195 84.865 L 105.195 87.583 L 105.222 88.969 Z  M 99.569 90.736 L 99.569 90.736 L 99.569 90.736 Q 100.575 90.736 101.186 89.594 L 101.186 89.594 L 101.186 89.594 Q 101.798 88.453 101.798 87.556 L 101.798 87.556 L 101.798 87.556 Q 101.798 85.436 100.629 85.436 L 100.629 85.436 L 100.629 85.436 Q 99.678 85.436 99.039 86.645 L 99.039 86.645 L 99.039 86.645 Q 98.401 87.855 98.401 88.942 L 98.401 88.942 L 98.401 88.942 Q 98.401 90.627 99.569 90.736 Z  M 107.695 88.996 L 107.614 86.306 L 107.614 86.306 Q 107.614 85.871 107.41 85.49 L 107.41 85.49 L 107.41 85.49 Q 107.206 85.11 106.88 84.811 L 106.88 84.811 L 106.88 84.811 Q 106.554 84.512 106.554 84.159 L 106.554 84.159 L 106.554 84.159 Q 106.554 83.235 107.967 82.514 L 107.967 82.514 L 107.967 82.514 Q 109.38 81.794 110.345 81.794 L 110.345 81.794 L 110.345 81.794 Q 111.31 81.794 111.337 82.773 L 111.337 82.773 L 111.337 82.773 Q 111.337 83.452 111.215 85.205 L 111.215 85.205 L 111.215 85.205 Q 111.092 86.958 111.092 88.453 L 111.092 88.453 L 111.092 88.453 Q 111.092 92.067 111.745 92.991 L 111.745 92.991 L 111.745 92.991 Q 112.125 93.209 112.125 93.671 L 112.125 93.671 L 112.125 93.671 Q 112.125 94.567 111.133 95.084 L 111.133 95.084 L 111.133 95.084 Q 110.141 95.6 108.891 95.6 L 108.891 95.6 L 108.891 95.6 Q 107.233 95.6 107.233 94.486 L 107.233 94.486 L 107.233 94.486 Q 107.233 94.432 107.315 93.861 L 107.315 93.861 L 107.315 93.861 Q 107.695 91.687 107.695 88.996 L 107.695 88.996 Z  M 111.609 77.663 L 111.609 77.663 L 111.609 77.663 Q 111.609 78.669 110.644 79.28 L 110.644 79.28 L 110.644 79.28 Q 109.679 79.892 108.782 79.892 L 108.782 79.892 L 108.782 79.892 Q 107.885 79.892 107.383 79.552 L 107.383 79.552 L 107.383 79.552 Q 106.88 79.212 106.88 78.642 L 106.88 78.642 L 106.88 78.642 Q 106.88 77.609 107.858 76.97 L 107.858 76.97 L 107.858 76.97 Q 108.837 76.332 109.72 76.332 L 109.72 76.332 L 109.72 76.332 Q 110.603 76.332 111.106 76.685 L 111.106 76.685 L 111.106 76.685 Q 111.609 77.038 111.609 77.663 Z  M 117.832 81.631 L 117.832 81.631 L 117.832 81.631 Q 120.197 81.631 121.433 83.697 L 121.433 83.697 L 121.433 83.697 Q 122.67 85.762 122.67 88.752 L 122.67 88.752 L 122.67 88.752 Q 122.67 92.692 120.414 94.731 L 120.414 94.731 L 120.414 94.731 Q 119.164 95.845 117.642 95.845 L 117.642 95.845 L 117.642 95.845 Q 116.12 95.845 115.128 95.22 L 115.128 95.22 L 115.128 95.22 Q 114.136 94.595 113.62 93.562 L 113.62 93.562 L 113.62 93.562 Q 112.56 91.551 112.56 89.268 L 112.56 89.268 L 112.56 89.268 Q 112.56 86.605 113.783 84.267 L 113.783 84.267 L 113.783 84.267 Q 114.381 83.099 115.441 82.365 L 115.441 82.365 L 115.441 82.365 Q 116.501 81.631 117.832 81.631 Z  M 119.409 87.42 L 119.409 87.42 Q 119.409 86.605 119.082 85.952 L 119.082 85.952 L 119.082 85.952 Q 118.756 85.3 118.009 85.3 L 118.009 85.3 L 118.009 85.3 Q 117.262 85.3 116.569 86.346 L 116.569 86.346 L 116.569 86.346 Q 115.876 87.393 115.876 88.887 L 115.876 88.887 L 115.876 88.887 Q 115.876 90.98 117.262 90.98 L 117.262 90.98 L 117.262 90.98 Q 118.022 90.98 118.716 90.029 L 118.716 90.029 L 118.716 90.029 Q 119.409 89.078 119.409 87.42 L 119.409 87.42 Z  M 128.16 81.577 L 128.16 81.577 L 128.16 81.577 Q 131.747 81.577 131.747 83.697 L 131.747 83.697 L 131.747 83.697 Q 131.747 84.295 131.353 84.702 L 131.353 84.702 L 131.353 84.702 Q 130.959 85.11 130.456 85.11 L 130.456 85.11 L 130.456 85.11 Q 129.953 85.11 129.491 84.838 L 129.491 84.838 L 129.491 84.838 Q 129.029 84.566 128.459 84.566 L 128.459 84.566 L 128.459 84.566 Q 127.072 84.566 127.072 85.354 L 127.072 85.354 L 127.072 85.354 Q 127.072 85.708 127.507 85.952 L 127.507 85.952 L 127.507 85.952 Q 130.714 87.556 131.366 88.561 L 131.366 88.561 L 131.366 88.561 Q 132.155 89.73 132.155 91.361 L 132.155 91.361 L 132.155 91.361 Q 132.155 91.958 131.883 92.801 L 131.883 92.801 L 131.883 92.801 Q 131.611 93.643 131.149 94.228 L 131.149 94.228 L 131.149 94.228 Q 130.687 94.812 129.681 95.301 L 129.681 95.301 L 129.681 95.301 Q 128.676 95.79 127.29 95.79 L 127.29 95.79 L 127.29 95.79 Q 126.312 95.79 125.197 95.464 L 125.197 95.464 L 125.197 95.464 Q 122.942 94.812 122.942 92.774 L 122.942 92.774 L 122.942 92.774 Q 122.942 91.823 123.485 91.13 L 123.485 91.13 L 123.485 91.13 Q 124.029 90.437 124.844 90.437 L 124.844 90.437 L 124.844 90.437 Q 125.659 90.437 126.013 90.926 L 126.013 90.926 L 126.013 90.926 Q 126.04 90.953 126.176 91.17 L 126.176 91.17 L 126.176 91.17 Q 126.312 91.388 126.42 91.496 L 126.42 91.496 L 126.42 91.496 Q 126.774 91.85 127.344 91.85 L 127.344 91.85 L 127.344 91.85 Q 127.915 91.85 128.241 91.564 L 128.241 91.564 L 128.241 91.564 Q 128.567 91.279 128.567 90.79 L 128.567 90.79 L 128.567 90.79 Q 128.567 90.301 127.806 89.784 L 127.806 89.784 L 127.806 89.784 Q 127.045 89.268 126.135 88.887 L 126.135 88.887 L 126.135 88.887 Q 125.224 88.507 124.463 87.678 L 124.463 87.678 L 124.463 87.678 Q 123.703 86.849 123.703 85.735 L 123.703 85.735 L 123.703 85.735 Q 123.703 83.833 124.939 82.705 L 124.939 82.705 L 124.939 82.705 Q 126.176 81.577 128.16 81.577 Z " fill-rule="evenodd" fill="rgb(249,167,55)"/></g></svg>