<?xml version="1.0" standalone="no"?><!-- Generator: Gravit.io --><svg xmlns="http://www.w3.org/2000/svg" xmlns:xlink="http://www.w3.org/1999/xlink" style="isolation:isolate" viewBox="0 0 140 116" width="140" height="116"><defs><clipPath id="_clipPath_n0HuTqZik6386BjYDhkzbzZvn7P0lCiT"><rect width="140" height="116"/></clipPath></defs><g clip-path="url(#_clipPath_n0HuTqZik6386BjYDhkzbzZvn7P0lCiT)"><path d=" M 114.079 30.504 L 99.96 23.239 L 55.865 45.918 L 55.96 45.981 L 69.984 53.183 L 85.082 45.444 L 114.079 30.504 L 114.079 30.504 Z " fill="rgb(76,151,255)"/><path d=" M 84.135 15.09 L 69.984 7.825 L 25.89 30.504 L 40.04 37.769 L 84.135 15.09 Z " fill="rgb(76,151,255)"/><path d=" M 54.444 47.845 L 54.444 61.301 C 54.444 61.711 54.223 62.09 53.875 62.312 C 53.686 62.438 53.465 62.469 53.243 62.469 C 53.054 62.469 52.864 62.438 52.707 62.343 L 39.503 55.584 C 39.093 55.394 38.872 54.984 38.872 54.541 L 38.872 39.854 L 24.5 32.463 L 24.5 85.369 L 68.816 108.175 L 68.816 55.236 L 68.784 55.236 L 54.444 47.845 L 54.444 47.845 Z " fill="rgb(69,136,230)"/><path d=" M 42.631 39.127 L 41.335 39.791 L 41.241 39.854 L 41.241 53.815 L 52.075 59.406 L 52.075 45.95 C 52.075 45.76 52.138 45.571 52.201 45.413 C 52.327 45.192 52.485 45.002 52.707 44.908 L 53.243 44.623 L 97.338 21.944 L 92.031 19.196 L 86.725 16.448 L 42.631 39.127 Z " fill="rgb(255,140,26)"/><path d=" M 71.184 55.236 L 71.184 108.175 L 115.5 85.369 L 115.5 32.463 L 71.184 55.236 Z " fill="rgb(69,136,230)"/></g></svg>