<?xml version="1.0" standalone="no"?><!-- Generator: Gravit.io --><svg xmlns="http://www.w3.org/2000/svg" xmlns:xlink="http://www.w3.org/1999/xlink" style="isolation:isolate" viewBox="0 0 140 116" width="140" height="116"><defs><clipPath id="_clipPath_h3uPHmBXeTrk04OmPAIVNoc4CHH9wfpz"><rect width="140" height="116"/></clipPath></defs><g clip-path="url(#_clipPath_h3uPHmBXeTrk04OmPAIVNoc4CHH9wfpz)"><g id="_90919680"><path d=" M 66.113 40.056 L 66.113 6.403 C 70.007 6.493 73.886 7.047 77.66 8.08 C 77.271 10.387 78.259 12.693 80.177 14.026 L 69.034 40.67 C 68.075 40.356 67.102 40.161 66.113 40.056 L 66.113 40.056 Z " fill-rule="evenodd" fill="rgb(31,26,23)"/><path d=" M 63.175 40.056 L 63.175 6.448 C 57.873 6.717 52.691 8.02 47.883 10.282 L 60.344 40.64 C 61.258 40.341 62.202 40.146 63.175 40.056 L 63.175 40.056 Z " fill-rule="evenodd" fill="rgb(31,26,23)"/><path d=" M 58.093 41.486 L 45.692 11.292 C 40.929 13.733 36.631 17.028 33.036 20.997 L 55.352 43.313 C 56.191 42.609 57.104 41.995 58.093 41.486 L 58.093 41.486 Z " fill-rule="evenodd" fill="rgb(31,26,23)"/><path d=" M 31.491 22.825 C 28.211 26.719 25.725 31.227 24.182 36.064 L 51.92 47.672 C 52.399 46.728 52.998 45.83 53.687 45.021 L 31.491 22.825 L 31.491 22.825 Z " fill-rule="evenodd" fill="rgb(31,26,23)"/><path d=" M 50.946 49.903 L 23.598 38.461 C 22.969 43.343 23.089 48.286 23.957 53.123 L 50.302 53.123 C 50.392 52.03 50.617 50.952 50.946 49.903 L 50.946 49.903 Z " fill-rule="evenodd" fill="rgb(31,26,23)"/><path d=" M 50.311 55.541 L 24.64 55.541 C 26.198 59.585 28.22 63.419 30.646 66.999 L 50.925 58.671 C 50.61 57.653 50.401 56.604 50.311 55.541 L 50.311 55.541 Z " fill-rule="evenodd" fill="rgb(31,26,23)"/><path d=" M 53.725 63.482 C 53.006 62.643 52.392 61.73 51.898 60.741 L 32.323 68.769 C 35.049 71.48 38.059 73.861 41.294 75.913 L 53.725 63.482 L 53.725 63.482 Z " fill-rule="evenodd" fill="rgb(31,26,23)"/><path d=" M 69.29 81.428 C 69.005 79.107 70.068 76.845 72.045 75.587 L 68.945 67.919 C 64.257 69.372 59.15 68.338 55.406 65.163 L 43.424 77.145 C 51.347 81.353 60.438 82.866 69.29 81.428 L 69.29 81.428 Z " fill-rule="evenodd" fill="rgb(31,26,23)"/><path d=" M 71.036 67.055 L 74.152 74.784 C 76.563 74.379 78.959 75.473 80.247 77.539 C 81.58 76.91 82.898 76.251 84.201 75.562 L 73.852 65.198 C 72.984 65.932 72.04 66.561 71.036 67.055 L 71.036 67.055 Z " fill-rule="evenodd" fill="rgb(31,26,23)"/><path d=" M 108.279 58.559 C 107.41 57.705 106.811 56.612 106.571 55.398 L 78.879 55.398 C 78.639 58.379 77.456 61.21 75.539 63.486 L 86.397 74.344 C 94.29 69.971 101.629 64.669 108.279 58.559 L 108.279 58.559 Z " fill-rule="evenodd" fill="rgb(31,26,23)"/><path d=" M 92.636 16.79 C 93.939 18.093 95.152 19.471 96.29 20.923 L 73.824 43.389 C 73.001 42.7 72.117 42.116 71.173 41.622 L 82.316 14.977 C 84.383 15.397 86.525 14.678 87.948 13.105 C 89.595 14.213 91.168 15.457 92.636 16.79 L 92.636 16.79 Z " fill-rule="evenodd" fill="rgb(31,26,23)"/><g id="Group"><path d=" M 71.513 80.742 C 71.513 78.742 73.13 77.118 75.122 77.118 C 77.115 77.118 78.732 78.742 78.732 80.742 C 78.732 82.742 77.115 84.366 75.122 84.366 C 73.13 84.366 71.513 82.742 71.513 80.742 Z " fill="rgb(218,37,29)"/><path d=" M 109.55 53.743 C 109.55 51.743 111.174 50.119 113.174 50.119 C 115.174 50.119 116.798 51.743 116.798 53.743 C 116.798 55.743 115.174 57.367 113.174 57.367 C 111.174 57.367 109.55 55.743 109.55 53.743 Z " fill="rgb(218,37,29)"/><path d=" M 79.851 9.115 C 79.851 7.115 81.475 5.491 83.475 5.491 C 85.476 5.491 87.1 7.115 87.1 9.115 C 87.1 11.116 85.476 12.74 83.475 12.74 C 81.475 12.74 79.851 11.116 79.851 9.115 Z " fill="rgb(218,37,29)"/></g><path d=" M 38.32 110.492 L 38.32 100.981 L 42.394 100.981 L 47.935 107.541 L 47.935 101.042 L 50.781 101.042 L 50.781 110.492 L 46.438 110.492 L 41.106 104.262 L 41.106 110.492 L 38.32 110.492 Z " fill-rule="evenodd" fill="rgb(31,26,23)"/><path d=" M 53.17 110.492 L 53.17 100.906 L 55.835 100.906 L 55.835 110.492 L 53.17 110.492 Z " fill-rule="evenodd" fill="rgb(31,26,23)"/><path d=" M 66.51 106.998 L 69.161 106.998 L 69.161 108.271 C 69.161 109.589 68.023 110.622 66.705 110.488 L 61.193 110.488 C 59.815 110.488 58.677 109.454 58.527 108.091 L 58.527 103.299 C 58.527 101.876 59.771 100.752 61.193 100.902 L 66.705 100.902 C 67.978 100.902 69.041 101.861 69.176 103.119 L 69.176 104.407 L 66.51 104.407 C 66.495 103.763 65.956 103.269 65.312 103.299 L 62.526 103.299 C 61.822 103.269 61.223 103.808 61.193 104.497 L 61.193 106.893 C 61.223 107.597 61.822 108.121 62.526 108.091 L 65.312 108.091 C 65.941 108.121 66.48 107.642 66.51 106.998 L 66.51 106.998 Z " fill-rule="evenodd" fill="rgb(31,26,23)"/><path d=" M 74.53 108.983 L 73.876 110.509 L 71.042 110.509 L 74.966 101.026 L 79.327 101.026 L 83.36 110.509 L 80.308 110.509 L 79.872 108.983 L 74.53 108.983 L 74.53 108.983 Z  M 78.782 106.694 L 75.512 106.694 L 77.147 102.661 L 78.782 106.694 L 78.782 106.694 Z " fill-rule="evenodd" fill="rgb(31,26,23)"/><path d=" M 88.268 105.013 L 88.268 110.449 L 85.602 110.449 L 85.602 100.864 L 88.673 100.864 L 93.48 108.337 L 97.958 100.864 L 100.984 100.864 L 100.984 110.449 L 98.318 110.449 L 98.318 105.312 L 95.232 110.449 L 91.758 110.449 L 88.268 105.013 Z " fill-rule="evenodd" fill="rgb(31,26,23)"/><path d=" M 103.435 110.492 L 103.435 100.79 L 111.828 100.79 C 113.137 100.79 114.118 101.88 114.336 103.188 L 114.336 105.805 C 114.336 107.113 113.137 108.312 111.828 108.312 L 106.269 108.312 L 106.269 110.492 L 103.435 110.492 L 103.435 110.492 Z  M 106.269 105.696 L 106.269 103.297 L 110.52 103.297 C 112.155 103.297 112.155 105.696 110.52 105.696 L 106.269 105.696 Z " fill-rule="evenodd" fill="rgb(31,26,23)"/><path d=" M 26.647 106.839 L 26.647 100.848 L 23.981 100.848 L 23.981 108.142 C 23.981 109.415 25.015 110.434 26.273 110.434 L 33.746 110.434 C 35.019 110.434 36.038 109.415 36.038 108.142 L 36.038 100.923 L 33.372 100.923 L 33.372 106.839 C 33.372 107.498 32.833 108.037 32.174 108.037 L 27.845 108.037 C 27.186 108.037 26.647 107.498 26.647 106.839 L 26.647 106.839 Z " fill-rule="evenodd" fill="rgb(31,26,23)"/><path d=" M 104.706 36.562 C 103.358 33.372 101.875 30.242 100.258 27.172 C 99.434 25.719 98.565 24.296 97.651 22.903 L 75.5 45.054 C 76.204 45.908 76.818 46.822 77.313 47.795 L 104.706 36.562 L 104.706 36.562 Z " fill-rule="evenodd" fill="rgb(31,26,23)"/><path d=" M 105.659 38.786 C 106.992 42.245 108.205 45.765 109.253 49.33 C 107.905 50.183 106.947 51.561 106.602 53.134 L 78.895 53.134 C 78.805 52.071 78.61 51.022 78.281 50.004 L 105.659 38.786 L 105.659 38.786 Z " fill-rule="evenodd" fill="rgb(31,26,23)"/></g></g></svg>