<?xml version="1.0" standalone="no"?><!-- Generator: Gravit.io --><svg xmlns="http://www.w3.org/2000/svg" xmlns:xlink="http://www.w3.org/1999/xlink" style="isolation:isolate" viewBox="0 0 256 256" width="256" height="256"><path d=" M 25.98 55.203 L 125.905 55.775 L 125.714 84.38 L 145.546 55.394 L 153.365 55.394 L 125.523 97.538 L 125.523 107.644 L 160.23 55.775 L 168.468 55.552 L 124.951 119.277 L 125.333 128.24 L 176.63 55.394 L 183.949 55.552 L 125.333 139.3 L 125.333 150.551 L 190.36 55.394 L 223.541 55.966 C 219.346 183.732 37.803 190.597 25.98 55.203 Z " fill="rgb(254,253,254)"/><path d=" M 8.705 175.589 L 16.152 175.751 L 16.102 199.056 C 19.673 209.387 35.106 210.408 38.039 198.801 L 38.001 175.774 L 44.962 175.852 L 44.799 199.312 C 42.376 217.04 14.444 221.121 9.342 199.184 L 8.705 175.589 Z " fill="rgb(254,253,254)"/><path d=" M 55.769 213.901 L 62.472 214.201 L 62.672 185.386 L 84.284 213.901 L 92.388 213.901 L 92.288 175.981 L 85.285 175.981 L 85.084 205.397 L 63.173 175.881 L 55.568 176.181 L 55.769 213.901 Z " fill="rgb(254,253,254)"/><rect x="102.594" y="175.68" width="7.104" height="38.521" transform="matrix(1,0,0,1,0,0)" fill="rgb(254,253,254)"/><rect x="234.466" y="175.287" width="7.104" height="38.521" transform="matrix(1,0,0,1,0,0)" fill="rgb(254,253,254)"/><path d=" M 116.326 175.856 L 123.798 175.774 L 136.855 208.127 L 149.336 175.774 L 156.973 175.856 L 141.781 213.628 L 131.271 213.546 L 116.326 175.856 Z " fill="rgb(254,253,254)"/><path d=" M 193.453 213.72 L 185.981 213.802 L 172.925 181.449 L 160.444 213.802 L 152.807 213.72 L 167.998 175.948 L 178.509 176.03 L 193.453 213.72 Z " fill="rgb(254,253,254)"/><path d=" M 208.386 208.209 L 227.191 208.378 L 227.191 214.054 L 200.932 213.715 L 200.508 175.681 L 208.132 175.766 L 208.386 208.209 Z " fill="rgb(254,253,254)"/></svg>